G04 #@! TF.GenerationSoftware,KiCad,Pcbnew,5.1.4-e60b266~84~ubuntu18.04.1*
G04 #@! TF.CreationDate,2019-10-24T14:21:48+01:00*
G04 #@! TF.ProjectId,6809e_adapter,36383039-655f-4616-9461-707465722e6b,rev?*
G04 #@! TF.SameCoordinates,PX9fdfbc0PY791ddc0*
G04 #@! TF.FileFunction,Legend,Bot*
G04 #@! TF.FilePolarity,Positive*
%FSLAX46Y46*%
G04 Gerber Fmt 4.6, Leading zero omitted, Abs format (unit mm)*
G04 Created by KiCad (PCBNEW 5.1.4-e60b266~84~ubuntu18.04.1) date 2019-10-24 14:21:48*
%MOMM*%
%LPD*%
G04 APERTURE LIST*
%ADD10C,0.200000*%
%ADD11C,0.150000*%
%ADD12C,0.250000*%
%ADD13C,0.120000*%
G04 APERTURE END LIST*
D10*
X38911523Y37872143D02*
X38911523Y37991191D01*
X38852000Y38110239D01*
X38792476Y38169762D01*
X38673428Y38229286D01*
X38435333Y38288810D01*
X38137714Y38288810D01*
X37899619Y38229286D01*
X37780571Y38169762D01*
X37721047Y38110239D01*
X37661523Y37991191D01*
X37661523Y37872143D01*
X37721047Y37753096D01*
X37780571Y37693572D01*
X37899619Y37634048D01*
X38137714Y37574524D01*
X38435333Y37574524D01*
X38673428Y37634048D01*
X38792476Y37693572D01*
X38852000Y37753096D01*
X38911523Y37872143D01*
X37780571Y38824524D02*
X37721047Y38884048D01*
X37661523Y38824524D01*
X37721047Y38765000D01*
X37780571Y38824524D01*
X37661523Y38824524D01*
X37780571Y39419762D02*
X37721047Y39479286D01*
X37661523Y39419762D01*
X37721047Y39360239D01*
X37780571Y39419762D01*
X37661523Y39419762D01*
X37661523Y40015000D02*
X38911523Y40015000D01*
X37661523Y40610239D02*
X38911523Y40610239D01*
X38911523Y40907858D01*
X38852000Y41086429D01*
X38732952Y41205477D01*
X38613904Y41265000D01*
X38375809Y41324524D01*
X38197238Y41324524D01*
X37959142Y41265000D01*
X37840095Y41205477D01*
X37721047Y41086429D01*
X37661523Y40907858D01*
X37661523Y40610239D01*
X37780571Y41860239D02*
X37721047Y41919762D01*
X37661523Y41860239D01*
X37721047Y41800715D01*
X37780571Y41860239D01*
X37661523Y41860239D01*
X37780571Y42455477D02*
X37721047Y42515000D01*
X37661523Y42455477D01*
X37721047Y42395953D01*
X37780571Y42455477D01*
X37661523Y42455477D01*
X38911523Y42931667D02*
X38911523Y43705477D01*
X38435333Y43288810D01*
X38435333Y43467381D01*
X38375809Y43586429D01*
X38316285Y43645953D01*
X38197238Y43705477D01*
X37899619Y43705477D01*
X37780571Y43645953D01*
X37721047Y43586429D01*
X37661523Y43467381D01*
X37661523Y43110239D01*
X37721047Y42991191D01*
X37780571Y42931667D01*
D11*
X13970000Y51435000D02*
X6731000Y51435000D01*
X13970000Y12065000D02*
X13970000Y51435000D01*
X6731000Y12065000D02*
X13970000Y12065000D01*
X6731000Y51435000D02*
X6731000Y12065000D01*
D12*
X9588571Y49428572D02*
X8088571Y49428572D01*
X9445714Y47857143D02*
X9517142Y47928572D01*
X9588571Y48142858D01*
X9588571Y48285715D01*
X9517142Y48500000D01*
X9374285Y48642858D01*
X9231428Y48714286D01*
X8945714Y48785715D01*
X8731428Y48785715D01*
X8445714Y48714286D01*
X8302857Y48642858D01*
X8160000Y48500000D01*
X8088571Y48285715D01*
X8088571Y48142858D01*
X8160000Y47928572D01*
X8231428Y47857143D01*
X8802857Y47214286D02*
X8802857Y46714286D01*
X9588571Y46500000D02*
X9588571Y47214286D01*
X8088571Y47214286D01*
X8088571Y46500000D01*
X9017142Y45857143D02*
X9017142Y44714286D01*
X8088571Y43357143D02*
X8088571Y43642858D01*
X8160000Y43785715D01*
X8231428Y43857143D01*
X8445714Y44000000D01*
X8731428Y44071429D01*
X9302857Y44071429D01*
X9445714Y44000000D01*
X9517142Y43928572D01*
X9588571Y43785715D01*
X9588571Y43500000D01*
X9517142Y43357143D01*
X9445714Y43285715D01*
X9302857Y43214286D01*
X8945714Y43214286D01*
X8802857Y43285715D01*
X8731428Y43357143D01*
X8660000Y43500000D01*
X8660000Y43785715D01*
X8731428Y43928572D01*
X8802857Y44000000D01*
X8945714Y44071429D01*
X8731428Y42357143D02*
X8660000Y42500000D01*
X8588571Y42571429D01*
X8445714Y42642858D01*
X8374285Y42642858D01*
X8231428Y42571429D01*
X8160000Y42500000D01*
X8088571Y42357143D01*
X8088571Y42071429D01*
X8160000Y41928572D01*
X8231428Y41857143D01*
X8374285Y41785715D01*
X8445714Y41785715D01*
X8588571Y41857143D01*
X8660000Y41928572D01*
X8731428Y42071429D01*
X8731428Y42357143D01*
X8802857Y42500000D01*
X8874285Y42571429D01*
X9017142Y42642858D01*
X9302857Y42642858D01*
X9445714Y42571429D01*
X9517142Y42500000D01*
X9588571Y42357143D01*
X9588571Y42071429D01*
X9517142Y41928572D01*
X9445714Y41857143D01*
X9302857Y41785715D01*
X9017142Y41785715D01*
X8874285Y41857143D01*
X8802857Y41928572D01*
X8731428Y42071429D01*
X8088571Y40857143D02*
X8088571Y40714286D01*
X8160000Y40571429D01*
X8231428Y40500000D01*
X8374285Y40428572D01*
X8660000Y40357143D01*
X9017142Y40357143D01*
X9302857Y40428572D01*
X9445714Y40500000D01*
X9517142Y40571429D01*
X9588571Y40714286D01*
X9588571Y40857143D01*
X9517142Y41000000D01*
X9445714Y41071429D01*
X9302857Y41142858D01*
X9017142Y41214286D01*
X8660000Y41214286D01*
X8374285Y41142858D01*
X8231428Y41071429D01*
X8160000Y41000000D01*
X8088571Y40857143D01*
X9588571Y39642858D02*
X9588571Y39357143D01*
X9517142Y39214286D01*
X9445714Y39142858D01*
X9231428Y39000000D01*
X8945714Y38928572D01*
X8374285Y38928572D01*
X8231428Y39000000D01*
X8160000Y39071429D01*
X8088571Y39214286D01*
X8088571Y39500000D01*
X8160000Y39642858D01*
X8231428Y39714286D01*
X8374285Y39785715D01*
X8731428Y39785715D01*
X8874285Y39714286D01*
X8945714Y39642858D01*
X9017142Y39500000D01*
X9017142Y39214286D01*
X8945714Y39071429D01*
X8874285Y39000000D01*
X8731428Y38928572D01*
X8802857Y38285715D02*
X8802857Y37785715D01*
X9588571Y37571429D02*
X9588571Y38285715D01*
X8088571Y38285715D01*
X8088571Y37571429D01*
X9588571Y35785715D02*
X8088571Y35785715D01*
X8588571Y35071429D02*
X9588571Y35071429D01*
X8731428Y35071429D02*
X8660000Y35000000D01*
X8588571Y34857143D01*
X8588571Y34642858D01*
X8660000Y34500000D01*
X8802857Y34428572D01*
X9588571Y34428572D01*
X9017142Y33714286D02*
X9017142Y32571429D01*
X9445714Y31000000D02*
X9517142Y31071429D01*
X9588571Y31285715D01*
X9588571Y31428572D01*
X9517142Y31642858D01*
X9374285Y31785715D01*
X9231428Y31857143D01*
X8945714Y31928572D01*
X8731428Y31928572D01*
X8445714Y31857143D01*
X8302857Y31785715D01*
X8160000Y31642858D01*
X8088571Y31428572D01*
X8088571Y31285715D01*
X8160000Y31071429D01*
X8231428Y31000000D01*
X9588571Y30357143D02*
X8588571Y30357143D01*
X8088571Y30357143D02*
X8160000Y30428572D01*
X8231428Y30357143D01*
X8160000Y30285715D01*
X8088571Y30357143D01*
X8231428Y30357143D01*
X9588571Y29642858D02*
X8588571Y29642858D01*
X8874285Y29642858D02*
X8731428Y29571429D01*
X8660000Y29500000D01*
X8588571Y29357143D01*
X8588571Y29214286D01*
X9517142Y28071429D02*
X9588571Y28214286D01*
X9588571Y28500000D01*
X9517142Y28642858D01*
X9445714Y28714286D01*
X9302857Y28785715D01*
X8874285Y28785715D01*
X8731428Y28714286D01*
X8660000Y28642858D01*
X8588571Y28500000D01*
X8588571Y28214286D01*
X8660000Y28071429D01*
X8588571Y26785715D02*
X9588571Y26785715D01*
X8588571Y27428572D02*
X9374285Y27428572D01*
X9517142Y27357143D01*
X9588571Y27214286D01*
X9588571Y27000000D01*
X9517142Y26857143D01*
X9445714Y26785715D01*
X9588571Y26071429D02*
X8588571Y26071429D01*
X8088571Y26071429D02*
X8160000Y26142858D01*
X8231428Y26071429D01*
X8160000Y26000000D01*
X8088571Y26071429D01*
X8231428Y26071429D01*
X8588571Y25571429D02*
X8588571Y25000000D01*
X8088571Y25357143D02*
X9374285Y25357143D01*
X9517142Y25285715D01*
X9588571Y25142858D01*
X9588571Y25000000D01*
X8802857Y23357143D02*
X8802857Y22857143D01*
X9588571Y22642858D02*
X9588571Y23357143D01*
X8088571Y23357143D01*
X8088571Y22642858D01*
X9588571Y22000000D02*
X8588571Y22000000D01*
X8731428Y22000000D02*
X8660000Y21928572D01*
X8588571Y21785715D01*
X8588571Y21571429D01*
X8660000Y21428572D01*
X8802857Y21357143D01*
X9588571Y21357143D01*
X8802857Y21357143D02*
X8660000Y21285715D01*
X8588571Y21142858D01*
X8588571Y20928572D01*
X8660000Y20785715D01*
X8802857Y20714286D01*
X9588571Y20714286D01*
X8588571Y19357143D02*
X9588571Y19357143D01*
X8588571Y20000000D02*
X9374285Y20000000D01*
X9517142Y19928572D01*
X9588571Y19785715D01*
X9588571Y19571429D01*
X9517142Y19428572D01*
X9445714Y19357143D01*
X9588571Y18428572D02*
X9517142Y18571429D01*
X9374285Y18642858D01*
X8088571Y18642858D01*
X9588571Y17214286D02*
X8802857Y17214286D01*
X8660000Y17285715D01*
X8588571Y17428572D01*
X8588571Y17714286D01*
X8660000Y17857143D01*
X9517142Y17214286D02*
X9588571Y17357143D01*
X9588571Y17714286D01*
X9517142Y17857143D01*
X9374285Y17928572D01*
X9231428Y17928572D01*
X9088571Y17857143D01*
X9017142Y17714286D01*
X9017142Y17357143D01*
X8945714Y17214286D01*
X8588571Y16714286D02*
X8588571Y16142858D01*
X8088571Y16500000D02*
X9374285Y16500000D01*
X9517142Y16428572D01*
X9588571Y16285715D01*
X9588571Y16142858D01*
X9588571Y15428572D02*
X9517142Y15571429D01*
X9445714Y15642858D01*
X9302857Y15714286D01*
X8874285Y15714286D01*
X8731428Y15642858D01*
X8660000Y15571429D01*
X8588571Y15428572D01*
X8588571Y15214286D01*
X8660000Y15071429D01*
X8731428Y15000000D01*
X8874285Y14928572D01*
X9302857Y14928572D01*
X9445714Y15000000D01*
X9517142Y15071429D01*
X9588571Y15214286D01*
X9588571Y15428572D01*
X9588571Y14285715D02*
X8588571Y14285715D01*
X8874285Y14285715D02*
X8731428Y14214286D01*
X8660000Y14142858D01*
X8588571Y14000000D01*
X8588571Y13857143D01*
X10945714Y48285715D02*
X10874285Y48428572D01*
X10874285Y48714286D01*
X10945714Y48857143D01*
X11088571Y49000000D01*
X11231428Y49071429D01*
X11517142Y49071429D01*
X11660000Y49000000D01*
X11802857Y48857143D01*
X11874285Y48714286D01*
X11874285Y48428572D01*
X11802857Y48285715D01*
X10374285Y48571429D02*
X10445714Y48928572D01*
X10660000Y49285715D01*
X11017142Y49500000D01*
X11374285Y49571429D01*
X11731428Y49500000D01*
X12088571Y49285715D01*
X12302857Y48928572D01*
X12374285Y48571429D01*
X12302857Y48214286D01*
X12088571Y47857143D01*
X11731428Y47642858D01*
X11374285Y47571429D01*
X11017142Y47642858D01*
X10660000Y47857143D01*
X10445714Y48214286D01*
X10374285Y48571429D01*
X10731428Y45857143D02*
X10660000Y45785715D01*
X10588571Y45642858D01*
X10588571Y45285715D01*
X10660000Y45142858D01*
X10731428Y45071429D01*
X10874285Y45000000D01*
X11017142Y45000000D01*
X11231428Y45071429D01*
X12088571Y45928572D01*
X12088571Y45000000D01*
X10588571Y44071429D02*
X10588571Y43928572D01*
X10660000Y43785715D01*
X10731428Y43714286D01*
X10874285Y43642858D01*
X11160000Y43571429D01*
X11517142Y43571429D01*
X11802857Y43642858D01*
X11945714Y43714286D01*
X12017142Y43785715D01*
X12088571Y43928572D01*
X12088571Y44071429D01*
X12017142Y44214286D01*
X11945714Y44285715D01*
X11802857Y44357143D01*
X11517142Y44428572D01*
X11160000Y44428572D01*
X10874285Y44357143D01*
X10731428Y44285715D01*
X10660000Y44214286D01*
X10588571Y44071429D01*
X12088571Y42142858D02*
X12088571Y43000000D01*
X12088571Y42571429D02*
X10588571Y42571429D01*
X10802857Y42714286D01*
X10945714Y42857143D01*
X11017142Y43000000D01*
X12088571Y41428572D02*
X12088571Y41142858D01*
X12017142Y41000000D01*
X11945714Y40928572D01*
X11731428Y40785715D01*
X11445714Y40714286D01*
X10874285Y40714286D01*
X10731428Y40785715D01*
X10660000Y40857143D01*
X10588571Y41000000D01*
X10588571Y41285715D01*
X10660000Y41428572D01*
X10731428Y41500000D01*
X10874285Y41571429D01*
X11231428Y41571429D01*
X11374285Y41500000D01*
X11445714Y41428572D01*
X11517142Y41285715D01*
X11517142Y41000000D01*
X11445714Y40857143D01*
X11374285Y40785715D01*
X11231428Y40714286D01*
X12088571Y38928572D02*
X10588571Y38928572D01*
X11302857Y38928572D02*
X11302857Y38071429D01*
X12088571Y38071429D02*
X10588571Y38071429D01*
X12088571Y37142858D02*
X12017142Y37285715D01*
X11945714Y37357143D01*
X11802857Y37428572D01*
X11374285Y37428572D01*
X11231428Y37357143D01*
X11160000Y37285715D01*
X11088571Y37142858D01*
X11088571Y36928572D01*
X11160000Y36785715D01*
X11231428Y36714286D01*
X11374285Y36642858D01*
X11802857Y36642858D01*
X11945714Y36714286D01*
X12017142Y36785715D01*
X12088571Y36928572D01*
X12088571Y37142858D01*
X11088571Y35357143D02*
X12302857Y35357143D01*
X12445714Y35428572D01*
X12517142Y35500000D01*
X12588571Y35642858D01*
X12588571Y35857143D01*
X12517142Y36000000D01*
X12017142Y35357143D02*
X12088571Y35500000D01*
X12088571Y35785715D01*
X12017142Y35928572D01*
X11945714Y36000000D01*
X11802857Y36071429D01*
X11374285Y36071429D01*
X11231428Y36000000D01*
X11160000Y35928572D01*
X11088571Y35785715D01*
X11088571Y35500000D01*
X11160000Y35357143D01*
X12088571Y34428572D02*
X12017142Y34571429D01*
X11874285Y34642858D01*
X10588571Y34642858D01*
X12017142Y33285715D02*
X12088571Y33428572D01*
X12088571Y33714286D01*
X12017142Y33857143D01*
X11874285Y33928572D01*
X11302857Y33928572D01*
X11160000Y33857143D01*
X11088571Y33714286D01*
X11088571Y33428572D01*
X11160000Y33285715D01*
X11302857Y33214286D01*
X11445714Y33214286D01*
X11588571Y33928572D01*
X11088571Y32785715D02*
X11088571Y32214286D01*
X10588571Y32571429D02*
X11874285Y32571429D01*
X12017142Y32500000D01*
X12088571Y32357143D01*
X12088571Y32214286D01*
X11517142Y30571429D02*
X11517142Y29428572D01*
X10588571Y27785715D02*
X12088571Y27285715D01*
X10588571Y26785715D01*
X12017142Y25714286D02*
X12088571Y25857143D01*
X12088571Y26142858D01*
X12017142Y26285715D01*
X11874285Y26357143D01*
X11302857Y26357143D01*
X11160000Y26285715D01*
X11088571Y26142858D01*
X11088571Y25857143D01*
X11160000Y25714286D01*
X11302857Y25642858D01*
X11445714Y25642858D01*
X11588571Y26357143D01*
X12088571Y25000000D02*
X11088571Y25000000D01*
X11374285Y25000000D02*
X11231428Y24928572D01*
X11160000Y24857143D01*
X11088571Y24714286D01*
X11088571Y24571429D01*
X12017142Y24142858D02*
X12088571Y24000000D01*
X12088571Y23714286D01*
X12017142Y23571429D01*
X11874285Y23500000D01*
X11802857Y23500000D01*
X11660000Y23571429D01*
X11588571Y23714286D01*
X11588571Y23928572D01*
X11517142Y24071429D01*
X11374285Y24142858D01*
X11302857Y24142858D01*
X11160000Y24071429D01*
X11088571Y23928572D01*
X11088571Y23714286D01*
X11160000Y23571429D01*
X12088571Y22857143D02*
X11088571Y22857143D01*
X10588571Y22857143D02*
X10660000Y22928572D01*
X10731428Y22857143D01*
X10660000Y22785715D01*
X10588571Y22857143D01*
X10731428Y22857143D01*
X12088571Y21928572D02*
X12017142Y22071429D01*
X11945714Y22142858D01*
X11802857Y22214286D01*
X11374285Y22214286D01*
X11231428Y22142858D01*
X11160000Y22071429D01*
X11088571Y21928572D01*
X11088571Y21714286D01*
X11160000Y21571429D01*
X11231428Y21500000D01*
X11374285Y21428572D01*
X11802857Y21428572D01*
X11945714Y21500000D01*
X12017142Y21571429D01*
X12088571Y21714286D01*
X12088571Y21928572D01*
X11088571Y20785715D02*
X12088571Y20785715D01*
X11231428Y20785715D02*
X11160000Y20714286D01*
X11088571Y20571429D01*
X11088571Y20357143D01*
X11160000Y20214286D01*
X11302857Y20142858D01*
X12088571Y20142858D01*
X12088571Y17500000D02*
X12088571Y18357143D01*
X12088571Y17928572D02*
X10588571Y17928572D01*
X10802857Y18071429D01*
X10945714Y18214286D01*
X11017142Y18357143D01*
X11945714Y16857143D02*
X12017142Y16785715D01*
X12088571Y16857143D01*
X12017142Y16928572D01*
X11945714Y16857143D01*
X12088571Y16857143D01*
X10588571Y15857143D02*
X10588571Y15714286D01*
X10660000Y15571429D01*
X10731428Y15500000D01*
X10874285Y15428572D01*
X11160000Y15357143D01*
X11517142Y15357143D01*
X11802857Y15428572D01*
X11945714Y15500000D01*
X12017142Y15571429D01*
X12088571Y15714286D01*
X12088571Y15857143D01*
X12017142Y16000000D01*
X11945714Y16071429D01*
X11802857Y16142858D01*
X11517142Y16214286D01*
X11160000Y16214286D01*
X10874285Y16142858D01*
X10731428Y16071429D01*
X10660000Y16000000D01*
X10588571Y15857143D01*
X10588571Y14428572D02*
X10588571Y14285715D01*
X10660000Y14142858D01*
X10731428Y14071429D01*
X10874285Y14000000D01*
X11160000Y13928572D01*
X11517142Y13928572D01*
X11802857Y14000000D01*
X11945714Y14071429D01*
X12017142Y14142858D01*
X12088571Y14285715D01*
X12088571Y14428572D01*
X12017142Y14571429D01*
X11945714Y14642858D01*
X11802857Y14714286D01*
X11517142Y14785715D01*
X11160000Y14785715D01*
X10874285Y14714286D01*
X10731428Y14642858D01*
X10660000Y14571429D01*
X10588571Y14428572D01*
D11*
X13335000Y3810000D02*
X15240000Y3810000D01*
X13335000Y6350000D02*
X15240000Y6350000D01*
D10*
X19834285Y3244524D02*
X19834285Y4494524D01*
X19417619Y3601667D01*
X19000952Y4494524D01*
X19000952Y3244524D01*
X18227142Y3244524D02*
X18346190Y3304048D01*
X18405714Y3363572D01*
X18465238Y3482620D01*
X18465238Y3839762D01*
X18405714Y3958810D01*
X18346190Y4018334D01*
X18227142Y4077858D01*
X18048571Y4077858D01*
X17929523Y4018334D01*
X17870000Y3958810D01*
X17810476Y3839762D01*
X17810476Y3482620D01*
X17870000Y3363572D01*
X17929523Y3304048D01*
X18048571Y3244524D01*
X18227142Y3244524D01*
X16739047Y3244524D02*
X16739047Y4494524D01*
X16739047Y3304048D02*
X16858095Y3244524D01*
X17096190Y3244524D01*
X17215238Y3304048D01*
X17274761Y3363572D01*
X17334285Y3482620D01*
X17334285Y3839762D01*
X17274761Y3958810D01*
X17215238Y4018334D01*
X17096190Y4077858D01*
X16858095Y4077858D01*
X16739047Y4018334D01*
X15667619Y3304048D02*
X15786666Y3244524D01*
X16024761Y3244524D01*
X16143809Y3304048D01*
X16203333Y3423096D01*
X16203333Y3899286D01*
X16143809Y4018334D01*
X16024761Y4077858D01*
X15786666Y4077858D01*
X15667619Y4018334D01*
X15608095Y3899286D01*
X15608095Y3780239D01*
X16203333Y3661191D01*
X18227142Y6975000D02*
X18346190Y7034524D01*
X18524761Y7034524D01*
X18703333Y6975000D01*
X18822380Y6855953D01*
X18881904Y6736905D01*
X18941428Y6498810D01*
X18941428Y6320239D01*
X18881904Y6082143D01*
X18822380Y5963096D01*
X18703333Y5844048D01*
X18524761Y5784524D01*
X18405714Y5784524D01*
X18227142Y5844048D01*
X18167619Y5903572D01*
X18167619Y6320239D01*
X18405714Y6320239D01*
X17631904Y5784524D02*
X17631904Y7034524D01*
X16917619Y5784524D01*
X16917619Y7034524D01*
X16322380Y5784524D02*
X16322380Y7034524D01*
X16024761Y7034524D01*
X15846190Y6975000D01*
X15727142Y6855953D01*
X15667619Y6736905D01*
X15608095Y6498810D01*
X15608095Y6320239D01*
X15667619Y6082143D01*
X15727142Y5963096D01*
X15846190Y5844048D01*
X16024761Y5784524D01*
X16322380Y5784524D01*
D11*
X36195000Y3810000D02*
X38100000Y3810000D01*
X36195000Y6350000D02*
X38100000Y6350000D01*
X36195000Y8890000D02*
X38100000Y8890000D01*
D10*
X35945952Y7034524D02*
X35231666Y7034524D01*
X35588809Y5784524D02*
X35588809Y7034524D01*
X34815000Y5784524D02*
X34815000Y6617858D01*
X34815000Y6379762D02*
X34755476Y6498810D01*
X34695952Y6558334D01*
X34576904Y6617858D01*
X34457857Y6617858D01*
X34041190Y5784524D02*
X34041190Y6617858D01*
X34041190Y7034524D02*
X34100714Y6975000D01*
X34041190Y6915477D01*
X33981666Y6975000D01*
X34041190Y7034524D01*
X34041190Y6915477D01*
X32910238Y6617858D02*
X32910238Y5605953D01*
X32969761Y5486905D01*
X33029285Y5427381D01*
X33148333Y5367858D01*
X33326904Y5367858D01*
X33445952Y5427381D01*
X32910238Y5844048D02*
X33029285Y5784524D01*
X33267380Y5784524D01*
X33386428Y5844048D01*
X33445952Y5903572D01*
X33505476Y6022620D01*
X33505476Y6379762D01*
X33445952Y6498810D01*
X33386428Y6558334D01*
X33267380Y6617858D01*
X33029285Y6617858D01*
X32910238Y6558334D01*
X32076904Y7034524D02*
X31957857Y7034524D01*
X31838809Y6975000D01*
X31779285Y6915477D01*
X31719761Y6796429D01*
X31660238Y6558334D01*
X31660238Y6260715D01*
X31719761Y6022620D01*
X31779285Y5903572D01*
X31838809Y5844048D01*
X31957857Y5784524D01*
X32076904Y5784524D01*
X32195952Y5844048D01*
X32255476Y5903572D01*
X32315000Y6022620D01*
X32374523Y6260715D01*
X32374523Y6558334D01*
X32315000Y6796429D01*
X32255476Y6915477D01*
X32195952Y6975000D01*
X32076904Y7034524D01*
X35112619Y4435000D02*
X35231666Y4494524D01*
X35410238Y4494524D01*
X35588809Y4435000D01*
X35707857Y4315953D01*
X35767380Y4196905D01*
X35826904Y3958810D01*
X35826904Y3780239D01*
X35767380Y3542143D01*
X35707857Y3423096D01*
X35588809Y3304048D01*
X35410238Y3244524D01*
X35291190Y3244524D01*
X35112619Y3304048D01*
X35053095Y3363572D01*
X35053095Y3780239D01*
X35291190Y3780239D01*
X34517380Y3244524D02*
X34517380Y4494524D01*
X33803095Y3244524D01*
X33803095Y4494524D01*
X33207857Y3244524D02*
X33207857Y4494524D01*
X32910238Y4494524D01*
X32731666Y4435000D01*
X32612619Y4315953D01*
X32553095Y4196905D01*
X32493571Y3958810D01*
X32493571Y3780239D01*
X32553095Y3542143D01*
X32612619Y3423096D01*
X32731666Y3304048D01*
X32910238Y3244524D01*
X33207857Y3244524D01*
X35945952Y9574524D02*
X35231666Y9574524D01*
X35588809Y8324524D02*
X35588809Y9574524D01*
X34815000Y8324524D02*
X34815000Y9157858D01*
X34815000Y8919762D02*
X34755476Y9038810D01*
X34695952Y9098334D01*
X34576904Y9157858D01*
X34457857Y9157858D01*
X34041190Y8324524D02*
X34041190Y9157858D01*
X34041190Y9574524D02*
X34100714Y9515000D01*
X34041190Y9455477D01*
X33981666Y9515000D01*
X34041190Y9574524D01*
X34041190Y9455477D01*
X32910238Y9157858D02*
X32910238Y8145953D01*
X32969761Y8026905D01*
X33029285Y7967381D01*
X33148333Y7907858D01*
X33326904Y7907858D01*
X33445952Y7967381D01*
X32910238Y8384048D02*
X33029285Y8324524D01*
X33267380Y8324524D01*
X33386428Y8384048D01*
X33445952Y8443572D01*
X33505476Y8562620D01*
X33505476Y8919762D01*
X33445952Y9038810D01*
X33386428Y9098334D01*
X33267380Y9157858D01*
X33029285Y9157858D01*
X32910238Y9098334D01*
X31660238Y8324524D02*
X32374523Y8324524D01*
X32017380Y8324524D02*
X32017380Y9574524D01*
X32136428Y9395953D01*
X32255476Y9276905D01*
X32374523Y9217381D01*
D13*
X38473748Y59130000D02*
X38996252Y59130000D01*
X38473748Y57710000D02*
X38996252Y57710000D01*
X38996252Y60250000D02*
X38473748Y60250000D01*
X38996252Y61670000D02*
X38473748Y61670000D01*
X11803748Y59130000D02*
X12326252Y59130000D01*
X11803748Y57710000D02*
X12326252Y57710000D01*
X11803748Y56590000D02*
X12326252Y56590000D01*
X11803748Y55170000D02*
X12326252Y55170000D01*
X38996252Y52630000D02*
X38473748Y52630000D01*
X38996252Y54050000D02*
X38473748Y54050000D01*
X11803748Y54050000D02*
X12326252Y54050000D01*
X11803748Y52630000D02*
X12326252Y52630000D01*
D11*
X19050000Y60960000D02*
X31750000Y60960000D01*
X19050000Y12700000D02*
X19050000Y60960000D01*
X31750000Y12700000D02*
X19050000Y12700000D01*
X31750000Y60960000D02*
X31750000Y12700000D01*
X26670000Y60960000D02*
G75*
G02X25400000Y59690000I-1270000J0D01*
G01*
X25400000Y59690000D02*
G75*
G02X24130000Y60960000I0J1270000D01*
G01*
D13*
X41013748Y45160000D02*
X41536252Y45160000D01*
X41013748Y43740000D02*
X41536252Y43740000D01*
X41013748Y42620000D02*
X41536252Y42620000D01*
X41013748Y41200000D02*
X41536252Y41200000D01*
X41013748Y40080000D02*
X41536252Y40080000D01*
X41013748Y38660000D02*
X41536252Y38660000D01*
X41013748Y37540000D02*
X41536252Y37540000D01*
X41013748Y36120000D02*
X41536252Y36120000D01*
X13335000Y7620000D02*
X12065000Y7620000D01*
X13335000Y6350000D02*
X13335000Y7620000D01*
X11022071Y3430000D02*
X10625000Y3430000D01*
X11022071Y4190000D02*
X10625000Y4190000D01*
X1965000Y3430000D02*
X7965000Y3430000D01*
X1965000Y4190000D02*
X1965000Y3430000D01*
X7965000Y4190000D02*
X1965000Y4190000D01*
X10625000Y5080000D02*
X7965000Y5080000D01*
X10955000Y5970000D02*
X10625000Y5970000D01*
X10955000Y6730000D02*
X10625000Y6730000D01*
X7965000Y6070000D02*
X1965000Y6070000D01*
X7965000Y6190000D02*
X1965000Y6190000D01*
X7965000Y6310000D02*
X1965000Y6310000D01*
X7965000Y6430000D02*
X1965000Y6430000D01*
X7965000Y6550000D02*
X1965000Y6550000D01*
X7965000Y6670000D02*
X1965000Y6670000D01*
X1965000Y5970000D02*
X7965000Y5970000D01*
X1965000Y6730000D02*
X1965000Y5970000D01*
X7965000Y6730000D02*
X1965000Y6730000D01*
X7965000Y7680000D02*
X10625000Y7680000D01*
X7965000Y2480000D02*
X7965000Y7680000D01*
X10625000Y2480000D02*
X7965000Y2480000D01*
X10625000Y7680000D02*
X10625000Y2480000D01*
X38100000Y2540000D02*
X39370000Y2540000D01*
X38100000Y3810000D02*
X38100000Y2540000D01*
X40412929Y9270000D02*
X40810000Y9270000D01*
X40412929Y8510000D02*
X40810000Y8510000D01*
X49470000Y9270000D02*
X43470000Y9270000D01*
X49470000Y8510000D02*
X49470000Y9270000D01*
X43470000Y8510000D02*
X49470000Y8510000D01*
X40810000Y7620000D02*
X43470000Y7620000D01*
X40412929Y6730000D02*
X40810000Y6730000D01*
X40412929Y5970000D02*
X40810000Y5970000D01*
X49470000Y6730000D02*
X43470000Y6730000D01*
X49470000Y5970000D02*
X49470000Y6730000D01*
X43470000Y5970000D02*
X49470000Y5970000D01*
X40810000Y5080000D02*
X43470000Y5080000D01*
X40480000Y4190000D02*
X40810000Y4190000D01*
X40480000Y3430000D02*
X40810000Y3430000D01*
X43470000Y4090000D02*
X49470000Y4090000D01*
X43470000Y3970000D02*
X49470000Y3970000D01*
X43470000Y3850000D02*
X49470000Y3850000D01*
X43470000Y3730000D02*
X49470000Y3730000D01*
X43470000Y3610000D02*
X49470000Y3610000D01*
X43470000Y3490000D02*
X49470000Y3490000D01*
X49470000Y4190000D02*
X43470000Y4190000D01*
X49470000Y3430000D02*
X49470000Y4190000D01*
X43470000Y3430000D02*
X49470000Y3430000D01*
X43470000Y2480000D02*
X40810000Y2480000D01*
X43470000Y10220000D02*
X43470000Y2480000D01*
X40810000Y10220000D02*
X43470000Y10220000D01*
X40810000Y2480000D02*
X40810000Y10220000D01*
D11*
X42806857Y57967620D02*
X43140190Y58443810D01*
X43378285Y57967620D02*
X43378285Y58967620D01*
X42997333Y58967620D01*
X42902095Y58920000D01*
X42854476Y58872381D01*
X42806857Y58777143D01*
X42806857Y58634286D01*
X42854476Y58539048D01*
X42902095Y58491429D01*
X42997333Y58443810D01*
X43378285Y58443810D01*
X41854476Y57967620D02*
X42425904Y57967620D01*
X42140190Y57967620D02*
X42140190Y58967620D01*
X42235428Y58824762D01*
X42330666Y58729524D01*
X42425904Y58681905D01*
X40997333Y58967620D02*
X41187809Y58967620D01*
X41283047Y58920000D01*
X41330666Y58872381D01*
X41425904Y58729524D01*
X41473523Y58539048D01*
X41473523Y58158096D01*
X41425904Y58062858D01*
X41378285Y58015239D01*
X41283047Y57967620D01*
X41092571Y57967620D01*
X40997333Y58015239D01*
X40949714Y58062858D01*
X40902095Y58158096D01*
X40902095Y58396191D01*
X40949714Y58491429D01*
X40997333Y58539048D01*
X41092571Y58586667D01*
X41283047Y58586667D01*
X41378285Y58539048D01*
X41425904Y58491429D01*
X41473523Y58396191D01*
X42806857Y60507620D02*
X43140190Y60983810D01*
X43378285Y60507620D02*
X43378285Y61507620D01*
X42997333Y61507620D01*
X42902095Y61460000D01*
X42854476Y61412381D01*
X42806857Y61317143D01*
X42806857Y61174286D01*
X42854476Y61079048D01*
X42902095Y61031429D01*
X42997333Y60983810D01*
X43378285Y60983810D01*
X41854476Y60507620D02*
X42425904Y60507620D01*
X42140190Y60507620D02*
X42140190Y61507620D01*
X42235428Y61364762D01*
X42330666Y61269524D01*
X42425904Y61221905D01*
X41521142Y61507620D02*
X40854476Y61507620D01*
X41283047Y60507620D01*
X9278857Y57967620D02*
X9612190Y58443810D01*
X9850285Y57967620D02*
X9850285Y58967620D01*
X9469333Y58967620D01*
X9374095Y58920000D01*
X9326476Y58872381D01*
X9278857Y58777143D01*
X9278857Y58634286D01*
X9326476Y58539048D01*
X9374095Y58491429D01*
X9469333Y58443810D01*
X9850285Y58443810D01*
X8326476Y57967620D02*
X8897904Y57967620D01*
X8612190Y57967620D02*
X8612190Y58967620D01*
X8707428Y58824762D01*
X8802666Y58729524D01*
X8897904Y58681905D01*
X7755047Y58539048D02*
X7850285Y58586667D01*
X7897904Y58634286D01*
X7945523Y58729524D01*
X7945523Y58777143D01*
X7897904Y58872381D01*
X7850285Y58920000D01*
X7755047Y58967620D01*
X7564571Y58967620D01*
X7469333Y58920000D01*
X7421714Y58872381D01*
X7374095Y58777143D01*
X7374095Y58729524D01*
X7421714Y58634286D01*
X7469333Y58586667D01*
X7564571Y58539048D01*
X7755047Y58539048D01*
X7850285Y58491429D01*
X7897904Y58443810D01*
X7945523Y58348572D01*
X7945523Y58158096D01*
X7897904Y58062858D01*
X7850285Y58015239D01*
X7755047Y57967620D01*
X7564571Y57967620D01*
X7469333Y58015239D01*
X7421714Y58062858D01*
X7374095Y58158096D01*
X7374095Y58348572D01*
X7421714Y58443810D01*
X7469333Y58491429D01*
X7564571Y58539048D01*
X9278857Y55427620D02*
X9612190Y55903810D01*
X9850285Y55427620D02*
X9850285Y56427620D01*
X9469333Y56427620D01*
X9374095Y56380000D01*
X9326476Y56332381D01*
X9278857Y56237143D01*
X9278857Y56094286D01*
X9326476Y55999048D01*
X9374095Y55951429D01*
X9469333Y55903810D01*
X9850285Y55903810D01*
X8326476Y55427620D02*
X8897904Y55427620D01*
X8612190Y55427620D02*
X8612190Y56427620D01*
X8707428Y56284762D01*
X8802666Y56189524D01*
X8897904Y56141905D01*
X7850285Y55427620D02*
X7659809Y55427620D01*
X7564571Y55475239D01*
X7516952Y55522858D01*
X7421714Y55665715D01*
X7374095Y55856191D01*
X7374095Y56237143D01*
X7421714Y56332381D01*
X7469333Y56380000D01*
X7564571Y56427620D01*
X7755047Y56427620D01*
X7850285Y56380000D01*
X7897904Y56332381D01*
X7945523Y56237143D01*
X7945523Y55999048D01*
X7897904Y55903810D01*
X7850285Y55856191D01*
X7755047Y55808572D01*
X7564571Y55808572D01*
X7469333Y55856191D01*
X7421714Y55903810D01*
X7374095Y55999048D01*
X42806857Y52887620D02*
X43140190Y53363810D01*
X43378285Y52887620D02*
X43378285Y53887620D01*
X42997333Y53887620D01*
X42902095Y53840000D01*
X42854476Y53792381D01*
X42806857Y53697143D01*
X42806857Y53554286D01*
X42854476Y53459048D01*
X42902095Y53411429D01*
X42997333Y53363810D01*
X43378285Y53363810D01*
X41854476Y52887620D02*
X42425904Y52887620D01*
X42140190Y52887620D02*
X42140190Y53887620D01*
X42235428Y53744762D01*
X42330666Y53649524D01*
X42425904Y53601905D01*
X40949714Y53887620D02*
X41425904Y53887620D01*
X41473523Y53411429D01*
X41425904Y53459048D01*
X41330666Y53506667D01*
X41092571Y53506667D01*
X40997333Y53459048D01*
X40949714Y53411429D01*
X40902095Y53316191D01*
X40902095Y53078096D01*
X40949714Y52982858D01*
X40997333Y52935239D01*
X41092571Y52887620D01*
X41330666Y52887620D01*
X41425904Y52935239D01*
X41473523Y52982858D01*
X9278857Y52887620D02*
X9612190Y53363810D01*
X9850285Y52887620D02*
X9850285Y53887620D01*
X9469333Y53887620D01*
X9374095Y53840000D01*
X9326476Y53792381D01*
X9278857Y53697143D01*
X9278857Y53554286D01*
X9326476Y53459048D01*
X9374095Y53411429D01*
X9469333Y53363810D01*
X9850285Y53363810D01*
X8897904Y53792381D02*
X8850285Y53840000D01*
X8755047Y53887620D01*
X8516952Y53887620D01*
X8421714Y53840000D01*
X8374095Y53792381D01*
X8326476Y53697143D01*
X8326476Y53601905D01*
X8374095Y53459048D01*
X8945523Y52887620D01*
X8326476Y52887620D01*
X7707428Y53887620D02*
X7612190Y53887620D01*
X7516952Y53840000D01*
X7469333Y53792381D01*
X7421714Y53697143D01*
X7374095Y53506667D01*
X7374095Y53268572D01*
X7421714Y53078096D01*
X7469333Y52982858D01*
X7516952Y52935239D01*
X7612190Y52887620D01*
X7707428Y52887620D01*
X7802666Y52935239D01*
X7850285Y52982858D01*
X7897904Y53078096D01*
X7945523Y53268572D01*
X7945523Y53506667D01*
X7897904Y53697143D01*
X7850285Y53792381D01*
X7802666Y53840000D01*
X7707428Y53887620D01*
X26161904Y63412620D02*
X26161904Y62603096D01*
X26114285Y62507858D01*
X26066666Y62460239D01*
X25971428Y62412620D01*
X25780952Y62412620D01*
X25685714Y62460239D01*
X25638095Y62507858D01*
X25590476Y62603096D01*
X25590476Y63412620D01*
X24590476Y62412620D02*
X25161904Y62412620D01*
X24876190Y62412620D02*
X24876190Y63412620D01*
X24971428Y63269762D01*
X25066666Y63174524D01*
X25161904Y63126905D01*
X41917857Y48061620D02*
X42251190Y48537810D01*
X42489285Y48061620D02*
X42489285Y49061620D01*
X42108333Y49061620D01*
X42013095Y49014000D01*
X41965476Y48966381D01*
X41917857Y48871143D01*
X41917857Y48728286D01*
X41965476Y48633048D01*
X42013095Y48585429D01*
X42108333Y48537810D01*
X42489285Y48537810D01*
X40965476Y48061620D02*
X41536904Y48061620D01*
X41251190Y48061620D02*
X41251190Y49061620D01*
X41346428Y48918762D01*
X41441666Y48823524D01*
X41536904Y48775905D01*
X40632142Y49061620D02*
X40013095Y49061620D01*
X40346428Y48680667D01*
X40203571Y48680667D01*
X40108333Y48633048D01*
X40060714Y48585429D01*
X40013095Y48490191D01*
X40013095Y48252096D01*
X40060714Y48156858D01*
X40108333Y48109239D01*
X40203571Y48061620D01*
X40489285Y48061620D01*
X40584523Y48109239D01*
X40632142Y48156858D01*
X41917857Y46156620D02*
X42251190Y46632810D01*
X42489285Y46156620D02*
X42489285Y47156620D01*
X42108333Y47156620D01*
X42013095Y47109000D01*
X41965476Y47061381D01*
X41917857Y46966143D01*
X41917857Y46823286D01*
X41965476Y46728048D01*
X42013095Y46680429D01*
X42108333Y46632810D01*
X42489285Y46632810D01*
X40965476Y46156620D02*
X41536904Y46156620D01*
X41251190Y46156620D02*
X41251190Y47156620D01*
X41346428Y47013762D01*
X41441666Y46918524D01*
X41536904Y46870905D01*
X40584523Y47061381D02*
X40536904Y47109000D01*
X40441666Y47156620D01*
X40203571Y47156620D01*
X40108333Y47109000D01*
X40060714Y47061381D01*
X40013095Y46966143D01*
X40013095Y46870905D01*
X40060714Y46728048D01*
X40632142Y46156620D01*
X40013095Y46156620D01*
X41917857Y34345620D02*
X42251190Y34821810D01*
X42489285Y34345620D02*
X42489285Y35345620D01*
X42108333Y35345620D01*
X42013095Y35298000D01*
X41965476Y35250381D01*
X41917857Y35155143D01*
X41917857Y35012286D01*
X41965476Y34917048D01*
X42013095Y34869429D01*
X42108333Y34821810D01*
X42489285Y34821810D01*
X40965476Y34345620D02*
X41536904Y34345620D01*
X41251190Y34345620D02*
X41251190Y35345620D01*
X41346428Y35202762D01*
X41441666Y35107524D01*
X41536904Y35059905D01*
X40013095Y34345620D02*
X40584523Y34345620D01*
X40298809Y34345620D02*
X40298809Y35345620D01*
X40394047Y35202762D01*
X40489285Y35107524D01*
X40584523Y35059905D01*
X41917857Y32440620D02*
X42251190Y32916810D01*
X42489285Y32440620D02*
X42489285Y33440620D01*
X42108333Y33440620D01*
X42013095Y33393000D01*
X41965476Y33345381D01*
X41917857Y33250143D01*
X41917857Y33107286D01*
X41965476Y33012048D01*
X42013095Y32964429D01*
X42108333Y32916810D01*
X42489285Y32916810D01*
X40965476Y32440620D02*
X41536904Y32440620D01*
X41251190Y32440620D02*
X41251190Y33440620D01*
X41346428Y33297762D01*
X41441666Y33202524D01*
X41536904Y33154905D01*
X40346428Y33440620D02*
X40251190Y33440620D01*
X40155952Y33393000D01*
X40108333Y33345381D01*
X40060714Y33250143D01*
X40013095Y33059667D01*
X40013095Y32821572D01*
X40060714Y32631096D01*
X40108333Y32535858D01*
X40155952Y32488239D01*
X40251190Y32440620D01*
X40346428Y32440620D01*
X40441666Y32488239D01*
X40489285Y32535858D01*
X40536904Y32631096D01*
X40584523Y32821572D01*
X40584523Y33059667D01*
X40536904Y33250143D01*
X40489285Y33345381D01*
X40441666Y33393000D01*
X40346428Y33440620D01*
X9556666Y8437620D02*
X10032857Y8437620D01*
X10032857Y9437620D01*
X9223333Y8437620D02*
X9223333Y9437620D01*
X8651904Y8437620D02*
X9080476Y9009048D01*
X8651904Y9437620D02*
X9223333Y8866191D01*
X7699523Y8437620D02*
X8270952Y8437620D01*
X7985238Y8437620D02*
X7985238Y9437620D01*
X8080476Y9294762D01*
X8175714Y9199524D01*
X8270952Y9151905D01*
X42013095Y10977620D02*
X42013095Y11977620D01*
X41632142Y11977620D01*
X41536904Y11930000D01*
X41489285Y11882381D01*
X41441666Y11787143D01*
X41441666Y11644286D01*
X41489285Y11549048D01*
X41536904Y11501429D01*
X41632142Y11453810D01*
X42013095Y11453810D01*
X41108333Y11977620D02*
X40489285Y11977620D01*
X40822619Y11596667D01*
X40679761Y11596667D01*
X40584523Y11549048D01*
X40536904Y11501429D01*
X40489285Y11406191D01*
X40489285Y11168096D01*
X40536904Y11072858D01*
X40584523Y11025239D01*
X40679761Y10977620D01*
X40965476Y10977620D01*
X41060714Y11025239D01*
X41108333Y11072858D01*
M02*
