G04 #@! TF.GenerationSoftware,KiCad,Pcbnew,5.1.4-e60b266~84~ubuntu18.04.1*
G04 #@! TF.CreationDate,2019-10-24T14:21:48+01:00*
G04 #@! TF.ProjectId,6809e_adapter,36383039-655f-4616-9461-707465722e6b,rev?*
G04 #@! TF.SameCoordinates,PX9fdfbc0PY791ddc0*
G04 #@! TF.FileFunction,Copper,L1,Top*
G04 #@! TF.FilePolarity,Positive*
%FSLAX46Y46*%
G04 Gerber Fmt 4.6, Leading zero omitted, Abs format (unit mm)*
G04 Created by KiCad (PCBNEW 5.1.4-e60b266~84~ubuntu18.04.1) date 2019-10-24 14:21:48*
%MOMM*%
%LPD*%
G04 APERTURE LIST*
%ADD10R,1.000000X1.000000*%
%ADD11R,2.000000X0.600000*%
%ADD12C,0.100000*%
%ADD13C,1.150000*%
%ADD14C,0.500000*%
%ADD15O,1.700000X1.700000*%
%ADD16R,1.700000X1.700000*%
%ADD17C,2.200000*%
%ADD18C,1.700000*%
%ADD19C,1.800000*%
%ADD20R,1.800000X1.800000*%
%ADD21R,1.560000X0.650000*%
%ADD22C,0.800000*%
%ADD23C,0.600000*%
%ADD24C,0.400000*%
%ADD25C,0.250000*%
%ADD26C,2.000000*%
%ADD27C,0.800000*%
%ADD28C,0.600000*%
G04 APERTURE END LIST*
D10*
X40660000Y27940000D03*
X43160000Y27940000D03*
X10258000Y45720000D03*
X7758000Y45720000D03*
D11*
X38355000Y43180000D03*
X38355000Y41910000D03*
X38355000Y40640000D03*
X38355000Y39370000D03*
X38355000Y38100000D03*
X38355000Y36830000D03*
X38355000Y35560000D03*
X38355000Y34290000D03*
X38355000Y33020000D03*
X38355000Y31750000D03*
X38355000Y30480000D03*
X38355000Y29210000D03*
X28955000Y29210000D03*
X28955000Y30480000D03*
X28955000Y31750000D03*
X28955000Y33020000D03*
X28955000Y34290000D03*
X28955000Y35560000D03*
X28955000Y36830000D03*
X28955000Y38100000D03*
X28955000Y39370000D03*
X28955000Y40640000D03*
X28955000Y41910000D03*
X28955000Y43180000D03*
X12445000Y47625000D03*
X12445000Y48895000D03*
X12445000Y50165000D03*
X12445000Y51435000D03*
X12445000Y52705000D03*
X12445000Y53975000D03*
X12445000Y55245000D03*
X12445000Y56515000D03*
X12445000Y57785000D03*
X12445000Y59055000D03*
X12445000Y60325000D03*
X12445000Y61595000D03*
X21845000Y61595000D03*
X21845000Y60325000D03*
X21845000Y59055000D03*
X21845000Y57785000D03*
X21845000Y56515000D03*
X21845000Y55245000D03*
X21845000Y53975000D03*
X21845000Y52705000D03*
X21845000Y51435000D03*
X21845000Y50165000D03*
X21845000Y48895000D03*
X21845000Y47625000D03*
D12*
G36*
X29559505Y46164796D02*
G01*
X29583773Y46161196D01*
X29607572Y46155235D01*
X29630671Y46146970D01*
X29652850Y46136480D01*
X29673893Y46123868D01*
X29693599Y46109253D01*
X29711777Y46092777D01*
X29728253Y46074599D01*
X29742868Y46054893D01*
X29755480Y46033850D01*
X29765970Y46011671D01*
X29774235Y45988572D01*
X29780196Y45964773D01*
X29783796Y45940505D01*
X29785000Y45916001D01*
X29785000Y45015999D01*
X29783796Y44991495D01*
X29780196Y44967227D01*
X29774235Y44943428D01*
X29765970Y44920329D01*
X29755480Y44898150D01*
X29742868Y44877107D01*
X29728253Y44857401D01*
X29711777Y44839223D01*
X29693599Y44822747D01*
X29673893Y44808132D01*
X29652850Y44795520D01*
X29630671Y44785030D01*
X29607572Y44776765D01*
X29583773Y44770804D01*
X29559505Y44767204D01*
X29535001Y44766000D01*
X28884999Y44766000D01*
X28860495Y44767204D01*
X28836227Y44770804D01*
X28812428Y44776765D01*
X28789329Y44785030D01*
X28767150Y44795520D01*
X28746107Y44808132D01*
X28726401Y44822747D01*
X28708223Y44839223D01*
X28691747Y44857401D01*
X28677132Y44877107D01*
X28664520Y44898150D01*
X28654030Y44920329D01*
X28645765Y44943428D01*
X28639804Y44967227D01*
X28636204Y44991495D01*
X28635000Y45015999D01*
X28635000Y45916001D01*
X28636204Y45940505D01*
X28639804Y45964773D01*
X28645765Y45988572D01*
X28654030Y46011671D01*
X28664520Y46033850D01*
X28677132Y46054893D01*
X28691747Y46074599D01*
X28708223Y46092777D01*
X28726401Y46109253D01*
X28746107Y46123868D01*
X28767150Y46136480D01*
X28789329Y46146970D01*
X28812428Y46155235D01*
X28836227Y46161196D01*
X28860495Y46164796D01*
X28884999Y46166000D01*
X29535001Y46166000D01*
X29559505Y46164796D01*
X29559505Y46164796D01*
G37*
D13*
X29210000Y45466000D03*
D12*
G36*
X27509505Y46164796D02*
G01*
X27533773Y46161196D01*
X27557572Y46155235D01*
X27580671Y46146970D01*
X27602850Y46136480D01*
X27623893Y46123868D01*
X27643599Y46109253D01*
X27661777Y46092777D01*
X27678253Y46074599D01*
X27692868Y46054893D01*
X27705480Y46033850D01*
X27715970Y46011671D01*
X27724235Y45988572D01*
X27730196Y45964773D01*
X27733796Y45940505D01*
X27735000Y45916001D01*
X27735000Y45015999D01*
X27733796Y44991495D01*
X27730196Y44967227D01*
X27724235Y44943428D01*
X27715970Y44920329D01*
X27705480Y44898150D01*
X27692868Y44877107D01*
X27678253Y44857401D01*
X27661777Y44839223D01*
X27643599Y44822747D01*
X27623893Y44808132D01*
X27602850Y44795520D01*
X27580671Y44785030D01*
X27557572Y44776765D01*
X27533773Y44770804D01*
X27509505Y44767204D01*
X27485001Y44766000D01*
X26834999Y44766000D01*
X26810495Y44767204D01*
X26786227Y44770804D01*
X26762428Y44776765D01*
X26739329Y44785030D01*
X26717150Y44795520D01*
X26696107Y44808132D01*
X26676401Y44822747D01*
X26658223Y44839223D01*
X26641747Y44857401D01*
X26627132Y44877107D01*
X26614520Y44898150D01*
X26604030Y44920329D01*
X26595765Y44943428D01*
X26589804Y44967227D01*
X26586204Y44991495D01*
X26585000Y45015999D01*
X26585000Y45916001D01*
X26586204Y45940505D01*
X26589804Y45964773D01*
X26595765Y45988572D01*
X26604030Y46011671D01*
X26614520Y46033850D01*
X26627132Y46054893D01*
X26641747Y46074599D01*
X26658223Y46092777D01*
X26676401Y46109253D01*
X26696107Y46123868D01*
X26717150Y46136480D01*
X26739329Y46146970D01*
X26762428Y46155235D01*
X26786227Y46161196D01*
X26810495Y46164796D01*
X26834999Y46166000D01*
X27485001Y46166000D01*
X27509505Y46164796D01*
X27509505Y46164796D01*
G37*
D13*
X27160000Y45466000D03*
D12*
G36*
X24604505Y51736796D02*
G01*
X24628773Y51733196D01*
X24652572Y51727235D01*
X24675671Y51718970D01*
X24697850Y51708480D01*
X24718893Y51695868D01*
X24738599Y51681253D01*
X24756777Y51664777D01*
X24773253Y51646599D01*
X24787868Y51626893D01*
X24800480Y51605850D01*
X24810970Y51583671D01*
X24819235Y51560572D01*
X24825196Y51536773D01*
X24828796Y51512505D01*
X24830000Y51488001D01*
X24830000Y50837999D01*
X24828796Y50813495D01*
X24825196Y50789227D01*
X24819235Y50765428D01*
X24810970Y50742329D01*
X24800480Y50720150D01*
X24787868Y50699107D01*
X24773253Y50679401D01*
X24756777Y50661223D01*
X24738599Y50644747D01*
X24718893Y50630132D01*
X24697850Y50617520D01*
X24675671Y50607030D01*
X24652572Y50598765D01*
X24628773Y50592804D01*
X24604505Y50589204D01*
X24580001Y50588000D01*
X23679999Y50588000D01*
X23655495Y50589204D01*
X23631227Y50592804D01*
X23607428Y50598765D01*
X23584329Y50607030D01*
X23562150Y50617520D01*
X23541107Y50630132D01*
X23521401Y50644747D01*
X23503223Y50661223D01*
X23486747Y50679401D01*
X23472132Y50699107D01*
X23459520Y50720150D01*
X23449030Y50742329D01*
X23440765Y50765428D01*
X23434804Y50789227D01*
X23431204Y50813495D01*
X23430000Y50837999D01*
X23430000Y51488001D01*
X23431204Y51512505D01*
X23434804Y51536773D01*
X23440765Y51560572D01*
X23449030Y51583671D01*
X23459520Y51605850D01*
X23472132Y51626893D01*
X23486747Y51646599D01*
X23503223Y51664777D01*
X23521401Y51681253D01*
X23541107Y51695868D01*
X23562150Y51708480D01*
X23584329Y51718970D01*
X23607428Y51727235D01*
X23631227Y51733196D01*
X23655495Y51736796D01*
X23679999Y51738000D01*
X24580001Y51738000D01*
X24604505Y51736796D01*
X24604505Y51736796D01*
G37*
D13*
X24130000Y51163000D03*
D12*
G36*
X24604505Y53786796D02*
G01*
X24628773Y53783196D01*
X24652572Y53777235D01*
X24675671Y53768970D01*
X24697850Y53758480D01*
X24718893Y53745868D01*
X24738599Y53731253D01*
X24756777Y53714777D01*
X24773253Y53696599D01*
X24787868Y53676893D01*
X24800480Y53655850D01*
X24810970Y53633671D01*
X24819235Y53610572D01*
X24825196Y53586773D01*
X24828796Y53562505D01*
X24830000Y53538001D01*
X24830000Y52887999D01*
X24828796Y52863495D01*
X24825196Y52839227D01*
X24819235Y52815428D01*
X24810970Y52792329D01*
X24800480Y52770150D01*
X24787868Y52749107D01*
X24773253Y52729401D01*
X24756777Y52711223D01*
X24738599Y52694747D01*
X24718893Y52680132D01*
X24697850Y52667520D01*
X24675671Y52657030D01*
X24652572Y52648765D01*
X24628773Y52642804D01*
X24604505Y52639204D01*
X24580001Y52638000D01*
X23679999Y52638000D01*
X23655495Y52639204D01*
X23631227Y52642804D01*
X23607428Y52648765D01*
X23584329Y52657030D01*
X23562150Y52667520D01*
X23541107Y52680132D01*
X23521401Y52694747D01*
X23503223Y52711223D01*
X23486747Y52729401D01*
X23472132Y52749107D01*
X23459520Y52770150D01*
X23449030Y52792329D01*
X23440765Y52815428D01*
X23434804Y52839227D01*
X23431204Y52863495D01*
X23430000Y52887999D01*
X23430000Y53538001D01*
X23431204Y53562505D01*
X23434804Y53586773D01*
X23440765Y53610572D01*
X23449030Y53633671D01*
X23459520Y53655850D01*
X23472132Y53676893D01*
X23486747Y53696599D01*
X23503223Y53714777D01*
X23521401Y53731253D01*
X23541107Y53745868D01*
X23562150Y53758480D01*
X23584329Y53768970D01*
X23607428Y53777235D01*
X23631227Y53783196D01*
X23655495Y53786796D01*
X23679999Y53788000D01*
X24580001Y53788000D01*
X24604505Y53786796D01*
X24604505Y53786796D01*
G37*
D13*
X24130000Y53213000D03*
D12*
G36*
X42504505Y7683796D02*
G01*
X42528773Y7680196D01*
X42552572Y7674235D01*
X42575671Y7665970D01*
X42597850Y7655480D01*
X42618893Y7642868D01*
X42638599Y7628253D01*
X42656777Y7611777D01*
X42673253Y7593599D01*
X42687868Y7573893D01*
X42700480Y7552850D01*
X42710970Y7530671D01*
X42719235Y7507572D01*
X42725196Y7483773D01*
X42728796Y7459505D01*
X42730000Y7435001D01*
X42730000Y6534999D01*
X42728796Y6510495D01*
X42725196Y6486227D01*
X42719235Y6462428D01*
X42710970Y6439329D01*
X42700480Y6417150D01*
X42687868Y6396107D01*
X42673253Y6376401D01*
X42656777Y6358223D01*
X42638599Y6341747D01*
X42618893Y6327132D01*
X42597850Y6314520D01*
X42575671Y6304030D01*
X42552572Y6295765D01*
X42528773Y6289804D01*
X42504505Y6286204D01*
X42480001Y6285000D01*
X41829999Y6285000D01*
X41805495Y6286204D01*
X41781227Y6289804D01*
X41757428Y6295765D01*
X41734329Y6304030D01*
X41712150Y6314520D01*
X41691107Y6327132D01*
X41671401Y6341747D01*
X41653223Y6358223D01*
X41636747Y6376401D01*
X41622132Y6396107D01*
X41609520Y6417150D01*
X41599030Y6439329D01*
X41590765Y6462428D01*
X41584804Y6486227D01*
X41581204Y6510495D01*
X41580000Y6534999D01*
X41580000Y7435001D01*
X41581204Y7459505D01*
X41584804Y7483773D01*
X41590765Y7507572D01*
X41599030Y7530671D01*
X41609520Y7552850D01*
X41622132Y7573893D01*
X41636747Y7593599D01*
X41653223Y7611777D01*
X41671401Y7628253D01*
X41691107Y7642868D01*
X41712150Y7655480D01*
X41734329Y7665970D01*
X41757428Y7674235D01*
X41781227Y7680196D01*
X41805495Y7683796D01*
X41829999Y7685000D01*
X42480001Y7685000D01*
X42504505Y7683796D01*
X42504505Y7683796D01*
G37*
D13*
X42155000Y6985000D03*
D12*
G36*
X44554505Y7683796D02*
G01*
X44578773Y7680196D01*
X44602572Y7674235D01*
X44625671Y7665970D01*
X44647850Y7655480D01*
X44668893Y7642868D01*
X44688599Y7628253D01*
X44706777Y7611777D01*
X44723253Y7593599D01*
X44737868Y7573893D01*
X44750480Y7552850D01*
X44760970Y7530671D01*
X44769235Y7507572D01*
X44775196Y7483773D01*
X44778796Y7459505D01*
X44780000Y7435001D01*
X44780000Y6534999D01*
X44778796Y6510495D01*
X44775196Y6486227D01*
X44769235Y6462428D01*
X44760970Y6439329D01*
X44750480Y6417150D01*
X44737868Y6396107D01*
X44723253Y6376401D01*
X44706777Y6358223D01*
X44688599Y6341747D01*
X44668893Y6327132D01*
X44647850Y6314520D01*
X44625671Y6304030D01*
X44602572Y6295765D01*
X44578773Y6289804D01*
X44554505Y6286204D01*
X44530001Y6285000D01*
X43879999Y6285000D01*
X43855495Y6286204D01*
X43831227Y6289804D01*
X43807428Y6295765D01*
X43784329Y6304030D01*
X43762150Y6314520D01*
X43741107Y6327132D01*
X43721401Y6341747D01*
X43703223Y6358223D01*
X43686747Y6376401D01*
X43672132Y6396107D01*
X43659520Y6417150D01*
X43649030Y6439329D01*
X43640765Y6462428D01*
X43634804Y6486227D01*
X43631204Y6510495D01*
X43630000Y6534999D01*
X43630000Y7435001D01*
X43631204Y7459505D01*
X43634804Y7483773D01*
X43640765Y7507572D01*
X43649030Y7530671D01*
X43659520Y7552850D01*
X43672132Y7573893D01*
X43686747Y7593599D01*
X43703223Y7611777D01*
X43721401Y7628253D01*
X43741107Y7642868D01*
X43762150Y7655480D01*
X43784329Y7665970D01*
X43807428Y7674235D01*
X43831227Y7680196D01*
X43855495Y7683796D01*
X43879999Y7685000D01*
X44530001Y7685000D01*
X44554505Y7683796D01*
X44554505Y7683796D01*
G37*
D13*
X44205000Y6985000D03*
D14*
X26050000Y36195000D03*
D12*
G36*
X26050000Y36944398D02*
G01*
X26074534Y36944398D01*
X26123365Y36939588D01*
X26171490Y36930016D01*
X26218445Y36915772D01*
X26263778Y36896995D01*
X26307051Y36873864D01*
X26347850Y36846604D01*
X26385779Y36815476D01*
X26420476Y36780779D01*
X26451604Y36742850D01*
X26478864Y36702051D01*
X26501995Y36658778D01*
X26520772Y36613445D01*
X26535016Y36566490D01*
X26544588Y36518365D01*
X26549398Y36469534D01*
X26549398Y36445000D01*
X26550000Y36445000D01*
X26550000Y35945000D01*
X26549398Y35945000D01*
X26549398Y35920466D01*
X26544588Y35871635D01*
X26535016Y35823510D01*
X26520772Y35776555D01*
X26501995Y35731222D01*
X26478864Y35687949D01*
X26451604Y35647150D01*
X26420476Y35609221D01*
X26385779Y35574524D01*
X26347850Y35543396D01*
X26307051Y35516136D01*
X26263778Y35493005D01*
X26218445Y35474228D01*
X26171490Y35459984D01*
X26123365Y35450412D01*
X26074534Y35445602D01*
X26050000Y35445602D01*
X26050000Y35445000D01*
X25550000Y35445000D01*
X25550000Y36945000D01*
X26050000Y36945000D01*
X26050000Y36944398D01*
X26050000Y36944398D01*
G37*
D14*
X24750000Y36195000D03*
D12*
G36*
X25250000Y35445000D02*
G01*
X24750000Y35445000D01*
X24750000Y35445602D01*
X24725466Y35445602D01*
X24676635Y35450412D01*
X24628510Y35459984D01*
X24581555Y35474228D01*
X24536222Y35493005D01*
X24492949Y35516136D01*
X24452150Y35543396D01*
X24414221Y35574524D01*
X24379524Y35609221D01*
X24348396Y35647150D01*
X24321136Y35687949D01*
X24298005Y35731222D01*
X24279228Y35776555D01*
X24264984Y35823510D01*
X24255412Y35871635D01*
X24250602Y35920466D01*
X24250602Y35945000D01*
X24250000Y35945000D01*
X24250000Y36445000D01*
X24250602Y36445000D01*
X24250602Y36469534D01*
X24255412Y36518365D01*
X24264984Y36566490D01*
X24279228Y36613445D01*
X24298005Y36658778D01*
X24321136Y36702051D01*
X24348396Y36742850D01*
X24379524Y36780779D01*
X24414221Y36815476D01*
X24452150Y36846604D01*
X24492949Y36873864D01*
X24536222Y36896995D01*
X24581555Y36915772D01*
X24628510Y36930016D01*
X24676635Y36939588D01*
X24725466Y36944398D01*
X24750000Y36944398D01*
X24750000Y36945000D01*
X25250000Y36945000D01*
X25250000Y35445000D01*
X25250000Y35445000D01*
G37*
G36*
X44554505Y10223796D02*
G01*
X44578773Y10220196D01*
X44602572Y10214235D01*
X44625671Y10205970D01*
X44647850Y10195480D01*
X44668893Y10182868D01*
X44688599Y10168253D01*
X44706777Y10151777D01*
X44723253Y10133599D01*
X44737868Y10113893D01*
X44750480Y10092850D01*
X44760970Y10070671D01*
X44769235Y10047572D01*
X44775196Y10023773D01*
X44778796Y9999505D01*
X44780000Y9975001D01*
X44780000Y9074999D01*
X44778796Y9050495D01*
X44775196Y9026227D01*
X44769235Y9002428D01*
X44760970Y8979329D01*
X44750480Y8957150D01*
X44737868Y8936107D01*
X44723253Y8916401D01*
X44706777Y8898223D01*
X44688599Y8881747D01*
X44668893Y8867132D01*
X44647850Y8854520D01*
X44625671Y8844030D01*
X44602572Y8835765D01*
X44578773Y8829804D01*
X44554505Y8826204D01*
X44530001Y8825000D01*
X43879999Y8825000D01*
X43855495Y8826204D01*
X43831227Y8829804D01*
X43807428Y8835765D01*
X43784329Y8844030D01*
X43762150Y8854520D01*
X43741107Y8867132D01*
X43721401Y8881747D01*
X43703223Y8898223D01*
X43686747Y8916401D01*
X43672132Y8936107D01*
X43659520Y8957150D01*
X43649030Y8979329D01*
X43640765Y9002428D01*
X43634804Y9026227D01*
X43631204Y9050495D01*
X43630000Y9074999D01*
X43630000Y9975001D01*
X43631204Y9999505D01*
X43634804Y10023773D01*
X43640765Y10047572D01*
X43649030Y10070671D01*
X43659520Y10092850D01*
X43672132Y10113893D01*
X43686747Y10133599D01*
X43703223Y10151777D01*
X43721401Y10168253D01*
X43741107Y10182868D01*
X43762150Y10195480D01*
X43784329Y10205970D01*
X43807428Y10214235D01*
X43831227Y10220196D01*
X43855495Y10223796D01*
X43879999Y10225000D01*
X44530001Y10225000D01*
X44554505Y10223796D01*
X44554505Y10223796D01*
G37*
D13*
X44205000Y9525000D03*
D12*
G36*
X42504505Y10223796D02*
G01*
X42528773Y10220196D01*
X42552572Y10214235D01*
X42575671Y10205970D01*
X42597850Y10195480D01*
X42618893Y10182868D01*
X42638599Y10168253D01*
X42656777Y10151777D01*
X42673253Y10133599D01*
X42687868Y10113893D01*
X42700480Y10092850D01*
X42710970Y10070671D01*
X42719235Y10047572D01*
X42725196Y10023773D01*
X42728796Y9999505D01*
X42730000Y9975001D01*
X42730000Y9074999D01*
X42728796Y9050495D01*
X42725196Y9026227D01*
X42719235Y9002428D01*
X42710970Y8979329D01*
X42700480Y8957150D01*
X42687868Y8936107D01*
X42673253Y8916401D01*
X42656777Y8898223D01*
X42638599Y8881747D01*
X42618893Y8867132D01*
X42597850Y8854520D01*
X42575671Y8844030D01*
X42552572Y8835765D01*
X42528773Y8829804D01*
X42504505Y8826204D01*
X42480001Y8825000D01*
X41829999Y8825000D01*
X41805495Y8826204D01*
X41781227Y8829804D01*
X41757428Y8835765D01*
X41734329Y8844030D01*
X41712150Y8854520D01*
X41691107Y8867132D01*
X41671401Y8881747D01*
X41653223Y8898223D01*
X41636747Y8916401D01*
X41622132Y8936107D01*
X41609520Y8957150D01*
X41599030Y8979329D01*
X41590765Y9002428D01*
X41584804Y9026227D01*
X41581204Y9050495D01*
X41580000Y9074999D01*
X41580000Y9975001D01*
X41581204Y9999505D01*
X41584804Y10023773D01*
X41590765Y10047572D01*
X41599030Y10070671D01*
X41609520Y10092850D01*
X41622132Y10113893D01*
X41636747Y10133599D01*
X41653223Y10151777D01*
X41671401Y10168253D01*
X41691107Y10182868D01*
X41712150Y10195480D01*
X41734329Y10205970D01*
X41757428Y10214235D01*
X41781227Y10220196D01*
X41805495Y10223796D01*
X41829999Y10225000D01*
X42480001Y10225000D01*
X42504505Y10223796D01*
X42504505Y10223796D01*
G37*
D13*
X42155000Y9525000D03*
D12*
G36*
X42014505Y25590796D02*
G01*
X42038773Y25587196D01*
X42062572Y25581235D01*
X42085671Y25572970D01*
X42107850Y25562480D01*
X42128893Y25549868D01*
X42148599Y25535253D01*
X42166777Y25518777D01*
X42183253Y25500599D01*
X42197868Y25480893D01*
X42210480Y25459850D01*
X42220970Y25437671D01*
X42229235Y25414572D01*
X42235196Y25390773D01*
X42238796Y25366505D01*
X42240000Y25342001D01*
X42240000Y24441999D01*
X42238796Y24417495D01*
X42235196Y24393227D01*
X42229235Y24369428D01*
X42220970Y24346329D01*
X42210480Y24324150D01*
X42197868Y24303107D01*
X42183253Y24283401D01*
X42166777Y24265223D01*
X42148599Y24248747D01*
X42128893Y24234132D01*
X42107850Y24221520D01*
X42085671Y24211030D01*
X42062572Y24202765D01*
X42038773Y24196804D01*
X42014505Y24193204D01*
X41990001Y24192000D01*
X41339999Y24192000D01*
X41315495Y24193204D01*
X41291227Y24196804D01*
X41267428Y24202765D01*
X41244329Y24211030D01*
X41222150Y24221520D01*
X41201107Y24234132D01*
X41181401Y24248747D01*
X41163223Y24265223D01*
X41146747Y24283401D01*
X41132132Y24303107D01*
X41119520Y24324150D01*
X41109030Y24346329D01*
X41100765Y24369428D01*
X41094804Y24393227D01*
X41091204Y24417495D01*
X41090000Y24441999D01*
X41090000Y25342001D01*
X41091204Y25366505D01*
X41094804Y25390773D01*
X41100765Y25414572D01*
X41109030Y25437671D01*
X41119520Y25459850D01*
X41132132Y25480893D01*
X41146747Y25500599D01*
X41163223Y25518777D01*
X41181401Y25535253D01*
X41201107Y25549868D01*
X41222150Y25562480D01*
X41244329Y25572970D01*
X41267428Y25581235D01*
X41291227Y25587196D01*
X41315495Y25590796D01*
X41339999Y25592000D01*
X41990001Y25592000D01*
X42014505Y25590796D01*
X42014505Y25590796D01*
G37*
D13*
X41665000Y24892000D03*
D12*
G36*
X39964505Y25590796D02*
G01*
X39988773Y25587196D01*
X40012572Y25581235D01*
X40035671Y25572970D01*
X40057850Y25562480D01*
X40078893Y25549868D01*
X40098599Y25535253D01*
X40116777Y25518777D01*
X40133253Y25500599D01*
X40147868Y25480893D01*
X40160480Y25459850D01*
X40170970Y25437671D01*
X40179235Y25414572D01*
X40185196Y25390773D01*
X40188796Y25366505D01*
X40190000Y25342001D01*
X40190000Y24441999D01*
X40188796Y24417495D01*
X40185196Y24393227D01*
X40179235Y24369428D01*
X40170970Y24346329D01*
X40160480Y24324150D01*
X40147868Y24303107D01*
X40133253Y24283401D01*
X40116777Y24265223D01*
X40098599Y24248747D01*
X40078893Y24234132D01*
X40057850Y24221520D01*
X40035671Y24211030D01*
X40012572Y24202765D01*
X39988773Y24196804D01*
X39964505Y24193204D01*
X39940001Y24192000D01*
X39289999Y24192000D01*
X39265495Y24193204D01*
X39241227Y24196804D01*
X39217428Y24202765D01*
X39194329Y24211030D01*
X39172150Y24221520D01*
X39151107Y24234132D01*
X39131401Y24248747D01*
X39113223Y24265223D01*
X39096747Y24283401D01*
X39082132Y24303107D01*
X39069520Y24324150D01*
X39059030Y24346329D01*
X39050765Y24369428D01*
X39044804Y24393227D01*
X39041204Y24417495D01*
X39040000Y24441999D01*
X39040000Y25342001D01*
X39041204Y25366505D01*
X39044804Y25390773D01*
X39050765Y25414572D01*
X39059030Y25437671D01*
X39069520Y25459850D01*
X39082132Y25480893D01*
X39096747Y25500599D01*
X39113223Y25518777D01*
X39131401Y25535253D01*
X39151107Y25549868D01*
X39172150Y25562480D01*
X39194329Y25572970D01*
X39217428Y25581235D01*
X39241227Y25587196D01*
X39265495Y25590796D01*
X39289999Y25592000D01*
X39940001Y25592000D01*
X39964505Y25590796D01*
X39964505Y25590796D01*
G37*
D13*
X39615000Y24892000D03*
D15*
X12065000Y3810000D03*
D16*
X12065000Y6350000D03*
D15*
X39370000Y8890000D03*
X39370000Y6350000D03*
D16*
X39370000Y3810000D03*
D17*
X47605000Y71795000D03*
X40605000Y71795000D03*
D18*
X46355000Y74295000D03*
X41855000Y74295000D03*
D17*
X10004500Y71795000D03*
X3004500Y71795000D03*
D18*
X8754500Y74295000D03*
X4254500Y74295000D03*
D19*
X18415000Y74295000D03*
D20*
X20955000Y74295000D03*
D19*
X23495000Y74295000D03*
D20*
X26035000Y74295000D03*
D19*
X13335000Y74295000D03*
D20*
X15875000Y74295000D03*
D15*
X2540000Y12700000D03*
X5080000Y12700000D03*
X2540000Y15240000D03*
X5080000Y15240000D03*
X2540000Y17780000D03*
X5080000Y17780000D03*
X2540000Y20320000D03*
X5080000Y20320000D03*
X2540000Y22860000D03*
X5080000Y22860000D03*
X2540000Y25400000D03*
X5080000Y25400000D03*
X2540000Y27940000D03*
X5080000Y27940000D03*
X2540000Y30480000D03*
X5080000Y30480000D03*
X2540000Y33020000D03*
X5080000Y33020000D03*
X2540000Y35560000D03*
X5080000Y35560000D03*
X2540000Y38100000D03*
X5080000Y38100000D03*
X2540000Y40640000D03*
X5080000Y40640000D03*
X2540000Y43180000D03*
X5080000Y43180000D03*
X2540000Y45720000D03*
X5080000Y45720000D03*
X2540000Y48260000D03*
X5080000Y48260000D03*
X2540000Y50800000D03*
X5080000Y50800000D03*
X2540000Y53340000D03*
X5080000Y53340000D03*
X2540000Y55880000D03*
X5080000Y55880000D03*
X2540000Y58420000D03*
X5080000Y58420000D03*
X2540000Y60960000D03*
D16*
X5080000Y60960000D03*
D15*
X48260000Y60960000D03*
X45720000Y60960000D03*
X48260000Y58420000D03*
X45720000Y58420000D03*
X48260000Y55880000D03*
X45720000Y55880000D03*
X48260000Y53340000D03*
X45720000Y53340000D03*
X48260000Y50800000D03*
X45720000Y50800000D03*
X48260000Y48260000D03*
X45720000Y48260000D03*
X48260000Y45720000D03*
X45720000Y45720000D03*
X48260000Y43180000D03*
X45720000Y43180000D03*
X48260000Y40640000D03*
X45720000Y40640000D03*
X48260000Y38100000D03*
X45720000Y38100000D03*
X48260000Y35560000D03*
X45720000Y35560000D03*
X48260000Y33020000D03*
X45720000Y33020000D03*
X48260000Y30480000D03*
X45720000Y30480000D03*
X48260000Y27940000D03*
X45720000Y27940000D03*
X48260000Y25400000D03*
X45720000Y25400000D03*
X48260000Y22860000D03*
X45720000Y22860000D03*
X48260000Y20320000D03*
X45720000Y20320000D03*
X48260000Y17780000D03*
X45720000Y17780000D03*
X48260000Y15240000D03*
X45720000Y15240000D03*
X48260000Y12700000D03*
D16*
X45720000Y12700000D03*
D21*
X38655000Y12065000D03*
X38655000Y13965000D03*
X41355000Y13965000D03*
X41355000Y13015000D03*
X41355000Y12065000D03*
X38655000Y16510000D03*
X38655000Y18410000D03*
X41355000Y18410000D03*
X41355000Y17460000D03*
X41355000Y16510000D03*
X38655000Y20960000D03*
X38655000Y22860000D03*
X41355000Y22860000D03*
X41355000Y21910000D03*
X41355000Y20960000D03*
D12*
G36*
X45044505Y69278796D02*
G01*
X45068773Y69275196D01*
X45092572Y69269235D01*
X45115671Y69260970D01*
X45137850Y69250480D01*
X45158893Y69237868D01*
X45178599Y69223253D01*
X45196777Y69206777D01*
X45213253Y69188599D01*
X45227868Y69168893D01*
X45240480Y69147850D01*
X45250970Y69125671D01*
X45259235Y69102572D01*
X45265196Y69078773D01*
X45268796Y69054505D01*
X45270000Y69030001D01*
X45270000Y68129999D01*
X45268796Y68105495D01*
X45265196Y68081227D01*
X45259235Y68057428D01*
X45250970Y68034329D01*
X45240480Y68012150D01*
X45227868Y67991107D01*
X45213253Y67971401D01*
X45196777Y67953223D01*
X45178599Y67936747D01*
X45158893Y67922132D01*
X45137850Y67909520D01*
X45115671Y67899030D01*
X45092572Y67890765D01*
X45068773Y67884804D01*
X45044505Y67881204D01*
X45020001Y67880000D01*
X44369999Y67880000D01*
X44345495Y67881204D01*
X44321227Y67884804D01*
X44297428Y67890765D01*
X44274329Y67899030D01*
X44252150Y67909520D01*
X44231107Y67922132D01*
X44211401Y67936747D01*
X44193223Y67953223D01*
X44176747Y67971401D01*
X44162132Y67991107D01*
X44149520Y68012150D01*
X44139030Y68034329D01*
X44130765Y68057428D01*
X44124804Y68081227D01*
X44121204Y68105495D01*
X44120000Y68129999D01*
X44120000Y69030001D01*
X44121204Y69054505D01*
X44124804Y69078773D01*
X44130765Y69102572D01*
X44139030Y69125671D01*
X44149520Y69147850D01*
X44162132Y69168893D01*
X44176747Y69188599D01*
X44193223Y69206777D01*
X44211401Y69223253D01*
X44231107Y69237868D01*
X44252150Y69250480D01*
X44274329Y69260970D01*
X44297428Y69269235D01*
X44321227Y69275196D01*
X44345495Y69278796D01*
X44369999Y69280000D01*
X45020001Y69280000D01*
X45044505Y69278796D01*
X45044505Y69278796D01*
G37*
D13*
X44695000Y68580000D03*
D12*
G36*
X47094505Y69278796D02*
G01*
X47118773Y69275196D01*
X47142572Y69269235D01*
X47165671Y69260970D01*
X47187850Y69250480D01*
X47208893Y69237868D01*
X47228599Y69223253D01*
X47246777Y69206777D01*
X47263253Y69188599D01*
X47277868Y69168893D01*
X47290480Y69147850D01*
X47300970Y69125671D01*
X47309235Y69102572D01*
X47315196Y69078773D01*
X47318796Y69054505D01*
X47320000Y69030001D01*
X47320000Y68129999D01*
X47318796Y68105495D01*
X47315196Y68081227D01*
X47309235Y68057428D01*
X47300970Y68034329D01*
X47290480Y68012150D01*
X47277868Y67991107D01*
X47263253Y67971401D01*
X47246777Y67953223D01*
X47228599Y67936747D01*
X47208893Y67922132D01*
X47187850Y67909520D01*
X47165671Y67899030D01*
X47142572Y67890765D01*
X47118773Y67884804D01*
X47094505Y67881204D01*
X47070001Y67880000D01*
X46419999Y67880000D01*
X46395495Y67881204D01*
X46371227Y67884804D01*
X46347428Y67890765D01*
X46324329Y67899030D01*
X46302150Y67909520D01*
X46281107Y67922132D01*
X46261401Y67936747D01*
X46243223Y67953223D01*
X46226747Y67971401D01*
X46212132Y67991107D01*
X46199520Y68012150D01*
X46189030Y68034329D01*
X46180765Y68057428D01*
X46174804Y68081227D01*
X46171204Y68105495D01*
X46170000Y68129999D01*
X46170000Y69030001D01*
X46171204Y69054505D01*
X46174804Y69078773D01*
X46180765Y69102572D01*
X46189030Y69125671D01*
X46199520Y69147850D01*
X46212132Y69168893D01*
X46226747Y69188599D01*
X46243223Y69206777D01*
X46261401Y69223253D01*
X46281107Y69237868D01*
X46302150Y69250480D01*
X46324329Y69260970D01*
X46347428Y69269235D01*
X46371227Y69275196D01*
X46395495Y69278796D01*
X46419999Y69280000D01*
X47070001Y69280000D01*
X47094505Y69278796D01*
X47094505Y69278796D01*
G37*
D13*
X46745000Y68580000D03*
D12*
G36*
X7724505Y66992796D02*
G01*
X7748773Y66989196D01*
X7772572Y66983235D01*
X7795671Y66974970D01*
X7817850Y66964480D01*
X7838893Y66951868D01*
X7858599Y66937253D01*
X7876777Y66920777D01*
X7893253Y66902599D01*
X7907868Y66882893D01*
X7920480Y66861850D01*
X7930970Y66839671D01*
X7939235Y66816572D01*
X7945196Y66792773D01*
X7948796Y66768505D01*
X7950000Y66744001D01*
X7950000Y65843999D01*
X7948796Y65819495D01*
X7945196Y65795227D01*
X7939235Y65771428D01*
X7930970Y65748329D01*
X7920480Y65726150D01*
X7907868Y65705107D01*
X7893253Y65685401D01*
X7876777Y65667223D01*
X7858599Y65650747D01*
X7838893Y65636132D01*
X7817850Y65623520D01*
X7795671Y65613030D01*
X7772572Y65604765D01*
X7748773Y65598804D01*
X7724505Y65595204D01*
X7700001Y65594000D01*
X7049999Y65594000D01*
X7025495Y65595204D01*
X7001227Y65598804D01*
X6977428Y65604765D01*
X6954329Y65613030D01*
X6932150Y65623520D01*
X6911107Y65636132D01*
X6891401Y65650747D01*
X6873223Y65667223D01*
X6856747Y65685401D01*
X6842132Y65705107D01*
X6829520Y65726150D01*
X6819030Y65748329D01*
X6810765Y65771428D01*
X6804804Y65795227D01*
X6801204Y65819495D01*
X6800000Y65843999D01*
X6800000Y66744001D01*
X6801204Y66768505D01*
X6804804Y66792773D01*
X6810765Y66816572D01*
X6819030Y66839671D01*
X6829520Y66861850D01*
X6842132Y66882893D01*
X6856747Y66902599D01*
X6873223Y66920777D01*
X6891401Y66937253D01*
X6911107Y66951868D01*
X6932150Y66964480D01*
X6954329Y66974970D01*
X6977428Y66983235D01*
X7001227Y66989196D01*
X7025495Y66992796D01*
X7049999Y66994000D01*
X7700001Y66994000D01*
X7724505Y66992796D01*
X7724505Y66992796D01*
G37*
D13*
X7375000Y66294000D03*
D12*
G36*
X5674505Y66992796D02*
G01*
X5698773Y66989196D01*
X5722572Y66983235D01*
X5745671Y66974970D01*
X5767850Y66964480D01*
X5788893Y66951868D01*
X5808599Y66937253D01*
X5826777Y66920777D01*
X5843253Y66902599D01*
X5857868Y66882893D01*
X5870480Y66861850D01*
X5880970Y66839671D01*
X5889235Y66816572D01*
X5895196Y66792773D01*
X5898796Y66768505D01*
X5900000Y66744001D01*
X5900000Y65843999D01*
X5898796Y65819495D01*
X5895196Y65795227D01*
X5889235Y65771428D01*
X5880970Y65748329D01*
X5870480Y65726150D01*
X5857868Y65705107D01*
X5843253Y65685401D01*
X5826777Y65667223D01*
X5808599Y65650747D01*
X5788893Y65636132D01*
X5767850Y65623520D01*
X5745671Y65613030D01*
X5722572Y65604765D01*
X5698773Y65598804D01*
X5674505Y65595204D01*
X5650001Y65594000D01*
X4999999Y65594000D01*
X4975495Y65595204D01*
X4951227Y65598804D01*
X4927428Y65604765D01*
X4904329Y65613030D01*
X4882150Y65623520D01*
X4861107Y65636132D01*
X4841401Y65650747D01*
X4823223Y65667223D01*
X4806747Y65685401D01*
X4792132Y65705107D01*
X4779520Y65726150D01*
X4769030Y65748329D01*
X4760765Y65771428D01*
X4754804Y65795227D01*
X4751204Y65819495D01*
X4750000Y65843999D01*
X4750000Y66744001D01*
X4751204Y66768505D01*
X4754804Y66792773D01*
X4760765Y66816572D01*
X4769030Y66839671D01*
X4779520Y66861850D01*
X4792132Y66882893D01*
X4806747Y66902599D01*
X4823223Y66920777D01*
X4841401Y66937253D01*
X4861107Y66951868D01*
X4882150Y66964480D01*
X4904329Y66974970D01*
X4927428Y66983235D01*
X4951227Y66989196D01*
X4975495Y66992796D01*
X4999999Y66994000D01*
X5650001Y66994000D01*
X5674505Y66992796D01*
X5674505Y66992796D01*
G37*
D13*
X5325000Y66294000D03*
D12*
G36*
X7724505Y69278796D02*
G01*
X7748773Y69275196D01*
X7772572Y69269235D01*
X7795671Y69260970D01*
X7817850Y69250480D01*
X7838893Y69237868D01*
X7858599Y69223253D01*
X7876777Y69206777D01*
X7893253Y69188599D01*
X7907868Y69168893D01*
X7920480Y69147850D01*
X7930970Y69125671D01*
X7939235Y69102572D01*
X7945196Y69078773D01*
X7948796Y69054505D01*
X7950000Y69030001D01*
X7950000Y68129999D01*
X7948796Y68105495D01*
X7945196Y68081227D01*
X7939235Y68057428D01*
X7930970Y68034329D01*
X7920480Y68012150D01*
X7907868Y67991107D01*
X7893253Y67971401D01*
X7876777Y67953223D01*
X7858599Y67936747D01*
X7838893Y67922132D01*
X7817850Y67909520D01*
X7795671Y67899030D01*
X7772572Y67890765D01*
X7748773Y67884804D01*
X7724505Y67881204D01*
X7700001Y67880000D01*
X7049999Y67880000D01*
X7025495Y67881204D01*
X7001227Y67884804D01*
X6977428Y67890765D01*
X6954329Y67899030D01*
X6932150Y67909520D01*
X6911107Y67922132D01*
X6891401Y67936747D01*
X6873223Y67953223D01*
X6856747Y67971401D01*
X6842132Y67991107D01*
X6829520Y68012150D01*
X6819030Y68034329D01*
X6810765Y68057428D01*
X6804804Y68081227D01*
X6801204Y68105495D01*
X6800000Y68129999D01*
X6800000Y69030001D01*
X6801204Y69054505D01*
X6804804Y69078773D01*
X6810765Y69102572D01*
X6819030Y69125671D01*
X6829520Y69147850D01*
X6842132Y69168893D01*
X6856747Y69188599D01*
X6873223Y69206777D01*
X6891401Y69223253D01*
X6911107Y69237868D01*
X6932150Y69250480D01*
X6954329Y69260970D01*
X6977428Y69269235D01*
X7001227Y69275196D01*
X7025495Y69278796D01*
X7049999Y69280000D01*
X7700001Y69280000D01*
X7724505Y69278796D01*
X7724505Y69278796D01*
G37*
D13*
X7375000Y68580000D03*
D12*
G36*
X5674505Y69278796D02*
G01*
X5698773Y69275196D01*
X5722572Y69269235D01*
X5745671Y69260970D01*
X5767850Y69250480D01*
X5788893Y69237868D01*
X5808599Y69223253D01*
X5826777Y69206777D01*
X5843253Y69188599D01*
X5857868Y69168893D01*
X5870480Y69147850D01*
X5880970Y69125671D01*
X5889235Y69102572D01*
X5895196Y69078773D01*
X5898796Y69054505D01*
X5900000Y69030001D01*
X5900000Y68129999D01*
X5898796Y68105495D01*
X5895196Y68081227D01*
X5889235Y68057428D01*
X5880970Y68034329D01*
X5870480Y68012150D01*
X5857868Y67991107D01*
X5843253Y67971401D01*
X5826777Y67953223D01*
X5808599Y67936747D01*
X5788893Y67922132D01*
X5767850Y67909520D01*
X5745671Y67899030D01*
X5722572Y67890765D01*
X5698773Y67884804D01*
X5674505Y67881204D01*
X5650001Y67880000D01*
X4999999Y67880000D01*
X4975495Y67881204D01*
X4951227Y67884804D01*
X4927428Y67890765D01*
X4904329Y67899030D01*
X4882150Y67909520D01*
X4861107Y67922132D01*
X4841401Y67936747D01*
X4823223Y67953223D01*
X4806747Y67971401D01*
X4792132Y67991107D01*
X4779520Y68012150D01*
X4769030Y68034329D01*
X4760765Y68057428D01*
X4754804Y68081227D01*
X4751204Y68105495D01*
X4750000Y68129999D01*
X4750000Y69030001D01*
X4751204Y69054505D01*
X4754804Y69078773D01*
X4760765Y69102572D01*
X4769030Y69125671D01*
X4779520Y69147850D01*
X4792132Y69168893D01*
X4806747Y69188599D01*
X4823223Y69206777D01*
X4841401Y69223253D01*
X4861107Y69237868D01*
X4882150Y69250480D01*
X4904329Y69260970D01*
X4927428Y69269235D01*
X4951227Y69275196D01*
X4975495Y69278796D01*
X4999999Y69280000D01*
X5650001Y69280000D01*
X5674505Y69278796D01*
X5674505Y69278796D01*
G37*
D13*
X5325000Y68580000D03*
D12*
G36*
X47094505Y66738796D02*
G01*
X47118773Y66735196D01*
X47142572Y66729235D01*
X47165671Y66720970D01*
X47187850Y66710480D01*
X47208893Y66697868D01*
X47228599Y66683253D01*
X47246777Y66666777D01*
X47263253Y66648599D01*
X47277868Y66628893D01*
X47290480Y66607850D01*
X47300970Y66585671D01*
X47309235Y66562572D01*
X47315196Y66538773D01*
X47318796Y66514505D01*
X47320000Y66490001D01*
X47320000Y65589999D01*
X47318796Y65565495D01*
X47315196Y65541227D01*
X47309235Y65517428D01*
X47300970Y65494329D01*
X47290480Y65472150D01*
X47277868Y65451107D01*
X47263253Y65431401D01*
X47246777Y65413223D01*
X47228599Y65396747D01*
X47208893Y65382132D01*
X47187850Y65369520D01*
X47165671Y65359030D01*
X47142572Y65350765D01*
X47118773Y65344804D01*
X47094505Y65341204D01*
X47070001Y65340000D01*
X46419999Y65340000D01*
X46395495Y65341204D01*
X46371227Y65344804D01*
X46347428Y65350765D01*
X46324329Y65359030D01*
X46302150Y65369520D01*
X46281107Y65382132D01*
X46261401Y65396747D01*
X46243223Y65413223D01*
X46226747Y65431401D01*
X46212132Y65451107D01*
X46199520Y65472150D01*
X46189030Y65494329D01*
X46180765Y65517428D01*
X46174804Y65541227D01*
X46171204Y65565495D01*
X46170000Y65589999D01*
X46170000Y66490001D01*
X46171204Y66514505D01*
X46174804Y66538773D01*
X46180765Y66562572D01*
X46189030Y66585671D01*
X46199520Y66607850D01*
X46212132Y66628893D01*
X46226747Y66648599D01*
X46243223Y66666777D01*
X46261401Y66683253D01*
X46281107Y66697868D01*
X46302150Y66710480D01*
X46324329Y66720970D01*
X46347428Y66729235D01*
X46371227Y66735196D01*
X46395495Y66738796D01*
X46419999Y66740000D01*
X47070001Y66740000D01*
X47094505Y66738796D01*
X47094505Y66738796D01*
G37*
D13*
X46745000Y66040000D03*
D12*
G36*
X45044505Y66738796D02*
G01*
X45068773Y66735196D01*
X45092572Y66729235D01*
X45115671Y66720970D01*
X45137850Y66710480D01*
X45158893Y66697868D01*
X45178599Y66683253D01*
X45196777Y66666777D01*
X45213253Y66648599D01*
X45227868Y66628893D01*
X45240480Y66607850D01*
X45250970Y66585671D01*
X45259235Y66562572D01*
X45265196Y66538773D01*
X45268796Y66514505D01*
X45270000Y66490001D01*
X45270000Y65589999D01*
X45268796Y65565495D01*
X45265196Y65541227D01*
X45259235Y65517428D01*
X45250970Y65494329D01*
X45240480Y65472150D01*
X45227868Y65451107D01*
X45213253Y65431401D01*
X45196777Y65413223D01*
X45178599Y65396747D01*
X45158893Y65382132D01*
X45137850Y65369520D01*
X45115671Y65359030D01*
X45092572Y65350765D01*
X45068773Y65344804D01*
X45044505Y65341204D01*
X45020001Y65340000D01*
X44369999Y65340000D01*
X44345495Y65341204D01*
X44321227Y65344804D01*
X44297428Y65350765D01*
X44274329Y65359030D01*
X44252150Y65369520D01*
X44231107Y65382132D01*
X44211401Y65396747D01*
X44193223Y65413223D01*
X44176747Y65431401D01*
X44162132Y65451107D01*
X44149520Y65472150D01*
X44139030Y65494329D01*
X44130765Y65517428D01*
X44124804Y65541227D01*
X44121204Y65565495D01*
X44120000Y65589999D01*
X44120000Y66490001D01*
X44121204Y66514505D01*
X44124804Y66538773D01*
X44130765Y66562572D01*
X44139030Y66585671D01*
X44149520Y66607850D01*
X44162132Y66628893D01*
X44176747Y66648599D01*
X44193223Y66666777D01*
X44211401Y66683253D01*
X44231107Y66697868D01*
X44252150Y66710480D01*
X44274329Y66720970D01*
X44297428Y66729235D01*
X44321227Y66735196D01*
X44345495Y66738796D01*
X44369999Y66740000D01*
X45020001Y66740000D01*
X45044505Y66738796D01*
X45044505Y66738796D01*
G37*
D13*
X44695000Y66040000D03*
D12*
G36*
X5674505Y64706796D02*
G01*
X5698773Y64703196D01*
X5722572Y64697235D01*
X5745671Y64688970D01*
X5767850Y64678480D01*
X5788893Y64665868D01*
X5808599Y64651253D01*
X5826777Y64634777D01*
X5843253Y64616599D01*
X5857868Y64596893D01*
X5870480Y64575850D01*
X5880970Y64553671D01*
X5889235Y64530572D01*
X5895196Y64506773D01*
X5898796Y64482505D01*
X5900000Y64458001D01*
X5900000Y63557999D01*
X5898796Y63533495D01*
X5895196Y63509227D01*
X5889235Y63485428D01*
X5880970Y63462329D01*
X5870480Y63440150D01*
X5857868Y63419107D01*
X5843253Y63399401D01*
X5826777Y63381223D01*
X5808599Y63364747D01*
X5788893Y63350132D01*
X5767850Y63337520D01*
X5745671Y63327030D01*
X5722572Y63318765D01*
X5698773Y63312804D01*
X5674505Y63309204D01*
X5650001Y63308000D01*
X4999999Y63308000D01*
X4975495Y63309204D01*
X4951227Y63312804D01*
X4927428Y63318765D01*
X4904329Y63327030D01*
X4882150Y63337520D01*
X4861107Y63350132D01*
X4841401Y63364747D01*
X4823223Y63381223D01*
X4806747Y63399401D01*
X4792132Y63419107D01*
X4779520Y63440150D01*
X4769030Y63462329D01*
X4760765Y63485428D01*
X4754804Y63509227D01*
X4751204Y63533495D01*
X4750000Y63557999D01*
X4750000Y64458001D01*
X4751204Y64482505D01*
X4754804Y64506773D01*
X4760765Y64530572D01*
X4769030Y64553671D01*
X4779520Y64575850D01*
X4792132Y64596893D01*
X4806747Y64616599D01*
X4823223Y64634777D01*
X4841401Y64651253D01*
X4861107Y64665868D01*
X4882150Y64678480D01*
X4904329Y64688970D01*
X4927428Y64697235D01*
X4951227Y64703196D01*
X4975495Y64706796D01*
X4999999Y64708000D01*
X5650001Y64708000D01*
X5674505Y64706796D01*
X5674505Y64706796D01*
G37*
D13*
X5325000Y64008000D03*
D12*
G36*
X7724505Y64706796D02*
G01*
X7748773Y64703196D01*
X7772572Y64697235D01*
X7795671Y64688970D01*
X7817850Y64678480D01*
X7838893Y64665868D01*
X7858599Y64651253D01*
X7876777Y64634777D01*
X7893253Y64616599D01*
X7907868Y64596893D01*
X7920480Y64575850D01*
X7930970Y64553671D01*
X7939235Y64530572D01*
X7945196Y64506773D01*
X7948796Y64482505D01*
X7950000Y64458001D01*
X7950000Y63557999D01*
X7948796Y63533495D01*
X7945196Y63509227D01*
X7939235Y63485428D01*
X7930970Y63462329D01*
X7920480Y63440150D01*
X7907868Y63419107D01*
X7893253Y63399401D01*
X7876777Y63381223D01*
X7858599Y63364747D01*
X7838893Y63350132D01*
X7817850Y63337520D01*
X7795671Y63327030D01*
X7772572Y63318765D01*
X7748773Y63312804D01*
X7724505Y63309204D01*
X7700001Y63308000D01*
X7049999Y63308000D01*
X7025495Y63309204D01*
X7001227Y63312804D01*
X6977428Y63318765D01*
X6954329Y63327030D01*
X6932150Y63337520D01*
X6911107Y63350132D01*
X6891401Y63364747D01*
X6873223Y63381223D01*
X6856747Y63399401D01*
X6842132Y63419107D01*
X6829520Y63440150D01*
X6819030Y63462329D01*
X6810765Y63485428D01*
X6804804Y63509227D01*
X6801204Y63533495D01*
X6800000Y63557999D01*
X6800000Y64458001D01*
X6801204Y64482505D01*
X6804804Y64506773D01*
X6810765Y64530572D01*
X6819030Y64553671D01*
X6829520Y64575850D01*
X6842132Y64596893D01*
X6856747Y64616599D01*
X6873223Y64634777D01*
X6891401Y64651253D01*
X6911107Y64665868D01*
X6932150Y64678480D01*
X6954329Y64688970D01*
X6977428Y64697235D01*
X7001227Y64703196D01*
X7025495Y64706796D01*
X7049999Y64708000D01*
X7700001Y64708000D01*
X7724505Y64706796D01*
X7724505Y64706796D01*
G37*
D13*
X7375000Y64008000D03*
D12*
G36*
X8475505Y9953796D02*
G01*
X8499773Y9950196D01*
X8523572Y9944235D01*
X8546671Y9935970D01*
X8568850Y9925480D01*
X8589893Y9912868D01*
X8609599Y9898253D01*
X8627777Y9881777D01*
X8644253Y9863599D01*
X8658868Y9843893D01*
X8671480Y9822850D01*
X8681970Y9800671D01*
X8690235Y9777572D01*
X8696196Y9753773D01*
X8699796Y9729505D01*
X8701000Y9705001D01*
X8701000Y9054999D01*
X8699796Y9030495D01*
X8696196Y9006227D01*
X8690235Y8982428D01*
X8681970Y8959329D01*
X8671480Y8937150D01*
X8658868Y8916107D01*
X8644253Y8896401D01*
X8627777Y8878223D01*
X8609599Y8861747D01*
X8589893Y8847132D01*
X8568850Y8834520D01*
X8546671Y8824030D01*
X8523572Y8815765D01*
X8499773Y8809804D01*
X8475505Y8806204D01*
X8451001Y8805000D01*
X7550999Y8805000D01*
X7526495Y8806204D01*
X7502227Y8809804D01*
X7478428Y8815765D01*
X7455329Y8824030D01*
X7433150Y8834520D01*
X7412107Y8847132D01*
X7392401Y8861747D01*
X7374223Y8878223D01*
X7357747Y8896401D01*
X7343132Y8916107D01*
X7330520Y8937150D01*
X7320030Y8959329D01*
X7311765Y8982428D01*
X7305804Y9006227D01*
X7302204Y9030495D01*
X7301000Y9054999D01*
X7301000Y9705001D01*
X7302204Y9729505D01*
X7305804Y9753773D01*
X7311765Y9777572D01*
X7320030Y9800671D01*
X7330520Y9822850D01*
X7343132Y9843893D01*
X7357747Y9863599D01*
X7374223Y9881777D01*
X7392401Y9898253D01*
X7412107Y9912868D01*
X7433150Y9925480D01*
X7455329Y9935970D01*
X7478428Y9944235D01*
X7502227Y9950196D01*
X7526495Y9953796D01*
X7550999Y9955000D01*
X8451001Y9955000D01*
X8475505Y9953796D01*
X8475505Y9953796D01*
G37*
D13*
X8001000Y9380000D03*
D12*
G36*
X8475505Y12003796D02*
G01*
X8499773Y12000196D01*
X8523572Y11994235D01*
X8546671Y11985970D01*
X8568850Y11975480D01*
X8589893Y11962868D01*
X8609599Y11948253D01*
X8627777Y11931777D01*
X8644253Y11913599D01*
X8658868Y11893893D01*
X8671480Y11872850D01*
X8681970Y11850671D01*
X8690235Y11827572D01*
X8696196Y11803773D01*
X8699796Y11779505D01*
X8701000Y11755001D01*
X8701000Y11104999D01*
X8699796Y11080495D01*
X8696196Y11056227D01*
X8690235Y11032428D01*
X8681970Y11009329D01*
X8671480Y10987150D01*
X8658868Y10966107D01*
X8644253Y10946401D01*
X8627777Y10928223D01*
X8609599Y10911747D01*
X8589893Y10897132D01*
X8568850Y10884520D01*
X8546671Y10874030D01*
X8523572Y10865765D01*
X8499773Y10859804D01*
X8475505Y10856204D01*
X8451001Y10855000D01*
X7550999Y10855000D01*
X7526495Y10856204D01*
X7502227Y10859804D01*
X7478428Y10865765D01*
X7455329Y10874030D01*
X7433150Y10884520D01*
X7412107Y10897132D01*
X7392401Y10911747D01*
X7374223Y10928223D01*
X7357747Y10946401D01*
X7343132Y10966107D01*
X7330520Y10987150D01*
X7320030Y11009329D01*
X7311765Y11032428D01*
X7305804Y11056227D01*
X7302204Y11080495D01*
X7301000Y11104999D01*
X7301000Y11755001D01*
X7302204Y11779505D01*
X7305804Y11803773D01*
X7311765Y11827572D01*
X7320030Y11850671D01*
X7330520Y11872850D01*
X7343132Y11893893D01*
X7357747Y11913599D01*
X7374223Y11931777D01*
X7392401Y11948253D01*
X7412107Y11962868D01*
X7433150Y11975480D01*
X7455329Y11985970D01*
X7478428Y11994235D01*
X7502227Y12000196D01*
X7526495Y12003796D01*
X7550999Y12005000D01*
X8451001Y12005000D01*
X8475505Y12003796D01*
X8475505Y12003796D01*
G37*
D13*
X8001000Y11430000D03*
D12*
G36*
X42504505Y5143796D02*
G01*
X42528773Y5140196D01*
X42552572Y5134235D01*
X42575671Y5125970D01*
X42597850Y5115480D01*
X42618893Y5102868D01*
X42638599Y5088253D01*
X42656777Y5071777D01*
X42673253Y5053599D01*
X42687868Y5033893D01*
X42700480Y5012850D01*
X42710970Y4990671D01*
X42719235Y4967572D01*
X42725196Y4943773D01*
X42728796Y4919505D01*
X42730000Y4895001D01*
X42730000Y3994999D01*
X42728796Y3970495D01*
X42725196Y3946227D01*
X42719235Y3922428D01*
X42710970Y3899329D01*
X42700480Y3877150D01*
X42687868Y3856107D01*
X42673253Y3836401D01*
X42656777Y3818223D01*
X42638599Y3801747D01*
X42618893Y3787132D01*
X42597850Y3774520D01*
X42575671Y3764030D01*
X42552572Y3755765D01*
X42528773Y3749804D01*
X42504505Y3746204D01*
X42480001Y3745000D01*
X41829999Y3745000D01*
X41805495Y3746204D01*
X41781227Y3749804D01*
X41757428Y3755765D01*
X41734329Y3764030D01*
X41712150Y3774520D01*
X41691107Y3787132D01*
X41671401Y3801747D01*
X41653223Y3818223D01*
X41636747Y3836401D01*
X41622132Y3856107D01*
X41609520Y3877150D01*
X41599030Y3899329D01*
X41590765Y3922428D01*
X41584804Y3946227D01*
X41581204Y3970495D01*
X41580000Y3994999D01*
X41580000Y4895001D01*
X41581204Y4919505D01*
X41584804Y4943773D01*
X41590765Y4967572D01*
X41599030Y4990671D01*
X41609520Y5012850D01*
X41622132Y5033893D01*
X41636747Y5053599D01*
X41653223Y5071777D01*
X41671401Y5088253D01*
X41691107Y5102868D01*
X41712150Y5115480D01*
X41734329Y5125970D01*
X41757428Y5134235D01*
X41781227Y5140196D01*
X41805495Y5143796D01*
X41829999Y5145000D01*
X42480001Y5145000D01*
X42504505Y5143796D01*
X42504505Y5143796D01*
G37*
D13*
X42155000Y4445000D03*
D12*
G36*
X44554505Y5143796D02*
G01*
X44578773Y5140196D01*
X44602572Y5134235D01*
X44625671Y5125970D01*
X44647850Y5115480D01*
X44668893Y5102868D01*
X44688599Y5088253D01*
X44706777Y5071777D01*
X44723253Y5053599D01*
X44737868Y5033893D01*
X44750480Y5012850D01*
X44760970Y4990671D01*
X44769235Y4967572D01*
X44775196Y4943773D01*
X44778796Y4919505D01*
X44780000Y4895001D01*
X44780000Y3994999D01*
X44778796Y3970495D01*
X44775196Y3946227D01*
X44769235Y3922428D01*
X44760970Y3899329D01*
X44750480Y3877150D01*
X44737868Y3856107D01*
X44723253Y3836401D01*
X44706777Y3818223D01*
X44688599Y3801747D01*
X44668893Y3787132D01*
X44647850Y3774520D01*
X44625671Y3764030D01*
X44602572Y3755765D01*
X44578773Y3749804D01*
X44554505Y3746204D01*
X44530001Y3745000D01*
X43879999Y3745000D01*
X43855495Y3746204D01*
X43831227Y3749804D01*
X43807428Y3755765D01*
X43784329Y3764030D01*
X43762150Y3774520D01*
X43741107Y3787132D01*
X43721401Y3801747D01*
X43703223Y3818223D01*
X43686747Y3836401D01*
X43672132Y3856107D01*
X43659520Y3877150D01*
X43649030Y3899329D01*
X43640765Y3922428D01*
X43634804Y3946227D01*
X43631204Y3970495D01*
X43630000Y3994999D01*
X43630000Y4895001D01*
X43631204Y4919505D01*
X43634804Y4943773D01*
X43640765Y4967572D01*
X43649030Y4990671D01*
X43659520Y5012850D01*
X43672132Y5033893D01*
X43686747Y5053599D01*
X43703223Y5071777D01*
X43721401Y5088253D01*
X43741107Y5102868D01*
X43762150Y5115480D01*
X43784329Y5125970D01*
X43807428Y5134235D01*
X43831227Y5140196D01*
X43855495Y5143796D01*
X43879999Y5145000D01*
X44530001Y5145000D01*
X44554505Y5143796D01*
X44554505Y5143796D01*
G37*
D13*
X44205000Y4445000D03*
D12*
G36*
X25239505Y59873796D02*
G01*
X25263773Y59870196D01*
X25287572Y59864235D01*
X25310671Y59855970D01*
X25332850Y59845480D01*
X25353893Y59832868D01*
X25373599Y59818253D01*
X25391777Y59801777D01*
X25408253Y59783599D01*
X25422868Y59763893D01*
X25435480Y59742850D01*
X25445970Y59720671D01*
X25454235Y59697572D01*
X25460196Y59673773D01*
X25463796Y59649505D01*
X25465000Y59625001D01*
X25465000Y58974999D01*
X25463796Y58950495D01*
X25460196Y58926227D01*
X25454235Y58902428D01*
X25445970Y58879329D01*
X25435480Y58857150D01*
X25422868Y58836107D01*
X25408253Y58816401D01*
X25391777Y58798223D01*
X25373599Y58781747D01*
X25353893Y58767132D01*
X25332850Y58754520D01*
X25310671Y58744030D01*
X25287572Y58735765D01*
X25263773Y58729804D01*
X25239505Y58726204D01*
X25215001Y58725000D01*
X24314999Y58725000D01*
X24290495Y58726204D01*
X24266227Y58729804D01*
X24242428Y58735765D01*
X24219329Y58744030D01*
X24197150Y58754520D01*
X24176107Y58767132D01*
X24156401Y58781747D01*
X24138223Y58798223D01*
X24121747Y58816401D01*
X24107132Y58836107D01*
X24094520Y58857150D01*
X24084030Y58879329D01*
X24075765Y58902428D01*
X24069804Y58926227D01*
X24066204Y58950495D01*
X24065000Y58974999D01*
X24065000Y59625001D01*
X24066204Y59649505D01*
X24069804Y59673773D01*
X24075765Y59697572D01*
X24084030Y59720671D01*
X24094520Y59742850D01*
X24107132Y59763893D01*
X24121747Y59783599D01*
X24138223Y59801777D01*
X24156401Y59818253D01*
X24176107Y59832868D01*
X24197150Y59845480D01*
X24219329Y59855970D01*
X24242428Y59864235D01*
X24266227Y59870196D01*
X24290495Y59873796D01*
X24314999Y59875000D01*
X25215001Y59875000D01*
X25239505Y59873796D01*
X25239505Y59873796D01*
G37*
D13*
X24765000Y59300000D03*
D12*
G36*
X25239505Y61923796D02*
G01*
X25263773Y61920196D01*
X25287572Y61914235D01*
X25310671Y61905970D01*
X25332850Y61895480D01*
X25353893Y61882868D01*
X25373599Y61868253D01*
X25391777Y61851777D01*
X25408253Y61833599D01*
X25422868Y61813893D01*
X25435480Y61792850D01*
X25445970Y61770671D01*
X25454235Y61747572D01*
X25460196Y61723773D01*
X25463796Y61699505D01*
X25465000Y61675001D01*
X25465000Y61024999D01*
X25463796Y61000495D01*
X25460196Y60976227D01*
X25454235Y60952428D01*
X25445970Y60929329D01*
X25435480Y60907150D01*
X25422868Y60886107D01*
X25408253Y60866401D01*
X25391777Y60848223D01*
X25373599Y60831747D01*
X25353893Y60817132D01*
X25332850Y60804520D01*
X25310671Y60794030D01*
X25287572Y60785765D01*
X25263773Y60779804D01*
X25239505Y60776204D01*
X25215001Y60775000D01*
X24314999Y60775000D01*
X24290495Y60776204D01*
X24266227Y60779804D01*
X24242428Y60785765D01*
X24219329Y60794030D01*
X24197150Y60804520D01*
X24176107Y60817132D01*
X24156401Y60831747D01*
X24138223Y60848223D01*
X24121747Y60866401D01*
X24107132Y60886107D01*
X24094520Y60907150D01*
X24084030Y60929329D01*
X24075765Y60952428D01*
X24069804Y60976227D01*
X24066204Y61000495D01*
X24065000Y61024999D01*
X24065000Y61675001D01*
X24066204Y61699505D01*
X24069804Y61723773D01*
X24075765Y61747572D01*
X24084030Y61770671D01*
X24094520Y61792850D01*
X24107132Y61813893D01*
X24121747Y61833599D01*
X24138223Y61851777D01*
X24156401Y61868253D01*
X24176107Y61882868D01*
X24197150Y61895480D01*
X24219329Y61905970D01*
X24242428Y61914235D01*
X24266227Y61920196D01*
X24290495Y61923796D01*
X24314999Y61925000D01*
X25215001Y61925000D01*
X25239505Y61923796D01*
X25239505Y61923796D01*
G37*
D13*
X24765000Y61350000D03*
D12*
G36*
X24334505Y4508796D02*
G01*
X24358773Y4505196D01*
X24382572Y4499235D01*
X24405671Y4490970D01*
X24427850Y4480480D01*
X24448893Y4467868D01*
X24468599Y4453253D01*
X24486777Y4436777D01*
X24503253Y4418599D01*
X24517868Y4398893D01*
X24530480Y4377850D01*
X24540970Y4355671D01*
X24549235Y4332572D01*
X24555196Y4308773D01*
X24558796Y4284505D01*
X24560000Y4260001D01*
X24560000Y3359999D01*
X24558796Y3335495D01*
X24555196Y3311227D01*
X24549235Y3287428D01*
X24540970Y3264329D01*
X24530480Y3242150D01*
X24517868Y3221107D01*
X24503253Y3201401D01*
X24486777Y3183223D01*
X24468599Y3166747D01*
X24448893Y3152132D01*
X24427850Y3139520D01*
X24405671Y3129030D01*
X24382572Y3120765D01*
X24358773Y3114804D01*
X24334505Y3111204D01*
X24310001Y3110000D01*
X23659999Y3110000D01*
X23635495Y3111204D01*
X23611227Y3114804D01*
X23587428Y3120765D01*
X23564329Y3129030D01*
X23542150Y3139520D01*
X23521107Y3152132D01*
X23501401Y3166747D01*
X23483223Y3183223D01*
X23466747Y3201401D01*
X23452132Y3221107D01*
X23439520Y3242150D01*
X23429030Y3264329D01*
X23420765Y3287428D01*
X23414804Y3311227D01*
X23411204Y3335495D01*
X23410000Y3359999D01*
X23410000Y4260001D01*
X23411204Y4284505D01*
X23414804Y4308773D01*
X23420765Y4332572D01*
X23429030Y4355671D01*
X23439520Y4377850D01*
X23452132Y4398893D01*
X23466747Y4418599D01*
X23483223Y4436777D01*
X23501401Y4453253D01*
X23521107Y4467868D01*
X23542150Y4480480D01*
X23564329Y4490970D01*
X23587428Y4499235D01*
X23611227Y4505196D01*
X23635495Y4508796D01*
X23659999Y4510000D01*
X24310001Y4510000D01*
X24334505Y4508796D01*
X24334505Y4508796D01*
G37*
D13*
X23985000Y3810000D03*
D12*
G36*
X26384505Y4508796D02*
G01*
X26408773Y4505196D01*
X26432572Y4499235D01*
X26455671Y4490970D01*
X26477850Y4480480D01*
X26498893Y4467868D01*
X26518599Y4453253D01*
X26536777Y4436777D01*
X26553253Y4418599D01*
X26567868Y4398893D01*
X26580480Y4377850D01*
X26590970Y4355671D01*
X26599235Y4332572D01*
X26605196Y4308773D01*
X26608796Y4284505D01*
X26610000Y4260001D01*
X26610000Y3359999D01*
X26608796Y3335495D01*
X26605196Y3311227D01*
X26599235Y3287428D01*
X26590970Y3264329D01*
X26580480Y3242150D01*
X26567868Y3221107D01*
X26553253Y3201401D01*
X26536777Y3183223D01*
X26518599Y3166747D01*
X26498893Y3152132D01*
X26477850Y3139520D01*
X26455671Y3129030D01*
X26432572Y3120765D01*
X26408773Y3114804D01*
X26384505Y3111204D01*
X26360001Y3110000D01*
X25709999Y3110000D01*
X25685495Y3111204D01*
X25661227Y3114804D01*
X25637428Y3120765D01*
X25614329Y3129030D01*
X25592150Y3139520D01*
X25571107Y3152132D01*
X25551401Y3166747D01*
X25533223Y3183223D01*
X25516747Y3201401D01*
X25502132Y3221107D01*
X25489520Y3242150D01*
X25479030Y3264329D01*
X25470765Y3287428D01*
X25464804Y3311227D01*
X25461204Y3335495D01*
X25460000Y3359999D01*
X25460000Y4260001D01*
X25461204Y4284505D01*
X25464804Y4308773D01*
X25470765Y4332572D01*
X25479030Y4355671D01*
X25489520Y4377850D01*
X25502132Y4398893D01*
X25516747Y4418599D01*
X25533223Y4436777D01*
X25551401Y4453253D01*
X25571107Y4467868D01*
X25592150Y4480480D01*
X25614329Y4490970D01*
X25637428Y4499235D01*
X25661227Y4505196D01*
X25685495Y4508796D01*
X25709999Y4510000D01*
X26360001Y4510000D01*
X26384505Y4508796D01*
X26384505Y4508796D01*
G37*
D13*
X26035000Y3810000D03*
D12*
G36*
X41114505Y59238796D02*
G01*
X41138773Y59235196D01*
X41162572Y59229235D01*
X41185671Y59220970D01*
X41207850Y59210480D01*
X41228893Y59197868D01*
X41248599Y59183253D01*
X41266777Y59166777D01*
X41283253Y59148599D01*
X41297868Y59128893D01*
X41310480Y59107850D01*
X41320970Y59085671D01*
X41329235Y59062572D01*
X41335196Y59038773D01*
X41338796Y59014505D01*
X41340000Y58990001D01*
X41340000Y58339999D01*
X41338796Y58315495D01*
X41335196Y58291227D01*
X41329235Y58267428D01*
X41320970Y58244329D01*
X41310480Y58222150D01*
X41297868Y58201107D01*
X41283253Y58181401D01*
X41266777Y58163223D01*
X41248599Y58146747D01*
X41228893Y58132132D01*
X41207850Y58119520D01*
X41185671Y58109030D01*
X41162572Y58100765D01*
X41138773Y58094804D01*
X41114505Y58091204D01*
X41090001Y58090000D01*
X40189999Y58090000D01*
X40165495Y58091204D01*
X40141227Y58094804D01*
X40117428Y58100765D01*
X40094329Y58109030D01*
X40072150Y58119520D01*
X40051107Y58132132D01*
X40031401Y58146747D01*
X40013223Y58163223D01*
X39996747Y58181401D01*
X39982132Y58201107D01*
X39969520Y58222150D01*
X39959030Y58244329D01*
X39950765Y58267428D01*
X39944804Y58291227D01*
X39941204Y58315495D01*
X39940000Y58339999D01*
X39940000Y58990001D01*
X39941204Y59014505D01*
X39944804Y59038773D01*
X39950765Y59062572D01*
X39959030Y59085671D01*
X39969520Y59107850D01*
X39982132Y59128893D01*
X39996747Y59148599D01*
X40013223Y59166777D01*
X40031401Y59183253D01*
X40051107Y59197868D01*
X40072150Y59210480D01*
X40094329Y59220970D01*
X40117428Y59229235D01*
X40141227Y59235196D01*
X40165495Y59238796D01*
X40189999Y59240000D01*
X41090001Y59240000D01*
X41114505Y59238796D01*
X41114505Y59238796D01*
G37*
D13*
X40640000Y58665000D03*
D12*
G36*
X41114505Y61288796D02*
G01*
X41138773Y61285196D01*
X41162572Y61279235D01*
X41185671Y61270970D01*
X41207850Y61260480D01*
X41228893Y61247868D01*
X41248599Y61233253D01*
X41266777Y61216777D01*
X41283253Y61198599D01*
X41297868Y61178893D01*
X41310480Y61157850D01*
X41320970Y61135671D01*
X41329235Y61112572D01*
X41335196Y61088773D01*
X41338796Y61064505D01*
X41340000Y61040001D01*
X41340000Y60389999D01*
X41338796Y60365495D01*
X41335196Y60341227D01*
X41329235Y60317428D01*
X41320970Y60294329D01*
X41310480Y60272150D01*
X41297868Y60251107D01*
X41283253Y60231401D01*
X41266777Y60213223D01*
X41248599Y60196747D01*
X41228893Y60182132D01*
X41207850Y60169520D01*
X41185671Y60159030D01*
X41162572Y60150765D01*
X41138773Y60144804D01*
X41114505Y60141204D01*
X41090001Y60140000D01*
X40189999Y60140000D01*
X40165495Y60141204D01*
X40141227Y60144804D01*
X40117428Y60150765D01*
X40094329Y60159030D01*
X40072150Y60169520D01*
X40051107Y60182132D01*
X40031401Y60196747D01*
X40013223Y60213223D01*
X39996747Y60231401D01*
X39982132Y60251107D01*
X39969520Y60272150D01*
X39959030Y60294329D01*
X39950765Y60317428D01*
X39944804Y60341227D01*
X39941204Y60365495D01*
X39940000Y60389999D01*
X39940000Y61040001D01*
X39941204Y61064505D01*
X39944804Y61088773D01*
X39950765Y61112572D01*
X39959030Y61135671D01*
X39969520Y61157850D01*
X39982132Y61178893D01*
X39996747Y61198599D01*
X40013223Y61216777D01*
X40031401Y61233253D01*
X40051107Y61247868D01*
X40072150Y61260480D01*
X40094329Y61270970D01*
X40117428Y61279235D01*
X40141227Y61285196D01*
X40165495Y61288796D01*
X40189999Y61290000D01*
X41090001Y61290000D01*
X41114505Y61288796D01*
X41114505Y61288796D01*
G37*
D13*
X40640000Y60715000D03*
D12*
G36*
X41114505Y45168796D02*
G01*
X41138773Y45165196D01*
X41162572Y45159235D01*
X41185671Y45150970D01*
X41207850Y45140480D01*
X41228893Y45127868D01*
X41248599Y45113253D01*
X41266777Y45096777D01*
X41283253Y45078599D01*
X41297868Y45058893D01*
X41310480Y45037850D01*
X41320970Y45015671D01*
X41329235Y44992572D01*
X41335196Y44968773D01*
X41338796Y44944505D01*
X41340000Y44920001D01*
X41340000Y44269999D01*
X41338796Y44245495D01*
X41335196Y44221227D01*
X41329235Y44197428D01*
X41320970Y44174329D01*
X41310480Y44152150D01*
X41297868Y44131107D01*
X41283253Y44111401D01*
X41266777Y44093223D01*
X41248599Y44076747D01*
X41228893Y44062132D01*
X41207850Y44049520D01*
X41185671Y44039030D01*
X41162572Y44030765D01*
X41138773Y44024804D01*
X41114505Y44021204D01*
X41090001Y44020000D01*
X40189999Y44020000D01*
X40165495Y44021204D01*
X40141227Y44024804D01*
X40117428Y44030765D01*
X40094329Y44039030D01*
X40072150Y44049520D01*
X40051107Y44062132D01*
X40031401Y44076747D01*
X40013223Y44093223D01*
X39996747Y44111401D01*
X39982132Y44131107D01*
X39969520Y44152150D01*
X39959030Y44174329D01*
X39950765Y44197428D01*
X39944804Y44221227D01*
X39941204Y44245495D01*
X39940000Y44269999D01*
X39940000Y44920001D01*
X39941204Y44944505D01*
X39944804Y44968773D01*
X39950765Y44992572D01*
X39959030Y45015671D01*
X39969520Y45037850D01*
X39982132Y45058893D01*
X39996747Y45078599D01*
X40013223Y45096777D01*
X40031401Y45113253D01*
X40051107Y45127868D01*
X40072150Y45140480D01*
X40094329Y45150970D01*
X40117428Y45159235D01*
X40141227Y45165196D01*
X40165495Y45168796D01*
X40189999Y45170000D01*
X41090001Y45170000D01*
X41114505Y45168796D01*
X41114505Y45168796D01*
G37*
D13*
X40640000Y44595000D03*
D12*
G36*
X41114505Y43118796D02*
G01*
X41138773Y43115196D01*
X41162572Y43109235D01*
X41185671Y43100970D01*
X41207850Y43090480D01*
X41228893Y43077868D01*
X41248599Y43063253D01*
X41266777Y43046777D01*
X41283253Y43028599D01*
X41297868Y43008893D01*
X41310480Y42987850D01*
X41320970Y42965671D01*
X41329235Y42942572D01*
X41335196Y42918773D01*
X41338796Y42894505D01*
X41340000Y42870001D01*
X41340000Y42219999D01*
X41338796Y42195495D01*
X41335196Y42171227D01*
X41329235Y42147428D01*
X41320970Y42124329D01*
X41310480Y42102150D01*
X41297868Y42081107D01*
X41283253Y42061401D01*
X41266777Y42043223D01*
X41248599Y42026747D01*
X41228893Y42012132D01*
X41207850Y41999520D01*
X41185671Y41989030D01*
X41162572Y41980765D01*
X41138773Y41974804D01*
X41114505Y41971204D01*
X41090001Y41970000D01*
X40189999Y41970000D01*
X40165495Y41971204D01*
X40141227Y41974804D01*
X40117428Y41980765D01*
X40094329Y41989030D01*
X40072150Y41999520D01*
X40051107Y42012132D01*
X40031401Y42026747D01*
X40013223Y42043223D01*
X39996747Y42061401D01*
X39982132Y42081107D01*
X39969520Y42102150D01*
X39959030Y42124329D01*
X39950765Y42147428D01*
X39944804Y42171227D01*
X39941204Y42195495D01*
X39940000Y42219999D01*
X39940000Y42870001D01*
X39941204Y42894505D01*
X39944804Y42918773D01*
X39950765Y42942572D01*
X39959030Y42965671D01*
X39969520Y42987850D01*
X39982132Y43008893D01*
X39996747Y43028599D01*
X40013223Y43046777D01*
X40031401Y43063253D01*
X40051107Y43077868D01*
X40072150Y43090480D01*
X40094329Y43100970D01*
X40117428Y43109235D01*
X40141227Y43115196D01*
X40165495Y43118796D01*
X40189999Y43120000D01*
X41090001Y43120000D01*
X41114505Y43118796D01*
X41114505Y43118796D01*
G37*
D13*
X40640000Y42545000D03*
D12*
G36*
X10634505Y9953796D02*
G01*
X10658773Y9950196D01*
X10682572Y9944235D01*
X10705671Y9935970D01*
X10727850Y9925480D01*
X10748893Y9912868D01*
X10768599Y9898253D01*
X10786777Y9881777D01*
X10803253Y9863599D01*
X10817868Y9843893D01*
X10830480Y9822850D01*
X10840970Y9800671D01*
X10849235Y9777572D01*
X10855196Y9753773D01*
X10858796Y9729505D01*
X10860000Y9705001D01*
X10860000Y9054999D01*
X10858796Y9030495D01*
X10855196Y9006227D01*
X10849235Y8982428D01*
X10840970Y8959329D01*
X10830480Y8937150D01*
X10817868Y8916107D01*
X10803253Y8896401D01*
X10786777Y8878223D01*
X10768599Y8861747D01*
X10748893Y8847132D01*
X10727850Y8834520D01*
X10705671Y8824030D01*
X10682572Y8815765D01*
X10658773Y8809804D01*
X10634505Y8806204D01*
X10610001Y8805000D01*
X9709999Y8805000D01*
X9685495Y8806204D01*
X9661227Y8809804D01*
X9637428Y8815765D01*
X9614329Y8824030D01*
X9592150Y8834520D01*
X9571107Y8847132D01*
X9551401Y8861747D01*
X9533223Y8878223D01*
X9516747Y8896401D01*
X9502132Y8916107D01*
X9489520Y8937150D01*
X9479030Y8959329D01*
X9470765Y8982428D01*
X9464804Y9006227D01*
X9461204Y9030495D01*
X9460000Y9054999D01*
X9460000Y9705001D01*
X9461204Y9729505D01*
X9464804Y9753773D01*
X9470765Y9777572D01*
X9479030Y9800671D01*
X9489520Y9822850D01*
X9502132Y9843893D01*
X9516747Y9863599D01*
X9533223Y9881777D01*
X9551401Y9898253D01*
X9571107Y9912868D01*
X9592150Y9925480D01*
X9614329Y9935970D01*
X9637428Y9944235D01*
X9661227Y9950196D01*
X9685495Y9953796D01*
X9709999Y9955000D01*
X10610001Y9955000D01*
X10634505Y9953796D01*
X10634505Y9953796D01*
G37*
D13*
X10160000Y9380000D03*
D12*
G36*
X10634505Y12003796D02*
G01*
X10658773Y12000196D01*
X10682572Y11994235D01*
X10705671Y11985970D01*
X10727850Y11975480D01*
X10748893Y11962868D01*
X10768599Y11948253D01*
X10786777Y11931777D01*
X10803253Y11913599D01*
X10817868Y11893893D01*
X10830480Y11872850D01*
X10840970Y11850671D01*
X10849235Y11827572D01*
X10855196Y11803773D01*
X10858796Y11779505D01*
X10860000Y11755001D01*
X10860000Y11104999D01*
X10858796Y11080495D01*
X10855196Y11056227D01*
X10849235Y11032428D01*
X10840970Y11009329D01*
X10830480Y10987150D01*
X10817868Y10966107D01*
X10803253Y10946401D01*
X10786777Y10928223D01*
X10768599Y10911747D01*
X10748893Y10897132D01*
X10727850Y10884520D01*
X10705671Y10874030D01*
X10682572Y10865765D01*
X10658773Y10859804D01*
X10634505Y10856204D01*
X10610001Y10855000D01*
X9709999Y10855000D01*
X9685495Y10856204D01*
X9661227Y10859804D01*
X9637428Y10865765D01*
X9614329Y10874030D01*
X9592150Y10884520D01*
X9571107Y10897132D01*
X9551401Y10911747D01*
X9533223Y10928223D01*
X9516747Y10946401D01*
X9502132Y10966107D01*
X9489520Y10987150D01*
X9479030Y11009329D01*
X9470765Y11032428D01*
X9464804Y11056227D01*
X9461204Y11080495D01*
X9460000Y11104999D01*
X9460000Y11755001D01*
X9461204Y11779505D01*
X9464804Y11803773D01*
X9470765Y11827572D01*
X9479030Y11850671D01*
X9489520Y11872850D01*
X9502132Y11893893D01*
X9516747Y11913599D01*
X9533223Y11931777D01*
X9551401Y11948253D01*
X9571107Y11962868D01*
X9592150Y11975480D01*
X9614329Y11985970D01*
X9637428Y11994235D01*
X9661227Y12000196D01*
X9685495Y12003796D01*
X9709999Y12005000D01*
X10610001Y12005000D01*
X10634505Y12003796D01*
X10634505Y12003796D01*
G37*
D13*
X10160000Y11430000D03*
D12*
G36*
X10634505Y28368796D02*
G01*
X10658773Y28365196D01*
X10682572Y28359235D01*
X10705671Y28350970D01*
X10727850Y28340480D01*
X10748893Y28327868D01*
X10768599Y28313253D01*
X10786777Y28296777D01*
X10803253Y28278599D01*
X10817868Y28258893D01*
X10830480Y28237850D01*
X10840970Y28215671D01*
X10849235Y28192572D01*
X10855196Y28168773D01*
X10858796Y28144505D01*
X10860000Y28120001D01*
X10860000Y27469999D01*
X10858796Y27445495D01*
X10855196Y27421227D01*
X10849235Y27397428D01*
X10840970Y27374329D01*
X10830480Y27352150D01*
X10817868Y27331107D01*
X10803253Y27311401D01*
X10786777Y27293223D01*
X10768599Y27276747D01*
X10748893Y27262132D01*
X10727850Y27249520D01*
X10705671Y27239030D01*
X10682572Y27230765D01*
X10658773Y27224804D01*
X10634505Y27221204D01*
X10610001Y27220000D01*
X9709999Y27220000D01*
X9685495Y27221204D01*
X9661227Y27224804D01*
X9637428Y27230765D01*
X9614329Y27239030D01*
X9592150Y27249520D01*
X9571107Y27262132D01*
X9551401Y27276747D01*
X9533223Y27293223D01*
X9516747Y27311401D01*
X9502132Y27331107D01*
X9489520Y27352150D01*
X9479030Y27374329D01*
X9470765Y27397428D01*
X9464804Y27421227D01*
X9461204Y27445495D01*
X9460000Y27469999D01*
X9460000Y28120001D01*
X9461204Y28144505D01*
X9464804Y28168773D01*
X9470765Y28192572D01*
X9479030Y28215671D01*
X9489520Y28237850D01*
X9502132Y28258893D01*
X9516747Y28278599D01*
X9533223Y28296777D01*
X9551401Y28313253D01*
X9571107Y28327868D01*
X9592150Y28340480D01*
X9614329Y28350970D01*
X9637428Y28359235D01*
X9661227Y28365196D01*
X9685495Y28368796D01*
X9709999Y28370000D01*
X10610001Y28370000D01*
X10634505Y28368796D01*
X10634505Y28368796D01*
G37*
D13*
X10160000Y27795000D03*
D12*
G36*
X10634505Y30418796D02*
G01*
X10658773Y30415196D01*
X10682572Y30409235D01*
X10705671Y30400970D01*
X10727850Y30390480D01*
X10748893Y30377868D01*
X10768599Y30363253D01*
X10786777Y30346777D01*
X10803253Y30328599D01*
X10817868Y30308893D01*
X10830480Y30287850D01*
X10840970Y30265671D01*
X10849235Y30242572D01*
X10855196Y30218773D01*
X10858796Y30194505D01*
X10860000Y30170001D01*
X10860000Y29519999D01*
X10858796Y29495495D01*
X10855196Y29471227D01*
X10849235Y29447428D01*
X10840970Y29424329D01*
X10830480Y29402150D01*
X10817868Y29381107D01*
X10803253Y29361401D01*
X10786777Y29343223D01*
X10768599Y29326747D01*
X10748893Y29312132D01*
X10727850Y29299520D01*
X10705671Y29289030D01*
X10682572Y29280765D01*
X10658773Y29274804D01*
X10634505Y29271204D01*
X10610001Y29270000D01*
X9709999Y29270000D01*
X9685495Y29271204D01*
X9661227Y29274804D01*
X9637428Y29280765D01*
X9614329Y29289030D01*
X9592150Y29299520D01*
X9571107Y29312132D01*
X9551401Y29326747D01*
X9533223Y29343223D01*
X9516747Y29361401D01*
X9502132Y29381107D01*
X9489520Y29402150D01*
X9479030Y29424329D01*
X9470765Y29447428D01*
X9464804Y29471227D01*
X9461204Y29495495D01*
X9460000Y29519999D01*
X9460000Y30170001D01*
X9461204Y30194505D01*
X9464804Y30218773D01*
X9470765Y30242572D01*
X9479030Y30265671D01*
X9489520Y30287850D01*
X9502132Y30308893D01*
X9516747Y30328599D01*
X9533223Y30346777D01*
X9551401Y30363253D01*
X9571107Y30377868D01*
X9592150Y30390480D01*
X9614329Y30400970D01*
X9637428Y30409235D01*
X9661227Y30415196D01*
X9685495Y30418796D01*
X9709999Y30420000D01*
X10610001Y30420000D01*
X10634505Y30418796D01*
X10634505Y30418796D01*
G37*
D13*
X10160000Y29845000D03*
D12*
G36*
X10634505Y50493796D02*
G01*
X10658773Y50490196D01*
X10682572Y50484235D01*
X10705671Y50475970D01*
X10727850Y50465480D01*
X10748893Y50452868D01*
X10768599Y50438253D01*
X10786777Y50421777D01*
X10803253Y50403599D01*
X10817868Y50383893D01*
X10830480Y50362850D01*
X10840970Y50340671D01*
X10849235Y50317572D01*
X10855196Y50293773D01*
X10858796Y50269505D01*
X10860000Y50245001D01*
X10860000Y49594999D01*
X10858796Y49570495D01*
X10855196Y49546227D01*
X10849235Y49522428D01*
X10840970Y49499329D01*
X10830480Y49477150D01*
X10817868Y49456107D01*
X10803253Y49436401D01*
X10786777Y49418223D01*
X10768599Y49401747D01*
X10748893Y49387132D01*
X10727850Y49374520D01*
X10705671Y49364030D01*
X10682572Y49355765D01*
X10658773Y49349804D01*
X10634505Y49346204D01*
X10610001Y49345000D01*
X9709999Y49345000D01*
X9685495Y49346204D01*
X9661227Y49349804D01*
X9637428Y49355765D01*
X9614329Y49364030D01*
X9592150Y49374520D01*
X9571107Y49387132D01*
X9551401Y49401747D01*
X9533223Y49418223D01*
X9516747Y49436401D01*
X9502132Y49456107D01*
X9489520Y49477150D01*
X9479030Y49499329D01*
X9470765Y49522428D01*
X9464804Y49546227D01*
X9461204Y49570495D01*
X9460000Y49594999D01*
X9460000Y50245001D01*
X9461204Y50269505D01*
X9464804Y50293773D01*
X9470765Y50317572D01*
X9479030Y50340671D01*
X9489520Y50362850D01*
X9502132Y50383893D01*
X9516747Y50403599D01*
X9533223Y50421777D01*
X9551401Y50438253D01*
X9571107Y50452868D01*
X9592150Y50465480D01*
X9614329Y50475970D01*
X9637428Y50484235D01*
X9661227Y50490196D01*
X9685495Y50493796D01*
X9709999Y50495000D01*
X10610001Y50495000D01*
X10634505Y50493796D01*
X10634505Y50493796D01*
G37*
D13*
X10160000Y49920000D03*
D12*
G36*
X10634505Y48443796D02*
G01*
X10658773Y48440196D01*
X10682572Y48434235D01*
X10705671Y48425970D01*
X10727850Y48415480D01*
X10748893Y48402868D01*
X10768599Y48388253D01*
X10786777Y48371777D01*
X10803253Y48353599D01*
X10817868Y48333893D01*
X10830480Y48312850D01*
X10840970Y48290671D01*
X10849235Y48267572D01*
X10855196Y48243773D01*
X10858796Y48219505D01*
X10860000Y48195001D01*
X10860000Y47544999D01*
X10858796Y47520495D01*
X10855196Y47496227D01*
X10849235Y47472428D01*
X10840970Y47449329D01*
X10830480Y47427150D01*
X10817868Y47406107D01*
X10803253Y47386401D01*
X10786777Y47368223D01*
X10768599Y47351747D01*
X10748893Y47337132D01*
X10727850Y47324520D01*
X10705671Y47314030D01*
X10682572Y47305765D01*
X10658773Y47299804D01*
X10634505Y47296204D01*
X10610001Y47295000D01*
X9709999Y47295000D01*
X9685495Y47296204D01*
X9661227Y47299804D01*
X9637428Y47305765D01*
X9614329Y47314030D01*
X9592150Y47324520D01*
X9571107Y47337132D01*
X9551401Y47351747D01*
X9533223Y47368223D01*
X9516747Y47386401D01*
X9502132Y47406107D01*
X9489520Y47427150D01*
X9479030Y47449329D01*
X9470765Y47472428D01*
X9464804Y47496227D01*
X9461204Y47520495D01*
X9460000Y47544999D01*
X9460000Y48195001D01*
X9461204Y48219505D01*
X9464804Y48243773D01*
X9470765Y48267572D01*
X9479030Y48290671D01*
X9489520Y48312850D01*
X9502132Y48333893D01*
X9516747Y48353599D01*
X9533223Y48371777D01*
X9551401Y48388253D01*
X9571107Y48402868D01*
X9592150Y48415480D01*
X9614329Y48425970D01*
X9637428Y48434235D01*
X9661227Y48440196D01*
X9685495Y48443796D01*
X9709999Y48445000D01*
X10610001Y48445000D01*
X10634505Y48443796D01*
X10634505Y48443796D01*
G37*
D13*
X10160000Y47870000D03*
D12*
G36*
X27144505Y13418796D02*
G01*
X27168773Y13415196D01*
X27192572Y13409235D01*
X27215671Y13400970D01*
X27237850Y13390480D01*
X27258893Y13377868D01*
X27278599Y13363253D01*
X27296777Y13346777D01*
X27313253Y13328599D01*
X27327868Y13308893D01*
X27340480Y13287850D01*
X27350970Y13265671D01*
X27359235Y13242572D01*
X27365196Y13218773D01*
X27368796Y13194505D01*
X27370000Y13170001D01*
X27370000Y12519999D01*
X27368796Y12495495D01*
X27365196Y12471227D01*
X27359235Y12447428D01*
X27350970Y12424329D01*
X27340480Y12402150D01*
X27327868Y12381107D01*
X27313253Y12361401D01*
X27296777Y12343223D01*
X27278599Y12326747D01*
X27258893Y12312132D01*
X27237850Y12299520D01*
X27215671Y12289030D01*
X27192572Y12280765D01*
X27168773Y12274804D01*
X27144505Y12271204D01*
X27120001Y12270000D01*
X26219999Y12270000D01*
X26195495Y12271204D01*
X26171227Y12274804D01*
X26147428Y12280765D01*
X26124329Y12289030D01*
X26102150Y12299520D01*
X26081107Y12312132D01*
X26061401Y12326747D01*
X26043223Y12343223D01*
X26026747Y12361401D01*
X26012132Y12381107D01*
X25999520Y12402150D01*
X25989030Y12424329D01*
X25980765Y12447428D01*
X25974804Y12471227D01*
X25971204Y12495495D01*
X25970000Y12519999D01*
X25970000Y13170001D01*
X25971204Y13194505D01*
X25974804Y13218773D01*
X25980765Y13242572D01*
X25989030Y13265671D01*
X25999520Y13287850D01*
X26012132Y13308893D01*
X26026747Y13328599D01*
X26043223Y13346777D01*
X26061401Y13363253D01*
X26081107Y13377868D01*
X26102150Y13390480D01*
X26124329Y13400970D01*
X26147428Y13409235D01*
X26171227Y13415196D01*
X26195495Y13418796D01*
X26219999Y13420000D01*
X27120001Y13420000D01*
X27144505Y13418796D01*
X27144505Y13418796D01*
G37*
D13*
X26670000Y12845000D03*
D12*
G36*
X27144505Y11368796D02*
G01*
X27168773Y11365196D01*
X27192572Y11359235D01*
X27215671Y11350970D01*
X27237850Y11340480D01*
X27258893Y11327868D01*
X27278599Y11313253D01*
X27296777Y11296777D01*
X27313253Y11278599D01*
X27327868Y11258893D01*
X27340480Y11237850D01*
X27350970Y11215671D01*
X27359235Y11192572D01*
X27365196Y11168773D01*
X27368796Y11144505D01*
X27370000Y11120001D01*
X27370000Y10469999D01*
X27368796Y10445495D01*
X27365196Y10421227D01*
X27359235Y10397428D01*
X27350970Y10374329D01*
X27340480Y10352150D01*
X27327868Y10331107D01*
X27313253Y10311401D01*
X27296777Y10293223D01*
X27278599Y10276747D01*
X27258893Y10262132D01*
X27237850Y10249520D01*
X27215671Y10239030D01*
X27192572Y10230765D01*
X27168773Y10224804D01*
X27144505Y10221204D01*
X27120001Y10220000D01*
X26219999Y10220000D01*
X26195495Y10221204D01*
X26171227Y10224804D01*
X26147428Y10230765D01*
X26124329Y10239030D01*
X26102150Y10249520D01*
X26081107Y10262132D01*
X26061401Y10276747D01*
X26043223Y10293223D01*
X26026747Y10311401D01*
X26012132Y10331107D01*
X25999520Y10352150D01*
X25989030Y10374329D01*
X25980765Y10397428D01*
X25974804Y10421227D01*
X25971204Y10445495D01*
X25970000Y10469999D01*
X25970000Y11120001D01*
X25971204Y11144505D01*
X25974804Y11168773D01*
X25980765Y11192572D01*
X25989030Y11215671D01*
X25999520Y11237850D01*
X26012132Y11258893D01*
X26026747Y11278599D01*
X26043223Y11296777D01*
X26061401Y11313253D01*
X26081107Y11327868D01*
X26102150Y11340480D01*
X26124329Y11350970D01*
X26147428Y11359235D01*
X26171227Y11365196D01*
X26195495Y11368796D01*
X26219999Y11370000D01*
X27120001Y11370000D01*
X27144505Y11368796D01*
X27144505Y11368796D01*
G37*
D13*
X26670000Y10795000D03*
D12*
G36*
X27144505Y59873796D02*
G01*
X27168773Y59870196D01*
X27192572Y59864235D01*
X27215671Y59855970D01*
X27237850Y59845480D01*
X27258893Y59832868D01*
X27278599Y59818253D01*
X27296777Y59801777D01*
X27313253Y59783599D01*
X27327868Y59763893D01*
X27340480Y59742850D01*
X27350970Y59720671D01*
X27359235Y59697572D01*
X27365196Y59673773D01*
X27368796Y59649505D01*
X27370000Y59625001D01*
X27370000Y58974999D01*
X27368796Y58950495D01*
X27365196Y58926227D01*
X27359235Y58902428D01*
X27350970Y58879329D01*
X27340480Y58857150D01*
X27327868Y58836107D01*
X27313253Y58816401D01*
X27296777Y58798223D01*
X27278599Y58781747D01*
X27258893Y58767132D01*
X27237850Y58754520D01*
X27215671Y58744030D01*
X27192572Y58735765D01*
X27168773Y58729804D01*
X27144505Y58726204D01*
X27120001Y58725000D01*
X26219999Y58725000D01*
X26195495Y58726204D01*
X26171227Y58729804D01*
X26147428Y58735765D01*
X26124329Y58744030D01*
X26102150Y58754520D01*
X26081107Y58767132D01*
X26061401Y58781747D01*
X26043223Y58798223D01*
X26026747Y58816401D01*
X26012132Y58836107D01*
X25999520Y58857150D01*
X25989030Y58879329D01*
X25980765Y58902428D01*
X25974804Y58926227D01*
X25971204Y58950495D01*
X25970000Y58974999D01*
X25970000Y59625001D01*
X25971204Y59649505D01*
X25974804Y59673773D01*
X25980765Y59697572D01*
X25989030Y59720671D01*
X25999520Y59742850D01*
X26012132Y59763893D01*
X26026747Y59783599D01*
X26043223Y59801777D01*
X26061401Y59818253D01*
X26081107Y59832868D01*
X26102150Y59845480D01*
X26124329Y59855970D01*
X26147428Y59864235D01*
X26171227Y59870196D01*
X26195495Y59873796D01*
X26219999Y59875000D01*
X27120001Y59875000D01*
X27144505Y59873796D01*
X27144505Y59873796D01*
G37*
D13*
X26670000Y59300000D03*
D12*
G36*
X27144505Y61923796D02*
G01*
X27168773Y61920196D01*
X27192572Y61914235D01*
X27215671Y61905970D01*
X27237850Y61895480D01*
X27258893Y61882868D01*
X27278599Y61868253D01*
X27296777Y61851777D01*
X27313253Y61833599D01*
X27327868Y61813893D01*
X27340480Y61792850D01*
X27350970Y61770671D01*
X27359235Y61747572D01*
X27365196Y61723773D01*
X27368796Y61699505D01*
X27370000Y61675001D01*
X27370000Y61024999D01*
X27368796Y61000495D01*
X27365196Y60976227D01*
X27359235Y60952428D01*
X27350970Y60929329D01*
X27340480Y60907150D01*
X27327868Y60886107D01*
X27313253Y60866401D01*
X27296777Y60848223D01*
X27278599Y60831747D01*
X27258893Y60817132D01*
X27237850Y60804520D01*
X27215671Y60794030D01*
X27192572Y60785765D01*
X27168773Y60779804D01*
X27144505Y60776204D01*
X27120001Y60775000D01*
X26219999Y60775000D01*
X26195495Y60776204D01*
X26171227Y60779804D01*
X26147428Y60785765D01*
X26124329Y60794030D01*
X26102150Y60804520D01*
X26081107Y60817132D01*
X26061401Y60831747D01*
X26043223Y60848223D01*
X26026747Y60866401D01*
X26012132Y60886107D01*
X25999520Y60907150D01*
X25989030Y60929329D01*
X25980765Y60952428D01*
X25974804Y60976227D01*
X25971204Y61000495D01*
X25970000Y61024999D01*
X25970000Y61675001D01*
X25971204Y61699505D01*
X25974804Y61723773D01*
X25980765Y61747572D01*
X25989030Y61770671D01*
X25999520Y61792850D01*
X26012132Y61813893D01*
X26026747Y61833599D01*
X26043223Y61851777D01*
X26061401Y61868253D01*
X26081107Y61882868D01*
X26102150Y61895480D01*
X26124329Y61905970D01*
X26147428Y61914235D01*
X26171227Y61920196D01*
X26195495Y61923796D01*
X26219999Y61925000D01*
X27120001Y61925000D01*
X27144505Y61923796D01*
X27144505Y61923796D01*
G37*
D13*
X26670000Y61350000D03*
D12*
G36*
X27144505Y40823796D02*
G01*
X27168773Y40820196D01*
X27192572Y40814235D01*
X27215671Y40805970D01*
X27237850Y40795480D01*
X27258893Y40782868D01*
X27278599Y40768253D01*
X27296777Y40751777D01*
X27313253Y40733599D01*
X27327868Y40713893D01*
X27340480Y40692850D01*
X27350970Y40670671D01*
X27359235Y40647572D01*
X27365196Y40623773D01*
X27368796Y40599505D01*
X27370000Y40575001D01*
X27370000Y39924999D01*
X27368796Y39900495D01*
X27365196Y39876227D01*
X27359235Y39852428D01*
X27350970Y39829329D01*
X27340480Y39807150D01*
X27327868Y39786107D01*
X27313253Y39766401D01*
X27296777Y39748223D01*
X27278599Y39731747D01*
X27258893Y39717132D01*
X27237850Y39704520D01*
X27215671Y39694030D01*
X27192572Y39685765D01*
X27168773Y39679804D01*
X27144505Y39676204D01*
X27120001Y39675000D01*
X26219999Y39675000D01*
X26195495Y39676204D01*
X26171227Y39679804D01*
X26147428Y39685765D01*
X26124329Y39694030D01*
X26102150Y39704520D01*
X26081107Y39717132D01*
X26061401Y39731747D01*
X26043223Y39748223D01*
X26026747Y39766401D01*
X26012132Y39786107D01*
X25999520Y39807150D01*
X25989030Y39829329D01*
X25980765Y39852428D01*
X25974804Y39876227D01*
X25971204Y39900495D01*
X25970000Y39924999D01*
X25970000Y40575001D01*
X25971204Y40599505D01*
X25974804Y40623773D01*
X25980765Y40647572D01*
X25989030Y40670671D01*
X25999520Y40692850D01*
X26012132Y40713893D01*
X26026747Y40733599D01*
X26043223Y40751777D01*
X26061401Y40768253D01*
X26081107Y40782868D01*
X26102150Y40795480D01*
X26124329Y40805970D01*
X26147428Y40814235D01*
X26171227Y40820196D01*
X26195495Y40823796D01*
X26219999Y40825000D01*
X27120001Y40825000D01*
X27144505Y40823796D01*
X27144505Y40823796D01*
G37*
D13*
X26670000Y40250000D03*
D12*
G36*
X27144505Y42873796D02*
G01*
X27168773Y42870196D01*
X27192572Y42864235D01*
X27215671Y42855970D01*
X27237850Y42845480D01*
X27258893Y42832868D01*
X27278599Y42818253D01*
X27296777Y42801777D01*
X27313253Y42783599D01*
X27327868Y42763893D01*
X27340480Y42742850D01*
X27350970Y42720671D01*
X27359235Y42697572D01*
X27365196Y42673773D01*
X27368796Y42649505D01*
X27370000Y42625001D01*
X27370000Y41974999D01*
X27368796Y41950495D01*
X27365196Y41926227D01*
X27359235Y41902428D01*
X27350970Y41879329D01*
X27340480Y41857150D01*
X27327868Y41836107D01*
X27313253Y41816401D01*
X27296777Y41798223D01*
X27278599Y41781747D01*
X27258893Y41767132D01*
X27237850Y41754520D01*
X27215671Y41744030D01*
X27192572Y41735765D01*
X27168773Y41729804D01*
X27144505Y41726204D01*
X27120001Y41725000D01*
X26219999Y41725000D01*
X26195495Y41726204D01*
X26171227Y41729804D01*
X26147428Y41735765D01*
X26124329Y41744030D01*
X26102150Y41754520D01*
X26081107Y41767132D01*
X26061401Y41781747D01*
X26043223Y41798223D01*
X26026747Y41816401D01*
X26012132Y41836107D01*
X25999520Y41857150D01*
X25989030Y41879329D01*
X25980765Y41902428D01*
X25974804Y41926227D01*
X25971204Y41950495D01*
X25970000Y41974999D01*
X25970000Y42625001D01*
X25971204Y42649505D01*
X25974804Y42673773D01*
X25980765Y42697572D01*
X25989030Y42720671D01*
X25999520Y42742850D01*
X26012132Y42763893D01*
X26026747Y42783599D01*
X26043223Y42801777D01*
X26061401Y42818253D01*
X26081107Y42832868D01*
X26102150Y42845480D01*
X26124329Y42855970D01*
X26147428Y42864235D01*
X26171227Y42870196D01*
X26195495Y42873796D01*
X26219999Y42875000D01*
X27120001Y42875000D01*
X27144505Y42873796D01*
X27144505Y42873796D01*
G37*
D13*
X26670000Y42300000D03*
D12*
G36*
X24604505Y13418796D02*
G01*
X24628773Y13415196D01*
X24652572Y13409235D01*
X24675671Y13400970D01*
X24697850Y13390480D01*
X24718893Y13377868D01*
X24738599Y13363253D01*
X24756777Y13346777D01*
X24773253Y13328599D01*
X24787868Y13308893D01*
X24800480Y13287850D01*
X24810970Y13265671D01*
X24819235Y13242572D01*
X24825196Y13218773D01*
X24828796Y13194505D01*
X24830000Y13170001D01*
X24830000Y12519999D01*
X24828796Y12495495D01*
X24825196Y12471227D01*
X24819235Y12447428D01*
X24810970Y12424329D01*
X24800480Y12402150D01*
X24787868Y12381107D01*
X24773253Y12361401D01*
X24756777Y12343223D01*
X24738599Y12326747D01*
X24718893Y12312132D01*
X24697850Y12299520D01*
X24675671Y12289030D01*
X24652572Y12280765D01*
X24628773Y12274804D01*
X24604505Y12271204D01*
X24580001Y12270000D01*
X23679999Y12270000D01*
X23655495Y12271204D01*
X23631227Y12274804D01*
X23607428Y12280765D01*
X23584329Y12289030D01*
X23562150Y12299520D01*
X23541107Y12312132D01*
X23521401Y12326747D01*
X23503223Y12343223D01*
X23486747Y12361401D01*
X23472132Y12381107D01*
X23459520Y12402150D01*
X23449030Y12424329D01*
X23440765Y12447428D01*
X23434804Y12471227D01*
X23431204Y12495495D01*
X23430000Y12519999D01*
X23430000Y13170001D01*
X23431204Y13194505D01*
X23434804Y13218773D01*
X23440765Y13242572D01*
X23449030Y13265671D01*
X23459520Y13287850D01*
X23472132Y13308893D01*
X23486747Y13328599D01*
X23503223Y13346777D01*
X23521401Y13363253D01*
X23541107Y13377868D01*
X23562150Y13390480D01*
X23584329Y13400970D01*
X23607428Y13409235D01*
X23631227Y13415196D01*
X23655495Y13418796D01*
X23679999Y13420000D01*
X24580001Y13420000D01*
X24604505Y13418796D01*
X24604505Y13418796D01*
G37*
D13*
X24130000Y12845000D03*
D12*
G36*
X24604505Y11368796D02*
G01*
X24628773Y11365196D01*
X24652572Y11359235D01*
X24675671Y11350970D01*
X24697850Y11340480D01*
X24718893Y11327868D01*
X24738599Y11313253D01*
X24756777Y11296777D01*
X24773253Y11278599D01*
X24787868Y11258893D01*
X24800480Y11237850D01*
X24810970Y11215671D01*
X24819235Y11192572D01*
X24825196Y11168773D01*
X24828796Y11144505D01*
X24830000Y11120001D01*
X24830000Y10469999D01*
X24828796Y10445495D01*
X24825196Y10421227D01*
X24819235Y10397428D01*
X24810970Y10374329D01*
X24800480Y10352150D01*
X24787868Y10331107D01*
X24773253Y10311401D01*
X24756777Y10293223D01*
X24738599Y10276747D01*
X24718893Y10262132D01*
X24697850Y10249520D01*
X24675671Y10239030D01*
X24652572Y10230765D01*
X24628773Y10224804D01*
X24604505Y10221204D01*
X24580001Y10220000D01*
X23679999Y10220000D01*
X23655495Y10221204D01*
X23631227Y10224804D01*
X23607428Y10230765D01*
X23584329Y10239030D01*
X23562150Y10249520D01*
X23541107Y10262132D01*
X23521401Y10276747D01*
X23503223Y10293223D01*
X23486747Y10311401D01*
X23472132Y10331107D01*
X23459520Y10352150D01*
X23449030Y10374329D01*
X23440765Y10397428D01*
X23434804Y10421227D01*
X23431204Y10445495D01*
X23430000Y10469999D01*
X23430000Y11120001D01*
X23431204Y11144505D01*
X23434804Y11168773D01*
X23440765Y11192572D01*
X23449030Y11215671D01*
X23459520Y11237850D01*
X23472132Y11258893D01*
X23486747Y11278599D01*
X23503223Y11296777D01*
X23521401Y11313253D01*
X23541107Y11327868D01*
X23562150Y11340480D01*
X23584329Y11350970D01*
X23607428Y11359235D01*
X23631227Y11365196D01*
X23655495Y11368796D01*
X23679999Y11370000D01*
X24580001Y11370000D01*
X24604505Y11368796D01*
X24604505Y11368796D01*
G37*
D13*
X24130000Y10795000D03*
D12*
G36*
X24604505Y31443796D02*
G01*
X24628773Y31440196D01*
X24652572Y31434235D01*
X24675671Y31425970D01*
X24697850Y31415480D01*
X24718893Y31402868D01*
X24738599Y31388253D01*
X24756777Y31371777D01*
X24773253Y31353599D01*
X24787868Y31333893D01*
X24800480Y31312850D01*
X24810970Y31290671D01*
X24819235Y31267572D01*
X24825196Y31243773D01*
X24828796Y31219505D01*
X24830000Y31195001D01*
X24830000Y30544999D01*
X24828796Y30520495D01*
X24825196Y30496227D01*
X24819235Y30472428D01*
X24810970Y30449329D01*
X24800480Y30427150D01*
X24787868Y30406107D01*
X24773253Y30386401D01*
X24756777Y30368223D01*
X24738599Y30351747D01*
X24718893Y30337132D01*
X24697850Y30324520D01*
X24675671Y30314030D01*
X24652572Y30305765D01*
X24628773Y30299804D01*
X24604505Y30296204D01*
X24580001Y30295000D01*
X23679999Y30295000D01*
X23655495Y30296204D01*
X23631227Y30299804D01*
X23607428Y30305765D01*
X23584329Y30314030D01*
X23562150Y30324520D01*
X23541107Y30337132D01*
X23521401Y30351747D01*
X23503223Y30368223D01*
X23486747Y30386401D01*
X23472132Y30406107D01*
X23459520Y30427150D01*
X23449030Y30449329D01*
X23440765Y30472428D01*
X23434804Y30496227D01*
X23431204Y30520495D01*
X23430000Y30544999D01*
X23430000Y31195001D01*
X23431204Y31219505D01*
X23434804Y31243773D01*
X23440765Y31267572D01*
X23449030Y31290671D01*
X23459520Y31312850D01*
X23472132Y31333893D01*
X23486747Y31353599D01*
X23503223Y31371777D01*
X23521401Y31388253D01*
X23541107Y31402868D01*
X23562150Y31415480D01*
X23584329Y31425970D01*
X23607428Y31434235D01*
X23631227Y31440196D01*
X23655495Y31443796D01*
X23679999Y31445000D01*
X24580001Y31445000D01*
X24604505Y31443796D01*
X24604505Y31443796D01*
G37*
D13*
X24130000Y30870000D03*
D12*
G36*
X24604505Y29393796D02*
G01*
X24628773Y29390196D01*
X24652572Y29384235D01*
X24675671Y29375970D01*
X24697850Y29365480D01*
X24718893Y29352868D01*
X24738599Y29338253D01*
X24756777Y29321777D01*
X24773253Y29303599D01*
X24787868Y29283893D01*
X24800480Y29262850D01*
X24810970Y29240671D01*
X24819235Y29217572D01*
X24825196Y29193773D01*
X24828796Y29169505D01*
X24830000Y29145001D01*
X24830000Y28494999D01*
X24828796Y28470495D01*
X24825196Y28446227D01*
X24819235Y28422428D01*
X24810970Y28399329D01*
X24800480Y28377150D01*
X24787868Y28356107D01*
X24773253Y28336401D01*
X24756777Y28318223D01*
X24738599Y28301747D01*
X24718893Y28287132D01*
X24697850Y28274520D01*
X24675671Y28264030D01*
X24652572Y28255765D01*
X24628773Y28249804D01*
X24604505Y28246204D01*
X24580001Y28245000D01*
X23679999Y28245000D01*
X23655495Y28246204D01*
X23631227Y28249804D01*
X23607428Y28255765D01*
X23584329Y28264030D01*
X23562150Y28274520D01*
X23541107Y28287132D01*
X23521401Y28301747D01*
X23503223Y28318223D01*
X23486747Y28336401D01*
X23472132Y28356107D01*
X23459520Y28377150D01*
X23449030Y28399329D01*
X23440765Y28422428D01*
X23434804Y28446227D01*
X23431204Y28470495D01*
X23430000Y28494999D01*
X23430000Y29145001D01*
X23431204Y29169505D01*
X23434804Y29193773D01*
X23440765Y29217572D01*
X23449030Y29240671D01*
X23459520Y29262850D01*
X23472132Y29283893D01*
X23486747Y29303599D01*
X23503223Y29321777D01*
X23521401Y29338253D01*
X23541107Y29352868D01*
X23562150Y29365480D01*
X23584329Y29375970D01*
X23607428Y29384235D01*
X23631227Y29390196D01*
X23655495Y29393796D01*
X23679999Y29395000D01*
X24580001Y29395000D01*
X24604505Y29393796D01*
X24604505Y29393796D01*
G37*
D13*
X24130000Y28820000D03*
D12*
G36*
X24604505Y49858796D02*
G01*
X24628773Y49855196D01*
X24652572Y49849235D01*
X24675671Y49840970D01*
X24697850Y49830480D01*
X24718893Y49817868D01*
X24738599Y49803253D01*
X24756777Y49786777D01*
X24773253Y49768599D01*
X24787868Y49748893D01*
X24800480Y49727850D01*
X24810970Y49705671D01*
X24819235Y49682572D01*
X24825196Y49658773D01*
X24828796Y49634505D01*
X24830000Y49610001D01*
X24830000Y48959999D01*
X24828796Y48935495D01*
X24825196Y48911227D01*
X24819235Y48887428D01*
X24810970Y48864329D01*
X24800480Y48842150D01*
X24787868Y48821107D01*
X24773253Y48801401D01*
X24756777Y48783223D01*
X24738599Y48766747D01*
X24718893Y48752132D01*
X24697850Y48739520D01*
X24675671Y48729030D01*
X24652572Y48720765D01*
X24628773Y48714804D01*
X24604505Y48711204D01*
X24580001Y48710000D01*
X23679999Y48710000D01*
X23655495Y48711204D01*
X23631227Y48714804D01*
X23607428Y48720765D01*
X23584329Y48729030D01*
X23562150Y48739520D01*
X23541107Y48752132D01*
X23521401Y48766747D01*
X23503223Y48783223D01*
X23486747Y48801401D01*
X23472132Y48821107D01*
X23459520Y48842150D01*
X23449030Y48864329D01*
X23440765Y48887428D01*
X23434804Y48911227D01*
X23431204Y48935495D01*
X23430000Y48959999D01*
X23430000Y49610001D01*
X23431204Y49634505D01*
X23434804Y49658773D01*
X23440765Y49682572D01*
X23449030Y49705671D01*
X23459520Y49727850D01*
X23472132Y49748893D01*
X23486747Y49768599D01*
X23503223Y49786777D01*
X23521401Y49803253D01*
X23541107Y49817868D01*
X23562150Y49830480D01*
X23584329Y49840970D01*
X23607428Y49849235D01*
X23631227Y49855196D01*
X23655495Y49858796D01*
X23679999Y49860000D01*
X24580001Y49860000D01*
X24604505Y49858796D01*
X24604505Y49858796D01*
G37*
D13*
X24130000Y49285000D03*
D12*
G36*
X24604505Y47808796D02*
G01*
X24628773Y47805196D01*
X24652572Y47799235D01*
X24675671Y47790970D01*
X24697850Y47780480D01*
X24718893Y47767868D01*
X24738599Y47753253D01*
X24756777Y47736777D01*
X24773253Y47718599D01*
X24787868Y47698893D01*
X24800480Y47677850D01*
X24810970Y47655671D01*
X24819235Y47632572D01*
X24825196Y47608773D01*
X24828796Y47584505D01*
X24830000Y47560001D01*
X24830000Y46909999D01*
X24828796Y46885495D01*
X24825196Y46861227D01*
X24819235Y46837428D01*
X24810970Y46814329D01*
X24800480Y46792150D01*
X24787868Y46771107D01*
X24773253Y46751401D01*
X24756777Y46733223D01*
X24738599Y46716747D01*
X24718893Y46702132D01*
X24697850Y46689520D01*
X24675671Y46679030D01*
X24652572Y46670765D01*
X24628773Y46664804D01*
X24604505Y46661204D01*
X24580001Y46660000D01*
X23679999Y46660000D01*
X23655495Y46661204D01*
X23631227Y46664804D01*
X23607428Y46670765D01*
X23584329Y46679030D01*
X23562150Y46689520D01*
X23541107Y46702132D01*
X23521401Y46716747D01*
X23503223Y46733223D01*
X23486747Y46751401D01*
X23472132Y46771107D01*
X23459520Y46792150D01*
X23449030Y46814329D01*
X23440765Y46837428D01*
X23434804Y46861227D01*
X23431204Y46885495D01*
X23430000Y46909999D01*
X23430000Y47560001D01*
X23431204Y47584505D01*
X23434804Y47608773D01*
X23440765Y47632572D01*
X23449030Y47655671D01*
X23459520Y47677850D01*
X23472132Y47698893D01*
X23486747Y47718599D01*
X23503223Y47736777D01*
X23521401Y47753253D01*
X23541107Y47767868D01*
X23562150Y47780480D01*
X23584329Y47790970D01*
X23607428Y47799235D01*
X23631227Y47805196D01*
X23655495Y47808796D01*
X23679999Y47810000D01*
X24580001Y47810000D01*
X24604505Y47808796D01*
X24604505Y47808796D01*
G37*
D13*
X24130000Y47235000D03*
D11*
X12445000Y29210000D03*
X12445000Y30480000D03*
X12445000Y31750000D03*
X12445000Y33020000D03*
X12445000Y34290000D03*
X12445000Y35560000D03*
X12445000Y36830000D03*
X12445000Y38100000D03*
X12445000Y39370000D03*
X12445000Y40640000D03*
X12445000Y41910000D03*
X12445000Y43180000D03*
X21845000Y43180000D03*
X21845000Y41910000D03*
X21845000Y40640000D03*
X21845000Y39370000D03*
X21845000Y38100000D03*
X21845000Y36830000D03*
X21845000Y35560000D03*
X21845000Y34290000D03*
X21845000Y33020000D03*
X21845000Y31750000D03*
X21845000Y30480000D03*
X21845000Y29210000D03*
X12445000Y10795000D03*
X12445000Y12065000D03*
X12445000Y13335000D03*
X12445000Y14605000D03*
X12445000Y15875000D03*
X12445000Y17145000D03*
X12445000Y18415000D03*
X12445000Y19685000D03*
X12445000Y20955000D03*
X12445000Y22225000D03*
X12445000Y23495000D03*
X12445000Y24765000D03*
X21845000Y24765000D03*
X21845000Y23495000D03*
X21845000Y22225000D03*
X21845000Y20955000D03*
X21845000Y19685000D03*
X21845000Y18415000D03*
X21845000Y17145000D03*
X21845000Y15875000D03*
X21845000Y14605000D03*
X21845000Y13335000D03*
X21845000Y12065000D03*
X21845000Y10795000D03*
X38355000Y61595000D03*
X38355000Y60325000D03*
X38355000Y59055000D03*
X38355000Y57785000D03*
X38355000Y56515000D03*
X38355000Y55245000D03*
X38355000Y53975000D03*
X38355000Y52705000D03*
X38355000Y51435000D03*
X38355000Y50165000D03*
X38355000Y48895000D03*
X38355000Y47625000D03*
X28955000Y47625000D03*
X28955000Y48895000D03*
X28955000Y50165000D03*
X28955000Y51435000D03*
X28955000Y52705000D03*
X28955000Y53975000D03*
X28955000Y55245000D03*
X28955000Y56515000D03*
X28955000Y57785000D03*
X28955000Y59055000D03*
X28955000Y60325000D03*
X28955000Y61595000D03*
D22*
X27305000Y48260000D03*
X40005000Y29210000D03*
X42926000Y22860000D03*
X24130000Y13970000D03*
X24130000Y32385000D03*
X40005000Y47625000D03*
X23495000Y41910000D03*
X23495000Y43180000D03*
X23495000Y24765000D03*
X23495000Y23495000D03*
X22860000Y3810000D03*
X10795000Y61595000D03*
X26670000Y13970000D03*
X27305000Y29210000D03*
X27305000Y30480000D03*
X11557000Y9398000D03*
X23368000Y61595000D03*
X23368000Y60325000D03*
X40640000Y45720000D03*
X26670000Y38735000D03*
X42926000Y12065000D03*
X42931000Y13965000D03*
X42926000Y16510000D03*
X42926000Y18415000D03*
X42926000Y24892000D03*
X45466000Y9906000D03*
X26670000Y57912000D03*
X25654000Y50038000D03*
X8255000Y50292000D03*
X42545000Y59690000D03*
X10160000Y24765000D03*
X10160000Y43180000D03*
X10160000Y26416000D03*
D23*
X31115000Y20320000D03*
X31115000Y22352000D03*
X31115000Y25781000D03*
X31115000Y27178000D03*
X30480000Y36830000D03*
X31115000Y38100000D03*
X31115000Y39370000D03*
X31115000Y40513000D03*
D22*
X33528000Y24130000D03*
X33528000Y26670000D03*
X18288000Y46990000D03*
X36830000Y7620000D03*
X33020000Y10160000D03*
X17272000Y46990000D03*
X18288000Y44450000D03*
X17272000Y44450000D03*
X32512000Y26670000D03*
X32512000Y24130000D03*
X38100000Y24892000D03*
X38100000Y25908000D03*
X37211000Y23495000D03*
X13335000Y46355000D03*
X13335000Y45085000D03*
X17780000Y57150000D03*
X33020000Y57150000D03*
D23*
X20066000Y40640000D03*
X20066000Y39370000D03*
X20066000Y38100000D03*
X20066000Y36830000D03*
X20066000Y35560000D03*
X20066000Y34290000D03*
X20066000Y33020000D03*
X19685000Y25400000D03*
X19685000Y22860000D03*
X19685000Y20320000D03*
X19685000Y17780000D03*
X19685000Y15240000D03*
X19685000Y12700000D03*
X31115000Y12700000D03*
X31115000Y15240000D03*
X31115000Y17780000D03*
X19685000Y55880000D03*
X19685000Y57785000D03*
X30480000Y41275000D03*
X37466397Y27686000D03*
X31115000Y53975000D03*
X37465000Y45085000D03*
X31115000Y41910000D03*
X31115000Y45466000D03*
X31115000Y57785000D03*
X31115000Y48260000D03*
X31115000Y60960000D03*
X31115000Y55880000D03*
X31115000Y50800000D03*
X31115000Y44196000D03*
X19685000Y48895000D03*
X19685000Y51435000D03*
X19685000Y53975000D03*
D24*
X28955000Y47625000D02*
X27940000Y47625000D01*
X27940000Y47625000D02*
X27305000Y48260000D01*
X28955000Y48895000D02*
X27940000Y48895000D01*
X27940000Y48895000D02*
X27305000Y48260000D01*
X23495000Y43180000D02*
X21845000Y43180000D01*
X38355000Y29210000D02*
X40005000Y29210000D01*
X23740000Y48895000D02*
X24130000Y49285000D01*
X21845000Y48895000D02*
X23740000Y48895000D01*
X23515000Y30480000D02*
X21845000Y30480000D01*
X24130000Y31095000D02*
X23515000Y30480000D01*
X24130000Y32385000D02*
X24130000Y31095000D01*
X38355000Y47625000D02*
X40005000Y47625000D01*
X23495000Y41910000D02*
X21845000Y41910000D01*
X23495000Y24765000D02*
X21845000Y24765000D01*
X21845000Y23495000D02*
X23495000Y23495000D01*
X23985000Y3810000D02*
X22860000Y3810000D01*
X12445000Y61595000D02*
X10795000Y61595000D01*
X24130000Y13315000D02*
X24130000Y12845000D01*
X24130000Y12845000D02*
X24130000Y13970000D01*
X26670000Y12845000D02*
X26670000Y13970000D01*
X23350000Y12065000D02*
X24130000Y12845000D01*
X21845000Y12065000D02*
X23350000Y12065000D01*
X27305000Y30480000D02*
X28955000Y30480000D01*
X28955000Y29210000D02*
X27305000Y29210000D01*
X11548000Y9398000D02*
X10160000Y9398000D01*
X23368000Y61595000D02*
X21845000Y61595000D01*
X23368000Y60325000D02*
X21845000Y60325000D01*
X40640000Y45720000D02*
X40640000Y45065000D01*
X26670000Y40005000D02*
X26670000Y38744000D01*
X40025000Y59055000D02*
X38355000Y59055000D01*
X40640000Y58440000D02*
X40025000Y59055000D01*
X42931000Y13965000D02*
X41355000Y13965000D01*
X42926000Y16510000D02*
X41355000Y16510000D01*
X41355000Y22860000D02*
X42926000Y22860000D01*
X41355000Y12065000D02*
X42926000Y12065000D01*
X42921000Y18410000D02*
X42926000Y18415000D01*
X41355000Y18410000D02*
X42921000Y18410000D01*
X41665000Y24892000D02*
X42926000Y24892000D01*
X45085000Y9525000D02*
X44205000Y9525000D01*
X45466000Y9906000D02*
X45085000Y9525000D01*
X26670000Y57912000D02*
X26670000Y59075000D01*
X24901000Y49285000D02*
X24130000Y49285000D01*
X25654000Y50038000D02*
X24901000Y49285000D01*
X24529000Y51163000D02*
X25654000Y50038000D01*
X24130000Y51163000D02*
X24529000Y51163000D01*
X10405000Y50165000D02*
X10160000Y49920000D01*
X12445000Y50165000D02*
X10405000Y50165000D01*
X9135000Y49920000D02*
X10160000Y49920000D01*
X8255000Y50292000D02*
X8763000Y50292000D01*
X8763000Y50292000D02*
X9135000Y49920000D01*
X41520000Y58665000D02*
X40640000Y58665000D01*
X42545000Y59690000D02*
X41520000Y58665000D01*
X12445000Y24765000D02*
X10160000Y24765000D01*
X10160000Y43180000D02*
X12445000Y43180000D01*
X10160000Y27325000D02*
X10160000Y26416000D01*
D25*
X31115000Y20320000D02*
X26035000Y25400000D01*
X26035000Y25400000D02*
X26035000Y31115000D01*
X26035000Y31115000D02*
X26670000Y31750000D01*
X26670000Y31750000D02*
X28955000Y31750000D01*
X30099000Y33020000D02*
X28955000Y33020000D01*
X30480000Y32639000D02*
X30099000Y33020000D01*
X29972000Y23495000D02*
X29972000Y28194000D01*
X29972000Y28194000D02*
X30480000Y28702000D01*
X31115000Y22352000D02*
X29972000Y23495000D01*
X30480000Y28702000D02*
X30480000Y32639000D01*
X30607000Y34290000D02*
X28955000Y34290000D01*
X30988000Y33909000D02*
X30607000Y34290000D01*
X30988000Y28321000D02*
X30988000Y33909000D01*
X31115000Y25781000D02*
X30480000Y26416000D01*
X30480000Y27813000D02*
X30988000Y28321000D01*
X30480000Y26416000D02*
X30480000Y27813000D01*
X30861000Y35560000D02*
X28955000Y35560000D01*
X31115000Y27178000D02*
X31496000Y27559000D01*
X31496000Y27559000D02*
X31496000Y34925000D01*
X31496000Y34925000D02*
X30861000Y35560000D01*
X28955000Y36830000D02*
X30480000Y36830000D01*
X28955000Y38100000D02*
X31115000Y38100000D01*
X28955000Y39370000D02*
X31115000Y39370000D01*
X30988000Y40640000D02*
X28955000Y40640000D01*
X31115000Y40513000D02*
X30988000Y40640000D01*
D24*
X26690000Y61595000D02*
X26670000Y61575000D01*
X28955000Y61595000D02*
X26690000Y61595000D01*
X21845000Y10795000D02*
X24110000Y10795000D01*
X24110000Y10795000D02*
X24130000Y10815000D01*
X33020000Y43180000D02*
X28955000Y43180000D01*
X21845000Y29210000D02*
X17780000Y29210000D01*
D26*
X17780000Y47625000D02*
X17780000Y29210000D01*
D24*
X24170000Y28555000D02*
X24130000Y28595000D01*
X21845000Y29210000D02*
X23515000Y29210000D01*
X23515000Y29210000D02*
X24130000Y28595000D01*
D26*
X17780000Y10160000D02*
X17780000Y29210000D01*
X19050000Y8890000D02*
X17780000Y10160000D01*
X33020000Y10160000D02*
X31750000Y8890000D01*
X24130000Y8890000D02*
X19050000Y8890000D01*
X31750000Y63500000D02*
X33020000Y62230000D01*
X17780000Y62230000D02*
X19050000Y63500000D01*
D24*
X32385000Y61595000D02*
X33020000Y60960000D01*
D26*
X33020000Y62230000D02*
X33020000Y60960000D01*
D24*
X26670000Y61350000D02*
X26670000Y63500000D01*
D26*
X26670000Y63500000D02*
X31750000Y63500000D01*
D24*
X24765000Y61350000D02*
X24765000Y63500000D01*
D26*
X19050000Y63500000D02*
X24765000Y63500000D01*
X24765000Y63500000D02*
X26670000Y63500000D01*
D24*
X23740000Y47625000D02*
X24130000Y47235000D01*
X21845000Y47625000D02*
X23740000Y47625000D01*
X26915000Y43180000D02*
X26670000Y42935000D01*
X28955000Y43180000D02*
X26915000Y43180000D01*
X21845000Y47625000D02*
X17780000Y47625000D01*
X24130000Y10795000D02*
X24130000Y8890000D01*
X26670000Y10795000D02*
X26670000Y8890000D01*
D26*
X31750000Y8890000D02*
X26670000Y8890000D01*
X26670000Y8890000D02*
X24130000Y8890000D01*
D25*
X42155000Y4445000D02*
X42155000Y6985000D01*
X42155000Y6985000D02*
X41275000Y6985000D01*
X40640000Y7620000D02*
X36830000Y7620000D01*
X41275000Y6985000D02*
X40640000Y7620000D01*
D27*
X38100000Y24892000D02*
X38100000Y25908000D01*
X38100000Y24892000D02*
X39615000Y24892000D01*
D26*
X33020000Y25400000D02*
X33020000Y43180000D01*
X33020000Y10160000D02*
X33020000Y25400000D01*
D24*
X33020000Y26162000D02*
X32512000Y26670000D01*
X33020000Y26162000D02*
X33528000Y26670000D01*
X33020000Y25400000D02*
X33020000Y26162000D01*
X33020000Y24638000D02*
X32512000Y24130000D01*
X33020000Y24638000D02*
X33528000Y24130000D01*
X33020000Y25400000D02*
X33020000Y24638000D01*
X37211000Y21224000D02*
X37475000Y20960000D01*
X37475000Y20960000D02*
X38655000Y20960000D01*
X37211000Y23495000D02*
X37211000Y21224000D01*
X26670000Y42300000D02*
X26670000Y42935000D01*
D27*
X13335000Y45085000D02*
X13335000Y46355000D01*
X12700000Y45720000D02*
X13335000Y46355000D01*
X13335000Y45085000D02*
X12700000Y45720000D01*
D26*
X17780000Y47625000D02*
X17780000Y57150000D01*
X17780000Y57150000D02*
X17780000Y62230000D01*
X33020000Y60960000D02*
X33020000Y57150000D01*
X33020000Y57150000D02*
X33020000Y43180000D01*
D27*
X10258000Y45720000D02*
X12700000Y45720000D01*
X40132000Y27940000D02*
X40660000Y27940000D01*
X38100000Y25908000D02*
X40132000Y27940000D01*
D26*
X15240000Y12065000D02*
X15240000Y10795000D01*
D24*
X12445000Y48895000D02*
X15240000Y48895000D01*
X12445000Y47625000D02*
X15240000Y47625000D01*
D26*
X15240000Y48895000D02*
X15240000Y47625000D01*
X15240000Y47625000D02*
X15240000Y31115000D01*
X15240000Y31115000D02*
X15240000Y29210000D01*
D28*
X38355000Y43180000D02*
X35560000Y43180000D01*
D24*
X38355000Y61595000D02*
X35560000Y61595000D01*
X35560000Y61595000D02*
X35560000Y62230000D01*
X38355000Y60325000D02*
X35560000Y60325000D01*
D26*
X35560000Y41910000D02*
X35560000Y43180000D01*
X35560000Y43180000D02*
X35560000Y60325000D01*
X35560000Y60325000D02*
X35560000Y62230000D01*
D28*
X35560000Y41910000D02*
X38355000Y41910000D01*
D26*
X35560000Y16510000D02*
X35560000Y41910000D01*
D24*
X12445000Y47625000D02*
X10775000Y47625000D01*
X10775000Y47625000D02*
X10160000Y48240000D01*
X12445000Y48895000D02*
X10815000Y48895000D01*
X10815000Y48895000D02*
X10160000Y48240000D01*
X38355000Y60325000D02*
X40025000Y60325000D01*
X40025000Y60325000D02*
X40640000Y60940000D01*
X38655000Y16510000D02*
X35560000Y16510000D01*
X38655000Y12065000D02*
X35560000Y12065000D01*
D26*
X35560000Y12065000D02*
X35560000Y16510000D01*
X15240000Y29210000D02*
X15240000Y12065000D01*
X35560000Y8890000D02*
X35560000Y12065000D01*
X33020000Y6350000D02*
X35560000Y8890000D01*
X15240000Y10795000D02*
X15240000Y8890000D01*
X15240000Y8890000D02*
X17780000Y6350000D01*
X22225000Y6350000D02*
X33020000Y6350000D01*
X15240000Y48895000D02*
X15240000Y63500000D01*
D24*
X20320000Y6350000D02*
X20075000Y6105000D01*
X22615000Y5960000D02*
X22225000Y6350000D01*
D26*
X20320000Y6350000D02*
X22225000Y6350000D01*
X17780000Y6350000D02*
X19050000Y6350000D01*
D24*
X18805000Y6105000D02*
X19050000Y6350000D01*
D26*
X19050000Y6350000D02*
X20320000Y6350000D01*
D24*
X14351000Y62611000D02*
X15240000Y63500000D01*
X9779000Y62611000D02*
X14351000Y62611000D01*
X7375000Y64008000D02*
X8382000Y64008000D01*
X8382000Y64008000D02*
X9779000Y62611000D01*
X42545000Y66040000D02*
X44695000Y66040000D01*
X40640000Y64135000D02*
X42545000Y66040000D01*
X38355000Y61595000D02*
X40640000Y61595000D01*
X40640000Y60715000D02*
X40640000Y64135000D01*
D27*
X26035000Y3810000D02*
X26035000Y6105000D01*
D24*
X41195000Y9525000D02*
X38655000Y12065000D01*
X42155000Y9525000D02*
X41195000Y9525000D01*
D27*
X43180000Y45720000D02*
X45720000Y48260000D01*
X43180000Y43855000D02*
X43180000Y45720000D01*
X40640000Y42565000D02*
X41890000Y42565000D01*
X41890000Y42565000D02*
X43180000Y43855000D01*
D26*
X35560000Y63500000D02*
X35560000Y62230000D01*
X33020000Y66040000D02*
X35560000Y63500000D01*
X15240000Y63500000D02*
X17780000Y66040000D01*
X17780000Y66040000D02*
X33020000Y66040000D01*
D28*
X39370000Y41910000D02*
X38355000Y41910000D01*
X40005000Y42545000D02*
X39370000Y41910000D01*
X40640000Y42545000D02*
X40005000Y42545000D01*
X39370000Y43180000D02*
X38355000Y43180000D01*
X40005000Y42545000D02*
X39370000Y43180000D01*
X15240000Y12065000D02*
X12445000Y12065000D01*
X15240000Y10795000D02*
X12445000Y10795000D01*
D24*
X8001000Y11430000D02*
X10160000Y11430000D01*
X10795000Y10795000D02*
X10160000Y11430000D01*
X12445000Y10795000D02*
X10795000Y10795000D01*
X10795000Y12065000D02*
X10160000Y11430000D01*
X12445000Y12065000D02*
X10795000Y12065000D01*
D28*
X10795000Y30480000D02*
X10160000Y29845000D01*
X12445000Y30480000D02*
X10795000Y30480000D01*
X10795000Y29210000D02*
X10160000Y29845000D01*
X12445000Y29210000D02*
X10795000Y29210000D01*
D27*
X8763000Y29845000D02*
X10160000Y29845000D01*
X7620000Y28702000D02*
X8763000Y29845000D01*
X7620000Y26035000D02*
X7620000Y28702000D01*
X5080000Y25400000D02*
X6985000Y25400000D01*
X6985000Y25400000D02*
X7620000Y26035000D01*
D28*
X12445000Y29210000D02*
X15240000Y29210000D01*
X14605000Y30480000D02*
X15240000Y31115000D01*
X12445000Y30480000D02*
X14605000Y30480000D01*
D25*
X20066000Y40640000D02*
X21845000Y40640000D01*
X21845000Y39370000D02*
X20066000Y39370000D01*
X20066000Y38100000D02*
X21845000Y38100000D01*
X21845000Y36830000D02*
X20066000Y36830000D01*
X20066000Y35560000D02*
X21845000Y35560000D01*
X20066000Y34290000D02*
X21845000Y34290000D01*
X20066000Y33020000D02*
X21845000Y33020000D01*
X21845000Y31750000D02*
X20955000Y31750000D01*
X23368000Y32893000D02*
X23368000Y32131000D01*
X23749000Y33274000D02*
X23368000Y32893000D01*
X25019000Y33274000D02*
X23749000Y33274000D01*
X22987000Y31750000D02*
X21845000Y31750000D01*
X19685000Y25400000D02*
X20955000Y26670000D01*
X25400000Y32893000D02*
X25019000Y33274000D01*
X23368000Y32131000D02*
X22987000Y31750000D01*
X20955000Y26670000D02*
X24130000Y26670000D01*
X24130000Y26670000D02*
X25400000Y27940000D01*
X25400000Y27940000D02*
X25400000Y32893000D01*
X21845000Y22225000D02*
X20320000Y22225000D01*
X20320000Y22225000D02*
X19685000Y22860000D01*
X21845000Y20955000D02*
X20320000Y20955000D01*
X20320000Y20955000D02*
X19685000Y20320000D01*
X21845000Y18415000D02*
X20320000Y18415000D01*
X20320000Y18415000D02*
X19685000Y17780000D01*
X20320000Y15875000D02*
X19685000Y15240000D01*
X21845000Y15875000D02*
X20320000Y15875000D01*
X20320000Y13335000D02*
X21845000Y13335000D01*
X19685000Y12700000D02*
X20320000Y13335000D01*
X28575000Y15240000D02*
X31115000Y12700000D01*
X24130000Y15240000D02*
X28575000Y15240000D01*
X21845000Y14605000D02*
X23495000Y14605000D01*
X23495000Y14605000D02*
X24130000Y15240000D01*
X29845000Y16510000D02*
X31115000Y15240000D01*
X24130000Y16510000D02*
X29845000Y16510000D01*
X21845000Y17145000D02*
X23495000Y17145000D01*
X23495000Y17145000D02*
X24130000Y16510000D01*
X23495000Y19685000D02*
X21845000Y19685000D01*
X25400000Y17780000D02*
X23495000Y19685000D01*
X31115000Y17780000D02*
X25400000Y17780000D01*
X28955000Y60325000D02*
X25400000Y60325000D01*
X25400000Y60325000D02*
X24765000Y59690000D01*
X24765000Y59690000D02*
X24765000Y59075000D01*
X26797000Y55245000D02*
X28955000Y55245000D01*
X19685000Y55880000D02*
X26162000Y55880000D01*
X26162000Y55880000D02*
X26797000Y55245000D01*
X27559000Y56515000D02*
X28955000Y56515000D01*
X26924000Y57150000D02*
X27559000Y56515000D01*
X19685000Y57785000D02*
X20320000Y57150000D01*
X20320000Y57150000D02*
X26924000Y57150000D01*
X30480000Y41275000D02*
X26035000Y41275000D01*
X26035000Y41275000D02*
X25400000Y40640000D01*
X25400000Y40640000D02*
X25400000Y38735000D01*
X26050000Y38085000D02*
X26050000Y36195000D01*
X25400000Y38735000D02*
X26050000Y38085000D01*
X38655000Y23194000D02*
X38655000Y22860000D01*
X37084000Y24765000D02*
X38655000Y23194000D01*
X37084000Y27303603D02*
X37084000Y24765000D01*
X37466397Y27686000D02*
X37084000Y27303603D01*
X37466397Y27686000D02*
X37465000Y27686000D01*
X31115000Y53975000D02*
X28955000Y53975000D01*
D24*
X41355000Y21910000D02*
X43500000Y21910000D01*
X44450000Y22860000D02*
X45720000Y22860000D01*
X43500000Y21910000D02*
X44450000Y22860000D01*
D25*
X12445000Y41910000D02*
X3810000Y41910000D01*
X3810000Y41910000D02*
X2540000Y40640000D01*
X12445000Y40640000D02*
X5080000Y40640000D01*
X12445000Y39370000D02*
X3810000Y39370000D01*
X3810000Y39370000D02*
X2540000Y38100000D01*
X5080000Y38100000D02*
X12445000Y38100000D01*
X12445000Y36830000D02*
X3810000Y36830000D01*
X3810000Y36830000D02*
X2540000Y35560000D01*
X5080000Y35560000D02*
X12445000Y35560000D01*
X12445000Y34290000D02*
X3810000Y34290000D01*
X3810000Y34290000D02*
X2540000Y33020000D01*
X5080000Y33020000D02*
X12445000Y33020000D01*
X2540000Y22860000D02*
X3810000Y24130000D01*
X7620000Y23495000D02*
X12445000Y23495000D01*
X6985000Y24130000D02*
X7620000Y23495000D01*
X3810000Y24130000D02*
X6985000Y24130000D01*
X5080000Y22860000D02*
X6985000Y22860000D01*
X7620000Y22225000D02*
X12445000Y22225000D01*
X6985000Y22860000D02*
X7620000Y22225000D01*
X5080000Y20320000D02*
X6985000Y20320000D01*
X7620000Y19685000D02*
X12445000Y19685000D01*
X6985000Y20320000D02*
X7620000Y19685000D01*
X12445000Y17145000D02*
X7620000Y17145000D01*
X6985000Y17780000D02*
X5080000Y17780000D01*
X7620000Y17145000D02*
X6985000Y17780000D01*
X12445000Y20955000D02*
X7620000Y20955000D01*
X3810000Y21590000D02*
X2540000Y20320000D01*
X6985000Y21590000D02*
X3810000Y21590000D01*
X7620000Y20955000D02*
X6985000Y21590000D01*
X2540000Y17780000D02*
X3810000Y19050000D01*
X7620000Y18415000D02*
X12445000Y18415000D01*
X6985000Y19050000D02*
X7620000Y18415000D01*
X3810000Y19050000D02*
X6985000Y19050000D01*
X2540000Y15240000D02*
X3810000Y16510000D01*
X7620000Y15875000D02*
X12445000Y15875000D01*
X6985000Y16510000D02*
X7620000Y15875000D01*
X3810000Y16510000D02*
X6985000Y16510000D01*
X38355000Y30480000D02*
X45720000Y30480000D01*
X38355000Y31750000D02*
X46990000Y31750000D01*
X46990000Y31750000D02*
X48260000Y30480000D01*
X38355000Y33020000D02*
X45720000Y33020000D01*
X38355000Y34290000D02*
X46990000Y34290000D01*
X46990000Y34290000D02*
X48260000Y33020000D01*
X38355000Y35560000D02*
X45720000Y35560000D01*
X38355000Y36830000D02*
X46990000Y36830000D01*
X46990000Y36830000D02*
X48260000Y35560000D01*
X38355000Y38100000D02*
X45720000Y38100000D01*
X38355000Y39370000D02*
X46990000Y39370000D01*
X46990000Y39370000D02*
X48260000Y38100000D01*
X45720000Y55880000D02*
X44450000Y55880000D01*
X44450000Y55880000D02*
X42545000Y53975000D01*
X42545000Y53975000D02*
X38355000Y53975000D01*
X48260000Y53340000D02*
X46990000Y54610000D01*
X46990000Y54610000D02*
X44450000Y54610000D01*
X44450000Y54610000D02*
X42545000Y52705000D01*
X42545000Y52705000D02*
X38355000Y52705000D01*
X48260000Y55880000D02*
X46990000Y57150000D01*
X46990000Y57150000D02*
X44450000Y57150000D01*
X44450000Y57150000D02*
X42545000Y55245000D01*
X42545000Y55245000D02*
X38355000Y55245000D01*
X38355000Y40640000D02*
X45720000Y40640000D01*
X12445000Y31750000D02*
X3810000Y31750000D01*
X3810000Y31750000D02*
X2540000Y30480000D01*
X12445000Y13335000D02*
X7620000Y13335000D01*
X3810000Y13970000D02*
X2540000Y12700000D01*
X6985000Y13970000D02*
X3810000Y13970000D01*
X7620000Y13335000D02*
X6985000Y13970000D01*
X12445000Y14605000D02*
X7620000Y14605000D01*
X6985000Y15240000D02*
X5080000Y15240000D01*
X7620000Y14605000D02*
X6985000Y15240000D01*
X13335000Y71755000D02*
X12065000Y70485000D01*
X13335000Y74295000D02*
X13335000Y71755000D01*
X12065000Y70485000D02*
X10795000Y70485000D01*
X10795000Y70485000D02*
X8890000Y68580000D01*
X8890000Y68580000D02*
X7375000Y68580000D01*
X18415000Y68580000D02*
X18415000Y74295000D01*
X17780000Y67945000D02*
X18415000Y68580000D01*
X10795000Y67945000D02*
X17780000Y67945000D01*
X7375000Y66294000D02*
X9144000Y66294000D01*
X9144000Y66294000D02*
X10795000Y67945000D01*
X43180000Y68580000D02*
X44695000Y68580000D01*
X42164000Y69596000D02*
X43180000Y68580000D01*
X38989000Y69596000D02*
X42164000Y69596000D01*
X23495000Y74295000D02*
X25908000Y71882000D01*
X36703000Y71882000D02*
X38989000Y69596000D01*
X25908000Y71882000D02*
X36703000Y71882000D01*
D27*
X6350000Y48260000D02*
X5080000Y48260000D01*
X7758000Y46852000D02*
X7758000Y45720000D01*
X6350000Y48260000D02*
X7758000Y46852000D01*
X45720000Y25400000D02*
X45085000Y25400000D01*
X43180000Y27940000D02*
X45720000Y25400000D01*
X43160000Y27940000D02*
X43180000Y27940000D01*
D25*
X45720000Y67065000D02*
X46745000Y66040000D01*
X45720000Y70485000D02*
X45720000Y67065000D01*
X46355000Y74295000D02*
X45085000Y73025000D01*
X45085000Y71120000D02*
X45720000Y70485000D01*
X45085000Y73025000D02*
X45085000Y71120000D01*
X45720000Y65015000D02*
X46745000Y66040000D01*
X45720000Y60960000D02*
X45720000Y65015000D01*
X48260000Y60960000D02*
X48260000Y68140000D01*
X47820000Y68580000D02*
X46745000Y68580000D01*
X48260000Y68140000D02*
X47820000Y68580000D01*
X39450000Y15240000D02*
X45720000Y15240000D01*
X38655000Y13965000D02*
X38655000Y14445000D01*
X38655000Y14445000D02*
X39450000Y15240000D01*
X38655000Y18410000D02*
X38655000Y18985000D01*
X43815000Y19685000D02*
X45720000Y17780000D01*
X39355000Y19685000D02*
X43815000Y19685000D01*
X38655000Y18985000D02*
X39355000Y19685000D01*
X8040001Y3810000D02*
X6985000Y3810000D01*
X5080000Y5715000D02*
X5080000Y12700000D01*
X6985000Y3810000D02*
X5080000Y5715000D01*
X12065000Y3810000D02*
X8040001Y3810000D01*
X8001000Y3849001D02*
X8001000Y9380000D01*
X8040001Y3810000D02*
X8001000Y3849001D01*
D24*
X41355000Y20960000D02*
X43810000Y20960000D01*
X44450000Y20320000D02*
X45720000Y20320000D01*
X43810000Y20960000D02*
X44450000Y20320000D01*
D25*
X3904999Y59784999D02*
X3904999Y65499999D01*
X2540000Y58420000D02*
X3904999Y59784999D01*
X4445000Y66040000D02*
X5325000Y66040000D01*
X3904999Y65499999D02*
X4445000Y66040000D01*
X6350000Y62230000D02*
X5080000Y60960000D01*
X6350000Y64135000D02*
X6350000Y62230000D01*
X5325000Y64008000D02*
X6223000Y64008000D01*
X6223000Y64008000D02*
X6350000Y64135000D01*
X6350000Y71890500D02*
X6350000Y64135000D01*
X4254500Y74295000D02*
X6350000Y71890500D01*
X2540000Y60960000D02*
X2540000Y67310000D01*
X3810000Y68580000D02*
X5325000Y68580000D01*
X2540000Y67310000D02*
X3810000Y68580000D01*
X40640000Y8890000D02*
X39370000Y8890000D01*
X46355000Y8255000D02*
X41275000Y8255000D01*
X41275000Y8255000D02*
X40640000Y8890000D01*
X45720000Y10795000D02*
X46355000Y10160000D01*
X43942000Y11303000D02*
X44450000Y10795000D01*
X44450000Y10795000D02*
X45720000Y10795000D01*
X46355000Y10160000D02*
X46355000Y7620000D01*
X43942000Y12573000D02*
X43942000Y11303000D01*
X41355000Y13015000D02*
X43500000Y13015000D01*
X43500000Y13015000D02*
X43942000Y12573000D01*
X46355000Y7620000D02*
X45720000Y6985000D01*
X45720000Y6985000D02*
X44205000Y6985000D01*
X46355000Y16510000D02*
X46990000Y15875000D01*
X44450000Y16510000D02*
X46355000Y16510000D01*
X41355000Y17460000D02*
X43500000Y17460000D01*
X43500000Y17460000D02*
X44450000Y16510000D01*
X46990000Y9525000D02*
X46990000Y8890000D01*
X46990000Y15875000D02*
X46990000Y9525000D01*
X46990000Y9525000D02*
X46990000Y3810000D01*
X39370000Y6350000D02*
X40640000Y5080000D01*
X40640000Y5080000D02*
X40640000Y3810000D01*
X40640000Y3810000D02*
X41275000Y3175000D01*
X41275000Y3175000D02*
X46355000Y3175000D01*
X46355000Y3175000D02*
X46990000Y3810000D01*
X44205000Y4445000D02*
X46990000Y4445000D01*
X12445000Y51435000D02*
X9525000Y51435000D01*
X9525000Y51435000D02*
X8890000Y52070000D01*
X3810000Y52070000D02*
X2540000Y50800000D01*
X8890000Y52070000D02*
X3810000Y52070000D01*
X20320000Y49911000D02*
X20574000Y50165000D01*
X20320000Y48514000D02*
X20320000Y49911000D01*
X20574000Y50165000D02*
X21845000Y50165000D01*
X20574000Y48260000D02*
X20320000Y48514000D01*
X25400000Y47752000D02*
X24892000Y48260000D01*
X24892000Y48260000D02*
X20574000Y48260000D01*
X25400000Y45085000D02*
X25400000Y42545000D01*
X25400000Y45085000D02*
X25400000Y47752000D01*
X25400000Y44958000D02*
X25400000Y45085000D01*
X24750000Y41895000D02*
X24750000Y36195000D01*
X25400000Y42545000D02*
X24750000Y41895000D01*
X46355000Y49530000D02*
X46990000Y48895000D01*
X39497000Y46482000D02*
X42037000Y46482000D01*
X37465000Y45085000D02*
X38100000Y45085000D01*
X45085000Y49530000D02*
X46355000Y49530000D01*
X42037000Y46482000D02*
X45085000Y49530000D01*
X38100000Y45085000D02*
X39497000Y46482000D01*
X46990000Y48895000D02*
X46990000Y41910000D01*
X46990000Y41910000D02*
X48260000Y40640000D01*
X28955000Y41910000D02*
X31115000Y41910000D01*
X27305000Y51435000D02*
X28955000Y51435000D01*
X27305000Y51689000D02*
X27305000Y49403000D01*
X24130000Y53213000D02*
X25781000Y53213000D01*
X25781000Y53213000D02*
X27305000Y51689000D01*
X26543000Y46101000D02*
X26543000Y48641000D01*
X27160000Y45466000D02*
X27160000Y45484000D01*
X26543000Y48641000D02*
X27305000Y49403000D01*
X27160000Y45484000D02*
X26543000Y46101000D01*
X31115000Y45466000D02*
X29210000Y45466000D01*
X31115000Y57785000D02*
X28955000Y57785000D01*
X30353000Y50165000D02*
X28955000Y50165000D01*
X31115000Y48260000D02*
X31115000Y49403000D01*
X31115000Y49403000D02*
X30353000Y50165000D01*
X31115000Y60960000D02*
X31115000Y59690000D01*
X30480000Y59055000D02*
X28955000Y59055000D01*
X31115000Y59690000D02*
X30480000Y59055000D01*
X26543000Y56515000D02*
X21845000Y56515000D01*
X31115000Y55880000D02*
X27178000Y55880000D01*
X27178000Y55880000D02*
X26543000Y56515000D01*
X27686000Y53340000D02*
X25781000Y55245000D01*
X30607000Y53340000D02*
X27686000Y53340000D01*
X31115000Y50800000D02*
X31115000Y52832000D01*
X25781000Y55245000D02*
X21845000Y55245000D01*
X31115000Y52832000D02*
X30607000Y53340000D01*
X21845000Y52705000D02*
X22225000Y52705000D01*
X26162000Y44196000D02*
X31115000Y44196000D01*
X25908000Y44450000D02*
X26162000Y44196000D01*
X25908000Y48768000D02*
X25908000Y44450000D01*
X22606000Y52705000D02*
X23114000Y52197000D01*
X21845000Y52705000D02*
X22606000Y52705000D01*
X23114000Y52197000D02*
X25781000Y52197000D01*
X25781000Y52197000D02*
X26670000Y51308000D01*
X26670000Y51308000D02*
X26670000Y49530000D01*
X26670000Y49530000D02*
X25908000Y48768000D01*
X20574000Y51435000D02*
X21845000Y51435000D01*
X19685000Y50546000D02*
X20574000Y51435000D01*
X19685000Y48895000D02*
X19685000Y50546000D01*
X20955000Y53975000D02*
X21845000Y53975000D01*
X20574000Y53975000D02*
X21845000Y53975000D01*
X19685000Y51435000D02*
X19685000Y53086000D01*
X19685000Y53086000D02*
X20574000Y53975000D01*
X27305000Y52705000D02*
X28955000Y52705000D01*
X25400000Y54610000D02*
X27305000Y52705000D01*
X19685000Y53975000D02*
X20320000Y54610000D01*
X20320000Y54610000D02*
X25400000Y54610000D01*
X12445000Y56515000D02*
X9525000Y56515000D01*
X9525000Y56515000D02*
X8890000Y57150000D01*
X3810000Y57150000D02*
X2540000Y55880000D01*
X8890000Y57150000D02*
X3810000Y57150000D01*
X12445000Y57785000D02*
X9525000Y57785000D01*
X8890000Y58420000D02*
X5080000Y58420000D01*
X9525000Y57785000D02*
X8890000Y58420000D01*
X12445000Y55245000D02*
X9525000Y55245000D01*
X9525000Y55245000D02*
X8890000Y55880000D01*
X8890000Y55880000D02*
X5080000Y55880000D01*
X12445000Y52705000D02*
X9525000Y52705000D01*
X9525000Y52705000D02*
X8890000Y53340000D01*
X8890000Y53340000D02*
X5080000Y53340000D01*
X9523590Y53975000D02*
X8890000Y54608590D01*
X12445000Y53975000D02*
X9523590Y53975000D01*
X3808590Y54608590D02*
X2540000Y53340000D01*
X8890000Y54608590D02*
X3808590Y54608590D01*
X48260000Y50800000D02*
X46990000Y52070000D01*
X46990000Y52070000D02*
X44450000Y52070000D01*
X44450000Y52070000D02*
X42545000Y50165000D01*
X42545000Y50165000D02*
X38355000Y50165000D01*
X45720000Y50800000D02*
X45085000Y50800000D01*
X43180000Y48895000D02*
X38355000Y48895000D01*
X45085000Y50800000D02*
X43180000Y48895000D01*
X44259500Y59690000D02*
X46990000Y59690000D01*
X41719500Y57150000D02*
X44259500Y59690000D01*
X38355000Y57785000D02*
X39370000Y57785000D01*
X46990000Y59690000D02*
X48260000Y58420000D01*
X40005000Y57150000D02*
X41719500Y57150000D01*
X39370000Y57785000D02*
X40005000Y57150000D01*
X45720000Y58420000D02*
X44450000Y58420000D01*
X42545000Y56515000D02*
X38355000Y56515000D01*
X44450000Y58420000D02*
X42545000Y56515000D01*
X45720000Y53340000D02*
X44450000Y53340000D01*
X42545000Y51435000D02*
X38355000Y51435000D01*
X44450000Y53340000D02*
X42545000Y51435000D01*
M02*
