G04 #@! TF.GenerationSoftware,KiCad,Pcbnew,5.1.4-e60b266~84~ubuntu18.04.1*
G04 #@! TF.CreationDate,2019-09-22T15:45:03+01:00*
G04 #@! TF.ProjectId,6502_adapter,36353032-5f61-4646-9170-7465722e6b69,rev?*
G04 #@! TF.SameCoordinates,PX9fdfbc0PY791ddc0*
G04 #@! TF.FileFunction,Legend,Bot*
G04 #@! TF.FilePolarity,Positive*
%FSLAX46Y46*%
G04 Gerber Fmt 4.6, Leading zero omitted, Abs format (unit mm)*
G04 Created by KiCad (PCBNEW 5.1.4-e60b266~84~ubuntu18.04.1) date 2019-09-22 15:45:03*
%MOMM*%
%LPD*%
G04 APERTURE LIST*
%ADD10C,0.200000*%
%ADD11C,0.150000*%
%ADD12C,0.250000*%
%ADD13C,0.120000*%
G04 APERTURE END LIST*
D10*
X38911523Y37872143D02*
X38911523Y37991191D01*
X38852000Y38110239D01*
X38792476Y38169762D01*
X38673428Y38229286D01*
X38435333Y38288810D01*
X38137714Y38288810D01*
X37899619Y38229286D01*
X37780571Y38169762D01*
X37721047Y38110239D01*
X37661523Y37991191D01*
X37661523Y37872143D01*
X37721047Y37753096D01*
X37780571Y37693572D01*
X37899619Y37634048D01*
X38137714Y37574524D01*
X38435333Y37574524D01*
X38673428Y37634048D01*
X38792476Y37693572D01*
X38852000Y37753096D01*
X38911523Y37872143D01*
X37780571Y38824524D02*
X37721047Y38884048D01*
X37661523Y38824524D01*
X37721047Y38765000D01*
X37780571Y38824524D01*
X37661523Y38824524D01*
X37780571Y39419762D02*
X37721047Y39479286D01*
X37661523Y39419762D01*
X37721047Y39360239D01*
X37780571Y39419762D01*
X37661523Y39419762D01*
X37661523Y40015000D02*
X38911523Y40015000D01*
X37661523Y40610239D02*
X38911523Y40610239D01*
X38911523Y40907858D01*
X38852000Y41086429D01*
X38732952Y41205477D01*
X38613904Y41265000D01*
X38375809Y41324524D01*
X38197238Y41324524D01*
X37959142Y41265000D01*
X37840095Y41205477D01*
X37721047Y41086429D01*
X37661523Y40907858D01*
X37661523Y40610239D01*
X37780571Y41860239D02*
X37721047Y41919762D01*
X37661523Y41860239D01*
X37721047Y41800715D01*
X37780571Y41860239D01*
X37661523Y41860239D01*
X37780571Y42455477D02*
X37721047Y42515000D01*
X37661523Y42455477D01*
X37721047Y42395953D01*
X37780571Y42455477D01*
X37661523Y42455477D01*
X38911523Y42931667D02*
X38911523Y43705477D01*
X38435333Y43288810D01*
X38435333Y43467381D01*
X38375809Y43586429D01*
X38316285Y43645953D01*
X38197238Y43705477D01*
X37899619Y43705477D01*
X37780571Y43645953D01*
X37721047Y43586429D01*
X37661523Y43467381D01*
X37661523Y43110239D01*
X37721047Y42991191D01*
X37780571Y42931667D01*
D11*
X13970000Y59055000D02*
X6731000Y59055000D01*
X13970000Y14732000D02*
X13970000Y59055000D01*
X6731000Y14732000D02*
X13970000Y14732000D01*
X6731000Y59055000D02*
X6731000Y14732000D01*
D12*
X9588571Y54580000D02*
X8088571Y54580000D01*
X9445714Y53008572D02*
X9517142Y53080000D01*
X9588571Y53294286D01*
X9588571Y53437143D01*
X9517142Y53651429D01*
X9374285Y53794286D01*
X9231428Y53865715D01*
X8945714Y53937143D01*
X8731428Y53937143D01*
X8445714Y53865715D01*
X8302857Y53794286D01*
X8160000Y53651429D01*
X8088571Y53437143D01*
X8088571Y53294286D01*
X8160000Y53080000D01*
X8231428Y53008572D01*
X8802857Y52365715D02*
X8802857Y51865715D01*
X9588571Y51651429D02*
X9588571Y52365715D01*
X8088571Y52365715D01*
X8088571Y51651429D01*
X9017142Y51008572D02*
X9017142Y49865715D01*
X8088571Y48508572D02*
X8088571Y48794286D01*
X8160000Y48937143D01*
X8231428Y49008572D01*
X8445714Y49151429D01*
X8731428Y49222858D01*
X9302857Y49222858D01*
X9445714Y49151429D01*
X9517142Y49080000D01*
X9588571Y48937143D01*
X9588571Y48651429D01*
X9517142Y48508572D01*
X9445714Y48437143D01*
X9302857Y48365715D01*
X8945714Y48365715D01*
X8802857Y48437143D01*
X8731428Y48508572D01*
X8660000Y48651429D01*
X8660000Y48937143D01*
X8731428Y49080000D01*
X8802857Y49151429D01*
X8945714Y49222858D01*
X8088571Y47008572D02*
X8088571Y47722858D01*
X8802857Y47794286D01*
X8731428Y47722858D01*
X8660000Y47580000D01*
X8660000Y47222858D01*
X8731428Y47080000D01*
X8802857Y47008572D01*
X8945714Y46937143D01*
X9302857Y46937143D01*
X9445714Y47008572D01*
X9517142Y47080000D01*
X9588571Y47222858D01*
X9588571Y47580000D01*
X9517142Y47722858D01*
X9445714Y47794286D01*
X9445714Y45437143D02*
X9517142Y45508572D01*
X9588571Y45722858D01*
X9588571Y45865715D01*
X9517142Y46080000D01*
X9374285Y46222858D01*
X9231428Y46294286D01*
X8945714Y46365715D01*
X8731428Y46365715D01*
X8445714Y46294286D01*
X8302857Y46222858D01*
X8160000Y46080000D01*
X8088571Y45865715D01*
X8088571Y45722858D01*
X8160000Y45508572D01*
X8231428Y45437143D01*
X8088571Y44508572D02*
X8088571Y44365715D01*
X8160000Y44222858D01*
X8231428Y44151429D01*
X8374285Y44080000D01*
X8660000Y44008572D01*
X9017142Y44008572D01*
X9302857Y44080000D01*
X9445714Y44151429D01*
X9517142Y44222858D01*
X9588571Y44365715D01*
X9588571Y44508572D01*
X9517142Y44651429D01*
X9445714Y44722858D01*
X9302857Y44794286D01*
X9017142Y44865715D01*
X8660000Y44865715D01*
X8374285Y44794286D01*
X8231428Y44722858D01*
X8160000Y44651429D01*
X8088571Y44508572D01*
X8231428Y43437143D02*
X8160000Y43365715D01*
X8088571Y43222858D01*
X8088571Y42865715D01*
X8160000Y42722858D01*
X8231428Y42651429D01*
X8374285Y42580000D01*
X8517142Y42580000D01*
X8731428Y42651429D01*
X9588571Y43508572D01*
X9588571Y42580000D01*
X9588571Y40794286D02*
X8088571Y40794286D01*
X8588571Y40080000D02*
X9588571Y40080000D01*
X8731428Y40080000D02*
X8660000Y40008572D01*
X8588571Y39865715D01*
X8588571Y39651429D01*
X8660000Y39508572D01*
X8802857Y39437143D01*
X9588571Y39437143D01*
X9017142Y38722858D02*
X9017142Y37580000D01*
X9445714Y36008572D02*
X9517142Y36080000D01*
X9588571Y36294286D01*
X9588571Y36437143D01*
X9517142Y36651429D01*
X9374285Y36794286D01*
X9231428Y36865715D01*
X8945714Y36937143D01*
X8731428Y36937143D01*
X8445714Y36865715D01*
X8302857Y36794286D01*
X8160000Y36651429D01*
X8088571Y36437143D01*
X8088571Y36294286D01*
X8160000Y36080000D01*
X8231428Y36008572D01*
X9588571Y35365715D02*
X8588571Y35365715D01*
X8088571Y35365715D02*
X8160000Y35437143D01*
X8231428Y35365715D01*
X8160000Y35294286D01*
X8088571Y35365715D01*
X8231428Y35365715D01*
X9588571Y34651429D02*
X8588571Y34651429D01*
X8874285Y34651429D02*
X8731428Y34580000D01*
X8660000Y34508572D01*
X8588571Y34365715D01*
X8588571Y34222858D01*
X9517142Y33080000D02*
X9588571Y33222858D01*
X9588571Y33508572D01*
X9517142Y33651429D01*
X9445714Y33722858D01*
X9302857Y33794286D01*
X8874285Y33794286D01*
X8731428Y33722858D01*
X8660000Y33651429D01*
X8588571Y33508572D01*
X8588571Y33222858D01*
X8660000Y33080000D01*
X8588571Y31794286D02*
X9588571Y31794286D01*
X8588571Y32437143D02*
X9374285Y32437143D01*
X9517142Y32365715D01*
X9588571Y32222858D01*
X9588571Y32008572D01*
X9517142Y31865715D01*
X9445714Y31794286D01*
X9588571Y31080000D02*
X8588571Y31080000D01*
X8088571Y31080000D02*
X8160000Y31151429D01*
X8231428Y31080000D01*
X8160000Y31008572D01*
X8088571Y31080000D01*
X8231428Y31080000D01*
X8588571Y30580000D02*
X8588571Y30008572D01*
X8088571Y30365715D02*
X9374285Y30365715D01*
X9517142Y30294286D01*
X9588571Y30151429D01*
X9588571Y30008572D01*
X8802857Y28365715D02*
X8802857Y27865715D01*
X9588571Y27651429D02*
X9588571Y28365715D01*
X8088571Y28365715D01*
X8088571Y27651429D01*
X9588571Y27008572D02*
X8588571Y27008572D01*
X8731428Y27008572D02*
X8660000Y26937143D01*
X8588571Y26794286D01*
X8588571Y26580000D01*
X8660000Y26437143D01*
X8802857Y26365715D01*
X9588571Y26365715D01*
X8802857Y26365715D02*
X8660000Y26294286D01*
X8588571Y26151429D01*
X8588571Y25937143D01*
X8660000Y25794286D01*
X8802857Y25722858D01*
X9588571Y25722858D01*
X8588571Y24365715D02*
X9588571Y24365715D01*
X8588571Y25008572D02*
X9374285Y25008572D01*
X9517142Y24937143D01*
X9588571Y24794286D01*
X9588571Y24580000D01*
X9517142Y24437143D01*
X9445714Y24365715D01*
X9588571Y23437143D02*
X9517142Y23580000D01*
X9374285Y23651429D01*
X8088571Y23651429D01*
X9588571Y22222858D02*
X8802857Y22222858D01*
X8660000Y22294286D01*
X8588571Y22437143D01*
X8588571Y22722858D01*
X8660000Y22865715D01*
X9517142Y22222858D02*
X9588571Y22365715D01*
X9588571Y22722858D01*
X9517142Y22865715D01*
X9374285Y22937143D01*
X9231428Y22937143D01*
X9088571Y22865715D01*
X9017142Y22722858D01*
X9017142Y22365715D01*
X8945714Y22222858D01*
X8588571Y21722858D02*
X8588571Y21151429D01*
X8088571Y21508572D02*
X9374285Y21508572D01*
X9517142Y21437143D01*
X9588571Y21294286D01*
X9588571Y21151429D01*
X9588571Y20437143D02*
X9517142Y20580000D01*
X9445714Y20651429D01*
X9302857Y20722858D01*
X8874285Y20722858D01*
X8731428Y20651429D01*
X8660000Y20580000D01*
X8588571Y20437143D01*
X8588571Y20222858D01*
X8660000Y20080000D01*
X8731428Y20008572D01*
X8874285Y19937143D01*
X9302857Y19937143D01*
X9445714Y20008572D01*
X9517142Y20080000D01*
X9588571Y20222858D01*
X9588571Y20437143D01*
X9588571Y19294286D02*
X8588571Y19294286D01*
X8874285Y19294286D02*
X8731428Y19222858D01*
X8660000Y19151429D01*
X8588571Y19008572D01*
X8588571Y18865715D01*
X10945714Y53365715D02*
X10874285Y53508572D01*
X10874285Y53794286D01*
X10945714Y53937143D01*
X11088571Y54080000D01*
X11231428Y54151429D01*
X11517142Y54151429D01*
X11660000Y54080000D01*
X11802857Y53937143D01*
X11874285Y53794286D01*
X11874285Y53508572D01*
X11802857Y53365715D01*
X10374285Y53651429D02*
X10445714Y54008572D01*
X10660000Y54365715D01*
X11017142Y54580000D01*
X11374285Y54651429D01*
X11731428Y54580000D01*
X12088571Y54365715D01*
X12302857Y54008572D01*
X12374285Y53651429D01*
X12302857Y53294286D01*
X12088571Y52937143D01*
X11731428Y52722858D01*
X11374285Y52651429D01*
X11017142Y52722858D01*
X10660000Y52937143D01*
X10445714Y53294286D01*
X10374285Y53651429D01*
X10731428Y50937143D02*
X10660000Y50865715D01*
X10588571Y50722858D01*
X10588571Y50365715D01*
X10660000Y50222858D01*
X10731428Y50151429D01*
X10874285Y50080000D01*
X11017142Y50080000D01*
X11231428Y50151429D01*
X12088571Y51008572D01*
X12088571Y50080000D01*
X10588571Y49151429D02*
X10588571Y49008572D01*
X10660000Y48865715D01*
X10731428Y48794286D01*
X10874285Y48722858D01*
X11160000Y48651429D01*
X11517142Y48651429D01*
X11802857Y48722858D01*
X11945714Y48794286D01*
X12017142Y48865715D01*
X12088571Y49008572D01*
X12088571Y49151429D01*
X12017142Y49294286D01*
X11945714Y49365715D01*
X11802857Y49437143D01*
X11517142Y49508572D01*
X11160000Y49508572D01*
X10874285Y49437143D01*
X10731428Y49365715D01*
X10660000Y49294286D01*
X10588571Y49151429D01*
X12088571Y47222858D02*
X12088571Y48080000D01*
X12088571Y47651429D02*
X10588571Y47651429D01*
X10802857Y47794286D01*
X10945714Y47937143D01*
X11017142Y48080000D01*
X12088571Y46508572D02*
X12088571Y46222858D01*
X12017142Y46080000D01*
X11945714Y46008572D01*
X11731428Y45865715D01*
X11445714Y45794286D01*
X10874285Y45794286D01*
X10731428Y45865715D01*
X10660000Y45937143D01*
X10588571Y46080000D01*
X10588571Y46365715D01*
X10660000Y46508572D01*
X10731428Y46580000D01*
X10874285Y46651429D01*
X11231428Y46651429D01*
X11374285Y46580000D01*
X11445714Y46508572D01*
X11517142Y46365715D01*
X11517142Y46080000D01*
X11445714Y45937143D01*
X11374285Y45865715D01*
X11231428Y45794286D01*
X12088571Y44008572D02*
X10588571Y44008572D01*
X11302857Y44008572D02*
X11302857Y43151429D01*
X12088571Y43151429D02*
X10588571Y43151429D01*
X12088571Y42222858D02*
X12017142Y42365715D01*
X11945714Y42437143D01*
X11802857Y42508572D01*
X11374285Y42508572D01*
X11231428Y42437143D01*
X11160000Y42365715D01*
X11088571Y42222858D01*
X11088571Y42008572D01*
X11160000Y41865715D01*
X11231428Y41794286D01*
X11374285Y41722858D01*
X11802857Y41722858D01*
X11945714Y41794286D01*
X12017142Y41865715D01*
X12088571Y42008572D01*
X12088571Y42222858D01*
X11088571Y40437143D02*
X12302857Y40437143D01*
X12445714Y40508572D01*
X12517142Y40580000D01*
X12588571Y40722858D01*
X12588571Y40937143D01*
X12517142Y41080000D01*
X12017142Y40437143D02*
X12088571Y40580000D01*
X12088571Y40865715D01*
X12017142Y41008572D01*
X11945714Y41080000D01*
X11802857Y41151429D01*
X11374285Y41151429D01*
X11231428Y41080000D01*
X11160000Y41008572D01*
X11088571Y40865715D01*
X11088571Y40580000D01*
X11160000Y40437143D01*
X12088571Y39508572D02*
X12017142Y39651429D01*
X11874285Y39722858D01*
X10588571Y39722858D01*
X12017142Y38365715D02*
X12088571Y38508572D01*
X12088571Y38794286D01*
X12017142Y38937143D01*
X11874285Y39008572D01*
X11302857Y39008572D01*
X11160000Y38937143D01*
X11088571Y38794286D01*
X11088571Y38508572D01*
X11160000Y38365715D01*
X11302857Y38294286D01*
X11445714Y38294286D01*
X11588571Y39008572D01*
X11088571Y37865715D02*
X11088571Y37294286D01*
X10588571Y37651429D02*
X11874285Y37651429D01*
X12017142Y37580000D01*
X12088571Y37437143D01*
X12088571Y37294286D01*
X11517142Y35651429D02*
X11517142Y34508572D01*
X10588571Y32865715D02*
X12088571Y32365715D01*
X10588571Y31865715D01*
X12017142Y30794286D02*
X12088571Y30937143D01*
X12088571Y31222858D01*
X12017142Y31365715D01*
X11874285Y31437143D01*
X11302857Y31437143D01*
X11160000Y31365715D01*
X11088571Y31222858D01*
X11088571Y30937143D01*
X11160000Y30794286D01*
X11302857Y30722858D01*
X11445714Y30722858D01*
X11588571Y31437143D01*
X12088571Y30080000D02*
X11088571Y30080000D01*
X11374285Y30080000D02*
X11231428Y30008572D01*
X11160000Y29937143D01*
X11088571Y29794286D01*
X11088571Y29651429D01*
X12017142Y29222858D02*
X12088571Y29080000D01*
X12088571Y28794286D01*
X12017142Y28651429D01*
X11874285Y28580000D01*
X11802857Y28580000D01*
X11660000Y28651429D01*
X11588571Y28794286D01*
X11588571Y29008572D01*
X11517142Y29151429D01*
X11374285Y29222858D01*
X11302857Y29222858D01*
X11160000Y29151429D01*
X11088571Y29008572D01*
X11088571Y28794286D01*
X11160000Y28651429D01*
X12088571Y27937143D02*
X11088571Y27937143D01*
X10588571Y27937143D02*
X10660000Y28008572D01*
X10731428Y27937143D01*
X10660000Y27865715D01*
X10588571Y27937143D01*
X10731428Y27937143D01*
X12088571Y27008572D02*
X12017142Y27151429D01*
X11945714Y27222858D01*
X11802857Y27294286D01*
X11374285Y27294286D01*
X11231428Y27222858D01*
X11160000Y27151429D01*
X11088571Y27008572D01*
X11088571Y26794286D01*
X11160000Y26651429D01*
X11231428Y26580000D01*
X11374285Y26508572D01*
X11802857Y26508572D01*
X11945714Y26580000D01*
X12017142Y26651429D01*
X12088571Y26794286D01*
X12088571Y27008572D01*
X11088571Y25865715D02*
X12088571Y25865715D01*
X11231428Y25865715D02*
X11160000Y25794286D01*
X11088571Y25651429D01*
X11088571Y25437143D01*
X11160000Y25294286D01*
X11302857Y25222858D01*
X12088571Y25222858D01*
X12088571Y22580000D02*
X12088571Y23437143D01*
X12088571Y23008572D02*
X10588571Y23008572D01*
X10802857Y23151429D01*
X10945714Y23294286D01*
X11017142Y23437143D01*
X11945714Y21937143D02*
X12017142Y21865715D01*
X12088571Y21937143D01*
X12017142Y22008572D01*
X11945714Y21937143D01*
X12088571Y21937143D01*
X10588571Y20937143D02*
X10588571Y20794286D01*
X10660000Y20651429D01*
X10731428Y20580000D01*
X10874285Y20508572D01*
X11160000Y20437143D01*
X11517142Y20437143D01*
X11802857Y20508572D01*
X11945714Y20580000D01*
X12017142Y20651429D01*
X12088571Y20794286D01*
X12088571Y20937143D01*
X12017142Y21080000D01*
X11945714Y21151429D01*
X11802857Y21222858D01*
X11517142Y21294286D01*
X11160000Y21294286D01*
X10874285Y21222858D01*
X10731428Y21151429D01*
X10660000Y21080000D01*
X10588571Y20937143D01*
X10588571Y19508572D02*
X10588571Y19365715D01*
X10660000Y19222858D01*
X10731428Y19151429D01*
X10874285Y19080000D01*
X11160000Y19008572D01*
X11517142Y19008572D01*
X11802857Y19080000D01*
X11945714Y19151429D01*
X12017142Y19222858D01*
X12088571Y19365715D01*
X12088571Y19508572D01*
X12017142Y19651429D01*
X11945714Y19722858D01*
X11802857Y19794286D01*
X11517142Y19865715D01*
X11160000Y19865715D01*
X10874285Y19794286D01*
X10731428Y19722858D01*
X10660000Y19651429D01*
X10588571Y19508572D01*
D11*
X15240000Y65405000D02*
X17780000Y65405000D01*
X32385000Y69215000D02*
X34925000Y69215000D01*
D10*
X18227142Y69840000D02*
X18346190Y69899524D01*
X18524761Y69899524D01*
X18703333Y69840000D01*
X18822380Y69720953D01*
X18881904Y69601905D01*
X18941428Y69363810D01*
X18941428Y69185239D01*
X18881904Y68947143D01*
X18822380Y68828096D01*
X18703333Y68709048D01*
X18524761Y68649524D01*
X18405714Y68649524D01*
X18227142Y68709048D01*
X18167619Y68768572D01*
X18167619Y69185239D01*
X18405714Y69185239D01*
X17631904Y68649524D02*
X17631904Y69899524D01*
X16917619Y68649524D01*
X16917619Y69899524D01*
X16322380Y68649524D02*
X16322380Y69899524D01*
X16024761Y69899524D01*
X15846190Y69840000D01*
X15727142Y69720953D01*
X15667619Y69601905D01*
X15608095Y69363810D01*
X15608095Y69185239D01*
X15667619Y68947143D01*
X15727142Y68828096D01*
X15846190Y68709048D01*
X16024761Y68649524D01*
X16322380Y68649524D01*
X17572380Y64819524D02*
X17155714Y63569524D01*
X16739047Y64819524D01*
X16322380Y63569524D02*
X16322380Y64819524D01*
X15846190Y64819524D01*
X15727142Y64760000D01*
X15667619Y64700477D01*
X15608095Y64581429D01*
X15608095Y64402858D01*
X15667619Y64283810D01*
X15727142Y64224286D01*
X15846190Y64164762D01*
X16322380Y64164762D01*
X20191428Y66109524D02*
X20191428Y67359524D01*
X19715238Y67359524D01*
X19596190Y67300000D01*
X19536666Y67240477D01*
X19477142Y67121429D01*
X19477142Y66942858D01*
X19536666Y66823810D01*
X19596190Y66764286D01*
X19715238Y66704762D01*
X20191428Y66704762D01*
X18941428Y66109524D02*
X18941428Y66942858D01*
X18941428Y67359524D02*
X19000952Y67300000D01*
X18941428Y67240477D01*
X18881904Y67300000D01*
X18941428Y67359524D01*
X18941428Y67240477D01*
X18346190Y66942858D02*
X18346190Y66109524D01*
X18346190Y66823810D02*
X18286666Y66883334D01*
X18167619Y66942858D01*
X17989047Y66942858D01*
X17870000Y66883334D01*
X17810476Y66764286D01*
X17810476Y66109524D01*
X15608095Y66109524D02*
X16322380Y66109524D01*
X15965238Y66109524D02*
X15965238Y67359524D01*
X16084285Y67180953D01*
X16203333Y67061905D01*
X16322380Y67002381D01*
D11*
X13335000Y64135000D02*
X15240000Y64135000D01*
X13335000Y66675000D02*
X15240000Y66675000D01*
X13335000Y69215000D02*
X15240000Y69215000D01*
X34925000Y67945000D02*
X36830000Y67945000D01*
X34925000Y65405000D02*
X36830000Y65405000D01*
D10*
X34497380Y64839524D02*
X34497380Y66089524D01*
X34021190Y66089524D01*
X33902142Y66030000D01*
X33842619Y65970477D01*
X33783095Y65851429D01*
X33783095Y65672858D01*
X33842619Y65553810D01*
X33902142Y65494286D01*
X34021190Y65434762D01*
X34497380Y65434762D01*
X33247380Y64839524D02*
X33247380Y65672858D01*
X33247380Y66089524D02*
X33306904Y66030000D01*
X33247380Y65970477D01*
X33187857Y66030000D01*
X33247380Y66089524D01*
X33247380Y65970477D01*
X32652142Y65672858D02*
X32652142Y64839524D01*
X32652142Y65553810D02*
X32592619Y65613334D01*
X32473571Y65672858D01*
X32295000Y65672858D01*
X32175952Y65613334D01*
X32116428Y65494286D01*
X32116428Y64839524D01*
X29973571Y66089524D02*
X30568809Y66089524D01*
X30628333Y65494286D01*
X30568809Y65553810D01*
X30449761Y65613334D01*
X30152142Y65613334D01*
X30033095Y65553810D01*
X29973571Y65494286D01*
X29914047Y65375239D01*
X29914047Y65077620D01*
X29973571Y64958572D01*
X30033095Y64899048D01*
X30152142Y64839524D01*
X30449761Y64839524D01*
X30568809Y64899048D01*
X30628333Y64958572D01*
X34497380Y67379524D02*
X34497380Y68629524D01*
X34080714Y67736667D01*
X33664047Y68629524D01*
X33664047Y67379524D01*
X32473571Y67379524D02*
X33068809Y67379524D01*
X33068809Y68629524D01*
D11*
X13335000Y3810000D02*
X15240000Y3810000D01*
X13335000Y6350000D02*
X15240000Y6350000D01*
D10*
X19834285Y3244524D02*
X19834285Y4494524D01*
X19417619Y3601667D01*
X19000952Y4494524D01*
X19000952Y3244524D01*
X18227142Y3244524D02*
X18346190Y3304048D01*
X18405714Y3363572D01*
X18465238Y3482620D01*
X18465238Y3839762D01*
X18405714Y3958810D01*
X18346190Y4018334D01*
X18227142Y4077858D01*
X18048571Y4077858D01*
X17929523Y4018334D01*
X17870000Y3958810D01*
X17810476Y3839762D01*
X17810476Y3482620D01*
X17870000Y3363572D01*
X17929523Y3304048D01*
X18048571Y3244524D01*
X18227142Y3244524D01*
X16739047Y3244524D02*
X16739047Y4494524D01*
X16739047Y3304048D02*
X16858095Y3244524D01*
X17096190Y3244524D01*
X17215238Y3304048D01*
X17274761Y3363572D01*
X17334285Y3482620D01*
X17334285Y3839762D01*
X17274761Y3958810D01*
X17215238Y4018334D01*
X17096190Y4077858D01*
X16858095Y4077858D01*
X16739047Y4018334D01*
X15667619Y3304048D02*
X15786666Y3244524D01*
X16024761Y3244524D01*
X16143809Y3304048D01*
X16203333Y3423096D01*
X16203333Y3899286D01*
X16143809Y4018334D01*
X16024761Y4077858D01*
X15786666Y4077858D01*
X15667619Y4018334D01*
X15608095Y3899286D01*
X15608095Y3780239D01*
X16203333Y3661191D01*
X18227142Y6975000D02*
X18346190Y7034524D01*
X18524761Y7034524D01*
X18703333Y6975000D01*
X18822380Y6855953D01*
X18881904Y6736905D01*
X18941428Y6498810D01*
X18941428Y6320239D01*
X18881904Y6082143D01*
X18822380Y5963096D01*
X18703333Y5844048D01*
X18524761Y5784524D01*
X18405714Y5784524D01*
X18227142Y5844048D01*
X18167619Y5903572D01*
X18167619Y6320239D01*
X18405714Y6320239D01*
X17631904Y5784524D02*
X17631904Y7034524D01*
X16917619Y5784524D01*
X16917619Y7034524D01*
X16322380Y5784524D02*
X16322380Y7034524D01*
X16024761Y7034524D01*
X15846190Y6975000D01*
X15727142Y6855953D01*
X15667619Y6736905D01*
X15608095Y6498810D01*
X15608095Y6320239D01*
X15667619Y6082143D01*
X15727142Y5963096D01*
X15846190Y5844048D01*
X16024761Y5784524D01*
X16322380Y5784524D01*
D11*
X36195000Y3810000D02*
X38100000Y3810000D01*
X36195000Y6350000D02*
X38100000Y6350000D01*
X36195000Y8890000D02*
X38100000Y8890000D01*
D10*
X35945952Y7034524D02*
X35231666Y7034524D01*
X35588809Y5784524D02*
X35588809Y7034524D01*
X34815000Y5784524D02*
X34815000Y6617858D01*
X34815000Y6379762D02*
X34755476Y6498810D01*
X34695952Y6558334D01*
X34576904Y6617858D01*
X34457857Y6617858D01*
X34041190Y5784524D02*
X34041190Y6617858D01*
X34041190Y7034524D02*
X34100714Y6975000D01*
X34041190Y6915477D01*
X33981666Y6975000D01*
X34041190Y7034524D01*
X34041190Y6915477D01*
X32910238Y6617858D02*
X32910238Y5605953D01*
X32969761Y5486905D01*
X33029285Y5427381D01*
X33148333Y5367858D01*
X33326904Y5367858D01*
X33445952Y5427381D01*
X32910238Y5844048D02*
X33029285Y5784524D01*
X33267380Y5784524D01*
X33386428Y5844048D01*
X33445952Y5903572D01*
X33505476Y6022620D01*
X33505476Y6379762D01*
X33445952Y6498810D01*
X33386428Y6558334D01*
X33267380Y6617858D01*
X33029285Y6617858D01*
X32910238Y6558334D01*
X32076904Y7034524D02*
X31957857Y7034524D01*
X31838809Y6975000D01*
X31779285Y6915477D01*
X31719761Y6796429D01*
X31660238Y6558334D01*
X31660238Y6260715D01*
X31719761Y6022620D01*
X31779285Y5903572D01*
X31838809Y5844048D01*
X31957857Y5784524D01*
X32076904Y5784524D01*
X32195952Y5844048D01*
X32255476Y5903572D01*
X32315000Y6022620D01*
X32374523Y6260715D01*
X32374523Y6558334D01*
X32315000Y6796429D01*
X32255476Y6915477D01*
X32195952Y6975000D01*
X32076904Y7034524D01*
X35112619Y4435000D02*
X35231666Y4494524D01*
X35410238Y4494524D01*
X35588809Y4435000D01*
X35707857Y4315953D01*
X35767380Y4196905D01*
X35826904Y3958810D01*
X35826904Y3780239D01*
X35767380Y3542143D01*
X35707857Y3423096D01*
X35588809Y3304048D01*
X35410238Y3244524D01*
X35291190Y3244524D01*
X35112619Y3304048D01*
X35053095Y3363572D01*
X35053095Y3780239D01*
X35291190Y3780239D01*
X34517380Y3244524D02*
X34517380Y4494524D01*
X33803095Y3244524D01*
X33803095Y4494524D01*
X33207857Y3244524D02*
X33207857Y4494524D01*
X32910238Y4494524D01*
X32731666Y4435000D01*
X32612619Y4315953D01*
X32553095Y4196905D01*
X32493571Y3958810D01*
X32493571Y3780239D01*
X32553095Y3542143D01*
X32612619Y3423096D01*
X32731666Y3304048D01*
X32910238Y3244524D01*
X33207857Y3244524D01*
X35945952Y9574524D02*
X35231666Y9574524D01*
X35588809Y8324524D02*
X35588809Y9574524D01*
X34815000Y8324524D02*
X34815000Y9157858D01*
X34815000Y8919762D02*
X34755476Y9038810D01*
X34695952Y9098334D01*
X34576904Y9157858D01*
X34457857Y9157858D01*
X34041190Y8324524D02*
X34041190Y9157858D01*
X34041190Y9574524D02*
X34100714Y9515000D01*
X34041190Y9455477D01*
X33981666Y9515000D01*
X34041190Y9574524D01*
X34041190Y9455477D01*
X32910238Y9157858D02*
X32910238Y8145953D01*
X32969761Y8026905D01*
X33029285Y7967381D01*
X33148333Y7907858D01*
X33326904Y7907858D01*
X33445952Y7967381D01*
X32910238Y8384048D02*
X33029285Y8324524D01*
X33267380Y8324524D01*
X33386428Y8384048D01*
X33445952Y8443572D01*
X33505476Y8562620D01*
X33505476Y8919762D01*
X33445952Y9038810D01*
X33386428Y9098334D01*
X33267380Y9157858D01*
X33029285Y9157858D01*
X32910238Y9098334D01*
X31660238Y8324524D02*
X32374523Y8324524D01*
X32017380Y8324524D02*
X32017380Y9574524D01*
X32136428Y9395953D01*
X32255476Y9276905D01*
X32374523Y9217381D01*
D13*
X41013748Y45160000D02*
X41536252Y45160000D01*
X41013748Y43740000D02*
X41536252Y43740000D01*
X41013748Y42620000D02*
X41536252Y42620000D01*
X41013748Y41200000D02*
X41536252Y41200000D01*
X41013748Y40080000D02*
X41536252Y40080000D01*
X41013748Y38660000D02*
X41536252Y38660000D01*
X41013748Y37540000D02*
X41536252Y37540000D01*
X41013748Y36120000D02*
X41536252Y36120000D01*
D11*
X19050000Y60960000D02*
X31750000Y60960000D01*
X19050000Y12700000D02*
X19050000Y60960000D01*
X31750000Y12700000D02*
X19050000Y12700000D01*
X31750000Y60960000D02*
X31750000Y12700000D01*
X26670000Y60960000D02*
G75*
G02X25400000Y59690000I-1270000J0D01*
G01*
X25400000Y59690000D02*
G75*
G02X24130000Y60960000I0J1270000D01*
G01*
D13*
X13335000Y7620000D02*
X12065000Y7620000D01*
X13335000Y6350000D02*
X13335000Y7620000D01*
X11022071Y3430000D02*
X10625000Y3430000D01*
X11022071Y4190000D02*
X10625000Y4190000D01*
X1965000Y3430000D02*
X7965000Y3430000D01*
X1965000Y4190000D02*
X1965000Y3430000D01*
X7965000Y4190000D02*
X1965000Y4190000D01*
X10625000Y5080000D02*
X7965000Y5080000D01*
X10955000Y5970000D02*
X10625000Y5970000D01*
X10955000Y6730000D02*
X10625000Y6730000D01*
X7965000Y6070000D02*
X1965000Y6070000D01*
X7965000Y6190000D02*
X1965000Y6190000D01*
X7965000Y6310000D02*
X1965000Y6310000D01*
X7965000Y6430000D02*
X1965000Y6430000D01*
X7965000Y6550000D02*
X1965000Y6550000D01*
X7965000Y6670000D02*
X1965000Y6670000D01*
X1965000Y5970000D02*
X7965000Y5970000D01*
X1965000Y6730000D02*
X1965000Y5970000D01*
X7965000Y6730000D02*
X1965000Y6730000D01*
X7965000Y7680000D02*
X10625000Y7680000D01*
X7965000Y2480000D02*
X7965000Y7680000D01*
X10625000Y2480000D02*
X7965000Y2480000D01*
X10625000Y7680000D02*
X10625000Y2480000D01*
X38100000Y2540000D02*
X39370000Y2540000D01*
X38100000Y3810000D02*
X38100000Y2540000D01*
X40412929Y9270000D02*
X40810000Y9270000D01*
X40412929Y8510000D02*
X40810000Y8510000D01*
X49470000Y9270000D02*
X43470000Y9270000D01*
X49470000Y8510000D02*
X49470000Y9270000D01*
X43470000Y8510000D02*
X49470000Y8510000D01*
X40810000Y7620000D02*
X43470000Y7620000D01*
X40412929Y6730000D02*
X40810000Y6730000D01*
X40412929Y5970000D02*
X40810000Y5970000D01*
X49470000Y6730000D02*
X43470000Y6730000D01*
X49470000Y5970000D02*
X49470000Y6730000D01*
X43470000Y5970000D02*
X49470000Y5970000D01*
X40810000Y5080000D02*
X43470000Y5080000D01*
X40480000Y4190000D02*
X40810000Y4190000D01*
X40480000Y3430000D02*
X40810000Y3430000D01*
X43470000Y4090000D02*
X49470000Y4090000D01*
X43470000Y3970000D02*
X49470000Y3970000D01*
X43470000Y3850000D02*
X49470000Y3850000D01*
X43470000Y3730000D02*
X49470000Y3730000D01*
X43470000Y3610000D02*
X49470000Y3610000D01*
X43470000Y3490000D02*
X49470000Y3490000D01*
X49470000Y4190000D02*
X43470000Y4190000D01*
X49470000Y3430000D02*
X49470000Y4190000D01*
X43470000Y3430000D02*
X49470000Y3430000D01*
X43470000Y2480000D02*
X40810000Y2480000D01*
X43470000Y10220000D02*
X43470000Y2480000D01*
X40810000Y10220000D02*
X43470000Y10220000D01*
X40810000Y2480000D02*
X40810000Y10220000D01*
X36830000Y64135000D02*
X38100000Y64135000D01*
X36830000Y65405000D02*
X36830000Y64135000D01*
X39142929Y68325000D02*
X39540000Y68325000D01*
X39142929Y67565000D02*
X39540000Y67565000D01*
X48200000Y68325000D02*
X42200000Y68325000D01*
X48200000Y67565000D02*
X48200000Y68325000D01*
X42200000Y67565000D02*
X48200000Y67565000D01*
X39540000Y66675000D02*
X42200000Y66675000D01*
X39210000Y65785000D02*
X39540000Y65785000D01*
X39210000Y65025000D02*
X39540000Y65025000D01*
X42200000Y65685000D02*
X48200000Y65685000D01*
X42200000Y65565000D02*
X48200000Y65565000D01*
X42200000Y65445000D02*
X48200000Y65445000D01*
X42200000Y65325000D02*
X48200000Y65325000D01*
X42200000Y65205000D02*
X48200000Y65205000D01*
X42200000Y65085000D02*
X48200000Y65085000D01*
X48200000Y65785000D02*
X42200000Y65785000D01*
X48200000Y65025000D02*
X48200000Y65785000D01*
X42200000Y65025000D02*
X48200000Y65025000D01*
X42200000Y64075000D02*
X39540000Y64075000D01*
X42200000Y69275000D02*
X42200000Y64075000D01*
X39540000Y69275000D02*
X42200000Y69275000D01*
X39540000Y64075000D02*
X39540000Y69275000D01*
X13335000Y70485000D02*
X12065000Y70485000D01*
X13335000Y69215000D02*
X13335000Y70485000D01*
X11022071Y63755000D02*
X10625000Y63755000D01*
X11022071Y64515000D02*
X10625000Y64515000D01*
X1965000Y63755000D02*
X7965000Y63755000D01*
X1965000Y64515000D02*
X1965000Y63755000D01*
X7965000Y64515000D02*
X1965000Y64515000D01*
X10625000Y65405000D02*
X7965000Y65405000D01*
X11022071Y66295000D02*
X10625000Y66295000D01*
X11022071Y67055000D02*
X10625000Y67055000D01*
X1965000Y66295000D02*
X7965000Y66295000D01*
X1965000Y67055000D02*
X1965000Y66295000D01*
X7965000Y67055000D02*
X1965000Y67055000D01*
X10625000Y67945000D02*
X7965000Y67945000D01*
X10955000Y68835000D02*
X10625000Y68835000D01*
X10955000Y69595000D02*
X10625000Y69595000D01*
X7965000Y68935000D02*
X1965000Y68935000D01*
X7965000Y69055000D02*
X1965000Y69055000D01*
X7965000Y69175000D02*
X1965000Y69175000D01*
X7965000Y69295000D02*
X1965000Y69295000D01*
X7965000Y69415000D02*
X1965000Y69415000D01*
X7965000Y69535000D02*
X1965000Y69535000D01*
X1965000Y68835000D02*
X7965000Y68835000D01*
X1965000Y69595000D02*
X1965000Y68835000D01*
X7965000Y69595000D02*
X1965000Y69595000D01*
X7965000Y70545000D02*
X10625000Y70545000D01*
X7965000Y62805000D02*
X7965000Y70545000D01*
X10625000Y62805000D02*
X7965000Y62805000D01*
X10625000Y70545000D02*
X10625000Y62805000D01*
D11*
X41917857Y48061620D02*
X42251190Y48537810D01*
X42489285Y48061620D02*
X42489285Y49061620D01*
X42108333Y49061620D01*
X42013095Y49014000D01*
X41965476Y48966381D01*
X41917857Y48871143D01*
X41917857Y48728286D01*
X41965476Y48633048D01*
X42013095Y48585429D01*
X42108333Y48537810D01*
X42489285Y48537810D01*
X40965476Y48061620D02*
X41536904Y48061620D01*
X41251190Y48061620D02*
X41251190Y49061620D01*
X41346428Y48918762D01*
X41441666Y48823524D01*
X41536904Y48775905D01*
X40632142Y49061620D02*
X40013095Y49061620D01*
X40346428Y48680667D01*
X40203571Y48680667D01*
X40108333Y48633048D01*
X40060714Y48585429D01*
X40013095Y48490191D01*
X40013095Y48252096D01*
X40060714Y48156858D01*
X40108333Y48109239D01*
X40203571Y48061620D01*
X40489285Y48061620D01*
X40584523Y48109239D01*
X40632142Y48156858D01*
X41917857Y46156620D02*
X42251190Y46632810D01*
X42489285Y46156620D02*
X42489285Y47156620D01*
X42108333Y47156620D01*
X42013095Y47109000D01*
X41965476Y47061381D01*
X41917857Y46966143D01*
X41917857Y46823286D01*
X41965476Y46728048D01*
X42013095Y46680429D01*
X42108333Y46632810D01*
X42489285Y46632810D01*
X40965476Y46156620D02*
X41536904Y46156620D01*
X41251190Y46156620D02*
X41251190Y47156620D01*
X41346428Y47013762D01*
X41441666Y46918524D01*
X41536904Y46870905D01*
X40584523Y47061381D02*
X40536904Y47109000D01*
X40441666Y47156620D01*
X40203571Y47156620D01*
X40108333Y47109000D01*
X40060714Y47061381D01*
X40013095Y46966143D01*
X40013095Y46870905D01*
X40060714Y46728048D01*
X40632142Y46156620D01*
X40013095Y46156620D01*
X41917857Y34345620D02*
X42251190Y34821810D01*
X42489285Y34345620D02*
X42489285Y35345620D01*
X42108333Y35345620D01*
X42013095Y35298000D01*
X41965476Y35250381D01*
X41917857Y35155143D01*
X41917857Y35012286D01*
X41965476Y34917048D01*
X42013095Y34869429D01*
X42108333Y34821810D01*
X42489285Y34821810D01*
X40965476Y34345620D02*
X41536904Y34345620D01*
X41251190Y34345620D02*
X41251190Y35345620D01*
X41346428Y35202762D01*
X41441666Y35107524D01*
X41536904Y35059905D01*
X40013095Y34345620D02*
X40584523Y34345620D01*
X40298809Y34345620D02*
X40298809Y35345620D01*
X40394047Y35202762D01*
X40489285Y35107524D01*
X40584523Y35059905D01*
X41917857Y32440620D02*
X42251190Y32916810D01*
X42489285Y32440620D02*
X42489285Y33440620D01*
X42108333Y33440620D01*
X42013095Y33393000D01*
X41965476Y33345381D01*
X41917857Y33250143D01*
X41917857Y33107286D01*
X41965476Y33012048D01*
X42013095Y32964429D01*
X42108333Y32916810D01*
X42489285Y32916810D01*
X40965476Y32440620D02*
X41536904Y32440620D01*
X41251190Y32440620D02*
X41251190Y33440620D01*
X41346428Y33297762D01*
X41441666Y33202524D01*
X41536904Y33154905D01*
X40346428Y33440620D02*
X40251190Y33440620D01*
X40155952Y33393000D01*
X40108333Y33345381D01*
X40060714Y33250143D01*
X40013095Y33059667D01*
X40013095Y32821572D01*
X40060714Y32631096D01*
X40108333Y32535858D01*
X40155952Y32488239D01*
X40251190Y32440620D01*
X40346428Y32440620D01*
X40441666Y32488239D01*
X40489285Y32535858D01*
X40536904Y32631096D01*
X40584523Y32821572D01*
X40584523Y33059667D01*
X40536904Y33250143D01*
X40489285Y33345381D01*
X40441666Y33393000D01*
X40346428Y33440620D01*
X26161904Y63412620D02*
X26161904Y62603096D01*
X26114285Y62507858D01*
X26066666Y62460239D01*
X25971428Y62412620D01*
X25780952Y62412620D01*
X25685714Y62460239D01*
X25638095Y62507858D01*
X25590476Y62603096D01*
X25590476Y63412620D01*
X24590476Y62412620D02*
X25161904Y62412620D01*
X24876190Y62412620D02*
X24876190Y63412620D01*
X24971428Y63269762D01*
X25066666Y63174524D01*
X25161904Y63126905D01*
X9556666Y8437620D02*
X10032857Y8437620D01*
X10032857Y9437620D01*
X9223333Y8437620D02*
X9223333Y9437620D01*
X8651904Y8437620D02*
X9080476Y9009048D01*
X8651904Y9437620D02*
X9223333Y8866191D01*
X8318571Y9437620D02*
X7699523Y9437620D01*
X8032857Y9056667D01*
X7890000Y9056667D01*
X7794761Y9009048D01*
X7747142Y8961429D01*
X7699523Y8866191D01*
X7699523Y8628096D01*
X7747142Y8532858D01*
X7794761Y8485239D01*
X7890000Y8437620D01*
X8175714Y8437620D01*
X8270952Y8485239D01*
X8318571Y8532858D01*
X42013095Y10977620D02*
X42013095Y11977620D01*
X41632142Y11977620D01*
X41536904Y11930000D01*
X41489285Y11882381D01*
X41441666Y11787143D01*
X41441666Y11644286D01*
X41489285Y11549048D01*
X41536904Y11501429D01*
X41632142Y11453810D01*
X42013095Y11453810D01*
X41108333Y11977620D02*
X40489285Y11977620D01*
X40822619Y11596667D01*
X40679761Y11596667D01*
X40584523Y11549048D01*
X40536904Y11501429D01*
X40489285Y11406191D01*
X40489285Y11168096D01*
X40536904Y11072858D01*
X40584523Y11025239D01*
X40679761Y10977620D01*
X40965476Y10977620D01*
X41060714Y11025239D01*
X41108333Y11072858D01*
X41306666Y62412620D02*
X41782857Y62412620D01*
X41782857Y63412620D01*
X40973333Y62412620D02*
X40973333Y63412620D01*
X40401904Y62412620D02*
X40830476Y62984048D01*
X40401904Y63412620D02*
X40973333Y62841191D01*
X40020952Y63317381D02*
X39973333Y63365000D01*
X39878095Y63412620D01*
X39640000Y63412620D01*
X39544761Y63365000D01*
X39497142Y63317381D01*
X39449523Y63222143D01*
X39449523Y63126905D01*
X39497142Y62984048D01*
X40068571Y62412620D01*
X39449523Y62412620D01*
X9556666Y61142620D02*
X10032857Y61142620D01*
X10032857Y62142620D01*
X9223333Y61142620D02*
X9223333Y62142620D01*
X8651904Y61142620D02*
X9080476Y61714048D01*
X8651904Y62142620D02*
X9223333Y61571191D01*
X7699523Y61142620D02*
X8270952Y61142620D01*
X7985238Y61142620D02*
X7985238Y62142620D01*
X8080476Y61999762D01*
X8175714Y61904524D01*
X8270952Y61856905D01*
M02*
