G04 #@! TF.GenerationSoftware,KiCad,Pcbnew,5.1.4-e60b266~84~ubuntu18.04.1*
G04 #@! TF.CreationDate,2019-10-24T10:36:49+01:00*
G04 #@! TF.ProjectId,6502_adapter,36353032-5f61-4646-9170-7465722e6b69,rev?*
G04 #@! TF.SameCoordinates,PX9fdfbc0PY791ddc0*
G04 #@! TF.FileFunction,Legend,Top*
G04 #@! TF.FilePolarity,Positive*
%FSLAX46Y46*%
G04 Gerber Fmt 4.6, Leading zero omitted, Abs format (unit mm)*
G04 Created by KiCad (PCBNEW 5.1.4-e60b266~84~ubuntu18.04.1) date 2019-10-24 10:36:49*
%MOMM*%
%LPD*%
G04 APERTURE LIST*
%ADD10C,0.150000*%
%ADD11C,0.200000*%
%ADD12C,0.120000*%
G04 APERTURE END LIST*
D10*
X26971666Y26852620D02*
X26971666Y27376429D01*
X26924047Y27471667D01*
X26828809Y27519286D01*
X26638333Y27519286D01*
X26543095Y27471667D01*
X26971666Y26900239D02*
X26876428Y26852620D01*
X26638333Y26852620D01*
X26543095Y26900239D01*
X26495476Y26995477D01*
X26495476Y27090715D01*
X26543095Y27185953D01*
X26638333Y27233572D01*
X26876428Y27233572D01*
X26971666Y27281191D01*
X27590714Y26852620D02*
X27495476Y26900239D01*
X27447857Y26995477D01*
X27447857Y27852620D01*
X27828809Y27519286D02*
X28209761Y27519286D01*
X27971666Y27852620D02*
X27971666Y26995477D01*
X28019285Y26900239D01*
X28114523Y26852620D01*
X28209761Y26852620D01*
X26035000Y33020000D02*
X26035000Y24765000D01*
X27239976Y25565620D02*
X27430452Y25565620D01*
X27525690Y25518000D01*
X27620928Y25422762D01*
X27668547Y25232286D01*
X27668547Y24898953D01*
X27620928Y24708477D01*
X27525690Y24613239D01*
X27430452Y24565620D01*
X27239976Y24565620D01*
X27144738Y24613239D01*
X27049500Y24708477D01*
X27001880Y24898953D01*
X27001880Y25232286D01*
X27049500Y25422762D01*
X27144738Y25518000D01*
X27239976Y25565620D01*
X28097119Y25232286D02*
X28097119Y24232286D01*
X28097119Y25184667D02*
X28192357Y25232286D01*
X28382833Y25232286D01*
X28478071Y25184667D01*
X28525690Y25137048D01*
X28573309Y25041810D01*
X28573309Y24756096D01*
X28525690Y24660858D01*
X28478071Y24613239D01*
X28382833Y24565620D01*
X28192357Y24565620D01*
X28097119Y24613239D01*
X28859023Y25232286D02*
X29239976Y25232286D01*
X29001880Y25565620D02*
X29001880Y24708477D01*
X29049500Y24613239D01*
X29144738Y24565620D01*
X29239976Y24565620D01*
X29573309Y24565620D02*
X29573309Y25232286D01*
X29573309Y25565620D02*
X29525690Y25518000D01*
X29573309Y25470381D01*
X29620928Y25518000D01*
X29573309Y25565620D01*
X29573309Y25470381D01*
X30192357Y24565620D02*
X30097119Y24613239D01*
X30049500Y24660858D01*
X30001880Y24756096D01*
X30001880Y25041810D01*
X30049500Y25137048D01*
X30097119Y25184667D01*
X30192357Y25232286D01*
X30335214Y25232286D01*
X30430452Y25184667D01*
X30478071Y25137048D01*
X30525690Y25041810D01*
X30525690Y24756096D01*
X30478071Y24660858D01*
X30430452Y24613239D01*
X30335214Y24565620D01*
X30192357Y24565620D01*
X30954261Y25232286D02*
X30954261Y24565620D01*
X30954261Y25137048D02*
X31001880Y25184667D01*
X31097119Y25232286D01*
X31239976Y25232286D01*
X31335214Y25184667D01*
X31382833Y25089429D01*
X31382833Y24565620D01*
X32287595Y24565620D02*
X32287595Y25089429D01*
X32239976Y25184667D01*
X32144738Y25232286D01*
X31954261Y25232286D01*
X31859023Y25184667D01*
X32287595Y24613239D02*
X32192357Y24565620D01*
X31954261Y24565620D01*
X31859023Y24613239D01*
X31811404Y24708477D01*
X31811404Y24803715D01*
X31859023Y24898953D01*
X31954261Y24946572D01*
X32192357Y24946572D01*
X32287595Y24994191D01*
X32906642Y24565620D02*
X32811404Y24613239D01*
X32763785Y24708477D01*
X32763785Y25565620D01*
X24954261Y22915620D02*
X24954261Y23915620D01*
X24954261Y23534667D02*
X25049500Y23582286D01*
X25239976Y23582286D01*
X25335214Y23534667D01*
X25382833Y23487048D01*
X25430452Y23391810D01*
X25430452Y23106096D01*
X25382833Y23010858D01*
X25335214Y22963239D01*
X25239976Y22915620D01*
X25049500Y22915620D01*
X24954261Y22963239D01*
X26287595Y23582286D02*
X26287595Y22915620D01*
X25859023Y23582286D02*
X25859023Y23058477D01*
X25906642Y22963239D01*
X26001880Y22915620D01*
X26144738Y22915620D01*
X26239976Y22963239D01*
X26287595Y23010858D01*
X26716166Y22963239D02*
X26811404Y22915620D01*
X27001880Y22915620D01*
X27097119Y22963239D01*
X27144738Y23058477D01*
X27144738Y23106096D01*
X27097119Y23201334D01*
X27001880Y23248953D01*
X26859023Y23248953D01*
X26763785Y23296572D01*
X26716166Y23391810D01*
X26716166Y23439429D01*
X26763785Y23534667D01*
X26859023Y23582286D01*
X27001880Y23582286D01*
X27097119Y23534667D01*
X28716166Y22963239D02*
X28620928Y22915620D01*
X28430452Y22915620D01*
X28335214Y22963239D01*
X28287595Y23058477D01*
X28287595Y23439429D01*
X28335214Y23534667D01*
X28430452Y23582286D01*
X28620928Y23582286D01*
X28716166Y23534667D01*
X28763785Y23439429D01*
X28763785Y23344191D01*
X28287595Y23248953D01*
X29192357Y23582286D02*
X29192357Y22915620D01*
X29192357Y23487048D02*
X29239976Y23534667D01*
X29335214Y23582286D01*
X29478071Y23582286D01*
X29573309Y23534667D01*
X29620928Y23439429D01*
X29620928Y22915620D01*
X30525690Y22915620D02*
X30525690Y23439429D01*
X30478071Y23534667D01*
X30382833Y23582286D01*
X30192357Y23582286D01*
X30097119Y23534667D01*
X30525690Y22963239D02*
X30430452Y22915620D01*
X30192357Y22915620D01*
X30097119Y22963239D01*
X30049500Y23058477D01*
X30049500Y23153715D01*
X30097119Y23248953D01*
X30192357Y23296572D01*
X30430452Y23296572D01*
X30525690Y23344191D01*
X31001880Y22915620D02*
X31001880Y23915620D01*
X31001880Y23534667D02*
X31097119Y23582286D01*
X31287595Y23582286D01*
X31382833Y23534667D01*
X31430452Y23487048D01*
X31478071Y23391810D01*
X31478071Y23106096D01*
X31430452Y23010858D01*
X31382833Y22963239D01*
X31287595Y22915620D01*
X31097119Y22915620D01*
X31001880Y22963239D01*
X32049500Y22915620D02*
X31954261Y22963239D01*
X31906642Y23058477D01*
X31906642Y23915620D01*
X32811404Y22963239D02*
X32716166Y22915620D01*
X32525690Y22915620D01*
X32430452Y22963239D01*
X32382833Y23058477D01*
X32382833Y23439429D01*
X32430452Y23534667D01*
X32525690Y23582286D01*
X32716166Y23582286D01*
X32811404Y23534667D01*
X32859023Y23439429D01*
X32859023Y23344191D01*
X32382833Y23248953D01*
X24763785Y21313239D02*
X24668547Y21265620D01*
X24478071Y21265620D01*
X24382833Y21313239D01*
X24335214Y21360858D01*
X24287595Y21456096D01*
X24287595Y21741810D01*
X24335214Y21837048D01*
X24382833Y21884667D01*
X24478071Y21932286D01*
X24668547Y21932286D01*
X24763785Y21884667D01*
X25335214Y21265620D02*
X25239976Y21313239D01*
X25192357Y21360858D01*
X25144738Y21456096D01*
X25144738Y21741810D01*
X25192357Y21837048D01*
X25239976Y21884667D01*
X25335214Y21932286D01*
X25478071Y21932286D01*
X25573309Y21884667D01*
X25620928Y21837048D01*
X25668547Y21741810D01*
X25668547Y21456096D01*
X25620928Y21360858D01*
X25573309Y21313239D01*
X25478071Y21265620D01*
X25335214Y21265620D01*
X26097119Y21265620D02*
X26097119Y21932286D01*
X26097119Y21837048D02*
X26144738Y21884667D01*
X26239976Y21932286D01*
X26382833Y21932286D01*
X26478071Y21884667D01*
X26525690Y21789429D01*
X26525690Y21265620D01*
X26525690Y21789429D02*
X26573309Y21884667D01*
X26668547Y21932286D01*
X26811404Y21932286D01*
X26906642Y21884667D01*
X26954261Y21789429D01*
X26954261Y21265620D01*
X27430452Y21932286D02*
X27430452Y20932286D01*
X27430452Y21884667D02*
X27525690Y21932286D01*
X27716166Y21932286D01*
X27811404Y21884667D01*
X27859023Y21837048D01*
X27906642Y21741810D01*
X27906642Y21456096D01*
X27859023Y21360858D01*
X27811404Y21313239D01*
X27716166Y21265620D01*
X27525690Y21265620D01*
X27430452Y21313239D01*
X28478071Y21265620D02*
X28382833Y21313239D01*
X28335214Y21360858D01*
X28287595Y21456096D01*
X28287595Y21741810D01*
X28335214Y21837048D01*
X28382833Y21884667D01*
X28478071Y21932286D01*
X28620928Y21932286D01*
X28716166Y21884667D01*
X28763785Y21837048D01*
X28811404Y21741810D01*
X28811404Y21456096D01*
X28763785Y21360858D01*
X28716166Y21313239D01*
X28620928Y21265620D01*
X28478071Y21265620D01*
X29239976Y21932286D02*
X29239976Y21265620D01*
X29239976Y21837048D02*
X29287595Y21884667D01*
X29382833Y21932286D01*
X29525690Y21932286D01*
X29620928Y21884667D01*
X29668547Y21789429D01*
X29668547Y21265620D01*
X30525690Y21313239D02*
X30430452Y21265620D01*
X30239976Y21265620D01*
X30144738Y21313239D01*
X30097119Y21408477D01*
X30097119Y21789429D01*
X30144738Y21884667D01*
X30239976Y21932286D01*
X30430452Y21932286D01*
X30525690Y21884667D01*
X30573309Y21789429D01*
X30573309Y21694191D01*
X30097119Y21598953D01*
X31001880Y21932286D02*
X31001880Y21265620D01*
X31001880Y21837048D02*
X31049500Y21884667D01*
X31144738Y21932286D01*
X31287595Y21932286D01*
X31382833Y21884667D01*
X31430452Y21789429D01*
X31430452Y21265620D01*
X31763785Y21932286D02*
X32144738Y21932286D01*
X31906642Y22265620D02*
X31906642Y21408477D01*
X31954261Y21313239D01*
X32049500Y21265620D01*
X32144738Y21265620D01*
X32430452Y21313239D02*
X32525690Y21265620D01*
X32716166Y21265620D01*
X32811404Y21313239D01*
X32859023Y21408477D01*
X32859023Y21456096D01*
X32811404Y21551334D01*
X32716166Y21598953D01*
X32573309Y21598953D01*
X32478071Y21646572D01*
X32430452Y21741810D01*
X32430452Y21789429D01*
X32478071Y21884667D01*
X32573309Y21932286D01*
X32716166Y21932286D01*
X32811404Y21884667D01*
X34290000Y20320000D02*
X34290000Y25781000D01*
X34925000Y19685000D02*
X34290000Y20320000D01*
X34925000Y19050000D02*
X34290000Y18415000D01*
X34925000Y26416000D02*
X42545000Y26416000D01*
X27239976Y9563620D02*
X27430452Y9563620D01*
X27525690Y9516000D01*
X27620928Y9420762D01*
X27668547Y9230286D01*
X27668547Y8896953D01*
X27620928Y8706477D01*
X27525690Y8611239D01*
X27430452Y8563620D01*
X27239976Y8563620D01*
X27144738Y8611239D01*
X27049500Y8706477D01*
X27001880Y8896953D01*
X27001880Y9230286D01*
X27049500Y9420762D01*
X27144738Y9516000D01*
X27239976Y9563620D01*
X28097119Y9230286D02*
X28097119Y8230286D01*
X28097119Y9182667D02*
X28192357Y9230286D01*
X28382833Y9230286D01*
X28478071Y9182667D01*
X28525690Y9135048D01*
X28573309Y9039810D01*
X28573309Y8754096D01*
X28525690Y8658858D01*
X28478071Y8611239D01*
X28382833Y8563620D01*
X28192357Y8563620D01*
X28097119Y8611239D01*
X28859023Y9230286D02*
X29239976Y9230286D01*
X29001880Y9563620D02*
X29001880Y8706477D01*
X29049500Y8611239D01*
X29144738Y8563620D01*
X29239976Y8563620D01*
X29573309Y8563620D02*
X29573309Y9230286D01*
X29573309Y9563620D02*
X29525690Y9516000D01*
X29573309Y9468381D01*
X29620928Y9516000D01*
X29573309Y9563620D01*
X29573309Y9468381D01*
X30192357Y8563620D02*
X30097119Y8611239D01*
X30049500Y8658858D01*
X30001880Y8754096D01*
X30001880Y9039810D01*
X30049500Y9135048D01*
X30097119Y9182667D01*
X30192357Y9230286D01*
X30335214Y9230286D01*
X30430452Y9182667D01*
X30478071Y9135048D01*
X30525690Y9039810D01*
X30525690Y8754096D01*
X30478071Y8658858D01*
X30430452Y8611239D01*
X30335214Y8563620D01*
X30192357Y8563620D01*
X30954261Y9230286D02*
X30954261Y8563620D01*
X30954261Y9135048D02*
X31001880Y9182667D01*
X31097119Y9230286D01*
X31239976Y9230286D01*
X31335214Y9182667D01*
X31382833Y9087429D01*
X31382833Y8563620D01*
X32287595Y8563620D02*
X32287595Y9087429D01*
X32239976Y9182667D01*
X32144738Y9230286D01*
X31954261Y9230286D01*
X31859023Y9182667D01*
X32287595Y8611239D02*
X32192357Y8563620D01*
X31954261Y8563620D01*
X31859023Y8611239D01*
X31811404Y8706477D01*
X31811404Y8801715D01*
X31859023Y8896953D01*
X31954261Y8944572D01*
X32192357Y8944572D01*
X32287595Y8992191D01*
X32906642Y8563620D02*
X32811404Y8611239D01*
X32763785Y8706477D01*
X32763785Y9563620D01*
X28192357Y7580286D02*
X28573309Y7580286D01*
X28335214Y7913620D02*
X28335214Y7056477D01*
X28382833Y6961239D01*
X28478071Y6913620D01*
X28573309Y6913620D01*
X28906642Y6913620D02*
X28906642Y7580286D01*
X28906642Y7389810D02*
X28954261Y7485048D01*
X29001880Y7532667D01*
X29097119Y7580286D01*
X29192357Y7580286D01*
X29525690Y6913620D02*
X29525690Y7580286D01*
X29525690Y7913620D02*
X29478071Y7866000D01*
X29525690Y7818381D01*
X29573309Y7866000D01*
X29525690Y7913620D01*
X29525690Y7818381D01*
X30430452Y7580286D02*
X30430452Y6770762D01*
X30382833Y6675524D01*
X30335214Y6627905D01*
X30239976Y6580286D01*
X30097119Y6580286D01*
X30001880Y6627905D01*
X30430452Y6961239D02*
X30335214Y6913620D01*
X30144738Y6913620D01*
X30049500Y6961239D01*
X30001880Y7008858D01*
X29954261Y7104096D01*
X29954261Y7389810D01*
X30001880Y7485048D01*
X30049500Y7532667D01*
X30144738Y7580286D01*
X30335214Y7580286D01*
X30430452Y7532667D01*
X31335214Y7580286D02*
X31335214Y6770762D01*
X31287595Y6675524D01*
X31239976Y6627905D01*
X31144738Y6580286D01*
X31001880Y6580286D01*
X30906642Y6627905D01*
X31335214Y6961239D02*
X31239976Y6913620D01*
X31049500Y6913620D01*
X30954261Y6961239D01*
X30906642Y7008858D01*
X30859023Y7104096D01*
X30859023Y7389810D01*
X30906642Y7485048D01*
X30954261Y7532667D01*
X31049500Y7580286D01*
X31239976Y7580286D01*
X31335214Y7532667D01*
X32192357Y6961239D02*
X32097119Y6913620D01*
X31906642Y6913620D01*
X31811404Y6961239D01*
X31763785Y7056477D01*
X31763785Y7437429D01*
X31811404Y7532667D01*
X31906642Y7580286D01*
X32097119Y7580286D01*
X32192357Y7532667D01*
X32239976Y7437429D01*
X32239976Y7342191D01*
X31763785Y7246953D01*
X32668547Y6913620D02*
X32668547Y7580286D01*
X32668547Y7389810D02*
X32716166Y7485048D01*
X32763785Y7532667D01*
X32859023Y7580286D01*
X32954261Y7580286D01*
X24763785Y5311239D02*
X24668547Y5263620D01*
X24478071Y5263620D01*
X24382833Y5311239D01*
X24335214Y5358858D01*
X24287595Y5454096D01*
X24287595Y5739810D01*
X24335214Y5835048D01*
X24382833Y5882667D01*
X24478071Y5930286D01*
X24668547Y5930286D01*
X24763785Y5882667D01*
X25335214Y5263620D02*
X25239976Y5311239D01*
X25192357Y5358858D01*
X25144738Y5454096D01*
X25144738Y5739810D01*
X25192357Y5835048D01*
X25239976Y5882667D01*
X25335214Y5930286D01*
X25478071Y5930286D01*
X25573309Y5882667D01*
X25620928Y5835048D01*
X25668547Y5739810D01*
X25668547Y5454096D01*
X25620928Y5358858D01*
X25573309Y5311239D01*
X25478071Y5263620D01*
X25335214Y5263620D01*
X26097119Y5263620D02*
X26097119Y5930286D01*
X26097119Y5835048D02*
X26144738Y5882667D01*
X26239976Y5930286D01*
X26382833Y5930286D01*
X26478071Y5882667D01*
X26525690Y5787429D01*
X26525690Y5263620D01*
X26525690Y5787429D02*
X26573309Y5882667D01*
X26668547Y5930286D01*
X26811404Y5930286D01*
X26906642Y5882667D01*
X26954261Y5787429D01*
X26954261Y5263620D01*
X27430452Y5930286D02*
X27430452Y4930286D01*
X27430452Y5882667D02*
X27525690Y5930286D01*
X27716166Y5930286D01*
X27811404Y5882667D01*
X27859023Y5835048D01*
X27906642Y5739810D01*
X27906642Y5454096D01*
X27859023Y5358858D01*
X27811404Y5311239D01*
X27716166Y5263620D01*
X27525690Y5263620D01*
X27430452Y5311239D01*
X28478071Y5263620D02*
X28382833Y5311239D01*
X28335214Y5358858D01*
X28287595Y5454096D01*
X28287595Y5739810D01*
X28335214Y5835048D01*
X28382833Y5882667D01*
X28478071Y5930286D01*
X28620928Y5930286D01*
X28716166Y5882667D01*
X28763785Y5835048D01*
X28811404Y5739810D01*
X28811404Y5454096D01*
X28763785Y5358858D01*
X28716166Y5311239D01*
X28620928Y5263620D01*
X28478071Y5263620D01*
X29239976Y5930286D02*
X29239976Y5263620D01*
X29239976Y5835048D02*
X29287595Y5882667D01*
X29382833Y5930286D01*
X29525690Y5930286D01*
X29620928Y5882667D01*
X29668547Y5787429D01*
X29668547Y5263620D01*
X30525690Y5311239D02*
X30430452Y5263620D01*
X30239976Y5263620D01*
X30144738Y5311239D01*
X30097119Y5406477D01*
X30097119Y5787429D01*
X30144738Y5882667D01*
X30239976Y5930286D01*
X30430452Y5930286D01*
X30525690Y5882667D01*
X30573309Y5787429D01*
X30573309Y5692191D01*
X30097119Y5596953D01*
X31001880Y5930286D02*
X31001880Y5263620D01*
X31001880Y5835048D02*
X31049500Y5882667D01*
X31144738Y5930286D01*
X31287595Y5930286D01*
X31382833Y5882667D01*
X31430452Y5787429D01*
X31430452Y5263620D01*
X31763785Y5930286D02*
X32144738Y5930286D01*
X31906642Y6263620D02*
X31906642Y5406477D01*
X31954261Y5311239D01*
X32049500Y5263620D01*
X32144738Y5263620D01*
X32430452Y5311239D02*
X32525690Y5263620D01*
X32716166Y5263620D01*
X32811404Y5311239D01*
X32859023Y5406477D01*
X32859023Y5454096D01*
X32811404Y5549334D01*
X32716166Y5596953D01*
X32573309Y5596953D01*
X32478071Y5644572D01*
X32430452Y5739810D01*
X32430452Y5787429D01*
X32478071Y5882667D01*
X32573309Y5930286D01*
X32716166Y5930286D01*
X32811404Y5882667D01*
X34290000Y4445000D02*
X34925000Y3810000D01*
X34290000Y18415000D02*
X34290000Y4445000D01*
X34925000Y26416000D02*
X34290000Y25781000D01*
X24138095Y33837620D02*
X23804761Y34313810D01*
X23566666Y33837620D02*
X23566666Y34837620D01*
X23947619Y34837620D01*
X24042857Y34790000D01*
X24090476Y34742381D01*
X24138095Y34647143D01*
X24138095Y34504286D01*
X24090476Y34409048D01*
X24042857Y34361429D01*
X23947619Y34313810D01*
X23566666Y34313810D01*
X24566666Y33837620D02*
X24566666Y34837620D01*
X25138095Y33837620D01*
X25138095Y34837620D01*
X25519047Y34837620D02*
X25757142Y33837620D01*
X25947619Y34551905D01*
X26138095Y33837620D01*
X26376190Y34837620D01*
X26709523Y34742381D02*
X26757142Y34790000D01*
X26852380Y34837620D01*
X27090476Y34837620D01*
X27185714Y34790000D01*
X27233333Y34742381D01*
X27280952Y34647143D01*
X27280952Y34551905D01*
X27233333Y34409048D01*
X26661904Y33837620D01*
X27280952Y33837620D01*
X16002000Y46736000D02*
G75*
G02X18542000Y46736000I1270000J0D01*
G01*
X16002000Y9906000D02*
G75*
G02X18542000Y9906000I1270000J0D01*
G01*
X15875000Y28321000D02*
G75*
G02X18415000Y28321000I1270000J0D01*
G01*
X34925000Y44069000D02*
G75*
G02X32385000Y44069000I-1270000J0D01*
G01*
X34925000Y62484000D02*
G75*
G02X32385000Y62484000I-1270000J0D01*
G01*
D11*
X14306285Y69304286D02*
X14484857Y69244762D01*
X14544380Y69185239D01*
X14603904Y69066191D01*
X14603904Y68887620D01*
X14544380Y68768572D01*
X14484857Y68709048D01*
X14365809Y68649524D01*
X13889619Y68649524D01*
X13889619Y69899524D01*
X14306285Y69899524D01*
X14425333Y69840000D01*
X14484857Y69780477D01*
X14544380Y69661429D01*
X14544380Y69542381D01*
X14484857Y69423334D01*
X14425333Y69363810D01*
X14306285Y69304286D01*
X13889619Y69304286D01*
X15139619Y68649524D02*
X15139619Y69899524D01*
X15258666Y69125715D02*
X15615809Y68649524D01*
X15615809Y69482858D02*
X15139619Y69006667D01*
X16151523Y68649524D02*
X16151523Y69899524D01*
X16627714Y69899524D01*
X16746761Y69840000D01*
X16806285Y69780477D01*
X16865809Y69661429D01*
X16865809Y69482858D01*
X16806285Y69363810D01*
X16746761Y69304286D01*
X16627714Y69244762D01*
X16151523Y69244762D01*
X17222952Y69482858D02*
X17699142Y69482858D01*
X17401523Y69899524D02*
X17401523Y68828096D01*
X17461047Y68709048D01*
X17580095Y68649524D01*
X17699142Y68649524D01*
X24125047Y69899524D02*
X24839333Y69899524D01*
X24482190Y68649524D02*
X24482190Y69899524D01*
X25256000Y68649524D02*
X25256000Y69482858D01*
X25256000Y69244762D02*
X25315523Y69363810D01*
X25375047Y69423334D01*
X25494095Y69482858D01*
X25613142Y69482858D01*
X26029809Y68649524D02*
X26029809Y69482858D01*
X26029809Y69899524D02*
X25970285Y69840000D01*
X26029809Y69780477D01*
X26089333Y69840000D01*
X26029809Y69899524D01*
X26029809Y69780477D01*
X27160761Y69482858D02*
X27160761Y68470953D01*
X27101238Y68351905D01*
X27041714Y68292381D01*
X26922666Y68232858D01*
X26744095Y68232858D01*
X26625047Y68292381D01*
X27160761Y68709048D02*
X27041714Y68649524D01*
X26803619Y68649524D01*
X26684571Y68709048D01*
X26625047Y68768572D01*
X26565523Y68887620D01*
X26565523Y69244762D01*
X26625047Y69363810D01*
X26684571Y69423334D01*
X26803619Y69482858D01*
X27041714Y69482858D01*
X27160761Y69423334D01*
X28410761Y68649524D02*
X27696476Y68649524D01*
X28053619Y68649524D02*
X28053619Y69899524D01*
X27934571Y69720953D01*
X27815523Y69601905D01*
X27696476Y69542381D01*
X19045047Y69899524D02*
X19759333Y69899524D01*
X19402190Y68649524D02*
X19402190Y69899524D01*
X20176000Y68649524D02*
X20176000Y69482858D01*
X20176000Y69244762D02*
X20235523Y69363810D01*
X20295047Y69423334D01*
X20414095Y69482858D01*
X20533142Y69482858D01*
X20949809Y68649524D02*
X20949809Y69482858D01*
X20949809Y69899524D02*
X20890285Y69840000D01*
X20949809Y69780477D01*
X21009333Y69840000D01*
X20949809Y69899524D01*
X20949809Y69780477D01*
X22080761Y69482858D02*
X22080761Y68470953D01*
X22021238Y68351905D01*
X21961714Y68292381D01*
X21842666Y68232858D01*
X21664095Y68232858D01*
X21545047Y68292381D01*
X22080761Y68709048D02*
X21961714Y68649524D01*
X21723619Y68649524D01*
X21604571Y68709048D01*
X21545047Y68768572D01*
X21485523Y68887620D01*
X21485523Y69244762D01*
X21545047Y69363810D01*
X21604571Y69423334D01*
X21723619Y69482858D01*
X21961714Y69482858D01*
X22080761Y69423334D01*
X22914095Y69899524D02*
X23033142Y69899524D01*
X23152190Y69840000D01*
X23211714Y69780477D01*
X23271238Y69661429D01*
X23330761Y69423334D01*
X23330761Y69125715D01*
X23271238Y68887620D01*
X23211714Y68768572D01*
X23152190Y68709048D01*
X23033142Y68649524D01*
X22914095Y68649524D01*
X22795047Y68709048D01*
X22735523Y68768572D01*
X22676000Y68887620D01*
X22616476Y69125715D01*
X22616476Y69423334D01*
X22676000Y69661429D01*
X22735523Y69780477D01*
X22795047Y69840000D01*
X22914095Y69899524D01*
X30716190Y75635239D02*
X30716190Y74016191D01*
X30811428Y73825715D01*
X30906666Y73730477D01*
X31097142Y73635239D01*
X31478095Y73635239D01*
X31668571Y73730477D01*
X31763809Y73825715D01*
X31859047Y74016191D01*
X31859047Y75635239D01*
X32716190Y73730477D02*
X33001904Y73635239D01*
X33478095Y73635239D01*
X33668571Y73730477D01*
X33763809Y73825715D01*
X33859047Y74016191D01*
X33859047Y74206667D01*
X33763809Y74397143D01*
X33668571Y74492381D01*
X33478095Y74587620D01*
X33097142Y74682858D01*
X32906666Y74778096D01*
X32811428Y74873334D01*
X32716190Y75063810D01*
X32716190Y75254286D01*
X32811428Y75444762D01*
X32906666Y75540000D01*
X33097142Y75635239D01*
X33573333Y75635239D01*
X33859047Y75540000D01*
X35382857Y74682858D02*
X35668571Y74587620D01*
X35763809Y74492381D01*
X35859047Y74301905D01*
X35859047Y74016191D01*
X35763809Y73825715D01*
X35668571Y73730477D01*
X35478095Y73635239D01*
X34716190Y73635239D01*
X34716190Y75635239D01*
X35382857Y75635239D01*
X35573333Y75540000D01*
X35668571Y75444762D01*
X35763809Y75254286D01*
X35763809Y75063810D01*
X35668571Y74873334D01*
X35573333Y74778096D01*
X35382857Y74682858D01*
X34716190Y74682858D01*
D10*
X28740000Y72540000D02*
X28740000Y76540000D01*
X37740000Y72540000D02*
X28740000Y72540000D01*
X37740000Y76540000D02*
X37740000Y72540000D01*
X28740000Y76540000D02*
X37740000Y76540000D01*
D12*
X43810000Y27090000D02*
X40660000Y27090000D01*
X43810000Y28790000D02*
X40660000Y28790000D01*
X43810000Y27090000D02*
X43810000Y28790000D01*
X7108000Y45935000D02*
X10258000Y45935000D01*
X7108000Y44235000D02*
X10258000Y44235000D01*
X7108000Y45935000D02*
X7108000Y44235000D01*
X27253000Y53468748D02*
X27253000Y53991252D01*
X25833000Y53468748D02*
X25833000Y53991252D01*
X25094000Y53468748D02*
X25094000Y53991252D01*
X23674000Y53468748D02*
X23674000Y53991252D01*
X42918748Y7695000D02*
X43441252Y7695000D01*
X42918748Y6275000D02*
X43441252Y6275000D01*
D10*
X21020000Y47010000D02*
X22845000Y47010000D01*
X21020000Y62485000D02*
X13270000Y62485000D01*
X21020000Y46735000D02*
X13270000Y46735000D01*
X21020000Y62485000D02*
X21020000Y62120000D01*
X13270000Y62485000D02*
X13270000Y62120000D01*
X13270000Y46735000D02*
X13270000Y47100000D01*
X21020000Y46735000D02*
X21020000Y47010000D01*
D12*
X24700000Y37195000D02*
X26100000Y37195000D01*
X26800000Y36495000D02*
X26800000Y35895000D01*
X26100000Y35195000D02*
X24700000Y35195000D01*
X24000000Y35895000D02*
X24000000Y36495000D01*
X24000000Y36495000D02*
G75*
G02X24700000Y37195000I700000J0D01*
G01*
X24700000Y35195000D02*
G75*
G02X24000000Y35895000I0J700000D01*
G01*
X26800000Y35895000D02*
G75*
G02X26100000Y35195000I-700000J0D01*
G01*
X26100000Y37195000D02*
G75*
G02X26800000Y36495000I0J-700000D01*
G01*
X42918748Y8815000D02*
X43441252Y8815000D01*
X42918748Y10235000D02*
X43441252Y10235000D01*
X40378748Y24182000D02*
X40901252Y24182000D01*
X40378748Y25602000D02*
X40901252Y25602000D01*
X47085000Y70175000D02*
X47085000Y70525000D01*
X47975000Y70175000D02*
X47085000Y70175000D01*
X47975000Y70475000D02*
X47975000Y70175000D01*
X47975000Y73115000D02*
X47975000Y76965000D01*
X47975000Y76965000D02*
X40235000Y76965000D01*
X40235000Y76965000D02*
X40235000Y73115000D01*
X41615000Y72725000D02*
X46595000Y72725000D01*
X41125000Y70175000D02*
X40235000Y70175000D01*
X41125000Y70175000D02*
X41125000Y70525000D01*
X40235000Y70475000D02*
X40235000Y70175000D01*
X9484500Y70175000D02*
X9484500Y70525000D01*
X10374500Y70175000D02*
X9484500Y70175000D01*
X10374500Y70475000D02*
X10374500Y70175000D01*
X10374500Y73115000D02*
X10374500Y76965000D01*
X10374500Y76965000D02*
X2634500Y76965000D01*
X2634500Y76965000D02*
X2634500Y73115000D01*
X4014500Y72725000D02*
X8994500Y72725000D01*
X3524500Y70175000D02*
X2634500Y70175000D01*
X3524500Y70175000D02*
X3524500Y70525000D01*
X2634500Y70475000D02*
X2634500Y70175000D01*
X21245000Y75375000D02*
X21245000Y75531000D01*
X21245000Y73059000D02*
X21245000Y73215000D01*
X18643870Y75374837D02*
G75*
G02X20725961Y75375000I1041130J-1079837D01*
G01*
X18643870Y73215163D02*
G75*
G03X20725961Y73215000I1041130J1079837D01*
G01*
X18012665Y75373608D02*
G75*
G02X21245000Y75530516I1672335J-1078608D01*
G01*
X18012665Y73216392D02*
G75*
G03X21245000Y73059484I1672335J1078608D01*
G01*
X26325000Y75375000D02*
X26325000Y75531000D01*
X26325000Y73059000D02*
X26325000Y73215000D01*
X23723870Y75374837D02*
G75*
G02X25805961Y75375000I1041130J-1079837D01*
G01*
X23723870Y73215163D02*
G75*
G03X25805961Y73215000I1041130J1079837D01*
G01*
X23092665Y75373608D02*
G75*
G02X26325000Y75530516I1672335J-1078608D01*
G01*
X23092665Y73216392D02*
G75*
G03X26325000Y73059484I1672335J1078608D01*
G01*
X16165000Y75375000D02*
X16165000Y75531000D01*
X16165000Y73059000D02*
X16165000Y73215000D01*
X13563870Y75374837D02*
G75*
G02X15645961Y75375000I1041130J-1079837D01*
G01*
X13563870Y73215163D02*
G75*
G03X15645961Y73215000I1041130J1079837D01*
G01*
X12932665Y75373608D02*
G75*
G02X16165000Y75530516I1672335J-1078608D01*
G01*
X12932665Y73216392D02*
G75*
G03X16165000Y73059484I1672335J1078608D01*
G01*
X5080000Y62290000D02*
X6410000Y62290000D01*
X6410000Y62290000D02*
X6410000Y60960000D01*
X3810000Y62290000D02*
X3810000Y59690000D01*
X3810000Y59690000D02*
X6410000Y59690000D01*
X6410000Y59690000D02*
X6410000Y11370000D01*
X1210000Y11370000D02*
X6410000Y11370000D01*
X1210000Y62290000D02*
X1210000Y11370000D01*
X1210000Y62290000D02*
X3810000Y62290000D01*
X45720000Y11370000D02*
X44390000Y11370000D01*
X44390000Y11370000D02*
X44390000Y12700000D01*
X46990000Y11370000D02*
X46990000Y13970000D01*
X46990000Y13970000D02*
X44390000Y13970000D01*
X44390000Y13970000D02*
X44390000Y62290000D01*
X49590000Y62290000D02*
X44390000Y62290000D01*
X49590000Y11370000D02*
X49590000Y62290000D01*
X49590000Y11370000D02*
X46990000Y11370000D01*
X39105000Y11405000D02*
X41555000Y11405000D01*
X40905000Y14625000D02*
X39105000Y14625000D01*
X39105000Y15850000D02*
X41555000Y15850000D01*
X40905000Y19070000D02*
X39105000Y19070000D01*
X39105000Y20300000D02*
X41555000Y20300000D01*
X40905000Y23520000D02*
X39105000Y23520000D01*
X45981252Y69290000D02*
X45458748Y69290000D01*
X45981252Y67870000D02*
X45458748Y67870000D01*
X6088748Y65584000D02*
X6611252Y65584000D01*
X6088748Y67004000D02*
X6611252Y67004000D01*
X6088748Y67870000D02*
X6611252Y67870000D01*
X6088748Y69290000D02*
X6611252Y69290000D01*
X45458748Y65330000D02*
X45981252Y65330000D01*
X45458748Y66750000D02*
X45981252Y66750000D01*
X6611252Y64718000D02*
X6088748Y64718000D01*
X6611252Y63298000D02*
X6088748Y63298000D01*
X7291000Y10666252D02*
X7291000Y10143748D01*
X8711000Y10666252D02*
X8711000Y10143748D01*
X42918748Y5155000D02*
X43441252Y5155000D01*
X42918748Y3735000D02*
X43441252Y3735000D01*
X24055000Y60586252D02*
X24055000Y60063748D01*
X25475000Y60586252D02*
X25475000Y60063748D01*
X25271252Y4520000D02*
X24748748Y4520000D01*
X25271252Y3100000D02*
X24748748Y3100000D01*
X39930000Y59951252D02*
X39930000Y59428748D01*
X41350000Y59951252D02*
X41350000Y59428748D01*
X41350000Y43308748D02*
X41350000Y43831252D01*
X39930000Y43308748D02*
X39930000Y43831252D01*
X9450000Y10666252D02*
X9450000Y10143748D01*
X10870000Y10666252D02*
X10870000Y10143748D01*
X9450000Y29081252D02*
X9450000Y28558748D01*
X10870000Y29081252D02*
X10870000Y28558748D01*
X10870000Y48633748D02*
X10870000Y49156252D01*
X9450000Y48633748D02*
X9450000Y49156252D01*
X27380000Y11558748D02*
X27380000Y12081252D01*
X25960000Y11558748D02*
X25960000Y12081252D01*
X25960000Y60586252D02*
X25960000Y60063748D01*
X27380000Y60586252D02*
X27380000Y60063748D01*
X25960000Y42171252D02*
X25960000Y41648748D01*
X27380000Y42171252D02*
X27380000Y41648748D01*
X24840000Y11558748D02*
X24840000Y12081252D01*
X23420000Y11558748D02*
X23420000Y12081252D01*
X24840000Y29583748D02*
X24840000Y30106252D01*
X23420000Y29583748D02*
X23420000Y30106252D01*
X24840000Y47998748D02*
X24840000Y48521252D01*
X23420000Y47998748D02*
X23420000Y48521252D01*
D10*
X21020000Y28595000D02*
X22845000Y28595000D01*
X21020000Y44070000D02*
X13270000Y44070000D01*
X21020000Y28320000D02*
X13270000Y28320000D01*
X21020000Y44070000D02*
X21020000Y43705000D01*
X13270000Y44070000D02*
X13270000Y43705000D01*
X13270000Y28320000D02*
X13270000Y28685000D01*
X21020000Y28320000D02*
X21020000Y28595000D01*
X21020000Y10180000D02*
X22845000Y10180000D01*
X21020000Y25655000D02*
X13270000Y25655000D01*
X21020000Y9905000D02*
X13270000Y9905000D01*
X21020000Y25655000D02*
X21020000Y25290000D01*
X13270000Y25655000D02*
X13270000Y25290000D01*
X13270000Y9905000D02*
X13270000Y10270000D01*
X21020000Y9905000D02*
X21020000Y10180000D01*
X29780000Y43795000D02*
X27955000Y43795000D01*
X29780000Y28320000D02*
X37530000Y28320000D01*
X29780000Y44070000D02*
X37530000Y44070000D01*
X29780000Y28320000D02*
X29780000Y28685000D01*
X37530000Y28320000D02*
X37530000Y28685000D01*
X37530000Y44070000D02*
X37530000Y43705000D01*
X29780000Y44070000D02*
X29780000Y43795000D01*
X29780000Y62210000D02*
X27955000Y62210000D01*
X29780000Y46735000D02*
X37530000Y46735000D01*
X29780000Y62485000D02*
X37530000Y62485000D01*
X29780000Y46735000D02*
X29780000Y47100000D01*
X37530000Y46735000D02*
X37530000Y47100000D01*
X37530000Y62485000D02*
X37530000Y62120000D01*
X29780000Y62485000D02*
X29780000Y62210000D01*
X41171904Y29075120D02*
X41171904Y30075120D01*
X41410000Y30075120D01*
X41552857Y30027500D01*
X41648095Y29932262D01*
X41695714Y29837024D01*
X41743333Y29646548D01*
X41743333Y29503691D01*
X41695714Y29313215D01*
X41648095Y29217977D01*
X41552857Y29122739D01*
X41410000Y29075120D01*
X41171904Y29075120D01*
X42648095Y30075120D02*
X42171904Y30075120D01*
X42124285Y29598929D01*
X42171904Y29646548D01*
X42267142Y29694167D01*
X42505238Y29694167D01*
X42600476Y29646548D01*
X42648095Y29598929D01*
X42695714Y29503691D01*
X42695714Y29265596D01*
X42648095Y29170358D01*
X42600476Y29122739D01*
X42505238Y29075120D01*
X42267142Y29075120D01*
X42171904Y29122739D01*
X42124285Y29170358D01*
X7770904Y42727620D02*
X7770904Y43727620D01*
X8009000Y43727620D01*
X8151857Y43680000D01*
X8247095Y43584762D01*
X8294714Y43489524D01*
X8342333Y43299048D01*
X8342333Y43156191D01*
X8294714Y42965715D01*
X8247095Y42870477D01*
X8151857Y42775239D01*
X8009000Y42727620D01*
X7770904Y42727620D01*
X9199476Y43394286D02*
X9199476Y42727620D01*
X8961380Y43775239D02*
X8723285Y43060953D01*
X9342333Y43060953D01*
X25519142Y55935620D02*
X25185809Y56411810D01*
X24947714Y55935620D02*
X24947714Y56935620D01*
X25328666Y56935620D01*
X25423904Y56888000D01*
X25471523Y56840381D01*
X25519142Y56745143D01*
X25519142Y56602286D01*
X25471523Y56507048D01*
X25423904Y56459429D01*
X25328666Y56411810D01*
X24947714Y56411810D01*
X26471523Y55935620D02*
X25900095Y55935620D01*
X26185809Y55935620D02*
X26185809Y56935620D01*
X26090571Y56792762D01*
X25995333Y56697524D01*
X25900095Y56649905D01*
X27328666Y56602286D02*
X27328666Y55935620D01*
X27090571Y56983239D02*
X26852476Y56268953D01*
X27471523Y56268953D01*
X23995142Y50696858D02*
X23947523Y50649239D01*
X23804666Y50601620D01*
X23709428Y50601620D01*
X23566571Y50649239D01*
X23471333Y50744477D01*
X23423714Y50839715D01*
X23376095Y51030191D01*
X23376095Y51173048D01*
X23423714Y51363524D01*
X23471333Y51458762D01*
X23566571Y51554000D01*
X23709428Y51601620D01*
X23804666Y51601620D01*
X23947523Y51554000D01*
X23995142Y51506381D01*
X24947523Y50601620D02*
X24376095Y50601620D01*
X24661809Y50601620D02*
X24661809Y51601620D01*
X24566571Y51458762D01*
X24471333Y51363524D01*
X24376095Y51315905D01*
X25852285Y51601620D02*
X25376095Y51601620D01*
X25328476Y51125429D01*
X25376095Y51173048D01*
X25471333Y51220667D01*
X25709428Y51220667D01*
X25804666Y51173048D01*
X25852285Y51125429D01*
X25899904Y51030191D01*
X25899904Y50792096D01*
X25852285Y50696858D01*
X25804666Y50649239D01*
X25709428Y50601620D01*
X25471333Y50601620D01*
X25376095Y50649239D01*
X25328476Y50696858D01*
X46188333Y6532620D02*
X45855000Y7008810D01*
X45616904Y6532620D02*
X45616904Y7532620D01*
X45997857Y7532620D01*
X46093095Y7485000D01*
X46140714Y7437381D01*
X46188333Y7342143D01*
X46188333Y7199286D01*
X46140714Y7104048D01*
X46093095Y7056429D01*
X45997857Y7008810D01*
X45616904Y7008810D01*
X46521666Y7532620D02*
X47140714Y7532620D01*
X46807380Y7151667D01*
X46950238Y7151667D01*
X47045476Y7104048D01*
X47093095Y7056429D01*
X47140714Y6961191D01*
X47140714Y6723096D01*
X47093095Y6627858D01*
X47045476Y6580239D01*
X46950238Y6532620D01*
X46664523Y6532620D01*
X46569285Y6580239D01*
X46521666Y6627858D01*
X16383095Y46357620D02*
X16383095Y45548096D01*
X16430714Y45452858D01*
X16478333Y45405239D01*
X16573571Y45357620D01*
X16764047Y45357620D01*
X16859285Y45405239D01*
X16906904Y45452858D01*
X16954523Y45548096D01*
X16954523Y46357620D01*
X17383095Y46262381D02*
X17430714Y46310000D01*
X17525952Y46357620D01*
X17764047Y46357620D01*
X17859285Y46310000D01*
X17906904Y46262381D01*
X17954523Y46167143D01*
X17954523Y46071905D01*
X17906904Y45929048D01*
X17335476Y45357620D01*
X17954523Y45357620D01*
X24566666Y38542620D02*
X24566666Y37828334D01*
X24519047Y37685477D01*
X24423809Y37590239D01*
X24280952Y37542620D01*
X24185714Y37542620D01*
X25042857Y37542620D02*
X25042857Y38542620D01*
X25423809Y38542620D01*
X25519047Y38495000D01*
X25566666Y38447381D01*
X25614285Y38352143D01*
X25614285Y38209286D01*
X25566666Y38114048D01*
X25519047Y38066429D01*
X25423809Y38018810D01*
X25042857Y38018810D01*
X26566666Y37542620D02*
X25995238Y37542620D01*
X26280952Y37542620D02*
X26280952Y38542620D01*
X26185714Y38399762D01*
X26090476Y38304524D01*
X25995238Y38256905D01*
X46982142Y9167858D02*
X46934523Y9120239D01*
X46791666Y9072620D01*
X46696428Y9072620D01*
X46553571Y9120239D01*
X46458333Y9215477D01*
X46410714Y9310715D01*
X46363095Y9501191D01*
X46363095Y9644048D01*
X46410714Y9834524D01*
X46458333Y9929762D01*
X46553571Y10025000D01*
X46696428Y10072620D01*
X46791666Y10072620D01*
X46934523Y10025000D01*
X46982142Y9977381D01*
X47934523Y9072620D02*
X47363095Y9072620D01*
X47648809Y9072620D02*
X47648809Y10072620D01*
X47553571Y9929762D01*
X47458333Y9834524D01*
X47363095Y9786905D01*
X48315476Y9977381D02*
X48363095Y10025000D01*
X48458333Y10072620D01*
X48696428Y10072620D01*
X48791666Y10025000D01*
X48839285Y9977381D01*
X48886904Y9882143D01*
X48886904Y9786905D01*
X48839285Y9644048D01*
X48267857Y9072620D01*
X48886904Y9072620D01*
X36028333Y25042858D02*
X35980714Y24995239D01*
X35837857Y24947620D01*
X35742619Y24947620D01*
X35599761Y24995239D01*
X35504523Y25090477D01*
X35456904Y25185715D01*
X35409285Y25376191D01*
X35409285Y25519048D01*
X35456904Y25709524D01*
X35504523Y25804762D01*
X35599761Y25900000D01*
X35742619Y25947620D01*
X35837857Y25947620D01*
X35980714Y25900000D01*
X36028333Y25852381D01*
X36885476Y25947620D02*
X36695000Y25947620D01*
X36599761Y25900000D01*
X36552142Y25852381D01*
X36456904Y25709524D01*
X36409285Y25519048D01*
X36409285Y25138096D01*
X36456904Y25042858D01*
X36504523Y24995239D01*
X36599761Y24947620D01*
X36790238Y24947620D01*
X36885476Y24995239D01*
X36933095Y25042858D01*
X36980714Y25138096D01*
X36980714Y25376191D01*
X36933095Y25471429D01*
X36885476Y25519048D01*
X36790238Y25566667D01*
X36599761Y25566667D01*
X36504523Y25519048D01*
X36456904Y25471429D01*
X36409285Y25376191D01*
X42771666Y70715239D02*
X42914523Y70667620D01*
X43152619Y70667620D01*
X43247857Y70715239D01*
X43295476Y70762858D01*
X43343095Y70858096D01*
X43343095Y70953334D01*
X43295476Y71048572D01*
X43247857Y71096191D01*
X43152619Y71143810D01*
X42962142Y71191429D01*
X42866904Y71239048D01*
X42819285Y71286667D01*
X42771666Y71381905D01*
X42771666Y71477143D01*
X42819285Y71572381D01*
X42866904Y71620000D01*
X42962142Y71667620D01*
X43200238Y71667620D01*
X43343095Y71620000D01*
X43676428Y71667620D02*
X43914523Y70667620D01*
X44105000Y71381905D01*
X44295476Y70667620D01*
X44533571Y71667620D01*
X44866904Y71572381D02*
X44914523Y71620000D01*
X45009761Y71667620D01*
X45247857Y71667620D01*
X45343095Y71620000D01*
X45390714Y71572381D01*
X45438333Y71477143D01*
X45438333Y71381905D01*
X45390714Y71239048D01*
X44819285Y70667620D01*
X45438333Y70667620D01*
X5016666Y70715239D02*
X5159523Y70667620D01*
X5397619Y70667620D01*
X5492857Y70715239D01*
X5540476Y70762858D01*
X5588095Y70858096D01*
X5588095Y70953334D01*
X5540476Y71048572D01*
X5492857Y71096191D01*
X5397619Y71143810D01*
X5207142Y71191429D01*
X5111904Y71239048D01*
X5064285Y71286667D01*
X5016666Y71381905D01*
X5016666Y71477143D01*
X5064285Y71572381D01*
X5111904Y71620000D01*
X5207142Y71667620D01*
X5445238Y71667620D01*
X5588095Y71620000D01*
X5921428Y71667620D02*
X6159523Y70667620D01*
X6350000Y71381905D01*
X6540476Y70667620D01*
X6778571Y71667620D01*
X7683333Y70667620D02*
X7111904Y70667620D01*
X7397619Y70667620D02*
X7397619Y71667620D01*
X7302380Y71524762D01*
X7207142Y71429524D01*
X7111904Y71381905D01*
X18946904Y70667620D02*
X18946904Y71667620D01*
X19185000Y71667620D01*
X19327857Y71620000D01*
X19423095Y71524762D01*
X19470714Y71429524D01*
X19518333Y71239048D01*
X19518333Y71096191D01*
X19470714Y70905715D01*
X19423095Y70810477D01*
X19327857Y70715239D01*
X19185000Y70667620D01*
X18946904Y70667620D01*
X19899285Y71572381D02*
X19946904Y71620000D01*
X20042142Y71667620D01*
X20280238Y71667620D01*
X20375476Y71620000D01*
X20423095Y71572381D01*
X20470714Y71477143D01*
X20470714Y71381905D01*
X20423095Y71239048D01*
X19851666Y70667620D01*
X20470714Y70667620D01*
X24026904Y70667620D02*
X24026904Y71667620D01*
X24265000Y71667620D01*
X24407857Y71620000D01*
X24503095Y71524762D01*
X24550714Y71429524D01*
X24598333Y71239048D01*
X24598333Y71096191D01*
X24550714Y70905715D01*
X24503095Y70810477D01*
X24407857Y70715239D01*
X24265000Y70667620D01*
X24026904Y70667620D01*
X24931666Y71667620D02*
X25550714Y71667620D01*
X25217380Y71286667D01*
X25360238Y71286667D01*
X25455476Y71239048D01*
X25503095Y71191429D01*
X25550714Y71096191D01*
X25550714Y70858096D01*
X25503095Y70762858D01*
X25455476Y70715239D01*
X25360238Y70667620D01*
X25074523Y70667620D01*
X24979285Y70715239D01*
X24931666Y70762858D01*
X13866904Y70667620D02*
X13866904Y71667620D01*
X14105000Y71667620D01*
X14247857Y71620000D01*
X14343095Y71524762D01*
X14390714Y71429524D01*
X14438333Y71239048D01*
X14438333Y71096191D01*
X14390714Y70905715D01*
X14343095Y70810477D01*
X14247857Y70715239D01*
X14105000Y70667620D01*
X13866904Y70667620D01*
X15390714Y70667620D02*
X14819285Y70667620D01*
X15105000Y70667620D02*
X15105000Y71667620D01*
X15009761Y71524762D01*
X14914523Y71429524D01*
X14819285Y71381905D01*
X3071904Y9072620D02*
X3071904Y10072620D01*
X3452857Y10072620D01*
X3548095Y10025000D01*
X3595714Y9977381D01*
X3643333Y9882143D01*
X3643333Y9739286D01*
X3595714Y9644048D01*
X3548095Y9596429D01*
X3452857Y9548810D01*
X3071904Y9548810D01*
X4024285Y9977381D02*
X4071904Y10025000D01*
X4167142Y10072620D01*
X4405238Y10072620D01*
X4500476Y10025000D01*
X4548095Y9977381D01*
X4595714Y9882143D01*
X4595714Y9786905D01*
X4548095Y9644048D01*
X3976666Y9072620D01*
X4595714Y9072620D01*
X46251904Y63047620D02*
X46251904Y64047620D01*
X46632857Y64047620D01*
X46728095Y64000000D01*
X46775714Y63952381D01*
X46823333Y63857143D01*
X46823333Y63714286D01*
X46775714Y63619048D01*
X46728095Y63571429D01*
X46632857Y63523810D01*
X46251904Y63523810D01*
X47775714Y63047620D02*
X47204285Y63047620D01*
X47490000Y63047620D02*
X47490000Y64047620D01*
X47394761Y63904762D01*
X47299523Y63809524D01*
X47204285Y63761905D01*
X35433095Y13562620D02*
X35433095Y12753096D01*
X35480714Y12657858D01*
X35528333Y12610239D01*
X35623571Y12562620D01*
X35814047Y12562620D01*
X35909285Y12610239D01*
X35956904Y12657858D01*
X36004523Y12753096D01*
X36004523Y13562620D01*
X36528333Y12562620D02*
X36718809Y12562620D01*
X36814047Y12610239D01*
X36861666Y12657858D01*
X36956904Y12800715D01*
X37004523Y12991191D01*
X37004523Y13372143D01*
X36956904Y13467381D01*
X36909285Y13515000D01*
X36814047Y13562620D01*
X36623571Y13562620D01*
X36528333Y13515000D01*
X36480714Y13467381D01*
X36433095Y13372143D01*
X36433095Y13134048D01*
X36480714Y13038810D01*
X36528333Y12991191D01*
X36623571Y12943572D01*
X36814047Y12943572D01*
X36909285Y12991191D01*
X36956904Y13038810D01*
X37004523Y13134048D01*
X35433095Y18007620D02*
X35433095Y17198096D01*
X35480714Y17102858D01*
X35528333Y17055239D01*
X35623571Y17007620D01*
X35814047Y17007620D01*
X35909285Y17055239D01*
X35956904Y17102858D01*
X36004523Y17198096D01*
X36004523Y18007620D01*
X36623571Y17579048D02*
X36528333Y17626667D01*
X36480714Y17674286D01*
X36433095Y17769524D01*
X36433095Y17817143D01*
X36480714Y17912381D01*
X36528333Y17960000D01*
X36623571Y18007620D01*
X36814047Y18007620D01*
X36909285Y17960000D01*
X36956904Y17912381D01*
X37004523Y17817143D01*
X37004523Y17769524D01*
X36956904Y17674286D01*
X36909285Y17626667D01*
X36814047Y17579048D01*
X36623571Y17579048D01*
X36528333Y17531429D01*
X36480714Y17483810D01*
X36433095Y17388572D01*
X36433095Y17198096D01*
X36480714Y17102858D01*
X36528333Y17055239D01*
X36623571Y17007620D01*
X36814047Y17007620D01*
X36909285Y17055239D01*
X36956904Y17102858D01*
X37004523Y17198096D01*
X37004523Y17388572D01*
X36956904Y17483810D01*
X36909285Y17531429D01*
X36814047Y17579048D01*
X35433095Y22137620D02*
X35433095Y21328096D01*
X35480714Y21232858D01*
X35528333Y21185239D01*
X35623571Y21137620D01*
X35814047Y21137620D01*
X35909285Y21185239D01*
X35956904Y21232858D01*
X36004523Y21328096D01*
X36004523Y22137620D01*
X36385476Y22137620D02*
X37052142Y22137620D01*
X36623571Y21137620D01*
X42378333Y68127620D02*
X42045000Y68603810D01*
X41806904Y68127620D02*
X41806904Y69127620D01*
X42187857Y69127620D01*
X42283095Y69080000D01*
X42330714Y69032381D01*
X42378333Y68937143D01*
X42378333Y68794286D01*
X42330714Y68699048D01*
X42283095Y68651429D01*
X42187857Y68603810D01*
X41806904Y68603810D01*
X42854523Y68127620D02*
X43045000Y68127620D01*
X43140238Y68175239D01*
X43187857Y68222858D01*
X43283095Y68365715D01*
X43330714Y68556191D01*
X43330714Y68937143D01*
X43283095Y69032381D01*
X43235476Y69080000D01*
X43140238Y69127620D01*
X42949761Y69127620D01*
X42854523Y69080000D01*
X42806904Y69032381D01*
X42759285Y68937143D01*
X42759285Y68699048D01*
X42806904Y68603810D01*
X42854523Y68556191D01*
X42949761Y68508572D01*
X43140238Y68508572D01*
X43235476Y68556191D01*
X43283095Y68603810D01*
X43330714Y68699048D01*
X9358333Y65841620D02*
X9025000Y66317810D01*
X8786904Y65841620D02*
X8786904Y66841620D01*
X9167857Y66841620D01*
X9263095Y66794000D01*
X9310714Y66746381D01*
X9358333Y66651143D01*
X9358333Y66508286D01*
X9310714Y66413048D01*
X9263095Y66365429D01*
X9167857Y66317810D01*
X8786904Y66317810D01*
X9929761Y66413048D02*
X9834523Y66460667D01*
X9786904Y66508286D01*
X9739285Y66603524D01*
X9739285Y66651143D01*
X9786904Y66746381D01*
X9834523Y66794000D01*
X9929761Y66841620D01*
X10120238Y66841620D01*
X10215476Y66794000D01*
X10263095Y66746381D01*
X10310714Y66651143D01*
X10310714Y66603524D01*
X10263095Y66508286D01*
X10215476Y66460667D01*
X10120238Y66413048D01*
X9929761Y66413048D01*
X9834523Y66365429D01*
X9786904Y66317810D01*
X9739285Y66222572D01*
X9739285Y66032096D01*
X9786904Y65936858D01*
X9834523Y65889239D01*
X9929761Y65841620D01*
X10120238Y65841620D01*
X10215476Y65889239D01*
X10263095Y65936858D01*
X10310714Y66032096D01*
X10310714Y66222572D01*
X10263095Y66317810D01*
X10215476Y66365429D01*
X10120238Y66413048D01*
X9358333Y68127620D02*
X9025000Y68603810D01*
X8786904Y68127620D02*
X8786904Y69127620D01*
X9167857Y69127620D01*
X9263095Y69080000D01*
X9310714Y69032381D01*
X9358333Y68937143D01*
X9358333Y68794286D01*
X9310714Y68699048D01*
X9263095Y68651429D01*
X9167857Y68603810D01*
X8786904Y68603810D01*
X9691666Y69127620D02*
X10358333Y69127620D01*
X9929761Y68127620D01*
X42378333Y65587620D02*
X42045000Y66063810D01*
X41806904Y65587620D02*
X41806904Y66587620D01*
X42187857Y66587620D01*
X42283095Y66540000D01*
X42330714Y66492381D01*
X42378333Y66397143D01*
X42378333Y66254286D01*
X42330714Y66159048D01*
X42283095Y66111429D01*
X42187857Y66063810D01*
X41806904Y66063810D01*
X43235476Y66587620D02*
X43045000Y66587620D01*
X42949761Y66540000D01*
X42902142Y66492381D01*
X42806904Y66349524D01*
X42759285Y66159048D01*
X42759285Y65778096D01*
X42806904Y65682858D01*
X42854523Y65635239D01*
X42949761Y65587620D01*
X43140238Y65587620D01*
X43235476Y65635239D01*
X43283095Y65682858D01*
X43330714Y65778096D01*
X43330714Y66016191D01*
X43283095Y66111429D01*
X43235476Y66159048D01*
X43140238Y66206667D01*
X42949761Y66206667D01*
X42854523Y66159048D01*
X42806904Y66111429D01*
X42759285Y66016191D01*
X9358333Y63555620D02*
X9025000Y64031810D01*
X8786904Y63555620D02*
X8786904Y64555620D01*
X9167857Y64555620D01*
X9263095Y64508000D01*
X9310714Y64460381D01*
X9358333Y64365143D01*
X9358333Y64222286D01*
X9310714Y64127048D01*
X9263095Y64079429D01*
X9167857Y64031810D01*
X8786904Y64031810D01*
X10263095Y64555620D02*
X9786904Y64555620D01*
X9739285Y64079429D01*
X9786904Y64127048D01*
X9882142Y64174667D01*
X10120238Y64174667D01*
X10215476Y64127048D01*
X10263095Y64079429D01*
X10310714Y63984191D01*
X10310714Y63746096D01*
X10263095Y63650858D01*
X10215476Y63603239D01*
X10120238Y63555620D01*
X9882142Y63555620D01*
X9786904Y63603239D01*
X9739285Y63650858D01*
X7707333Y12755620D02*
X7374000Y13231810D01*
X7135904Y12755620D02*
X7135904Y13755620D01*
X7516857Y13755620D01*
X7612095Y13708000D01*
X7659714Y13660381D01*
X7707333Y13565143D01*
X7707333Y13422286D01*
X7659714Y13327048D01*
X7612095Y13279429D01*
X7516857Y13231810D01*
X7135904Y13231810D01*
X8564476Y13422286D02*
X8564476Y12755620D01*
X8326380Y13803239D02*
X8088285Y13088953D01*
X8707333Y13088953D01*
X46188333Y3992620D02*
X45855000Y4468810D01*
X45616904Y3992620D02*
X45616904Y4992620D01*
X45997857Y4992620D01*
X46093095Y4945000D01*
X46140714Y4897381D01*
X46188333Y4802143D01*
X46188333Y4659286D01*
X46140714Y4564048D01*
X46093095Y4516429D01*
X45997857Y4468810D01*
X45616904Y4468810D01*
X46569285Y4897381D02*
X46616904Y4945000D01*
X46712142Y4992620D01*
X46950238Y4992620D01*
X47045476Y4945000D01*
X47093095Y4897381D01*
X47140714Y4802143D01*
X47140714Y4706905D01*
X47093095Y4564048D01*
X46521666Y3992620D01*
X47140714Y3992620D01*
X24598333Y63047620D02*
X24265000Y63523810D01*
X24026904Y63047620D02*
X24026904Y64047620D01*
X24407857Y64047620D01*
X24503095Y64000000D01*
X24550714Y63952381D01*
X24598333Y63857143D01*
X24598333Y63714286D01*
X24550714Y63619048D01*
X24503095Y63571429D01*
X24407857Y63523810D01*
X24026904Y63523810D01*
X25550714Y63047620D02*
X24979285Y63047620D01*
X25265000Y63047620D02*
X25265000Y64047620D01*
X25169761Y63904762D01*
X25074523Y63809524D01*
X24979285Y63761905D01*
X27932142Y3452858D02*
X27884523Y3405239D01*
X27741666Y3357620D01*
X27646428Y3357620D01*
X27503571Y3405239D01*
X27408333Y3500477D01*
X27360714Y3595715D01*
X27313095Y3786191D01*
X27313095Y3929048D01*
X27360714Y4119524D01*
X27408333Y4214762D01*
X27503571Y4310000D01*
X27646428Y4357620D01*
X27741666Y4357620D01*
X27884523Y4310000D01*
X27932142Y4262381D01*
X28884523Y3357620D02*
X28313095Y3357620D01*
X28598809Y3357620D02*
X28598809Y4357620D01*
X28503571Y4214762D01*
X28408333Y4119524D01*
X28313095Y4071905D01*
X29741666Y4024286D02*
X29741666Y3357620D01*
X29503571Y4405239D02*
X29265476Y3690953D01*
X29884523Y3690953D01*
X41902142Y61872858D02*
X41854523Y61825239D01*
X41711666Y61777620D01*
X41616428Y61777620D01*
X41473571Y61825239D01*
X41378333Y61920477D01*
X41330714Y62015715D01*
X41283095Y62206191D01*
X41283095Y62349048D01*
X41330714Y62539524D01*
X41378333Y62634762D01*
X41473571Y62730000D01*
X41616428Y62777620D01*
X41711666Y62777620D01*
X41854523Y62730000D01*
X41902142Y62682381D01*
X42854523Y61777620D02*
X42283095Y61777620D01*
X42568809Y61777620D02*
X42568809Y62777620D01*
X42473571Y62634762D01*
X42378333Y62539524D01*
X42283095Y62491905D01*
X43806904Y61777620D02*
X43235476Y61777620D01*
X43521190Y61777620D02*
X43521190Y62777620D01*
X43425952Y62634762D01*
X43330714Y62539524D01*
X43235476Y62491905D01*
X41902142Y45752858D02*
X41854523Y45705239D01*
X41711666Y45657620D01*
X41616428Y45657620D01*
X41473571Y45705239D01*
X41378333Y45800477D01*
X41330714Y45895715D01*
X41283095Y46086191D01*
X41283095Y46229048D01*
X41330714Y46419524D01*
X41378333Y46514762D01*
X41473571Y46610000D01*
X41616428Y46657620D01*
X41711666Y46657620D01*
X41854523Y46610000D01*
X41902142Y46562381D01*
X42854523Y45657620D02*
X42283095Y45657620D01*
X42568809Y45657620D02*
X42568809Y46657620D01*
X42473571Y46514762D01*
X42378333Y46419524D01*
X42283095Y46371905D01*
X43473571Y46657620D02*
X43568809Y46657620D01*
X43664047Y46610000D01*
X43711666Y46562381D01*
X43759285Y46467143D01*
X43806904Y46276667D01*
X43806904Y46038572D01*
X43759285Y45848096D01*
X43711666Y45752858D01*
X43664047Y45705239D01*
X43568809Y45657620D01*
X43473571Y45657620D01*
X43378333Y45705239D01*
X43330714Y45752858D01*
X43283095Y45848096D01*
X43235476Y46038572D01*
X43235476Y46276667D01*
X43283095Y46467143D01*
X43330714Y46562381D01*
X43378333Y46610000D01*
X43473571Y46657620D01*
X9993333Y12850858D02*
X9945714Y12803239D01*
X9802857Y12755620D01*
X9707619Y12755620D01*
X9564761Y12803239D01*
X9469523Y12898477D01*
X9421904Y12993715D01*
X9374285Y13184191D01*
X9374285Y13327048D01*
X9421904Y13517524D01*
X9469523Y13612762D01*
X9564761Y13708000D01*
X9707619Y13755620D01*
X9802857Y13755620D01*
X9945714Y13708000D01*
X9993333Y13660381D01*
X10469523Y12755620D02*
X10660000Y12755620D01*
X10755238Y12803239D01*
X10802857Y12850858D01*
X10898095Y12993715D01*
X10945714Y13184191D01*
X10945714Y13565143D01*
X10898095Y13660381D01*
X10850476Y13708000D01*
X10755238Y13755620D01*
X10564761Y13755620D01*
X10469523Y13708000D01*
X10421904Y13660381D01*
X10374285Y13565143D01*
X10374285Y13327048D01*
X10421904Y13231810D01*
X10469523Y13184191D01*
X10564761Y13136572D01*
X10755238Y13136572D01*
X10850476Y13184191D01*
X10898095Y13231810D01*
X10945714Y13327048D01*
X8088333Y28462858D02*
X8040714Y28415239D01*
X7897857Y28367620D01*
X7802619Y28367620D01*
X7659761Y28415239D01*
X7564523Y28510477D01*
X7516904Y28605715D01*
X7469285Y28796191D01*
X7469285Y28939048D01*
X7516904Y29129524D01*
X7564523Y29224762D01*
X7659761Y29320000D01*
X7802619Y29367620D01*
X7897857Y29367620D01*
X8040714Y29320000D01*
X8088333Y29272381D01*
X8659761Y28939048D02*
X8564523Y28986667D01*
X8516904Y29034286D01*
X8469285Y29129524D01*
X8469285Y29177143D01*
X8516904Y29272381D01*
X8564523Y29320000D01*
X8659761Y29367620D01*
X8850238Y29367620D01*
X8945476Y29320000D01*
X8993095Y29272381D01*
X9040714Y29177143D01*
X9040714Y29129524D01*
X8993095Y29034286D01*
X8945476Y28986667D01*
X8850238Y28939048D01*
X8659761Y28939048D01*
X8564523Y28891429D01*
X8516904Y28843810D01*
X8469285Y28748572D01*
X8469285Y28558096D01*
X8516904Y28462858D01*
X8564523Y28415239D01*
X8659761Y28367620D01*
X8850238Y28367620D01*
X8945476Y28415239D01*
X8993095Y28462858D01*
X9040714Y28558096D01*
X9040714Y28748572D01*
X8993095Y28843810D01*
X8945476Y28891429D01*
X8850238Y28939048D01*
X8088333Y48537858D02*
X8040714Y48490239D01*
X7897857Y48442620D01*
X7802619Y48442620D01*
X7659761Y48490239D01*
X7564523Y48585477D01*
X7516904Y48680715D01*
X7469285Y48871191D01*
X7469285Y49014048D01*
X7516904Y49204524D01*
X7564523Y49299762D01*
X7659761Y49395000D01*
X7802619Y49442620D01*
X7897857Y49442620D01*
X8040714Y49395000D01*
X8088333Y49347381D01*
X8421666Y49442620D02*
X9088333Y49442620D01*
X8659761Y48442620D01*
X26027142Y14628858D02*
X25979523Y14581239D01*
X25836666Y14533620D01*
X25741428Y14533620D01*
X25598571Y14581239D01*
X25503333Y14676477D01*
X25455714Y14771715D01*
X25408095Y14962191D01*
X25408095Y15105048D01*
X25455714Y15295524D01*
X25503333Y15390762D01*
X25598571Y15486000D01*
X25741428Y15533620D01*
X25836666Y15533620D01*
X25979523Y15486000D01*
X26027142Y15438381D01*
X26979523Y14533620D02*
X26408095Y14533620D01*
X26693809Y14533620D02*
X26693809Y15533620D01*
X26598571Y15390762D01*
X26503333Y15295524D01*
X26408095Y15247905D01*
X27312857Y15533620D02*
X27931904Y15533620D01*
X27598571Y15152667D01*
X27741428Y15152667D01*
X27836666Y15105048D01*
X27884285Y15057429D01*
X27931904Y14962191D01*
X27931904Y14724096D01*
X27884285Y14628858D01*
X27836666Y14581239D01*
X27741428Y14533620D01*
X27455714Y14533620D01*
X27360476Y14581239D01*
X27312857Y14628858D01*
X26503333Y63142858D02*
X26455714Y63095239D01*
X26312857Y63047620D01*
X26217619Y63047620D01*
X26074761Y63095239D01*
X25979523Y63190477D01*
X25931904Y63285715D01*
X25884285Y63476191D01*
X25884285Y63619048D01*
X25931904Y63809524D01*
X25979523Y63904762D01*
X26074761Y64000000D01*
X26217619Y64047620D01*
X26312857Y64047620D01*
X26455714Y64000000D01*
X26503333Y63952381D01*
X27408095Y64047620D02*
X26931904Y64047620D01*
X26884285Y63571429D01*
X26931904Y63619048D01*
X27027142Y63666667D01*
X27265238Y63666667D01*
X27360476Y63619048D01*
X27408095Y63571429D01*
X27455714Y63476191D01*
X27455714Y63238096D01*
X27408095Y63142858D01*
X27360476Y63095239D01*
X27265238Y63047620D01*
X27027142Y63047620D01*
X26931904Y63095239D01*
X26884285Y63142858D01*
X24598333Y41552858D02*
X24550714Y41505239D01*
X24407857Y41457620D01*
X24312619Y41457620D01*
X24169761Y41505239D01*
X24074523Y41600477D01*
X24026904Y41695715D01*
X23979285Y41886191D01*
X23979285Y42029048D01*
X24026904Y42219524D01*
X24074523Y42314762D01*
X24169761Y42410000D01*
X24312619Y42457620D01*
X24407857Y42457620D01*
X24550714Y42410000D01*
X24598333Y42362381D01*
X25455476Y42124286D02*
X25455476Y41457620D01*
X25217380Y42505239D02*
X24979285Y41790953D01*
X25598333Y41790953D01*
X23963333Y14628858D02*
X23915714Y14581239D01*
X23772857Y14533620D01*
X23677619Y14533620D01*
X23534761Y14581239D01*
X23439523Y14676477D01*
X23391904Y14771715D01*
X23344285Y14962191D01*
X23344285Y15105048D01*
X23391904Y15295524D01*
X23439523Y15390762D01*
X23534761Y15486000D01*
X23677619Y15533620D01*
X23772857Y15533620D01*
X23915714Y15486000D01*
X23963333Y15438381D01*
X24296666Y15533620D02*
X24915714Y15533620D01*
X24582380Y15152667D01*
X24725238Y15152667D01*
X24820476Y15105048D01*
X24868095Y15057429D01*
X24915714Y14962191D01*
X24915714Y14724096D01*
X24868095Y14628858D01*
X24820476Y14581239D01*
X24725238Y14533620D01*
X24439523Y14533620D01*
X24344285Y14581239D01*
X24296666Y14628858D01*
X23963333Y26947858D02*
X23915714Y26900239D01*
X23772857Y26852620D01*
X23677619Y26852620D01*
X23534761Y26900239D01*
X23439523Y26995477D01*
X23391904Y27090715D01*
X23344285Y27281191D01*
X23344285Y27424048D01*
X23391904Y27614524D01*
X23439523Y27709762D01*
X23534761Y27805000D01*
X23677619Y27852620D01*
X23772857Y27852620D01*
X23915714Y27805000D01*
X23963333Y27757381D01*
X24344285Y27757381D02*
X24391904Y27805000D01*
X24487142Y27852620D01*
X24725238Y27852620D01*
X24820476Y27805000D01*
X24868095Y27757381D01*
X24915714Y27662143D01*
X24915714Y27566905D01*
X24868095Y27424048D01*
X24296666Y26852620D01*
X24915714Y26852620D01*
X23963333Y45362858D02*
X23915714Y45315239D01*
X23772857Y45267620D01*
X23677619Y45267620D01*
X23534761Y45315239D01*
X23439523Y45410477D01*
X23391904Y45505715D01*
X23344285Y45696191D01*
X23344285Y45839048D01*
X23391904Y46029524D01*
X23439523Y46124762D01*
X23534761Y46220000D01*
X23677619Y46267620D01*
X23772857Y46267620D01*
X23915714Y46220000D01*
X23963333Y46172381D01*
X24915714Y45267620D02*
X24344285Y45267620D01*
X24630000Y45267620D02*
X24630000Y46267620D01*
X24534761Y46124762D01*
X24439523Y46029524D01*
X24344285Y45981905D01*
X16383095Y27942620D02*
X16383095Y27133096D01*
X16430714Y27037858D01*
X16478333Y26990239D01*
X16573571Y26942620D01*
X16764047Y26942620D01*
X16859285Y26990239D01*
X16906904Y27037858D01*
X16954523Y27133096D01*
X16954523Y27942620D01*
X17335476Y27942620D02*
X17954523Y27942620D01*
X17621190Y27561667D01*
X17764047Y27561667D01*
X17859285Y27514048D01*
X17906904Y27466429D01*
X17954523Y27371191D01*
X17954523Y27133096D01*
X17906904Y27037858D01*
X17859285Y26990239D01*
X17764047Y26942620D01*
X17478333Y26942620D01*
X17383095Y26990239D01*
X17335476Y27037858D01*
X16383095Y9527620D02*
X16383095Y8718096D01*
X16430714Y8622858D01*
X16478333Y8575239D01*
X16573571Y8527620D01*
X16764047Y8527620D01*
X16859285Y8575239D01*
X16906904Y8622858D01*
X16954523Y8718096D01*
X16954523Y9527620D01*
X17859285Y9194286D02*
X17859285Y8527620D01*
X17621190Y9575239D02*
X17383095Y8860953D01*
X18002142Y8860953D01*
X32893095Y45542620D02*
X32893095Y44733096D01*
X32940714Y44637858D01*
X32988333Y44590239D01*
X33083571Y44542620D01*
X33274047Y44542620D01*
X33369285Y44590239D01*
X33416904Y44637858D01*
X33464523Y44733096D01*
X33464523Y45542620D01*
X34416904Y45542620D02*
X33940714Y45542620D01*
X33893095Y45066429D01*
X33940714Y45114048D01*
X34035952Y45161667D01*
X34274047Y45161667D01*
X34369285Y45114048D01*
X34416904Y45066429D01*
X34464523Y44971191D01*
X34464523Y44733096D01*
X34416904Y44637858D01*
X34369285Y44590239D01*
X34274047Y44542620D01*
X34035952Y44542620D01*
X33940714Y44590239D01*
X33893095Y44637858D01*
X32893095Y63957620D02*
X32893095Y63148096D01*
X32940714Y63052858D01*
X32988333Y63005239D01*
X33083571Y62957620D01*
X33274047Y62957620D01*
X33369285Y63005239D01*
X33416904Y63052858D01*
X33464523Y63148096D01*
X33464523Y63957620D01*
X34369285Y63957620D02*
X34178809Y63957620D01*
X34083571Y63910000D01*
X34035952Y63862381D01*
X33940714Y63719524D01*
X33893095Y63529048D01*
X33893095Y63148096D01*
X33940714Y63052858D01*
X33988333Y63005239D01*
X34083571Y62957620D01*
X34274047Y62957620D01*
X34369285Y63005239D01*
X34416904Y63052858D01*
X34464523Y63148096D01*
X34464523Y63386191D01*
X34416904Y63481429D01*
X34369285Y63529048D01*
X34274047Y63576667D01*
X34083571Y63576667D01*
X33988333Y63529048D01*
X33940714Y63481429D01*
X33893095Y63386191D01*
M02*
