M48
; DRILL file {KiCad 5.1.4-e60b266~84~ubuntu18.04.1} date Thu 24 Oct 2019 10:36:55 BST
; FORMAT={-:-/ absolute / inch / decimal}
; #@! TF.CreationDate,2019-10-24T10:36:55+01:00
; #@! TF.GenerationSoftware,Kicad,Pcbnew,5.1.4-e60b266~84~ubuntu18.04.1
FMAT,2
INCH
T1C0.0118
T2C0.0157
T3C0.0354
T4C0.0394
T5C0.0512
%
G90
G05
T1
X0.76Y1.195
X0.775Y0.9
X0.79Y2.44
X0.79Y2.35
X0.79Y2.15
X0.79Y2.1
X0.79Y2.05
X0.79Y2.0
X0.79Y1.95
X0.79Y1.6
X0.79Y1.55
X0.79Y1.5
X0.79Y1.45
X0.79Y1.4
X0.79Y1.25
X0.79Y0.675
X0.79Y0.625
X0.79Y0.575
X0.79Y0.525
X0.8Y2.3
X0.85Y2.66
X1.2Y1.55
X1.2Y1.5
X1.2Y0.885
X1.215Y2.425
X1.215Y2.34
X1.215Y2.215
X1.215Y2.175
X1.215Y2.135
X1.215Y2.025
X1.215Y1.825
X1.215Y1.65
X1.215Y1.6
X1.215Y1.45
X1.215Y1.4
X1.215Y1.35
X1.215Y1.3
X1.215Y1.02
X1.215Y0.8
X1.215Y0.7
X1.215Y0.6
X1.225Y1.525
X1.475Y2.475
X1.475Y1.775
X1.4751Y1.09
T2
X0.4Y2.01
X0.4Y1.7
X0.4Y1.0525
X0.4Y0.975
X0.425Y2.425
X0.455Y0.37
X0.5Y1.8
X0.5Y1.75
X0.68Y1.85
X0.68Y1.75
X0.68Y1.65
X0.7Y2.25
X0.72Y1.85
X0.72Y1.75
X0.72Y1.65
X0.9Y0.15
X0.92Y2.425
X0.92Y2.375
X0.925Y1.7
X0.925Y1.65
X0.925Y0.975
X0.925Y0.925
X0.95Y1.275
X0.95Y0.55
X0.96Y2.2
X1.0Y1.94
X1.05Y2.275
X1.05Y1.56
X1.05Y0.55
X1.075Y1.9
X1.075Y1.2
X1.075Y1.15
X1.28Y1.05
X1.28Y0.95
X1.3Y2.15
X1.3Y0.4
X1.32Y1.05
X1.32Y0.95
X1.45Y0.3
X1.465Y0.925
X1.5Y1.02
X1.5Y0.98
X1.575Y1.875
X1.575Y1.15
X1.6Y1.8
X1.62Y2.26
X1.69Y0.98
X1.69Y0.9
X1.69Y0.725
X1.69Y0.65
X1.69Y0.475
X1.6902Y0.5498
X1.79Y0.39
T3
X0.925Y2.925
X1.025Y2.925
X0.525Y2.925
X0.625Y2.925
X0.725Y2.925
X0.825Y2.925
T4
X1.6478Y2.925
X1.825Y2.925
X0.1675Y2.925
X0.3447Y2.925
X1.8Y2.4
X1.8Y2.3
X1.8Y2.2
X1.8Y2.1
X1.8Y2.0
X1.8Y1.9
X1.8Y1.8
X1.8Y1.7
X1.8Y1.6
X1.8Y1.5
X1.8Y1.4
X1.8Y1.3
X1.8Y1.2
X1.8Y1.1
X1.8Y1.0
X1.8Y0.9
X1.8Y0.8
X1.8Y0.7
X1.8Y0.6
X1.8Y0.5
X1.9Y2.4
X1.9Y2.3
X1.9Y2.2
X1.9Y2.1
X1.9Y2.0
X1.9Y1.9
X1.9Y1.8
X1.9Y1.7
X1.9Y1.6
X1.9Y1.5
X1.9Y1.4
X1.9Y1.3
X1.9Y1.2
X1.9Y1.1
X1.9Y1.0
X1.9Y0.9
X1.9Y0.8
X1.9Y0.7
X1.9Y0.6
X1.9Y0.5
X1.55Y0.35
X1.55Y0.25
X1.55Y0.15
X0.1Y2.4
X0.1Y2.3
X0.1Y2.2
X0.1Y2.1
X0.1Y2.0
X0.1Y1.9
X0.1Y1.8
X0.1Y1.7
X0.1Y1.6
X0.1Y1.5
X0.1Y1.4
X0.1Y1.3
X0.1Y1.2
X0.1Y1.1
X0.1Y1.0
X0.1Y0.9
X0.1Y0.8
X0.1Y0.7
X0.1Y0.6
X0.1Y0.5
X0.2Y2.4
X0.2Y2.3
X0.2Y2.2
X0.2Y2.1
X0.2Y2.0
X0.2Y1.9
X0.2Y1.8
X0.2Y1.7
X0.2Y1.6
X0.2Y1.5
X0.2Y1.4
X0.2Y1.3
X0.2Y1.2
X0.2Y1.1
X0.2Y1.0
X0.2Y0.9
X0.2Y0.8
X0.2Y0.7
X0.2Y0.6
X0.2Y0.5
X0.475Y2.725
X0.475Y2.625
X0.475Y2.525
X0.475Y0.25
X0.475Y0.15
X1.5Y2.675
X1.5Y2.575
T5
X1.5986Y2.8266
X1.8742Y2.8266
X0.1183Y2.8266
X0.3939Y2.8266
T0
M30
