G04 #@! TF.GenerationSoftware,KiCad,Pcbnew,5.1.4-e60b266~84~ubuntu18.04.1*
G04 #@! TF.CreationDate,2019-09-22T15:50:52+01:00*
G04 #@! TF.ProjectId,z80_adapter,7a38305f-6164-4617-9074-65722e6b6963,rev?*
G04 #@! TF.SameCoordinates,PX9fdfbc0PY791ddc0*
G04 #@! TF.FileFunction,Legend,Top*
G04 #@! TF.FilePolarity,Positive*
%FSLAX46Y46*%
G04 Gerber Fmt 4.6, Leading zero omitted, Abs format (unit mm)*
G04 Created by KiCad (PCBNEW 5.1.4-e60b266~84~ubuntu18.04.1) date 2019-09-22 15:50:52*
%MOMM*%
%LPD*%
G04 APERTURE LIST*
%ADD10C,0.200000*%
%ADD11C,0.150000*%
%ADD12C,0.120000*%
G04 APERTURE END LIST*
D10*
X14179285Y69304286D02*
X14357857Y69244762D01*
X14417380Y69185239D01*
X14476904Y69066191D01*
X14476904Y68887620D01*
X14417380Y68768572D01*
X14357857Y68709048D01*
X14238809Y68649524D01*
X13762619Y68649524D01*
X13762619Y69899524D01*
X14179285Y69899524D01*
X14298333Y69840000D01*
X14357857Y69780477D01*
X14417380Y69661429D01*
X14417380Y69542381D01*
X14357857Y69423334D01*
X14298333Y69363810D01*
X14179285Y69304286D01*
X13762619Y69304286D01*
X15012619Y68649524D02*
X15012619Y69899524D01*
X15131666Y69125715D02*
X15488809Y68649524D01*
X15488809Y69482858D02*
X15012619Y69006667D01*
X16024523Y68649524D02*
X16024523Y69899524D01*
X16500714Y69899524D01*
X16619761Y69840000D01*
X16679285Y69780477D01*
X16738809Y69661429D01*
X16738809Y69482858D01*
X16679285Y69363810D01*
X16619761Y69304286D01*
X16500714Y69244762D01*
X16024523Y69244762D01*
X17095952Y69482858D02*
X17572142Y69482858D01*
X17274523Y69899524D02*
X17274523Y68828096D01*
X17334047Y68709048D01*
X17453095Y68649524D01*
X17572142Y68649524D01*
D11*
X16002000Y46736000D02*
G75*
G02X18542000Y46736000I1270000J0D01*
G01*
X16002000Y9906000D02*
G75*
G02X18542000Y9906000I1270000J0D01*
G01*
X15875000Y28321000D02*
G75*
G02X18415000Y28321000I1270000J0D01*
G01*
X34925000Y44069000D02*
G75*
G02X32385000Y44069000I-1270000J0D01*
G01*
X34925000Y62484000D02*
G75*
G02X32385000Y62484000I-1270000J0D01*
G01*
D10*
X23998047Y69899524D02*
X24712333Y69899524D01*
X24355190Y68649524D02*
X24355190Y69899524D01*
X25129000Y68649524D02*
X25129000Y69482858D01*
X25129000Y69244762D02*
X25188523Y69363810D01*
X25248047Y69423334D01*
X25367095Y69482858D01*
X25486142Y69482858D01*
X25902809Y68649524D02*
X25902809Y69482858D01*
X25902809Y69899524D02*
X25843285Y69840000D01*
X25902809Y69780477D01*
X25962333Y69840000D01*
X25902809Y69899524D01*
X25902809Y69780477D01*
X27033761Y69482858D02*
X27033761Y68470953D01*
X26974238Y68351905D01*
X26914714Y68292381D01*
X26795666Y68232858D01*
X26617095Y68232858D01*
X26498047Y68292381D01*
X27033761Y68709048D02*
X26914714Y68649524D01*
X26676619Y68649524D01*
X26557571Y68709048D01*
X26498047Y68768572D01*
X26438523Y68887620D01*
X26438523Y69244762D01*
X26498047Y69363810D01*
X26557571Y69423334D01*
X26676619Y69482858D01*
X26914714Y69482858D01*
X27033761Y69423334D01*
X28283761Y68649524D02*
X27569476Y68649524D01*
X27926619Y68649524D02*
X27926619Y69899524D01*
X27807571Y69720953D01*
X27688523Y69601905D01*
X27569476Y69542381D01*
X18791047Y69899524D02*
X19505333Y69899524D01*
X19148190Y68649524D02*
X19148190Y69899524D01*
X19922000Y68649524D02*
X19922000Y69482858D01*
X19922000Y69244762D02*
X19981523Y69363810D01*
X20041047Y69423334D01*
X20160095Y69482858D01*
X20279142Y69482858D01*
X20695809Y68649524D02*
X20695809Y69482858D01*
X20695809Y69899524D02*
X20636285Y69840000D01*
X20695809Y69780477D01*
X20755333Y69840000D01*
X20695809Y69899524D01*
X20695809Y69780477D01*
X21826761Y69482858D02*
X21826761Y68470953D01*
X21767238Y68351905D01*
X21707714Y68292381D01*
X21588666Y68232858D01*
X21410095Y68232858D01*
X21291047Y68292381D01*
X21826761Y68709048D02*
X21707714Y68649524D01*
X21469619Y68649524D01*
X21350571Y68709048D01*
X21291047Y68768572D01*
X21231523Y68887620D01*
X21231523Y69244762D01*
X21291047Y69363810D01*
X21350571Y69423334D01*
X21469619Y69482858D01*
X21707714Y69482858D01*
X21826761Y69423334D01*
X22660095Y69899524D02*
X22779142Y69899524D01*
X22898190Y69840000D01*
X22957714Y69780477D01*
X23017238Y69661429D01*
X23076761Y69423334D01*
X23076761Y69125715D01*
X23017238Y68887620D01*
X22957714Y68768572D01*
X22898190Y68709048D01*
X22779142Y68649524D01*
X22660095Y68649524D01*
X22541047Y68709048D01*
X22481523Y68768572D01*
X22422000Y68887620D01*
X22362476Y69125715D01*
X22362476Y69423334D01*
X22422000Y69661429D01*
X22481523Y69780477D01*
X22541047Y69840000D01*
X22660095Y69899524D01*
X30716190Y75635239D02*
X30716190Y74016191D01*
X30811428Y73825715D01*
X30906666Y73730477D01*
X31097142Y73635239D01*
X31478095Y73635239D01*
X31668571Y73730477D01*
X31763809Y73825715D01*
X31859047Y74016191D01*
X31859047Y75635239D01*
X32716190Y73730477D02*
X33001904Y73635239D01*
X33478095Y73635239D01*
X33668571Y73730477D01*
X33763809Y73825715D01*
X33859047Y74016191D01*
X33859047Y74206667D01*
X33763809Y74397143D01*
X33668571Y74492381D01*
X33478095Y74587620D01*
X33097142Y74682858D01*
X32906666Y74778096D01*
X32811428Y74873334D01*
X32716190Y75063810D01*
X32716190Y75254286D01*
X32811428Y75444762D01*
X32906666Y75540000D01*
X33097142Y75635239D01*
X33573333Y75635239D01*
X33859047Y75540000D01*
X35382857Y74682858D02*
X35668571Y74587620D01*
X35763809Y74492381D01*
X35859047Y74301905D01*
X35859047Y74016191D01*
X35763809Y73825715D01*
X35668571Y73730477D01*
X35478095Y73635239D01*
X34716190Y73635239D01*
X34716190Y75635239D01*
X35382857Y75635239D01*
X35573333Y75540000D01*
X35668571Y75444762D01*
X35763809Y75254286D01*
X35763809Y75063810D01*
X35668571Y74873334D01*
X35573333Y74778096D01*
X35382857Y74682858D01*
X34716190Y74682858D01*
D11*
X28740000Y72540000D02*
X28740000Y76540000D01*
X37740000Y72540000D02*
X28740000Y72540000D01*
X37740000Y76540000D02*
X37740000Y72540000D01*
X28740000Y76540000D02*
X37740000Y76540000D01*
D12*
X24840000Y19541748D02*
X24840000Y20064252D01*
X23420000Y19541748D02*
X23420000Y20064252D01*
X27380000Y19051748D02*
X27380000Y19574252D01*
X25960000Y19051748D02*
X25960000Y19574252D01*
X24840000Y30218748D02*
X24840000Y30741252D01*
X23420000Y30218748D02*
X23420000Y30741252D01*
X39930000Y23366252D02*
X39930000Y22843748D01*
X41350000Y23366252D02*
X41350000Y22843748D01*
X25960000Y24128252D02*
X25960000Y23605748D01*
X27380000Y24128252D02*
X27380000Y23605748D01*
D11*
X29780000Y25380000D02*
X27955000Y25380000D01*
X29780000Y9905000D02*
X37530000Y9905000D01*
X29780000Y25655000D02*
X37530000Y25655000D01*
X29780000Y9905000D02*
X29780000Y10270000D01*
X37530000Y9905000D02*
X37530000Y10270000D01*
X37530000Y25655000D02*
X37530000Y25290000D01*
X29780000Y25655000D02*
X29780000Y25380000D01*
D12*
X29716252Y27761000D02*
X29193748Y27761000D01*
X29716252Y26341000D02*
X29193748Y26341000D01*
X43441252Y8180000D02*
X42918748Y8180000D01*
X43441252Y9600000D02*
X42918748Y9600000D01*
D11*
X21020000Y47010000D02*
X22845000Y47010000D01*
X21020000Y62485000D02*
X13270000Y62485000D01*
X21020000Y46735000D02*
X13270000Y46735000D01*
X21020000Y62485000D02*
X21020000Y62120000D01*
X13270000Y62485000D02*
X13270000Y62120000D01*
X13270000Y46735000D02*
X13270000Y47100000D01*
X21020000Y46735000D02*
X21020000Y47010000D01*
D12*
X47085000Y70175000D02*
X47085000Y70525000D01*
X47975000Y70175000D02*
X47085000Y70175000D01*
X47975000Y70475000D02*
X47975000Y70175000D01*
X47975000Y73115000D02*
X47975000Y76965000D01*
X47975000Y76965000D02*
X40235000Y76965000D01*
X40235000Y76965000D02*
X40235000Y73115000D01*
X41615000Y72725000D02*
X46595000Y72725000D01*
X41125000Y70175000D02*
X40235000Y70175000D01*
X41125000Y70175000D02*
X41125000Y70525000D01*
X40235000Y70475000D02*
X40235000Y70175000D01*
X9484500Y70175000D02*
X9484500Y70525000D01*
X10374500Y70175000D02*
X9484500Y70175000D01*
X10374500Y70475000D02*
X10374500Y70175000D01*
X10374500Y73115000D02*
X10374500Y76965000D01*
X10374500Y76965000D02*
X2634500Y76965000D01*
X2634500Y76965000D02*
X2634500Y73115000D01*
X4014500Y72725000D02*
X8994500Y72725000D01*
X3524500Y70175000D02*
X2634500Y70175000D01*
X3524500Y70175000D02*
X3524500Y70525000D01*
X2634500Y70475000D02*
X2634500Y70175000D01*
X21245000Y75375000D02*
X21245000Y75531000D01*
X21245000Y73059000D02*
X21245000Y73215000D01*
X18643870Y75374837D02*
G75*
G02X20725961Y75375000I1041130J-1079837D01*
G01*
X18643870Y73215163D02*
G75*
G03X20725961Y73215000I1041130J1079837D01*
G01*
X18012665Y75373608D02*
G75*
G02X21245000Y75530516I1672335J-1078608D01*
G01*
X18012665Y73216392D02*
G75*
G03X21245000Y73059484I1672335J1078608D01*
G01*
X26325000Y75375000D02*
X26325000Y75531000D01*
X26325000Y73059000D02*
X26325000Y73215000D01*
X23723870Y75374837D02*
G75*
G02X25805961Y75375000I1041130J-1079837D01*
G01*
X23723870Y73215163D02*
G75*
G03X25805961Y73215000I1041130J1079837D01*
G01*
X23092665Y75373608D02*
G75*
G02X26325000Y75530516I1672335J-1078608D01*
G01*
X23092665Y73216392D02*
G75*
G03X26325000Y73059484I1672335J1078608D01*
G01*
X16165000Y75375000D02*
X16165000Y75531000D01*
X16165000Y73059000D02*
X16165000Y73215000D01*
X13563870Y75374837D02*
G75*
G02X15645961Y75375000I1041130J-1079837D01*
G01*
X13563870Y73215163D02*
G75*
G03X15645961Y73215000I1041130J1079837D01*
G01*
X12932665Y75373608D02*
G75*
G02X16165000Y75530516I1672335J-1078608D01*
G01*
X12932665Y73216392D02*
G75*
G03X16165000Y73059484I1672335J1078608D01*
G01*
X5080000Y62290000D02*
X6410000Y62290000D01*
X6410000Y62290000D02*
X6410000Y60960000D01*
X3810000Y62290000D02*
X3810000Y59690000D01*
X3810000Y59690000D02*
X6410000Y59690000D01*
X6410000Y59690000D02*
X6410000Y11370000D01*
X1210000Y11370000D02*
X6410000Y11370000D01*
X1210000Y62290000D02*
X1210000Y11370000D01*
X1210000Y62290000D02*
X3810000Y62290000D01*
X45720000Y11370000D02*
X44390000Y11370000D01*
X44390000Y11370000D02*
X44390000Y12700000D01*
X46990000Y11370000D02*
X46990000Y13970000D01*
X46990000Y13970000D02*
X44390000Y13970000D01*
X44390000Y13970000D02*
X44390000Y62290000D01*
X49590000Y62290000D02*
X44390000Y62290000D01*
X49590000Y11370000D02*
X49590000Y62290000D01*
X49590000Y11370000D02*
X46990000Y11370000D01*
X45981252Y69290000D02*
X45458748Y69290000D01*
X45981252Y67870000D02*
X45458748Y67870000D01*
X6088748Y65584000D02*
X6611252Y65584000D01*
X6088748Y67004000D02*
X6611252Y67004000D01*
X6088748Y67870000D02*
X6611252Y67870000D01*
X6088748Y69290000D02*
X6611252Y69290000D01*
X45458748Y65330000D02*
X45981252Y65330000D01*
X45458748Y66750000D02*
X45981252Y66750000D01*
X6611252Y64718000D02*
X6088748Y64718000D01*
X6611252Y63298000D02*
X6088748Y63298000D01*
X7291000Y10421252D02*
X7291000Y9898748D01*
X8711000Y10421252D02*
X8711000Y9898748D01*
X43441252Y5640000D02*
X42918748Y5640000D01*
X43441252Y7060000D02*
X42918748Y7060000D01*
X43770000Y28900000D02*
X40910000Y28900000D01*
X43770000Y26980000D02*
X43770000Y28900000D01*
X40910000Y26980000D02*
X43770000Y26980000D01*
X7030000Y44379000D02*
X9890000Y44379000D01*
X7030000Y46299000D02*
X7030000Y44379000D01*
X9890000Y46299000D02*
X7030000Y46299000D01*
X23511252Y4520000D02*
X22988748Y4520000D01*
X23511252Y3100000D02*
X22988748Y3100000D01*
X40565000Y60196252D02*
X40565000Y59673748D01*
X41985000Y60196252D02*
X41985000Y59673748D01*
X41350000Y43308748D02*
X41350000Y43831252D01*
X39930000Y43308748D02*
X39930000Y43831252D01*
X9450000Y10421252D02*
X9450000Y9898748D01*
X10870000Y10421252D02*
X10870000Y9898748D01*
X9450000Y29081252D02*
X9450000Y28558748D01*
X10870000Y29081252D02*
X10870000Y28558748D01*
X10235000Y49023748D02*
X10235000Y49546252D01*
X8815000Y49023748D02*
X8815000Y49546252D01*
X23420000Y60586252D02*
X23420000Y60063748D01*
X24840000Y60586252D02*
X24840000Y60063748D01*
X25960000Y60586252D02*
X25960000Y60063748D01*
X27380000Y60586252D02*
X27380000Y60063748D01*
X25960000Y42171252D02*
X25960000Y41648748D01*
X27380000Y42171252D02*
X27380000Y41648748D01*
X24840000Y11558748D02*
X24840000Y12081252D01*
X23420000Y11558748D02*
X23420000Y12081252D01*
X24840000Y47998748D02*
X24840000Y48521252D01*
X23420000Y47998748D02*
X23420000Y48521252D01*
D11*
X21020000Y28595000D02*
X22845000Y28595000D01*
X21020000Y44070000D02*
X13270000Y44070000D01*
X21020000Y28320000D02*
X13270000Y28320000D01*
X21020000Y44070000D02*
X21020000Y43705000D01*
X13270000Y44070000D02*
X13270000Y43705000D01*
X13270000Y28320000D02*
X13270000Y28685000D01*
X21020000Y28320000D02*
X21020000Y28595000D01*
X21020000Y10180000D02*
X22845000Y10180000D01*
X21020000Y25655000D02*
X13270000Y25655000D01*
X21020000Y9905000D02*
X13270000Y9905000D01*
X21020000Y25655000D02*
X21020000Y25290000D01*
X13270000Y25655000D02*
X13270000Y25290000D01*
X13270000Y9905000D02*
X13270000Y10270000D01*
X21020000Y9905000D02*
X21020000Y10180000D01*
X29780000Y43795000D02*
X27955000Y43795000D01*
X29780000Y28320000D02*
X37530000Y28320000D01*
X29780000Y44070000D02*
X37530000Y44070000D01*
X29780000Y28320000D02*
X29780000Y28685000D01*
X37530000Y28320000D02*
X37530000Y28685000D01*
X37530000Y44070000D02*
X37530000Y43705000D01*
X29780000Y44070000D02*
X29780000Y43795000D01*
X29780000Y62210000D02*
X27955000Y62210000D01*
X29780000Y46735000D02*
X37530000Y46735000D01*
X29780000Y62485000D02*
X37530000Y62485000D01*
X29780000Y46735000D02*
X29780000Y47100000D01*
X37530000Y46735000D02*
X37530000Y47100000D01*
X37530000Y62485000D02*
X37530000Y62120000D01*
X29780000Y62485000D02*
X29780000Y62210000D01*
X23995142Y16311620D02*
X23661809Y16787810D01*
X23423714Y16311620D02*
X23423714Y17311620D01*
X23804666Y17311620D01*
X23899904Y17264000D01*
X23947523Y17216381D01*
X23995142Y17121143D01*
X23995142Y16978286D01*
X23947523Y16883048D01*
X23899904Y16835429D01*
X23804666Y16787810D01*
X23423714Y16787810D01*
X24947523Y16311620D02*
X24376095Y16311620D01*
X24661809Y16311620D02*
X24661809Y17311620D01*
X24566571Y17168762D01*
X24471333Y17073524D01*
X24376095Y17025905D01*
X25804666Y16978286D02*
X25804666Y16311620D01*
X25566571Y17359239D02*
X25328476Y16644953D01*
X25947523Y16644953D01*
X25519142Y15136858D02*
X25471523Y15089239D01*
X25328666Y15041620D01*
X25233428Y15041620D01*
X25090571Y15089239D01*
X24995333Y15184477D01*
X24947714Y15279715D01*
X24900095Y15470191D01*
X24900095Y15613048D01*
X24947714Y15803524D01*
X24995333Y15898762D01*
X25090571Y15994000D01*
X25233428Y16041620D01*
X25328666Y16041620D01*
X25471523Y15994000D01*
X25519142Y15946381D01*
X26471523Y15041620D02*
X25900095Y15041620D01*
X26185809Y15041620D02*
X26185809Y16041620D01*
X26090571Y15898762D01*
X25995333Y15803524D01*
X25900095Y15755905D01*
X27376285Y16041620D02*
X26900095Y16041620D01*
X26852476Y15565429D01*
X26900095Y15613048D01*
X26995333Y15660667D01*
X27233428Y15660667D01*
X27328666Y15613048D01*
X27376285Y15565429D01*
X27423904Y15470191D01*
X27423904Y15232096D01*
X27376285Y15136858D01*
X27328666Y15089239D01*
X27233428Y15041620D01*
X26995333Y15041620D01*
X26900095Y15089239D01*
X26852476Y15136858D01*
X23963333Y27582858D02*
X23915714Y27535239D01*
X23772857Y27487620D01*
X23677619Y27487620D01*
X23534761Y27535239D01*
X23439523Y27630477D01*
X23391904Y27725715D01*
X23344285Y27916191D01*
X23344285Y28059048D01*
X23391904Y28249524D01*
X23439523Y28344762D01*
X23534761Y28440000D01*
X23677619Y28487620D01*
X23772857Y28487620D01*
X23915714Y28440000D01*
X23963333Y28392381D01*
X24344285Y28392381D02*
X24391904Y28440000D01*
X24487142Y28487620D01*
X24725238Y28487620D01*
X24820476Y28440000D01*
X24868095Y28392381D01*
X24915714Y28297143D01*
X24915714Y28201905D01*
X24868095Y28059048D01*
X24296666Y27487620D01*
X24915714Y27487620D01*
X40505142Y25296858D02*
X40457523Y25249239D01*
X40314666Y25201620D01*
X40219428Y25201620D01*
X40076571Y25249239D01*
X39981333Y25344477D01*
X39933714Y25439715D01*
X39886095Y25630191D01*
X39886095Y25773048D01*
X39933714Y25963524D01*
X39981333Y26058762D01*
X40076571Y26154000D01*
X40219428Y26201620D01*
X40314666Y26201620D01*
X40457523Y26154000D01*
X40505142Y26106381D01*
X41457523Y25201620D02*
X40886095Y25201620D01*
X41171809Y25201620D02*
X41171809Y26201620D01*
X41076571Y26058762D01*
X40981333Y25963524D01*
X40886095Y25915905D01*
X41838476Y26106381D02*
X41886095Y26154000D01*
X41981333Y26201620D01*
X42219428Y26201620D01*
X42314666Y26154000D01*
X42362285Y26106381D01*
X42409904Y26011143D01*
X42409904Y25915905D01*
X42362285Y25773048D01*
X41790857Y25201620D01*
X42409904Y25201620D01*
X24725333Y23518858D02*
X24677714Y23471239D01*
X24534857Y23423620D01*
X24439619Y23423620D01*
X24296761Y23471239D01*
X24201523Y23566477D01*
X24153904Y23661715D01*
X24106285Y23852191D01*
X24106285Y23995048D01*
X24153904Y24185524D01*
X24201523Y24280762D01*
X24296761Y24376000D01*
X24439619Y24423620D01*
X24534857Y24423620D01*
X24677714Y24376000D01*
X24725333Y24328381D01*
X25582476Y24423620D02*
X25392000Y24423620D01*
X25296761Y24376000D01*
X25249142Y24328381D01*
X25153904Y24185524D01*
X25106285Y23995048D01*
X25106285Y23614096D01*
X25153904Y23518858D01*
X25201523Y23471239D01*
X25296761Y23423620D01*
X25487238Y23423620D01*
X25582476Y23471239D01*
X25630095Y23518858D01*
X25677714Y23614096D01*
X25677714Y23852191D01*
X25630095Y23947429D01*
X25582476Y23995048D01*
X25487238Y24042667D01*
X25296761Y24042667D01*
X25201523Y23995048D01*
X25153904Y23947429D01*
X25106285Y23852191D01*
X34163095Y27127620D02*
X34163095Y26318096D01*
X34210714Y26222858D01*
X34258333Y26175239D01*
X34353571Y26127620D01*
X34544047Y26127620D01*
X34639285Y26175239D01*
X34686904Y26222858D01*
X34734523Y26318096D01*
X34734523Y27127620D01*
X35686904Y27127620D02*
X35210714Y27127620D01*
X35163095Y26651429D01*
X35210714Y26699048D01*
X35305952Y26746667D01*
X35544047Y26746667D01*
X35639285Y26699048D01*
X35686904Y26651429D01*
X35734523Y26556191D01*
X35734523Y26318096D01*
X35686904Y26222858D01*
X35639285Y26175239D01*
X35544047Y26127620D01*
X35305952Y26127620D01*
X35210714Y26175239D01*
X35163095Y26222858D01*
X26376333Y26725620D02*
X26043000Y27201810D01*
X25804904Y26725620D02*
X25804904Y27725620D01*
X26185857Y27725620D01*
X26281095Y27678000D01*
X26328714Y27630381D01*
X26376333Y27535143D01*
X26376333Y27392286D01*
X26328714Y27297048D01*
X26281095Y27249429D01*
X26185857Y27201810D01*
X25804904Y27201810D01*
X27328714Y26725620D02*
X26757285Y26725620D01*
X27043000Y26725620D02*
X27043000Y27725620D01*
X26947761Y27582762D01*
X26852523Y27487524D01*
X26757285Y27439905D01*
X46188333Y8437620D02*
X45855000Y8913810D01*
X45616904Y8437620D02*
X45616904Y9437620D01*
X45997857Y9437620D01*
X46093095Y9390000D01*
X46140714Y9342381D01*
X46188333Y9247143D01*
X46188333Y9104286D01*
X46140714Y9009048D01*
X46093095Y8961429D01*
X45997857Y8913810D01*
X45616904Y8913810D01*
X46521666Y9437620D02*
X47140714Y9437620D01*
X46807380Y9056667D01*
X46950238Y9056667D01*
X47045476Y9009048D01*
X47093095Y8961429D01*
X47140714Y8866191D01*
X47140714Y8628096D01*
X47093095Y8532858D01*
X47045476Y8485239D01*
X46950238Y8437620D01*
X46664523Y8437620D01*
X46569285Y8485239D01*
X46521666Y8532858D01*
X16383095Y46357620D02*
X16383095Y45548096D01*
X16430714Y45452858D01*
X16478333Y45405239D01*
X16573571Y45357620D01*
X16764047Y45357620D01*
X16859285Y45405239D01*
X16906904Y45452858D01*
X16954523Y45548096D01*
X16954523Y46357620D01*
X17383095Y46262381D02*
X17430714Y46310000D01*
X17525952Y46357620D01*
X17764047Y46357620D01*
X17859285Y46310000D01*
X17906904Y46262381D01*
X17954523Y46167143D01*
X17954523Y46071905D01*
X17906904Y45929048D01*
X17335476Y45357620D01*
X17954523Y45357620D01*
X42771666Y70715239D02*
X42914523Y70667620D01*
X43152619Y70667620D01*
X43247857Y70715239D01*
X43295476Y70762858D01*
X43343095Y70858096D01*
X43343095Y70953334D01*
X43295476Y71048572D01*
X43247857Y71096191D01*
X43152619Y71143810D01*
X42962142Y71191429D01*
X42866904Y71239048D01*
X42819285Y71286667D01*
X42771666Y71381905D01*
X42771666Y71477143D01*
X42819285Y71572381D01*
X42866904Y71620000D01*
X42962142Y71667620D01*
X43200238Y71667620D01*
X43343095Y71620000D01*
X43676428Y71667620D02*
X43914523Y70667620D01*
X44105000Y71381905D01*
X44295476Y70667620D01*
X44533571Y71667620D01*
X44866904Y71572381D02*
X44914523Y71620000D01*
X45009761Y71667620D01*
X45247857Y71667620D01*
X45343095Y71620000D01*
X45390714Y71572381D01*
X45438333Y71477143D01*
X45438333Y71381905D01*
X45390714Y71239048D01*
X44819285Y70667620D01*
X45438333Y70667620D01*
X5016666Y70715239D02*
X5159523Y70667620D01*
X5397619Y70667620D01*
X5492857Y70715239D01*
X5540476Y70762858D01*
X5588095Y70858096D01*
X5588095Y70953334D01*
X5540476Y71048572D01*
X5492857Y71096191D01*
X5397619Y71143810D01*
X5207142Y71191429D01*
X5111904Y71239048D01*
X5064285Y71286667D01*
X5016666Y71381905D01*
X5016666Y71477143D01*
X5064285Y71572381D01*
X5111904Y71620000D01*
X5207142Y71667620D01*
X5445238Y71667620D01*
X5588095Y71620000D01*
X5921428Y71667620D02*
X6159523Y70667620D01*
X6350000Y71381905D01*
X6540476Y70667620D01*
X6778571Y71667620D01*
X7683333Y70667620D02*
X7111904Y70667620D01*
X7397619Y70667620D02*
X7397619Y71667620D01*
X7302380Y71524762D01*
X7207142Y71429524D01*
X7111904Y71381905D01*
X18946904Y70667620D02*
X18946904Y71667620D01*
X19185000Y71667620D01*
X19327857Y71620000D01*
X19423095Y71524762D01*
X19470714Y71429524D01*
X19518333Y71239048D01*
X19518333Y71096191D01*
X19470714Y70905715D01*
X19423095Y70810477D01*
X19327857Y70715239D01*
X19185000Y70667620D01*
X18946904Y70667620D01*
X19899285Y71572381D02*
X19946904Y71620000D01*
X20042142Y71667620D01*
X20280238Y71667620D01*
X20375476Y71620000D01*
X20423095Y71572381D01*
X20470714Y71477143D01*
X20470714Y71381905D01*
X20423095Y71239048D01*
X19851666Y70667620D01*
X20470714Y70667620D01*
X24026904Y70667620D02*
X24026904Y71667620D01*
X24265000Y71667620D01*
X24407857Y71620000D01*
X24503095Y71524762D01*
X24550714Y71429524D01*
X24598333Y71239048D01*
X24598333Y71096191D01*
X24550714Y70905715D01*
X24503095Y70810477D01*
X24407857Y70715239D01*
X24265000Y70667620D01*
X24026904Y70667620D01*
X24931666Y71667620D02*
X25550714Y71667620D01*
X25217380Y71286667D01*
X25360238Y71286667D01*
X25455476Y71239048D01*
X25503095Y71191429D01*
X25550714Y71096191D01*
X25550714Y70858096D01*
X25503095Y70762858D01*
X25455476Y70715239D01*
X25360238Y70667620D01*
X25074523Y70667620D01*
X24979285Y70715239D01*
X24931666Y70762858D01*
X13866904Y70667620D02*
X13866904Y71667620D01*
X14105000Y71667620D01*
X14247857Y71620000D01*
X14343095Y71524762D01*
X14390714Y71429524D01*
X14438333Y71239048D01*
X14438333Y71096191D01*
X14390714Y70905715D01*
X14343095Y70810477D01*
X14247857Y70715239D01*
X14105000Y70667620D01*
X13866904Y70667620D01*
X15390714Y70667620D02*
X14819285Y70667620D01*
X15105000Y70667620D02*
X15105000Y71667620D01*
X15009761Y71524762D01*
X14914523Y71429524D01*
X14819285Y71381905D01*
X3071904Y9072620D02*
X3071904Y10072620D01*
X3452857Y10072620D01*
X3548095Y10025000D01*
X3595714Y9977381D01*
X3643333Y9882143D01*
X3643333Y9739286D01*
X3595714Y9644048D01*
X3548095Y9596429D01*
X3452857Y9548810D01*
X3071904Y9548810D01*
X4024285Y9977381D02*
X4071904Y10025000D01*
X4167142Y10072620D01*
X4405238Y10072620D01*
X4500476Y10025000D01*
X4548095Y9977381D01*
X4595714Y9882143D01*
X4595714Y9786905D01*
X4548095Y9644048D01*
X3976666Y9072620D01*
X4595714Y9072620D01*
X46251904Y63047620D02*
X46251904Y64047620D01*
X46632857Y64047620D01*
X46728095Y64000000D01*
X46775714Y63952381D01*
X46823333Y63857143D01*
X46823333Y63714286D01*
X46775714Y63619048D01*
X46728095Y63571429D01*
X46632857Y63523810D01*
X46251904Y63523810D01*
X47775714Y63047620D02*
X47204285Y63047620D01*
X47490000Y63047620D02*
X47490000Y64047620D01*
X47394761Y63904762D01*
X47299523Y63809524D01*
X47204285Y63761905D01*
X42378333Y68127620D02*
X42045000Y68603810D01*
X41806904Y68127620D02*
X41806904Y69127620D01*
X42187857Y69127620D01*
X42283095Y69080000D01*
X42330714Y69032381D01*
X42378333Y68937143D01*
X42378333Y68794286D01*
X42330714Y68699048D01*
X42283095Y68651429D01*
X42187857Y68603810D01*
X41806904Y68603810D01*
X42854523Y68127620D02*
X43045000Y68127620D01*
X43140238Y68175239D01*
X43187857Y68222858D01*
X43283095Y68365715D01*
X43330714Y68556191D01*
X43330714Y68937143D01*
X43283095Y69032381D01*
X43235476Y69080000D01*
X43140238Y69127620D01*
X42949761Y69127620D01*
X42854523Y69080000D01*
X42806904Y69032381D01*
X42759285Y68937143D01*
X42759285Y68699048D01*
X42806904Y68603810D01*
X42854523Y68556191D01*
X42949761Y68508572D01*
X43140238Y68508572D01*
X43235476Y68556191D01*
X43283095Y68603810D01*
X43330714Y68699048D01*
X9358333Y65841620D02*
X9025000Y66317810D01*
X8786904Y65841620D02*
X8786904Y66841620D01*
X9167857Y66841620D01*
X9263095Y66794000D01*
X9310714Y66746381D01*
X9358333Y66651143D01*
X9358333Y66508286D01*
X9310714Y66413048D01*
X9263095Y66365429D01*
X9167857Y66317810D01*
X8786904Y66317810D01*
X9929761Y66413048D02*
X9834523Y66460667D01*
X9786904Y66508286D01*
X9739285Y66603524D01*
X9739285Y66651143D01*
X9786904Y66746381D01*
X9834523Y66794000D01*
X9929761Y66841620D01*
X10120238Y66841620D01*
X10215476Y66794000D01*
X10263095Y66746381D01*
X10310714Y66651143D01*
X10310714Y66603524D01*
X10263095Y66508286D01*
X10215476Y66460667D01*
X10120238Y66413048D01*
X9929761Y66413048D01*
X9834523Y66365429D01*
X9786904Y66317810D01*
X9739285Y66222572D01*
X9739285Y66032096D01*
X9786904Y65936858D01*
X9834523Y65889239D01*
X9929761Y65841620D01*
X10120238Y65841620D01*
X10215476Y65889239D01*
X10263095Y65936858D01*
X10310714Y66032096D01*
X10310714Y66222572D01*
X10263095Y66317810D01*
X10215476Y66365429D01*
X10120238Y66413048D01*
X9358333Y68127620D02*
X9025000Y68603810D01*
X8786904Y68127620D02*
X8786904Y69127620D01*
X9167857Y69127620D01*
X9263095Y69080000D01*
X9310714Y69032381D01*
X9358333Y68937143D01*
X9358333Y68794286D01*
X9310714Y68699048D01*
X9263095Y68651429D01*
X9167857Y68603810D01*
X8786904Y68603810D01*
X9691666Y69127620D02*
X10358333Y69127620D01*
X9929761Y68127620D01*
X42378333Y65587620D02*
X42045000Y66063810D01*
X41806904Y65587620D02*
X41806904Y66587620D01*
X42187857Y66587620D01*
X42283095Y66540000D01*
X42330714Y66492381D01*
X42378333Y66397143D01*
X42378333Y66254286D01*
X42330714Y66159048D01*
X42283095Y66111429D01*
X42187857Y66063810D01*
X41806904Y66063810D01*
X43235476Y66587620D02*
X43045000Y66587620D01*
X42949761Y66540000D01*
X42902142Y66492381D01*
X42806904Y66349524D01*
X42759285Y66159048D01*
X42759285Y65778096D01*
X42806904Y65682858D01*
X42854523Y65635239D01*
X42949761Y65587620D01*
X43140238Y65587620D01*
X43235476Y65635239D01*
X43283095Y65682858D01*
X43330714Y65778096D01*
X43330714Y66016191D01*
X43283095Y66111429D01*
X43235476Y66159048D01*
X43140238Y66206667D01*
X42949761Y66206667D01*
X42854523Y66159048D01*
X42806904Y66111429D01*
X42759285Y66016191D01*
X9358333Y63555620D02*
X9025000Y64031810D01*
X8786904Y63555620D02*
X8786904Y64555620D01*
X9167857Y64555620D01*
X9263095Y64508000D01*
X9310714Y64460381D01*
X9358333Y64365143D01*
X9358333Y64222286D01*
X9310714Y64127048D01*
X9263095Y64079429D01*
X9167857Y64031810D01*
X8786904Y64031810D01*
X10263095Y64555620D02*
X9786904Y64555620D01*
X9739285Y64079429D01*
X9786904Y64127048D01*
X9882142Y64174667D01*
X10120238Y64174667D01*
X10215476Y64127048D01*
X10263095Y64079429D01*
X10310714Y63984191D01*
X10310714Y63746096D01*
X10263095Y63650858D01*
X10215476Y63603239D01*
X10120238Y63555620D01*
X9882142Y63555620D01*
X9786904Y63603239D01*
X9739285Y63650858D01*
X7453333Y12247620D02*
X7120000Y12723810D01*
X6881904Y12247620D02*
X6881904Y13247620D01*
X7262857Y13247620D01*
X7358095Y13200000D01*
X7405714Y13152381D01*
X7453333Y13057143D01*
X7453333Y12914286D01*
X7405714Y12819048D01*
X7358095Y12771429D01*
X7262857Y12723810D01*
X6881904Y12723810D01*
X8310476Y12914286D02*
X8310476Y12247620D01*
X8072380Y13295239D02*
X7834285Y12580953D01*
X8453333Y12580953D01*
X46188333Y5897620D02*
X45855000Y6373810D01*
X45616904Y5897620D02*
X45616904Y6897620D01*
X45997857Y6897620D01*
X46093095Y6850000D01*
X46140714Y6802381D01*
X46188333Y6707143D01*
X46188333Y6564286D01*
X46140714Y6469048D01*
X46093095Y6421429D01*
X45997857Y6373810D01*
X45616904Y6373810D01*
X46569285Y6802381D02*
X46616904Y6850000D01*
X46712142Y6897620D01*
X46950238Y6897620D01*
X47045476Y6850000D01*
X47093095Y6802381D01*
X47140714Y6707143D01*
X47140714Y6611905D01*
X47093095Y6469048D01*
X46521666Y5897620D01*
X47140714Y5897620D01*
X41171904Y29265620D02*
X41171904Y30265620D01*
X41410000Y30265620D01*
X41552857Y30218000D01*
X41648095Y30122762D01*
X41695714Y30027524D01*
X41743333Y29837048D01*
X41743333Y29694191D01*
X41695714Y29503715D01*
X41648095Y29408477D01*
X41552857Y29313239D01*
X41410000Y29265620D01*
X41171904Y29265620D01*
X42648095Y30265620D02*
X42171904Y30265620D01*
X42124285Y29789429D01*
X42171904Y29837048D01*
X42267142Y29884667D01*
X42505238Y29884667D01*
X42600476Y29837048D01*
X42648095Y29789429D01*
X42695714Y29694191D01*
X42695714Y29456096D01*
X42648095Y29360858D01*
X42600476Y29313239D01*
X42505238Y29265620D01*
X42267142Y29265620D01*
X42171904Y29313239D01*
X42124285Y29360858D01*
X7516904Y42727620D02*
X7516904Y43727620D01*
X7755000Y43727620D01*
X7897857Y43680000D01*
X7993095Y43584762D01*
X8040714Y43489524D01*
X8088333Y43299048D01*
X8088333Y43156191D01*
X8040714Y42965715D01*
X7993095Y42870477D01*
X7897857Y42775239D01*
X7755000Y42727620D01*
X7516904Y42727620D01*
X8945476Y43394286D02*
X8945476Y42727620D01*
X8707380Y43775239D02*
X8469285Y43060953D01*
X9088333Y43060953D01*
X22852142Y5357858D02*
X22804523Y5310239D01*
X22661666Y5262620D01*
X22566428Y5262620D01*
X22423571Y5310239D01*
X22328333Y5405477D01*
X22280714Y5500715D01*
X22233095Y5691191D01*
X22233095Y5834048D01*
X22280714Y6024524D01*
X22328333Y6119762D01*
X22423571Y6215000D01*
X22566428Y6262620D01*
X22661666Y6262620D01*
X22804523Y6215000D01*
X22852142Y6167381D01*
X23804523Y5262620D02*
X23233095Y5262620D01*
X23518809Y5262620D02*
X23518809Y6262620D01*
X23423571Y6119762D01*
X23328333Y6024524D01*
X23233095Y5976905D01*
X24661666Y5929286D02*
X24661666Y5262620D01*
X24423571Y6310239D02*
X24185476Y5595953D01*
X24804523Y5595953D01*
X40632142Y62507858D02*
X40584523Y62460239D01*
X40441666Y62412620D01*
X40346428Y62412620D01*
X40203571Y62460239D01*
X40108333Y62555477D01*
X40060714Y62650715D01*
X40013095Y62841191D01*
X40013095Y62984048D01*
X40060714Y63174524D01*
X40108333Y63269762D01*
X40203571Y63365000D01*
X40346428Y63412620D01*
X40441666Y63412620D01*
X40584523Y63365000D01*
X40632142Y63317381D01*
X41584523Y62412620D02*
X41013095Y62412620D01*
X41298809Y62412620D02*
X41298809Y63412620D01*
X41203571Y63269762D01*
X41108333Y63174524D01*
X41013095Y63126905D01*
X42536904Y62412620D02*
X41965476Y62412620D01*
X42251190Y62412620D02*
X42251190Y63412620D01*
X42155952Y63269762D01*
X42060714Y63174524D01*
X41965476Y63126905D01*
X41394142Y40536858D02*
X41346523Y40489239D01*
X41203666Y40441620D01*
X41108428Y40441620D01*
X40965571Y40489239D01*
X40870333Y40584477D01*
X40822714Y40679715D01*
X40775095Y40870191D01*
X40775095Y41013048D01*
X40822714Y41203524D01*
X40870333Y41298762D01*
X40965571Y41394000D01*
X41108428Y41441620D01*
X41203666Y41441620D01*
X41346523Y41394000D01*
X41394142Y41346381D01*
X42346523Y40441620D02*
X41775095Y40441620D01*
X42060809Y40441620D02*
X42060809Y41441620D01*
X41965571Y41298762D01*
X41870333Y41203524D01*
X41775095Y41155905D01*
X42965571Y41441620D02*
X43060809Y41441620D01*
X43156047Y41394000D01*
X43203666Y41346381D01*
X43251285Y41251143D01*
X43298904Y41060667D01*
X43298904Y40822572D01*
X43251285Y40632096D01*
X43203666Y40536858D01*
X43156047Y40489239D01*
X43060809Y40441620D01*
X42965571Y40441620D01*
X42870333Y40489239D01*
X42822714Y40536858D01*
X42775095Y40632096D01*
X42727476Y40822572D01*
X42727476Y41060667D01*
X42775095Y41251143D01*
X42822714Y41346381D01*
X42870333Y41394000D01*
X42965571Y41441620D01*
X9993333Y12342858D02*
X9945714Y12295239D01*
X9802857Y12247620D01*
X9707619Y12247620D01*
X9564761Y12295239D01*
X9469523Y12390477D01*
X9421904Y12485715D01*
X9374285Y12676191D01*
X9374285Y12819048D01*
X9421904Y13009524D01*
X9469523Y13104762D01*
X9564761Y13200000D01*
X9707619Y13247620D01*
X9802857Y13247620D01*
X9945714Y13200000D01*
X9993333Y13152381D01*
X10469523Y12247620D02*
X10660000Y12247620D01*
X10755238Y12295239D01*
X10802857Y12342858D01*
X10898095Y12485715D01*
X10945714Y12676191D01*
X10945714Y13057143D01*
X10898095Y13152381D01*
X10850476Y13200000D01*
X10755238Y13247620D01*
X10564761Y13247620D01*
X10469523Y13200000D01*
X10421904Y13152381D01*
X10374285Y13057143D01*
X10374285Y12819048D01*
X10421904Y12723810D01*
X10469523Y12676191D01*
X10564761Y12628572D01*
X10755238Y12628572D01*
X10850476Y12676191D01*
X10898095Y12723810D01*
X10945714Y12819048D01*
X8088333Y28462858D02*
X8040714Y28415239D01*
X7897857Y28367620D01*
X7802619Y28367620D01*
X7659761Y28415239D01*
X7564523Y28510477D01*
X7516904Y28605715D01*
X7469285Y28796191D01*
X7469285Y28939048D01*
X7516904Y29129524D01*
X7564523Y29224762D01*
X7659761Y29320000D01*
X7802619Y29367620D01*
X7897857Y29367620D01*
X8040714Y29320000D01*
X8088333Y29272381D01*
X8659761Y28939048D02*
X8564523Y28986667D01*
X8516904Y29034286D01*
X8469285Y29129524D01*
X8469285Y29177143D01*
X8516904Y29272381D01*
X8564523Y29320000D01*
X8659761Y29367620D01*
X8850238Y29367620D01*
X8945476Y29320000D01*
X8993095Y29272381D01*
X9040714Y29177143D01*
X9040714Y29129524D01*
X8993095Y29034286D01*
X8945476Y28986667D01*
X8850238Y28939048D01*
X8659761Y28939048D01*
X8564523Y28891429D01*
X8516904Y28843810D01*
X8469285Y28748572D01*
X8469285Y28558096D01*
X8516904Y28462858D01*
X8564523Y28415239D01*
X8659761Y28367620D01*
X8850238Y28367620D01*
X8945476Y28415239D01*
X8993095Y28462858D01*
X9040714Y28558096D01*
X9040714Y28748572D01*
X8993095Y28843810D01*
X8945476Y28891429D01*
X8850238Y28939048D01*
X7453333Y48927858D02*
X7405714Y48880239D01*
X7262857Y48832620D01*
X7167619Y48832620D01*
X7024761Y48880239D01*
X6929523Y48975477D01*
X6881904Y49070715D01*
X6834285Y49261191D01*
X6834285Y49404048D01*
X6881904Y49594524D01*
X6929523Y49689762D01*
X7024761Y49785000D01*
X7167619Y49832620D01*
X7262857Y49832620D01*
X7405714Y49785000D01*
X7453333Y49737381D01*
X7786666Y49832620D02*
X8453333Y49832620D01*
X8024761Y48832620D01*
X23487142Y63142858D02*
X23439523Y63095239D01*
X23296666Y63047620D01*
X23201428Y63047620D01*
X23058571Y63095239D01*
X22963333Y63190477D01*
X22915714Y63285715D01*
X22868095Y63476191D01*
X22868095Y63619048D01*
X22915714Y63809524D01*
X22963333Y63904762D01*
X23058571Y64000000D01*
X23201428Y64047620D01*
X23296666Y64047620D01*
X23439523Y64000000D01*
X23487142Y63952381D01*
X24439523Y63047620D02*
X23868095Y63047620D01*
X24153809Y63047620D02*
X24153809Y64047620D01*
X24058571Y63904762D01*
X23963333Y63809524D01*
X23868095Y63761905D01*
X24772857Y64047620D02*
X25391904Y64047620D01*
X25058571Y63666667D01*
X25201428Y63666667D01*
X25296666Y63619048D01*
X25344285Y63571429D01*
X25391904Y63476191D01*
X25391904Y63238096D01*
X25344285Y63142858D01*
X25296666Y63095239D01*
X25201428Y63047620D01*
X24915714Y63047620D01*
X24820476Y63095239D01*
X24772857Y63142858D01*
X26503333Y63142858D02*
X26455714Y63095239D01*
X26312857Y63047620D01*
X26217619Y63047620D01*
X26074761Y63095239D01*
X25979523Y63190477D01*
X25931904Y63285715D01*
X25884285Y63476191D01*
X25884285Y63619048D01*
X25931904Y63809524D01*
X25979523Y63904762D01*
X26074761Y64000000D01*
X26217619Y64047620D01*
X26312857Y64047620D01*
X26455714Y64000000D01*
X26503333Y63952381D01*
X27408095Y64047620D02*
X26931904Y64047620D01*
X26884285Y63571429D01*
X26931904Y63619048D01*
X27027142Y63666667D01*
X27265238Y63666667D01*
X27360476Y63619048D01*
X27408095Y63571429D01*
X27455714Y63476191D01*
X27455714Y63238096D01*
X27408095Y63142858D01*
X27360476Y63095239D01*
X27265238Y63047620D01*
X27027142Y63047620D01*
X26931904Y63095239D01*
X26884285Y63142858D01*
X26503333Y44092858D02*
X26455714Y44045239D01*
X26312857Y43997620D01*
X26217619Y43997620D01*
X26074761Y44045239D01*
X25979523Y44140477D01*
X25931904Y44235715D01*
X25884285Y44426191D01*
X25884285Y44569048D01*
X25931904Y44759524D01*
X25979523Y44854762D01*
X26074761Y44950000D01*
X26217619Y44997620D01*
X26312857Y44997620D01*
X26455714Y44950000D01*
X26503333Y44902381D01*
X27360476Y44664286D02*
X27360476Y43997620D01*
X27122380Y45045239D02*
X26884285Y44330953D01*
X27503333Y44330953D01*
X23963333Y8532858D02*
X23915714Y8485239D01*
X23772857Y8437620D01*
X23677619Y8437620D01*
X23534761Y8485239D01*
X23439523Y8580477D01*
X23391904Y8675715D01*
X23344285Y8866191D01*
X23344285Y9009048D01*
X23391904Y9199524D01*
X23439523Y9294762D01*
X23534761Y9390000D01*
X23677619Y9437620D01*
X23772857Y9437620D01*
X23915714Y9390000D01*
X23963333Y9342381D01*
X24296666Y9437620D02*
X24915714Y9437620D01*
X24582380Y9056667D01*
X24725238Y9056667D01*
X24820476Y9009048D01*
X24868095Y8961429D01*
X24915714Y8866191D01*
X24915714Y8628096D01*
X24868095Y8532858D01*
X24820476Y8485239D01*
X24725238Y8437620D01*
X24439523Y8437620D01*
X24344285Y8485239D01*
X24296666Y8532858D01*
X23963333Y45362858D02*
X23915714Y45315239D01*
X23772857Y45267620D01*
X23677619Y45267620D01*
X23534761Y45315239D01*
X23439523Y45410477D01*
X23391904Y45505715D01*
X23344285Y45696191D01*
X23344285Y45839048D01*
X23391904Y46029524D01*
X23439523Y46124762D01*
X23534761Y46220000D01*
X23677619Y46267620D01*
X23772857Y46267620D01*
X23915714Y46220000D01*
X23963333Y46172381D01*
X24915714Y45267620D02*
X24344285Y45267620D01*
X24630000Y45267620D02*
X24630000Y46267620D01*
X24534761Y46124762D01*
X24439523Y46029524D01*
X24344285Y45981905D01*
X16383095Y27942620D02*
X16383095Y27133096D01*
X16430714Y27037858D01*
X16478333Y26990239D01*
X16573571Y26942620D01*
X16764047Y26942620D01*
X16859285Y26990239D01*
X16906904Y27037858D01*
X16954523Y27133096D01*
X16954523Y27942620D01*
X17335476Y27942620D02*
X17954523Y27942620D01*
X17621190Y27561667D01*
X17764047Y27561667D01*
X17859285Y27514048D01*
X17906904Y27466429D01*
X17954523Y27371191D01*
X17954523Y27133096D01*
X17906904Y27037858D01*
X17859285Y26990239D01*
X17764047Y26942620D01*
X17478333Y26942620D01*
X17383095Y26990239D01*
X17335476Y27037858D01*
X16383095Y9527620D02*
X16383095Y8718096D01*
X16430714Y8622858D01*
X16478333Y8575239D01*
X16573571Y8527620D01*
X16764047Y8527620D01*
X16859285Y8575239D01*
X16906904Y8622858D01*
X16954523Y8718096D01*
X16954523Y9527620D01*
X17859285Y9194286D02*
X17859285Y8527620D01*
X17621190Y9575239D02*
X17383095Y8860953D01*
X18002142Y8860953D01*
X32893095Y45542620D02*
X32893095Y44733096D01*
X32940714Y44637858D01*
X32988333Y44590239D01*
X33083571Y44542620D01*
X33274047Y44542620D01*
X33369285Y44590239D01*
X33416904Y44637858D01*
X33464523Y44733096D01*
X33464523Y45542620D01*
X34369285Y45542620D02*
X34178809Y45542620D01*
X34083571Y45495000D01*
X34035952Y45447381D01*
X33940714Y45304524D01*
X33893095Y45114048D01*
X33893095Y44733096D01*
X33940714Y44637858D01*
X33988333Y44590239D01*
X34083571Y44542620D01*
X34274047Y44542620D01*
X34369285Y44590239D01*
X34416904Y44637858D01*
X34464523Y44733096D01*
X34464523Y44971191D01*
X34416904Y45066429D01*
X34369285Y45114048D01*
X34274047Y45161667D01*
X34083571Y45161667D01*
X33988333Y45114048D01*
X33940714Y45066429D01*
X33893095Y44971191D01*
X32893095Y63957620D02*
X32893095Y63148096D01*
X32940714Y63052858D01*
X32988333Y63005239D01*
X33083571Y62957620D01*
X33274047Y62957620D01*
X33369285Y63005239D01*
X33416904Y63052858D01*
X33464523Y63148096D01*
X33464523Y63957620D01*
X33845476Y63957620D02*
X34512142Y63957620D01*
X34083571Y62957620D01*
M02*
