G04 #@! TF.GenerationSoftware,KiCad,Pcbnew,5.1.4-e60b266~84~ubuntu18.04.1*
G04 #@! TF.CreationDate,2019-09-22T15:50:52+01:00*
G04 #@! TF.ProjectId,z80_adapter,7a38305f-6164-4617-9074-65722e6b6963,rev?*
G04 #@! TF.SameCoordinates,PX9fdfbc0PY791ddc0*
G04 #@! TF.FileFunction,Copper,L1,Top*
G04 #@! TF.FilePolarity,Positive*
%FSLAX46Y46*%
G04 Gerber Fmt 4.6, Leading zero omitted, Abs format (unit mm)*
G04 Created by KiCad (PCBNEW 5.1.4-e60b266~84~ubuntu18.04.1) date 2019-09-22 15:50:52*
%MOMM*%
%LPD*%
G04 APERTURE LIST*
%ADD10C,0.100000*%
%ADD11C,1.150000*%
%ADD12R,2.000000X0.600000*%
%ADD13O,1.700000X1.700000*%
%ADD14R,1.700000X1.700000*%
%ADD15C,2.200000*%
%ADD16C,1.700000*%
%ADD17C,1.800000*%
%ADD18R,1.800000X1.800000*%
%ADD19C,0.800000*%
%ADD20C,0.600000*%
%ADD21C,0.400000*%
%ADD22C,0.250000*%
%ADD23C,2.000000*%
%ADD24C,0.800000*%
%ADD25C,0.600000*%
G04 APERTURE END LIST*
D10*
G36*
X24604505Y21401796D02*
G01*
X24628773Y21398196D01*
X24652572Y21392235D01*
X24675671Y21383970D01*
X24697850Y21373480D01*
X24718893Y21360868D01*
X24738599Y21346253D01*
X24756777Y21329777D01*
X24773253Y21311599D01*
X24787868Y21291893D01*
X24800480Y21270850D01*
X24810970Y21248671D01*
X24819235Y21225572D01*
X24825196Y21201773D01*
X24828796Y21177505D01*
X24830000Y21153001D01*
X24830000Y20502999D01*
X24828796Y20478495D01*
X24825196Y20454227D01*
X24819235Y20430428D01*
X24810970Y20407329D01*
X24800480Y20385150D01*
X24787868Y20364107D01*
X24773253Y20344401D01*
X24756777Y20326223D01*
X24738599Y20309747D01*
X24718893Y20295132D01*
X24697850Y20282520D01*
X24675671Y20272030D01*
X24652572Y20263765D01*
X24628773Y20257804D01*
X24604505Y20254204D01*
X24580001Y20253000D01*
X23679999Y20253000D01*
X23655495Y20254204D01*
X23631227Y20257804D01*
X23607428Y20263765D01*
X23584329Y20272030D01*
X23562150Y20282520D01*
X23541107Y20295132D01*
X23521401Y20309747D01*
X23503223Y20326223D01*
X23486747Y20344401D01*
X23472132Y20364107D01*
X23459520Y20385150D01*
X23449030Y20407329D01*
X23440765Y20430428D01*
X23434804Y20454227D01*
X23431204Y20478495D01*
X23430000Y20502999D01*
X23430000Y21153001D01*
X23431204Y21177505D01*
X23434804Y21201773D01*
X23440765Y21225572D01*
X23449030Y21248671D01*
X23459520Y21270850D01*
X23472132Y21291893D01*
X23486747Y21311599D01*
X23503223Y21329777D01*
X23521401Y21346253D01*
X23541107Y21360868D01*
X23562150Y21373480D01*
X23584329Y21383970D01*
X23607428Y21392235D01*
X23631227Y21398196D01*
X23655495Y21401796D01*
X23679999Y21403000D01*
X24580001Y21403000D01*
X24604505Y21401796D01*
X24604505Y21401796D01*
G37*
D11*
X24130000Y20828000D03*
D10*
G36*
X24604505Y19351796D02*
G01*
X24628773Y19348196D01*
X24652572Y19342235D01*
X24675671Y19333970D01*
X24697850Y19323480D01*
X24718893Y19310868D01*
X24738599Y19296253D01*
X24756777Y19279777D01*
X24773253Y19261599D01*
X24787868Y19241893D01*
X24800480Y19220850D01*
X24810970Y19198671D01*
X24819235Y19175572D01*
X24825196Y19151773D01*
X24828796Y19127505D01*
X24830000Y19103001D01*
X24830000Y18452999D01*
X24828796Y18428495D01*
X24825196Y18404227D01*
X24819235Y18380428D01*
X24810970Y18357329D01*
X24800480Y18335150D01*
X24787868Y18314107D01*
X24773253Y18294401D01*
X24756777Y18276223D01*
X24738599Y18259747D01*
X24718893Y18245132D01*
X24697850Y18232520D01*
X24675671Y18222030D01*
X24652572Y18213765D01*
X24628773Y18207804D01*
X24604505Y18204204D01*
X24580001Y18203000D01*
X23679999Y18203000D01*
X23655495Y18204204D01*
X23631227Y18207804D01*
X23607428Y18213765D01*
X23584329Y18222030D01*
X23562150Y18232520D01*
X23541107Y18245132D01*
X23521401Y18259747D01*
X23503223Y18276223D01*
X23486747Y18294401D01*
X23472132Y18314107D01*
X23459520Y18335150D01*
X23449030Y18357329D01*
X23440765Y18380428D01*
X23434804Y18404227D01*
X23431204Y18428495D01*
X23430000Y18452999D01*
X23430000Y19103001D01*
X23431204Y19127505D01*
X23434804Y19151773D01*
X23440765Y19175572D01*
X23449030Y19198671D01*
X23459520Y19220850D01*
X23472132Y19241893D01*
X23486747Y19261599D01*
X23503223Y19279777D01*
X23521401Y19296253D01*
X23541107Y19310868D01*
X23562150Y19323480D01*
X23584329Y19333970D01*
X23607428Y19342235D01*
X23631227Y19348196D01*
X23655495Y19351796D01*
X23679999Y19353000D01*
X24580001Y19353000D01*
X24604505Y19351796D01*
X24604505Y19351796D01*
G37*
D11*
X24130000Y18778000D03*
D10*
G36*
X27144505Y20911796D02*
G01*
X27168773Y20908196D01*
X27192572Y20902235D01*
X27215671Y20893970D01*
X27237850Y20883480D01*
X27258893Y20870868D01*
X27278599Y20856253D01*
X27296777Y20839777D01*
X27313253Y20821599D01*
X27327868Y20801893D01*
X27340480Y20780850D01*
X27350970Y20758671D01*
X27359235Y20735572D01*
X27365196Y20711773D01*
X27368796Y20687505D01*
X27370000Y20663001D01*
X27370000Y20012999D01*
X27368796Y19988495D01*
X27365196Y19964227D01*
X27359235Y19940428D01*
X27350970Y19917329D01*
X27340480Y19895150D01*
X27327868Y19874107D01*
X27313253Y19854401D01*
X27296777Y19836223D01*
X27278599Y19819747D01*
X27258893Y19805132D01*
X27237850Y19792520D01*
X27215671Y19782030D01*
X27192572Y19773765D01*
X27168773Y19767804D01*
X27144505Y19764204D01*
X27120001Y19763000D01*
X26219999Y19763000D01*
X26195495Y19764204D01*
X26171227Y19767804D01*
X26147428Y19773765D01*
X26124329Y19782030D01*
X26102150Y19792520D01*
X26081107Y19805132D01*
X26061401Y19819747D01*
X26043223Y19836223D01*
X26026747Y19854401D01*
X26012132Y19874107D01*
X25999520Y19895150D01*
X25989030Y19917329D01*
X25980765Y19940428D01*
X25974804Y19964227D01*
X25971204Y19988495D01*
X25970000Y20012999D01*
X25970000Y20663001D01*
X25971204Y20687505D01*
X25974804Y20711773D01*
X25980765Y20735572D01*
X25989030Y20758671D01*
X25999520Y20780850D01*
X26012132Y20801893D01*
X26026747Y20821599D01*
X26043223Y20839777D01*
X26061401Y20856253D01*
X26081107Y20870868D01*
X26102150Y20883480D01*
X26124329Y20893970D01*
X26147428Y20902235D01*
X26171227Y20908196D01*
X26195495Y20911796D01*
X26219999Y20913000D01*
X27120001Y20913000D01*
X27144505Y20911796D01*
X27144505Y20911796D01*
G37*
D11*
X26670000Y20338000D03*
D10*
G36*
X27144505Y18861796D02*
G01*
X27168773Y18858196D01*
X27192572Y18852235D01*
X27215671Y18843970D01*
X27237850Y18833480D01*
X27258893Y18820868D01*
X27278599Y18806253D01*
X27296777Y18789777D01*
X27313253Y18771599D01*
X27327868Y18751893D01*
X27340480Y18730850D01*
X27350970Y18708671D01*
X27359235Y18685572D01*
X27365196Y18661773D01*
X27368796Y18637505D01*
X27370000Y18613001D01*
X27370000Y17962999D01*
X27368796Y17938495D01*
X27365196Y17914227D01*
X27359235Y17890428D01*
X27350970Y17867329D01*
X27340480Y17845150D01*
X27327868Y17824107D01*
X27313253Y17804401D01*
X27296777Y17786223D01*
X27278599Y17769747D01*
X27258893Y17755132D01*
X27237850Y17742520D01*
X27215671Y17732030D01*
X27192572Y17723765D01*
X27168773Y17717804D01*
X27144505Y17714204D01*
X27120001Y17713000D01*
X26219999Y17713000D01*
X26195495Y17714204D01*
X26171227Y17717804D01*
X26147428Y17723765D01*
X26124329Y17732030D01*
X26102150Y17742520D01*
X26081107Y17755132D01*
X26061401Y17769747D01*
X26043223Y17786223D01*
X26026747Y17804401D01*
X26012132Y17824107D01*
X25999520Y17845150D01*
X25989030Y17867329D01*
X25980765Y17890428D01*
X25974804Y17914227D01*
X25971204Y17938495D01*
X25970000Y17962999D01*
X25970000Y18613001D01*
X25971204Y18637505D01*
X25974804Y18661773D01*
X25980765Y18685572D01*
X25989030Y18708671D01*
X25999520Y18730850D01*
X26012132Y18751893D01*
X26026747Y18771599D01*
X26043223Y18789777D01*
X26061401Y18806253D01*
X26081107Y18820868D01*
X26102150Y18833480D01*
X26124329Y18843970D01*
X26147428Y18852235D01*
X26171227Y18858196D01*
X26195495Y18861796D01*
X26219999Y18863000D01*
X27120001Y18863000D01*
X27144505Y18861796D01*
X27144505Y18861796D01*
G37*
D11*
X26670000Y18288000D03*
D10*
G36*
X24604505Y32078796D02*
G01*
X24628773Y32075196D01*
X24652572Y32069235D01*
X24675671Y32060970D01*
X24697850Y32050480D01*
X24718893Y32037868D01*
X24738599Y32023253D01*
X24756777Y32006777D01*
X24773253Y31988599D01*
X24787868Y31968893D01*
X24800480Y31947850D01*
X24810970Y31925671D01*
X24819235Y31902572D01*
X24825196Y31878773D01*
X24828796Y31854505D01*
X24830000Y31830001D01*
X24830000Y31179999D01*
X24828796Y31155495D01*
X24825196Y31131227D01*
X24819235Y31107428D01*
X24810970Y31084329D01*
X24800480Y31062150D01*
X24787868Y31041107D01*
X24773253Y31021401D01*
X24756777Y31003223D01*
X24738599Y30986747D01*
X24718893Y30972132D01*
X24697850Y30959520D01*
X24675671Y30949030D01*
X24652572Y30940765D01*
X24628773Y30934804D01*
X24604505Y30931204D01*
X24580001Y30930000D01*
X23679999Y30930000D01*
X23655495Y30931204D01*
X23631227Y30934804D01*
X23607428Y30940765D01*
X23584329Y30949030D01*
X23562150Y30959520D01*
X23541107Y30972132D01*
X23521401Y30986747D01*
X23503223Y31003223D01*
X23486747Y31021401D01*
X23472132Y31041107D01*
X23459520Y31062150D01*
X23449030Y31084329D01*
X23440765Y31107428D01*
X23434804Y31131227D01*
X23431204Y31155495D01*
X23430000Y31179999D01*
X23430000Y31830001D01*
X23431204Y31854505D01*
X23434804Y31878773D01*
X23440765Y31902572D01*
X23449030Y31925671D01*
X23459520Y31947850D01*
X23472132Y31968893D01*
X23486747Y31988599D01*
X23503223Y32006777D01*
X23521401Y32023253D01*
X23541107Y32037868D01*
X23562150Y32050480D01*
X23584329Y32060970D01*
X23607428Y32069235D01*
X23631227Y32075196D01*
X23655495Y32078796D01*
X23679999Y32080000D01*
X24580001Y32080000D01*
X24604505Y32078796D01*
X24604505Y32078796D01*
G37*
D11*
X24130000Y31505000D03*
D10*
G36*
X24604505Y30028796D02*
G01*
X24628773Y30025196D01*
X24652572Y30019235D01*
X24675671Y30010970D01*
X24697850Y30000480D01*
X24718893Y29987868D01*
X24738599Y29973253D01*
X24756777Y29956777D01*
X24773253Y29938599D01*
X24787868Y29918893D01*
X24800480Y29897850D01*
X24810970Y29875671D01*
X24819235Y29852572D01*
X24825196Y29828773D01*
X24828796Y29804505D01*
X24830000Y29780001D01*
X24830000Y29129999D01*
X24828796Y29105495D01*
X24825196Y29081227D01*
X24819235Y29057428D01*
X24810970Y29034329D01*
X24800480Y29012150D01*
X24787868Y28991107D01*
X24773253Y28971401D01*
X24756777Y28953223D01*
X24738599Y28936747D01*
X24718893Y28922132D01*
X24697850Y28909520D01*
X24675671Y28899030D01*
X24652572Y28890765D01*
X24628773Y28884804D01*
X24604505Y28881204D01*
X24580001Y28880000D01*
X23679999Y28880000D01*
X23655495Y28881204D01*
X23631227Y28884804D01*
X23607428Y28890765D01*
X23584329Y28899030D01*
X23562150Y28909520D01*
X23541107Y28922132D01*
X23521401Y28936747D01*
X23503223Y28953223D01*
X23486747Y28971401D01*
X23472132Y28991107D01*
X23459520Y29012150D01*
X23449030Y29034329D01*
X23440765Y29057428D01*
X23434804Y29081227D01*
X23431204Y29105495D01*
X23430000Y29129999D01*
X23430000Y29780001D01*
X23431204Y29804505D01*
X23434804Y29828773D01*
X23440765Y29852572D01*
X23449030Y29875671D01*
X23459520Y29897850D01*
X23472132Y29918893D01*
X23486747Y29938599D01*
X23503223Y29956777D01*
X23521401Y29973253D01*
X23541107Y29987868D01*
X23562150Y30000480D01*
X23584329Y30010970D01*
X23607428Y30019235D01*
X23631227Y30025196D01*
X23655495Y30028796D01*
X23679999Y30030000D01*
X24580001Y30030000D01*
X24604505Y30028796D01*
X24604505Y30028796D01*
G37*
D11*
X24130000Y29455000D03*
D10*
G36*
X41114505Y22653796D02*
G01*
X41138773Y22650196D01*
X41162572Y22644235D01*
X41185671Y22635970D01*
X41207850Y22625480D01*
X41228893Y22612868D01*
X41248599Y22598253D01*
X41266777Y22581777D01*
X41283253Y22563599D01*
X41297868Y22543893D01*
X41310480Y22522850D01*
X41320970Y22500671D01*
X41329235Y22477572D01*
X41335196Y22453773D01*
X41338796Y22429505D01*
X41340000Y22405001D01*
X41340000Y21754999D01*
X41338796Y21730495D01*
X41335196Y21706227D01*
X41329235Y21682428D01*
X41320970Y21659329D01*
X41310480Y21637150D01*
X41297868Y21616107D01*
X41283253Y21596401D01*
X41266777Y21578223D01*
X41248599Y21561747D01*
X41228893Y21547132D01*
X41207850Y21534520D01*
X41185671Y21524030D01*
X41162572Y21515765D01*
X41138773Y21509804D01*
X41114505Y21506204D01*
X41090001Y21505000D01*
X40189999Y21505000D01*
X40165495Y21506204D01*
X40141227Y21509804D01*
X40117428Y21515765D01*
X40094329Y21524030D01*
X40072150Y21534520D01*
X40051107Y21547132D01*
X40031401Y21561747D01*
X40013223Y21578223D01*
X39996747Y21596401D01*
X39982132Y21616107D01*
X39969520Y21637150D01*
X39959030Y21659329D01*
X39950765Y21682428D01*
X39944804Y21706227D01*
X39941204Y21730495D01*
X39940000Y21754999D01*
X39940000Y22405001D01*
X39941204Y22429505D01*
X39944804Y22453773D01*
X39950765Y22477572D01*
X39959030Y22500671D01*
X39969520Y22522850D01*
X39982132Y22543893D01*
X39996747Y22563599D01*
X40013223Y22581777D01*
X40031401Y22598253D01*
X40051107Y22612868D01*
X40072150Y22625480D01*
X40094329Y22635970D01*
X40117428Y22644235D01*
X40141227Y22650196D01*
X40165495Y22653796D01*
X40189999Y22655000D01*
X41090001Y22655000D01*
X41114505Y22653796D01*
X41114505Y22653796D01*
G37*
D11*
X40640000Y22080000D03*
D10*
G36*
X41114505Y24703796D02*
G01*
X41138773Y24700196D01*
X41162572Y24694235D01*
X41185671Y24685970D01*
X41207850Y24675480D01*
X41228893Y24662868D01*
X41248599Y24648253D01*
X41266777Y24631777D01*
X41283253Y24613599D01*
X41297868Y24593893D01*
X41310480Y24572850D01*
X41320970Y24550671D01*
X41329235Y24527572D01*
X41335196Y24503773D01*
X41338796Y24479505D01*
X41340000Y24455001D01*
X41340000Y23804999D01*
X41338796Y23780495D01*
X41335196Y23756227D01*
X41329235Y23732428D01*
X41320970Y23709329D01*
X41310480Y23687150D01*
X41297868Y23666107D01*
X41283253Y23646401D01*
X41266777Y23628223D01*
X41248599Y23611747D01*
X41228893Y23597132D01*
X41207850Y23584520D01*
X41185671Y23574030D01*
X41162572Y23565765D01*
X41138773Y23559804D01*
X41114505Y23556204D01*
X41090001Y23555000D01*
X40189999Y23555000D01*
X40165495Y23556204D01*
X40141227Y23559804D01*
X40117428Y23565765D01*
X40094329Y23574030D01*
X40072150Y23584520D01*
X40051107Y23597132D01*
X40031401Y23611747D01*
X40013223Y23628223D01*
X39996747Y23646401D01*
X39982132Y23666107D01*
X39969520Y23687150D01*
X39959030Y23709329D01*
X39950765Y23732428D01*
X39944804Y23756227D01*
X39941204Y23780495D01*
X39940000Y23804999D01*
X39940000Y24455001D01*
X39941204Y24479505D01*
X39944804Y24503773D01*
X39950765Y24527572D01*
X39959030Y24550671D01*
X39969520Y24572850D01*
X39982132Y24593893D01*
X39996747Y24613599D01*
X40013223Y24631777D01*
X40031401Y24648253D01*
X40051107Y24662868D01*
X40072150Y24675480D01*
X40094329Y24685970D01*
X40117428Y24694235D01*
X40141227Y24700196D01*
X40165495Y24703796D01*
X40189999Y24705000D01*
X41090001Y24705000D01*
X41114505Y24703796D01*
X41114505Y24703796D01*
G37*
D11*
X40640000Y24130000D03*
D10*
G36*
X27144505Y23415796D02*
G01*
X27168773Y23412196D01*
X27192572Y23406235D01*
X27215671Y23397970D01*
X27237850Y23387480D01*
X27258893Y23374868D01*
X27278599Y23360253D01*
X27296777Y23343777D01*
X27313253Y23325599D01*
X27327868Y23305893D01*
X27340480Y23284850D01*
X27350970Y23262671D01*
X27359235Y23239572D01*
X27365196Y23215773D01*
X27368796Y23191505D01*
X27370000Y23167001D01*
X27370000Y22516999D01*
X27368796Y22492495D01*
X27365196Y22468227D01*
X27359235Y22444428D01*
X27350970Y22421329D01*
X27340480Y22399150D01*
X27327868Y22378107D01*
X27313253Y22358401D01*
X27296777Y22340223D01*
X27278599Y22323747D01*
X27258893Y22309132D01*
X27237850Y22296520D01*
X27215671Y22286030D01*
X27192572Y22277765D01*
X27168773Y22271804D01*
X27144505Y22268204D01*
X27120001Y22267000D01*
X26219999Y22267000D01*
X26195495Y22268204D01*
X26171227Y22271804D01*
X26147428Y22277765D01*
X26124329Y22286030D01*
X26102150Y22296520D01*
X26081107Y22309132D01*
X26061401Y22323747D01*
X26043223Y22340223D01*
X26026747Y22358401D01*
X26012132Y22378107D01*
X25999520Y22399150D01*
X25989030Y22421329D01*
X25980765Y22444428D01*
X25974804Y22468227D01*
X25971204Y22492495D01*
X25970000Y22516999D01*
X25970000Y23167001D01*
X25971204Y23191505D01*
X25974804Y23215773D01*
X25980765Y23239572D01*
X25989030Y23262671D01*
X25999520Y23284850D01*
X26012132Y23305893D01*
X26026747Y23325599D01*
X26043223Y23343777D01*
X26061401Y23360253D01*
X26081107Y23374868D01*
X26102150Y23387480D01*
X26124329Y23397970D01*
X26147428Y23406235D01*
X26171227Y23412196D01*
X26195495Y23415796D01*
X26219999Y23417000D01*
X27120001Y23417000D01*
X27144505Y23415796D01*
X27144505Y23415796D01*
G37*
D11*
X26670000Y22842000D03*
D10*
G36*
X27144505Y25465796D02*
G01*
X27168773Y25462196D01*
X27192572Y25456235D01*
X27215671Y25447970D01*
X27237850Y25437480D01*
X27258893Y25424868D01*
X27278599Y25410253D01*
X27296777Y25393777D01*
X27313253Y25375599D01*
X27327868Y25355893D01*
X27340480Y25334850D01*
X27350970Y25312671D01*
X27359235Y25289572D01*
X27365196Y25265773D01*
X27368796Y25241505D01*
X27370000Y25217001D01*
X27370000Y24566999D01*
X27368796Y24542495D01*
X27365196Y24518227D01*
X27359235Y24494428D01*
X27350970Y24471329D01*
X27340480Y24449150D01*
X27327868Y24428107D01*
X27313253Y24408401D01*
X27296777Y24390223D01*
X27278599Y24373747D01*
X27258893Y24359132D01*
X27237850Y24346520D01*
X27215671Y24336030D01*
X27192572Y24327765D01*
X27168773Y24321804D01*
X27144505Y24318204D01*
X27120001Y24317000D01*
X26219999Y24317000D01*
X26195495Y24318204D01*
X26171227Y24321804D01*
X26147428Y24327765D01*
X26124329Y24336030D01*
X26102150Y24346520D01*
X26081107Y24359132D01*
X26061401Y24373747D01*
X26043223Y24390223D01*
X26026747Y24408401D01*
X26012132Y24428107D01*
X25999520Y24449150D01*
X25989030Y24471329D01*
X25980765Y24494428D01*
X25974804Y24518227D01*
X25971204Y24542495D01*
X25970000Y24566999D01*
X25970000Y25217001D01*
X25971204Y25241505D01*
X25974804Y25265773D01*
X25980765Y25289572D01*
X25989030Y25312671D01*
X25999520Y25334850D01*
X26012132Y25355893D01*
X26026747Y25375599D01*
X26043223Y25393777D01*
X26061401Y25410253D01*
X26081107Y25424868D01*
X26102150Y25437480D01*
X26124329Y25447970D01*
X26147428Y25456235D01*
X26171227Y25462196D01*
X26195495Y25465796D01*
X26219999Y25467000D01*
X27120001Y25467000D01*
X27144505Y25465796D01*
X27144505Y25465796D01*
G37*
D11*
X26670000Y24892000D03*
D12*
X38355000Y24765000D03*
X38355000Y23495000D03*
X38355000Y22225000D03*
X38355000Y20955000D03*
X38355000Y19685000D03*
X38355000Y18415000D03*
X38355000Y17145000D03*
X38355000Y15875000D03*
X38355000Y14605000D03*
X38355000Y13335000D03*
X38355000Y12065000D03*
X38355000Y10795000D03*
X28955000Y10795000D03*
X28955000Y12065000D03*
X28955000Y13335000D03*
X28955000Y14605000D03*
X28955000Y15875000D03*
X28955000Y17145000D03*
X28955000Y18415000D03*
X28955000Y19685000D03*
X28955000Y20955000D03*
X28955000Y22225000D03*
X28955000Y23495000D03*
X28955000Y24765000D03*
D10*
G36*
X28779505Y27749796D02*
G01*
X28803773Y27746196D01*
X28827572Y27740235D01*
X28850671Y27731970D01*
X28872850Y27721480D01*
X28893893Y27708868D01*
X28913599Y27694253D01*
X28931777Y27677777D01*
X28948253Y27659599D01*
X28962868Y27639893D01*
X28975480Y27618850D01*
X28985970Y27596671D01*
X28994235Y27573572D01*
X29000196Y27549773D01*
X29003796Y27525505D01*
X29005000Y27501001D01*
X29005000Y26600999D01*
X29003796Y26576495D01*
X29000196Y26552227D01*
X28994235Y26528428D01*
X28985970Y26505329D01*
X28975480Y26483150D01*
X28962868Y26462107D01*
X28948253Y26442401D01*
X28931777Y26424223D01*
X28913599Y26407747D01*
X28893893Y26393132D01*
X28872850Y26380520D01*
X28850671Y26370030D01*
X28827572Y26361765D01*
X28803773Y26355804D01*
X28779505Y26352204D01*
X28755001Y26351000D01*
X28104999Y26351000D01*
X28080495Y26352204D01*
X28056227Y26355804D01*
X28032428Y26361765D01*
X28009329Y26370030D01*
X27987150Y26380520D01*
X27966107Y26393132D01*
X27946401Y26407747D01*
X27928223Y26424223D01*
X27911747Y26442401D01*
X27897132Y26462107D01*
X27884520Y26483150D01*
X27874030Y26505329D01*
X27865765Y26528428D01*
X27859804Y26552227D01*
X27856204Y26576495D01*
X27855000Y26600999D01*
X27855000Y27501001D01*
X27856204Y27525505D01*
X27859804Y27549773D01*
X27865765Y27573572D01*
X27874030Y27596671D01*
X27884520Y27618850D01*
X27897132Y27639893D01*
X27911747Y27659599D01*
X27928223Y27677777D01*
X27946401Y27694253D01*
X27966107Y27708868D01*
X27987150Y27721480D01*
X28009329Y27731970D01*
X28032428Y27740235D01*
X28056227Y27746196D01*
X28080495Y27749796D01*
X28104999Y27751000D01*
X28755001Y27751000D01*
X28779505Y27749796D01*
X28779505Y27749796D01*
G37*
D11*
X28430000Y27051000D03*
D10*
G36*
X30829505Y27749796D02*
G01*
X30853773Y27746196D01*
X30877572Y27740235D01*
X30900671Y27731970D01*
X30922850Y27721480D01*
X30943893Y27708868D01*
X30963599Y27694253D01*
X30981777Y27677777D01*
X30998253Y27659599D01*
X31012868Y27639893D01*
X31025480Y27618850D01*
X31035970Y27596671D01*
X31044235Y27573572D01*
X31050196Y27549773D01*
X31053796Y27525505D01*
X31055000Y27501001D01*
X31055000Y26600999D01*
X31053796Y26576495D01*
X31050196Y26552227D01*
X31044235Y26528428D01*
X31035970Y26505329D01*
X31025480Y26483150D01*
X31012868Y26462107D01*
X30998253Y26442401D01*
X30981777Y26424223D01*
X30963599Y26407747D01*
X30943893Y26393132D01*
X30922850Y26380520D01*
X30900671Y26370030D01*
X30877572Y26361765D01*
X30853773Y26355804D01*
X30829505Y26352204D01*
X30805001Y26351000D01*
X30154999Y26351000D01*
X30130495Y26352204D01*
X30106227Y26355804D01*
X30082428Y26361765D01*
X30059329Y26370030D01*
X30037150Y26380520D01*
X30016107Y26393132D01*
X29996401Y26407747D01*
X29978223Y26424223D01*
X29961747Y26442401D01*
X29947132Y26462107D01*
X29934520Y26483150D01*
X29924030Y26505329D01*
X29915765Y26528428D01*
X29909804Y26552227D01*
X29906204Y26576495D01*
X29905000Y26600999D01*
X29905000Y27501001D01*
X29906204Y27525505D01*
X29909804Y27549773D01*
X29915765Y27573572D01*
X29924030Y27596671D01*
X29934520Y27618850D01*
X29947132Y27639893D01*
X29961747Y27659599D01*
X29978223Y27677777D01*
X29996401Y27694253D01*
X30016107Y27708868D01*
X30037150Y27721480D01*
X30059329Y27731970D01*
X30082428Y27740235D01*
X30106227Y27746196D01*
X30130495Y27749796D01*
X30154999Y27751000D01*
X30805001Y27751000D01*
X30829505Y27749796D01*
X30829505Y27749796D01*
G37*
D11*
X30480000Y27051000D03*
D10*
G36*
X44554505Y9588796D02*
G01*
X44578773Y9585196D01*
X44602572Y9579235D01*
X44625671Y9570970D01*
X44647850Y9560480D01*
X44668893Y9547868D01*
X44688599Y9533253D01*
X44706777Y9516777D01*
X44723253Y9498599D01*
X44737868Y9478893D01*
X44750480Y9457850D01*
X44760970Y9435671D01*
X44769235Y9412572D01*
X44775196Y9388773D01*
X44778796Y9364505D01*
X44780000Y9340001D01*
X44780000Y8439999D01*
X44778796Y8415495D01*
X44775196Y8391227D01*
X44769235Y8367428D01*
X44760970Y8344329D01*
X44750480Y8322150D01*
X44737868Y8301107D01*
X44723253Y8281401D01*
X44706777Y8263223D01*
X44688599Y8246747D01*
X44668893Y8232132D01*
X44647850Y8219520D01*
X44625671Y8209030D01*
X44602572Y8200765D01*
X44578773Y8194804D01*
X44554505Y8191204D01*
X44530001Y8190000D01*
X43879999Y8190000D01*
X43855495Y8191204D01*
X43831227Y8194804D01*
X43807428Y8200765D01*
X43784329Y8209030D01*
X43762150Y8219520D01*
X43741107Y8232132D01*
X43721401Y8246747D01*
X43703223Y8263223D01*
X43686747Y8281401D01*
X43672132Y8301107D01*
X43659520Y8322150D01*
X43649030Y8344329D01*
X43640765Y8367428D01*
X43634804Y8391227D01*
X43631204Y8415495D01*
X43630000Y8439999D01*
X43630000Y9340001D01*
X43631204Y9364505D01*
X43634804Y9388773D01*
X43640765Y9412572D01*
X43649030Y9435671D01*
X43659520Y9457850D01*
X43672132Y9478893D01*
X43686747Y9498599D01*
X43703223Y9516777D01*
X43721401Y9533253D01*
X43741107Y9547868D01*
X43762150Y9560480D01*
X43784329Y9570970D01*
X43807428Y9579235D01*
X43831227Y9585196D01*
X43855495Y9588796D01*
X43879999Y9590000D01*
X44530001Y9590000D01*
X44554505Y9588796D01*
X44554505Y9588796D01*
G37*
D11*
X44205000Y8890000D03*
D10*
G36*
X42504505Y9588796D02*
G01*
X42528773Y9585196D01*
X42552572Y9579235D01*
X42575671Y9570970D01*
X42597850Y9560480D01*
X42618893Y9547868D01*
X42638599Y9533253D01*
X42656777Y9516777D01*
X42673253Y9498599D01*
X42687868Y9478893D01*
X42700480Y9457850D01*
X42710970Y9435671D01*
X42719235Y9412572D01*
X42725196Y9388773D01*
X42728796Y9364505D01*
X42730000Y9340001D01*
X42730000Y8439999D01*
X42728796Y8415495D01*
X42725196Y8391227D01*
X42719235Y8367428D01*
X42710970Y8344329D01*
X42700480Y8322150D01*
X42687868Y8301107D01*
X42673253Y8281401D01*
X42656777Y8263223D01*
X42638599Y8246747D01*
X42618893Y8232132D01*
X42597850Y8219520D01*
X42575671Y8209030D01*
X42552572Y8200765D01*
X42528773Y8194804D01*
X42504505Y8191204D01*
X42480001Y8190000D01*
X41829999Y8190000D01*
X41805495Y8191204D01*
X41781227Y8194804D01*
X41757428Y8200765D01*
X41734329Y8209030D01*
X41712150Y8219520D01*
X41691107Y8232132D01*
X41671401Y8246747D01*
X41653223Y8263223D01*
X41636747Y8281401D01*
X41622132Y8301107D01*
X41609520Y8322150D01*
X41599030Y8344329D01*
X41590765Y8367428D01*
X41584804Y8391227D01*
X41581204Y8415495D01*
X41580000Y8439999D01*
X41580000Y9340001D01*
X41581204Y9364505D01*
X41584804Y9388773D01*
X41590765Y9412572D01*
X41599030Y9435671D01*
X41609520Y9457850D01*
X41622132Y9478893D01*
X41636747Y9498599D01*
X41653223Y9516777D01*
X41671401Y9533253D01*
X41691107Y9547868D01*
X41712150Y9560480D01*
X41734329Y9570970D01*
X41757428Y9579235D01*
X41781227Y9585196D01*
X41805495Y9588796D01*
X41829999Y9590000D01*
X42480001Y9590000D01*
X42504505Y9588796D01*
X42504505Y9588796D01*
G37*
D11*
X42155000Y8890000D03*
D12*
X12445000Y47625000D03*
X12445000Y48895000D03*
X12445000Y50165000D03*
X12445000Y51435000D03*
X12445000Y52705000D03*
X12445000Y53975000D03*
X12445000Y55245000D03*
X12445000Y56515000D03*
X12445000Y57785000D03*
X12445000Y59055000D03*
X12445000Y60325000D03*
X12445000Y61595000D03*
X21845000Y61595000D03*
X21845000Y60325000D03*
X21845000Y59055000D03*
X21845000Y57785000D03*
X21845000Y56515000D03*
X21845000Y55245000D03*
X21845000Y53975000D03*
X21845000Y52705000D03*
X21845000Y51435000D03*
X21845000Y50165000D03*
X21845000Y48895000D03*
X21845000Y47625000D03*
D13*
X12065000Y3810000D03*
D14*
X12065000Y6350000D03*
D13*
X39370000Y8890000D03*
X39370000Y6350000D03*
D14*
X39370000Y3810000D03*
D15*
X47605000Y71795000D03*
X40605000Y71795000D03*
D16*
X46355000Y74295000D03*
X41855000Y74295000D03*
D15*
X10004500Y71795000D03*
X3004500Y71795000D03*
D16*
X8754500Y74295000D03*
X4254500Y74295000D03*
D17*
X18415000Y74295000D03*
D18*
X20955000Y74295000D03*
D17*
X23495000Y74295000D03*
D18*
X26035000Y74295000D03*
D17*
X13335000Y74295000D03*
D18*
X15875000Y74295000D03*
D13*
X2540000Y12700000D03*
X5080000Y12700000D03*
X2540000Y15240000D03*
X5080000Y15240000D03*
X2540000Y17780000D03*
X5080000Y17780000D03*
X2540000Y20320000D03*
X5080000Y20320000D03*
X2540000Y22860000D03*
X5080000Y22860000D03*
X2540000Y25400000D03*
X5080000Y25400000D03*
X2540000Y27940000D03*
X5080000Y27940000D03*
X2540000Y30480000D03*
X5080000Y30480000D03*
X2540000Y33020000D03*
X5080000Y33020000D03*
X2540000Y35560000D03*
X5080000Y35560000D03*
X2540000Y38100000D03*
X5080000Y38100000D03*
X2540000Y40640000D03*
X5080000Y40640000D03*
X2540000Y43180000D03*
X5080000Y43180000D03*
X2540000Y45720000D03*
X5080000Y45720000D03*
X2540000Y48260000D03*
X5080000Y48260000D03*
X2540000Y50800000D03*
X5080000Y50800000D03*
X2540000Y53340000D03*
X5080000Y53340000D03*
X2540000Y55880000D03*
X5080000Y55880000D03*
X2540000Y58420000D03*
X5080000Y58420000D03*
X2540000Y60960000D03*
D14*
X5080000Y60960000D03*
D13*
X48260000Y60960000D03*
X45720000Y60960000D03*
X48260000Y58420000D03*
X45720000Y58420000D03*
X48260000Y55880000D03*
X45720000Y55880000D03*
X48260000Y53340000D03*
X45720000Y53340000D03*
X48260000Y50800000D03*
X45720000Y50800000D03*
X48260000Y48260000D03*
X45720000Y48260000D03*
X48260000Y45720000D03*
X45720000Y45720000D03*
X48260000Y43180000D03*
X45720000Y43180000D03*
X48260000Y40640000D03*
X45720000Y40640000D03*
X48260000Y38100000D03*
X45720000Y38100000D03*
X48260000Y35560000D03*
X45720000Y35560000D03*
X48260000Y33020000D03*
X45720000Y33020000D03*
X48260000Y30480000D03*
X45720000Y30480000D03*
X48260000Y27940000D03*
X45720000Y27940000D03*
X48260000Y25400000D03*
X45720000Y25400000D03*
X48260000Y22860000D03*
X45720000Y22860000D03*
X48260000Y20320000D03*
X45720000Y20320000D03*
X48260000Y17780000D03*
X45720000Y17780000D03*
X48260000Y15240000D03*
X45720000Y15240000D03*
X48260000Y12700000D03*
D14*
X45720000Y12700000D03*
D10*
G36*
X45044505Y69278796D02*
G01*
X45068773Y69275196D01*
X45092572Y69269235D01*
X45115671Y69260970D01*
X45137850Y69250480D01*
X45158893Y69237868D01*
X45178599Y69223253D01*
X45196777Y69206777D01*
X45213253Y69188599D01*
X45227868Y69168893D01*
X45240480Y69147850D01*
X45250970Y69125671D01*
X45259235Y69102572D01*
X45265196Y69078773D01*
X45268796Y69054505D01*
X45270000Y69030001D01*
X45270000Y68129999D01*
X45268796Y68105495D01*
X45265196Y68081227D01*
X45259235Y68057428D01*
X45250970Y68034329D01*
X45240480Y68012150D01*
X45227868Y67991107D01*
X45213253Y67971401D01*
X45196777Y67953223D01*
X45178599Y67936747D01*
X45158893Y67922132D01*
X45137850Y67909520D01*
X45115671Y67899030D01*
X45092572Y67890765D01*
X45068773Y67884804D01*
X45044505Y67881204D01*
X45020001Y67880000D01*
X44369999Y67880000D01*
X44345495Y67881204D01*
X44321227Y67884804D01*
X44297428Y67890765D01*
X44274329Y67899030D01*
X44252150Y67909520D01*
X44231107Y67922132D01*
X44211401Y67936747D01*
X44193223Y67953223D01*
X44176747Y67971401D01*
X44162132Y67991107D01*
X44149520Y68012150D01*
X44139030Y68034329D01*
X44130765Y68057428D01*
X44124804Y68081227D01*
X44121204Y68105495D01*
X44120000Y68129999D01*
X44120000Y69030001D01*
X44121204Y69054505D01*
X44124804Y69078773D01*
X44130765Y69102572D01*
X44139030Y69125671D01*
X44149520Y69147850D01*
X44162132Y69168893D01*
X44176747Y69188599D01*
X44193223Y69206777D01*
X44211401Y69223253D01*
X44231107Y69237868D01*
X44252150Y69250480D01*
X44274329Y69260970D01*
X44297428Y69269235D01*
X44321227Y69275196D01*
X44345495Y69278796D01*
X44369999Y69280000D01*
X45020001Y69280000D01*
X45044505Y69278796D01*
X45044505Y69278796D01*
G37*
D11*
X44695000Y68580000D03*
D10*
G36*
X47094505Y69278796D02*
G01*
X47118773Y69275196D01*
X47142572Y69269235D01*
X47165671Y69260970D01*
X47187850Y69250480D01*
X47208893Y69237868D01*
X47228599Y69223253D01*
X47246777Y69206777D01*
X47263253Y69188599D01*
X47277868Y69168893D01*
X47290480Y69147850D01*
X47300970Y69125671D01*
X47309235Y69102572D01*
X47315196Y69078773D01*
X47318796Y69054505D01*
X47320000Y69030001D01*
X47320000Y68129999D01*
X47318796Y68105495D01*
X47315196Y68081227D01*
X47309235Y68057428D01*
X47300970Y68034329D01*
X47290480Y68012150D01*
X47277868Y67991107D01*
X47263253Y67971401D01*
X47246777Y67953223D01*
X47228599Y67936747D01*
X47208893Y67922132D01*
X47187850Y67909520D01*
X47165671Y67899030D01*
X47142572Y67890765D01*
X47118773Y67884804D01*
X47094505Y67881204D01*
X47070001Y67880000D01*
X46419999Y67880000D01*
X46395495Y67881204D01*
X46371227Y67884804D01*
X46347428Y67890765D01*
X46324329Y67899030D01*
X46302150Y67909520D01*
X46281107Y67922132D01*
X46261401Y67936747D01*
X46243223Y67953223D01*
X46226747Y67971401D01*
X46212132Y67991107D01*
X46199520Y68012150D01*
X46189030Y68034329D01*
X46180765Y68057428D01*
X46174804Y68081227D01*
X46171204Y68105495D01*
X46170000Y68129999D01*
X46170000Y69030001D01*
X46171204Y69054505D01*
X46174804Y69078773D01*
X46180765Y69102572D01*
X46189030Y69125671D01*
X46199520Y69147850D01*
X46212132Y69168893D01*
X46226747Y69188599D01*
X46243223Y69206777D01*
X46261401Y69223253D01*
X46281107Y69237868D01*
X46302150Y69250480D01*
X46324329Y69260970D01*
X46347428Y69269235D01*
X46371227Y69275196D01*
X46395495Y69278796D01*
X46419999Y69280000D01*
X47070001Y69280000D01*
X47094505Y69278796D01*
X47094505Y69278796D01*
G37*
D11*
X46745000Y68580000D03*
D10*
G36*
X7724505Y66992796D02*
G01*
X7748773Y66989196D01*
X7772572Y66983235D01*
X7795671Y66974970D01*
X7817850Y66964480D01*
X7838893Y66951868D01*
X7858599Y66937253D01*
X7876777Y66920777D01*
X7893253Y66902599D01*
X7907868Y66882893D01*
X7920480Y66861850D01*
X7930970Y66839671D01*
X7939235Y66816572D01*
X7945196Y66792773D01*
X7948796Y66768505D01*
X7950000Y66744001D01*
X7950000Y65843999D01*
X7948796Y65819495D01*
X7945196Y65795227D01*
X7939235Y65771428D01*
X7930970Y65748329D01*
X7920480Y65726150D01*
X7907868Y65705107D01*
X7893253Y65685401D01*
X7876777Y65667223D01*
X7858599Y65650747D01*
X7838893Y65636132D01*
X7817850Y65623520D01*
X7795671Y65613030D01*
X7772572Y65604765D01*
X7748773Y65598804D01*
X7724505Y65595204D01*
X7700001Y65594000D01*
X7049999Y65594000D01*
X7025495Y65595204D01*
X7001227Y65598804D01*
X6977428Y65604765D01*
X6954329Y65613030D01*
X6932150Y65623520D01*
X6911107Y65636132D01*
X6891401Y65650747D01*
X6873223Y65667223D01*
X6856747Y65685401D01*
X6842132Y65705107D01*
X6829520Y65726150D01*
X6819030Y65748329D01*
X6810765Y65771428D01*
X6804804Y65795227D01*
X6801204Y65819495D01*
X6800000Y65843999D01*
X6800000Y66744001D01*
X6801204Y66768505D01*
X6804804Y66792773D01*
X6810765Y66816572D01*
X6819030Y66839671D01*
X6829520Y66861850D01*
X6842132Y66882893D01*
X6856747Y66902599D01*
X6873223Y66920777D01*
X6891401Y66937253D01*
X6911107Y66951868D01*
X6932150Y66964480D01*
X6954329Y66974970D01*
X6977428Y66983235D01*
X7001227Y66989196D01*
X7025495Y66992796D01*
X7049999Y66994000D01*
X7700001Y66994000D01*
X7724505Y66992796D01*
X7724505Y66992796D01*
G37*
D11*
X7375000Y66294000D03*
D10*
G36*
X5674505Y66992796D02*
G01*
X5698773Y66989196D01*
X5722572Y66983235D01*
X5745671Y66974970D01*
X5767850Y66964480D01*
X5788893Y66951868D01*
X5808599Y66937253D01*
X5826777Y66920777D01*
X5843253Y66902599D01*
X5857868Y66882893D01*
X5870480Y66861850D01*
X5880970Y66839671D01*
X5889235Y66816572D01*
X5895196Y66792773D01*
X5898796Y66768505D01*
X5900000Y66744001D01*
X5900000Y65843999D01*
X5898796Y65819495D01*
X5895196Y65795227D01*
X5889235Y65771428D01*
X5880970Y65748329D01*
X5870480Y65726150D01*
X5857868Y65705107D01*
X5843253Y65685401D01*
X5826777Y65667223D01*
X5808599Y65650747D01*
X5788893Y65636132D01*
X5767850Y65623520D01*
X5745671Y65613030D01*
X5722572Y65604765D01*
X5698773Y65598804D01*
X5674505Y65595204D01*
X5650001Y65594000D01*
X4999999Y65594000D01*
X4975495Y65595204D01*
X4951227Y65598804D01*
X4927428Y65604765D01*
X4904329Y65613030D01*
X4882150Y65623520D01*
X4861107Y65636132D01*
X4841401Y65650747D01*
X4823223Y65667223D01*
X4806747Y65685401D01*
X4792132Y65705107D01*
X4779520Y65726150D01*
X4769030Y65748329D01*
X4760765Y65771428D01*
X4754804Y65795227D01*
X4751204Y65819495D01*
X4750000Y65843999D01*
X4750000Y66744001D01*
X4751204Y66768505D01*
X4754804Y66792773D01*
X4760765Y66816572D01*
X4769030Y66839671D01*
X4779520Y66861850D01*
X4792132Y66882893D01*
X4806747Y66902599D01*
X4823223Y66920777D01*
X4841401Y66937253D01*
X4861107Y66951868D01*
X4882150Y66964480D01*
X4904329Y66974970D01*
X4927428Y66983235D01*
X4951227Y66989196D01*
X4975495Y66992796D01*
X4999999Y66994000D01*
X5650001Y66994000D01*
X5674505Y66992796D01*
X5674505Y66992796D01*
G37*
D11*
X5325000Y66294000D03*
D10*
G36*
X7724505Y69278796D02*
G01*
X7748773Y69275196D01*
X7772572Y69269235D01*
X7795671Y69260970D01*
X7817850Y69250480D01*
X7838893Y69237868D01*
X7858599Y69223253D01*
X7876777Y69206777D01*
X7893253Y69188599D01*
X7907868Y69168893D01*
X7920480Y69147850D01*
X7930970Y69125671D01*
X7939235Y69102572D01*
X7945196Y69078773D01*
X7948796Y69054505D01*
X7950000Y69030001D01*
X7950000Y68129999D01*
X7948796Y68105495D01*
X7945196Y68081227D01*
X7939235Y68057428D01*
X7930970Y68034329D01*
X7920480Y68012150D01*
X7907868Y67991107D01*
X7893253Y67971401D01*
X7876777Y67953223D01*
X7858599Y67936747D01*
X7838893Y67922132D01*
X7817850Y67909520D01*
X7795671Y67899030D01*
X7772572Y67890765D01*
X7748773Y67884804D01*
X7724505Y67881204D01*
X7700001Y67880000D01*
X7049999Y67880000D01*
X7025495Y67881204D01*
X7001227Y67884804D01*
X6977428Y67890765D01*
X6954329Y67899030D01*
X6932150Y67909520D01*
X6911107Y67922132D01*
X6891401Y67936747D01*
X6873223Y67953223D01*
X6856747Y67971401D01*
X6842132Y67991107D01*
X6829520Y68012150D01*
X6819030Y68034329D01*
X6810765Y68057428D01*
X6804804Y68081227D01*
X6801204Y68105495D01*
X6800000Y68129999D01*
X6800000Y69030001D01*
X6801204Y69054505D01*
X6804804Y69078773D01*
X6810765Y69102572D01*
X6819030Y69125671D01*
X6829520Y69147850D01*
X6842132Y69168893D01*
X6856747Y69188599D01*
X6873223Y69206777D01*
X6891401Y69223253D01*
X6911107Y69237868D01*
X6932150Y69250480D01*
X6954329Y69260970D01*
X6977428Y69269235D01*
X7001227Y69275196D01*
X7025495Y69278796D01*
X7049999Y69280000D01*
X7700001Y69280000D01*
X7724505Y69278796D01*
X7724505Y69278796D01*
G37*
D11*
X7375000Y68580000D03*
D10*
G36*
X5674505Y69278796D02*
G01*
X5698773Y69275196D01*
X5722572Y69269235D01*
X5745671Y69260970D01*
X5767850Y69250480D01*
X5788893Y69237868D01*
X5808599Y69223253D01*
X5826777Y69206777D01*
X5843253Y69188599D01*
X5857868Y69168893D01*
X5870480Y69147850D01*
X5880970Y69125671D01*
X5889235Y69102572D01*
X5895196Y69078773D01*
X5898796Y69054505D01*
X5900000Y69030001D01*
X5900000Y68129999D01*
X5898796Y68105495D01*
X5895196Y68081227D01*
X5889235Y68057428D01*
X5880970Y68034329D01*
X5870480Y68012150D01*
X5857868Y67991107D01*
X5843253Y67971401D01*
X5826777Y67953223D01*
X5808599Y67936747D01*
X5788893Y67922132D01*
X5767850Y67909520D01*
X5745671Y67899030D01*
X5722572Y67890765D01*
X5698773Y67884804D01*
X5674505Y67881204D01*
X5650001Y67880000D01*
X4999999Y67880000D01*
X4975495Y67881204D01*
X4951227Y67884804D01*
X4927428Y67890765D01*
X4904329Y67899030D01*
X4882150Y67909520D01*
X4861107Y67922132D01*
X4841401Y67936747D01*
X4823223Y67953223D01*
X4806747Y67971401D01*
X4792132Y67991107D01*
X4779520Y68012150D01*
X4769030Y68034329D01*
X4760765Y68057428D01*
X4754804Y68081227D01*
X4751204Y68105495D01*
X4750000Y68129999D01*
X4750000Y69030001D01*
X4751204Y69054505D01*
X4754804Y69078773D01*
X4760765Y69102572D01*
X4769030Y69125671D01*
X4779520Y69147850D01*
X4792132Y69168893D01*
X4806747Y69188599D01*
X4823223Y69206777D01*
X4841401Y69223253D01*
X4861107Y69237868D01*
X4882150Y69250480D01*
X4904329Y69260970D01*
X4927428Y69269235D01*
X4951227Y69275196D01*
X4975495Y69278796D01*
X4999999Y69280000D01*
X5650001Y69280000D01*
X5674505Y69278796D01*
X5674505Y69278796D01*
G37*
D11*
X5325000Y68580000D03*
D10*
G36*
X47094505Y66738796D02*
G01*
X47118773Y66735196D01*
X47142572Y66729235D01*
X47165671Y66720970D01*
X47187850Y66710480D01*
X47208893Y66697868D01*
X47228599Y66683253D01*
X47246777Y66666777D01*
X47263253Y66648599D01*
X47277868Y66628893D01*
X47290480Y66607850D01*
X47300970Y66585671D01*
X47309235Y66562572D01*
X47315196Y66538773D01*
X47318796Y66514505D01*
X47320000Y66490001D01*
X47320000Y65589999D01*
X47318796Y65565495D01*
X47315196Y65541227D01*
X47309235Y65517428D01*
X47300970Y65494329D01*
X47290480Y65472150D01*
X47277868Y65451107D01*
X47263253Y65431401D01*
X47246777Y65413223D01*
X47228599Y65396747D01*
X47208893Y65382132D01*
X47187850Y65369520D01*
X47165671Y65359030D01*
X47142572Y65350765D01*
X47118773Y65344804D01*
X47094505Y65341204D01*
X47070001Y65340000D01*
X46419999Y65340000D01*
X46395495Y65341204D01*
X46371227Y65344804D01*
X46347428Y65350765D01*
X46324329Y65359030D01*
X46302150Y65369520D01*
X46281107Y65382132D01*
X46261401Y65396747D01*
X46243223Y65413223D01*
X46226747Y65431401D01*
X46212132Y65451107D01*
X46199520Y65472150D01*
X46189030Y65494329D01*
X46180765Y65517428D01*
X46174804Y65541227D01*
X46171204Y65565495D01*
X46170000Y65589999D01*
X46170000Y66490001D01*
X46171204Y66514505D01*
X46174804Y66538773D01*
X46180765Y66562572D01*
X46189030Y66585671D01*
X46199520Y66607850D01*
X46212132Y66628893D01*
X46226747Y66648599D01*
X46243223Y66666777D01*
X46261401Y66683253D01*
X46281107Y66697868D01*
X46302150Y66710480D01*
X46324329Y66720970D01*
X46347428Y66729235D01*
X46371227Y66735196D01*
X46395495Y66738796D01*
X46419999Y66740000D01*
X47070001Y66740000D01*
X47094505Y66738796D01*
X47094505Y66738796D01*
G37*
D11*
X46745000Y66040000D03*
D10*
G36*
X45044505Y66738796D02*
G01*
X45068773Y66735196D01*
X45092572Y66729235D01*
X45115671Y66720970D01*
X45137850Y66710480D01*
X45158893Y66697868D01*
X45178599Y66683253D01*
X45196777Y66666777D01*
X45213253Y66648599D01*
X45227868Y66628893D01*
X45240480Y66607850D01*
X45250970Y66585671D01*
X45259235Y66562572D01*
X45265196Y66538773D01*
X45268796Y66514505D01*
X45270000Y66490001D01*
X45270000Y65589999D01*
X45268796Y65565495D01*
X45265196Y65541227D01*
X45259235Y65517428D01*
X45250970Y65494329D01*
X45240480Y65472150D01*
X45227868Y65451107D01*
X45213253Y65431401D01*
X45196777Y65413223D01*
X45178599Y65396747D01*
X45158893Y65382132D01*
X45137850Y65369520D01*
X45115671Y65359030D01*
X45092572Y65350765D01*
X45068773Y65344804D01*
X45044505Y65341204D01*
X45020001Y65340000D01*
X44369999Y65340000D01*
X44345495Y65341204D01*
X44321227Y65344804D01*
X44297428Y65350765D01*
X44274329Y65359030D01*
X44252150Y65369520D01*
X44231107Y65382132D01*
X44211401Y65396747D01*
X44193223Y65413223D01*
X44176747Y65431401D01*
X44162132Y65451107D01*
X44149520Y65472150D01*
X44139030Y65494329D01*
X44130765Y65517428D01*
X44124804Y65541227D01*
X44121204Y65565495D01*
X44120000Y65589999D01*
X44120000Y66490001D01*
X44121204Y66514505D01*
X44124804Y66538773D01*
X44130765Y66562572D01*
X44139030Y66585671D01*
X44149520Y66607850D01*
X44162132Y66628893D01*
X44176747Y66648599D01*
X44193223Y66666777D01*
X44211401Y66683253D01*
X44231107Y66697868D01*
X44252150Y66710480D01*
X44274329Y66720970D01*
X44297428Y66729235D01*
X44321227Y66735196D01*
X44345495Y66738796D01*
X44369999Y66740000D01*
X45020001Y66740000D01*
X45044505Y66738796D01*
X45044505Y66738796D01*
G37*
D11*
X44695000Y66040000D03*
D10*
G36*
X5674505Y64706796D02*
G01*
X5698773Y64703196D01*
X5722572Y64697235D01*
X5745671Y64688970D01*
X5767850Y64678480D01*
X5788893Y64665868D01*
X5808599Y64651253D01*
X5826777Y64634777D01*
X5843253Y64616599D01*
X5857868Y64596893D01*
X5870480Y64575850D01*
X5880970Y64553671D01*
X5889235Y64530572D01*
X5895196Y64506773D01*
X5898796Y64482505D01*
X5900000Y64458001D01*
X5900000Y63557999D01*
X5898796Y63533495D01*
X5895196Y63509227D01*
X5889235Y63485428D01*
X5880970Y63462329D01*
X5870480Y63440150D01*
X5857868Y63419107D01*
X5843253Y63399401D01*
X5826777Y63381223D01*
X5808599Y63364747D01*
X5788893Y63350132D01*
X5767850Y63337520D01*
X5745671Y63327030D01*
X5722572Y63318765D01*
X5698773Y63312804D01*
X5674505Y63309204D01*
X5650001Y63308000D01*
X4999999Y63308000D01*
X4975495Y63309204D01*
X4951227Y63312804D01*
X4927428Y63318765D01*
X4904329Y63327030D01*
X4882150Y63337520D01*
X4861107Y63350132D01*
X4841401Y63364747D01*
X4823223Y63381223D01*
X4806747Y63399401D01*
X4792132Y63419107D01*
X4779520Y63440150D01*
X4769030Y63462329D01*
X4760765Y63485428D01*
X4754804Y63509227D01*
X4751204Y63533495D01*
X4750000Y63557999D01*
X4750000Y64458001D01*
X4751204Y64482505D01*
X4754804Y64506773D01*
X4760765Y64530572D01*
X4769030Y64553671D01*
X4779520Y64575850D01*
X4792132Y64596893D01*
X4806747Y64616599D01*
X4823223Y64634777D01*
X4841401Y64651253D01*
X4861107Y64665868D01*
X4882150Y64678480D01*
X4904329Y64688970D01*
X4927428Y64697235D01*
X4951227Y64703196D01*
X4975495Y64706796D01*
X4999999Y64708000D01*
X5650001Y64708000D01*
X5674505Y64706796D01*
X5674505Y64706796D01*
G37*
D11*
X5325000Y64008000D03*
D10*
G36*
X7724505Y64706796D02*
G01*
X7748773Y64703196D01*
X7772572Y64697235D01*
X7795671Y64688970D01*
X7817850Y64678480D01*
X7838893Y64665868D01*
X7858599Y64651253D01*
X7876777Y64634777D01*
X7893253Y64616599D01*
X7907868Y64596893D01*
X7920480Y64575850D01*
X7930970Y64553671D01*
X7939235Y64530572D01*
X7945196Y64506773D01*
X7948796Y64482505D01*
X7950000Y64458001D01*
X7950000Y63557999D01*
X7948796Y63533495D01*
X7945196Y63509227D01*
X7939235Y63485428D01*
X7930970Y63462329D01*
X7920480Y63440150D01*
X7907868Y63419107D01*
X7893253Y63399401D01*
X7876777Y63381223D01*
X7858599Y63364747D01*
X7838893Y63350132D01*
X7817850Y63337520D01*
X7795671Y63327030D01*
X7772572Y63318765D01*
X7748773Y63312804D01*
X7724505Y63309204D01*
X7700001Y63308000D01*
X7049999Y63308000D01*
X7025495Y63309204D01*
X7001227Y63312804D01*
X6977428Y63318765D01*
X6954329Y63327030D01*
X6932150Y63337520D01*
X6911107Y63350132D01*
X6891401Y63364747D01*
X6873223Y63381223D01*
X6856747Y63399401D01*
X6842132Y63419107D01*
X6829520Y63440150D01*
X6819030Y63462329D01*
X6810765Y63485428D01*
X6804804Y63509227D01*
X6801204Y63533495D01*
X6800000Y63557999D01*
X6800000Y64458001D01*
X6801204Y64482505D01*
X6804804Y64506773D01*
X6810765Y64530572D01*
X6819030Y64553671D01*
X6829520Y64575850D01*
X6842132Y64596893D01*
X6856747Y64616599D01*
X6873223Y64634777D01*
X6891401Y64651253D01*
X6911107Y64665868D01*
X6932150Y64678480D01*
X6954329Y64688970D01*
X6977428Y64697235D01*
X7001227Y64703196D01*
X7025495Y64706796D01*
X7049999Y64708000D01*
X7700001Y64708000D01*
X7724505Y64706796D01*
X7724505Y64706796D01*
G37*
D11*
X7375000Y64008000D03*
D10*
G36*
X8475505Y9708796D02*
G01*
X8499773Y9705196D01*
X8523572Y9699235D01*
X8546671Y9690970D01*
X8568850Y9680480D01*
X8589893Y9667868D01*
X8609599Y9653253D01*
X8627777Y9636777D01*
X8644253Y9618599D01*
X8658868Y9598893D01*
X8671480Y9577850D01*
X8681970Y9555671D01*
X8690235Y9532572D01*
X8696196Y9508773D01*
X8699796Y9484505D01*
X8701000Y9460001D01*
X8701000Y8809999D01*
X8699796Y8785495D01*
X8696196Y8761227D01*
X8690235Y8737428D01*
X8681970Y8714329D01*
X8671480Y8692150D01*
X8658868Y8671107D01*
X8644253Y8651401D01*
X8627777Y8633223D01*
X8609599Y8616747D01*
X8589893Y8602132D01*
X8568850Y8589520D01*
X8546671Y8579030D01*
X8523572Y8570765D01*
X8499773Y8564804D01*
X8475505Y8561204D01*
X8451001Y8560000D01*
X7550999Y8560000D01*
X7526495Y8561204D01*
X7502227Y8564804D01*
X7478428Y8570765D01*
X7455329Y8579030D01*
X7433150Y8589520D01*
X7412107Y8602132D01*
X7392401Y8616747D01*
X7374223Y8633223D01*
X7357747Y8651401D01*
X7343132Y8671107D01*
X7330520Y8692150D01*
X7320030Y8714329D01*
X7311765Y8737428D01*
X7305804Y8761227D01*
X7302204Y8785495D01*
X7301000Y8809999D01*
X7301000Y9460001D01*
X7302204Y9484505D01*
X7305804Y9508773D01*
X7311765Y9532572D01*
X7320030Y9555671D01*
X7330520Y9577850D01*
X7343132Y9598893D01*
X7357747Y9618599D01*
X7374223Y9636777D01*
X7392401Y9653253D01*
X7412107Y9667868D01*
X7433150Y9680480D01*
X7455329Y9690970D01*
X7478428Y9699235D01*
X7502227Y9705196D01*
X7526495Y9708796D01*
X7550999Y9710000D01*
X8451001Y9710000D01*
X8475505Y9708796D01*
X8475505Y9708796D01*
G37*
D11*
X8001000Y9135000D03*
D10*
G36*
X8475505Y11758796D02*
G01*
X8499773Y11755196D01*
X8523572Y11749235D01*
X8546671Y11740970D01*
X8568850Y11730480D01*
X8589893Y11717868D01*
X8609599Y11703253D01*
X8627777Y11686777D01*
X8644253Y11668599D01*
X8658868Y11648893D01*
X8671480Y11627850D01*
X8681970Y11605671D01*
X8690235Y11582572D01*
X8696196Y11558773D01*
X8699796Y11534505D01*
X8701000Y11510001D01*
X8701000Y10859999D01*
X8699796Y10835495D01*
X8696196Y10811227D01*
X8690235Y10787428D01*
X8681970Y10764329D01*
X8671480Y10742150D01*
X8658868Y10721107D01*
X8644253Y10701401D01*
X8627777Y10683223D01*
X8609599Y10666747D01*
X8589893Y10652132D01*
X8568850Y10639520D01*
X8546671Y10629030D01*
X8523572Y10620765D01*
X8499773Y10614804D01*
X8475505Y10611204D01*
X8451001Y10610000D01*
X7550999Y10610000D01*
X7526495Y10611204D01*
X7502227Y10614804D01*
X7478428Y10620765D01*
X7455329Y10629030D01*
X7433150Y10639520D01*
X7412107Y10652132D01*
X7392401Y10666747D01*
X7374223Y10683223D01*
X7357747Y10701401D01*
X7343132Y10721107D01*
X7330520Y10742150D01*
X7320030Y10764329D01*
X7311765Y10787428D01*
X7305804Y10811227D01*
X7302204Y10835495D01*
X7301000Y10859999D01*
X7301000Y11510001D01*
X7302204Y11534505D01*
X7305804Y11558773D01*
X7311765Y11582572D01*
X7320030Y11605671D01*
X7330520Y11627850D01*
X7343132Y11648893D01*
X7357747Y11668599D01*
X7374223Y11686777D01*
X7392401Y11703253D01*
X7412107Y11717868D01*
X7433150Y11730480D01*
X7455329Y11740970D01*
X7478428Y11749235D01*
X7502227Y11755196D01*
X7526495Y11758796D01*
X7550999Y11760000D01*
X8451001Y11760000D01*
X8475505Y11758796D01*
X8475505Y11758796D01*
G37*
D11*
X8001000Y11185000D03*
D10*
G36*
X44554505Y7048796D02*
G01*
X44578773Y7045196D01*
X44602572Y7039235D01*
X44625671Y7030970D01*
X44647850Y7020480D01*
X44668893Y7007868D01*
X44688599Y6993253D01*
X44706777Y6976777D01*
X44723253Y6958599D01*
X44737868Y6938893D01*
X44750480Y6917850D01*
X44760970Y6895671D01*
X44769235Y6872572D01*
X44775196Y6848773D01*
X44778796Y6824505D01*
X44780000Y6800001D01*
X44780000Y5899999D01*
X44778796Y5875495D01*
X44775196Y5851227D01*
X44769235Y5827428D01*
X44760970Y5804329D01*
X44750480Y5782150D01*
X44737868Y5761107D01*
X44723253Y5741401D01*
X44706777Y5723223D01*
X44688599Y5706747D01*
X44668893Y5692132D01*
X44647850Y5679520D01*
X44625671Y5669030D01*
X44602572Y5660765D01*
X44578773Y5654804D01*
X44554505Y5651204D01*
X44530001Y5650000D01*
X43879999Y5650000D01*
X43855495Y5651204D01*
X43831227Y5654804D01*
X43807428Y5660765D01*
X43784329Y5669030D01*
X43762150Y5679520D01*
X43741107Y5692132D01*
X43721401Y5706747D01*
X43703223Y5723223D01*
X43686747Y5741401D01*
X43672132Y5761107D01*
X43659520Y5782150D01*
X43649030Y5804329D01*
X43640765Y5827428D01*
X43634804Y5851227D01*
X43631204Y5875495D01*
X43630000Y5899999D01*
X43630000Y6800001D01*
X43631204Y6824505D01*
X43634804Y6848773D01*
X43640765Y6872572D01*
X43649030Y6895671D01*
X43659520Y6917850D01*
X43672132Y6938893D01*
X43686747Y6958599D01*
X43703223Y6976777D01*
X43721401Y6993253D01*
X43741107Y7007868D01*
X43762150Y7020480D01*
X43784329Y7030970D01*
X43807428Y7039235D01*
X43831227Y7045196D01*
X43855495Y7048796D01*
X43879999Y7050000D01*
X44530001Y7050000D01*
X44554505Y7048796D01*
X44554505Y7048796D01*
G37*
D11*
X44205000Y6350000D03*
D10*
G36*
X42504505Y7048796D02*
G01*
X42528773Y7045196D01*
X42552572Y7039235D01*
X42575671Y7030970D01*
X42597850Y7020480D01*
X42618893Y7007868D01*
X42638599Y6993253D01*
X42656777Y6976777D01*
X42673253Y6958599D01*
X42687868Y6938893D01*
X42700480Y6917850D01*
X42710970Y6895671D01*
X42719235Y6872572D01*
X42725196Y6848773D01*
X42728796Y6824505D01*
X42730000Y6800001D01*
X42730000Y5899999D01*
X42728796Y5875495D01*
X42725196Y5851227D01*
X42719235Y5827428D01*
X42710970Y5804329D01*
X42700480Y5782150D01*
X42687868Y5761107D01*
X42673253Y5741401D01*
X42656777Y5723223D01*
X42638599Y5706747D01*
X42618893Y5692132D01*
X42597850Y5679520D01*
X42575671Y5669030D01*
X42552572Y5660765D01*
X42528773Y5654804D01*
X42504505Y5651204D01*
X42480001Y5650000D01*
X41829999Y5650000D01*
X41805495Y5651204D01*
X41781227Y5654804D01*
X41757428Y5660765D01*
X41734329Y5669030D01*
X41712150Y5679520D01*
X41691107Y5692132D01*
X41671401Y5706747D01*
X41653223Y5723223D01*
X41636747Y5741401D01*
X41622132Y5761107D01*
X41609520Y5782150D01*
X41599030Y5804329D01*
X41590765Y5827428D01*
X41584804Y5851227D01*
X41581204Y5875495D01*
X41580000Y5899999D01*
X41580000Y6800001D01*
X41581204Y6824505D01*
X41584804Y6848773D01*
X41590765Y6872572D01*
X41599030Y6895671D01*
X41609520Y6917850D01*
X41622132Y6938893D01*
X41636747Y6958599D01*
X41653223Y6976777D01*
X41671401Y6993253D01*
X41691107Y7007868D01*
X41712150Y7020480D01*
X41734329Y7030970D01*
X41757428Y7039235D01*
X41781227Y7045196D01*
X41805495Y7048796D01*
X41829999Y7050000D01*
X42480001Y7050000D01*
X42504505Y7048796D01*
X42504505Y7048796D01*
G37*
D11*
X42155000Y6350000D03*
D10*
G36*
X41234505Y28638796D02*
G01*
X41258773Y28635196D01*
X41282572Y28629235D01*
X41305671Y28620970D01*
X41327850Y28610480D01*
X41348893Y28597868D01*
X41368599Y28583253D01*
X41386777Y28566777D01*
X41403253Y28548599D01*
X41417868Y28528893D01*
X41430480Y28507850D01*
X41440970Y28485671D01*
X41449235Y28462572D01*
X41455196Y28438773D01*
X41458796Y28414505D01*
X41460000Y28390001D01*
X41460000Y27489999D01*
X41458796Y27465495D01*
X41455196Y27441227D01*
X41449235Y27417428D01*
X41440970Y27394329D01*
X41430480Y27372150D01*
X41417868Y27351107D01*
X41403253Y27331401D01*
X41386777Y27313223D01*
X41368599Y27296747D01*
X41348893Y27282132D01*
X41327850Y27269520D01*
X41305671Y27259030D01*
X41282572Y27250765D01*
X41258773Y27244804D01*
X41234505Y27241204D01*
X41210001Y27240000D01*
X40559999Y27240000D01*
X40535495Y27241204D01*
X40511227Y27244804D01*
X40487428Y27250765D01*
X40464329Y27259030D01*
X40442150Y27269520D01*
X40421107Y27282132D01*
X40401401Y27296747D01*
X40383223Y27313223D01*
X40366747Y27331401D01*
X40352132Y27351107D01*
X40339520Y27372150D01*
X40329030Y27394329D01*
X40320765Y27417428D01*
X40314804Y27441227D01*
X40311204Y27465495D01*
X40310000Y27489999D01*
X40310000Y28390001D01*
X40311204Y28414505D01*
X40314804Y28438773D01*
X40320765Y28462572D01*
X40329030Y28485671D01*
X40339520Y28507850D01*
X40352132Y28528893D01*
X40366747Y28548599D01*
X40383223Y28566777D01*
X40401401Y28583253D01*
X40421107Y28597868D01*
X40442150Y28610480D01*
X40464329Y28620970D01*
X40487428Y28629235D01*
X40511227Y28635196D01*
X40535495Y28638796D01*
X40559999Y28640000D01*
X41210001Y28640000D01*
X41234505Y28638796D01*
X41234505Y28638796D01*
G37*
D11*
X40885000Y27940000D03*
D10*
G36*
X43284505Y28638796D02*
G01*
X43308773Y28635196D01*
X43332572Y28629235D01*
X43355671Y28620970D01*
X43377850Y28610480D01*
X43398893Y28597868D01*
X43418599Y28583253D01*
X43436777Y28566777D01*
X43453253Y28548599D01*
X43467868Y28528893D01*
X43480480Y28507850D01*
X43490970Y28485671D01*
X43499235Y28462572D01*
X43505196Y28438773D01*
X43508796Y28414505D01*
X43510000Y28390001D01*
X43510000Y27489999D01*
X43508796Y27465495D01*
X43505196Y27441227D01*
X43499235Y27417428D01*
X43490970Y27394329D01*
X43480480Y27372150D01*
X43467868Y27351107D01*
X43453253Y27331401D01*
X43436777Y27313223D01*
X43418599Y27296747D01*
X43398893Y27282132D01*
X43377850Y27269520D01*
X43355671Y27259030D01*
X43332572Y27250765D01*
X43308773Y27244804D01*
X43284505Y27241204D01*
X43260001Y27240000D01*
X42609999Y27240000D01*
X42585495Y27241204D01*
X42561227Y27244804D01*
X42537428Y27250765D01*
X42514329Y27259030D01*
X42492150Y27269520D01*
X42471107Y27282132D01*
X42451401Y27296747D01*
X42433223Y27313223D01*
X42416747Y27331401D01*
X42402132Y27351107D01*
X42389520Y27372150D01*
X42379030Y27394329D01*
X42370765Y27417428D01*
X42364804Y27441227D01*
X42361204Y27465495D01*
X42360000Y27489999D01*
X42360000Y28390001D01*
X42361204Y28414505D01*
X42364804Y28438773D01*
X42370765Y28462572D01*
X42379030Y28485671D01*
X42389520Y28507850D01*
X42402132Y28528893D01*
X42416747Y28548599D01*
X42433223Y28566777D01*
X42451401Y28583253D01*
X42471107Y28597868D01*
X42492150Y28610480D01*
X42514329Y28620970D01*
X42537428Y28629235D01*
X42561227Y28635196D01*
X42585495Y28638796D01*
X42609999Y28640000D01*
X43260001Y28640000D01*
X43284505Y28638796D01*
X43284505Y28638796D01*
G37*
D11*
X42935000Y27940000D03*
D10*
G36*
X10264505Y46037796D02*
G01*
X10288773Y46034196D01*
X10312572Y46028235D01*
X10335671Y46019970D01*
X10357850Y46009480D01*
X10378893Y45996868D01*
X10398599Y45982253D01*
X10416777Y45965777D01*
X10433253Y45947599D01*
X10447868Y45927893D01*
X10460480Y45906850D01*
X10470970Y45884671D01*
X10479235Y45861572D01*
X10485196Y45837773D01*
X10488796Y45813505D01*
X10490000Y45789001D01*
X10490000Y44888999D01*
X10488796Y44864495D01*
X10485196Y44840227D01*
X10479235Y44816428D01*
X10470970Y44793329D01*
X10460480Y44771150D01*
X10447868Y44750107D01*
X10433253Y44730401D01*
X10416777Y44712223D01*
X10398599Y44695747D01*
X10378893Y44681132D01*
X10357850Y44668520D01*
X10335671Y44658030D01*
X10312572Y44649765D01*
X10288773Y44643804D01*
X10264505Y44640204D01*
X10240001Y44639000D01*
X9589999Y44639000D01*
X9565495Y44640204D01*
X9541227Y44643804D01*
X9517428Y44649765D01*
X9494329Y44658030D01*
X9472150Y44668520D01*
X9451107Y44681132D01*
X9431401Y44695747D01*
X9413223Y44712223D01*
X9396747Y44730401D01*
X9382132Y44750107D01*
X9369520Y44771150D01*
X9359030Y44793329D01*
X9350765Y44816428D01*
X9344804Y44840227D01*
X9341204Y44864495D01*
X9340000Y44888999D01*
X9340000Y45789001D01*
X9341204Y45813505D01*
X9344804Y45837773D01*
X9350765Y45861572D01*
X9359030Y45884671D01*
X9369520Y45906850D01*
X9382132Y45927893D01*
X9396747Y45947599D01*
X9413223Y45965777D01*
X9431401Y45982253D01*
X9451107Y45996868D01*
X9472150Y46009480D01*
X9494329Y46019970D01*
X9517428Y46028235D01*
X9541227Y46034196D01*
X9565495Y46037796D01*
X9589999Y46039000D01*
X10240001Y46039000D01*
X10264505Y46037796D01*
X10264505Y46037796D01*
G37*
D11*
X9915000Y45339000D03*
D10*
G36*
X8214505Y46037796D02*
G01*
X8238773Y46034196D01*
X8262572Y46028235D01*
X8285671Y46019970D01*
X8307850Y46009480D01*
X8328893Y45996868D01*
X8348599Y45982253D01*
X8366777Y45965777D01*
X8383253Y45947599D01*
X8397868Y45927893D01*
X8410480Y45906850D01*
X8420970Y45884671D01*
X8429235Y45861572D01*
X8435196Y45837773D01*
X8438796Y45813505D01*
X8440000Y45789001D01*
X8440000Y44888999D01*
X8438796Y44864495D01*
X8435196Y44840227D01*
X8429235Y44816428D01*
X8420970Y44793329D01*
X8410480Y44771150D01*
X8397868Y44750107D01*
X8383253Y44730401D01*
X8366777Y44712223D01*
X8348599Y44695747D01*
X8328893Y44681132D01*
X8307850Y44668520D01*
X8285671Y44658030D01*
X8262572Y44649765D01*
X8238773Y44643804D01*
X8214505Y44640204D01*
X8190001Y44639000D01*
X7539999Y44639000D01*
X7515495Y44640204D01*
X7491227Y44643804D01*
X7467428Y44649765D01*
X7444329Y44658030D01*
X7422150Y44668520D01*
X7401107Y44681132D01*
X7381401Y44695747D01*
X7363223Y44712223D01*
X7346747Y44730401D01*
X7332132Y44750107D01*
X7319520Y44771150D01*
X7309030Y44793329D01*
X7300765Y44816428D01*
X7294804Y44840227D01*
X7291204Y44864495D01*
X7290000Y44888999D01*
X7290000Y45789001D01*
X7291204Y45813505D01*
X7294804Y45837773D01*
X7300765Y45861572D01*
X7309030Y45884671D01*
X7319520Y45906850D01*
X7332132Y45927893D01*
X7346747Y45947599D01*
X7363223Y45965777D01*
X7381401Y45982253D01*
X7401107Y45996868D01*
X7422150Y46009480D01*
X7444329Y46019970D01*
X7467428Y46028235D01*
X7491227Y46034196D01*
X7515495Y46037796D01*
X7539999Y46039000D01*
X8190001Y46039000D01*
X8214505Y46037796D01*
X8214505Y46037796D01*
G37*
D11*
X7865000Y45339000D03*
D10*
G36*
X22574505Y4508796D02*
G01*
X22598773Y4505196D01*
X22622572Y4499235D01*
X22645671Y4490970D01*
X22667850Y4480480D01*
X22688893Y4467868D01*
X22708599Y4453253D01*
X22726777Y4436777D01*
X22743253Y4418599D01*
X22757868Y4398893D01*
X22770480Y4377850D01*
X22780970Y4355671D01*
X22789235Y4332572D01*
X22795196Y4308773D01*
X22798796Y4284505D01*
X22800000Y4260001D01*
X22800000Y3359999D01*
X22798796Y3335495D01*
X22795196Y3311227D01*
X22789235Y3287428D01*
X22780970Y3264329D01*
X22770480Y3242150D01*
X22757868Y3221107D01*
X22743253Y3201401D01*
X22726777Y3183223D01*
X22708599Y3166747D01*
X22688893Y3152132D01*
X22667850Y3139520D01*
X22645671Y3129030D01*
X22622572Y3120765D01*
X22598773Y3114804D01*
X22574505Y3111204D01*
X22550001Y3110000D01*
X21899999Y3110000D01*
X21875495Y3111204D01*
X21851227Y3114804D01*
X21827428Y3120765D01*
X21804329Y3129030D01*
X21782150Y3139520D01*
X21761107Y3152132D01*
X21741401Y3166747D01*
X21723223Y3183223D01*
X21706747Y3201401D01*
X21692132Y3221107D01*
X21679520Y3242150D01*
X21669030Y3264329D01*
X21660765Y3287428D01*
X21654804Y3311227D01*
X21651204Y3335495D01*
X21650000Y3359999D01*
X21650000Y4260001D01*
X21651204Y4284505D01*
X21654804Y4308773D01*
X21660765Y4332572D01*
X21669030Y4355671D01*
X21679520Y4377850D01*
X21692132Y4398893D01*
X21706747Y4418599D01*
X21723223Y4436777D01*
X21741401Y4453253D01*
X21761107Y4467868D01*
X21782150Y4480480D01*
X21804329Y4490970D01*
X21827428Y4499235D01*
X21851227Y4505196D01*
X21875495Y4508796D01*
X21899999Y4510000D01*
X22550001Y4510000D01*
X22574505Y4508796D01*
X22574505Y4508796D01*
G37*
D11*
X22225000Y3810000D03*
D10*
G36*
X24624505Y4508796D02*
G01*
X24648773Y4505196D01*
X24672572Y4499235D01*
X24695671Y4490970D01*
X24717850Y4480480D01*
X24738893Y4467868D01*
X24758599Y4453253D01*
X24776777Y4436777D01*
X24793253Y4418599D01*
X24807868Y4398893D01*
X24820480Y4377850D01*
X24830970Y4355671D01*
X24839235Y4332572D01*
X24845196Y4308773D01*
X24848796Y4284505D01*
X24850000Y4260001D01*
X24850000Y3359999D01*
X24848796Y3335495D01*
X24845196Y3311227D01*
X24839235Y3287428D01*
X24830970Y3264329D01*
X24820480Y3242150D01*
X24807868Y3221107D01*
X24793253Y3201401D01*
X24776777Y3183223D01*
X24758599Y3166747D01*
X24738893Y3152132D01*
X24717850Y3139520D01*
X24695671Y3129030D01*
X24672572Y3120765D01*
X24648773Y3114804D01*
X24624505Y3111204D01*
X24600001Y3110000D01*
X23949999Y3110000D01*
X23925495Y3111204D01*
X23901227Y3114804D01*
X23877428Y3120765D01*
X23854329Y3129030D01*
X23832150Y3139520D01*
X23811107Y3152132D01*
X23791401Y3166747D01*
X23773223Y3183223D01*
X23756747Y3201401D01*
X23742132Y3221107D01*
X23729520Y3242150D01*
X23719030Y3264329D01*
X23710765Y3287428D01*
X23704804Y3311227D01*
X23701204Y3335495D01*
X23700000Y3359999D01*
X23700000Y4260001D01*
X23701204Y4284505D01*
X23704804Y4308773D01*
X23710765Y4332572D01*
X23719030Y4355671D01*
X23729520Y4377850D01*
X23742132Y4398893D01*
X23756747Y4418599D01*
X23773223Y4436777D01*
X23791401Y4453253D01*
X23811107Y4467868D01*
X23832150Y4480480D01*
X23854329Y4490970D01*
X23877428Y4499235D01*
X23901227Y4505196D01*
X23925495Y4508796D01*
X23949999Y4510000D01*
X24600001Y4510000D01*
X24624505Y4508796D01*
X24624505Y4508796D01*
G37*
D11*
X24275000Y3810000D03*
D10*
G36*
X41749505Y59483796D02*
G01*
X41773773Y59480196D01*
X41797572Y59474235D01*
X41820671Y59465970D01*
X41842850Y59455480D01*
X41863893Y59442868D01*
X41883599Y59428253D01*
X41901777Y59411777D01*
X41918253Y59393599D01*
X41932868Y59373893D01*
X41945480Y59352850D01*
X41955970Y59330671D01*
X41964235Y59307572D01*
X41970196Y59283773D01*
X41973796Y59259505D01*
X41975000Y59235001D01*
X41975000Y58584999D01*
X41973796Y58560495D01*
X41970196Y58536227D01*
X41964235Y58512428D01*
X41955970Y58489329D01*
X41945480Y58467150D01*
X41932868Y58446107D01*
X41918253Y58426401D01*
X41901777Y58408223D01*
X41883599Y58391747D01*
X41863893Y58377132D01*
X41842850Y58364520D01*
X41820671Y58354030D01*
X41797572Y58345765D01*
X41773773Y58339804D01*
X41749505Y58336204D01*
X41725001Y58335000D01*
X40824999Y58335000D01*
X40800495Y58336204D01*
X40776227Y58339804D01*
X40752428Y58345765D01*
X40729329Y58354030D01*
X40707150Y58364520D01*
X40686107Y58377132D01*
X40666401Y58391747D01*
X40648223Y58408223D01*
X40631747Y58426401D01*
X40617132Y58446107D01*
X40604520Y58467150D01*
X40594030Y58489329D01*
X40585765Y58512428D01*
X40579804Y58536227D01*
X40576204Y58560495D01*
X40575000Y58584999D01*
X40575000Y59235001D01*
X40576204Y59259505D01*
X40579804Y59283773D01*
X40585765Y59307572D01*
X40594030Y59330671D01*
X40604520Y59352850D01*
X40617132Y59373893D01*
X40631747Y59393599D01*
X40648223Y59411777D01*
X40666401Y59428253D01*
X40686107Y59442868D01*
X40707150Y59455480D01*
X40729329Y59465970D01*
X40752428Y59474235D01*
X40776227Y59480196D01*
X40800495Y59483796D01*
X40824999Y59485000D01*
X41725001Y59485000D01*
X41749505Y59483796D01*
X41749505Y59483796D01*
G37*
D11*
X41275000Y58910000D03*
D10*
G36*
X41749505Y61533796D02*
G01*
X41773773Y61530196D01*
X41797572Y61524235D01*
X41820671Y61515970D01*
X41842850Y61505480D01*
X41863893Y61492868D01*
X41883599Y61478253D01*
X41901777Y61461777D01*
X41918253Y61443599D01*
X41932868Y61423893D01*
X41945480Y61402850D01*
X41955970Y61380671D01*
X41964235Y61357572D01*
X41970196Y61333773D01*
X41973796Y61309505D01*
X41975000Y61285001D01*
X41975000Y60634999D01*
X41973796Y60610495D01*
X41970196Y60586227D01*
X41964235Y60562428D01*
X41955970Y60539329D01*
X41945480Y60517150D01*
X41932868Y60496107D01*
X41918253Y60476401D01*
X41901777Y60458223D01*
X41883599Y60441747D01*
X41863893Y60427132D01*
X41842850Y60414520D01*
X41820671Y60404030D01*
X41797572Y60395765D01*
X41773773Y60389804D01*
X41749505Y60386204D01*
X41725001Y60385000D01*
X40824999Y60385000D01*
X40800495Y60386204D01*
X40776227Y60389804D01*
X40752428Y60395765D01*
X40729329Y60404030D01*
X40707150Y60414520D01*
X40686107Y60427132D01*
X40666401Y60441747D01*
X40648223Y60458223D01*
X40631747Y60476401D01*
X40617132Y60496107D01*
X40604520Y60517150D01*
X40594030Y60539329D01*
X40585765Y60562428D01*
X40579804Y60586227D01*
X40576204Y60610495D01*
X40575000Y60634999D01*
X40575000Y61285001D01*
X40576204Y61309505D01*
X40579804Y61333773D01*
X40585765Y61357572D01*
X40594030Y61380671D01*
X40604520Y61402850D01*
X40617132Y61423893D01*
X40631747Y61443599D01*
X40648223Y61461777D01*
X40666401Y61478253D01*
X40686107Y61492868D01*
X40707150Y61505480D01*
X40729329Y61515970D01*
X40752428Y61524235D01*
X40776227Y61530196D01*
X40800495Y61533796D01*
X40824999Y61535000D01*
X41725001Y61535000D01*
X41749505Y61533796D01*
X41749505Y61533796D01*
G37*
D11*
X41275000Y60960000D03*
D10*
G36*
X41114505Y45168796D02*
G01*
X41138773Y45165196D01*
X41162572Y45159235D01*
X41185671Y45150970D01*
X41207850Y45140480D01*
X41228893Y45127868D01*
X41248599Y45113253D01*
X41266777Y45096777D01*
X41283253Y45078599D01*
X41297868Y45058893D01*
X41310480Y45037850D01*
X41320970Y45015671D01*
X41329235Y44992572D01*
X41335196Y44968773D01*
X41338796Y44944505D01*
X41340000Y44920001D01*
X41340000Y44269999D01*
X41338796Y44245495D01*
X41335196Y44221227D01*
X41329235Y44197428D01*
X41320970Y44174329D01*
X41310480Y44152150D01*
X41297868Y44131107D01*
X41283253Y44111401D01*
X41266777Y44093223D01*
X41248599Y44076747D01*
X41228893Y44062132D01*
X41207850Y44049520D01*
X41185671Y44039030D01*
X41162572Y44030765D01*
X41138773Y44024804D01*
X41114505Y44021204D01*
X41090001Y44020000D01*
X40189999Y44020000D01*
X40165495Y44021204D01*
X40141227Y44024804D01*
X40117428Y44030765D01*
X40094329Y44039030D01*
X40072150Y44049520D01*
X40051107Y44062132D01*
X40031401Y44076747D01*
X40013223Y44093223D01*
X39996747Y44111401D01*
X39982132Y44131107D01*
X39969520Y44152150D01*
X39959030Y44174329D01*
X39950765Y44197428D01*
X39944804Y44221227D01*
X39941204Y44245495D01*
X39940000Y44269999D01*
X39940000Y44920001D01*
X39941204Y44944505D01*
X39944804Y44968773D01*
X39950765Y44992572D01*
X39959030Y45015671D01*
X39969520Y45037850D01*
X39982132Y45058893D01*
X39996747Y45078599D01*
X40013223Y45096777D01*
X40031401Y45113253D01*
X40051107Y45127868D01*
X40072150Y45140480D01*
X40094329Y45150970D01*
X40117428Y45159235D01*
X40141227Y45165196D01*
X40165495Y45168796D01*
X40189999Y45170000D01*
X41090001Y45170000D01*
X41114505Y45168796D01*
X41114505Y45168796D01*
G37*
D11*
X40640000Y44595000D03*
D10*
G36*
X41114505Y43118796D02*
G01*
X41138773Y43115196D01*
X41162572Y43109235D01*
X41185671Y43100970D01*
X41207850Y43090480D01*
X41228893Y43077868D01*
X41248599Y43063253D01*
X41266777Y43046777D01*
X41283253Y43028599D01*
X41297868Y43008893D01*
X41310480Y42987850D01*
X41320970Y42965671D01*
X41329235Y42942572D01*
X41335196Y42918773D01*
X41338796Y42894505D01*
X41340000Y42870001D01*
X41340000Y42219999D01*
X41338796Y42195495D01*
X41335196Y42171227D01*
X41329235Y42147428D01*
X41320970Y42124329D01*
X41310480Y42102150D01*
X41297868Y42081107D01*
X41283253Y42061401D01*
X41266777Y42043223D01*
X41248599Y42026747D01*
X41228893Y42012132D01*
X41207850Y41999520D01*
X41185671Y41989030D01*
X41162572Y41980765D01*
X41138773Y41974804D01*
X41114505Y41971204D01*
X41090001Y41970000D01*
X40189999Y41970000D01*
X40165495Y41971204D01*
X40141227Y41974804D01*
X40117428Y41980765D01*
X40094329Y41989030D01*
X40072150Y41999520D01*
X40051107Y42012132D01*
X40031401Y42026747D01*
X40013223Y42043223D01*
X39996747Y42061401D01*
X39982132Y42081107D01*
X39969520Y42102150D01*
X39959030Y42124329D01*
X39950765Y42147428D01*
X39944804Y42171227D01*
X39941204Y42195495D01*
X39940000Y42219999D01*
X39940000Y42870001D01*
X39941204Y42894505D01*
X39944804Y42918773D01*
X39950765Y42942572D01*
X39959030Y42965671D01*
X39969520Y42987850D01*
X39982132Y43008893D01*
X39996747Y43028599D01*
X40013223Y43046777D01*
X40031401Y43063253D01*
X40051107Y43077868D01*
X40072150Y43090480D01*
X40094329Y43100970D01*
X40117428Y43109235D01*
X40141227Y43115196D01*
X40165495Y43118796D01*
X40189999Y43120000D01*
X41090001Y43120000D01*
X41114505Y43118796D01*
X41114505Y43118796D01*
G37*
D11*
X40640000Y42545000D03*
D10*
G36*
X10634505Y9708796D02*
G01*
X10658773Y9705196D01*
X10682572Y9699235D01*
X10705671Y9690970D01*
X10727850Y9680480D01*
X10748893Y9667868D01*
X10768599Y9653253D01*
X10786777Y9636777D01*
X10803253Y9618599D01*
X10817868Y9598893D01*
X10830480Y9577850D01*
X10840970Y9555671D01*
X10849235Y9532572D01*
X10855196Y9508773D01*
X10858796Y9484505D01*
X10860000Y9460001D01*
X10860000Y8809999D01*
X10858796Y8785495D01*
X10855196Y8761227D01*
X10849235Y8737428D01*
X10840970Y8714329D01*
X10830480Y8692150D01*
X10817868Y8671107D01*
X10803253Y8651401D01*
X10786777Y8633223D01*
X10768599Y8616747D01*
X10748893Y8602132D01*
X10727850Y8589520D01*
X10705671Y8579030D01*
X10682572Y8570765D01*
X10658773Y8564804D01*
X10634505Y8561204D01*
X10610001Y8560000D01*
X9709999Y8560000D01*
X9685495Y8561204D01*
X9661227Y8564804D01*
X9637428Y8570765D01*
X9614329Y8579030D01*
X9592150Y8589520D01*
X9571107Y8602132D01*
X9551401Y8616747D01*
X9533223Y8633223D01*
X9516747Y8651401D01*
X9502132Y8671107D01*
X9489520Y8692150D01*
X9479030Y8714329D01*
X9470765Y8737428D01*
X9464804Y8761227D01*
X9461204Y8785495D01*
X9460000Y8809999D01*
X9460000Y9460001D01*
X9461204Y9484505D01*
X9464804Y9508773D01*
X9470765Y9532572D01*
X9479030Y9555671D01*
X9489520Y9577850D01*
X9502132Y9598893D01*
X9516747Y9618599D01*
X9533223Y9636777D01*
X9551401Y9653253D01*
X9571107Y9667868D01*
X9592150Y9680480D01*
X9614329Y9690970D01*
X9637428Y9699235D01*
X9661227Y9705196D01*
X9685495Y9708796D01*
X9709999Y9710000D01*
X10610001Y9710000D01*
X10634505Y9708796D01*
X10634505Y9708796D01*
G37*
D11*
X10160000Y9135000D03*
D10*
G36*
X10634505Y11758796D02*
G01*
X10658773Y11755196D01*
X10682572Y11749235D01*
X10705671Y11740970D01*
X10727850Y11730480D01*
X10748893Y11717868D01*
X10768599Y11703253D01*
X10786777Y11686777D01*
X10803253Y11668599D01*
X10817868Y11648893D01*
X10830480Y11627850D01*
X10840970Y11605671D01*
X10849235Y11582572D01*
X10855196Y11558773D01*
X10858796Y11534505D01*
X10860000Y11510001D01*
X10860000Y10859999D01*
X10858796Y10835495D01*
X10855196Y10811227D01*
X10849235Y10787428D01*
X10840970Y10764329D01*
X10830480Y10742150D01*
X10817868Y10721107D01*
X10803253Y10701401D01*
X10786777Y10683223D01*
X10768599Y10666747D01*
X10748893Y10652132D01*
X10727850Y10639520D01*
X10705671Y10629030D01*
X10682572Y10620765D01*
X10658773Y10614804D01*
X10634505Y10611204D01*
X10610001Y10610000D01*
X9709999Y10610000D01*
X9685495Y10611204D01*
X9661227Y10614804D01*
X9637428Y10620765D01*
X9614329Y10629030D01*
X9592150Y10639520D01*
X9571107Y10652132D01*
X9551401Y10666747D01*
X9533223Y10683223D01*
X9516747Y10701401D01*
X9502132Y10721107D01*
X9489520Y10742150D01*
X9479030Y10764329D01*
X9470765Y10787428D01*
X9464804Y10811227D01*
X9461204Y10835495D01*
X9460000Y10859999D01*
X9460000Y11510001D01*
X9461204Y11534505D01*
X9464804Y11558773D01*
X9470765Y11582572D01*
X9479030Y11605671D01*
X9489520Y11627850D01*
X9502132Y11648893D01*
X9516747Y11668599D01*
X9533223Y11686777D01*
X9551401Y11703253D01*
X9571107Y11717868D01*
X9592150Y11730480D01*
X9614329Y11740970D01*
X9637428Y11749235D01*
X9661227Y11755196D01*
X9685495Y11758796D01*
X9709999Y11760000D01*
X10610001Y11760000D01*
X10634505Y11758796D01*
X10634505Y11758796D01*
G37*
D11*
X10160000Y11185000D03*
D10*
G36*
X10634505Y28368796D02*
G01*
X10658773Y28365196D01*
X10682572Y28359235D01*
X10705671Y28350970D01*
X10727850Y28340480D01*
X10748893Y28327868D01*
X10768599Y28313253D01*
X10786777Y28296777D01*
X10803253Y28278599D01*
X10817868Y28258893D01*
X10830480Y28237850D01*
X10840970Y28215671D01*
X10849235Y28192572D01*
X10855196Y28168773D01*
X10858796Y28144505D01*
X10860000Y28120001D01*
X10860000Y27469999D01*
X10858796Y27445495D01*
X10855196Y27421227D01*
X10849235Y27397428D01*
X10840970Y27374329D01*
X10830480Y27352150D01*
X10817868Y27331107D01*
X10803253Y27311401D01*
X10786777Y27293223D01*
X10768599Y27276747D01*
X10748893Y27262132D01*
X10727850Y27249520D01*
X10705671Y27239030D01*
X10682572Y27230765D01*
X10658773Y27224804D01*
X10634505Y27221204D01*
X10610001Y27220000D01*
X9709999Y27220000D01*
X9685495Y27221204D01*
X9661227Y27224804D01*
X9637428Y27230765D01*
X9614329Y27239030D01*
X9592150Y27249520D01*
X9571107Y27262132D01*
X9551401Y27276747D01*
X9533223Y27293223D01*
X9516747Y27311401D01*
X9502132Y27331107D01*
X9489520Y27352150D01*
X9479030Y27374329D01*
X9470765Y27397428D01*
X9464804Y27421227D01*
X9461204Y27445495D01*
X9460000Y27469999D01*
X9460000Y28120001D01*
X9461204Y28144505D01*
X9464804Y28168773D01*
X9470765Y28192572D01*
X9479030Y28215671D01*
X9489520Y28237850D01*
X9502132Y28258893D01*
X9516747Y28278599D01*
X9533223Y28296777D01*
X9551401Y28313253D01*
X9571107Y28327868D01*
X9592150Y28340480D01*
X9614329Y28350970D01*
X9637428Y28359235D01*
X9661227Y28365196D01*
X9685495Y28368796D01*
X9709999Y28370000D01*
X10610001Y28370000D01*
X10634505Y28368796D01*
X10634505Y28368796D01*
G37*
D11*
X10160000Y27795000D03*
D10*
G36*
X10634505Y30418796D02*
G01*
X10658773Y30415196D01*
X10682572Y30409235D01*
X10705671Y30400970D01*
X10727850Y30390480D01*
X10748893Y30377868D01*
X10768599Y30363253D01*
X10786777Y30346777D01*
X10803253Y30328599D01*
X10817868Y30308893D01*
X10830480Y30287850D01*
X10840970Y30265671D01*
X10849235Y30242572D01*
X10855196Y30218773D01*
X10858796Y30194505D01*
X10860000Y30170001D01*
X10860000Y29519999D01*
X10858796Y29495495D01*
X10855196Y29471227D01*
X10849235Y29447428D01*
X10840970Y29424329D01*
X10830480Y29402150D01*
X10817868Y29381107D01*
X10803253Y29361401D01*
X10786777Y29343223D01*
X10768599Y29326747D01*
X10748893Y29312132D01*
X10727850Y29299520D01*
X10705671Y29289030D01*
X10682572Y29280765D01*
X10658773Y29274804D01*
X10634505Y29271204D01*
X10610001Y29270000D01*
X9709999Y29270000D01*
X9685495Y29271204D01*
X9661227Y29274804D01*
X9637428Y29280765D01*
X9614329Y29289030D01*
X9592150Y29299520D01*
X9571107Y29312132D01*
X9551401Y29326747D01*
X9533223Y29343223D01*
X9516747Y29361401D01*
X9502132Y29381107D01*
X9489520Y29402150D01*
X9479030Y29424329D01*
X9470765Y29447428D01*
X9464804Y29471227D01*
X9461204Y29495495D01*
X9460000Y29519999D01*
X9460000Y30170001D01*
X9461204Y30194505D01*
X9464804Y30218773D01*
X9470765Y30242572D01*
X9479030Y30265671D01*
X9489520Y30287850D01*
X9502132Y30308893D01*
X9516747Y30328599D01*
X9533223Y30346777D01*
X9551401Y30363253D01*
X9571107Y30377868D01*
X9592150Y30390480D01*
X9614329Y30400970D01*
X9637428Y30409235D01*
X9661227Y30415196D01*
X9685495Y30418796D01*
X9709999Y30420000D01*
X10610001Y30420000D01*
X10634505Y30418796D01*
X10634505Y30418796D01*
G37*
D11*
X10160000Y29845000D03*
D10*
G36*
X9999505Y50883796D02*
G01*
X10023773Y50880196D01*
X10047572Y50874235D01*
X10070671Y50865970D01*
X10092850Y50855480D01*
X10113893Y50842868D01*
X10133599Y50828253D01*
X10151777Y50811777D01*
X10168253Y50793599D01*
X10182868Y50773893D01*
X10195480Y50752850D01*
X10205970Y50730671D01*
X10214235Y50707572D01*
X10220196Y50683773D01*
X10223796Y50659505D01*
X10225000Y50635001D01*
X10225000Y49984999D01*
X10223796Y49960495D01*
X10220196Y49936227D01*
X10214235Y49912428D01*
X10205970Y49889329D01*
X10195480Y49867150D01*
X10182868Y49846107D01*
X10168253Y49826401D01*
X10151777Y49808223D01*
X10133599Y49791747D01*
X10113893Y49777132D01*
X10092850Y49764520D01*
X10070671Y49754030D01*
X10047572Y49745765D01*
X10023773Y49739804D01*
X9999505Y49736204D01*
X9975001Y49735000D01*
X9074999Y49735000D01*
X9050495Y49736204D01*
X9026227Y49739804D01*
X9002428Y49745765D01*
X8979329Y49754030D01*
X8957150Y49764520D01*
X8936107Y49777132D01*
X8916401Y49791747D01*
X8898223Y49808223D01*
X8881747Y49826401D01*
X8867132Y49846107D01*
X8854520Y49867150D01*
X8844030Y49889329D01*
X8835765Y49912428D01*
X8829804Y49936227D01*
X8826204Y49960495D01*
X8825000Y49984999D01*
X8825000Y50635001D01*
X8826204Y50659505D01*
X8829804Y50683773D01*
X8835765Y50707572D01*
X8844030Y50730671D01*
X8854520Y50752850D01*
X8867132Y50773893D01*
X8881747Y50793599D01*
X8898223Y50811777D01*
X8916401Y50828253D01*
X8936107Y50842868D01*
X8957150Y50855480D01*
X8979329Y50865970D01*
X9002428Y50874235D01*
X9026227Y50880196D01*
X9050495Y50883796D01*
X9074999Y50885000D01*
X9975001Y50885000D01*
X9999505Y50883796D01*
X9999505Y50883796D01*
G37*
D11*
X9525000Y50310000D03*
D10*
G36*
X9999505Y48833796D02*
G01*
X10023773Y48830196D01*
X10047572Y48824235D01*
X10070671Y48815970D01*
X10092850Y48805480D01*
X10113893Y48792868D01*
X10133599Y48778253D01*
X10151777Y48761777D01*
X10168253Y48743599D01*
X10182868Y48723893D01*
X10195480Y48702850D01*
X10205970Y48680671D01*
X10214235Y48657572D01*
X10220196Y48633773D01*
X10223796Y48609505D01*
X10225000Y48585001D01*
X10225000Y47934999D01*
X10223796Y47910495D01*
X10220196Y47886227D01*
X10214235Y47862428D01*
X10205970Y47839329D01*
X10195480Y47817150D01*
X10182868Y47796107D01*
X10168253Y47776401D01*
X10151777Y47758223D01*
X10133599Y47741747D01*
X10113893Y47727132D01*
X10092850Y47714520D01*
X10070671Y47704030D01*
X10047572Y47695765D01*
X10023773Y47689804D01*
X9999505Y47686204D01*
X9975001Y47685000D01*
X9074999Y47685000D01*
X9050495Y47686204D01*
X9026227Y47689804D01*
X9002428Y47695765D01*
X8979329Y47704030D01*
X8957150Y47714520D01*
X8936107Y47727132D01*
X8916401Y47741747D01*
X8898223Y47758223D01*
X8881747Y47776401D01*
X8867132Y47796107D01*
X8854520Y47817150D01*
X8844030Y47839329D01*
X8835765Y47862428D01*
X8829804Y47886227D01*
X8826204Y47910495D01*
X8825000Y47934999D01*
X8825000Y48585001D01*
X8826204Y48609505D01*
X8829804Y48633773D01*
X8835765Y48657572D01*
X8844030Y48680671D01*
X8854520Y48702850D01*
X8867132Y48723893D01*
X8881747Y48743599D01*
X8898223Y48761777D01*
X8916401Y48778253D01*
X8936107Y48792868D01*
X8957150Y48805480D01*
X8979329Y48815970D01*
X9002428Y48824235D01*
X9026227Y48830196D01*
X9050495Y48833796D01*
X9074999Y48835000D01*
X9975001Y48835000D01*
X9999505Y48833796D01*
X9999505Y48833796D01*
G37*
D11*
X9525000Y48260000D03*
D10*
G36*
X24604505Y59873796D02*
G01*
X24628773Y59870196D01*
X24652572Y59864235D01*
X24675671Y59855970D01*
X24697850Y59845480D01*
X24718893Y59832868D01*
X24738599Y59818253D01*
X24756777Y59801777D01*
X24773253Y59783599D01*
X24787868Y59763893D01*
X24800480Y59742850D01*
X24810970Y59720671D01*
X24819235Y59697572D01*
X24825196Y59673773D01*
X24828796Y59649505D01*
X24830000Y59625001D01*
X24830000Y58974999D01*
X24828796Y58950495D01*
X24825196Y58926227D01*
X24819235Y58902428D01*
X24810970Y58879329D01*
X24800480Y58857150D01*
X24787868Y58836107D01*
X24773253Y58816401D01*
X24756777Y58798223D01*
X24738599Y58781747D01*
X24718893Y58767132D01*
X24697850Y58754520D01*
X24675671Y58744030D01*
X24652572Y58735765D01*
X24628773Y58729804D01*
X24604505Y58726204D01*
X24580001Y58725000D01*
X23679999Y58725000D01*
X23655495Y58726204D01*
X23631227Y58729804D01*
X23607428Y58735765D01*
X23584329Y58744030D01*
X23562150Y58754520D01*
X23541107Y58767132D01*
X23521401Y58781747D01*
X23503223Y58798223D01*
X23486747Y58816401D01*
X23472132Y58836107D01*
X23459520Y58857150D01*
X23449030Y58879329D01*
X23440765Y58902428D01*
X23434804Y58926227D01*
X23431204Y58950495D01*
X23430000Y58974999D01*
X23430000Y59625001D01*
X23431204Y59649505D01*
X23434804Y59673773D01*
X23440765Y59697572D01*
X23449030Y59720671D01*
X23459520Y59742850D01*
X23472132Y59763893D01*
X23486747Y59783599D01*
X23503223Y59801777D01*
X23521401Y59818253D01*
X23541107Y59832868D01*
X23562150Y59845480D01*
X23584329Y59855970D01*
X23607428Y59864235D01*
X23631227Y59870196D01*
X23655495Y59873796D01*
X23679999Y59875000D01*
X24580001Y59875000D01*
X24604505Y59873796D01*
X24604505Y59873796D01*
G37*
D11*
X24130000Y59300000D03*
D10*
G36*
X24604505Y61923796D02*
G01*
X24628773Y61920196D01*
X24652572Y61914235D01*
X24675671Y61905970D01*
X24697850Y61895480D01*
X24718893Y61882868D01*
X24738599Y61868253D01*
X24756777Y61851777D01*
X24773253Y61833599D01*
X24787868Y61813893D01*
X24800480Y61792850D01*
X24810970Y61770671D01*
X24819235Y61747572D01*
X24825196Y61723773D01*
X24828796Y61699505D01*
X24830000Y61675001D01*
X24830000Y61024999D01*
X24828796Y61000495D01*
X24825196Y60976227D01*
X24819235Y60952428D01*
X24810970Y60929329D01*
X24800480Y60907150D01*
X24787868Y60886107D01*
X24773253Y60866401D01*
X24756777Y60848223D01*
X24738599Y60831747D01*
X24718893Y60817132D01*
X24697850Y60804520D01*
X24675671Y60794030D01*
X24652572Y60785765D01*
X24628773Y60779804D01*
X24604505Y60776204D01*
X24580001Y60775000D01*
X23679999Y60775000D01*
X23655495Y60776204D01*
X23631227Y60779804D01*
X23607428Y60785765D01*
X23584329Y60794030D01*
X23562150Y60804520D01*
X23541107Y60817132D01*
X23521401Y60831747D01*
X23503223Y60848223D01*
X23486747Y60866401D01*
X23472132Y60886107D01*
X23459520Y60907150D01*
X23449030Y60929329D01*
X23440765Y60952428D01*
X23434804Y60976227D01*
X23431204Y61000495D01*
X23430000Y61024999D01*
X23430000Y61675001D01*
X23431204Y61699505D01*
X23434804Y61723773D01*
X23440765Y61747572D01*
X23449030Y61770671D01*
X23459520Y61792850D01*
X23472132Y61813893D01*
X23486747Y61833599D01*
X23503223Y61851777D01*
X23521401Y61868253D01*
X23541107Y61882868D01*
X23562150Y61895480D01*
X23584329Y61905970D01*
X23607428Y61914235D01*
X23631227Y61920196D01*
X23655495Y61923796D01*
X23679999Y61925000D01*
X24580001Y61925000D01*
X24604505Y61923796D01*
X24604505Y61923796D01*
G37*
D11*
X24130000Y61350000D03*
D10*
G36*
X27144505Y59873796D02*
G01*
X27168773Y59870196D01*
X27192572Y59864235D01*
X27215671Y59855970D01*
X27237850Y59845480D01*
X27258893Y59832868D01*
X27278599Y59818253D01*
X27296777Y59801777D01*
X27313253Y59783599D01*
X27327868Y59763893D01*
X27340480Y59742850D01*
X27350970Y59720671D01*
X27359235Y59697572D01*
X27365196Y59673773D01*
X27368796Y59649505D01*
X27370000Y59625001D01*
X27370000Y58974999D01*
X27368796Y58950495D01*
X27365196Y58926227D01*
X27359235Y58902428D01*
X27350970Y58879329D01*
X27340480Y58857150D01*
X27327868Y58836107D01*
X27313253Y58816401D01*
X27296777Y58798223D01*
X27278599Y58781747D01*
X27258893Y58767132D01*
X27237850Y58754520D01*
X27215671Y58744030D01*
X27192572Y58735765D01*
X27168773Y58729804D01*
X27144505Y58726204D01*
X27120001Y58725000D01*
X26219999Y58725000D01*
X26195495Y58726204D01*
X26171227Y58729804D01*
X26147428Y58735765D01*
X26124329Y58744030D01*
X26102150Y58754520D01*
X26081107Y58767132D01*
X26061401Y58781747D01*
X26043223Y58798223D01*
X26026747Y58816401D01*
X26012132Y58836107D01*
X25999520Y58857150D01*
X25989030Y58879329D01*
X25980765Y58902428D01*
X25974804Y58926227D01*
X25971204Y58950495D01*
X25970000Y58974999D01*
X25970000Y59625001D01*
X25971204Y59649505D01*
X25974804Y59673773D01*
X25980765Y59697572D01*
X25989030Y59720671D01*
X25999520Y59742850D01*
X26012132Y59763893D01*
X26026747Y59783599D01*
X26043223Y59801777D01*
X26061401Y59818253D01*
X26081107Y59832868D01*
X26102150Y59845480D01*
X26124329Y59855970D01*
X26147428Y59864235D01*
X26171227Y59870196D01*
X26195495Y59873796D01*
X26219999Y59875000D01*
X27120001Y59875000D01*
X27144505Y59873796D01*
X27144505Y59873796D01*
G37*
D11*
X26670000Y59300000D03*
D10*
G36*
X27144505Y61923796D02*
G01*
X27168773Y61920196D01*
X27192572Y61914235D01*
X27215671Y61905970D01*
X27237850Y61895480D01*
X27258893Y61882868D01*
X27278599Y61868253D01*
X27296777Y61851777D01*
X27313253Y61833599D01*
X27327868Y61813893D01*
X27340480Y61792850D01*
X27350970Y61770671D01*
X27359235Y61747572D01*
X27365196Y61723773D01*
X27368796Y61699505D01*
X27370000Y61675001D01*
X27370000Y61024999D01*
X27368796Y61000495D01*
X27365196Y60976227D01*
X27359235Y60952428D01*
X27350970Y60929329D01*
X27340480Y60907150D01*
X27327868Y60886107D01*
X27313253Y60866401D01*
X27296777Y60848223D01*
X27278599Y60831747D01*
X27258893Y60817132D01*
X27237850Y60804520D01*
X27215671Y60794030D01*
X27192572Y60785765D01*
X27168773Y60779804D01*
X27144505Y60776204D01*
X27120001Y60775000D01*
X26219999Y60775000D01*
X26195495Y60776204D01*
X26171227Y60779804D01*
X26147428Y60785765D01*
X26124329Y60794030D01*
X26102150Y60804520D01*
X26081107Y60817132D01*
X26061401Y60831747D01*
X26043223Y60848223D01*
X26026747Y60866401D01*
X26012132Y60886107D01*
X25999520Y60907150D01*
X25989030Y60929329D01*
X25980765Y60952428D01*
X25974804Y60976227D01*
X25971204Y61000495D01*
X25970000Y61024999D01*
X25970000Y61675001D01*
X25971204Y61699505D01*
X25974804Y61723773D01*
X25980765Y61747572D01*
X25989030Y61770671D01*
X25999520Y61792850D01*
X26012132Y61813893D01*
X26026747Y61833599D01*
X26043223Y61851777D01*
X26061401Y61868253D01*
X26081107Y61882868D01*
X26102150Y61895480D01*
X26124329Y61905970D01*
X26147428Y61914235D01*
X26171227Y61920196D01*
X26195495Y61923796D01*
X26219999Y61925000D01*
X27120001Y61925000D01*
X27144505Y61923796D01*
X27144505Y61923796D01*
G37*
D11*
X26670000Y61350000D03*
D10*
G36*
X27144505Y41458796D02*
G01*
X27168773Y41455196D01*
X27192572Y41449235D01*
X27215671Y41440970D01*
X27237850Y41430480D01*
X27258893Y41417868D01*
X27278599Y41403253D01*
X27296777Y41386777D01*
X27313253Y41368599D01*
X27327868Y41348893D01*
X27340480Y41327850D01*
X27350970Y41305671D01*
X27359235Y41282572D01*
X27365196Y41258773D01*
X27368796Y41234505D01*
X27370000Y41210001D01*
X27370000Y40559999D01*
X27368796Y40535495D01*
X27365196Y40511227D01*
X27359235Y40487428D01*
X27350970Y40464329D01*
X27340480Y40442150D01*
X27327868Y40421107D01*
X27313253Y40401401D01*
X27296777Y40383223D01*
X27278599Y40366747D01*
X27258893Y40352132D01*
X27237850Y40339520D01*
X27215671Y40329030D01*
X27192572Y40320765D01*
X27168773Y40314804D01*
X27144505Y40311204D01*
X27120001Y40310000D01*
X26219999Y40310000D01*
X26195495Y40311204D01*
X26171227Y40314804D01*
X26147428Y40320765D01*
X26124329Y40329030D01*
X26102150Y40339520D01*
X26081107Y40352132D01*
X26061401Y40366747D01*
X26043223Y40383223D01*
X26026747Y40401401D01*
X26012132Y40421107D01*
X25999520Y40442150D01*
X25989030Y40464329D01*
X25980765Y40487428D01*
X25974804Y40511227D01*
X25971204Y40535495D01*
X25970000Y40559999D01*
X25970000Y41210001D01*
X25971204Y41234505D01*
X25974804Y41258773D01*
X25980765Y41282572D01*
X25989030Y41305671D01*
X25999520Y41327850D01*
X26012132Y41348893D01*
X26026747Y41368599D01*
X26043223Y41386777D01*
X26061401Y41403253D01*
X26081107Y41417868D01*
X26102150Y41430480D01*
X26124329Y41440970D01*
X26147428Y41449235D01*
X26171227Y41455196D01*
X26195495Y41458796D01*
X26219999Y41460000D01*
X27120001Y41460000D01*
X27144505Y41458796D01*
X27144505Y41458796D01*
G37*
D11*
X26670000Y40885000D03*
D10*
G36*
X27144505Y43508796D02*
G01*
X27168773Y43505196D01*
X27192572Y43499235D01*
X27215671Y43490970D01*
X27237850Y43480480D01*
X27258893Y43467868D01*
X27278599Y43453253D01*
X27296777Y43436777D01*
X27313253Y43418599D01*
X27327868Y43398893D01*
X27340480Y43377850D01*
X27350970Y43355671D01*
X27359235Y43332572D01*
X27365196Y43308773D01*
X27368796Y43284505D01*
X27370000Y43260001D01*
X27370000Y42609999D01*
X27368796Y42585495D01*
X27365196Y42561227D01*
X27359235Y42537428D01*
X27350970Y42514329D01*
X27340480Y42492150D01*
X27327868Y42471107D01*
X27313253Y42451401D01*
X27296777Y42433223D01*
X27278599Y42416747D01*
X27258893Y42402132D01*
X27237850Y42389520D01*
X27215671Y42379030D01*
X27192572Y42370765D01*
X27168773Y42364804D01*
X27144505Y42361204D01*
X27120001Y42360000D01*
X26219999Y42360000D01*
X26195495Y42361204D01*
X26171227Y42364804D01*
X26147428Y42370765D01*
X26124329Y42379030D01*
X26102150Y42389520D01*
X26081107Y42402132D01*
X26061401Y42416747D01*
X26043223Y42433223D01*
X26026747Y42451401D01*
X26012132Y42471107D01*
X25999520Y42492150D01*
X25989030Y42514329D01*
X25980765Y42537428D01*
X25974804Y42561227D01*
X25971204Y42585495D01*
X25970000Y42609999D01*
X25970000Y43260001D01*
X25971204Y43284505D01*
X25974804Y43308773D01*
X25980765Y43332572D01*
X25989030Y43355671D01*
X25999520Y43377850D01*
X26012132Y43398893D01*
X26026747Y43418599D01*
X26043223Y43436777D01*
X26061401Y43453253D01*
X26081107Y43467868D01*
X26102150Y43480480D01*
X26124329Y43490970D01*
X26147428Y43499235D01*
X26171227Y43505196D01*
X26195495Y43508796D01*
X26219999Y43510000D01*
X27120001Y43510000D01*
X27144505Y43508796D01*
X27144505Y43508796D01*
G37*
D11*
X26670000Y42935000D03*
D10*
G36*
X24604505Y13418796D02*
G01*
X24628773Y13415196D01*
X24652572Y13409235D01*
X24675671Y13400970D01*
X24697850Y13390480D01*
X24718893Y13377868D01*
X24738599Y13363253D01*
X24756777Y13346777D01*
X24773253Y13328599D01*
X24787868Y13308893D01*
X24800480Y13287850D01*
X24810970Y13265671D01*
X24819235Y13242572D01*
X24825196Y13218773D01*
X24828796Y13194505D01*
X24830000Y13170001D01*
X24830000Y12519999D01*
X24828796Y12495495D01*
X24825196Y12471227D01*
X24819235Y12447428D01*
X24810970Y12424329D01*
X24800480Y12402150D01*
X24787868Y12381107D01*
X24773253Y12361401D01*
X24756777Y12343223D01*
X24738599Y12326747D01*
X24718893Y12312132D01*
X24697850Y12299520D01*
X24675671Y12289030D01*
X24652572Y12280765D01*
X24628773Y12274804D01*
X24604505Y12271204D01*
X24580001Y12270000D01*
X23679999Y12270000D01*
X23655495Y12271204D01*
X23631227Y12274804D01*
X23607428Y12280765D01*
X23584329Y12289030D01*
X23562150Y12299520D01*
X23541107Y12312132D01*
X23521401Y12326747D01*
X23503223Y12343223D01*
X23486747Y12361401D01*
X23472132Y12381107D01*
X23459520Y12402150D01*
X23449030Y12424329D01*
X23440765Y12447428D01*
X23434804Y12471227D01*
X23431204Y12495495D01*
X23430000Y12519999D01*
X23430000Y13170001D01*
X23431204Y13194505D01*
X23434804Y13218773D01*
X23440765Y13242572D01*
X23449030Y13265671D01*
X23459520Y13287850D01*
X23472132Y13308893D01*
X23486747Y13328599D01*
X23503223Y13346777D01*
X23521401Y13363253D01*
X23541107Y13377868D01*
X23562150Y13390480D01*
X23584329Y13400970D01*
X23607428Y13409235D01*
X23631227Y13415196D01*
X23655495Y13418796D01*
X23679999Y13420000D01*
X24580001Y13420000D01*
X24604505Y13418796D01*
X24604505Y13418796D01*
G37*
D11*
X24130000Y12845000D03*
D10*
G36*
X24604505Y11368796D02*
G01*
X24628773Y11365196D01*
X24652572Y11359235D01*
X24675671Y11350970D01*
X24697850Y11340480D01*
X24718893Y11327868D01*
X24738599Y11313253D01*
X24756777Y11296777D01*
X24773253Y11278599D01*
X24787868Y11258893D01*
X24800480Y11237850D01*
X24810970Y11215671D01*
X24819235Y11192572D01*
X24825196Y11168773D01*
X24828796Y11144505D01*
X24830000Y11120001D01*
X24830000Y10469999D01*
X24828796Y10445495D01*
X24825196Y10421227D01*
X24819235Y10397428D01*
X24810970Y10374329D01*
X24800480Y10352150D01*
X24787868Y10331107D01*
X24773253Y10311401D01*
X24756777Y10293223D01*
X24738599Y10276747D01*
X24718893Y10262132D01*
X24697850Y10249520D01*
X24675671Y10239030D01*
X24652572Y10230765D01*
X24628773Y10224804D01*
X24604505Y10221204D01*
X24580001Y10220000D01*
X23679999Y10220000D01*
X23655495Y10221204D01*
X23631227Y10224804D01*
X23607428Y10230765D01*
X23584329Y10239030D01*
X23562150Y10249520D01*
X23541107Y10262132D01*
X23521401Y10276747D01*
X23503223Y10293223D01*
X23486747Y10311401D01*
X23472132Y10331107D01*
X23459520Y10352150D01*
X23449030Y10374329D01*
X23440765Y10397428D01*
X23434804Y10421227D01*
X23431204Y10445495D01*
X23430000Y10469999D01*
X23430000Y11120001D01*
X23431204Y11144505D01*
X23434804Y11168773D01*
X23440765Y11192572D01*
X23449030Y11215671D01*
X23459520Y11237850D01*
X23472132Y11258893D01*
X23486747Y11278599D01*
X23503223Y11296777D01*
X23521401Y11313253D01*
X23541107Y11327868D01*
X23562150Y11340480D01*
X23584329Y11350970D01*
X23607428Y11359235D01*
X23631227Y11365196D01*
X23655495Y11368796D01*
X23679999Y11370000D01*
X24580001Y11370000D01*
X24604505Y11368796D01*
X24604505Y11368796D01*
G37*
D11*
X24130000Y10795000D03*
D10*
G36*
X24604505Y49858796D02*
G01*
X24628773Y49855196D01*
X24652572Y49849235D01*
X24675671Y49840970D01*
X24697850Y49830480D01*
X24718893Y49817868D01*
X24738599Y49803253D01*
X24756777Y49786777D01*
X24773253Y49768599D01*
X24787868Y49748893D01*
X24800480Y49727850D01*
X24810970Y49705671D01*
X24819235Y49682572D01*
X24825196Y49658773D01*
X24828796Y49634505D01*
X24830000Y49610001D01*
X24830000Y48959999D01*
X24828796Y48935495D01*
X24825196Y48911227D01*
X24819235Y48887428D01*
X24810970Y48864329D01*
X24800480Y48842150D01*
X24787868Y48821107D01*
X24773253Y48801401D01*
X24756777Y48783223D01*
X24738599Y48766747D01*
X24718893Y48752132D01*
X24697850Y48739520D01*
X24675671Y48729030D01*
X24652572Y48720765D01*
X24628773Y48714804D01*
X24604505Y48711204D01*
X24580001Y48710000D01*
X23679999Y48710000D01*
X23655495Y48711204D01*
X23631227Y48714804D01*
X23607428Y48720765D01*
X23584329Y48729030D01*
X23562150Y48739520D01*
X23541107Y48752132D01*
X23521401Y48766747D01*
X23503223Y48783223D01*
X23486747Y48801401D01*
X23472132Y48821107D01*
X23459520Y48842150D01*
X23449030Y48864329D01*
X23440765Y48887428D01*
X23434804Y48911227D01*
X23431204Y48935495D01*
X23430000Y48959999D01*
X23430000Y49610001D01*
X23431204Y49634505D01*
X23434804Y49658773D01*
X23440765Y49682572D01*
X23449030Y49705671D01*
X23459520Y49727850D01*
X23472132Y49748893D01*
X23486747Y49768599D01*
X23503223Y49786777D01*
X23521401Y49803253D01*
X23541107Y49817868D01*
X23562150Y49830480D01*
X23584329Y49840970D01*
X23607428Y49849235D01*
X23631227Y49855196D01*
X23655495Y49858796D01*
X23679999Y49860000D01*
X24580001Y49860000D01*
X24604505Y49858796D01*
X24604505Y49858796D01*
G37*
D11*
X24130000Y49285000D03*
D10*
G36*
X24604505Y47808796D02*
G01*
X24628773Y47805196D01*
X24652572Y47799235D01*
X24675671Y47790970D01*
X24697850Y47780480D01*
X24718893Y47767868D01*
X24738599Y47753253D01*
X24756777Y47736777D01*
X24773253Y47718599D01*
X24787868Y47698893D01*
X24800480Y47677850D01*
X24810970Y47655671D01*
X24819235Y47632572D01*
X24825196Y47608773D01*
X24828796Y47584505D01*
X24830000Y47560001D01*
X24830000Y46909999D01*
X24828796Y46885495D01*
X24825196Y46861227D01*
X24819235Y46837428D01*
X24810970Y46814329D01*
X24800480Y46792150D01*
X24787868Y46771107D01*
X24773253Y46751401D01*
X24756777Y46733223D01*
X24738599Y46716747D01*
X24718893Y46702132D01*
X24697850Y46689520D01*
X24675671Y46679030D01*
X24652572Y46670765D01*
X24628773Y46664804D01*
X24604505Y46661204D01*
X24580001Y46660000D01*
X23679999Y46660000D01*
X23655495Y46661204D01*
X23631227Y46664804D01*
X23607428Y46670765D01*
X23584329Y46679030D01*
X23562150Y46689520D01*
X23541107Y46702132D01*
X23521401Y46716747D01*
X23503223Y46733223D01*
X23486747Y46751401D01*
X23472132Y46771107D01*
X23459520Y46792150D01*
X23449030Y46814329D01*
X23440765Y46837428D01*
X23434804Y46861227D01*
X23431204Y46885495D01*
X23430000Y46909999D01*
X23430000Y47560001D01*
X23431204Y47584505D01*
X23434804Y47608773D01*
X23440765Y47632572D01*
X23449030Y47655671D01*
X23459520Y47677850D01*
X23472132Y47698893D01*
X23486747Y47718599D01*
X23503223Y47736777D01*
X23521401Y47753253D01*
X23541107Y47767868D01*
X23562150Y47780480D01*
X23584329Y47790970D01*
X23607428Y47799235D01*
X23631227Y47805196D01*
X23655495Y47808796D01*
X23679999Y47810000D01*
X24580001Y47810000D01*
X24604505Y47808796D01*
X24604505Y47808796D01*
G37*
D11*
X24130000Y47235000D03*
D12*
X12445000Y29210000D03*
X12445000Y30480000D03*
X12445000Y31750000D03*
X12445000Y33020000D03*
X12445000Y34290000D03*
X12445000Y35560000D03*
X12445000Y36830000D03*
X12445000Y38100000D03*
X12445000Y39370000D03*
X12445000Y40640000D03*
X12445000Y41910000D03*
X12445000Y43180000D03*
X21845000Y43180000D03*
X21845000Y41910000D03*
X21845000Y40640000D03*
X21845000Y39370000D03*
X21845000Y38100000D03*
X21845000Y36830000D03*
X21845000Y35560000D03*
X21845000Y34290000D03*
X21845000Y33020000D03*
X21845000Y31750000D03*
X21845000Y30480000D03*
X21845000Y29210000D03*
X12445000Y10795000D03*
X12445000Y12065000D03*
X12445000Y13335000D03*
X12445000Y14605000D03*
X12445000Y15875000D03*
X12445000Y17145000D03*
X12445000Y18415000D03*
X12445000Y19685000D03*
X12445000Y20955000D03*
X12445000Y22225000D03*
X12445000Y23495000D03*
X12445000Y24765000D03*
X21845000Y24765000D03*
X21845000Y23495000D03*
X21845000Y22225000D03*
X21845000Y20955000D03*
X21845000Y19685000D03*
X21845000Y18415000D03*
X21845000Y17145000D03*
X21845000Y15875000D03*
X21845000Y14605000D03*
X21845000Y13335000D03*
X21845000Y12065000D03*
X21845000Y10795000D03*
X38355000Y43180000D03*
X38355000Y41910000D03*
X38355000Y40640000D03*
X38355000Y39370000D03*
X38355000Y38100000D03*
X38355000Y36830000D03*
X38355000Y35560000D03*
X38355000Y34290000D03*
X38355000Y33020000D03*
X38355000Y31750000D03*
X38355000Y30480000D03*
X38355000Y29210000D03*
X28955000Y29210000D03*
X28955000Y30480000D03*
X28955000Y31750000D03*
X28955000Y33020000D03*
X28955000Y34290000D03*
X28955000Y35560000D03*
X28955000Y36830000D03*
X28955000Y38100000D03*
X28955000Y39370000D03*
X28955000Y40640000D03*
X28955000Y41910000D03*
X28955000Y43180000D03*
X38355000Y61595000D03*
X38355000Y60325000D03*
X38355000Y59055000D03*
X38355000Y57785000D03*
X38355000Y56515000D03*
X38355000Y55245000D03*
X38355000Y53975000D03*
X38355000Y52705000D03*
X38355000Y51435000D03*
X38355000Y50165000D03*
X38355000Y48895000D03*
X38355000Y47625000D03*
X28955000Y47625000D03*
X28955000Y48895000D03*
X28955000Y50165000D03*
X28955000Y51435000D03*
X28955000Y52705000D03*
X28955000Y53975000D03*
X28955000Y55245000D03*
X28955000Y56515000D03*
X28955000Y57785000D03*
X28955000Y59055000D03*
X28955000Y60325000D03*
X28955000Y61595000D03*
D19*
X40005000Y29210000D03*
X24130000Y13970000D03*
X26670000Y57785000D03*
X40005000Y47625000D03*
X10795000Y24765000D03*
X20955000Y3810000D03*
X10795000Y61595000D03*
X40640000Y45720000D03*
X27305000Y29210000D03*
X27305000Y30480000D03*
X26670000Y39370000D03*
X23495000Y24765000D03*
X23495000Y23495000D03*
X40259000Y40640000D03*
X27305000Y12065000D03*
X27305000Y10795000D03*
X27305000Y47625000D03*
X19685000Y60325000D03*
X19685000Y61595000D03*
X24130000Y57785000D03*
X42545000Y58928000D03*
X10160000Y26670000D03*
X40005000Y10795000D03*
X11430000Y8890000D03*
X23495000Y43180000D03*
X23495000Y41910000D03*
X24130000Y33020000D03*
X26670000Y21590000D03*
X10160000Y51435000D03*
X9906000Y43180000D03*
X24130000Y50546000D03*
X27305000Y48895000D03*
X40640000Y20955000D03*
D20*
X19685000Y34290000D03*
X19685000Y36830000D03*
X19685000Y38100000D03*
X20320000Y40639994D03*
X19707859Y39392861D03*
X19685000Y35560000D03*
X20320000Y31750000D03*
X19685000Y33020000D03*
D19*
X32512000Y24130000D03*
X32512000Y26670000D03*
X38100000Y26670000D03*
X17272000Y46990000D03*
X18288000Y44450000D03*
X13208000Y45212000D03*
X27305000Y8890000D03*
X27305000Y4445000D03*
X17780000Y34544000D03*
X18288000Y46990000D03*
X17272000Y44450000D03*
X39116000Y26670000D03*
X33528000Y26670000D03*
X33528000Y24130000D03*
X17780000Y36576000D03*
X13208000Y46228000D03*
D20*
X31115000Y57150000D03*
X31115000Y54610000D03*
X30480000Y45085000D03*
X31115000Y45720000D03*
X30480000Y46355000D03*
X31115000Y48895000D03*
X31115000Y50800000D03*
X31115000Y53340000D03*
X31115000Y55880000D03*
X31115000Y58420000D03*
X31115000Y59690000D03*
X19685000Y59055000D03*
X19685000Y57785000D03*
X19685000Y55245000D03*
X19685000Y52705000D03*
X19685000Y50165000D03*
X26035000Y12065000D03*
X28575000Y4445000D03*
X26035000Y4445000D03*
X25908000Y10795000D03*
X19685000Y27305000D03*
X13335000Y26670000D03*
X31115000Y30480000D03*
X31115000Y29210000D03*
X31115000Y22225000D03*
X31115000Y20955000D03*
X31115000Y19685000D03*
X31115000Y18415000D03*
X31115000Y17145000D03*
X19685000Y13335000D03*
X19685000Y14605000D03*
X19685000Y24765000D03*
X19685000Y20320000D03*
X19685000Y22860000D03*
X22225000Y26035000D03*
X31115000Y15875000D03*
D21*
X38355000Y29210000D02*
X40005000Y29210000D01*
X23740000Y48895000D02*
X24130000Y49285000D01*
X21845000Y48895000D02*
X23740000Y48895000D01*
X10160000Y9135000D02*
X10160000Y8910000D01*
X26670000Y59075000D02*
X26670000Y57785000D01*
X38355000Y47625000D02*
X40005000Y47625000D01*
X12445000Y24765000D02*
X10795000Y24765000D01*
X22080000Y3810000D02*
X20955000Y3810000D01*
X12445000Y61595000D02*
X10795000Y61595000D01*
X24130000Y13315000D02*
X24130000Y12845000D01*
X24130000Y12845000D02*
X24130000Y13970000D01*
X23350000Y12065000D02*
X24130000Y12845000D01*
X21845000Y12065000D02*
X23350000Y12065000D01*
X40640000Y45720000D02*
X40640000Y45065000D01*
X26670000Y59300000D02*
X26915000Y59300000D01*
X27940000Y60325000D02*
X28955000Y60325000D01*
X26915000Y59300000D02*
X27940000Y60325000D01*
X40495000Y22225000D02*
X40640000Y22080000D01*
X38355000Y22225000D02*
X40495000Y22225000D01*
X28955000Y29210000D02*
X27305000Y29210000D01*
X27305000Y30480000D02*
X28955000Y30480000D01*
X26670000Y40885000D02*
X26670000Y39370000D01*
X27695000Y41910000D02*
X26670000Y40885000D01*
X28955000Y41910000D02*
X27695000Y41910000D01*
X21845000Y24765000D02*
X23495000Y24765000D01*
X21845000Y23495000D02*
X23495000Y23495000D01*
X38355000Y40640000D02*
X40259000Y40640000D01*
X27305000Y10795000D02*
X28955000Y10795000D01*
X28955000Y47625000D02*
X27305000Y47625000D01*
X21845000Y60325000D02*
X19685000Y60325000D01*
X19685000Y61595000D02*
X21845000Y61595000D01*
X24130000Y59300000D02*
X24130000Y57785000D01*
X42527000Y58910000D02*
X41275000Y58910000D01*
X42545000Y58928000D02*
X42527000Y58910000D01*
X10160000Y27325000D02*
X10160000Y26670000D01*
X38355000Y10795000D02*
X40005000Y10795000D01*
X11185000Y9135000D02*
X11430000Y8890000D01*
X10160000Y9135000D02*
X11185000Y9135000D01*
X23495000Y43180000D02*
X21845000Y43180000D01*
X21845000Y41910000D02*
X23495000Y41910000D01*
X28955000Y12065000D02*
X27305000Y12065000D01*
X24130000Y31505000D02*
X24130000Y33020000D01*
X26670000Y22470000D02*
X26670000Y21590000D01*
X26670000Y20338000D02*
X26670000Y21590000D01*
X9525000Y50800000D02*
X9525000Y50555000D01*
X10160000Y51435000D02*
X9525000Y50800000D01*
X9906000Y43180000D02*
X12445000Y43180000D01*
X24130000Y49285000D02*
X24130000Y50546000D01*
X28955000Y48895000D02*
X27305000Y48895000D01*
X40640000Y22080000D02*
X40640000Y20955000D01*
D22*
X21845000Y34290000D02*
X19685000Y34290000D01*
X19685000Y36830000D02*
X21845000Y36830000D01*
X21845000Y38100000D02*
X19685000Y38100000D01*
X20320006Y40640000D02*
X20320000Y40639994D01*
X21845000Y40640000D02*
X20320006Y40640000D01*
X19730720Y39370000D02*
X19707859Y39392861D01*
X21845000Y39370000D02*
X19730720Y39370000D01*
X21845000Y35560000D02*
X19685000Y35560000D01*
X21845000Y31750000D02*
X20955000Y31750000D01*
X21845000Y31750000D02*
X20320000Y31750000D01*
X20955000Y33020000D02*
X21845000Y33020000D01*
X21845000Y33020000D02*
X19685000Y33020000D01*
D21*
X26690000Y61595000D02*
X26670000Y61575000D01*
X28955000Y61595000D02*
X26690000Y61595000D01*
X21845000Y10795000D02*
X24110000Y10795000D01*
X24110000Y10795000D02*
X24130000Y10815000D01*
X33020000Y43180000D02*
X28955000Y43180000D01*
X21845000Y29210000D02*
X17780000Y29210000D01*
D23*
X33020000Y24130000D02*
X33020000Y43180000D01*
X17780000Y10160000D02*
X17780000Y29210000D01*
X19050000Y8890000D02*
X17780000Y10160000D01*
X33020000Y10160000D02*
X31750000Y8890000D01*
X24130000Y8890000D02*
X19050000Y8890000D01*
X31750000Y63500000D02*
X33020000Y62230000D01*
X17780000Y47625000D02*
X17780000Y62230000D01*
X17780000Y62230000D02*
X19050000Y63500000D01*
D21*
X32385000Y61595000D02*
X33020000Y60960000D01*
D23*
X33020000Y62230000D02*
X33020000Y60960000D01*
X33020000Y60960000D02*
X33020000Y43180000D01*
D21*
X26670000Y61350000D02*
X26670000Y63500000D01*
D23*
X26670000Y63500000D02*
X31750000Y63500000D01*
D21*
X23740000Y47625000D02*
X24130000Y47235000D01*
X21845000Y47625000D02*
X23740000Y47625000D01*
X26915000Y43180000D02*
X26670000Y42935000D01*
X28955000Y43180000D02*
X26915000Y43180000D01*
X21845000Y47625000D02*
X17780000Y47625000D01*
D24*
X40495000Y27940000D02*
X39225000Y26670000D01*
X40885000Y27940000D02*
X40495000Y27940000D01*
D21*
X24130000Y10795000D02*
X24130000Y8890000D01*
D23*
X31750000Y8890000D02*
X24130000Y8890000D01*
D24*
X38100000Y26670000D02*
X39225000Y26670000D01*
D23*
X17780000Y47625000D02*
X17780000Y29210000D01*
D22*
X43960000Y7620000D02*
X44205000Y7865000D01*
X44205000Y7865000D02*
X44205000Y8890000D01*
X44205000Y7375000D02*
X43960000Y7620000D01*
X44205000Y6350000D02*
X44205000Y7375000D01*
D21*
X24130000Y62865000D02*
X24765000Y63500000D01*
X24130000Y61350000D02*
X24130000Y62865000D01*
D23*
X19050000Y63500000D02*
X24765000Y63500000D01*
X24765000Y63500000D02*
X26670000Y63500000D01*
D21*
X27060000Y24765000D02*
X26670000Y24520000D01*
X28955000Y24765000D02*
X27060000Y24765000D01*
D22*
X27940000Y3810000D02*
X27305000Y4445000D01*
X34290000Y3810000D02*
X27940000Y3810000D01*
X43960000Y7620000D02*
X38100000Y7620000D01*
X38100000Y7620000D02*
X34290000Y3810000D01*
D21*
X24130000Y29455000D02*
X23760000Y29455000D01*
X23515000Y29210000D02*
X21845000Y29210000D01*
X23760000Y29455000D02*
X23515000Y29210000D01*
X32131000Y27051000D02*
X32512000Y26670000D01*
X30480000Y27051000D02*
X32131000Y27051000D01*
D23*
X33020000Y10160000D02*
X33020000Y24130000D01*
D21*
X33020000Y24130000D02*
X32512000Y24130000D01*
X28955000Y24765000D02*
X32385000Y24765000D01*
X32385000Y24765000D02*
X33020000Y24130000D01*
D24*
X12700000Y45720000D02*
X13208000Y46228000D01*
X10033000Y45339000D02*
X11049000Y45339000D01*
X11430000Y45720000D02*
X12700000Y45720000D01*
X11049000Y45339000D02*
X11430000Y45720000D01*
X12700000Y45720000D02*
X13208000Y45212000D01*
X13208000Y45212000D02*
X13208000Y46228000D01*
D21*
X12445000Y12065000D02*
X15240000Y12065000D01*
X12445000Y10795000D02*
X15240000Y10795000D01*
D23*
X15240000Y12065000D02*
X15240000Y10795000D01*
D21*
X12445000Y48895000D02*
X15240000Y48895000D01*
X12445000Y47625000D02*
X15240000Y47625000D01*
D23*
X15240000Y48895000D02*
X15240000Y47625000D01*
X15240000Y47625000D02*
X15240000Y31115000D01*
X15240000Y31115000D02*
X15240000Y29210000D01*
X35560000Y41910000D02*
X35560000Y43180000D01*
X35560000Y43180000D02*
X35560000Y60325000D01*
X35560000Y60325000D02*
X35560000Y62230000D01*
D21*
X12445000Y12065000D02*
X10815000Y12065000D01*
X10815000Y12065000D02*
X10160000Y11410000D01*
X12445000Y10795000D02*
X10775000Y10795000D01*
X10775000Y10795000D02*
X10160000Y11410000D01*
X10160000Y11185000D02*
X8001000Y11185000D01*
D23*
X15240000Y29210000D02*
X15240000Y12065000D01*
X33020000Y6350000D02*
X35560000Y8890000D01*
X15240000Y10795000D02*
X15240000Y8890000D01*
X15240000Y8890000D02*
X17780000Y6350000D01*
X15240000Y48895000D02*
X15240000Y63500000D01*
D21*
X20320000Y6350000D02*
X20075000Y6105000D01*
X22615000Y5960000D02*
X22225000Y6350000D01*
D23*
X20320000Y6350000D02*
X22225000Y6350000D01*
X17780000Y6350000D02*
X19050000Y6350000D01*
D21*
X18805000Y6105000D02*
X19050000Y6350000D01*
D23*
X19050000Y6350000D02*
X20320000Y6350000D01*
D21*
X14351000Y62611000D02*
X15240000Y63500000D01*
X9779000Y62611000D02*
X14351000Y62611000D01*
X7375000Y64008000D02*
X8382000Y64008000D01*
X8382000Y64008000D02*
X9779000Y62611000D01*
D24*
X43180000Y45720000D02*
X45720000Y48260000D01*
X43180000Y43855000D02*
X43180000Y45720000D01*
X40640000Y42565000D02*
X41890000Y42565000D01*
X41890000Y42565000D02*
X43180000Y43855000D01*
D21*
X40005000Y24765000D02*
X40640000Y24130000D01*
X38355000Y24765000D02*
X40005000Y24765000D01*
X40005000Y23495000D02*
X40640000Y24130000D01*
X38355000Y23495000D02*
X40005000Y23495000D01*
X38355000Y24765000D02*
X35560000Y24765000D01*
D23*
X35560000Y24765000D02*
X35560000Y41910000D01*
D21*
X38355000Y23495000D02*
X35560000Y23495000D01*
D23*
X35560000Y8890000D02*
X35560000Y23495000D01*
X35560000Y23495000D02*
X35560000Y24765000D01*
D21*
X9525000Y48260000D02*
X10795000Y48260000D01*
X10795000Y48260000D02*
X11430000Y48895000D01*
X11430000Y48895000D02*
X12445000Y48895000D01*
X10795000Y48260000D02*
X11430000Y47625000D01*
X11430000Y47625000D02*
X12445000Y47625000D01*
D24*
X8890000Y29845000D02*
X10160000Y29845000D01*
X7620000Y28575000D02*
X8890000Y29845000D01*
X7620000Y26670000D02*
X7620000Y28575000D01*
X5080000Y25400000D02*
X6350000Y25400000D01*
X6350000Y25400000D02*
X7620000Y26670000D01*
X24275000Y6205000D02*
X24130000Y6350000D01*
X24275000Y3810000D02*
X24275000Y6205000D01*
D23*
X22225000Y6350000D02*
X24130000Y6350000D01*
X24130000Y6350000D02*
X33020000Y6350000D01*
X33020000Y66040000D02*
X35560000Y63500000D01*
X15240000Y63500000D02*
X17780000Y66040000D01*
X35560000Y63500000D02*
X35560000Y62230000D01*
X17780000Y66040000D02*
X33020000Y66040000D01*
D21*
X41275000Y64135000D02*
X43180000Y66040000D01*
X41275000Y60960000D02*
X41275000Y64135000D01*
X43180000Y66040000D02*
X44695000Y66040000D01*
X39370000Y61595000D02*
X38355000Y61595000D01*
X40005000Y60960000D02*
X39370000Y61595000D01*
X41275000Y60960000D02*
X40005000Y60960000D01*
X39370000Y60325000D02*
X40005000Y60960000D01*
X38355000Y60325000D02*
X39370000Y60325000D01*
X38355000Y60325000D02*
X35560000Y60325000D01*
X35560000Y61595000D02*
X35560000Y62230000D01*
X38355000Y61595000D02*
X35560000Y61595000D01*
D25*
X15240000Y29210000D02*
X12445000Y29210000D01*
X10795000Y29210000D02*
X10160000Y29845000D01*
X12445000Y29210000D02*
X10795000Y29210000D01*
X14605000Y30480000D02*
X15240000Y31115000D01*
X12445000Y30480000D02*
X14605000Y30480000D01*
X10795000Y30480000D02*
X10160000Y29845000D01*
X12445000Y30480000D02*
X10795000Y30480000D01*
X35560000Y43180000D02*
X38355000Y43180000D01*
X38355000Y41910000D02*
X35560000Y41910000D01*
X40005000Y41910000D02*
X40640000Y42545000D01*
X38355000Y41910000D02*
X40005000Y41910000D01*
X40005000Y43180000D02*
X40640000Y42545000D01*
X38355000Y43180000D02*
X40005000Y43180000D01*
D22*
X28955000Y56515000D02*
X30480000Y56515000D01*
X30480000Y56515000D02*
X31115000Y57150000D01*
X31115000Y54610000D02*
X30480000Y53975000D01*
X30480000Y53975000D02*
X28955000Y53975000D01*
X25400000Y45720000D02*
X25400000Y50800000D01*
X24765000Y51435000D02*
X21845000Y51435000D01*
X30480000Y45085000D02*
X26035000Y45085000D01*
X25400000Y50800000D02*
X24765000Y51435000D01*
X26035000Y45085000D02*
X25400000Y45720000D01*
X20955000Y53975000D02*
X21845000Y53975000D01*
X25908000Y53467000D02*
X25400000Y53975000D01*
X25908000Y46482000D02*
X25908000Y53467000D01*
X25400000Y53975000D02*
X21845000Y53975000D01*
X31115000Y45720000D02*
X26670000Y45720000D01*
X26670000Y45720000D02*
X25908000Y46482000D01*
X21145000Y56515000D02*
X21845000Y56515000D01*
X26035000Y56515000D02*
X21845000Y56515000D01*
X26416000Y56134000D02*
X26035000Y56515000D01*
X26416000Y47244000D02*
X26416000Y56134000D01*
X30480000Y46355000D02*
X27305000Y46355000D01*
X27305000Y46355000D02*
X26416000Y47244000D01*
X28955000Y50165000D02*
X29845000Y50165000D01*
X29845000Y50165000D02*
X31115000Y48895000D01*
X30480000Y51435000D02*
X31115000Y50800000D01*
X28955000Y51435000D02*
X30480000Y51435000D01*
X30480000Y52705000D02*
X28955000Y52705000D01*
X31115000Y53340000D02*
X30480000Y52705000D01*
X30480000Y55245000D02*
X28955000Y55245000D01*
X31115000Y55880000D02*
X30480000Y55245000D01*
X30480000Y57785000D02*
X31115000Y58420000D01*
X28955000Y57785000D02*
X30480000Y57785000D01*
X30480000Y59055000D02*
X31115000Y59690000D01*
X28955000Y59055000D02*
X30480000Y59055000D01*
X19685000Y59055000D02*
X21845000Y59055000D01*
X19685000Y57785000D02*
X21845000Y57785000D01*
X19685000Y55245000D02*
X21845000Y55245000D01*
X19685000Y52705000D02*
X21845000Y52705000D01*
X19685000Y50165000D02*
X21845000Y50165000D01*
X26289000Y27051000D02*
X28430000Y27051000D01*
X25400000Y26162000D02*
X26289000Y27051000D01*
X28955000Y23495000D02*
X28067000Y23495000D01*
X28067000Y23495000D02*
X27686000Y23876000D01*
X25400000Y24384000D02*
X25908000Y23876000D01*
X25400000Y24384000D02*
X25400000Y26162000D01*
X27686000Y23876000D02*
X25908000Y23876000D01*
X45720000Y55880000D02*
X44450000Y55880000D01*
X43815000Y55245000D02*
X38355000Y55245000D01*
X44450000Y55880000D02*
X43815000Y55245000D01*
X38355000Y52705000D02*
X43815000Y52705000D01*
X43815000Y52705000D02*
X44450000Y53340000D01*
X44450000Y53340000D02*
X45720000Y53340000D01*
X11049000Y52705000D02*
X12445000Y52705000D01*
X8636000Y53086000D02*
X10668000Y53086000D01*
X5080000Y50800000D02*
X6350000Y50800000D01*
X10668000Y53086000D02*
X11049000Y52705000D01*
X6350000Y50800000D02*
X8636000Y53086000D01*
X8255000Y55245000D02*
X12445000Y55245000D01*
X5080000Y53340000D02*
X6350000Y53340000D01*
X6350000Y53340000D02*
X8255000Y55245000D01*
X5080000Y55880000D02*
X6350000Y55880000D01*
X8255000Y57785000D02*
X12445000Y57785000D01*
X6350000Y55880000D02*
X8255000Y57785000D01*
X46990000Y41910000D02*
X48260000Y40640000D01*
X43815000Y48895000D02*
X44450000Y49530000D01*
X44450000Y49530000D02*
X46355000Y49530000D01*
X38355000Y48895000D02*
X43815000Y48895000D01*
X46355000Y49530000D02*
X46990000Y48895000D01*
X46990000Y48895000D02*
X46990000Y41910000D01*
X38355000Y50165000D02*
X43815000Y50165000D01*
X43815000Y50165000D02*
X44450000Y50800000D01*
X44450000Y50800000D02*
X45720000Y50800000D01*
X48260000Y50800000D02*
X46990000Y52070000D01*
X46990000Y52070000D02*
X44450000Y52070000D01*
X44450000Y52070000D02*
X43815000Y51435000D01*
X43815000Y51435000D02*
X38355000Y51435000D01*
X38355000Y56515000D02*
X43815000Y56515000D01*
X43815000Y56515000D02*
X44450000Y57150000D01*
X46990000Y57150000D02*
X48260000Y55880000D01*
X44450000Y57150000D02*
X46990000Y57150000D01*
X44323000Y58420000D02*
X43688000Y57785000D01*
X45720000Y58420000D02*
X44323000Y58420000D01*
X43688000Y57785000D02*
X38355000Y57785000D01*
X6350000Y58420000D02*
X5080000Y58420000D01*
X12445000Y60325000D02*
X8255000Y60325000D01*
X8255000Y60325000D02*
X6350000Y58420000D01*
X3810000Y46990000D02*
X2540000Y45720000D01*
X3810000Y48895000D02*
X3810000Y46990000D01*
X11430000Y51435000D02*
X10541000Y52324000D01*
X6350000Y49530000D02*
X4445000Y49530000D01*
X12445000Y51435000D02*
X11430000Y51435000D01*
X10541000Y52324000D02*
X9144000Y52324000D01*
X9144000Y52324000D02*
X6350000Y49530000D01*
X4445000Y49530000D02*
X3810000Y48895000D01*
X8255000Y53975000D02*
X12445000Y53975000D01*
X2540000Y50800000D02*
X3810000Y52070000D01*
X6350000Y52070000D02*
X8255000Y53975000D01*
X3810000Y52070000D02*
X6350000Y52070000D01*
X8255000Y56515000D02*
X12445000Y56515000D01*
X2540000Y53340000D02*
X3810000Y54610000D01*
X6350000Y54610000D02*
X8255000Y56515000D01*
X3810000Y54610000D02*
X6350000Y54610000D01*
X12445000Y35560000D02*
X5080000Y35560000D01*
X5080000Y38100000D02*
X12445000Y38100000D01*
X12445000Y39370000D02*
X3810000Y39370000D01*
X3810000Y39370000D02*
X2540000Y40640000D01*
X2540000Y43180000D02*
X3810000Y41910000D01*
X3810000Y41910000D02*
X12445000Y41910000D01*
X12445000Y40640000D02*
X5080000Y40640000D01*
X12445000Y36830000D02*
X3810000Y36830000D01*
X3810000Y36830000D02*
X2540000Y38100000D01*
X5080000Y33020000D02*
X12065000Y33020000D01*
X12065000Y33020000D02*
X12445000Y33020000D01*
X2540000Y35560000D02*
X3810000Y34290000D01*
X3810000Y34290000D02*
X12445000Y34290000D01*
X2540000Y33020000D02*
X3810000Y31750000D01*
X3810000Y31750000D02*
X12445000Y31750000D01*
X8255000Y59055000D02*
X12445000Y59055000D01*
X2540000Y55880000D02*
X3810000Y57150000D01*
X6350000Y57150000D02*
X8255000Y59055000D01*
X3810000Y57150000D02*
X6350000Y57150000D01*
X8890000Y68580000D02*
X7375000Y68580000D01*
X10795000Y70485000D02*
X8890000Y68580000D01*
X12065000Y70485000D02*
X10795000Y70485000D01*
X13335000Y74295000D02*
X13335000Y71755000D01*
X13335000Y71755000D02*
X12065000Y70485000D01*
X17780000Y67945000D02*
X18415000Y68580000D01*
X10795000Y67945000D02*
X17780000Y67945000D01*
X7375000Y66294000D02*
X9144000Y66294000D01*
X18415000Y68580000D02*
X18415000Y74295000D01*
X9144000Y66294000D02*
X10795000Y67945000D01*
X43180000Y68580000D02*
X44695000Y68580000D01*
X42545000Y67945000D02*
X43180000Y68580000D01*
X24130000Y67945000D02*
X42545000Y67945000D01*
X23495000Y74295000D02*
X23495000Y68580000D01*
X23495000Y68580000D02*
X24130000Y67945000D01*
D24*
X7865000Y45475000D02*
X5080000Y48260000D01*
X7865000Y45339000D02*
X7865000Y45475000D01*
X45720000Y25400000D02*
X45085000Y25400000D01*
X43180000Y27940000D02*
X45720000Y25400000D01*
X42935000Y27940000D02*
X43180000Y27940000D01*
D22*
X45720000Y67065000D02*
X46745000Y66040000D01*
X45720000Y70485000D02*
X45720000Y67065000D01*
X46355000Y74295000D02*
X45085000Y73025000D01*
X45085000Y71120000D02*
X45720000Y70485000D01*
X45085000Y73025000D02*
X45085000Y71120000D01*
X45720000Y65015000D02*
X46745000Y66040000D01*
X45720000Y60960000D02*
X45720000Y65015000D01*
X48260000Y60960000D02*
X48260000Y68140000D01*
X47820000Y68580000D02*
X46745000Y68580000D01*
X48260000Y68140000D02*
X47820000Y68580000D01*
X45720000Y12700000D02*
X43180000Y12700000D01*
X43180000Y12700000D02*
X42545000Y12065000D01*
X42545000Y12065000D02*
X38355000Y12065000D01*
X42386250Y13335000D02*
X38355000Y13335000D01*
X43021250Y13970000D02*
X42386250Y13335000D01*
X48260000Y12700000D02*
X46990000Y13970000D01*
X46990000Y13970000D02*
X43021250Y13970000D01*
X8040001Y3810000D02*
X6985000Y3810000D01*
X5080000Y5715000D02*
X5080000Y12700000D01*
X6985000Y3810000D02*
X5080000Y5715000D01*
X12065000Y3810000D02*
X8040001Y3810000D01*
X8001000Y3849001D02*
X8001000Y9135000D01*
X8040001Y3810000D02*
X8001000Y3849001D01*
X3904999Y59784999D02*
X3904999Y65499999D01*
X2540000Y58420000D02*
X3904999Y59784999D01*
X4445000Y66040000D02*
X5325000Y66040000D01*
X3904999Y65499999D02*
X4445000Y66040000D01*
X6350000Y62230000D02*
X5080000Y60960000D01*
X6350000Y64135000D02*
X6350000Y62230000D01*
X5325000Y64008000D02*
X6223000Y64008000D01*
X6223000Y64008000D02*
X6350000Y64135000D01*
X6350000Y71890500D02*
X6350000Y64135000D01*
X4254500Y74295000D02*
X6350000Y71890500D01*
X2540000Y60960000D02*
X2540000Y67310000D01*
X3810000Y68580000D02*
X5325000Y68580000D01*
X2540000Y67310000D02*
X3810000Y68580000D01*
X39370000Y8890000D02*
X42155000Y8890000D01*
X38100000Y8890000D02*
X39370000Y8890000D01*
X28575000Y4445000D02*
X33655000Y4445000D01*
X33655000Y4445000D02*
X38100000Y8890000D01*
X27305000Y13335000D02*
X28955000Y13335000D01*
X26035000Y12065000D02*
X27305000Y13335000D01*
X39370000Y6350000D02*
X42155000Y6350000D01*
X38100000Y6350000D02*
X39370000Y6350000D01*
X27305000Y3175000D02*
X34925000Y3175000D01*
X34925000Y3175000D02*
X38100000Y6350000D01*
X26035000Y4445000D02*
X27305000Y3175000D01*
X25908000Y10795000D02*
X25400000Y11303000D01*
X25400000Y11303000D02*
X25400000Y13335000D01*
X25400000Y13335000D02*
X26670000Y14605000D01*
X26670000Y14605000D02*
X28955000Y14605000D01*
X7620000Y22860000D02*
X5080000Y22860000D01*
X13335000Y26670000D02*
X11430000Y26670000D01*
X11430000Y26670000D02*
X7620000Y22860000D01*
X20574000Y28194000D02*
X19685000Y27305000D01*
X25400000Y28956000D02*
X24638000Y28194000D01*
X25400000Y29972000D02*
X25400000Y28956000D01*
X24638000Y28194000D02*
X20574000Y28194000D01*
X21845000Y30480000D02*
X24892000Y30480000D01*
X24892000Y30480000D02*
X25400000Y29972000D01*
X30480000Y35560000D02*
X28955000Y35560000D01*
X31115000Y30480000D02*
X31115000Y34925000D01*
X31115000Y34925000D02*
X30480000Y35560000D01*
X29845000Y34290000D02*
X28955000Y34290000D01*
X31115000Y29210000D02*
X30480000Y29845000D01*
X30480000Y29845000D02*
X30480000Y33655000D01*
X30480000Y33655000D02*
X29845000Y34290000D01*
X31115000Y22225000D02*
X28955000Y22225000D01*
X29845000Y20955000D02*
X28955000Y20955000D01*
X31115000Y20955000D02*
X28955000Y20955000D01*
X29845000Y19685000D02*
X28955000Y19685000D01*
X31115000Y19685000D02*
X28955000Y19685000D01*
X30480000Y19050000D02*
X31115000Y18415000D01*
X27686000Y19050000D02*
X30480000Y19050000D01*
X27432000Y19304000D02*
X27686000Y19050000D01*
X25654000Y19304000D02*
X27432000Y19304000D01*
X25400000Y19558000D02*
X25654000Y19304000D01*
X27305000Y31750000D02*
X26416000Y30861000D01*
X24892000Y26431875D02*
X24892000Y22606000D01*
X28955000Y31750000D02*
X27305000Y31750000D01*
X26416000Y30861000D02*
X26416000Y27955875D01*
X25400000Y22098000D02*
X25400000Y19558000D01*
X26416000Y27955875D02*
X24892000Y26431875D01*
X24892000Y22606000D02*
X25400000Y22098000D01*
X23241000Y17145000D02*
X21845000Y17145000D01*
X23876000Y16510000D02*
X23241000Y17145000D01*
X31115000Y17145000D02*
X30480000Y16510000D01*
X30480000Y16510000D02*
X23876000Y16510000D01*
X19685000Y13335000D02*
X21845000Y13335000D01*
X19685000Y14605000D02*
X21845000Y14605000D01*
X27305000Y33020000D02*
X28955000Y33020000D01*
X25908000Y31623000D02*
X27305000Y33020000D01*
X25908000Y28448000D02*
X25908000Y31623000D01*
X24130000Y26670000D02*
X25908000Y28448000D01*
X19685000Y24765000D02*
X21590000Y26670000D01*
X21590000Y26670000D02*
X24130000Y26670000D01*
X23749000Y15875000D02*
X28955000Y15875000D01*
X23114000Y16510000D02*
X23749000Y15875000D01*
X20320000Y16510000D02*
X23114000Y16510000D01*
X19685000Y20320000D02*
X19685000Y17145000D01*
X19685000Y17145000D02*
X20320000Y16510000D01*
X24003000Y17145000D02*
X28955000Y17145000D01*
X19685000Y22225000D02*
X20320000Y21590000D01*
X19685000Y22860000D02*
X19685000Y22225000D01*
X23368000Y17780000D02*
X24003000Y17145000D01*
X23368000Y17780000D02*
X20574000Y17780000D01*
X20574000Y17780000D02*
X20320000Y18034000D01*
X20320000Y18034000D02*
X20320000Y21590000D01*
X24130000Y22352000D02*
X24130000Y20846000D01*
X24384000Y25146000D02*
X24384000Y22606000D01*
X24130000Y20846000D02*
X24638000Y20338000D01*
X24384000Y22606000D02*
X24130000Y22352000D01*
X23495000Y26035000D02*
X24384000Y25146000D01*
X22225000Y26035000D02*
X23495000Y26035000D01*
X22987000Y15875000D02*
X21845000Y15875000D01*
X23622000Y15240000D02*
X22987000Y15875000D01*
X31115000Y15875000D02*
X30480000Y15240000D01*
X30480000Y15240000D02*
X23622000Y15240000D01*
X12445000Y13335000D02*
X10160000Y13335000D01*
X10160000Y13335000D02*
X8255000Y15240000D01*
X8255000Y15240000D02*
X5080000Y15240000D01*
X8255000Y20320000D02*
X5080000Y20320000D01*
X12445000Y18415000D02*
X10160000Y18415000D01*
X10160000Y18415000D02*
X8255000Y20320000D01*
X10160000Y17145000D02*
X12445000Y17145000D01*
X8255000Y19050000D02*
X10160000Y17145000D01*
X2540000Y20320000D02*
X3810000Y19050000D01*
X3810000Y19050000D02*
X8255000Y19050000D01*
X10160000Y14605000D02*
X12445000Y14605000D01*
X8255000Y16510000D02*
X10160000Y14605000D01*
X2540000Y17780000D02*
X3810000Y16510000D01*
X3810000Y16510000D02*
X8255000Y16510000D01*
X12445000Y15875000D02*
X10160000Y15875000D01*
X10160000Y15875000D02*
X8255000Y17780000D01*
X8255000Y17780000D02*
X5080000Y17780000D01*
X46990000Y34290000D02*
X48260000Y33020000D01*
X38355000Y34290000D02*
X46990000Y34290000D01*
X38355000Y33020000D02*
X45720000Y33020000D01*
X38355000Y30480000D02*
X45720000Y30480000D01*
X46990000Y31750000D02*
X48260000Y30480000D01*
X38355000Y31750000D02*
X46990000Y31750000D01*
X45720000Y17780000D02*
X43180000Y17780000D01*
X43180000Y17780000D02*
X42545000Y17145000D01*
X42545000Y17145000D02*
X38355000Y17145000D01*
X46990000Y21590000D02*
X48260000Y20320000D01*
X43180000Y21590000D02*
X46990000Y21590000D01*
X41656000Y20066000D02*
X43180000Y21590000D01*
X38355000Y20955000D02*
X39370000Y20955000D01*
X40259000Y20066000D02*
X41656000Y20066000D01*
X39370000Y20955000D02*
X40259000Y20066000D01*
X39878000Y19304000D02*
X39497000Y19685000D01*
X39497000Y19685000D02*
X38355000Y19685000D01*
X45720000Y20320000D02*
X43180000Y20320000D01*
X42164000Y19304000D02*
X39878000Y19304000D01*
X43180000Y20320000D02*
X42164000Y19304000D01*
X42545000Y18415000D02*
X38355000Y18415000D01*
X43180000Y19050000D02*
X42545000Y18415000D01*
X48260000Y17780000D02*
X46990000Y19050000D01*
X46990000Y19050000D02*
X43180000Y19050000D01*
X38355000Y15875000D02*
X42545000Y15875000D01*
X42545000Y15875000D02*
X43180000Y16510000D01*
X43180000Y16510000D02*
X46990000Y16510000D01*
X46990000Y16510000D02*
X48260000Y15240000D01*
X45720000Y15240000D02*
X43180000Y15240000D01*
X43180000Y15240000D02*
X42545000Y14605000D01*
X42545000Y14605000D02*
X38355000Y14605000D01*
X21845000Y20955000D02*
X20955000Y20955000D01*
X48260000Y53340000D02*
X46990000Y54610000D01*
X46990000Y54610000D02*
X44450000Y54610000D01*
X44450000Y54610000D02*
X43815000Y53975000D01*
X43815000Y53975000D02*
X38355000Y53975000D01*
D21*
X12445000Y50165000D02*
X11999999Y50165000D01*
D22*
X6985000Y43815000D02*
X5080000Y45720000D01*
X8255000Y43815000D02*
X6985000Y43815000D01*
X8890000Y44450000D02*
X8255000Y43815000D01*
X11430000Y50165000D02*
X10541000Y49276000D01*
X10541000Y49276000D02*
X8636000Y49276000D01*
X8890000Y46355000D02*
X8890000Y44450000D01*
X12445000Y50165000D02*
X11430000Y50165000D01*
X8001000Y48641000D02*
X8001000Y47244000D01*
X8636000Y49276000D02*
X8001000Y48641000D01*
X8001000Y47244000D02*
X8890000Y46355000D01*
X38989000Y59055000D02*
X39878000Y59944000D01*
X44450000Y59690000D02*
X46990000Y59690000D01*
X38355000Y59055000D02*
X38989000Y59055000D01*
X46990000Y59690000D02*
X48260000Y58420000D01*
X39878000Y59944000D02*
X44196000Y59944000D01*
X44196000Y59944000D02*
X44450000Y59690000D01*
X29845000Y18415000D02*
X28955000Y18415000D01*
X28955000Y18415000D02*
X26035000Y18415000D01*
X24130000Y18778000D02*
X24148000Y18778000D01*
X24638000Y18288000D02*
X26670000Y18288000D01*
X24148000Y18778000D02*
X24638000Y18288000D01*
M02*
