G04 #@! TF.GenerationSoftware,KiCad,Pcbnew,5.1.4-e60b266~84~ubuntu18.04.1*
G04 #@! TF.CreationDate,2019-09-22T15:50:52+01:00*
G04 #@! TF.ProjectId,z80_adapter,7a38305f-6164-4617-9074-65722e6b6963,rev?*
G04 #@! TF.SameCoordinates,PX9fdfbc0PY791ddc0*
G04 #@! TF.FileFunction,Legend,Bot*
G04 #@! TF.FilePolarity,Positive*
%FSLAX46Y46*%
G04 Gerber Fmt 4.6, Leading zero omitted, Abs format (unit mm)*
G04 Created by KiCad (PCBNEW 5.1.4-e60b266~84~ubuntu18.04.1) date 2019-09-22 15:50:52*
%MOMM*%
%LPD*%
G04 APERTURE LIST*
%ADD10C,0.250000*%
%ADD11C,0.150000*%
%ADD12C,0.200000*%
%ADD13C,0.120000*%
G04 APERTURE END LIST*
D10*
X9588571Y53115715D02*
X8088571Y53115715D01*
X9445714Y51544286D02*
X9517142Y51615715D01*
X9588571Y51830000D01*
X9588571Y51972858D01*
X9517142Y52187143D01*
X9374285Y52330000D01*
X9231428Y52401429D01*
X8945714Y52472858D01*
X8731428Y52472858D01*
X8445714Y52401429D01*
X8302857Y52330000D01*
X8160000Y52187143D01*
X8088571Y51972858D01*
X8088571Y51830000D01*
X8160000Y51615715D01*
X8231428Y51544286D01*
X8802857Y50901429D02*
X8802857Y50401429D01*
X9588571Y50187143D02*
X9588571Y50901429D01*
X8088571Y50901429D01*
X8088571Y50187143D01*
X9017142Y49544286D02*
X9017142Y48401429D01*
X8088571Y47830000D02*
X8088571Y46830000D01*
X9588571Y47830000D01*
X9588571Y46830000D01*
X8731428Y46044286D02*
X8660000Y46187143D01*
X8588571Y46258572D01*
X8445714Y46330000D01*
X8374285Y46330000D01*
X8231428Y46258572D01*
X8160000Y46187143D01*
X8088571Y46044286D01*
X8088571Y45758572D01*
X8160000Y45615715D01*
X8231428Y45544286D01*
X8374285Y45472858D01*
X8445714Y45472858D01*
X8588571Y45544286D01*
X8660000Y45615715D01*
X8731428Y45758572D01*
X8731428Y46044286D01*
X8802857Y46187143D01*
X8874285Y46258572D01*
X9017142Y46330000D01*
X9302857Y46330000D01*
X9445714Y46258572D01*
X9517142Y46187143D01*
X9588571Y46044286D01*
X9588571Y45758572D01*
X9517142Y45615715D01*
X9445714Y45544286D01*
X9302857Y45472858D01*
X9017142Y45472858D01*
X8874285Y45544286D01*
X8802857Y45615715D01*
X8731428Y45758572D01*
X8088571Y44544286D02*
X8088571Y44401429D01*
X8160000Y44258572D01*
X8231428Y44187143D01*
X8374285Y44115715D01*
X8660000Y44044286D01*
X9017142Y44044286D01*
X9302857Y44115715D01*
X9445714Y44187143D01*
X9517142Y44258572D01*
X9588571Y44401429D01*
X9588571Y44544286D01*
X9517142Y44687143D01*
X9445714Y44758572D01*
X9302857Y44830000D01*
X9017142Y44901429D01*
X8660000Y44901429D01*
X8374285Y44830000D01*
X8231428Y44758572D01*
X8160000Y44687143D01*
X8088571Y44544286D01*
X9588571Y42258572D02*
X8088571Y42258572D01*
X8588571Y41544286D02*
X9588571Y41544286D01*
X8731428Y41544286D02*
X8660000Y41472858D01*
X8588571Y41330000D01*
X8588571Y41115715D01*
X8660000Y40972858D01*
X8802857Y40901429D01*
X9588571Y40901429D01*
X9017142Y40187143D02*
X9017142Y39044286D01*
X9445714Y37472858D02*
X9517142Y37544286D01*
X9588571Y37758572D01*
X9588571Y37901429D01*
X9517142Y38115715D01*
X9374285Y38258572D01*
X9231428Y38330000D01*
X8945714Y38401429D01*
X8731428Y38401429D01*
X8445714Y38330000D01*
X8302857Y38258572D01*
X8160000Y38115715D01*
X8088571Y37901429D01*
X8088571Y37758572D01*
X8160000Y37544286D01*
X8231428Y37472858D01*
X9588571Y36830000D02*
X8588571Y36830000D01*
X8088571Y36830000D02*
X8160000Y36901429D01*
X8231428Y36830000D01*
X8160000Y36758572D01*
X8088571Y36830000D01*
X8231428Y36830000D01*
X9588571Y36115715D02*
X8588571Y36115715D01*
X8874285Y36115715D02*
X8731428Y36044286D01*
X8660000Y35972858D01*
X8588571Y35830000D01*
X8588571Y35687143D01*
X9517142Y34544286D02*
X9588571Y34687143D01*
X9588571Y34972858D01*
X9517142Y35115715D01*
X9445714Y35187143D01*
X9302857Y35258572D01*
X8874285Y35258572D01*
X8731428Y35187143D01*
X8660000Y35115715D01*
X8588571Y34972858D01*
X8588571Y34687143D01*
X8660000Y34544286D01*
X8588571Y33258572D02*
X9588571Y33258572D01*
X8588571Y33901429D02*
X9374285Y33901429D01*
X9517142Y33830000D01*
X9588571Y33687143D01*
X9588571Y33472858D01*
X9517142Y33330000D01*
X9445714Y33258572D01*
X9588571Y32544286D02*
X8588571Y32544286D01*
X8088571Y32544286D02*
X8160000Y32615715D01*
X8231428Y32544286D01*
X8160000Y32472858D01*
X8088571Y32544286D01*
X8231428Y32544286D01*
X8588571Y32044286D02*
X8588571Y31472858D01*
X8088571Y31830000D02*
X9374285Y31830000D01*
X9517142Y31758572D01*
X9588571Y31615715D01*
X9588571Y31472858D01*
X8802857Y29830000D02*
X8802857Y29330000D01*
X9588571Y29115715D02*
X9588571Y29830000D01*
X8088571Y29830000D01*
X8088571Y29115715D01*
X9588571Y28472858D02*
X8588571Y28472858D01*
X8731428Y28472858D02*
X8660000Y28401429D01*
X8588571Y28258572D01*
X8588571Y28044286D01*
X8660000Y27901429D01*
X8802857Y27830000D01*
X9588571Y27830000D01*
X8802857Y27830000D02*
X8660000Y27758572D01*
X8588571Y27615715D01*
X8588571Y27401429D01*
X8660000Y27258572D01*
X8802857Y27187143D01*
X9588571Y27187143D01*
X8588571Y25830000D02*
X9588571Y25830000D01*
X8588571Y26472858D02*
X9374285Y26472858D01*
X9517142Y26401429D01*
X9588571Y26258572D01*
X9588571Y26044286D01*
X9517142Y25901429D01*
X9445714Y25830000D01*
X9588571Y24901429D02*
X9517142Y25044286D01*
X9374285Y25115715D01*
X8088571Y25115715D01*
X9588571Y23687143D02*
X8802857Y23687143D01*
X8660000Y23758572D01*
X8588571Y23901429D01*
X8588571Y24187143D01*
X8660000Y24330000D01*
X9517142Y23687143D02*
X9588571Y23830000D01*
X9588571Y24187143D01*
X9517142Y24330000D01*
X9374285Y24401429D01*
X9231428Y24401429D01*
X9088571Y24330000D01*
X9017142Y24187143D01*
X9017142Y23830000D01*
X8945714Y23687143D01*
X8588571Y23187143D02*
X8588571Y22615715D01*
X8088571Y22972858D02*
X9374285Y22972858D01*
X9517142Y22901429D01*
X9588571Y22758572D01*
X9588571Y22615715D01*
X9588571Y21901429D02*
X9517142Y22044286D01*
X9445714Y22115715D01*
X9302857Y22187143D01*
X8874285Y22187143D01*
X8731428Y22115715D01*
X8660000Y22044286D01*
X8588571Y21901429D01*
X8588571Y21687143D01*
X8660000Y21544286D01*
X8731428Y21472858D01*
X8874285Y21401429D01*
X9302857Y21401429D01*
X9445714Y21472858D01*
X9517142Y21544286D01*
X9588571Y21687143D01*
X9588571Y21901429D01*
X9588571Y20758572D02*
X8588571Y20758572D01*
X8874285Y20758572D02*
X8731428Y20687143D01*
X8660000Y20615715D01*
X8588571Y20472858D01*
X8588571Y20330000D01*
X10945714Y53365715D02*
X10874285Y53508572D01*
X10874285Y53794286D01*
X10945714Y53937143D01*
X11088571Y54080000D01*
X11231428Y54151429D01*
X11517142Y54151429D01*
X11660000Y54080000D01*
X11802857Y53937143D01*
X11874285Y53794286D01*
X11874285Y53508572D01*
X11802857Y53365715D01*
X10374285Y53651429D02*
X10445714Y54008572D01*
X10660000Y54365715D01*
X11017142Y54580000D01*
X11374285Y54651429D01*
X11731428Y54580000D01*
X12088571Y54365715D01*
X12302857Y54008572D01*
X12374285Y53651429D01*
X12302857Y53294286D01*
X12088571Y52937143D01*
X11731428Y52722858D01*
X11374285Y52651429D01*
X11017142Y52722858D01*
X10660000Y52937143D01*
X10445714Y53294286D01*
X10374285Y53651429D01*
X10731428Y50937143D02*
X10660000Y50865715D01*
X10588571Y50722858D01*
X10588571Y50365715D01*
X10660000Y50222858D01*
X10731428Y50151429D01*
X10874285Y50080000D01*
X11017142Y50080000D01*
X11231428Y50151429D01*
X12088571Y51008572D01*
X12088571Y50080000D01*
X10588571Y49151429D02*
X10588571Y49008572D01*
X10660000Y48865715D01*
X10731428Y48794286D01*
X10874285Y48722858D01*
X11160000Y48651429D01*
X11517142Y48651429D01*
X11802857Y48722858D01*
X11945714Y48794286D01*
X12017142Y48865715D01*
X12088571Y49008572D01*
X12088571Y49151429D01*
X12017142Y49294286D01*
X11945714Y49365715D01*
X11802857Y49437143D01*
X11517142Y49508572D01*
X11160000Y49508572D01*
X10874285Y49437143D01*
X10731428Y49365715D01*
X10660000Y49294286D01*
X10588571Y49151429D01*
X12088571Y47222858D02*
X12088571Y48080000D01*
X12088571Y47651429D02*
X10588571Y47651429D01*
X10802857Y47794286D01*
X10945714Y47937143D01*
X11017142Y48080000D01*
X12088571Y46508572D02*
X12088571Y46222858D01*
X12017142Y46080000D01*
X11945714Y46008572D01*
X11731428Y45865715D01*
X11445714Y45794286D01*
X10874285Y45794286D01*
X10731428Y45865715D01*
X10660000Y45937143D01*
X10588571Y46080000D01*
X10588571Y46365715D01*
X10660000Y46508572D01*
X10731428Y46580000D01*
X10874285Y46651429D01*
X11231428Y46651429D01*
X11374285Y46580000D01*
X11445714Y46508572D01*
X11517142Y46365715D01*
X11517142Y46080000D01*
X11445714Y45937143D01*
X11374285Y45865715D01*
X11231428Y45794286D01*
X12088571Y44008572D02*
X10588571Y44008572D01*
X11302857Y44008572D02*
X11302857Y43151429D01*
X12088571Y43151429D02*
X10588571Y43151429D01*
X12088571Y42222858D02*
X12017142Y42365715D01*
X11945714Y42437143D01*
X11802857Y42508572D01*
X11374285Y42508572D01*
X11231428Y42437143D01*
X11160000Y42365715D01*
X11088571Y42222858D01*
X11088571Y42008572D01*
X11160000Y41865715D01*
X11231428Y41794286D01*
X11374285Y41722858D01*
X11802857Y41722858D01*
X11945714Y41794286D01*
X12017142Y41865715D01*
X12088571Y42008572D01*
X12088571Y42222858D01*
X11088571Y40437143D02*
X12302857Y40437143D01*
X12445714Y40508572D01*
X12517142Y40580000D01*
X12588571Y40722858D01*
X12588571Y40937143D01*
X12517142Y41080000D01*
X12017142Y40437143D02*
X12088571Y40580000D01*
X12088571Y40865715D01*
X12017142Y41008572D01*
X11945714Y41080000D01*
X11802857Y41151429D01*
X11374285Y41151429D01*
X11231428Y41080000D01*
X11160000Y41008572D01*
X11088571Y40865715D01*
X11088571Y40580000D01*
X11160000Y40437143D01*
X12088571Y39508572D02*
X12017142Y39651429D01*
X11874285Y39722858D01*
X10588571Y39722858D01*
X12017142Y38365715D02*
X12088571Y38508572D01*
X12088571Y38794286D01*
X12017142Y38937143D01*
X11874285Y39008572D01*
X11302857Y39008572D01*
X11160000Y38937143D01*
X11088571Y38794286D01*
X11088571Y38508572D01*
X11160000Y38365715D01*
X11302857Y38294286D01*
X11445714Y38294286D01*
X11588571Y39008572D01*
X11088571Y37865715D02*
X11088571Y37294286D01*
X10588571Y37651429D02*
X11874285Y37651429D01*
X12017142Y37580000D01*
X12088571Y37437143D01*
X12088571Y37294286D01*
X11517142Y35651429D02*
X11517142Y34508572D01*
X10588571Y32865715D02*
X12088571Y32365715D01*
X10588571Y31865715D01*
X12017142Y30794286D02*
X12088571Y30937143D01*
X12088571Y31222858D01*
X12017142Y31365715D01*
X11874285Y31437143D01*
X11302857Y31437143D01*
X11160000Y31365715D01*
X11088571Y31222858D01*
X11088571Y30937143D01*
X11160000Y30794286D01*
X11302857Y30722858D01*
X11445714Y30722858D01*
X11588571Y31437143D01*
X12088571Y30080000D02*
X11088571Y30080000D01*
X11374285Y30080000D02*
X11231428Y30008572D01*
X11160000Y29937143D01*
X11088571Y29794286D01*
X11088571Y29651429D01*
X12017142Y29222858D02*
X12088571Y29080000D01*
X12088571Y28794286D01*
X12017142Y28651429D01*
X11874285Y28580000D01*
X11802857Y28580000D01*
X11660000Y28651429D01*
X11588571Y28794286D01*
X11588571Y29008572D01*
X11517142Y29151429D01*
X11374285Y29222858D01*
X11302857Y29222858D01*
X11160000Y29151429D01*
X11088571Y29008572D01*
X11088571Y28794286D01*
X11160000Y28651429D01*
X12088571Y27937143D02*
X11088571Y27937143D01*
X10588571Y27937143D02*
X10660000Y28008572D01*
X10731428Y27937143D01*
X10660000Y27865715D01*
X10588571Y27937143D01*
X10731428Y27937143D01*
X12088571Y27008572D02*
X12017142Y27151429D01*
X11945714Y27222858D01*
X11802857Y27294286D01*
X11374285Y27294286D01*
X11231428Y27222858D01*
X11160000Y27151429D01*
X11088571Y27008572D01*
X11088571Y26794286D01*
X11160000Y26651429D01*
X11231428Y26580000D01*
X11374285Y26508572D01*
X11802857Y26508572D01*
X11945714Y26580000D01*
X12017142Y26651429D01*
X12088571Y26794286D01*
X12088571Y27008572D01*
X11088571Y25865715D02*
X12088571Y25865715D01*
X11231428Y25865715D02*
X11160000Y25794286D01*
X11088571Y25651429D01*
X11088571Y25437143D01*
X11160000Y25294286D01*
X11302857Y25222858D01*
X12088571Y25222858D01*
X12088571Y22580000D02*
X12088571Y23437143D01*
X12088571Y23008572D02*
X10588571Y23008572D01*
X10802857Y23151429D01*
X10945714Y23294286D01*
X11017142Y23437143D01*
X11945714Y21937143D02*
X12017142Y21865715D01*
X12088571Y21937143D01*
X12017142Y22008572D01*
X11945714Y21937143D01*
X12088571Y21937143D01*
X10588571Y20937143D02*
X10588571Y20794286D01*
X10660000Y20651429D01*
X10731428Y20580000D01*
X10874285Y20508572D01*
X11160000Y20437143D01*
X11517142Y20437143D01*
X11802857Y20508572D01*
X11945714Y20580000D01*
X12017142Y20651429D01*
X12088571Y20794286D01*
X12088571Y20937143D01*
X12017142Y21080000D01*
X11945714Y21151429D01*
X11802857Y21222858D01*
X11517142Y21294286D01*
X11160000Y21294286D01*
X10874285Y21222858D01*
X10731428Y21151429D01*
X10660000Y21080000D01*
X10588571Y20937143D01*
X10588571Y19508572D02*
X10588571Y19365715D01*
X10660000Y19222858D01*
X10731428Y19151429D01*
X10874285Y19080000D01*
X11160000Y19008572D01*
X11517142Y19008572D01*
X11802857Y19080000D01*
X11945714Y19151429D01*
X12017142Y19222858D01*
X12088571Y19365715D01*
X12088571Y19508572D01*
X12017142Y19651429D01*
X11945714Y19722858D01*
X11802857Y19794286D01*
X11517142Y19865715D01*
X11160000Y19865715D01*
X10874285Y19794286D01*
X10731428Y19722858D01*
X10660000Y19651429D01*
X10588571Y19508572D01*
D11*
X6731000Y14732000D02*
X13970000Y14732000D01*
D12*
X38911523Y37872143D02*
X38911523Y37991191D01*
X38852000Y38110239D01*
X38792476Y38169762D01*
X38673428Y38229286D01*
X38435333Y38288810D01*
X38137714Y38288810D01*
X37899619Y38229286D01*
X37780571Y38169762D01*
X37721047Y38110239D01*
X37661523Y37991191D01*
X37661523Y37872143D01*
X37721047Y37753096D01*
X37780571Y37693572D01*
X37899619Y37634048D01*
X38137714Y37574524D01*
X38435333Y37574524D01*
X38673428Y37634048D01*
X38792476Y37693572D01*
X38852000Y37753096D01*
X38911523Y37872143D01*
X37780571Y38824524D02*
X37721047Y38884048D01*
X37661523Y38824524D01*
X37721047Y38765000D01*
X37780571Y38824524D01*
X37661523Y38824524D01*
X37780571Y39419762D02*
X37721047Y39479286D01*
X37661523Y39419762D01*
X37721047Y39360239D01*
X37780571Y39419762D01*
X37661523Y39419762D01*
X37661523Y40015000D02*
X38911523Y40015000D01*
X37661523Y40610239D02*
X38911523Y40610239D01*
X38911523Y40907858D01*
X38852000Y41086429D01*
X38732952Y41205477D01*
X38613904Y41265000D01*
X38375809Y41324524D01*
X38197238Y41324524D01*
X37959142Y41265000D01*
X37840095Y41205477D01*
X37721047Y41086429D01*
X37661523Y40907858D01*
X37661523Y40610239D01*
X37780571Y41860239D02*
X37721047Y41919762D01*
X37661523Y41860239D01*
X37721047Y41800715D01*
X37780571Y41860239D01*
X37661523Y41860239D01*
X37780571Y42455477D02*
X37721047Y42515000D01*
X37661523Y42455477D01*
X37721047Y42395953D01*
X37780571Y42455477D01*
X37661523Y42455477D01*
X38911523Y42931667D02*
X38911523Y43705477D01*
X38435333Y43288810D01*
X38435333Y43467381D01*
X38375809Y43586429D01*
X38316285Y43645953D01*
X38197238Y43705477D01*
X37899619Y43705477D01*
X37780571Y43645953D01*
X37721047Y43586429D01*
X37661523Y43467381D01*
X37661523Y43110239D01*
X37721047Y42991191D01*
X37780571Y42931667D01*
D11*
X13970000Y59055000D02*
X6731000Y59055000D01*
X13970000Y14732000D02*
X13970000Y59055000D01*
X6731000Y59055000D02*
X6731000Y14732000D01*
X13335000Y3810000D02*
X15240000Y3810000D01*
X13335000Y6350000D02*
X15240000Y6350000D01*
D12*
X19834285Y3244524D02*
X19834285Y4494524D01*
X19417619Y3601667D01*
X19000952Y4494524D01*
X19000952Y3244524D01*
X18227142Y3244524D02*
X18346190Y3304048D01*
X18405714Y3363572D01*
X18465238Y3482620D01*
X18465238Y3839762D01*
X18405714Y3958810D01*
X18346190Y4018334D01*
X18227142Y4077858D01*
X18048571Y4077858D01*
X17929523Y4018334D01*
X17870000Y3958810D01*
X17810476Y3839762D01*
X17810476Y3482620D01*
X17870000Y3363572D01*
X17929523Y3304048D01*
X18048571Y3244524D01*
X18227142Y3244524D01*
X16739047Y3244524D02*
X16739047Y4494524D01*
X16739047Y3304048D02*
X16858095Y3244524D01*
X17096190Y3244524D01*
X17215238Y3304048D01*
X17274761Y3363572D01*
X17334285Y3482620D01*
X17334285Y3839762D01*
X17274761Y3958810D01*
X17215238Y4018334D01*
X17096190Y4077858D01*
X16858095Y4077858D01*
X16739047Y4018334D01*
X15667619Y3304048D02*
X15786666Y3244524D01*
X16024761Y3244524D01*
X16143809Y3304048D01*
X16203333Y3423096D01*
X16203333Y3899286D01*
X16143809Y4018334D01*
X16024761Y4077858D01*
X15786666Y4077858D01*
X15667619Y4018334D01*
X15608095Y3899286D01*
X15608095Y3780239D01*
X16203333Y3661191D01*
X18227142Y6975000D02*
X18346190Y7034524D01*
X18524761Y7034524D01*
X18703333Y6975000D01*
X18822380Y6855953D01*
X18881904Y6736905D01*
X18941428Y6498810D01*
X18941428Y6320239D01*
X18881904Y6082143D01*
X18822380Y5963096D01*
X18703333Y5844048D01*
X18524761Y5784524D01*
X18405714Y5784524D01*
X18227142Y5844048D01*
X18167619Y5903572D01*
X18167619Y6320239D01*
X18405714Y6320239D01*
X17631904Y5784524D02*
X17631904Y7034524D01*
X16917619Y5784524D01*
X16917619Y7034524D01*
X16322380Y5784524D02*
X16322380Y7034524D01*
X16024761Y7034524D01*
X15846190Y6975000D01*
X15727142Y6855953D01*
X15667619Y6736905D01*
X15608095Y6498810D01*
X15608095Y6320239D01*
X15667619Y6082143D01*
X15727142Y5963096D01*
X15846190Y5844048D01*
X16024761Y5784524D01*
X16322380Y5784524D01*
D11*
X36195000Y3810000D02*
X38100000Y3810000D01*
X36195000Y6350000D02*
X38100000Y6350000D01*
X36195000Y8890000D02*
X38100000Y8890000D01*
D12*
X35945952Y7034524D02*
X35231666Y7034524D01*
X35588809Y5784524D02*
X35588809Y7034524D01*
X34815000Y5784524D02*
X34815000Y6617858D01*
X34815000Y6379762D02*
X34755476Y6498810D01*
X34695952Y6558334D01*
X34576904Y6617858D01*
X34457857Y6617858D01*
X34041190Y5784524D02*
X34041190Y6617858D01*
X34041190Y7034524D02*
X34100714Y6975000D01*
X34041190Y6915477D01*
X33981666Y6975000D01*
X34041190Y7034524D01*
X34041190Y6915477D01*
X32910238Y6617858D02*
X32910238Y5605953D01*
X32969761Y5486905D01*
X33029285Y5427381D01*
X33148333Y5367858D01*
X33326904Y5367858D01*
X33445952Y5427381D01*
X32910238Y5844048D02*
X33029285Y5784524D01*
X33267380Y5784524D01*
X33386428Y5844048D01*
X33445952Y5903572D01*
X33505476Y6022620D01*
X33505476Y6379762D01*
X33445952Y6498810D01*
X33386428Y6558334D01*
X33267380Y6617858D01*
X33029285Y6617858D01*
X32910238Y6558334D01*
X32076904Y7034524D02*
X31957857Y7034524D01*
X31838809Y6975000D01*
X31779285Y6915477D01*
X31719761Y6796429D01*
X31660238Y6558334D01*
X31660238Y6260715D01*
X31719761Y6022620D01*
X31779285Y5903572D01*
X31838809Y5844048D01*
X31957857Y5784524D01*
X32076904Y5784524D01*
X32195952Y5844048D01*
X32255476Y5903572D01*
X32315000Y6022620D01*
X32374523Y6260715D01*
X32374523Y6558334D01*
X32315000Y6796429D01*
X32255476Y6915477D01*
X32195952Y6975000D01*
X32076904Y7034524D01*
X35112619Y4435000D02*
X35231666Y4494524D01*
X35410238Y4494524D01*
X35588809Y4435000D01*
X35707857Y4315953D01*
X35767380Y4196905D01*
X35826904Y3958810D01*
X35826904Y3780239D01*
X35767380Y3542143D01*
X35707857Y3423096D01*
X35588809Y3304048D01*
X35410238Y3244524D01*
X35291190Y3244524D01*
X35112619Y3304048D01*
X35053095Y3363572D01*
X35053095Y3780239D01*
X35291190Y3780239D01*
X34517380Y3244524D02*
X34517380Y4494524D01*
X33803095Y3244524D01*
X33803095Y4494524D01*
X33207857Y3244524D02*
X33207857Y4494524D01*
X32910238Y4494524D01*
X32731666Y4435000D01*
X32612619Y4315953D01*
X32553095Y4196905D01*
X32493571Y3958810D01*
X32493571Y3780239D01*
X32553095Y3542143D01*
X32612619Y3423096D01*
X32731666Y3304048D01*
X32910238Y3244524D01*
X33207857Y3244524D01*
X35945952Y9574524D02*
X35231666Y9574524D01*
X35588809Y8324524D02*
X35588809Y9574524D01*
X34815000Y8324524D02*
X34815000Y9157858D01*
X34815000Y8919762D02*
X34755476Y9038810D01*
X34695952Y9098334D01*
X34576904Y9157858D01*
X34457857Y9157858D01*
X34041190Y8324524D02*
X34041190Y9157858D01*
X34041190Y9574524D02*
X34100714Y9515000D01*
X34041190Y9455477D01*
X33981666Y9515000D01*
X34041190Y9574524D01*
X34041190Y9455477D01*
X32910238Y9157858D02*
X32910238Y8145953D01*
X32969761Y8026905D01*
X33029285Y7967381D01*
X33148333Y7907858D01*
X33326904Y7907858D01*
X33445952Y7967381D01*
X32910238Y8384048D02*
X33029285Y8324524D01*
X33267380Y8324524D01*
X33386428Y8384048D01*
X33445952Y8443572D01*
X33505476Y8562620D01*
X33505476Y8919762D01*
X33445952Y9038810D01*
X33386428Y9098334D01*
X33267380Y9157858D01*
X33029285Y9157858D01*
X32910238Y9098334D01*
X31660238Y8324524D02*
X32374523Y8324524D01*
X32017380Y8324524D02*
X32017380Y9574524D01*
X32136428Y9395953D01*
X32255476Y9276905D01*
X32374523Y9217381D01*
D11*
X19050000Y60960000D02*
X31750000Y60960000D01*
X19050000Y12700000D02*
X19050000Y60960000D01*
X31750000Y12700000D02*
X19050000Y12700000D01*
X31750000Y60960000D02*
X31750000Y12700000D01*
X26670000Y60960000D02*
G75*
G02X25400000Y59690000I-1270000J0D01*
G01*
X25400000Y59690000D02*
G75*
G02X24130000Y60960000I0J1270000D01*
G01*
D13*
X41013748Y45160000D02*
X41536252Y45160000D01*
X41013748Y43740000D02*
X41536252Y43740000D01*
X41013748Y42620000D02*
X41536252Y42620000D01*
X41013748Y41200000D02*
X41536252Y41200000D01*
X41013748Y40080000D02*
X41536252Y40080000D01*
X41013748Y38660000D02*
X41536252Y38660000D01*
X41013748Y37540000D02*
X41536252Y37540000D01*
X41013748Y36120000D02*
X41536252Y36120000D01*
X13335000Y7620000D02*
X12065000Y7620000D01*
X13335000Y6350000D02*
X13335000Y7620000D01*
X11022071Y3430000D02*
X10625000Y3430000D01*
X11022071Y4190000D02*
X10625000Y4190000D01*
X1965000Y3430000D02*
X7965000Y3430000D01*
X1965000Y4190000D02*
X1965000Y3430000D01*
X7965000Y4190000D02*
X1965000Y4190000D01*
X10625000Y5080000D02*
X7965000Y5080000D01*
X10955000Y5970000D02*
X10625000Y5970000D01*
X10955000Y6730000D02*
X10625000Y6730000D01*
X7965000Y6070000D02*
X1965000Y6070000D01*
X7965000Y6190000D02*
X1965000Y6190000D01*
X7965000Y6310000D02*
X1965000Y6310000D01*
X7965000Y6430000D02*
X1965000Y6430000D01*
X7965000Y6550000D02*
X1965000Y6550000D01*
X7965000Y6670000D02*
X1965000Y6670000D01*
X1965000Y5970000D02*
X7965000Y5970000D01*
X1965000Y6730000D02*
X1965000Y5970000D01*
X7965000Y6730000D02*
X1965000Y6730000D01*
X7965000Y7680000D02*
X10625000Y7680000D01*
X7965000Y2480000D02*
X7965000Y7680000D01*
X10625000Y2480000D02*
X7965000Y2480000D01*
X10625000Y7680000D02*
X10625000Y2480000D01*
X38100000Y2540000D02*
X39370000Y2540000D01*
X38100000Y3810000D02*
X38100000Y2540000D01*
X40412929Y9270000D02*
X40810000Y9270000D01*
X40412929Y8510000D02*
X40810000Y8510000D01*
X49470000Y9270000D02*
X43470000Y9270000D01*
X49470000Y8510000D02*
X49470000Y9270000D01*
X43470000Y8510000D02*
X49470000Y8510000D01*
X40810000Y7620000D02*
X43470000Y7620000D01*
X40412929Y6730000D02*
X40810000Y6730000D01*
X40412929Y5970000D02*
X40810000Y5970000D01*
X49470000Y6730000D02*
X43470000Y6730000D01*
X49470000Y5970000D02*
X49470000Y6730000D01*
X43470000Y5970000D02*
X49470000Y5970000D01*
X40810000Y5080000D02*
X43470000Y5080000D01*
X40480000Y4190000D02*
X40810000Y4190000D01*
X40480000Y3430000D02*
X40810000Y3430000D01*
X43470000Y4090000D02*
X49470000Y4090000D01*
X43470000Y3970000D02*
X49470000Y3970000D01*
X43470000Y3850000D02*
X49470000Y3850000D01*
X43470000Y3730000D02*
X49470000Y3730000D01*
X43470000Y3610000D02*
X49470000Y3610000D01*
X43470000Y3490000D02*
X49470000Y3490000D01*
X49470000Y4190000D02*
X43470000Y4190000D01*
X49470000Y3430000D02*
X49470000Y4190000D01*
X43470000Y3430000D02*
X49470000Y3430000D01*
X43470000Y2480000D02*
X40810000Y2480000D01*
X43470000Y10220000D02*
X43470000Y2480000D01*
X40810000Y10220000D02*
X43470000Y10220000D01*
X40810000Y2480000D02*
X40810000Y10220000D01*
D11*
X26161904Y63412620D02*
X26161904Y62603096D01*
X26114285Y62507858D01*
X26066666Y62460239D01*
X25971428Y62412620D01*
X25780952Y62412620D01*
X25685714Y62460239D01*
X25638095Y62507858D01*
X25590476Y62603096D01*
X25590476Y63412620D01*
X24590476Y62412620D02*
X25161904Y62412620D01*
X24876190Y62412620D02*
X24876190Y63412620D01*
X24971428Y63269762D01*
X25066666Y63174524D01*
X25161904Y63126905D01*
X41917857Y48061620D02*
X42251190Y48537810D01*
X42489285Y48061620D02*
X42489285Y49061620D01*
X42108333Y49061620D01*
X42013095Y49014000D01*
X41965476Y48966381D01*
X41917857Y48871143D01*
X41917857Y48728286D01*
X41965476Y48633048D01*
X42013095Y48585429D01*
X42108333Y48537810D01*
X42489285Y48537810D01*
X40965476Y48061620D02*
X41536904Y48061620D01*
X41251190Y48061620D02*
X41251190Y49061620D01*
X41346428Y48918762D01*
X41441666Y48823524D01*
X41536904Y48775905D01*
X40632142Y49061620D02*
X40013095Y49061620D01*
X40346428Y48680667D01*
X40203571Y48680667D01*
X40108333Y48633048D01*
X40060714Y48585429D01*
X40013095Y48490191D01*
X40013095Y48252096D01*
X40060714Y48156858D01*
X40108333Y48109239D01*
X40203571Y48061620D01*
X40489285Y48061620D01*
X40584523Y48109239D01*
X40632142Y48156858D01*
X41917857Y46156620D02*
X42251190Y46632810D01*
X42489285Y46156620D02*
X42489285Y47156620D01*
X42108333Y47156620D01*
X42013095Y47109000D01*
X41965476Y47061381D01*
X41917857Y46966143D01*
X41917857Y46823286D01*
X41965476Y46728048D01*
X42013095Y46680429D01*
X42108333Y46632810D01*
X42489285Y46632810D01*
X40965476Y46156620D02*
X41536904Y46156620D01*
X41251190Y46156620D02*
X41251190Y47156620D01*
X41346428Y47013762D01*
X41441666Y46918524D01*
X41536904Y46870905D01*
X40584523Y47061381D02*
X40536904Y47109000D01*
X40441666Y47156620D01*
X40203571Y47156620D01*
X40108333Y47109000D01*
X40060714Y47061381D01*
X40013095Y46966143D01*
X40013095Y46870905D01*
X40060714Y46728048D01*
X40632142Y46156620D01*
X40013095Y46156620D01*
X41917857Y34345620D02*
X42251190Y34821810D01*
X42489285Y34345620D02*
X42489285Y35345620D01*
X42108333Y35345620D01*
X42013095Y35298000D01*
X41965476Y35250381D01*
X41917857Y35155143D01*
X41917857Y35012286D01*
X41965476Y34917048D01*
X42013095Y34869429D01*
X42108333Y34821810D01*
X42489285Y34821810D01*
X40965476Y34345620D02*
X41536904Y34345620D01*
X41251190Y34345620D02*
X41251190Y35345620D01*
X41346428Y35202762D01*
X41441666Y35107524D01*
X41536904Y35059905D01*
X40013095Y34345620D02*
X40584523Y34345620D01*
X40298809Y34345620D02*
X40298809Y35345620D01*
X40394047Y35202762D01*
X40489285Y35107524D01*
X40584523Y35059905D01*
X41917857Y32440620D02*
X42251190Y32916810D01*
X42489285Y32440620D02*
X42489285Y33440620D01*
X42108333Y33440620D01*
X42013095Y33393000D01*
X41965476Y33345381D01*
X41917857Y33250143D01*
X41917857Y33107286D01*
X41965476Y33012048D01*
X42013095Y32964429D01*
X42108333Y32916810D01*
X42489285Y32916810D01*
X40965476Y32440620D02*
X41536904Y32440620D01*
X41251190Y32440620D02*
X41251190Y33440620D01*
X41346428Y33297762D01*
X41441666Y33202524D01*
X41536904Y33154905D01*
X40346428Y33440620D02*
X40251190Y33440620D01*
X40155952Y33393000D01*
X40108333Y33345381D01*
X40060714Y33250143D01*
X40013095Y33059667D01*
X40013095Y32821572D01*
X40060714Y32631096D01*
X40108333Y32535858D01*
X40155952Y32488239D01*
X40251190Y32440620D01*
X40346428Y32440620D01*
X40441666Y32488239D01*
X40489285Y32535858D01*
X40536904Y32631096D01*
X40584523Y32821572D01*
X40584523Y33059667D01*
X40536904Y33250143D01*
X40489285Y33345381D01*
X40441666Y33393000D01*
X40346428Y33440620D01*
X9556666Y8437620D02*
X10032857Y8437620D01*
X10032857Y9437620D01*
X9223333Y8437620D02*
X9223333Y9437620D01*
X8651904Y8437620D02*
X9080476Y9009048D01*
X8651904Y9437620D02*
X9223333Y8866191D01*
X7699523Y8437620D02*
X8270952Y8437620D01*
X7985238Y8437620D02*
X7985238Y9437620D01*
X8080476Y9294762D01*
X8175714Y9199524D01*
X8270952Y9151905D01*
X42648095Y10977620D02*
X42648095Y11977620D01*
X42267142Y11977620D01*
X42171904Y11930000D01*
X42124285Y11882381D01*
X42076666Y11787143D01*
X42076666Y11644286D01*
X42124285Y11549048D01*
X42171904Y11501429D01*
X42267142Y11453810D01*
X42648095Y11453810D01*
X41743333Y11977620D02*
X41124285Y11977620D01*
X41457619Y11596667D01*
X41314761Y11596667D01*
X41219523Y11549048D01*
X41171904Y11501429D01*
X41124285Y11406191D01*
X41124285Y11168096D01*
X41171904Y11072858D01*
X41219523Y11025239D01*
X41314761Y10977620D01*
X41600476Y10977620D01*
X41695714Y11025239D01*
X41743333Y11072858D01*
M02*
