G04 #@! TF.GenerationSoftware,KiCad,Pcbnew,5.1.4-e60b266~84~ubuntu18.04.1*
G04 #@! TF.CreationDate,2019-09-22T15:50:52+01:00*
G04 #@! TF.ProjectId,z80_adapter,7a38305f-6164-4617-9074-65722e6b6963,rev?*
G04 #@! TF.SameCoordinates,PX9fdfbc0PY791ddc0*
G04 #@! TF.FileFunction,Copper,L2,Bot*
G04 #@! TF.FilePolarity,Positive*
%FSLAX46Y46*%
G04 Gerber Fmt 4.6, Leading zero omitted, Abs format (unit mm)*
G04 Created by KiCad (PCBNEW 5.1.4-e60b266~84~ubuntu18.04.1) date 2019-09-22 15:50:52*
%MOMM*%
%LPD*%
G04 APERTURE LIST*
%ADD10R,3.500000X1.000000*%
%ADD11C,0.100000*%
%ADD12C,1.150000*%
%ADD13O,1.700000X1.700000*%
%ADD14R,1.700000X1.700000*%
%ADD15C,2.200000*%
%ADD16C,1.700000*%
%ADD17C,1.800000*%
%ADD18R,1.800000X1.800000*%
%ADD19C,0.800000*%
%ADD20C,0.600000*%
%ADD21C,0.400000*%
%ADD22C,0.250000*%
%ADD23C,0.800000*%
%ADD24C,0.254000*%
G04 APERTURE END LIST*
D10*
X34320000Y60960000D03*
X34320000Y58420000D03*
X34320000Y55880000D03*
X34320000Y53340000D03*
X34320000Y50800000D03*
X34320000Y48260000D03*
X34320000Y45720000D03*
X34320000Y43180000D03*
X34320000Y40640000D03*
X34320000Y38100000D03*
X34320000Y35560000D03*
X34320000Y33020000D03*
X34320000Y30480000D03*
X34320000Y27940000D03*
X34320000Y25400000D03*
X34320000Y22860000D03*
X34320000Y20320000D03*
X34320000Y17780000D03*
X34320000Y15240000D03*
X16480000Y12700000D03*
X16480000Y15240000D03*
X16480000Y17780000D03*
X16480000Y20320000D03*
X16480000Y22860000D03*
X16480000Y25400000D03*
X16480000Y27940000D03*
X16480000Y30480000D03*
X16480000Y33020000D03*
X16480000Y35560000D03*
X16480000Y38100000D03*
X16480000Y40640000D03*
X16480000Y43180000D03*
X16480000Y45720000D03*
X16480000Y48260000D03*
X16480000Y50800000D03*
X16480000Y53340000D03*
X16480000Y55880000D03*
X16480000Y58420000D03*
X16480000Y60960000D03*
X34320000Y12700000D03*
D11*
G36*
X42649505Y45148796D02*
G01*
X42673773Y45145196D01*
X42697572Y45139235D01*
X42720671Y45130970D01*
X42742850Y45120480D01*
X42763893Y45107868D01*
X42783599Y45093253D01*
X42801777Y45076777D01*
X42818253Y45058599D01*
X42832868Y45038893D01*
X42845480Y45017850D01*
X42855970Y44995671D01*
X42864235Y44972572D01*
X42870196Y44948773D01*
X42873796Y44924505D01*
X42875000Y44900001D01*
X42875000Y43999999D01*
X42873796Y43975495D01*
X42870196Y43951227D01*
X42864235Y43927428D01*
X42855970Y43904329D01*
X42845480Y43882150D01*
X42832868Y43861107D01*
X42818253Y43841401D01*
X42801777Y43823223D01*
X42783599Y43806747D01*
X42763893Y43792132D01*
X42742850Y43779520D01*
X42720671Y43769030D01*
X42697572Y43760765D01*
X42673773Y43754804D01*
X42649505Y43751204D01*
X42625001Y43750000D01*
X41974999Y43750000D01*
X41950495Y43751204D01*
X41926227Y43754804D01*
X41902428Y43760765D01*
X41879329Y43769030D01*
X41857150Y43779520D01*
X41836107Y43792132D01*
X41816401Y43806747D01*
X41798223Y43823223D01*
X41781747Y43841401D01*
X41767132Y43861107D01*
X41754520Y43882150D01*
X41744030Y43904329D01*
X41735765Y43927428D01*
X41729804Y43951227D01*
X41726204Y43975495D01*
X41725000Y43999999D01*
X41725000Y44900001D01*
X41726204Y44924505D01*
X41729804Y44948773D01*
X41735765Y44972572D01*
X41744030Y44995671D01*
X41754520Y45017850D01*
X41767132Y45038893D01*
X41781747Y45058599D01*
X41798223Y45076777D01*
X41816401Y45093253D01*
X41836107Y45107868D01*
X41857150Y45120480D01*
X41879329Y45130970D01*
X41902428Y45139235D01*
X41926227Y45145196D01*
X41950495Y45148796D01*
X41974999Y45150000D01*
X42625001Y45150000D01*
X42649505Y45148796D01*
X42649505Y45148796D01*
G37*
D12*
X42300000Y44450000D03*
D11*
G36*
X40599505Y45148796D02*
G01*
X40623773Y45145196D01*
X40647572Y45139235D01*
X40670671Y45130970D01*
X40692850Y45120480D01*
X40713893Y45107868D01*
X40733599Y45093253D01*
X40751777Y45076777D01*
X40768253Y45058599D01*
X40782868Y45038893D01*
X40795480Y45017850D01*
X40805970Y44995671D01*
X40814235Y44972572D01*
X40820196Y44948773D01*
X40823796Y44924505D01*
X40825000Y44900001D01*
X40825000Y43999999D01*
X40823796Y43975495D01*
X40820196Y43951227D01*
X40814235Y43927428D01*
X40805970Y43904329D01*
X40795480Y43882150D01*
X40782868Y43861107D01*
X40768253Y43841401D01*
X40751777Y43823223D01*
X40733599Y43806747D01*
X40713893Y43792132D01*
X40692850Y43779520D01*
X40670671Y43769030D01*
X40647572Y43760765D01*
X40623773Y43754804D01*
X40599505Y43751204D01*
X40575001Y43750000D01*
X39924999Y43750000D01*
X39900495Y43751204D01*
X39876227Y43754804D01*
X39852428Y43760765D01*
X39829329Y43769030D01*
X39807150Y43779520D01*
X39786107Y43792132D01*
X39766401Y43806747D01*
X39748223Y43823223D01*
X39731747Y43841401D01*
X39717132Y43861107D01*
X39704520Y43882150D01*
X39694030Y43904329D01*
X39685765Y43927428D01*
X39679804Y43951227D01*
X39676204Y43975495D01*
X39675000Y43999999D01*
X39675000Y44900001D01*
X39676204Y44924505D01*
X39679804Y44948773D01*
X39685765Y44972572D01*
X39694030Y44995671D01*
X39704520Y45017850D01*
X39717132Y45038893D01*
X39731747Y45058599D01*
X39748223Y45076777D01*
X39766401Y45093253D01*
X39786107Y45107868D01*
X39807150Y45120480D01*
X39829329Y45130970D01*
X39852428Y45139235D01*
X39876227Y45145196D01*
X39900495Y45148796D01*
X39924999Y45150000D01*
X40575001Y45150000D01*
X40599505Y45148796D01*
X40599505Y45148796D01*
G37*
D12*
X40250000Y44450000D03*
D11*
G36*
X42649505Y42608796D02*
G01*
X42673773Y42605196D01*
X42697572Y42599235D01*
X42720671Y42590970D01*
X42742850Y42580480D01*
X42763893Y42567868D01*
X42783599Y42553253D01*
X42801777Y42536777D01*
X42818253Y42518599D01*
X42832868Y42498893D01*
X42845480Y42477850D01*
X42855970Y42455671D01*
X42864235Y42432572D01*
X42870196Y42408773D01*
X42873796Y42384505D01*
X42875000Y42360001D01*
X42875000Y41459999D01*
X42873796Y41435495D01*
X42870196Y41411227D01*
X42864235Y41387428D01*
X42855970Y41364329D01*
X42845480Y41342150D01*
X42832868Y41321107D01*
X42818253Y41301401D01*
X42801777Y41283223D01*
X42783599Y41266747D01*
X42763893Y41252132D01*
X42742850Y41239520D01*
X42720671Y41229030D01*
X42697572Y41220765D01*
X42673773Y41214804D01*
X42649505Y41211204D01*
X42625001Y41210000D01*
X41974999Y41210000D01*
X41950495Y41211204D01*
X41926227Y41214804D01*
X41902428Y41220765D01*
X41879329Y41229030D01*
X41857150Y41239520D01*
X41836107Y41252132D01*
X41816401Y41266747D01*
X41798223Y41283223D01*
X41781747Y41301401D01*
X41767132Y41321107D01*
X41754520Y41342150D01*
X41744030Y41364329D01*
X41735765Y41387428D01*
X41729804Y41411227D01*
X41726204Y41435495D01*
X41725000Y41459999D01*
X41725000Y42360001D01*
X41726204Y42384505D01*
X41729804Y42408773D01*
X41735765Y42432572D01*
X41744030Y42455671D01*
X41754520Y42477850D01*
X41767132Y42498893D01*
X41781747Y42518599D01*
X41798223Y42536777D01*
X41816401Y42553253D01*
X41836107Y42567868D01*
X41857150Y42580480D01*
X41879329Y42590970D01*
X41902428Y42599235D01*
X41926227Y42605196D01*
X41950495Y42608796D01*
X41974999Y42610000D01*
X42625001Y42610000D01*
X42649505Y42608796D01*
X42649505Y42608796D01*
G37*
D12*
X42300000Y41910000D03*
D11*
G36*
X40599505Y42608796D02*
G01*
X40623773Y42605196D01*
X40647572Y42599235D01*
X40670671Y42590970D01*
X40692850Y42580480D01*
X40713893Y42567868D01*
X40733599Y42553253D01*
X40751777Y42536777D01*
X40768253Y42518599D01*
X40782868Y42498893D01*
X40795480Y42477850D01*
X40805970Y42455671D01*
X40814235Y42432572D01*
X40820196Y42408773D01*
X40823796Y42384505D01*
X40825000Y42360001D01*
X40825000Y41459999D01*
X40823796Y41435495D01*
X40820196Y41411227D01*
X40814235Y41387428D01*
X40805970Y41364329D01*
X40795480Y41342150D01*
X40782868Y41321107D01*
X40768253Y41301401D01*
X40751777Y41283223D01*
X40733599Y41266747D01*
X40713893Y41252132D01*
X40692850Y41239520D01*
X40670671Y41229030D01*
X40647572Y41220765D01*
X40623773Y41214804D01*
X40599505Y41211204D01*
X40575001Y41210000D01*
X39924999Y41210000D01*
X39900495Y41211204D01*
X39876227Y41214804D01*
X39852428Y41220765D01*
X39829329Y41229030D01*
X39807150Y41239520D01*
X39786107Y41252132D01*
X39766401Y41266747D01*
X39748223Y41283223D01*
X39731747Y41301401D01*
X39717132Y41321107D01*
X39704520Y41342150D01*
X39694030Y41364329D01*
X39685765Y41387428D01*
X39679804Y41411227D01*
X39676204Y41435495D01*
X39675000Y41459999D01*
X39675000Y42360001D01*
X39676204Y42384505D01*
X39679804Y42408773D01*
X39685765Y42432572D01*
X39694030Y42455671D01*
X39704520Y42477850D01*
X39717132Y42498893D01*
X39731747Y42518599D01*
X39748223Y42536777D01*
X39766401Y42553253D01*
X39786107Y42567868D01*
X39807150Y42580480D01*
X39829329Y42590970D01*
X39852428Y42599235D01*
X39876227Y42605196D01*
X39900495Y42608796D01*
X39924999Y42610000D01*
X40575001Y42610000D01*
X40599505Y42608796D01*
X40599505Y42608796D01*
G37*
D12*
X40250000Y41910000D03*
D11*
G36*
X42649505Y40068796D02*
G01*
X42673773Y40065196D01*
X42697572Y40059235D01*
X42720671Y40050970D01*
X42742850Y40040480D01*
X42763893Y40027868D01*
X42783599Y40013253D01*
X42801777Y39996777D01*
X42818253Y39978599D01*
X42832868Y39958893D01*
X42845480Y39937850D01*
X42855970Y39915671D01*
X42864235Y39892572D01*
X42870196Y39868773D01*
X42873796Y39844505D01*
X42875000Y39820001D01*
X42875000Y38919999D01*
X42873796Y38895495D01*
X42870196Y38871227D01*
X42864235Y38847428D01*
X42855970Y38824329D01*
X42845480Y38802150D01*
X42832868Y38781107D01*
X42818253Y38761401D01*
X42801777Y38743223D01*
X42783599Y38726747D01*
X42763893Y38712132D01*
X42742850Y38699520D01*
X42720671Y38689030D01*
X42697572Y38680765D01*
X42673773Y38674804D01*
X42649505Y38671204D01*
X42625001Y38670000D01*
X41974999Y38670000D01*
X41950495Y38671204D01*
X41926227Y38674804D01*
X41902428Y38680765D01*
X41879329Y38689030D01*
X41857150Y38699520D01*
X41836107Y38712132D01*
X41816401Y38726747D01*
X41798223Y38743223D01*
X41781747Y38761401D01*
X41767132Y38781107D01*
X41754520Y38802150D01*
X41744030Y38824329D01*
X41735765Y38847428D01*
X41729804Y38871227D01*
X41726204Y38895495D01*
X41725000Y38919999D01*
X41725000Y39820001D01*
X41726204Y39844505D01*
X41729804Y39868773D01*
X41735765Y39892572D01*
X41744030Y39915671D01*
X41754520Y39937850D01*
X41767132Y39958893D01*
X41781747Y39978599D01*
X41798223Y39996777D01*
X41816401Y40013253D01*
X41836107Y40027868D01*
X41857150Y40040480D01*
X41879329Y40050970D01*
X41902428Y40059235D01*
X41926227Y40065196D01*
X41950495Y40068796D01*
X41974999Y40070000D01*
X42625001Y40070000D01*
X42649505Y40068796D01*
X42649505Y40068796D01*
G37*
D12*
X42300000Y39370000D03*
D11*
G36*
X40599505Y40068796D02*
G01*
X40623773Y40065196D01*
X40647572Y40059235D01*
X40670671Y40050970D01*
X40692850Y40040480D01*
X40713893Y40027868D01*
X40733599Y40013253D01*
X40751777Y39996777D01*
X40768253Y39978599D01*
X40782868Y39958893D01*
X40795480Y39937850D01*
X40805970Y39915671D01*
X40814235Y39892572D01*
X40820196Y39868773D01*
X40823796Y39844505D01*
X40825000Y39820001D01*
X40825000Y38919999D01*
X40823796Y38895495D01*
X40820196Y38871227D01*
X40814235Y38847428D01*
X40805970Y38824329D01*
X40795480Y38802150D01*
X40782868Y38781107D01*
X40768253Y38761401D01*
X40751777Y38743223D01*
X40733599Y38726747D01*
X40713893Y38712132D01*
X40692850Y38699520D01*
X40670671Y38689030D01*
X40647572Y38680765D01*
X40623773Y38674804D01*
X40599505Y38671204D01*
X40575001Y38670000D01*
X39924999Y38670000D01*
X39900495Y38671204D01*
X39876227Y38674804D01*
X39852428Y38680765D01*
X39829329Y38689030D01*
X39807150Y38699520D01*
X39786107Y38712132D01*
X39766401Y38726747D01*
X39748223Y38743223D01*
X39731747Y38761401D01*
X39717132Y38781107D01*
X39704520Y38802150D01*
X39694030Y38824329D01*
X39685765Y38847428D01*
X39679804Y38871227D01*
X39676204Y38895495D01*
X39675000Y38919999D01*
X39675000Y39820001D01*
X39676204Y39844505D01*
X39679804Y39868773D01*
X39685765Y39892572D01*
X39694030Y39915671D01*
X39704520Y39937850D01*
X39717132Y39958893D01*
X39731747Y39978599D01*
X39748223Y39996777D01*
X39766401Y40013253D01*
X39786107Y40027868D01*
X39807150Y40040480D01*
X39829329Y40050970D01*
X39852428Y40059235D01*
X39876227Y40065196D01*
X39900495Y40068796D01*
X39924999Y40070000D01*
X40575001Y40070000D01*
X40599505Y40068796D01*
X40599505Y40068796D01*
G37*
D12*
X40250000Y39370000D03*
D11*
G36*
X42649505Y37528796D02*
G01*
X42673773Y37525196D01*
X42697572Y37519235D01*
X42720671Y37510970D01*
X42742850Y37500480D01*
X42763893Y37487868D01*
X42783599Y37473253D01*
X42801777Y37456777D01*
X42818253Y37438599D01*
X42832868Y37418893D01*
X42845480Y37397850D01*
X42855970Y37375671D01*
X42864235Y37352572D01*
X42870196Y37328773D01*
X42873796Y37304505D01*
X42875000Y37280001D01*
X42875000Y36379999D01*
X42873796Y36355495D01*
X42870196Y36331227D01*
X42864235Y36307428D01*
X42855970Y36284329D01*
X42845480Y36262150D01*
X42832868Y36241107D01*
X42818253Y36221401D01*
X42801777Y36203223D01*
X42783599Y36186747D01*
X42763893Y36172132D01*
X42742850Y36159520D01*
X42720671Y36149030D01*
X42697572Y36140765D01*
X42673773Y36134804D01*
X42649505Y36131204D01*
X42625001Y36130000D01*
X41974999Y36130000D01*
X41950495Y36131204D01*
X41926227Y36134804D01*
X41902428Y36140765D01*
X41879329Y36149030D01*
X41857150Y36159520D01*
X41836107Y36172132D01*
X41816401Y36186747D01*
X41798223Y36203223D01*
X41781747Y36221401D01*
X41767132Y36241107D01*
X41754520Y36262150D01*
X41744030Y36284329D01*
X41735765Y36307428D01*
X41729804Y36331227D01*
X41726204Y36355495D01*
X41725000Y36379999D01*
X41725000Y37280001D01*
X41726204Y37304505D01*
X41729804Y37328773D01*
X41735765Y37352572D01*
X41744030Y37375671D01*
X41754520Y37397850D01*
X41767132Y37418893D01*
X41781747Y37438599D01*
X41798223Y37456777D01*
X41816401Y37473253D01*
X41836107Y37487868D01*
X41857150Y37500480D01*
X41879329Y37510970D01*
X41902428Y37519235D01*
X41926227Y37525196D01*
X41950495Y37528796D01*
X41974999Y37530000D01*
X42625001Y37530000D01*
X42649505Y37528796D01*
X42649505Y37528796D01*
G37*
D12*
X42300000Y36830000D03*
D11*
G36*
X40599505Y37528796D02*
G01*
X40623773Y37525196D01*
X40647572Y37519235D01*
X40670671Y37510970D01*
X40692850Y37500480D01*
X40713893Y37487868D01*
X40733599Y37473253D01*
X40751777Y37456777D01*
X40768253Y37438599D01*
X40782868Y37418893D01*
X40795480Y37397850D01*
X40805970Y37375671D01*
X40814235Y37352572D01*
X40820196Y37328773D01*
X40823796Y37304505D01*
X40825000Y37280001D01*
X40825000Y36379999D01*
X40823796Y36355495D01*
X40820196Y36331227D01*
X40814235Y36307428D01*
X40805970Y36284329D01*
X40795480Y36262150D01*
X40782868Y36241107D01*
X40768253Y36221401D01*
X40751777Y36203223D01*
X40733599Y36186747D01*
X40713893Y36172132D01*
X40692850Y36159520D01*
X40670671Y36149030D01*
X40647572Y36140765D01*
X40623773Y36134804D01*
X40599505Y36131204D01*
X40575001Y36130000D01*
X39924999Y36130000D01*
X39900495Y36131204D01*
X39876227Y36134804D01*
X39852428Y36140765D01*
X39829329Y36149030D01*
X39807150Y36159520D01*
X39786107Y36172132D01*
X39766401Y36186747D01*
X39748223Y36203223D01*
X39731747Y36221401D01*
X39717132Y36241107D01*
X39704520Y36262150D01*
X39694030Y36284329D01*
X39685765Y36307428D01*
X39679804Y36331227D01*
X39676204Y36355495D01*
X39675000Y36379999D01*
X39675000Y37280001D01*
X39676204Y37304505D01*
X39679804Y37328773D01*
X39685765Y37352572D01*
X39694030Y37375671D01*
X39704520Y37397850D01*
X39717132Y37418893D01*
X39731747Y37438599D01*
X39748223Y37456777D01*
X39766401Y37473253D01*
X39786107Y37487868D01*
X39807150Y37500480D01*
X39829329Y37510970D01*
X39852428Y37519235D01*
X39876227Y37525196D01*
X39900495Y37528796D01*
X39924999Y37530000D01*
X40575001Y37530000D01*
X40599505Y37528796D01*
X40599505Y37528796D01*
G37*
D12*
X40250000Y36830000D03*
D13*
X12065000Y3810000D03*
D14*
X12065000Y6350000D03*
D13*
X39370000Y8890000D03*
X39370000Y6350000D03*
D14*
X39370000Y3810000D03*
D15*
X47605000Y71795000D03*
X40605000Y71795000D03*
D16*
X46355000Y74295000D03*
X41855000Y74295000D03*
D15*
X10004500Y71795000D03*
X3004500Y71795000D03*
D16*
X8754500Y74295000D03*
X4254500Y74295000D03*
D17*
X18415000Y74295000D03*
D18*
X20955000Y74295000D03*
D17*
X23495000Y74295000D03*
D18*
X26035000Y74295000D03*
D17*
X13335000Y74295000D03*
D18*
X15875000Y74295000D03*
D13*
X2540000Y12700000D03*
X5080000Y12700000D03*
X2540000Y15240000D03*
X5080000Y15240000D03*
X2540000Y17780000D03*
X5080000Y17780000D03*
X2540000Y20320000D03*
X5080000Y20320000D03*
X2540000Y22860000D03*
X5080000Y22860000D03*
X2540000Y25400000D03*
X5080000Y25400000D03*
X2540000Y27940000D03*
X5080000Y27940000D03*
X2540000Y30480000D03*
X5080000Y30480000D03*
X2540000Y33020000D03*
X5080000Y33020000D03*
X2540000Y35560000D03*
X5080000Y35560000D03*
X2540000Y38100000D03*
X5080000Y38100000D03*
X2540000Y40640000D03*
X5080000Y40640000D03*
X2540000Y43180000D03*
X5080000Y43180000D03*
X2540000Y45720000D03*
X5080000Y45720000D03*
X2540000Y48260000D03*
X5080000Y48260000D03*
X2540000Y50800000D03*
X5080000Y50800000D03*
X2540000Y53340000D03*
X5080000Y53340000D03*
X2540000Y55880000D03*
X5080000Y55880000D03*
X2540000Y58420000D03*
X5080000Y58420000D03*
X2540000Y60960000D03*
D14*
X5080000Y60960000D03*
D13*
X48260000Y60960000D03*
X45720000Y60960000D03*
X48260000Y58420000D03*
X45720000Y58420000D03*
X48260000Y55880000D03*
X45720000Y55880000D03*
X48260000Y53340000D03*
X45720000Y53340000D03*
X48260000Y50800000D03*
X45720000Y50800000D03*
X48260000Y48260000D03*
X45720000Y48260000D03*
X48260000Y45720000D03*
X45720000Y45720000D03*
X48260000Y43180000D03*
X45720000Y43180000D03*
X48260000Y40640000D03*
X45720000Y40640000D03*
X48260000Y38100000D03*
X45720000Y38100000D03*
X48260000Y35560000D03*
X45720000Y35560000D03*
X48260000Y33020000D03*
X45720000Y33020000D03*
X48260000Y30480000D03*
X45720000Y30480000D03*
X48260000Y27940000D03*
X45720000Y27940000D03*
X48260000Y25400000D03*
X45720000Y25400000D03*
X48260000Y22860000D03*
X45720000Y22860000D03*
X48260000Y20320000D03*
X45720000Y20320000D03*
X48260000Y17780000D03*
X45720000Y17780000D03*
X48260000Y15240000D03*
X45720000Y15240000D03*
X48260000Y12700000D03*
D14*
X45720000Y12700000D03*
D19*
X40005000Y29210000D03*
X24130000Y13970000D03*
X26670000Y57785000D03*
X40005000Y47625000D03*
X10795000Y24765000D03*
X20955000Y3810000D03*
X10795000Y61595000D03*
X40640000Y45720000D03*
X27305000Y29210000D03*
X27305000Y30480000D03*
X26670000Y39370000D03*
X23495000Y24765000D03*
X23495000Y23495000D03*
X40259000Y40640000D03*
X27305000Y12065000D03*
X27305000Y10795000D03*
X27305000Y47625000D03*
X19685000Y60325000D03*
X19685000Y61595000D03*
X24130000Y57785000D03*
X42545000Y58928000D03*
X10160000Y26670000D03*
X40005000Y10795000D03*
X11430000Y8890000D03*
X23495000Y43180000D03*
X23495000Y41910000D03*
X24130000Y33020000D03*
X26670000Y21590000D03*
X10160000Y51435000D03*
X9906000Y43180000D03*
X24130000Y50546000D03*
X27305000Y48895000D03*
X40640000Y20955000D03*
D20*
X19685000Y34290000D03*
X19685000Y36830000D03*
X19685000Y38100000D03*
X20320000Y40639994D03*
X19707859Y39392861D03*
X19685000Y35560000D03*
X20320000Y31750000D03*
X19685000Y33020000D03*
D19*
X32512000Y24130000D03*
X32512000Y26670000D03*
X38100000Y26670000D03*
X17272000Y46990000D03*
X18288000Y44450000D03*
X13208000Y45212000D03*
X27305000Y8890000D03*
X27305000Y4445000D03*
X17780000Y34544000D03*
X18288000Y46990000D03*
X17272000Y44450000D03*
X39116000Y26670000D03*
X33528000Y26670000D03*
X33528000Y24130000D03*
X17780000Y36576000D03*
X13208000Y46228000D03*
D20*
X31115000Y57150000D03*
X31115000Y54610000D03*
X30480000Y45085000D03*
X31115000Y45720000D03*
X30480000Y46355000D03*
X31115000Y48895000D03*
X31115000Y50800000D03*
X31115000Y53340000D03*
X31115000Y55880000D03*
X31115000Y58420000D03*
X31115000Y59690000D03*
X19685000Y59055000D03*
X19685000Y57785000D03*
X19685000Y55245000D03*
X19685000Y52705000D03*
X19685000Y50165000D03*
X26035000Y12065000D03*
X28575000Y4445000D03*
X26035000Y4445000D03*
X25908000Y10795000D03*
X19685000Y27305000D03*
X13335000Y26670000D03*
X31115000Y30480000D03*
X31115000Y29210000D03*
X31115000Y22225000D03*
X31115000Y20955000D03*
X31115000Y19685000D03*
X31115000Y18415000D03*
X31115000Y17145000D03*
X19685000Y13335000D03*
X19685000Y14605000D03*
X19685000Y24765000D03*
X19685000Y20320000D03*
X19685000Y22860000D03*
X22225000Y26035000D03*
X31115000Y15875000D03*
D21*
X2540000Y48260000D02*
X3810000Y49530000D01*
X7302500Y48577500D02*
X7620000Y48895000D01*
X6350000Y49530000D02*
X7302500Y48577500D01*
X3810000Y49530000D02*
X6350000Y49530000D01*
X2540000Y25400000D02*
X3810000Y26670000D01*
X3810000Y26670000D02*
X7620000Y26670000D01*
X7620000Y24130000D02*
X7620000Y26670000D01*
X2540000Y25400000D02*
X3810000Y24130000D01*
X3810000Y24130000D02*
X7620000Y24130000D01*
X42545000Y46990000D02*
X46990000Y46990000D01*
X46990000Y46990000D02*
X48260000Y48260000D01*
X48260000Y48260000D02*
X46990000Y49530000D01*
X46990000Y49530000D02*
X42545000Y49530000D01*
X7620000Y48895000D02*
X6985000Y48260000D01*
X6985000Y48260000D02*
X6985000Y46990000D01*
X3810000Y46990000D02*
X2540000Y48260000D01*
X6985000Y46990000D02*
X3810000Y46990000D01*
X42545000Y49530000D02*
X42545000Y46990000D01*
X48260000Y25400000D02*
X46990000Y24130000D01*
X46990000Y24130000D02*
X43180000Y24130000D01*
X48260000Y25400000D02*
X46990000Y26670000D01*
X46990000Y26670000D02*
X43180000Y26670000D01*
X41910000Y29210000D02*
X40005000Y29210000D01*
X43180000Y26670000D02*
X43180000Y27940000D01*
X43180000Y27940000D02*
X41910000Y29210000D01*
X43180000Y24130000D02*
X43180000Y26670000D01*
X12065000Y7620000D02*
X12065000Y6350000D01*
X10795000Y24130000D02*
X7620000Y24130000D01*
X10795000Y24765000D02*
X10795000Y24130000D01*
X20955000Y7620000D02*
X20955000Y3810000D01*
X12065000Y7620000D02*
X24130000Y7620000D01*
X40640000Y45720000D02*
X40640000Y47625000D01*
X40640000Y47625000D02*
X40005000Y47625000D01*
X42545000Y47625000D02*
X40640000Y47625000D01*
X26670000Y48260000D02*
X27305000Y48260000D01*
X24130000Y57785000D02*
X26670000Y57785000D01*
X27305000Y29210000D02*
X27305000Y30480000D01*
X26670000Y39370000D02*
X24130000Y39370000D01*
X23495000Y24765000D02*
X23495000Y23495000D01*
X23495000Y25400000D02*
X27305000Y29210000D01*
X23495000Y24765000D02*
X23495000Y25400000D01*
X40250000Y40649000D02*
X40250000Y41910000D01*
X40259000Y40640000D02*
X40250000Y40649000D01*
X40250000Y40631000D02*
X40250000Y39370000D01*
X40259000Y40640000D02*
X40250000Y40631000D01*
X24130000Y13970000D02*
X24130000Y7620000D01*
X24130000Y13970000D02*
X24130000Y21590000D01*
X23495000Y23495000D02*
X23495000Y22225000D01*
X23495000Y22225000D02*
X24130000Y21590000D01*
X19685000Y60325000D02*
X19685000Y61595000D01*
X42545000Y58928000D02*
X42545000Y49530000D01*
X10795000Y26670000D02*
X10795000Y24765000D01*
X10160000Y26670000D02*
X10795000Y26670000D01*
X39370000Y3810000D02*
X40005000Y3810000D01*
X39370000Y3810000D02*
X41275000Y3810000D01*
X41275000Y3810000D02*
X41275000Y10795000D01*
X41275000Y10795000D02*
X40005000Y10795000D01*
X11430000Y8890000D02*
X11430000Y8255000D01*
X11430000Y8255000D02*
X12065000Y7620000D01*
X23495000Y45085000D02*
X26670000Y48260000D01*
X23495000Y43180000D02*
X23495000Y45085000D01*
X23495000Y41910000D02*
X23495000Y43180000D01*
X24130000Y41275000D02*
X23495000Y41910000D01*
X24130000Y39370000D02*
X24130000Y41275000D01*
X27305000Y10795000D02*
X27305000Y12065000D01*
X24130000Y13970000D02*
X27305000Y13970000D01*
X27305000Y13970000D02*
X27305000Y12065000D01*
X24130000Y33020000D02*
X24130000Y39370000D01*
X26035000Y30480000D02*
X27305000Y30480000D01*
X24130000Y33020000D02*
X26035000Y30480000D01*
X26670000Y21590000D02*
X24130000Y21590000D01*
X10160000Y60960000D02*
X10795000Y61595000D01*
X10160000Y51435000D02*
X10160000Y60960000D01*
X10160000Y51435000D02*
X7620000Y48895000D01*
X7620000Y46355000D02*
X6985000Y46990000D01*
X9906000Y43180000D02*
X7620000Y45466000D01*
X7620000Y45466000D02*
X7620000Y46355000D01*
X24130000Y50546000D02*
X24130000Y57785000D01*
X26416000Y48260000D02*
X26670000Y48260000D01*
X24130000Y50546000D02*
X26416000Y48260000D01*
X27305000Y47625000D02*
X27305000Y48895000D01*
X43180000Y23495000D02*
X43180000Y24130000D01*
X40640000Y20955000D02*
X43180000Y23495000D01*
D22*
X19050000Y31750000D02*
X19050000Y33655000D01*
X17780000Y30480000D02*
X19050000Y31750000D01*
X19050000Y33655000D02*
X19685000Y34290000D01*
X17780000Y38100000D02*
X18415000Y38100000D01*
X18415000Y38100000D02*
X19685000Y36830000D01*
X19050000Y38735000D02*
X19685000Y38100000D01*
X17780000Y40640000D02*
X18415000Y40640000D01*
X18415000Y40640000D02*
X19050000Y40005000D01*
X19050000Y40005000D02*
X19050000Y38735000D01*
X19050000Y43180000D02*
X20320000Y41910000D01*
X19050000Y45085000D02*
X19050000Y43180000D01*
X20320000Y41910000D02*
X20320000Y40639994D01*
X17780000Y45720000D02*
X18415000Y45720000D01*
X18415000Y45720000D02*
X19050000Y45085000D01*
X19685000Y39415720D02*
X19707859Y39392861D01*
X17780000Y43180000D02*
X19685000Y41275000D01*
X19685000Y41275000D02*
X19685000Y39415720D01*
X17780000Y33020000D02*
X18415000Y33020000D01*
X18599990Y34474990D02*
X19685000Y35560000D01*
X18599990Y33204990D02*
X18599990Y34474990D01*
X18415000Y33020000D02*
X18599990Y33204990D01*
X20320000Y31750000D02*
X20320000Y26670000D01*
X19050000Y25400000D02*
X17780000Y25400000D01*
X20320000Y26670000D02*
X19050000Y25400000D01*
X19685000Y29845000D02*
X19685000Y33020000D01*
X17780000Y27940000D02*
X19685000Y29845000D01*
X27305000Y4445000D02*
X27305000Y8890000D01*
D23*
X17780000Y34544000D02*
X17780000Y35560000D01*
X38100000Y26670000D02*
X39116000Y26670000D01*
X38100000Y26670000D02*
X32512000Y26670000D01*
X36830000Y24130000D02*
X32512000Y24130000D01*
X38100000Y26670000D02*
X38100000Y25400000D01*
X38100000Y25400000D02*
X36830000Y24130000D01*
X17780000Y35560000D02*
X17780000Y36576000D01*
X13970000Y44450000D02*
X18288000Y44450000D01*
X18288000Y46990000D02*
X13970000Y46990000D01*
X13970000Y46990000D02*
X13208000Y46228000D01*
X13208000Y45212000D02*
X13970000Y44450000D01*
D22*
X36195000Y35560000D02*
X33020000Y35560000D01*
X37465000Y36830000D02*
X36195000Y35560000D01*
X31115000Y57150000D02*
X36830000Y57150000D01*
X37465000Y56515000D02*
X37465000Y36830000D01*
X36830000Y57150000D02*
X37465000Y56515000D01*
X36830000Y38735000D02*
X36195000Y38100000D01*
X31115000Y54610000D02*
X36195000Y54610000D01*
X36195000Y38100000D02*
X33020000Y38100000D01*
X36830000Y53975000D02*
X36830000Y38735000D01*
X36195000Y54610000D02*
X36830000Y53975000D01*
X32385000Y40640000D02*
X33020000Y40640000D01*
X30480000Y45085000D02*
X30480000Y42545000D01*
X30480000Y42545000D02*
X32385000Y40640000D01*
X31750000Y43180000D02*
X33020000Y43180000D01*
X31115000Y45720000D02*
X31115000Y43815000D01*
X31115000Y43815000D02*
X31750000Y43180000D01*
X32385000Y45720000D02*
X33020000Y45720000D01*
X31750000Y46355000D02*
X32385000Y45720000D01*
X30480000Y46355000D02*
X31750000Y46355000D01*
X33020000Y48260000D02*
X31750000Y48260000D01*
X31115000Y48895000D02*
X31750000Y48260000D01*
X31115000Y50800000D02*
X33020000Y50800000D01*
X31115000Y53340000D02*
X33020000Y53340000D01*
X33020000Y55880000D02*
X31115000Y55880000D01*
X31115000Y58420000D02*
X33020000Y58420000D01*
X31750000Y59690000D02*
X33020000Y60960000D01*
X31115000Y59690000D02*
X31750000Y59690000D01*
X19685000Y59055000D02*
X17780000Y60960000D01*
X19050000Y58420000D02*
X17780000Y58420000D01*
X19685000Y57785000D02*
X19050000Y58420000D01*
X19050000Y55880000D02*
X17780000Y55880000D01*
X19685000Y55245000D02*
X19050000Y55880000D01*
X19050000Y53340000D02*
X17780000Y53340000D01*
X19685000Y52705000D02*
X19050000Y53340000D01*
X19050000Y50800000D02*
X17780000Y50800000D01*
X19685000Y50165000D02*
X19050000Y50800000D01*
X27940000Y5080000D02*
X28575000Y4445000D01*
X27940000Y7620000D02*
X27940000Y5080000D01*
X28575000Y8255000D02*
X27940000Y7620000D01*
X26543000Y11557000D02*
X26543000Y10287000D01*
X26035000Y12065000D02*
X26543000Y11557000D01*
X26543000Y10287000D02*
X27178000Y9652000D01*
X27178000Y9652000D02*
X27813000Y9652000D01*
X27813000Y9652000D02*
X28575000Y8890000D01*
X28575000Y8890000D02*
X28575000Y8255000D01*
X26543000Y4953000D02*
X26035000Y4445000D01*
X26543000Y9017000D02*
X26543000Y4953000D01*
X25908000Y10795000D02*
X25908000Y9652000D01*
X25908000Y9652000D02*
X26543000Y9017000D01*
X19050000Y26670000D02*
X19685000Y27305000D01*
X13335000Y26670000D02*
X19050000Y26670000D01*
X45720000Y45720000D02*
X44450000Y45720000D01*
X43180000Y44450000D02*
X42300000Y44450000D01*
X44450000Y45720000D02*
X43180000Y44450000D01*
X46990000Y44450000D02*
X48260000Y45720000D01*
X45085000Y44450000D02*
X46990000Y44450000D01*
X44450000Y43815000D02*
X45085000Y44450000D01*
X42300000Y41910000D02*
X43180000Y41910000D01*
X44450000Y43180000D02*
X44450000Y43815000D01*
X43180000Y41910000D02*
X44450000Y43180000D01*
X43815000Y39370000D02*
X42300000Y39370000D01*
X45720000Y43180000D02*
X44450000Y41910000D01*
X44450000Y40005000D02*
X43815000Y39370000D01*
X44450000Y41910000D02*
X44450000Y40005000D01*
X46990000Y41910000D02*
X48260000Y43180000D01*
X46990000Y37465000D02*
X46990000Y41910000D01*
X42300000Y36830000D02*
X46355000Y36830000D01*
X46355000Y36830000D02*
X46990000Y37465000D01*
X33020000Y30480000D02*
X31115000Y30480000D01*
X31115000Y29210000D02*
X32385000Y27940000D01*
X32385000Y27940000D02*
X33020000Y27940000D01*
X31750000Y25400000D02*
X33020000Y25400000D01*
X31115000Y24765000D02*
X31750000Y25400000D01*
X31115000Y22225000D02*
X31115000Y24765000D01*
X31115000Y20955000D02*
X31750000Y21590000D01*
X31750000Y21590000D02*
X31750000Y22225000D01*
X31750000Y22225000D02*
X32385000Y22860000D01*
X32385000Y22860000D02*
X33020000Y22860000D01*
X32385000Y19685000D02*
X33020000Y20320000D01*
X31115000Y19685000D02*
X32385000Y19685000D01*
X31750000Y17780000D02*
X33020000Y17780000D01*
X31115000Y18415000D02*
X31750000Y17780000D01*
X31115000Y17145000D02*
X33020000Y15240000D01*
X19050000Y12700000D02*
X19685000Y13335000D01*
X17780000Y12700000D02*
X19050000Y12700000D01*
X19050000Y15240000D02*
X17780000Y15240000D01*
X19685000Y14605000D02*
X19050000Y15240000D01*
X17780000Y17780000D02*
X19685000Y17780000D01*
X19685000Y17780000D02*
X20320000Y18415000D01*
X20320000Y18415000D02*
X20320000Y24130000D01*
X20320000Y24130000D02*
X19685000Y24765000D01*
X17780000Y20320000D02*
X19685000Y20320000D01*
X19685000Y22860000D02*
X17780000Y22860000D01*
X20955000Y42545000D02*
X20955000Y27305000D01*
X19685000Y43815000D02*
X20955000Y42545000D01*
X20955000Y27305000D02*
X22225000Y26035000D01*
X19685000Y46990000D02*
X19685000Y43815000D01*
X17780000Y48260000D02*
X18415000Y48260000D01*
X18415000Y48260000D02*
X19685000Y46990000D01*
X32385000Y12700000D02*
X33020000Y12700000D01*
X31750000Y13335000D02*
X32385000Y12700000D01*
X31750000Y15240000D02*
X31750000Y13335000D01*
X31115000Y15875000D02*
X31750000Y15240000D01*
D24*
G36*
X49201000Y72475689D02*
G01*
X49142537Y72616831D01*
X48952663Y72900998D01*
X48710998Y73142663D01*
X48426831Y73332537D01*
X48111081Y73463325D01*
X47775883Y73530000D01*
X47629838Y73530000D01*
X47670990Y73591589D01*
X47782932Y73861842D01*
X47840000Y74148740D01*
X47840000Y74441260D01*
X47782932Y74728158D01*
X47670990Y74998411D01*
X47508475Y75241632D01*
X47301632Y75448475D01*
X47058411Y75610990D01*
X46788158Y75722932D01*
X46501260Y75780000D01*
X46208740Y75780000D01*
X45921842Y75722932D01*
X45651589Y75610990D01*
X45408368Y75448475D01*
X45201525Y75241632D01*
X45039010Y74998411D01*
X44927068Y74728158D01*
X44870000Y74441260D01*
X44870000Y74148740D01*
X44927068Y73861842D01*
X45039010Y73591589D01*
X45201525Y73348368D01*
X45408368Y73141525D01*
X45651589Y72979010D01*
X45921842Y72867068D01*
X46197966Y72812143D01*
X46067463Y72616831D01*
X45936675Y72301081D01*
X45870000Y71965883D01*
X45870000Y71624117D01*
X45936675Y71288919D01*
X46067463Y70973169D01*
X46257337Y70689002D01*
X46499002Y70447337D01*
X46783169Y70257463D01*
X47098919Y70126675D01*
X47434117Y70060000D01*
X47775883Y70060000D01*
X48111081Y70126675D01*
X48426831Y70257463D01*
X48710998Y70447337D01*
X48952663Y70689002D01*
X49142537Y70973169D01*
X49201000Y71114311D01*
X49201000Y62108801D01*
X49089014Y62200706D01*
X48831034Y62338599D01*
X48551111Y62423513D01*
X48332950Y62445000D01*
X48187050Y62445000D01*
X47968889Y62423513D01*
X47688966Y62338599D01*
X47430986Y62200706D01*
X47204866Y62015134D01*
X47019294Y61789014D01*
X46990000Y61734209D01*
X46960706Y61789014D01*
X46775134Y62015134D01*
X46549014Y62200706D01*
X46291034Y62338599D01*
X46011111Y62423513D01*
X45792950Y62445000D01*
X45647050Y62445000D01*
X45428889Y62423513D01*
X45148966Y62338599D01*
X44890986Y62200706D01*
X44664866Y62015134D01*
X44479294Y61789014D01*
X44341401Y61531034D01*
X44256487Y61251111D01*
X44227815Y60960000D01*
X44256487Y60668889D01*
X44341401Y60388966D01*
X44479294Y60130986D01*
X44664866Y59904866D01*
X44890986Y59719294D01*
X44945791Y59690000D01*
X44890986Y59660706D01*
X44664866Y59475134D01*
X44479294Y59249014D01*
X44341401Y58991034D01*
X44256487Y58711111D01*
X44227815Y58420000D01*
X44256487Y58128889D01*
X44341401Y57848966D01*
X44479294Y57590986D01*
X44664866Y57364866D01*
X44890986Y57179294D01*
X44945791Y57150000D01*
X44890986Y57120706D01*
X44664866Y56935134D01*
X44479294Y56709014D01*
X44341401Y56451034D01*
X44256487Y56171111D01*
X44227815Y55880000D01*
X44256487Y55588889D01*
X44341401Y55308966D01*
X44479294Y55050986D01*
X44664866Y54824866D01*
X44890986Y54639294D01*
X44945791Y54610000D01*
X44890986Y54580706D01*
X44664866Y54395134D01*
X44479294Y54169014D01*
X44341401Y53911034D01*
X44256487Y53631111D01*
X44227815Y53340000D01*
X44256487Y53048889D01*
X44341401Y52768966D01*
X44479294Y52510986D01*
X44664866Y52284866D01*
X44890986Y52099294D01*
X44945791Y52070000D01*
X44890986Y52040706D01*
X44664866Y51855134D01*
X44479294Y51629014D01*
X44341401Y51371034D01*
X44256487Y51091111D01*
X44227815Y50800000D01*
X44256487Y50508889D01*
X44341401Y50228966D01*
X44479294Y49970986D01*
X44664866Y49744866D01*
X44890986Y49559294D01*
X44945791Y49530000D01*
X44890986Y49500706D01*
X44664866Y49315134D01*
X44479294Y49089014D01*
X44341401Y48831034D01*
X44256487Y48551111D01*
X44227815Y48260000D01*
X44256487Y47968889D01*
X44341401Y47688966D01*
X44479294Y47430986D01*
X44664866Y47204866D01*
X44890986Y47019294D01*
X44945791Y46990000D01*
X44890986Y46960706D01*
X44664866Y46775134D01*
X44479294Y46549014D01*
X44444057Y46483091D01*
X44412676Y46480000D01*
X44412667Y46480000D01*
X44301014Y46469003D01*
X44157753Y46425546D01*
X44025724Y46354974D01*
X43909999Y46260001D01*
X43886201Y46231003D01*
X43214624Y45559425D01*
X43118387Y45638405D01*
X42964851Y45720472D01*
X42798255Y45771008D01*
X42625001Y45788072D01*
X41974999Y45788072D01*
X41801745Y45771008D01*
X41635149Y45720472D01*
X41481613Y45638405D01*
X41347038Y45527962D01*
X41341658Y45521406D01*
X41276185Y45601185D01*
X41179494Y45680537D01*
X41069180Y45739502D01*
X40949482Y45775812D01*
X40825000Y45788072D01*
X40535750Y45785000D01*
X40377000Y45626250D01*
X40377000Y44577000D01*
X40397000Y44577000D01*
X40397000Y44323000D01*
X40377000Y44323000D01*
X40377000Y43273750D01*
X40470750Y43180000D01*
X40377000Y43086250D01*
X40377000Y42037000D01*
X40397000Y42037000D01*
X40397000Y41783000D01*
X40377000Y41783000D01*
X40377000Y40733750D01*
X40470750Y40640000D01*
X40377000Y40546250D01*
X40377000Y39497000D01*
X40397000Y39497000D01*
X40397000Y39243000D01*
X40377000Y39243000D01*
X40377000Y38193750D01*
X40470750Y38100000D01*
X40377000Y38006250D01*
X40377000Y36957000D01*
X40397000Y36957000D01*
X40397000Y36703000D01*
X40377000Y36703000D01*
X40377000Y35653750D01*
X40535750Y35495000D01*
X40825000Y35491928D01*
X40949482Y35504188D01*
X41069180Y35540498D01*
X41179494Y35599463D01*
X41276185Y35678815D01*
X41341658Y35758594D01*
X41347038Y35752038D01*
X41481613Y35641595D01*
X41635149Y35559528D01*
X41801745Y35508992D01*
X41974999Y35491928D01*
X42625001Y35491928D01*
X42798255Y35508992D01*
X42964851Y35559528D01*
X43118387Y35641595D01*
X43252962Y35752038D01*
X43363405Y35886613D01*
X43445472Y36040149D01*
X43454527Y36070000D01*
X44322886Y36070000D01*
X44256487Y35851111D01*
X44227815Y35560000D01*
X44256487Y35268889D01*
X44341401Y34988966D01*
X44479294Y34730986D01*
X44664866Y34504866D01*
X44890986Y34319294D01*
X44945791Y34290000D01*
X44890986Y34260706D01*
X44664866Y34075134D01*
X44479294Y33849014D01*
X44341401Y33591034D01*
X44256487Y33311111D01*
X44227815Y33020000D01*
X44256487Y32728889D01*
X44341401Y32448966D01*
X44479294Y32190986D01*
X44664866Y31964866D01*
X44890986Y31779294D01*
X44945791Y31750000D01*
X44890986Y31720706D01*
X44664866Y31535134D01*
X44479294Y31309014D01*
X44341401Y31051034D01*
X44256487Y30771111D01*
X44227815Y30480000D01*
X44256487Y30188889D01*
X44341401Y29908966D01*
X44479294Y29650986D01*
X44664866Y29424866D01*
X44890986Y29239294D01*
X44945791Y29210000D01*
X44890986Y29180706D01*
X44664866Y28995134D01*
X44479294Y28769014D01*
X44341401Y28511034D01*
X44256487Y28231111D01*
X44227815Y27940000D01*
X44256487Y27648889D01*
X44341401Y27368966D01*
X44479294Y27110986D01*
X44664866Y26884866D01*
X44890986Y26699294D01*
X44945791Y26670000D01*
X44890986Y26640706D01*
X44664866Y26455134D01*
X44479294Y26229014D01*
X44341401Y25971034D01*
X44256487Y25691111D01*
X44227815Y25400000D01*
X44256487Y25108889D01*
X44341401Y24828966D01*
X44479294Y24570986D01*
X44664866Y24344866D01*
X44890986Y24159294D01*
X44945791Y24130000D01*
X44890986Y24100706D01*
X44664866Y23915134D01*
X44479294Y23689014D01*
X44341401Y23431034D01*
X44256487Y23151111D01*
X44227815Y22860000D01*
X44256487Y22568889D01*
X44341401Y22288966D01*
X44479294Y22030986D01*
X44664866Y21804866D01*
X44890986Y21619294D01*
X44945791Y21590000D01*
X44890986Y21560706D01*
X44664866Y21375134D01*
X44479294Y21149014D01*
X44341401Y20891034D01*
X44256487Y20611111D01*
X44227815Y20320000D01*
X44256487Y20028889D01*
X44341401Y19748966D01*
X44479294Y19490986D01*
X44664866Y19264866D01*
X44890986Y19079294D01*
X44945791Y19050000D01*
X44890986Y19020706D01*
X44664866Y18835134D01*
X44479294Y18609014D01*
X44341401Y18351034D01*
X44256487Y18071111D01*
X44227815Y17780000D01*
X44256487Y17488889D01*
X44341401Y17208966D01*
X44479294Y16950986D01*
X44664866Y16724866D01*
X44890986Y16539294D01*
X44945791Y16510000D01*
X44890986Y16480706D01*
X44664866Y16295134D01*
X44479294Y16069014D01*
X44341401Y15811034D01*
X44256487Y15531111D01*
X44227815Y15240000D01*
X44256487Y14948889D01*
X44341401Y14668966D01*
X44479294Y14410986D01*
X44664866Y14184866D01*
X44694687Y14160393D01*
X44625820Y14139502D01*
X44515506Y14080537D01*
X44418815Y14001185D01*
X44339463Y13904494D01*
X44280498Y13794180D01*
X44244188Y13674482D01*
X44231928Y13550000D01*
X44231928Y11850000D01*
X44244188Y11725518D01*
X44280498Y11605820D01*
X44339463Y11495506D01*
X44418815Y11398815D01*
X44515506Y11319463D01*
X44625820Y11260498D01*
X44745518Y11224188D01*
X44870000Y11211928D01*
X46570000Y11211928D01*
X46694482Y11224188D01*
X46814180Y11260498D01*
X46924494Y11319463D01*
X47021185Y11398815D01*
X47100537Y11495506D01*
X47159502Y11605820D01*
X47180393Y11674687D01*
X47204866Y11644866D01*
X47430986Y11459294D01*
X47688966Y11321401D01*
X47968889Y11236487D01*
X48187050Y11215000D01*
X48332950Y11215000D01*
X48551111Y11236487D01*
X48831034Y11321401D01*
X49089014Y11459294D01*
X49201001Y11551199D01*
X49201001Y2742000D01*
X40817444Y2742000D01*
X40845812Y2835518D01*
X40858072Y2960000D01*
X40855000Y3524250D01*
X40696250Y3683000D01*
X39497000Y3683000D01*
X39497000Y3663000D01*
X39243000Y3663000D01*
X39243000Y3683000D01*
X38043750Y3683000D01*
X37885000Y3524250D01*
X37881928Y2960000D01*
X37894188Y2835518D01*
X37922556Y2742000D01*
X13104457Y2742000D01*
X13120134Y2754866D01*
X13305706Y2980986D01*
X13443599Y3238966D01*
X13528513Y3518889D01*
X13557185Y3810000D01*
X13528513Y4101111D01*
X13443599Y4381034D01*
X13305706Y4639014D01*
X13120134Y4865134D01*
X13090313Y4889607D01*
X13159180Y4910498D01*
X13269494Y4969463D01*
X13366185Y5048815D01*
X13445537Y5145506D01*
X13504502Y5255820D01*
X13540812Y5375518D01*
X13553072Y5500000D01*
X13550000Y6064250D01*
X13391250Y6223000D01*
X12192000Y6223000D01*
X12192000Y6203000D01*
X11938000Y6203000D01*
X11938000Y6223000D01*
X10738750Y6223000D01*
X10580000Y6064250D01*
X10576928Y5500000D01*
X10589188Y5375518D01*
X10625498Y5255820D01*
X10684463Y5145506D01*
X10763815Y5048815D01*
X10860506Y4969463D01*
X10970820Y4910498D01*
X11039687Y4889607D01*
X11009866Y4865134D01*
X10824294Y4639014D01*
X10686401Y4381034D01*
X10601487Y4101111D01*
X10572815Y3810000D01*
X10601487Y3518889D01*
X10686401Y3238966D01*
X10824294Y2980986D01*
X11009866Y2754866D01*
X11025543Y2742000D01*
X1599000Y2742000D01*
X1599000Y7200000D01*
X10576928Y7200000D01*
X10580000Y6635750D01*
X10738750Y6477000D01*
X11938000Y6477000D01*
X11938000Y7676250D01*
X12192000Y7676250D01*
X12192000Y6477000D01*
X13391250Y6477000D01*
X13550000Y6635750D01*
X13553072Y7200000D01*
X13540812Y7324482D01*
X13504502Y7444180D01*
X13445537Y7554494D01*
X13366185Y7651185D01*
X13269494Y7730537D01*
X13159180Y7789502D01*
X13039482Y7825812D01*
X12915000Y7838072D01*
X12350750Y7835000D01*
X12192000Y7676250D01*
X11938000Y7676250D01*
X11779250Y7835000D01*
X11215000Y7838072D01*
X11090518Y7825812D01*
X10970820Y7789502D01*
X10860506Y7730537D01*
X10763815Y7651185D01*
X10684463Y7554494D01*
X10625498Y7444180D01*
X10589188Y7324482D01*
X10576928Y7200000D01*
X1599000Y7200000D01*
X1599000Y10887089D01*
X24973000Y10887089D01*
X24973000Y10702911D01*
X25008932Y10522271D01*
X25079414Y10352111D01*
X25148000Y10249464D01*
X25148001Y9689332D01*
X25144324Y9652000D01*
X25148001Y9614667D01*
X25155553Y9537997D01*
X25158998Y9503015D01*
X25202454Y9359754D01*
X25273026Y9227724D01*
X25344201Y9140998D01*
X25368000Y9111999D01*
X25396998Y9088201D01*
X25783000Y8702198D01*
X25783001Y5348191D01*
X25762271Y5344068D01*
X25592111Y5273586D01*
X25438972Y5171262D01*
X25308738Y5041028D01*
X25206414Y4887889D01*
X25135932Y4717729D01*
X25100000Y4537089D01*
X25100000Y4352911D01*
X25135932Y4172271D01*
X25206414Y4002111D01*
X25308738Y3848972D01*
X25438972Y3718738D01*
X25592111Y3616414D01*
X25762271Y3545932D01*
X25942911Y3510000D01*
X26127089Y3510000D01*
X26307729Y3545932D01*
X26477889Y3616414D01*
X26592976Y3693313D01*
X26645226Y3641063D01*
X26814744Y3527795D01*
X27003102Y3449774D01*
X27203061Y3410000D01*
X27406939Y3410000D01*
X27606898Y3449774D01*
X27795256Y3527795D01*
X27964774Y3641063D01*
X28017024Y3693313D01*
X28132111Y3616414D01*
X28302271Y3545932D01*
X28482911Y3510000D01*
X28667089Y3510000D01*
X28847729Y3545932D01*
X29017889Y3616414D01*
X29171028Y3718738D01*
X29301262Y3848972D01*
X29403586Y4002111D01*
X29474068Y4172271D01*
X29510000Y4352911D01*
X29510000Y4537089D01*
X29474068Y4717729D01*
X29403586Y4887889D01*
X29301262Y5041028D01*
X29171028Y5171262D01*
X29017889Y5273586D01*
X28847729Y5344068D01*
X28726649Y5368153D01*
X28700000Y5394801D01*
X28700000Y7305199D01*
X29086002Y7691200D01*
X29115001Y7714999D01*
X29209974Y7830724D01*
X29280546Y7962753D01*
X29324003Y8106014D01*
X29335000Y8217667D01*
X29338677Y8255000D01*
X29335000Y8292333D01*
X29335000Y8852675D01*
X29338676Y8890000D01*
X37877815Y8890000D01*
X37906487Y8598889D01*
X37991401Y8318966D01*
X38129294Y8060986D01*
X38314866Y7834866D01*
X38540986Y7649294D01*
X38595791Y7620000D01*
X38540986Y7590706D01*
X38314866Y7405134D01*
X38129294Y7179014D01*
X37991401Y6921034D01*
X37906487Y6641111D01*
X37877815Y6350000D01*
X37906487Y6058889D01*
X37991401Y5778966D01*
X38129294Y5520986D01*
X38314866Y5294866D01*
X38344687Y5270393D01*
X38275820Y5249502D01*
X38165506Y5190537D01*
X38068815Y5111185D01*
X37989463Y5014494D01*
X37930498Y4904180D01*
X37894188Y4784482D01*
X37881928Y4660000D01*
X37885000Y4095750D01*
X38043750Y3937000D01*
X39243000Y3937000D01*
X39243000Y3957000D01*
X39497000Y3957000D01*
X39497000Y3937000D01*
X40696250Y3937000D01*
X40855000Y4095750D01*
X40858072Y4660000D01*
X40845812Y4784482D01*
X40809502Y4904180D01*
X40750537Y5014494D01*
X40671185Y5111185D01*
X40574494Y5190537D01*
X40464180Y5249502D01*
X40395313Y5270393D01*
X40425134Y5294866D01*
X40610706Y5520986D01*
X40748599Y5778966D01*
X40833513Y6058889D01*
X40862185Y6350000D01*
X40833513Y6641111D01*
X40748599Y6921034D01*
X40610706Y7179014D01*
X40425134Y7405134D01*
X40199014Y7590706D01*
X40144209Y7620000D01*
X40199014Y7649294D01*
X40425134Y7834866D01*
X40610706Y8060986D01*
X40748599Y8318966D01*
X40833513Y8598889D01*
X40862185Y8890000D01*
X40833513Y9181111D01*
X40748599Y9461034D01*
X40610706Y9719014D01*
X40425134Y9945134D01*
X40199014Y10130706D01*
X39941034Y10268599D01*
X39661111Y10353513D01*
X39442950Y10375000D01*
X39297050Y10375000D01*
X39078889Y10353513D01*
X38798966Y10268599D01*
X38540986Y10130706D01*
X38314866Y9945134D01*
X38129294Y9719014D01*
X37991401Y9461034D01*
X37906487Y9181111D01*
X37877815Y8890000D01*
X29338676Y8890000D01*
X29335000Y8927325D01*
X29335000Y8927333D01*
X29324003Y9038986D01*
X29280546Y9182247D01*
X29209974Y9314276D01*
X29115001Y9430001D01*
X29086004Y9453798D01*
X28376803Y10162998D01*
X28353001Y10192001D01*
X28237276Y10286974D01*
X28105247Y10357546D01*
X27961986Y10401003D01*
X27850333Y10412000D01*
X27850322Y10412000D01*
X27813000Y10415676D01*
X27775678Y10412000D01*
X27492802Y10412000D01*
X27303000Y10601801D01*
X27303000Y11519678D01*
X27306676Y11557001D01*
X27303000Y11594324D01*
X27303000Y11594333D01*
X27292003Y11705986D01*
X27248546Y11849247D01*
X27177974Y11981276D01*
X27083001Y12097001D01*
X27054003Y12120798D01*
X26958153Y12216649D01*
X26934068Y12337729D01*
X26863586Y12507889D01*
X26761262Y12661028D01*
X26631028Y12791262D01*
X26477889Y12893586D01*
X26307729Y12964068D01*
X26127089Y13000000D01*
X25942911Y13000000D01*
X25762271Y12964068D01*
X25592111Y12893586D01*
X25438972Y12791262D01*
X25308738Y12661028D01*
X25206414Y12507889D01*
X25135932Y12337729D01*
X25100000Y12157089D01*
X25100000Y11972911D01*
X25135932Y11792271D01*
X25206414Y11622111D01*
X25289089Y11498379D01*
X25181738Y11391028D01*
X25079414Y11237889D01*
X25008932Y11067729D01*
X24973000Y10887089D01*
X1599000Y10887089D01*
X1599000Y11551199D01*
X1710986Y11459294D01*
X1968966Y11321401D01*
X2248889Y11236487D01*
X2467050Y11215000D01*
X2612950Y11215000D01*
X2831111Y11236487D01*
X3111034Y11321401D01*
X3369014Y11459294D01*
X3595134Y11644866D01*
X3780706Y11870986D01*
X3810000Y11925791D01*
X3839294Y11870986D01*
X4024866Y11644866D01*
X4250986Y11459294D01*
X4508966Y11321401D01*
X4788889Y11236487D01*
X5007050Y11215000D01*
X5152950Y11215000D01*
X5371111Y11236487D01*
X5651034Y11321401D01*
X5909014Y11459294D01*
X6135134Y11644866D01*
X6320706Y11870986D01*
X6458599Y12128966D01*
X6543513Y12408889D01*
X6572185Y12700000D01*
X6543513Y12991111D01*
X6458599Y13271034D01*
X6320706Y13529014D01*
X6135134Y13755134D01*
X5909014Y13940706D01*
X5854209Y13970000D01*
X5909014Y13999294D01*
X6135134Y14184866D01*
X6320706Y14410986D01*
X6458599Y14668966D01*
X6543513Y14948889D01*
X6572185Y15240000D01*
X6543513Y15531111D01*
X6480148Y15740000D01*
X14091928Y15740000D01*
X14091928Y14740000D01*
X14104188Y14615518D01*
X14140498Y14495820D01*
X14199463Y14385506D01*
X14278815Y14288815D01*
X14375506Y14209463D01*
X14485820Y14150498D01*
X14605518Y14114188D01*
X14730000Y14101928D01*
X18230000Y14101928D01*
X18354482Y14114188D01*
X18474180Y14150498D01*
X18584494Y14209463D01*
X18681185Y14288815D01*
X18760537Y14385506D01*
X18771327Y14405693D01*
X18785932Y14332271D01*
X18856414Y14162111D01*
X18958738Y14008972D01*
X18997710Y13970000D01*
X18958738Y13931028D01*
X18856414Y13777889D01*
X18785932Y13607729D01*
X18771327Y13534307D01*
X18760537Y13554494D01*
X18681185Y13651185D01*
X18584494Y13730537D01*
X18474180Y13789502D01*
X18354482Y13825812D01*
X18230000Y13838072D01*
X14730000Y13838072D01*
X14605518Y13825812D01*
X14485820Y13789502D01*
X14375506Y13730537D01*
X14278815Y13651185D01*
X14199463Y13554494D01*
X14140498Y13444180D01*
X14104188Y13324482D01*
X14091928Y13200000D01*
X14091928Y12200000D01*
X14104188Y12075518D01*
X14140498Y11955820D01*
X14199463Y11845506D01*
X14278815Y11748815D01*
X14375506Y11669463D01*
X14485820Y11610498D01*
X14605518Y11574188D01*
X14730000Y11561928D01*
X18230000Y11561928D01*
X18354482Y11574188D01*
X18474180Y11610498D01*
X18584494Y11669463D01*
X18681185Y11748815D01*
X18760537Y11845506D01*
X18811046Y11940000D01*
X19012678Y11940000D01*
X19050000Y11936324D01*
X19087322Y11940000D01*
X19087333Y11940000D01*
X19198986Y11950997D01*
X19342247Y11994454D01*
X19474276Y12065026D01*
X19590001Y12159999D01*
X19613803Y12189002D01*
X19836649Y12411847D01*
X19957729Y12435932D01*
X20127889Y12506414D01*
X20281028Y12608738D01*
X20411262Y12738972D01*
X20513586Y12892111D01*
X20584068Y13062271D01*
X20620000Y13242911D01*
X20620000Y13427089D01*
X20584068Y13607729D01*
X20513586Y13777889D01*
X20411262Y13931028D01*
X20372290Y13970000D01*
X20411262Y14008972D01*
X20513586Y14162111D01*
X20584068Y14332271D01*
X20620000Y14512911D01*
X20620000Y14697089D01*
X20584068Y14877729D01*
X20513586Y15047889D01*
X20411262Y15201028D01*
X20281028Y15331262D01*
X20127889Y15433586D01*
X19957729Y15504068D01*
X19836649Y15528153D01*
X19613803Y15750998D01*
X19590001Y15780001D01*
X19474276Y15874974D01*
X19342247Y15945546D01*
X19198986Y15989003D01*
X19087333Y16000000D01*
X19087322Y16000000D01*
X19050000Y16003676D01*
X19012678Y16000000D01*
X18811046Y16000000D01*
X18760537Y16094494D01*
X18681185Y16191185D01*
X18584494Y16270537D01*
X18474180Y16329502D01*
X18354482Y16365812D01*
X18230000Y16378072D01*
X14730000Y16378072D01*
X14605518Y16365812D01*
X14485820Y16329502D01*
X14375506Y16270537D01*
X14278815Y16191185D01*
X14199463Y16094494D01*
X14140498Y15984180D01*
X14104188Y15864482D01*
X14091928Y15740000D01*
X6480148Y15740000D01*
X6458599Y15811034D01*
X6320706Y16069014D01*
X6135134Y16295134D01*
X5909014Y16480706D01*
X5854209Y16510000D01*
X5909014Y16539294D01*
X6135134Y16724866D01*
X6320706Y16950986D01*
X6458599Y17208966D01*
X6543513Y17488889D01*
X6572185Y17780000D01*
X6543513Y18071111D01*
X6458599Y18351034D01*
X6320706Y18609014D01*
X6135134Y18835134D01*
X5909014Y19020706D01*
X5854209Y19050000D01*
X5909014Y19079294D01*
X6135134Y19264866D01*
X6320706Y19490986D01*
X6458599Y19748966D01*
X6543513Y20028889D01*
X6572185Y20320000D01*
X6543513Y20611111D01*
X6458599Y20891034D01*
X6320706Y21149014D01*
X6135134Y21375134D01*
X5909014Y21560706D01*
X5854209Y21590000D01*
X5909014Y21619294D01*
X6135134Y21804866D01*
X6320706Y22030986D01*
X6458599Y22288966D01*
X6543513Y22568889D01*
X6572185Y22860000D01*
X6543513Y23151111D01*
X6458599Y23431034D01*
X6320706Y23689014D01*
X6135134Y23915134D01*
X5909014Y24100706D01*
X5854209Y24130000D01*
X5909014Y24159294D01*
X6135134Y24344866D01*
X6320706Y24570986D01*
X6458599Y24828966D01*
X6543513Y25108889D01*
X6572185Y25400000D01*
X6543513Y25691111D01*
X6458599Y25971034D01*
X6320706Y26229014D01*
X6135134Y26455134D01*
X5909014Y26640706D01*
X5854209Y26670000D01*
X5909014Y26699294D01*
X6135134Y26884866D01*
X6320706Y27110986D01*
X6458599Y27368966D01*
X6543513Y27648889D01*
X6572185Y27940000D01*
X6543513Y28231111D01*
X6458599Y28511034D01*
X6320706Y28769014D01*
X6135134Y28995134D01*
X5909014Y29180706D01*
X5854209Y29210000D01*
X5909014Y29239294D01*
X6135134Y29424866D01*
X6320706Y29650986D01*
X6458599Y29908966D01*
X6543513Y30188889D01*
X6572185Y30480000D01*
X6543513Y30771111D01*
X6458599Y31051034D01*
X6320706Y31309014D01*
X6135134Y31535134D01*
X5909014Y31720706D01*
X5854209Y31750000D01*
X5909014Y31779294D01*
X6135134Y31964866D01*
X6320706Y32190986D01*
X6458599Y32448966D01*
X6543513Y32728889D01*
X6572185Y33020000D01*
X6543513Y33311111D01*
X6458599Y33591034D01*
X6320706Y33849014D01*
X6135134Y34075134D01*
X5909014Y34260706D01*
X5854209Y34290000D01*
X5909014Y34319294D01*
X6135134Y34504866D01*
X6320706Y34730986D01*
X6458599Y34988966D01*
X6543513Y35268889D01*
X6572185Y35560000D01*
X6543513Y35851111D01*
X6458599Y36131034D01*
X6320706Y36389014D01*
X6135134Y36615134D01*
X5909014Y36800706D01*
X5854209Y36830000D01*
X5909014Y36859294D01*
X6135134Y37044866D01*
X6320706Y37270986D01*
X6458599Y37528966D01*
X6543513Y37808889D01*
X6572185Y38100000D01*
X6543513Y38391111D01*
X6458599Y38671034D01*
X6320706Y38929014D01*
X6135134Y39155134D01*
X5909014Y39340706D01*
X5854209Y39370000D01*
X5909014Y39399294D01*
X6135134Y39584866D01*
X6320706Y39810986D01*
X6458599Y40068966D01*
X6543513Y40348889D01*
X6572185Y40640000D01*
X6543513Y40931111D01*
X6458599Y41211034D01*
X6320706Y41469014D01*
X6135134Y41695134D01*
X5909014Y41880706D01*
X5854209Y41910000D01*
X5909014Y41939294D01*
X6135134Y42124866D01*
X6320706Y42350986D01*
X6458599Y42608966D01*
X6543513Y42888889D01*
X6572185Y43180000D01*
X6543513Y43471111D01*
X6458599Y43751034D01*
X6320706Y44009014D01*
X6135134Y44235134D01*
X5909014Y44420706D01*
X5854209Y44450000D01*
X5909014Y44479294D01*
X6135134Y44664866D01*
X6320706Y44890986D01*
X6458599Y45148966D01*
X6543513Y45428889D01*
X6572185Y45720000D01*
X6543513Y46011111D01*
X6477721Y46228000D01*
X12167994Y46228000D01*
X12173000Y46177172D01*
X12173000Y46126061D01*
X12182971Y46075933D01*
X12187977Y46025105D01*
X12202803Y45976232D01*
X12212774Y45926102D01*
X12232335Y45878878D01*
X12247160Y45830007D01*
X12271236Y45784964D01*
X12290795Y45737744D01*
X12302651Y45720000D01*
X12290795Y45702256D01*
X12271236Y45655036D01*
X12247160Y45609993D01*
X12232335Y45561122D01*
X12212774Y45513898D01*
X12202803Y45463768D01*
X12187977Y45414895D01*
X12182971Y45364067D01*
X12173000Y45313939D01*
X12173000Y45262828D01*
X12167994Y45212000D01*
X12173000Y45161172D01*
X12173000Y45110061D01*
X12182971Y45059933D01*
X12187977Y45009105D01*
X12202803Y44960232D01*
X12212774Y44910102D01*
X12232335Y44862878D01*
X12247160Y44814007D01*
X12271236Y44768964D01*
X12290795Y44721744D01*
X12319187Y44679252D01*
X12343266Y44634203D01*
X12375671Y44594717D01*
X12404063Y44552226D01*
X12548226Y44408063D01*
X12548229Y44408061D01*
X13202197Y43754092D01*
X13234604Y43714604D01*
X13274092Y43682197D01*
X13392202Y43585266D01*
X13488309Y43533896D01*
X13572007Y43489159D01*
X13767105Y43429976D01*
X13919162Y43415000D01*
X13919165Y43415000D01*
X13970000Y43409993D01*
X14020835Y43415000D01*
X14091928Y43415000D01*
X14091928Y42680000D01*
X14104188Y42555518D01*
X14140498Y42435820D01*
X14199463Y42325506D01*
X14278815Y42228815D01*
X14375506Y42149463D01*
X14485820Y42090498D01*
X14605518Y42054188D01*
X14730000Y42041928D01*
X17843271Y42041928D01*
X18107127Y41778072D01*
X14730000Y41778072D01*
X14605518Y41765812D01*
X14485820Y41729502D01*
X14375506Y41670537D01*
X14278815Y41591185D01*
X14199463Y41494494D01*
X14140498Y41384180D01*
X14104188Y41264482D01*
X14091928Y41140000D01*
X14091928Y40140000D01*
X14104188Y40015518D01*
X14140498Y39895820D01*
X14199463Y39785506D01*
X14278815Y39688815D01*
X14375506Y39609463D01*
X14485820Y39550498D01*
X14605518Y39514188D01*
X14730000Y39501928D01*
X18230000Y39501928D01*
X18290000Y39507837D01*
X18290001Y39232163D01*
X18230000Y39238072D01*
X14730000Y39238072D01*
X14605518Y39225812D01*
X14485820Y39189502D01*
X14375506Y39130537D01*
X14278815Y39051185D01*
X14199463Y38954494D01*
X14140498Y38844180D01*
X14104188Y38724482D01*
X14091928Y38600000D01*
X14091928Y37600000D01*
X14104188Y37475518D01*
X14140498Y37355820D01*
X14199463Y37245506D01*
X14278815Y37148815D01*
X14375506Y37069463D01*
X14485820Y37010498D01*
X14605518Y36974188D01*
X14730000Y36961928D01*
X16815500Y36961928D01*
X16804335Y36925122D01*
X16784774Y36877898D01*
X16774803Y36827768D01*
X16759977Y36778895D01*
X16754971Y36728067D01*
X16749005Y36698072D01*
X14730000Y36698072D01*
X14605518Y36685812D01*
X14485820Y36649502D01*
X14375506Y36590537D01*
X14278815Y36511185D01*
X14199463Y36414494D01*
X14140498Y36304180D01*
X14104188Y36184482D01*
X14091928Y36060000D01*
X14091928Y35060000D01*
X14104188Y34935518D01*
X14140498Y34815820D01*
X14199463Y34705506D01*
X14278815Y34608815D01*
X14375506Y34529463D01*
X14485820Y34470498D01*
X14605518Y34434188D01*
X14730000Y34421928D01*
X16749005Y34421928D01*
X16754969Y34391942D01*
X16759976Y34341106D01*
X16774804Y34292226D01*
X16784774Y34242102D01*
X16804332Y34194884D01*
X16815499Y34158072D01*
X14730000Y34158072D01*
X14605518Y34145812D01*
X14485820Y34109502D01*
X14375506Y34050537D01*
X14278815Y33971185D01*
X14199463Y33874494D01*
X14140498Y33764180D01*
X14104188Y33644482D01*
X14091928Y33520000D01*
X14091928Y32520000D01*
X14104188Y32395518D01*
X14140498Y32275820D01*
X14199463Y32165506D01*
X14278815Y32068815D01*
X14375506Y31989463D01*
X14485820Y31930498D01*
X14605518Y31894188D01*
X14730000Y31881928D01*
X18107126Y31881928D01*
X17843271Y31618072D01*
X14730000Y31618072D01*
X14605518Y31605812D01*
X14485820Y31569502D01*
X14375506Y31510537D01*
X14278815Y31431185D01*
X14199463Y31334494D01*
X14140498Y31224180D01*
X14104188Y31104482D01*
X14091928Y30980000D01*
X14091928Y29980000D01*
X14104188Y29855518D01*
X14140498Y29735820D01*
X14199463Y29625506D01*
X14278815Y29528815D01*
X14375506Y29449463D01*
X14485820Y29390498D01*
X14605518Y29354188D01*
X14730000Y29341928D01*
X18107127Y29341928D01*
X17843271Y29078072D01*
X14730000Y29078072D01*
X14605518Y29065812D01*
X14485820Y29029502D01*
X14375506Y28970537D01*
X14278815Y28891185D01*
X14199463Y28794494D01*
X14140498Y28684180D01*
X14104188Y28564482D01*
X14091928Y28440000D01*
X14091928Y27440000D01*
X14092913Y27430000D01*
X13880535Y27430000D01*
X13777889Y27498586D01*
X13607729Y27569068D01*
X13427089Y27605000D01*
X13242911Y27605000D01*
X13062271Y27569068D01*
X12892111Y27498586D01*
X12738972Y27396262D01*
X12608738Y27266028D01*
X12506414Y27112889D01*
X12435932Y26942729D01*
X12400000Y26762089D01*
X12400000Y26577911D01*
X12435932Y26397271D01*
X12506414Y26227111D01*
X12608738Y26073972D01*
X12738972Y25943738D01*
X12892111Y25841414D01*
X13062271Y25770932D01*
X13242911Y25735000D01*
X13427089Y25735000D01*
X13607729Y25770932D01*
X13777889Y25841414D01*
X13880535Y25910000D01*
X14092913Y25910000D01*
X14091928Y25900000D01*
X14091928Y24900000D01*
X14104188Y24775518D01*
X14140498Y24655820D01*
X14199463Y24545506D01*
X14278815Y24448815D01*
X14375506Y24369463D01*
X14485820Y24310498D01*
X14605518Y24274188D01*
X14730000Y24261928D01*
X18230000Y24261928D01*
X18354482Y24274188D01*
X18474180Y24310498D01*
X18584494Y24369463D01*
X18681185Y24448815D01*
X18760537Y24545506D01*
X18771327Y24565693D01*
X18785932Y24492271D01*
X18856414Y24322111D01*
X18958738Y24168972D01*
X19088972Y24038738D01*
X19242111Y23936414D01*
X19412271Y23865932D01*
X19533351Y23841847D01*
X19560001Y23815197D01*
X19560001Y23788454D01*
X19412271Y23759068D01*
X19242111Y23688586D01*
X19139465Y23620000D01*
X18811046Y23620000D01*
X18760537Y23714494D01*
X18681185Y23811185D01*
X18584494Y23890537D01*
X18474180Y23949502D01*
X18354482Y23985812D01*
X18230000Y23998072D01*
X14730000Y23998072D01*
X14605518Y23985812D01*
X14485820Y23949502D01*
X14375506Y23890537D01*
X14278815Y23811185D01*
X14199463Y23714494D01*
X14140498Y23604180D01*
X14104188Y23484482D01*
X14091928Y23360000D01*
X14091928Y22360000D01*
X14104188Y22235518D01*
X14140498Y22115820D01*
X14199463Y22005506D01*
X14278815Y21908815D01*
X14375506Y21829463D01*
X14485820Y21770498D01*
X14605518Y21734188D01*
X14730000Y21721928D01*
X18230000Y21721928D01*
X18354482Y21734188D01*
X18474180Y21770498D01*
X18584494Y21829463D01*
X18681185Y21908815D01*
X18760537Y22005506D01*
X18811046Y22100000D01*
X19139465Y22100000D01*
X19242111Y22031414D01*
X19412271Y21960932D01*
X19560001Y21931546D01*
X19560000Y21248454D01*
X19412271Y21219068D01*
X19242111Y21148586D01*
X19139465Y21080000D01*
X18811046Y21080000D01*
X18760537Y21174494D01*
X18681185Y21271185D01*
X18584494Y21350537D01*
X18474180Y21409502D01*
X18354482Y21445812D01*
X18230000Y21458072D01*
X14730000Y21458072D01*
X14605518Y21445812D01*
X14485820Y21409502D01*
X14375506Y21350537D01*
X14278815Y21271185D01*
X14199463Y21174494D01*
X14140498Y21064180D01*
X14104188Y20944482D01*
X14091928Y20820000D01*
X14091928Y19820000D01*
X14104188Y19695518D01*
X14140498Y19575820D01*
X14199463Y19465506D01*
X14278815Y19368815D01*
X14375506Y19289463D01*
X14485820Y19230498D01*
X14605518Y19194188D01*
X14730000Y19181928D01*
X18230000Y19181928D01*
X18354482Y19194188D01*
X18474180Y19230498D01*
X18584494Y19289463D01*
X18681185Y19368815D01*
X18760537Y19465506D01*
X18811046Y19560000D01*
X19139465Y19560000D01*
X19242111Y19491414D01*
X19412271Y19420932D01*
X19560000Y19391546D01*
X19560000Y18729802D01*
X19370199Y18540000D01*
X18811046Y18540000D01*
X18760537Y18634494D01*
X18681185Y18731185D01*
X18584494Y18810537D01*
X18474180Y18869502D01*
X18354482Y18905812D01*
X18230000Y18918072D01*
X14730000Y18918072D01*
X14605518Y18905812D01*
X14485820Y18869502D01*
X14375506Y18810537D01*
X14278815Y18731185D01*
X14199463Y18634494D01*
X14140498Y18524180D01*
X14104188Y18404482D01*
X14091928Y18280000D01*
X14091928Y17280000D01*
X14104188Y17155518D01*
X14140498Y17035820D01*
X14199463Y16925506D01*
X14278815Y16828815D01*
X14375506Y16749463D01*
X14485820Y16690498D01*
X14605518Y16654188D01*
X14730000Y16641928D01*
X18230000Y16641928D01*
X18354482Y16654188D01*
X18474180Y16690498D01*
X18584494Y16749463D01*
X18681185Y16828815D01*
X18760537Y16925506D01*
X18811046Y17020000D01*
X19647678Y17020000D01*
X19685000Y17016324D01*
X19722322Y17020000D01*
X19722333Y17020000D01*
X19833986Y17030997D01*
X19977247Y17074454D01*
X20109276Y17145026D01*
X20225001Y17239999D01*
X20248803Y17269002D01*
X20831004Y17851202D01*
X20860001Y17874999D01*
X20954974Y17990724D01*
X21025546Y18122753D01*
X21069003Y18266014D01*
X21080000Y18377667D01*
X21080000Y18377668D01*
X21083677Y18415000D01*
X21080000Y18452333D01*
X21080000Y24092667D01*
X21083677Y24130000D01*
X21069003Y24278986D01*
X21025546Y24422247D01*
X20954974Y24554276D01*
X20883799Y24641003D01*
X20860001Y24670001D01*
X20831002Y24693800D01*
X20608153Y24916649D01*
X20584068Y25037729D01*
X20513586Y25207889D01*
X20411262Y25361028D01*
X20281028Y25491262D01*
X20242085Y25517283D01*
X20831003Y26106201D01*
X20860001Y26129999D01*
X20947988Y26237211D01*
X21301847Y25883351D01*
X21325932Y25762271D01*
X21396414Y25592111D01*
X21498738Y25438972D01*
X21628972Y25308738D01*
X21782111Y25206414D01*
X21952271Y25135932D01*
X22132911Y25100000D01*
X22317089Y25100000D01*
X22497729Y25135932D01*
X22667889Y25206414D01*
X22821028Y25308738D01*
X22951262Y25438972D01*
X23053586Y25592111D01*
X23124068Y25762271D01*
X23160000Y25942911D01*
X23160000Y26127089D01*
X23124068Y26307729D01*
X23053586Y26477889D01*
X22951262Y26631028D01*
X22821028Y26761262D01*
X22667889Y26863586D01*
X22497729Y26934068D01*
X22376649Y26958153D01*
X21715000Y27619801D01*
X21715000Y30572089D01*
X30180000Y30572089D01*
X30180000Y30387911D01*
X30215932Y30207271D01*
X30286414Y30037111D01*
X30388738Y29883972D01*
X30427710Y29845000D01*
X30388738Y29806028D01*
X30286414Y29652889D01*
X30215932Y29482729D01*
X30180000Y29302089D01*
X30180000Y29117911D01*
X30215932Y28937271D01*
X30286414Y28767111D01*
X30388738Y28613972D01*
X30518972Y28483738D01*
X30672111Y28381414D01*
X30842271Y28310932D01*
X30963351Y28286847D01*
X31814062Y27436137D01*
X31776604Y27405396D01*
X31744197Y27365908D01*
X31708063Y27329774D01*
X31679672Y27287284D01*
X31647266Y27247797D01*
X31623186Y27202746D01*
X31594795Y27160256D01*
X31575238Y27113042D01*
X31551159Y27067993D01*
X31536331Y27019113D01*
X31516774Y26971898D01*
X31506804Y26921777D01*
X31491976Y26872895D01*
X31486969Y26822057D01*
X31477000Y26771939D01*
X31477000Y26720838D01*
X31471993Y26670000D01*
X31477000Y26619162D01*
X31477000Y26568061D01*
X31486969Y26517943D01*
X31491976Y26467105D01*
X31506804Y26418223D01*
X31516774Y26368102D01*
X31536331Y26320887D01*
X31551159Y26272007D01*
X31575238Y26226958D01*
X31594795Y26179744D01*
X31614451Y26150326D01*
X31601014Y26149003D01*
X31457753Y26105546D01*
X31325724Y26034974D01*
X31209999Y25940001D01*
X31186200Y25911002D01*
X30603998Y25328799D01*
X30575000Y25305001D01*
X30551202Y25276003D01*
X30551201Y25276002D01*
X30480026Y25189276D01*
X30409454Y25057246D01*
X30403534Y25037729D01*
X30365998Y24913986D01*
X30361212Y24865396D01*
X30351324Y24765000D01*
X30355001Y24727668D01*
X30355000Y22770536D01*
X30286414Y22667889D01*
X30215932Y22497729D01*
X30180000Y22317089D01*
X30180000Y22132911D01*
X30215932Y21952271D01*
X30286414Y21782111D01*
X30388738Y21628972D01*
X30427710Y21590000D01*
X30388738Y21551028D01*
X30286414Y21397889D01*
X30215932Y21227729D01*
X30180000Y21047089D01*
X30180000Y20862911D01*
X30215932Y20682271D01*
X30286414Y20512111D01*
X30388738Y20358972D01*
X30427710Y20320000D01*
X30388738Y20281028D01*
X30286414Y20127889D01*
X30215932Y19957729D01*
X30180000Y19777089D01*
X30180000Y19592911D01*
X30215932Y19412271D01*
X30286414Y19242111D01*
X30388738Y19088972D01*
X30427710Y19050000D01*
X30388738Y19011028D01*
X30286414Y18857889D01*
X30215932Y18687729D01*
X30180000Y18507089D01*
X30180000Y18322911D01*
X30215932Y18142271D01*
X30286414Y17972111D01*
X30388738Y17818972D01*
X30427710Y17780000D01*
X30388738Y17741028D01*
X30286414Y17587889D01*
X30215932Y17417729D01*
X30180000Y17237089D01*
X30180000Y17052911D01*
X30215932Y16872271D01*
X30286414Y16702111D01*
X30388738Y16548972D01*
X30427710Y16510000D01*
X30388738Y16471028D01*
X30286414Y16317889D01*
X30215932Y16147729D01*
X30180000Y15967089D01*
X30180000Y15782911D01*
X30215932Y15602271D01*
X30286414Y15432111D01*
X30388738Y15278972D01*
X30518972Y15148738D01*
X30672111Y15046414D01*
X30842271Y14975932D01*
X30963351Y14951847D01*
X30990000Y14925198D01*
X30990001Y13372332D01*
X30986324Y13335000D01*
X30990001Y13297667D01*
X30999621Y13200000D01*
X31000998Y13186015D01*
X31044454Y13042754D01*
X31115026Y12910724D01*
X31182362Y12828676D01*
X31210000Y12794999D01*
X31238998Y12771201D01*
X31821200Y12188998D01*
X31844999Y12159999D01*
X31873997Y12136201D01*
X31943858Y12078867D01*
X31944188Y12075518D01*
X31980498Y11955820D01*
X32039463Y11845506D01*
X32118815Y11748815D01*
X32215506Y11669463D01*
X32325820Y11610498D01*
X32445518Y11574188D01*
X32570000Y11561928D01*
X36070000Y11561928D01*
X36194482Y11574188D01*
X36314180Y11610498D01*
X36424494Y11669463D01*
X36521185Y11748815D01*
X36600537Y11845506D01*
X36659502Y11955820D01*
X36695812Y12075518D01*
X36708072Y12200000D01*
X36708072Y13200000D01*
X36695812Y13324482D01*
X36659502Y13444180D01*
X36600537Y13554494D01*
X36521185Y13651185D01*
X36424494Y13730537D01*
X36314180Y13789502D01*
X36194482Y13825812D01*
X36070000Y13838072D01*
X32570000Y13838072D01*
X32510000Y13832163D01*
X32510000Y14107837D01*
X32570000Y14101928D01*
X36070000Y14101928D01*
X36194482Y14114188D01*
X36314180Y14150498D01*
X36424494Y14209463D01*
X36521185Y14288815D01*
X36600537Y14385506D01*
X36659502Y14495820D01*
X36695812Y14615518D01*
X36708072Y14740000D01*
X36708072Y15740000D01*
X36695812Y15864482D01*
X36659502Y15984180D01*
X36600537Y16094494D01*
X36521185Y16191185D01*
X36424494Y16270537D01*
X36314180Y16329502D01*
X36194482Y16365812D01*
X36070000Y16378072D01*
X32956730Y16378072D01*
X32692874Y16641928D01*
X36070000Y16641928D01*
X36194482Y16654188D01*
X36314180Y16690498D01*
X36424494Y16749463D01*
X36521185Y16828815D01*
X36600537Y16925506D01*
X36659502Y17035820D01*
X36695812Y17155518D01*
X36708072Y17280000D01*
X36708072Y18280000D01*
X36695812Y18404482D01*
X36659502Y18524180D01*
X36600537Y18634494D01*
X36521185Y18731185D01*
X36424494Y18810537D01*
X36314180Y18869502D01*
X36194482Y18905812D01*
X36070000Y18918072D01*
X32570000Y18918072D01*
X32445518Y18905812D01*
X32325820Y18869502D01*
X32215506Y18810537D01*
X32118815Y18731185D01*
X32039463Y18634494D01*
X32028673Y18614307D01*
X32014068Y18687729D01*
X31943586Y18857889D01*
X31898744Y18925000D01*
X32347678Y18925000D01*
X32385000Y18921324D01*
X32422322Y18925000D01*
X32422333Y18925000D01*
X32533986Y18935997D01*
X32677247Y18979454D01*
X32809276Y19050026D01*
X32925001Y19144999D01*
X32948803Y19174002D01*
X32956729Y19181928D01*
X36070000Y19181928D01*
X36194482Y19194188D01*
X36314180Y19230498D01*
X36424494Y19289463D01*
X36521185Y19368815D01*
X36600537Y19465506D01*
X36659502Y19575820D01*
X36695812Y19695518D01*
X36708072Y19820000D01*
X36708072Y20820000D01*
X36695812Y20944482D01*
X36659502Y21064180D01*
X36600537Y21174494D01*
X36521185Y21271185D01*
X36424494Y21350537D01*
X36314180Y21409502D01*
X36194482Y21445812D01*
X36070000Y21458072D01*
X32570000Y21458072D01*
X32500004Y21451178D01*
X32510000Y21552667D01*
X32510000Y21552668D01*
X32513677Y21590000D01*
X32510000Y21627333D01*
X32510000Y21727837D01*
X32570000Y21721928D01*
X36070000Y21721928D01*
X36194482Y21734188D01*
X36314180Y21770498D01*
X36424494Y21829463D01*
X36521185Y21908815D01*
X36600537Y22005506D01*
X36659502Y22115820D01*
X36695812Y22235518D01*
X36708072Y22360000D01*
X36708072Y23095000D01*
X36779172Y23095000D01*
X36830000Y23089994D01*
X36880828Y23095000D01*
X36880838Y23095000D01*
X37032895Y23109976D01*
X37227993Y23169159D01*
X37407797Y23265266D01*
X37565396Y23394604D01*
X37597807Y23434097D01*
X38795908Y24632197D01*
X38835396Y24664604D01*
X38870844Y24707797D01*
X38964734Y24822202D01*
X39046792Y24975724D01*
X39060841Y25002007D01*
X39120024Y25197105D01*
X39135000Y25349162D01*
X39135000Y25349171D01*
X39140006Y25399999D01*
X39135000Y25450827D01*
X39135000Y25635000D01*
X39217939Y25635000D01*
X39268057Y25644969D01*
X39318895Y25649976D01*
X39367777Y25664804D01*
X39417898Y25674774D01*
X39465113Y25694331D01*
X39513993Y25709159D01*
X39559042Y25733238D01*
X39606256Y25752795D01*
X39648746Y25781186D01*
X39693797Y25805266D01*
X39733284Y25837672D01*
X39775774Y25866063D01*
X39811908Y25902197D01*
X39851396Y25934604D01*
X39883803Y25974092D01*
X39919937Y26010226D01*
X39948328Y26052716D01*
X39980734Y26092203D01*
X40004814Y26137254D01*
X40033205Y26179744D01*
X40052762Y26226958D01*
X40076841Y26272007D01*
X40091669Y26320887D01*
X40111226Y26368102D01*
X40121196Y26418223D01*
X40136024Y26467105D01*
X40141031Y26517943D01*
X40151000Y26568061D01*
X40151000Y26619162D01*
X40156007Y26670000D01*
X40151000Y26720838D01*
X40151000Y26771939D01*
X40141031Y26822057D01*
X40136024Y26872895D01*
X40121196Y26921777D01*
X40111226Y26971898D01*
X40091669Y27019113D01*
X40076841Y27067993D01*
X40052762Y27113042D01*
X40033205Y27160256D01*
X40004814Y27202746D01*
X39980734Y27247797D01*
X39948328Y27287284D01*
X39919937Y27329774D01*
X39883803Y27365908D01*
X39851396Y27405396D01*
X39811908Y27437803D01*
X39775774Y27473937D01*
X39733284Y27502328D01*
X39693797Y27534734D01*
X39648746Y27558814D01*
X39606256Y27587205D01*
X39559042Y27606762D01*
X39513993Y27630841D01*
X39465113Y27645669D01*
X39417898Y27665226D01*
X39367777Y27675196D01*
X39318895Y27690024D01*
X39268057Y27695031D01*
X39217939Y27705000D01*
X38150838Y27705000D01*
X38100000Y27710007D01*
X38049162Y27705000D01*
X36708072Y27705000D01*
X36708072Y28440000D01*
X36695812Y28564482D01*
X36659502Y28684180D01*
X36600537Y28794494D01*
X36521185Y28891185D01*
X36424494Y28970537D01*
X36314180Y29029502D01*
X36194482Y29065812D01*
X36070000Y29078072D01*
X32570000Y29078072D01*
X32445518Y29065812D01*
X32359947Y29039854D01*
X32038153Y29361649D01*
X32014068Y29482729D01*
X31943586Y29652889D01*
X31898744Y29720000D01*
X31988954Y29720000D01*
X32039463Y29625506D01*
X32118815Y29528815D01*
X32215506Y29449463D01*
X32325820Y29390498D01*
X32445518Y29354188D01*
X32570000Y29341928D01*
X36070000Y29341928D01*
X36194482Y29354188D01*
X36314180Y29390498D01*
X36424494Y29449463D01*
X36521185Y29528815D01*
X36600537Y29625506D01*
X36659502Y29735820D01*
X36695812Y29855518D01*
X36708072Y29980000D01*
X36708072Y30980000D01*
X36695812Y31104482D01*
X36659502Y31224180D01*
X36600537Y31334494D01*
X36521185Y31431185D01*
X36424494Y31510537D01*
X36314180Y31569502D01*
X36194482Y31605812D01*
X36070000Y31618072D01*
X32570000Y31618072D01*
X32445518Y31605812D01*
X32325820Y31569502D01*
X32215506Y31510537D01*
X32118815Y31431185D01*
X32039463Y31334494D01*
X31988954Y31240000D01*
X31660535Y31240000D01*
X31557889Y31308586D01*
X31387729Y31379068D01*
X31207089Y31415000D01*
X31022911Y31415000D01*
X30842271Y31379068D01*
X30672111Y31308586D01*
X30518972Y31206262D01*
X30388738Y31076028D01*
X30286414Y30922889D01*
X30215932Y30752729D01*
X30180000Y30572089D01*
X21715000Y30572089D01*
X21715000Y32520000D01*
X31931928Y32520000D01*
X31944188Y32395518D01*
X31980498Y32275820D01*
X32039463Y32165506D01*
X32118815Y32068815D01*
X32215506Y31989463D01*
X32325820Y31930498D01*
X32445518Y31894188D01*
X32570000Y31881928D01*
X34034250Y31885000D01*
X34193000Y32043750D01*
X34193000Y32893000D01*
X34447000Y32893000D01*
X34447000Y32043750D01*
X34605750Y31885000D01*
X36070000Y31881928D01*
X36194482Y31894188D01*
X36314180Y31930498D01*
X36424494Y31989463D01*
X36521185Y32068815D01*
X36600537Y32165506D01*
X36659502Y32275820D01*
X36695812Y32395518D01*
X36708072Y32520000D01*
X36705000Y32734250D01*
X36546250Y32893000D01*
X34447000Y32893000D01*
X34193000Y32893000D01*
X32093750Y32893000D01*
X31935000Y32734250D01*
X31931928Y32520000D01*
X21715000Y32520000D01*
X21715000Y33520000D01*
X31931928Y33520000D01*
X31935000Y33305750D01*
X32093750Y33147000D01*
X34193000Y33147000D01*
X34193000Y33996250D01*
X34447000Y33996250D01*
X34447000Y33147000D01*
X36546250Y33147000D01*
X36705000Y33305750D01*
X36708072Y33520000D01*
X36695812Y33644482D01*
X36659502Y33764180D01*
X36600537Y33874494D01*
X36521185Y33971185D01*
X36424494Y34050537D01*
X36314180Y34109502D01*
X36194482Y34145812D01*
X36070000Y34158072D01*
X34605750Y34155000D01*
X34447000Y33996250D01*
X34193000Y33996250D01*
X34034250Y34155000D01*
X32570000Y34158072D01*
X32445518Y34145812D01*
X32325820Y34109502D01*
X32215506Y34050537D01*
X32118815Y33971185D01*
X32039463Y33874494D01*
X31980498Y33764180D01*
X31944188Y33644482D01*
X31931928Y33520000D01*
X21715000Y33520000D01*
X21715000Y42507678D01*
X21718676Y42545001D01*
X21715000Y42582324D01*
X21715000Y42582333D01*
X21704003Y42693986D01*
X21660546Y42837247D01*
X21589974Y42969276D01*
X21495001Y43085001D01*
X21466003Y43108799D01*
X20445000Y44129801D01*
X20445000Y46447089D01*
X29545000Y46447089D01*
X29545000Y46262911D01*
X29580932Y46082271D01*
X29651414Y45912111D01*
X29753738Y45758972D01*
X29792710Y45720000D01*
X29753738Y45681028D01*
X29651414Y45527889D01*
X29580932Y45357729D01*
X29545000Y45177089D01*
X29545000Y44992911D01*
X29580932Y44812271D01*
X29651414Y44642111D01*
X29720000Y44539464D01*
X29720001Y42582333D01*
X29716324Y42545000D01*
X29720001Y42507667D01*
X29727553Y42430997D01*
X29730998Y42396015D01*
X29774454Y42252754D01*
X29845026Y42120724D01*
X29909693Y42041928D01*
X29940000Y42004999D01*
X29968998Y41981201D01*
X31821200Y40128998D01*
X31844999Y40099999D01*
X31943858Y40018867D01*
X31944188Y40015518D01*
X31980498Y39895820D01*
X32039463Y39785506D01*
X32118815Y39688815D01*
X32215506Y39609463D01*
X32325820Y39550498D01*
X32445518Y39514188D01*
X32570000Y39501928D01*
X36070001Y39501928D01*
X36070001Y39238072D01*
X32570000Y39238072D01*
X32445518Y39225812D01*
X32325820Y39189502D01*
X32215506Y39130537D01*
X32118815Y39051185D01*
X32039463Y38954494D01*
X31980498Y38844180D01*
X31944188Y38724482D01*
X31931928Y38600000D01*
X31931928Y37600000D01*
X31944188Y37475518D01*
X31980498Y37355820D01*
X32039463Y37245506D01*
X32118815Y37148815D01*
X32215506Y37069463D01*
X32325820Y37010498D01*
X32445518Y36974188D01*
X32570000Y36961928D01*
X36070000Y36961928D01*
X36194482Y36974188D01*
X36314180Y37010498D01*
X36424494Y37069463D01*
X36521185Y37148815D01*
X36600537Y37245506D01*
X36659502Y37355820D01*
X36695812Y37475518D01*
X36701418Y37532438D01*
X36705001Y37535379D01*
X36705001Y37144803D01*
X36234018Y36673819D01*
X36194482Y36685812D01*
X36070000Y36698072D01*
X32570000Y36698072D01*
X32445518Y36685812D01*
X32325820Y36649502D01*
X32215506Y36590537D01*
X32118815Y36511185D01*
X32039463Y36414494D01*
X31980498Y36304180D01*
X31944188Y36184482D01*
X31931928Y36060000D01*
X31931928Y35060000D01*
X31944188Y34935518D01*
X31980498Y34815820D01*
X32039463Y34705506D01*
X32118815Y34608815D01*
X32215506Y34529463D01*
X32325820Y34470498D01*
X32445518Y34434188D01*
X32570000Y34421928D01*
X36070000Y34421928D01*
X36194482Y34434188D01*
X36314180Y34470498D01*
X36424494Y34529463D01*
X36521185Y34608815D01*
X36600537Y34705506D01*
X36659502Y34815820D01*
X36695812Y34935518D01*
X36701418Y34992438D01*
X36735001Y35019999D01*
X36758804Y35049003D01*
X37839801Y36130000D01*
X39036928Y36130000D01*
X39049188Y36005518D01*
X39085498Y35885820D01*
X39144463Y35775506D01*
X39223815Y35678815D01*
X39320506Y35599463D01*
X39430820Y35540498D01*
X39550518Y35504188D01*
X39675000Y35491928D01*
X39964250Y35495000D01*
X40123000Y35653750D01*
X40123000Y36703000D01*
X39198750Y36703000D01*
X39040000Y36544250D01*
X39036928Y36130000D01*
X37839801Y36130000D01*
X37976003Y36266201D01*
X38005001Y36289999D01*
X38099974Y36405724D01*
X38170546Y36537753D01*
X38214003Y36681014D01*
X38225000Y36792667D01*
X38225000Y36792676D01*
X38228676Y36829999D01*
X38225000Y36867322D01*
X38225000Y38670000D01*
X39036928Y38670000D01*
X39049188Y38545518D01*
X39085498Y38425820D01*
X39144463Y38315506D01*
X39223815Y38218815D01*
X39320506Y38139463D01*
X39394335Y38100000D01*
X39320506Y38060537D01*
X39223815Y37981185D01*
X39144463Y37884494D01*
X39085498Y37774180D01*
X39049188Y37654482D01*
X39036928Y37530000D01*
X39040000Y37115750D01*
X39198750Y36957000D01*
X40123000Y36957000D01*
X40123000Y38006250D01*
X40029250Y38100000D01*
X40123000Y38193750D01*
X40123000Y39243000D01*
X39198750Y39243000D01*
X39040000Y39084250D01*
X39036928Y38670000D01*
X38225000Y38670000D01*
X38225000Y41210000D01*
X39036928Y41210000D01*
X39049188Y41085518D01*
X39085498Y40965820D01*
X39144463Y40855506D01*
X39223815Y40758815D01*
X39320506Y40679463D01*
X39394335Y40640000D01*
X39320506Y40600537D01*
X39223815Y40521185D01*
X39144463Y40424494D01*
X39085498Y40314180D01*
X39049188Y40194482D01*
X39036928Y40070000D01*
X39040000Y39655750D01*
X39198750Y39497000D01*
X40123000Y39497000D01*
X40123000Y40546250D01*
X40029250Y40640000D01*
X40123000Y40733750D01*
X40123000Y41783000D01*
X39198750Y41783000D01*
X39040000Y41624250D01*
X39036928Y41210000D01*
X38225000Y41210000D01*
X38225000Y43750000D01*
X39036928Y43750000D01*
X39049188Y43625518D01*
X39085498Y43505820D01*
X39144463Y43395506D01*
X39223815Y43298815D01*
X39320506Y43219463D01*
X39394335Y43180000D01*
X39320506Y43140537D01*
X39223815Y43061185D01*
X39144463Y42964494D01*
X39085498Y42854180D01*
X39049188Y42734482D01*
X39036928Y42610000D01*
X39040000Y42195750D01*
X39198750Y42037000D01*
X40123000Y42037000D01*
X40123000Y43086250D01*
X40029250Y43180000D01*
X40123000Y43273750D01*
X40123000Y44323000D01*
X39198750Y44323000D01*
X39040000Y44164250D01*
X39036928Y43750000D01*
X38225000Y43750000D01*
X38225000Y45150000D01*
X39036928Y45150000D01*
X39040000Y44735750D01*
X39198750Y44577000D01*
X40123000Y44577000D01*
X40123000Y45626250D01*
X39964250Y45785000D01*
X39675000Y45788072D01*
X39550518Y45775812D01*
X39430820Y45739502D01*
X39320506Y45680537D01*
X39223815Y45601185D01*
X39144463Y45504494D01*
X39085498Y45394180D01*
X39049188Y45274482D01*
X39036928Y45150000D01*
X38225000Y45150000D01*
X38225000Y56477667D01*
X38228677Y56515000D01*
X38214003Y56663986D01*
X38170546Y56807247D01*
X38099974Y56939276D01*
X38028799Y57026003D01*
X38005001Y57055001D01*
X37976004Y57078798D01*
X37393803Y57660998D01*
X37370001Y57690001D01*
X37254276Y57784974D01*
X37122247Y57855546D01*
X36978986Y57899003D01*
X36867333Y57910000D01*
X36867322Y57910000D01*
X36830000Y57913676D01*
X36792678Y57910000D01*
X36707087Y57910000D01*
X36708072Y57920000D01*
X36708072Y58920000D01*
X36695812Y59044482D01*
X36659502Y59164180D01*
X36600537Y59274494D01*
X36521185Y59371185D01*
X36424494Y59450537D01*
X36314180Y59509502D01*
X36194482Y59545812D01*
X36070000Y59558072D01*
X32692873Y59558072D01*
X32956730Y59821928D01*
X36070000Y59821928D01*
X36194482Y59834188D01*
X36314180Y59870498D01*
X36424494Y59929463D01*
X36521185Y60008815D01*
X36600537Y60105506D01*
X36659502Y60215820D01*
X36695812Y60335518D01*
X36708072Y60460000D01*
X36708072Y61460000D01*
X36695812Y61584482D01*
X36659502Y61704180D01*
X36600537Y61814494D01*
X36521185Y61911185D01*
X36424494Y61990537D01*
X36314180Y62049502D01*
X36194482Y62085812D01*
X36070000Y62098072D01*
X32570000Y62098072D01*
X32445518Y62085812D01*
X32325820Y62049502D01*
X32215506Y61990537D01*
X32118815Y61911185D01*
X32039463Y61814494D01*
X31980498Y61704180D01*
X31944188Y61584482D01*
X31931928Y61460000D01*
X31931928Y60946730D01*
X31519631Y60534433D01*
X31387729Y60589068D01*
X31207089Y60625000D01*
X31022911Y60625000D01*
X30842271Y60589068D01*
X30672111Y60518586D01*
X30518972Y60416262D01*
X30388738Y60286028D01*
X30286414Y60132889D01*
X30215932Y59962729D01*
X30180000Y59782089D01*
X30180000Y59597911D01*
X30215932Y59417271D01*
X30286414Y59247111D01*
X30388738Y59093972D01*
X30427710Y59055000D01*
X30388738Y59016028D01*
X30286414Y58862889D01*
X30215932Y58692729D01*
X30180000Y58512089D01*
X30180000Y58327911D01*
X30215932Y58147271D01*
X30286414Y57977111D01*
X30388738Y57823972D01*
X30427710Y57785000D01*
X30388738Y57746028D01*
X30286414Y57592889D01*
X30215932Y57422729D01*
X30180000Y57242089D01*
X30180000Y57057911D01*
X30215932Y56877271D01*
X30286414Y56707111D01*
X30388738Y56553972D01*
X30427710Y56515000D01*
X30388738Y56476028D01*
X30286414Y56322889D01*
X30215932Y56152729D01*
X30180000Y55972089D01*
X30180000Y55787911D01*
X30215932Y55607271D01*
X30286414Y55437111D01*
X30388738Y55283972D01*
X30427710Y55245000D01*
X30388738Y55206028D01*
X30286414Y55052889D01*
X30215932Y54882729D01*
X30180000Y54702089D01*
X30180000Y54517911D01*
X30215932Y54337271D01*
X30286414Y54167111D01*
X30388738Y54013972D01*
X30427710Y53975000D01*
X30388738Y53936028D01*
X30286414Y53782889D01*
X30215932Y53612729D01*
X30180000Y53432089D01*
X30180000Y53247911D01*
X30215932Y53067271D01*
X30286414Y52897111D01*
X30388738Y52743972D01*
X30518972Y52613738D01*
X30672111Y52511414D01*
X30842271Y52440932D01*
X31022911Y52405000D01*
X31207089Y52405000D01*
X31387729Y52440932D01*
X31557889Y52511414D01*
X31660535Y52580000D01*
X31988954Y52580000D01*
X32039463Y52485506D01*
X32118815Y52388815D01*
X32215506Y52309463D01*
X32325820Y52250498D01*
X32445518Y52214188D01*
X32570000Y52201928D01*
X36070000Y52201928D01*
X36070000Y51938072D01*
X32570000Y51938072D01*
X32445518Y51925812D01*
X32325820Y51889502D01*
X32215506Y51830537D01*
X32118815Y51751185D01*
X32039463Y51654494D01*
X31988954Y51560000D01*
X31660535Y51560000D01*
X31557889Y51628586D01*
X31387729Y51699068D01*
X31207089Y51735000D01*
X31022911Y51735000D01*
X30842271Y51699068D01*
X30672111Y51628586D01*
X30518972Y51526262D01*
X30388738Y51396028D01*
X30286414Y51242889D01*
X30215932Y51072729D01*
X30180000Y50892089D01*
X30180000Y50707911D01*
X30215932Y50527271D01*
X30286414Y50357111D01*
X30388738Y50203972D01*
X30518972Y50073738D01*
X30672111Y49971414D01*
X30842271Y49900932D01*
X31022911Y49865000D01*
X31207089Y49865000D01*
X31387729Y49900932D01*
X31557889Y49971414D01*
X31660535Y50040000D01*
X31988954Y50040000D01*
X32039463Y49945506D01*
X32118815Y49848815D01*
X32215506Y49769463D01*
X32325820Y49710498D01*
X32445518Y49674188D01*
X32570000Y49661928D01*
X36070000Y49661928D01*
X36070000Y49398072D01*
X32570000Y49398072D01*
X32445518Y49385812D01*
X32325820Y49349502D01*
X32215506Y49290537D01*
X32118815Y49211185D01*
X32039463Y49114494D01*
X32028673Y49094307D01*
X32014068Y49167729D01*
X31943586Y49337889D01*
X31841262Y49491028D01*
X31711028Y49621262D01*
X31557889Y49723586D01*
X31387729Y49794068D01*
X31207089Y49830000D01*
X31022911Y49830000D01*
X30842271Y49794068D01*
X30672111Y49723586D01*
X30518972Y49621262D01*
X30388738Y49491028D01*
X30286414Y49337889D01*
X30215932Y49167729D01*
X30180000Y48987089D01*
X30180000Y48802911D01*
X30215932Y48622271D01*
X30286414Y48452111D01*
X30388738Y48298972D01*
X30518972Y48168738D01*
X30672111Y48066414D01*
X30842271Y47995932D01*
X30963351Y47971847D01*
X31186200Y47748998D01*
X31209999Y47719999D01*
X31325724Y47625026D01*
X31457753Y47554454D01*
X31601014Y47510997D01*
X31702484Y47501003D01*
X31750000Y47496323D01*
X31787333Y47500000D01*
X31988954Y47500000D01*
X32039463Y47405506D01*
X32118815Y47308815D01*
X32215506Y47229463D01*
X32325820Y47170498D01*
X32445518Y47134188D01*
X32570000Y47121928D01*
X36070000Y47121928D01*
X36070000Y46858072D01*
X32570000Y46858072D01*
X32445518Y46845812D01*
X32359947Y46819854D01*
X32313803Y46865998D01*
X32290001Y46895001D01*
X32174276Y46989974D01*
X32042247Y47060546D01*
X31898986Y47104003D01*
X31787333Y47115000D01*
X31787322Y47115000D01*
X31750000Y47118676D01*
X31712678Y47115000D01*
X31025535Y47115000D01*
X30922889Y47183586D01*
X30752729Y47254068D01*
X30572089Y47290000D01*
X30387911Y47290000D01*
X30207271Y47254068D01*
X30037111Y47183586D01*
X29883972Y47081262D01*
X29753738Y46951028D01*
X29651414Y46797889D01*
X29580932Y46627729D01*
X29545000Y46447089D01*
X20445000Y46447089D01*
X20445000Y46952678D01*
X20448676Y46990001D01*
X20445000Y47027324D01*
X20445000Y47027333D01*
X20434003Y47138986D01*
X20390546Y47282247D01*
X20319974Y47414276D01*
X20225001Y47530001D01*
X20196004Y47553798D01*
X18978804Y48770997D01*
X18955001Y48800001D01*
X18856142Y48881133D01*
X18855812Y48884482D01*
X18819502Y49004180D01*
X18760537Y49114494D01*
X18681185Y49211185D01*
X18584494Y49290537D01*
X18474180Y49349502D01*
X18354482Y49385812D01*
X18230000Y49398072D01*
X14730000Y49398072D01*
X14605518Y49385812D01*
X14485820Y49349502D01*
X14375506Y49290537D01*
X14278815Y49211185D01*
X14199463Y49114494D01*
X14140498Y49004180D01*
X14104188Y48884482D01*
X14091928Y48760000D01*
X14091928Y48025000D01*
X14020835Y48025000D01*
X13970000Y48030007D01*
X13919165Y48025000D01*
X13919162Y48025000D01*
X13767105Y48010024D01*
X13572007Y47950841D01*
X13490370Y47907205D01*
X13392202Y47854734D01*
X13276769Y47760000D01*
X13234604Y47725396D01*
X13202197Y47685908D01*
X12548229Y47031939D01*
X12548226Y47031937D01*
X12404063Y46887774D01*
X12375671Y46845283D01*
X12343266Y46805797D01*
X12319187Y46760748D01*
X12290795Y46718256D01*
X12271236Y46671036D01*
X12247160Y46625993D01*
X12232335Y46577122D01*
X12212774Y46529898D01*
X12202803Y46479768D01*
X12187977Y46430895D01*
X12182971Y46380067D01*
X12173000Y46329939D01*
X12173000Y46278828D01*
X12167994Y46228000D01*
X6477721Y46228000D01*
X6458599Y46291034D01*
X6320706Y46549014D01*
X6135134Y46775134D01*
X5909014Y46960706D01*
X5854209Y46990000D01*
X5909014Y47019294D01*
X6135134Y47204866D01*
X6320706Y47430986D01*
X6458599Y47688966D01*
X6543513Y47968889D01*
X6572185Y48260000D01*
X6543513Y48551111D01*
X6458599Y48831034D01*
X6320706Y49089014D01*
X6135134Y49315134D01*
X5909014Y49500706D01*
X5854209Y49530000D01*
X5909014Y49559294D01*
X6135134Y49744866D01*
X6320706Y49970986D01*
X6458599Y50228966D01*
X6543513Y50508889D01*
X6572185Y50800000D01*
X6543513Y51091111D01*
X6480148Y51300000D01*
X14091928Y51300000D01*
X14091928Y50300000D01*
X14104188Y50175518D01*
X14140498Y50055820D01*
X14199463Y49945506D01*
X14278815Y49848815D01*
X14375506Y49769463D01*
X14485820Y49710498D01*
X14605518Y49674188D01*
X14730000Y49661928D01*
X18230000Y49661928D01*
X18354482Y49674188D01*
X18474180Y49710498D01*
X18584494Y49769463D01*
X18681185Y49848815D01*
X18760537Y49945506D01*
X18771327Y49965693D01*
X18785932Y49892271D01*
X18856414Y49722111D01*
X18958738Y49568972D01*
X19088972Y49438738D01*
X19242111Y49336414D01*
X19412271Y49265932D01*
X19592911Y49230000D01*
X19777089Y49230000D01*
X19957729Y49265932D01*
X20127889Y49336414D01*
X20281028Y49438738D01*
X20411262Y49568972D01*
X20513586Y49722111D01*
X20584068Y49892271D01*
X20620000Y50072911D01*
X20620000Y50257089D01*
X20584068Y50437729D01*
X20513586Y50607889D01*
X20411262Y50761028D01*
X20281028Y50891262D01*
X20127889Y50993586D01*
X19957729Y51064068D01*
X19836649Y51088153D01*
X19613803Y51310998D01*
X19590001Y51340001D01*
X19474276Y51434974D01*
X19342247Y51505546D01*
X19198986Y51549003D01*
X19087333Y51560000D01*
X19087322Y51560000D01*
X19050000Y51563676D01*
X19012678Y51560000D01*
X18811046Y51560000D01*
X18760537Y51654494D01*
X18681185Y51751185D01*
X18584494Y51830537D01*
X18474180Y51889502D01*
X18354482Y51925812D01*
X18230000Y51938072D01*
X14730000Y51938072D01*
X14605518Y51925812D01*
X14485820Y51889502D01*
X14375506Y51830537D01*
X14278815Y51751185D01*
X14199463Y51654494D01*
X14140498Y51544180D01*
X14104188Y51424482D01*
X14091928Y51300000D01*
X6480148Y51300000D01*
X6458599Y51371034D01*
X6320706Y51629014D01*
X6135134Y51855134D01*
X5909014Y52040706D01*
X5854209Y52070000D01*
X5909014Y52099294D01*
X6135134Y52284866D01*
X6320706Y52510986D01*
X6458599Y52768966D01*
X6543513Y53048889D01*
X6572185Y53340000D01*
X6543513Y53631111D01*
X6480148Y53840000D01*
X14091928Y53840000D01*
X14091928Y52840000D01*
X14104188Y52715518D01*
X14140498Y52595820D01*
X14199463Y52485506D01*
X14278815Y52388815D01*
X14375506Y52309463D01*
X14485820Y52250498D01*
X14605518Y52214188D01*
X14730000Y52201928D01*
X18230000Y52201928D01*
X18354482Y52214188D01*
X18474180Y52250498D01*
X18584494Y52309463D01*
X18681185Y52388815D01*
X18760537Y52485506D01*
X18771327Y52505693D01*
X18785932Y52432271D01*
X18856414Y52262111D01*
X18958738Y52108972D01*
X19088972Y51978738D01*
X19242111Y51876414D01*
X19412271Y51805932D01*
X19592911Y51770000D01*
X19777089Y51770000D01*
X19957729Y51805932D01*
X20127889Y51876414D01*
X20281028Y51978738D01*
X20411262Y52108972D01*
X20513586Y52262111D01*
X20584068Y52432271D01*
X20620000Y52612911D01*
X20620000Y52797089D01*
X20584068Y52977729D01*
X20513586Y53147889D01*
X20411262Y53301028D01*
X20281028Y53431262D01*
X20127889Y53533586D01*
X19957729Y53604068D01*
X19836649Y53628153D01*
X19613803Y53850998D01*
X19590001Y53880001D01*
X19474276Y53974974D01*
X19342247Y54045546D01*
X19198986Y54089003D01*
X19087333Y54100000D01*
X19087322Y54100000D01*
X19050000Y54103676D01*
X19012678Y54100000D01*
X18811046Y54100000D01*
X18760537Y54194494D01*
X18681185Y54291185D01*
X18584494Y54370537D01*
X18474180Y54429502D01*
X18354482Y54465812D01*
X18230000Y54478072D01*
X14730000Y54478072D01*
X14605518Y54465812D01*
X14485820Y54429502D01*
X14375506Y54370537D01*
X14278815Y54291185D01*
X14199463Y54194494D01*
X14140498Y54084180D01*
X14104188Y53964482D01*
X14091928Y53840000D01*
X6480148Y53840000D01*
X6458599Y53911034D01*
X6320706Y54169014D01*
X6135134Y54395134D01*
X5909014Y54580706D01*
X5854209Y54610000D01*
X5909014Y54639294D01*
X6135134Y54824866D01*
X6320706Y55050986D01*
X6458599Y55308966D01*
X6543513Y55588889D01*
X6572185Y55880000D01*
X6543513Y56171111D01*
X6480148Y56380000D01*
X14091928Y56380000D01*
X14091928Y55380000D01*
X14104188Y55255518D01*
X14140498Y55135820D01*
X14199463Y55025506D01*
X14278815Y54928815D01*
X14375506Y54849463D01*
X14485820Y54790498D01*
X14605518Y54754188D01*
X14730000Y54741928D01*
X18230000Y54741928D01*
X18354482Y54754188D01*
X18474180Y54790498D01*
X18584494Y54849463D01*
X18681185Y54928815D01*
X18760537Y55025506D01*
X18771327Y55045693D01*
X18785932Y54972271D01*
X18856414Y54802111D01*
X18958738Y54648972D01*
X19088972Y54518738D01*
X19242111Y54416414D01*
X19412271Y54345932D01*
X19592911Y54310000D01*
X19777089Y54310000D01*
X19957729Y54345932D01*
X20127889Y54416414D01*
X20281028Y54518738D01*
X20411262Y54648972D01*
X20513586Y54802111D01*
X20584068Y54972271D01*
X20620000Y55152911D01*
X20620000Y55337089D01*
X20584068Y55517729D01*
X20513586Y55687889D01*
X20411262Y55841028D01*
X20281028Y55971262D01*
X20127889Y56073586D01*
X19957729Y56144068D01*
X19836649Y56168153D01*
X19613803Y56390998D01*
X19590001Y56420001D01*
X19474276Y56514974D01*
X19342247Y56585546D01*
X19198986Y56629003D01*
X19087333Y56640000D01*
X19087322Y56640000D01*
X19050000Y56643676D01*
X19012678Y56640000D01*
X18811046Y56640000D01*
X18760537Y56734494D01*
X18681185Y56831185D01*
X18584494Y56910537D01*
X18474180Y56969502D01*
X18354482Y57005812D01*
X18230000Y57018072D01*
X14730000Y57018072D01*
X14605518Y57005812D01*
X14485820Y56969502D01*
X14375506Y56910537D01*
X14278815Y56831185D01*
X14199463Y56734494D01*
X14140498Y56624180D01*
X14104188Y56504482D01*
X14091928Y56380000D01*
X6480148Y56380000D01*
X6458599Y56451034D01*
X6320706Y56709014D01*
X6135134Y56935134D01*
X5909014Y57120706D01*
X5854209Y57150000D01*
X5909014Y57179294D01*
X6135134Y57364866D01*
X6320706Y57590986D01*
X6458599Y57848966D01*
X6543513Y58128889D01*
X6572185Y58420000D01*
X6543513Y58711111D01*
X6458599Y58991034D01*
X6320706Y59249014D01*
X6135134Y59475134D01*
X6105313Y59499607D01*
X6174180Y59520498D01*
X6284494Y59579463D01*
X6381185Y59658815D01*
X6460537Y59755506D01*
X6519502Y59865820D01*
X6555812Y59985518D01*
X6568072Y60110000D01*
X6568072Y61460000D01*
X14091928Y61460000D01*
X14091928Y60460000D01*
X14104188Y60335518D01*
X14140498Y60215820D01*
X14199463Y60105506D01*
X14278815Y60008815D01*
X14375506Y59929463D01*
X14485820Y59870498D01*
X14605518Y59834188D01*
X14730000Y59821928D01*
X17843271Y59821928D01*
X18107127Y59558072D01*
X14730000Y59558072D01*
X14605518Y59545812D01*
X14485820Y59509502D01*
X14375506Y59450537D01*
X14278815Y59371185D01*
X14199463Y59274494D01*
X14140498Y59164180D01*
X14104188Y59044482D01*
X14091928Y58920000D01*
X14091928Y57920000D01*
X14104188Y57795518D01*
X14140498Y57675820D01*
X14199463Y57565506D01*
X14278815Y57468815D01*
X14375506Y57389463D01*
X14485820Y57330498D01*
X14605518Y57294188D01*
X14730000Y57281928D01*
X18230000Y57281928D01*
X18354482Y57294188D01*
X18474180Y57330498D01*
X18584494Y57389463D01*
X18681185Y57468815D01*
X18760537Y57565506D01*
X18771327Y57585693D01*
X18785932Y57512271D01*
X18856414Y57342111D01*
X18958738Y57188972D01*
X19088972Y57058738D01*
X19242111Y56956414D01*
X19412271Y56885932D01*
X19592911Y56850000D01*
X19777089Y56850000D01*
X19957729Y56885932D01*
X20127889Y56956414D01*
X20281028Y57058738D01*
X20411262Y57188972D01*
X20513586Y57342111D01*
X20584068Y57512271D01*
X20620000Y57692911D01*
X20620000Y57877089D01*
X20584068Y58057729D01*
X20513586Y58227889D01*
X20411262Y58381028D01*
X20372290Y58420000D01*
X20411262Y58458972D01*
X20513586Y58612111D01*
X20584068Y58782271D01*
X20620000Y58962911D01*
X20620000Y59147089D01*
X20584068Y59327729D01*
X20513586Y59497889D01*
X20411262Y59651028D01*
X20281028Y59781262D01*
X20127889Y59883586D01*
X19957729Y59954068D01*
X19836649Y59978153D01*
X18868072Y60946729D01*
X18868072Y61460000D01*
X18855812Y61584482D01*
X18819502Y61704180D01*
X18760537Y61814494D01*
X18681185Y61911185D01*
X18584494Y61990537D01*
X18474180Y62049502D01*
X18354482Y62085812D01*
X18230000Y62098072D01*
X14730000Y62098072D01*
X14605518Y62085812D01*
X14485820Y62049502D01*
X14375506Y61990537D01*
X14278815Y61911185D01*
X14199463Y61814494D01*
X14140498Y61704180D01*
X14104188Y61584482D01*
X14091928Y61460000D01*
X6568072Y61460000D01*
X6568072Y61810000D01*
X6555812Y61934482D01*
X6519502Y62054180D01*
X6460537Y62164494D01*
X6381185Y62261185D01*
X6284494Y62340537D01*
X6174180Y62399502D01*
X6054482Y62435812D01*
X5930000Y62448072D01*
X4230000Y62448072D01*
X4105518Y62435812D01*
X3985820Y62399502D01*
X3875506Y62340537D01*
X3778815Y62261185D01*
X3699463Y62164494D01*
X3640498Y62054180D01*
X3619607Y61985313D01*
X3595134Y62015134D01*
X3369014Y62200706D01*
X3111034Y62338599D01*
X2831111Y62423513D01*
X2612950Y62445000D01*
X2467050Y62445000D01*
X2248889Y62423513D01*
X1968966Y62338599D01*
X1710986Y62200706D01*
X1599000Y62108801D01*
X1599000Y70775561D01*
X1656837Y70689002D01*
X1898502Y70447337D01*
X2182669Y70257463D01*
X2498419Y70126675D01*
X2833617Y70060000D01*
X3175383Y70060000D01*
X3510581Y70126675D01*
X3826331Y70257463D01*
X4110498Y70447337D01*
X4352163Y70689002D01*
X4542037Y70973169D01*
X4672825Y71288919D01*
X4739500Y71624117D01*
X4739500Y71965883D01*
X4672825Y72301081D01*
X4542037Y72616831D01*
X4411534Y72812143D01*
X4687658Y72867068D01*
X4957911Y72979010D01*
X5201132Y73141525D01*
X5326210Y73266603D01*
X7905708Y73266603D01*
X7983343Y73017528D01*
X8247383Y72891629D01*
X8530911Y72819661D01*
X8600073Y72816045D01*
X8466963Y72616831D01*
X8336175Y72301081D01*
X8269500Y71965883D01*
X8269500Y71624117D01*
X8336175Y71288919D01*
X8466963Y70973169D01*
X8656837Y70689002D01*
X8898502Y70447337D01*
X9182669Y70257463D01*
X9498419Y70126675D01*
X9833617Y70060000D01*
X10175383Y70060000D01*
X10510581Y70126675D01*
X10826331Y70257463D01*
X11110498Y70447337D01*
X11352163Y70689002D01*
X11542037Y70973169D01*
X11672825Y71288919D01*
X11739500Y71624117D01*
X11739500Y71965883D01*
X38870000Y71965883D01*
X38870000Y71624117D01*
X38936675Y71288919D01*
X39067463Y70973169D01*
X39257337Y70689002D01*
X39499002Y70447337D01*
X39783169Y70257463D01*
X40098919Y70126675D01*
X40434117Y70060000D01*
X40775883Y70060000D01*
X41111081Y70126675D01*
X41426831Y70257463D01*
X41710998Y70447337D01*
X41952663Y70689002D01*
X42142537Y70973169D01*
X42273325Y71288919D01*
X42340000Y71624117D01*
X42340000Y71965883D01*
X42273325Y72301081D01*
X42142537Y72616831D01*
X42008934Y72816783D01*
X42213019Y72846401D01*
X42488747Y72944081D01*
X42626157Y73017528D01*
X42703792Y73266603D01*
X41855000Y74115395D01*
X41840858Y74101252D01*
X41661253Y74280857D01*
X41675395Y74295000D01*
X42034605Y74295000D01*
X42883397Y73446208D01*
X43132472Y73523843D01*
X43258371Y73787883D01*
X43330339Y74071411D01*
X43345611Y74363531D01*
X43303599Y74653019D01*
X43205919Y74928747D01*
X43132472Y75066157D01*
X42883397Y75143792D01*
X42034605Y74295000D01*
X41675395Y74295000D01*
X40826603Y75143792D01*
X40577528Y75066157D01*
X40451629Y74802117D01*
X40379661Y74518589D01*
X40364389Y74226469D01*
X40406401Y73936981D01*
X40504081Y73661253D01*
X40574237Y73530000D01*
X40434117Y73530000D01*
X40098919Y73463325D01*
X39783169Y73332537D01*
X39499002Y73142663D01*
X39257337Y72900998D01*
X39067463Y72616831D01*
X38936675Y72301081D01*
X38870000Y71965883D01*
X11739500Y71965883D01*
X11672825Y72301081D01*
X11542037Y72616831D01*
X11352163Y72900998D01*
X11110498Y73142663D01*
X10826331Y73332537D01*
X10510581Y73463325D01*
X10175383Y73530000D01*
X10034908Y73530000D01*
X10157871Y73787883D01*
X10229839Y74071411D01*
X10245111Y74363531D01*
X10233116Y74446184D01*
X11800000Y74446184D01*
X11800000Y74143816D01*
X11858989Y73847257D01*
X11974701Y73567905D01*
X12142688Y73316495D01*
X12356495Y73102688D01*
X12607905Y72934701D01*
X12887257Y72818989D01*
X13183816Y72760000D01*
X13486184Y72760000D01*
X13782743Y72818989D01*
X14062095Y72934701D01*
X14313505Y73102688D01*
X14379944Y73169127D01*
X14385498Y73150820D01*
X14444463Y73040506D01*
X14523815Y72943815D01*
X14620506Y72864463D01*
X14730820Y72805498D01*
X14850518Y72769188D01*
X14975000Y72756928D01*
X15589250Y72760000D01*
X15748000Y72918750D01*
X15748000Y74168000D01*
X15728000Y74168000D01*
X15728000Y74422000D01*
X15748000Y74422000D01*
X15748000Y75671250D01*
X16002000Y75671250D01*
X16002000Y74422000D01*
X16022000Y74422000D01*
X16022000Y74168000D01*
X16002000Y74168000D01*
X16002000Y72918750D01*
X16160750Y72760000D01*
X16775000Y72756928D01*
X16899482Y72769188D01*
X17019180Y72805498D01*
X17129494Y72864463D01*
X17226185Y72943815D01*
X17305537Y73040506D01*
X17364502Y73150820D01*
X17370056Y73169127D01*
X17436495Y73102688D01*
X17687905Y72934701D01*
X17967257Y72818989D01*
X18263816Y72760000D01*
X18566184Y72760000D01*
X18862743Y72818989D01*
X19142095Y72934701D01*
X19393505Y73102688D01*
X19459944Y73169127D01*
X19465498Y73150820D01*
X19524463Y73040506D01*
X19603815Y72943815D01*
X19700506Y72864463D01*
X19810820Y72805498D01*
X19930518Y72769188D01*
X20055000Y72756928D01*
X20669250Y72760000D01*
X20828000Y72918750D01*
X20828000Y74168000D01*
X20808000Y74168000D01*
X20808000Y74422000D01*
X20828000Y74422000D01*
X20828000Y75671250D01*
X21082000Y75671250D01*
X21082000Y74422000D01*
X21102000Y74422000D01*
X21102000Y74168000D01*
X21082000Y74168000D01*
X21082000Y72918750D01*
X21240750Y72760000D01*
X21855000Y72756928D01*
X21979482Y72769188D01*
X22099180Y72805498D01*
X22209494Y72864463D01*
X22306185Y72943815D01*
X22385537Y73040506D01*
X22444502Y73150820D01*
X22450056Y73169127D01*
X22516495Y73102688D01*
X22767905Y72934701D01*
X23047257Y72818989D01*
X23343816Y72760000D01*
X23646184Y72760000D01*
X23942743Y72818989D01*
X24222095Y72934701D01*
X24473505Y73102688D01*
X24539944Y73169127D01*
X24545498Y73150820D01*
X24604463Y73040506D01*
X24683815Y72943815D01*
X24780506Y72864463D01*
X24890820Y72805498D01*
X25010518Y72769188D01*
X25135000Y72756928D01*
X25749250Y72760000D01*
X25908000Y72918750D01*
X25908000Y74168000D01*
X26162000Y74168000D01*
X26162000Y72918750D01*
X26320750Y72760000D01*
X26935000Y72756928D01*
X27059482Y72769188D01*
X27179180Y72805498D01*
X27289494Y72864463D01*
X27386185Y72943815D01*
X27465537Y73040506D01*
X27524502Y73150820D01*
X27560812Y73270518D01*
X27573072Y73395000D01*
X27570000Y74009250D01*
X27411250Y74168000D01*
X26162000Y74168000D01*
X25908000Y74168000D01*
X25888000Y74168000D01*
X25888000Y74422000D01*
X25908000Y74422000D01*
X25908000Y75671250D01*
X26162000Y75671250D01*
X26162000Y74422000D01*
X27411250Y74422000D01*
X27570000Y74580750D01*
X27573072Y75195000D01*
X27560812Y75319482D01*
X27559625Y75323397D01*
X41006208Y75323397D01*
X41855000Y74474605D01*
X42703792Y75323397D01*
X42626157Y75572472D01*
X42362117Y75698371D01*
X42078589Y75770339D01*
X41786469Y75785611D01*
X41496981Y75743599D01*
X41221253Y75645919D01*
X41083843Y75572472D01*
X41006208Y75323397D01*
X27559625Y75323397D01*
X27524502Y75439180D01*
X27465537Y75549494D01*
X27386185Y75646185D01*
X27289494Y75725537D01*
X27179180Y75784502D01*
X27059482Y75820812D01*
X26935000Y75833072D01*
X26320750Y75830000D01*
X26162000Y75671250D01*
X25908000Y75671250D01*
X25749250Y75830000D01*
X25135000Y75833072D01*
X25010518Y75820812D01*
X24890820Y75784502D01*
X24780506Y75725537D01*
X24683815Y75646185D01*
X24604463Y75549494D01*
X24545498Y75439180D01*
X24539944Y75420873D01*
X24473505Y75487312D01*
X24222095Y75655299D01*
X23942743Y75771011D01*
X23646184Y75830000D01*
X23343816Y75830000D01*
X23047257Y75771011D01*
X22767905Y75655299D01*
X22516495Y75487312D01*
X22450056Y75420873D01*
X22444502Y75439180D01*
X22385537Y75549494D01*
X22306185Y75646185D01*
X22209494Y75725537D01*
X22099180Y75784502D01*
X21979482Y75820812D01*
X21855000Y75833072D01*
X21240750Y75830000D01*
X21082000Y75671250D01*
X20828000Y75671250D01*
X20669250Y75830000D01*
X20055000Y75833072D01*
X19930518Y75820812D01*
X19810820Y75784502D01*
X19700506Y75725537D01*
X19603815Y75646185D01*
X19524463Y75549494D01*
X19465498Y75439180D01*
X19459944Y75420873D01*
X19393505Y75487312D01*
X19142095Y75655299D01*
X18862743Y75771011D01*
X18566184Y75830000D01*
X18263816Y75830000D01*
X17967257Y75771011D01*
X17687905Y75655299D01*
X17436495Y75487312D01*
X17370056Y75420873D01*
X17364502Y75439180D01*
X17305537Y75549494D01*
X17226185Y75646185D01*
X17129494Y75725537D01*
X17019180Y75784502D01*
X16899482Y75820812D01*
X16775000Y75833072D01*
X16160750Y75830000D01*
X16002000Y75671250D01*
X15748000Y75671250D01*
X15589250Y75830000D01*
X14975000Y75833072D01*
X14850518Y75820812D01*
X14730820Y75784502D01*
X14620506Y75725537D01*
X14523815Y75646185D01*
X14444463Y75549494D01*
X14385498Y75439180D01*
X14379944Y75420873D01*
X14313505Y75487312D01*
X14062095Y75655299D01*
X13782743Y75771011D01*
X13486184Y75830000D01*
X13183816Y75830000D01*
X12887257Y75771011D01*
X12607905Y75655299D01*
X12356495Y75487312D01*
X12142688Y75273505D01*
X11974701Y75022095D01*
X11858989Y74742743D01*
X11800000Y74446184D01*
X10233116Y74446184D01*
X10203099Y74653019D01*
X10105419Y74928747D01*
X10031972Y75066157D01*
X9782897Y75143792D01*
X8934105Y74295000D01*
X8948248Y74280857D01*
X8768643Y74101252D01*
X8754500Y74115395D01*
X7905708Y73266603D01*
X5326210Y73266603D01*
X5407975Y73348368D01*
X5570490Y73591589D01*
X5682432Y73861842D01*
X5739500Y74148740D01*
X5739500Y74226469D01*
X7263889Y74226469D01*
X7305901Y73936981D01*
X7403581Y73661253D01*
X7477028Y73523843D01*
X7726103Y73446208D01*
X8574895Y74295000D01*
X7726103Y75143792D01*
X7477028Y75066157D01*
X7351129Y74802117D01*
X7279161Y74518589D01*
X7263889Y74226469D01*
X5739500Y74226469D01*
X5739500Y74441260D01*
X5682432Y74728158D01*
X5570490Y74998411D01*
X5407975Y75241632D01*
X5326210Y75323397D01*
X7905708Y75323397D01*
X8754500Y74474605D01*
X9603292Y75323397D01*
X9525657Y75572472D01*
X9261617Y75698371D01*
X8978089Y75770339D01*
X8685969Y75785611D01*
X8396481Y75743599D01*
X8120753Y75645919D01*
X7983343Y75572472D01*
X7905708Y75323397D01*
X5326210Y75323397D01*
X5201132Y75448475D01*
X4957911Y75610990D01*
X4687658Y75722932D01*
X4400760Y75780000D01*
X4108240Y75780000D01*
X3821342Y75722932D01*
X3551089Y75610990D01*
X3307868Y75448475D01*
X3101025Y75241632D01*
X2938510Y74998411D01*
X2826568Y74728158D01*
X2769500Y74441260D01*
X2769500Y74148740D01*
X2826568Y73861842D01*
X2938510Y73591589D01*
X2979662Y73530000D01*
X2833617Y73530000D01*
X2498419Y73463325D01*
X2182669Y73332537D01*
X1898502Y73142663D01*
X1656837Y72900998D01*
X1599000Y72814439D01*
X1599000Y76506000D01*
X49201000Y76506000D01*
X49201000Y72475689D01*
X49201000Y72475689D01*
G37*
X49201000Y72475689D02*
X49142537Y72616831D01*
X48952663Y72900998D01*
X48710998Y73142663D01*
X48426831Y73332537D01*
X48111081Y73463325D01*
X47775883Y73530000D01*
X47629838Y73530000D01*
X47670990Y73591589D01*
X47782932Y73861842D01*
X47840000Y74148740D01*
X47840000Y74441260D01*
X47782932Y74728158D01*
X47670990Y74998411D01*
X47508475Y75241632D01*
X47301632Y75448475D01*
X47058411Y75610990D01*
X46788158Y75722932D01*
X46501260Y75780000D01*
X46208740Y75780000D01*
X45921842Y75722932D01*
X45651589Y75610990D01*
X45408368Y75448475D01*
X45201525Y75241632D01*
X45039010Y74998411D01*
X44927068Y74728158D01*
X44870000Y74441260D01*
X44870000Y74148740D01*
X44927068Y73861842D01*
X45039010Y73591589D01*
X45201525Y73348368D01*
X45408368Y73141525D01*
X45651589Y72979010D01*
X45921842Y72867068D01*
X46197966Y72812143D01*
X46067463Y72616831D01*
X45936675Y72301081D01*
X45870000Y71965883D01*
X45870000Y71624117D01*
X45936675Y71288919D01*
X46067463Y70973169D01*
X46257337Y70689002D01*
X46499002Y70447337D01*
X46783169Y70257463D01*
X47098919Y70126675D01*
X47434117Y70060000D01*
X47775883Y70060000D01*
X48111081Y70126675D01*
X48426831Y70257463D01*
X48710998Y70447337D01*
X48952663Y70689002D01*
X49142537Y70973169D01*
X49201000Y71114311D01*
X49201000Y62108801D01*
X49089014Y62200706D01*
X48831034Y62338599D01*
X48551111Y62423513D01*
X48332950Y62445000D01*
X48187050Y62445000D01*
X47968889Y62423513D01*
X47688966Y62338599D01*
X47430986Y62200706D01*
X47204866Y62015134D01*
X47019294Y61789014D01*
X46990000Y61734209D01*
X46960706Y61789014D01*
X46775134Y62015134D01*
X46549014Y62200706D01*
X46291034Y62338599D01*
X46011111Y62423513D01*
X45792950Y62445000D01*
X45647050Y62445000D01*
X45428889Y62423513D01*
X45148966Y62338599D01*
X44890986Y62200706D01*
X44664866Y62015134D01*
X44479294Y61789014D01*
X44341401Y61531034D01*
X44256487Y61251111D01*
X44227815Y60960000D01*
X44256487Y60668889D01*
X44341401Y60388966D01*
X44479294Y60130986D01*
X44664866Y59904866D01*
X44890986Y59719294D01*
X44945791Y59690000D01*
X44890986Y59660706D01*
X44664866Y59475134D01*
X44479294Y59249014D01*
X44341401Y58991034D01*
X44256487Y58711111D01*
X44227815Y58420000D01*
X44256487Y58128889D01*
X44341401Y57848966D01*
X44479294Y57590986D01*
X44664866Y57364866D01*
X44890986Y57179294D01*
X44945791Y57150000D01*
X44890986Y57120706D01*
X44664866Y56935134D01*
X44479294Y56709014D01*
X44341401Y56451034D01*
X44256487Y56171111D01*
X44227815Y55880000D01*
X44256487Y55588889D01*
X44341401Y55308966D01*
X44479294Y55050986D01*
X44664866Y54824866D01*
X44890986Y54639294D01*
X44945791Y54610000D01*
X44890986Y54580706D01*
X44664866Y54395134D01*
X44479294Y54169014D01*
X44341401Y53911034D01*
X44256487Y53631111D01*
X44227815Y53340000D01*
X44256487Y53048889D01*
X44341401Y52768966D01*
X44479294Y52510986D01*
X44664866Y52284866D01*
X44890986Y52099294D01*
X44945791Y52070000D01*
X44890986Y52040706D01*
X44664866Y51855134D01*
X44479294Y51629014D01*
X44341401Y51371034D01*
X44256487Y51091111D01*
X44227815Y50800000D01*
X44256487Y50508889D01*
X44341401Y50228966D01*
X44479294Y49970986D01*
X44664866Y49744866D01*
X44890986Y49559294D01*
X44945791Y49530000D01*
X44890986Y49500706D01*
X44664866Y49315134D01*
X44479294Y49089014D01*
X44341401Y48831034D01*
X44256487Y48551111D01*
X44227815Y48260000D01*
X44256487Y47968889D01*
X44341401Y47688966D01*
X44479294Y47430986D01*
X44664866Y47204866D01*
X44890986Y47019294D01*
X44945791Y46990000D01*
X44890986Y46960706D01*
X44664866Y46775134D01*
X44479294Y46549014D01*
X44444057Y46483091D01*
X44412676Y46480000D01*
X44412667Y46480000D01*
X44301014Y46469003D01*
X44157753Y46425546D01*
X44025724Y46354974D01*
X43909999Y46260001D01*
X43886201Y46231003D01*
X43214624Y45559425D01*
X43118387Y45638405D01*
X42964851Y45720472D01*
X42798255Y45771008D01*
X42625001Y45788072D01*
X41974999Y45788072D01*
X41801745Y45771008D01*
X41635149Y45720472D01*
X41481613Y45638405D01*
X41347038Y45527962D01*
X41341658Y45521406D01*
X41276185Y45601185D01*
X41179494Y45680537D01*
X41069180Y45739502D01*
X40949482Y45775812D01*
X40825000Y45788072D01*
X40535750Y45785000D01*
X40377000Y45626250D01*
X40377000Y44577000D01*
X40397000Y44577000D01*
X40397000Y44323000D01*
X40377000Y44323000D01*
X40377000Y43273750D01*
X40470750Y43180000D01*
X40377000Y43086250D01*
X40377000Y42037000D01*
X40397000Y42037000D01*
X40397000Y41783000D01*
X40377000Y41783000D01*
X40377000Y40733750D01*
X40470750Y40640000D01*
X40377000Y40546250D01*
X40377000Y39497000D01*
X40397000Y39497000D01*
X40397000Y39243000D01*
X40377000Y39243000D01*
X40377000Y38193750D01*
X40470750Y38100000D01*
X40377000Y38006250D01*
X40377000Y36957000D01*
X40397000Y36957000D01*
X40397000Y36703000D01*
X40377000Y36703000D01*
X40377000Y35653750D01*
X40535750Y35495000D01*
X40825000Y35491928D01*
X40949482Y35504188D01*
X41069180Y35540498D01*
X41179494Y35599463D01*
X41276185Y35678815D01*
X41341658Y35758594D01*
X41347038Y35752038D01*
X41481613Y35641595D01*
X41635149Y35559528D01*
X41801745Y35508992D01*
X41974999Y35491928D01*
X42625001Y35491928D01*
X42798255Y35508992D01*
X42964851Y35559528D01*
X43118387Y35641595D01*
X43252962Y35752038D01*
X43363405Y35886613D01*
X43445472Y36040149D01*
X43454527Y36070000D01*
X44322886Y36070000D01*
X44256487Y35851111D01*
X44227815Y35560000D01*
X44256487Y35268889D01*
X44341401Y34988966D01*
X44479294Y34730986D01*
X44664866Y34504866D01*
X44890986Y34319294D01*
X44945791Y34290000D01*
X44890986Y34260706D01*
X44664866Y34075134D01*
X44479294Y33849014D01*
X44341401Y33591034D01*
X44256487Y33311111D01*
X44227815Y33020000D01*
X44256487Y32728889D01*
X44341401Y32448966D01*
X44479294Y32190986D01*
X44664866Y31964866D01*
X44890986Y31779294D01*
X44945791Y31750000D01*
X44890986Y31720706D01*
X44664866Y31535134D01*
X44479294Y31309014D01*
X44341401Y31051034D01*
X44256487Y30771111D01*
X44227815Y30480000D01*
X44256487Y30188889D01*
X44341401Y29908966D01*
X44479294Y29650986D01*
X44664866Y29424866D01*
X44890986Y29239294D01*
X44945791Y29210000D01*
X44890986Y29180706D01*
X44664866Y28995134D01*
X44479294Y28769014D01*
X44341401Y28511034D01*
X44256487Y28231111D01*
X44227815Y27940000D01*
X44256487Y27648889D01*
X44341401Y27368966D01*
X44479294Y27110986D01*
X44664866Y26884866D01*
X44890986Y26699294D01*
X44945791Y26670000D01*
X44890986Y26640706D01*
X44664866Y26455134D01*
X44479294Y26229014D01*
X44341401Y25971034D01*
X44256487Y25691111D01*
X44227815Y25400000D01*
X44256487Y25108889D01*
X44341401Y24828966D01*
X44479294Y24570986D01*
X44664866Y24344866D01*
X44890986Y24159294D01*
X44945791Y24130000D01*
X44890986Y24100706D01*
X44664866Y23915134D01*
X44479294Y23689014D01*
X44341401Y23431034D01*
X44256487Y23151111D01*
X44227815Y22860000D01*
X44256487Y22568889D01*
X44341401Y22288966D01*
X44479294Y22030986D01*
X44664866Y21804866D01*
X44890986Y21619294D01*
X44945791Y21590000D01*
X44890986Y21560706D01*
X44664866Y21375134D01*
X44479294Y21149014D01*
X44341401Y20891034D01*
X44256487Y20611111D01*
X44227815Y20320000D01*
X44256487Y20028889D01*
X44341401Y19748966D01*
X44479294Y19490986D01*
X44664866Y19264866D01*
X44890986Y19079294D01*
X44945791Y19050000D01*
X44890986Y19020706D01*
X44664866Y18835134D01*
X44479294Y18609014D01*
X44341401Y18351034D01*
X44256487Y18071111D01*
X44227815Y17780000D01*
X44256487Y17488889D01*
X44341401Y17208966D01*
X44479294Y16950986D01*
X44664866Y16724866D01*
X44890986Y16539294D01*
X44945791Y16510000D01*
X44890986Y16480706D01*
X44664866Y16295134D01*
X44479294Y16069014D01*
X44341401Y15811034D01*
X44256487Y15531111D01*
X44227815Y15240000D01*
X44256487Y14948889D01*
X44341401Y14668966D01*
X44479294Y14410986D01*
X44664866Y14184866D01*
X44694687Y14160393D01*
X44625820Y14139502D01*
X44515506Y14080537D01*
X44418815Y14001185D01*
X44339463Y13904494D01*
X44280498Y13794180D01*
X44244188Y13674482D01*
X44231928Y13550000D01*
X44231928Y11850000D01*
X44244188Y11725518D01*
X44280498Y11605820D01*
X44339463Y11495506D01*
X44418815Y11398815D01*
X44515506Y11319463D01*
X44625820Y11260498D01*
X44745518Y11224188D01*
X44870000Y11211928D01*
X46570000Y11211928D01*
X46694482Y11224188D01*
X46814180Y11260498D01*
X46924494Y11319463D01*
X47021185Y11398815D01*
X47100537Y11495506D01*
X47159502Y11605820D01*
X47180393Y11674687D01*
X47204866Y11644866D01*
X47430986Y11459294D01*
X47688966Y11321401D01*
X47968889Y11236487D01*
X48187050Y11215000D01*
X48332950Y11215000D01*
X48551111Y11236487D01*
X48831034Y11321401D01*
X49089014Y11459294D01*
X49201001Y11551199D01*
X49201001Y2742000D01*
X40817444Y2742000D01*
X40845812Y2835518D01*
X40858072Y2960000D01*
X40855000Y3524250D01*
X40696250Y3683000D01*
X39497000Y3683000D01*
X39497000Y3663000D01*
X39243000Y3663000D01*
X39243000Y3683000D01*
X38043750Y3683000D01*
X37885000Y3524250D01*
X37881928Y2960000D01*
X37894188Y2835518D01*
X37922556Y2742000D01*
X13104457Y2742000D01*
X13120134Y2754866D01*
X13305706Y2980986D01*
X13443599Y3238966D01*
X13528513Y3518889D01*
X13557185Y3810000D01*
X13528513Y4101111D01*
X13443599Y4381034D01*
X13305706Y4639014D01*
X13120134Y4865134D01*
X13090313Y4889607D01*
X13159180Y4910498D01*
X13269494Y4969463D01*
X13366185Y5048815D01*
X13445537Y5145506D01*
X13504502Y5255820D01*
X13540812Y5375518D01*
X13553072Y5500000D01*
X13550000Y6064250D01*
X13391250Y6223000D01*
X12192000Y6223000D01*
X12192000Y6203000D01*
X11938000Y6203000D01*
X11938000Y6223000D01*
X10738750Y6223000D01*
X10580000Y6064250D01*
X10576928Y5500000D01*
X10589188Y5375518D01*
X10625498Y5255820D01*
X10684463Y5145506D01*
X10763815Y5048815D01*
X10860506Y4969463D01*
X10970820Y4910498D01*
X11039687Y4889607D01*
X11009866Y4865134D01*
X10824294Y4639014D01*
X10686401Y4381034D01*
X10601487Y4101111D01*
X10572815Y3810000D01*
X10601487Y3518889D01*
X10686401Y3238966D01*
X10824294Y2980986D01*
X11009866Y2754866D01*
X11025543Y2742000D01*
X1599000Y2742000D01*
X1599000Y7200000D01*
X10576928Y7200000D01*
X10580000Y6635750D01*
X10738750Y6477000D01*
X11938000Y6477000D01*
X11938000Y7676250D01*
X12192000Y7676250D01*
X12192000Y6477000D01*
X13391250Y6477000D01*
X13550000Y6635750D01*
X13553072Y7200000D01*
X13540812Y7324482D01*
X13504502Y7444180D01*
X13445537Y7554494D01*
X13366185Y7651185D01*
X13269494Y7730537D01*
X13159180Y7789502D01*
X13039482Y7825812D01*
X12915000Y7838072D01*
X12350750Y7835000D01*
X12192000Y7676250D01*
X11938000Y7676250D01*
X11779250Y7835000D01*
X11215000Y7838072D01*
X11090518Y7825812D01*
X10970820Y7789502D01*
X10860506Y7730537D01*
X10763815Y7651185D01*
X10684463Y7554494D01*
X10625498Y7444180D01*
X10589188Y7324482D01*
X10576928Y7200000D01*
X1599000Y7200000D01*
X1599000Y10887089D01*
X24973000Y10887089D01*
X24973000Y10702911D01*
X25008932Y10522271D01*
X25079414Y10352111D01*
X25148000Y10249464D01*
X25148001Y9689332D01*
X25144324Y9652000D01*
X25148001Y9614667D01*
X25155553Y9537997D01*
X25158998Y9503015D01*
X25202454Y9359754D01*
X25273026Y9227724D01*
X25344201Y9140998D01*
X25368000Y9111999D01*
X25396998Y9088201D01*
X25783000Y8702198D01*
X25783001Y5348191D01*
X25762271Y5344068D01*
X25592111Y5273586D01*
X25438972Y5171262D01*
X25308738Y5041028D01*
X25206414Y4887889D01*
X25135932Y4717729D01*
X25100000Y4537089D01*
X25100000Y4352911D01*
X25135932Y4172271D01*
X25206414Y4002111D01*
X25308738Y3848972D01*
X25438972Y3718738D01*
X25592111Y3616414D01*
X25762271Y3545932D01*
X25942911Y3510000D01*
X26127089Y3510000D01*
X26307729Y3545932D01*
X26477889Y3616414D01*
X26592976Y3693313D01*
X26645226Y3641063D01*
X26814744Y3527795D01*
X27003102Y3449774D01*
X27203061Y3410000D01*
X27406939Y3410000D01*
X27606898Y3449774D01*
X27795256Y3527795D01*
X27964774Y3641063D01*
X28017024Y3693313D01*
X28132111Y3616414D01*
X28302271Y3545932D01*
X28482911Y3510000D01*
X28667089Y3510000D01*
X28847729Y3545932D01*
X29017889Y3616414D01*
X29171028Y3718738D01*
X29301262Y3848972D01*
X29403586Y4002111D01*
X29474068Y4172271D01*
X29510000Y4352911D01*
X29510000Y4537089D01*
X29474068Y4717729D01*
X29403586Y4887889D01*
X29301262Y5041028D01*
X29171028Y5171262D01*
X29017889Y5273586D01*
X28847729Y5344068D01*
X28726649Y5368153D01*
X28700000Y5394801D01*
X28700000Y7305199D01*
X29086002Y7691200D01*
X29115001Y7714999D01*
X29209974Y7830724D01*
X29280546Y7962753D01*
X29324003Y8106014D01*
X29335000Y8217667D01*
X29338677Y8255000D01*
X29335000Y8292333D01*
X29335000Y8852675D01*
X29338676Y8890000D01*
X37877815Y8890000D01*
X37906487Y8598889D01*
X37991401Y8318966D01*
X38129294Y8060986D01*
X38314866Y7834866D01*
X38540986Y7649294D01*
X38595791Y7620000D01*
X38540986Y7590706D01*
X38314866Y7405134D01*
X38129294Y7179014D01*
X37991401Y6921034D01*
X37906487Y6641111D01*
X37877815Y6350000D01*
X37906487Y6058889D01*
X37991401Y5778966D01*
X38129294Y5520986D01*
X38314866Y5294866D01*
X38344687Y5270393D01*
X38275820Y5249502D01*
X38165506Y5190537D01*
X38068815Y5111185D01*
X37989463Y5014494D01*
X37930498Y4904180D01*
X37894188Y4784482D01*
X37881928Y4660000D01*
X37885000Y4095750D01*
X38043750Y3937000D01*
X39243000Y3937000D01*
X39243000Y3957000D01*
X39497000Y3957000D01*
X39497000Y3937000D01*
X40696250Y3937000D01*
X40855000Y4095750D01*
X40858072Y4660000D01*
X40845812Y4784482D01*
X40809502Y4904180D01*
X40750537Y5014494D01*
X40671185Y5111185D01*
X40574494Y5190537D01*
X40464180Y5249502D01*
X40395313Y5270393D01*
X40425134Y5294866D01*
X40610706Y5520986D01*
X40748599Y5778966D01*
X40833513Y6058889D01*
X40862185Y6350000D01*
X40833513Y6641111D01*
X40748599Y6921034D01*
X40610706Y7179014D01*
X40425134Y7405134D01*
X40199014Y7590706D01*
X40144209Y7620000D01*
X40199014Y7649294D01*
X40425134Y7834866D01*
X40610706Y8060986D01*
X40748599Y8318966D01*
X40833513Y8598889D01*
X40862185Y8890000D01*
X40833513Y9181111D01*
X40748599Y9461034D01*
X40610706Y9719014D01*
X40425134Y9945134D01*
X40199014Y10130706D01*
X39941034Y10268599D01*
X39661111Y10353513D01*
X39442950Y10375000D01*
X39297050Y10375000D01*
X39078889Y10353513D01*
X38798966Y10268599D01*
X38540986Y10130706D01*
X38314866Y9945134D01*
X38129294Y9719014D01*
X37991401Y9461034D01*
X37906487Y9181111D01*
X37877815Y8890000D01*
X29338676Y8890000D01*
X29335000Y8927325D01*
X29335000Y8927333D01*
X29324003Y9038986D01*
X29280546Y9182247D01*
X29209974Y9314276D01*
X29115001Y9430001D01*
X29086004Y9453798D01*
X28376803Y10162998D01*
X28353001Y10192001D01*
X28237276Y10286974D01*
X28105247Y10357546D01*
X27961986Y10401003D01*
X27850333Y10412000D01*
X27850322Y10412000D01*
X27813000Y10415676D01*
X27775678Y10412000D01*
X27492802Y10412000D01*
X27303000Y10601801D01*
X27303000Y11519678D01*
X27306676Y11557001D01*
X27303000Y11594324D01*
X27303000Y11594333D01*
X27292003Y11705986D01*
X27248546Y11849247D01*
X27177974Y11981276D01*
X27083001Y12097001D01*
X27054003Y12120798D01*
X26958153Y12216649D01*
X26934068Y12337729D01*
X26863586Y12507889D01*
X26761262Y12661028D01*
X26631028Y12791262D01*
X26477889Y12893586D01*
X26307729Y12964068D01*
X26127089Y13000000D01*
X25942911Y13000000D01*
X25762271Y12964068D01*
X25592111Y12893586D01*
X25438972Y12791262D01*
X25308738Y12661028D01*
X25206414Y12507889D01*
X25135932Y12337729D01*
X25100000Y12157089D01*
X25100000Y11972911D01*
X25135932Y11792271D01*
X25206414Y11622111D01*
X25289089Y11498379D01*
X25181738Y11391028D01*
X25079414Y11237889D01*
X25008932Y11067729D01*
X24973000Y10887089D01*
X1599000Y10887089D01*
X1599000Y11551199D01*
X1710986Y11459294D01*
X1968966Y11321401D01*
X2248889Y11236487D01*
X2467050Y11215000D01*
X2612950Y11215000D01*
X2831111Y11236487D01*
X3111034Y11321401D01*
X3369014Y11459294D01*
X3595134Y11644866D01*
X3780706Y11870986D01*
X3810000Y11925791D01*
X3839294Y11870986D01*
X4024866Y11644866D01*
X4250986Y11459294D01*
X4508966Y11321401D01*
X4788889Y11236487D01*
X5007050Y11215000D01*
X5152950Y11215000D01*
X5371111Y11236487D01*
X5651034Y11321401D01*
X5909014Y11459294D01*
X6135134Y11644866D01*
X6320706Y11870986D01*
X6458599Y12128966D01*
X6543513Y12408889D01*
X6572185Y12700000D01*
X6543513Y12991111D01*
X6458599Y13271034D01*
X6320706Y13529014D01*
X6135134Y13755134D01*
X5909014Y13940706D01*
X5854209Y13970000D01*
X5909014Y13999294D01*
X6135134Y14184866D01*
X6320706Y14410986D01*
X6458599Y14668966D01*
X6543513Y14948889D01*
X6572185Y15240000D01*
X6543513Y15531111D01*
X6480148Y15740000D01*
X14091928Y15740000D01*
X14091928Y14740000D01*
X14104188Y14615518D01*
X14140498Y14495820D01*
X14199463Y14385506D01*
X14278815Y14288815D01*
X14375506Y14209463D01*
X14485820Y14150498D01*
X14605518Y14114188D01*
X14730000Y14101928D01*
X18230000Y14101928D01*
X18354482Y14114188D01*
X18474180Y14150498D01*
X18584494Y14209463D01*
X18681185Y14288815D01*
X18760537Y14385506D01*
X18771327Y14405693D01*
X18785932Y14332271D01*
X18856414Y14162111D01*
X18958738Y14008972D01*
X18997710Y13970000D01*
X18958738Y13931028D01*
X18856414Y13777889D01*
X18785932Y13607729D01*
X18771327Y13534307D01*
X18760537Y13554494D01*
X18681185Y13651185D01*
X18584494Y13730537D01*
X18474180Y13789502D01*
X18354482Y13825812D01*
X18230000Y13838072D01*
X14730000Y13838072D01*
X14605518Y13825812D01*
X14485820Y13789502D01*
X14375506Y13730537D01*
X14278815Y13651185D01*
X14199463Y13554494D01*
X14140498Y13444180D01*
X14104188Y13324482D01*
X14091928Y13200000D01*
X14091928Y12200000D01*
X14104188Y12075518D01*
X14140498Y11955820D01*
X14199463Y11845506D01*
X14278815Y11748815D01*
X14375506Y11669463D01*
X14485820Y11610498D01*
X14605518Y11574188D01*
X14730000Y11561928D01*
X18230000Y11561928D01*
X18354482Y11574188D01*
X18474180Y11610498D01*
X18584494Y11669463D01*
X18681185Y11748815D01*
X18760537Y11845506D01*
X18811046Y11940000D01*
X19012678Y11940000D01*
X19050000Y11936324D01*
X19087322Y11940000D01*
X19087333Y11940000D01*
X19198986Y11950997D01*
X19342247Y11994454D01*
X19474276Y12065026D01*
X19590001Y12159999D01*
X19613803Y12189002D01*
X19836649Y12411847D01*
X19957729Y12435932D01*
X20127889Y12506414D01*
X20281028Y12608738D01*
X20411262Y12738972D01*
X20513586Y12892111D01*
X20584068Y13062271D01*
X20620000Y13242911D01*
X20620000Y13427089D01*
X20584068Y13607729D01*
X20513586Y13777889D01*
X20411262Y13931028D01*
X20372290Y13970000D01*
X20411262Y14008972D01*
X20513586Y14162111D01*
X20584068Y14332271D01*
X20620000Y14512911D01*
X20620000Y14697089D01*
X20584068Y14877729D01*
X20513586Y15047889D01*
X20411262Y15201028D01*
X20281028Y15331262D01*
X20127889Y15433586D01*
X19957729Y15504068D01*
X19836649Y15528153D01*
X19613803Y15750998D01*
X19590001Y15780001D01*
X19474276Y15874974D01*
X19342247Y15945546D01*
X19198986Y15989003D01*
X19087333Y16000000D01*
X19087322Y16000000D01*
X19050000Y16003676D01*
X19012678Y16000000D01*
X18811046Y16000000D01*
X18760537Y16094494D01*
X18681185Y16191185D01*
X18584494Y16270537D01*
X18474180Y16329502D01*
X18354482Y16365812D01*
X18230000Y16378072D01*
X14730000Y16378072D01*
X14605518Y16365812D01*
X14485820Y16329502D01*
X14375506Y16270537D01*
X14278815Y16191185D01*
X14199463Y16094494D01*
X14140498Y15984180D01*
X14104188Y15864482D01*
X14091928Y15740000D01*
X6480148Y15740000D01*
X6458599Y15811034D01*
X6320706Y16069014D01*
X6135134Y16295134D01*
X5909014Y16480706D01*
X5854209Y16510000D01*
X5909014Y16539294D01*
X6135134Y16724866D01*
X6320706Y16950986D01*
X6458599Y17208966D01*
X6543513Y17488889D01*
X6572185Y17780000D01*
X6543513Y18071111D01*
X6458599Y18351034D01*
X6320706Y18609014D01*
X6135134Y18835134D01*
X5909014Y19020706D01*
X5854209Y19050000D01*
X5909014Y19079294D01*
X6135134Y19264866D01*
X6320706Y19490986D01*
X6458599Y19748966D01*
X6543513Y20028889D01*
X6572185Y20320000D01*
X6543513Y20611111D01*
X6458599Y20891034D01*
X6320706Y21149014D01*
X6135134Y21375134D01*
X5909014Y21560706D01*
X5854209Y21590000D01*
X5909014Y21619294D01*
X6135134Y21804866D01*
X6320706Y22030986D01*
X6458599Y22288966D01*
X6543513Y22568889D01*
X6572185Y22860000D01*
X6543513Y23151111D01*
X6458599Y23431034D01*
X6320706Y23689014D01*
X6135134Y23915134D01*
X5909014Y24100706D01*
X5854209Y24130000D01*
X5909014Y24159294D01*
X6135134Y24344866D01*
X6320706Y24570986D01*
X6458599Y24828966D01*
X6543513Y25108889D01*
X6572185Y25400000D01*
X6543513Y25691111D01*
X6458599Y25971034D01*
X6320706Y26229014D01*
X6135134Y26455134D01*
X5909014Y26640706D01*
X5854209Y26670000D01*
X5909014Y26699294D01*
X6135134Y26884866D01*
X6320706Y27110986D01*
X6458599Y27368966D01*
X6543513Y27648889D01*
X6572185Y27940000D01*
X6543513Y28231111D01*
X6458599Y28511034D01*
X6320706Y28769014D01*
X6135134Y28995134D01*
X5909014Y29180706D01*
X5854209Y29210000D01*
X5909014Y29239294D01*
X6135134Y29424866D01*
X6320706Y29650986D01*
X6458599Y29908966D01*
X6543513Y30188889D01*
X6572185Y30480000D01*
X6543513Y30771111D01*
X6458599Y31051034D01*
X6320706Y31309014D01*
X6135134Y31535134D01*
X5909014Y31720706D01*
X5854209Y31750000D01*
X5909014Y31779294D01*
X6135134Y31964866D01*
X6320706Y32190986D01*
X6458599Y32448966D01*
X6543513Y32728889D01*
X6572185Y33020000D01*
X6543513Y33311111D01*
X6458599Y33591034D01*
X6320706Y33849014D01*
X6135134Y34075134D01*
X5909014Y34260706D01*
X5854209Y34290000D01*
X5909014Y34319294D01*
X6135134Y34504866D01*
X6320706Y34730986D01*
X6458599Y34988966D01*
X6543513Y35268889D01*
X6572185Y35560000D01*
X6543513Y35851111D01*
X6458599Y36131034D01*
X6320706Y36389014D01*
X6135134Y36615134D01*
X5909014Y36800706D01*
X5854209Y36830000D01*
X5909014Y36859294D01*
X6135134Y37044866D01*
X6320706Y37270986D01*
X6458599Y37528966D01*
X6543513Y37808889D01*
X6572185Y38100000D01*
X6543513Y38391111D01*
X6458599Y38671034D01*
X6320706Y38929014D01*
X6135134Y39155134D01*
X5909014Y39340706D01*
X5854209Y39370000D01*
X5909014Y39399294D01*
X6135134Y39584866D01*
X6320706Y39810986D01*
X6458599Y40068966D01*
X6543513Y40348889D01*
X6572185Y40640000D01*
X6543513Y40931111D01*
X6458599Y41211034D01*
X6320706Y41469014D01*
X6135134Y41695134D01*
X5909014Y41880706D01*
X5854209Y41910000D01*
X5909014Y41939294D01*
X6135134Y42124866D01*
X6320706Y42350986D01*
X6458599Y42608966D01*
X6543513Y42888889D01*
X6572185Y43180000D01*
X6543513Y43471111D01*
X6458599Y43751034D01*
X6320706Y44009014D01*
X6135134Y44235134D01*
X5909014Y44420706D01*
X5854209Y44450000D01*
X5909014Y44479294D01*
X6135134Y44664866D01*
X6320706Y44890986D01*
X6458599Y45148966D01*
X6543513Y45428889D01*
X6572185Y45720000D01*
X6543513Y46011111D01*
X6477721Y46228000D01*
X12167994Y46228000D01*
X12173000Y46177172D01*
X12173000Y46126061D01*
X12182971Y46075933D01*
X12187977Y46025105D01*
X12202803Y45976232D01*
X12212774Y45926102D01*
X12232335Y45878878D01*
X12247160Y45830007D01*
X12271236Y45784964D01*
X12290795Y45737744D01*
X12302651Y45720000D01*
X12290795Y45702256D01*
X12271236Y45655036D01*
X12247160Y45609993D01*
X12232335Y45561122D01*
X12212774Y45513898D01*
X12202803Y45463768D01*
X12187977Y45414895D01*
X12182971Y45364067D01*
X12173000Y45313939D01*
X12173000Y45262828D01*
X12167994Y45212000D01*
X12173000Y45161172D01*
X12173000Y45110061D01*
X12182971Y45059933D01*
X12187977Y45009105D01*
X12202803Y44960232D01*
X12212774Y44910102D01*
X12232335Y44862878D01*
X12247160Y44814007D01*
X12271236Y44768964D01*
X12290795Y44721744D01*
X12319187Y44679252D01*
X12343266Y44634203D01*
X12375671Y44594717D01*
X12404063Y44552226D01*
X12548226Y44408063D01*
X12548229Y44408061D01*
X13202197Y43754092D01*
X13234604Y43714604D01*
X13274092Y43682197D01*
X13392202Y43585266D01*
X13488309Y43533896D01*
X13572007Y43489159D01*
X13767105Y43429976D01*
X13919162Y43415000D01*
X13919165Y43415000D01*
X13970000Y43409993D01*
X14020835Y43415000D01*
X14091928Y43415000D01*
X14091928Y42680000D01*
X14104188Y42555518D01*
X14140498Y42435820D01*
X14199463Y42325506D01*
X14278815Y42228815D01*
X14375506Y42149463D01*
X14485820Y42090498D01*
X14605518Y42054188D01*
X14730000Y42041928D01*
X17843271Y42041928D01*
X18107127Y41778072D01*
X14730000Y41778072D01*
X14605518Y41765812D01*
X14485820Y41729502D01*
X14375506Y41670537D01*
X14278815Y41591185D01*
X14199463Y41494494D01*
X14140498Y41384180D01*
X14104188Y41264482D01*
X14091928Y41140000D01*
X14091928Y40140000D01*
X14104188Y40015518D01*
X14140498Y39895820D01*
X14199463Y39785506D01*
X14278815Y39688815D01*
X14375506Y39609463D01*
X14485820Y39550498D01*
X14605518Y39514188D01*
X14730000Y39501928D01*
X18230000Y39501928D01*
X18290000Y39507837D01*
X18290001Y39232163D01*
X18230000Y39238072D01*
X14730000Y39238072D01*
X14605518Y39225812D01*
X14485820Y39189502D01*
X14375506Y39130537D01*
X14278815Y39051185D01*
X14199463Y38954494D01*
X14140498Y38844180D01*
X14104188Y38724482D01*
X14091928Y38600000D01*
X14091928Y37600000D01*
X14104188Y37475518D01*
X14140498Y37355820D01*
X14199463Y37245506D01*
X14278815Y37148815D01*
X14375506Y37069463D01*
X14485820Y37010498D01*
X14605518Y36974188D01*
X14730000Y36961928D01*
X16815500Y36961928D01*
X16804335Y36925122D01*
X16784774Y36877898D01*
X16774803Y36827768D01*
X16759977Y36778895D01*
X16754971Y36728067D01*
X16749005Y36698072D01*
X14730000Y36698072D01*
X14605518Y36685812D01*
X14485820Y36649502D01*
X14375506Y36590537D01*
X14278815Y36511185D01*
X14199463Y36414494D01*
X14140498Y36304180D01*
X14104188Y36184482D01*
X14091928Y36060000D01*
X14091928Y35060000D01*
X14104188Y34935518D01*
X14140498Y34815820D01*
X14199463Y34705506D01*
X14278815Y34608815D01*
X14375506Y34529463D01*
X14485820Y34470498D01*
X14605518Y34434188D01*
X14730000Y34421928D01*
X16749005Y34421928D01*
X16754969Y34391942D01*
X16759976Y34341106D01*
X16774804Y34292226D01*
X16784774Y34242102D01*
X16804332Y34194884D01*
X16815499Y34158072D01*
X14730000Y34158072D01*
X14605518Y34145812D01*
X14485820Y34109502D01*
X14375506Y34050537D01*
X14278815Y33971185D01*
X14199463Y33874494D01*
X14140498Y33764180D01*
X14104188Y33644482D01*
X14091928Y33520000D01*
X14091928Y32520000D01*
X14104188Y32395518D01*
X14140498Y32275820D01*
X14199463Y32165506D01*
X14278815Y32068815D01*
X14375506Y31989463D01*
X14485820Y31930498D01*
X14605518Y31894188D01*
X14730000Y31881928D01*
X18107126Y31881928D01*
X17843271Y31618072D01*
X14730000Y31618072D01*
X14605518Y31605812D01*
X14485820Y31569502D01*
X14375506Y31510537D01*
X14278815Y31431185D01*
X14199463Y31334494D01*
X14140498Y31224180D01*
X14104188Y31104482D01*
X14091928Y30980000D01*
X14091928Y29980000D01*
X14104188Y29855518D01*
X14140498Y29735820D01*
X14199463Y29625506D01*
X14278815Y29528815D01*
X14375506Y29449463D01*
X14485820Y29390498D01*
X14605518Y29354188D01*
X14730000Y29341928D01*
X18107127Y29341928D01*
X17843271Y29078072D01*
X14730000Y29078072D01*
X14605518Y29065812D01*
X14485820Y29029502D01*
X14375506Y28970537D01*
X14278815Y28891185D01*
X14199463Y28794494D01*
X14140498Y28684180D01*
X14104188Y28564482D01*
X14091928Y28440000D01*
X14091928Y27440000D01*
X14092913Y27430000D01*
X13880535Y27430000D01*
X13777889Y27498586D01*
X13607729Y27569068D01*
X13427089Y27605000D01*
X13242911Y27605000D01*
X13062271Y27569068D01*
X12892111Y27498586D01*
X12738972Y27396262D01*
X12608738Y27266028D01*
X12506414Y27112889D01*
X12435932Y26942729D01*
X12400000Y26762089D01*
X12400000Y26577911D01*
X12435932Y26397271D01*
X12506414Y26227111D01*
X12608738Y26073972D01*
X12738972Y25943738D01*
X12892111Y25841414D01*
X13062271Y25770932D01*
X13242911Y25735000D01*
X13427089Y25735000D01*
X13607729Y25770932D01*
X13777889Y25841414D01*
X13880535Y25910000D01*
X14092913Y25910000D01*
X14091928Y25900000D01*
X14091928Y24900000D01*
X14104188Y24775518D01*
X14140498Y24655820D01*
X14199463Y24545506D01*
X14278815Y24448815D01*
X14375506Y24369463D01*
X14485820Y24310498D01*
X14605518Y24274188D01*
X14730000Y24261928D01*
X18230000Y24261928D01*
X18354482Y24274188D01*
X18474180Y24310498D01*
X18584494Y24369463D01*
X18681185Y24448815D01*
X18760537Y24545506D01*
X18771327Y24565693D01*
X18785932Y24492271D01*
X18856414Y24322111D01*
X18958738Y24168972D01*
X19088972Y24038738D01*
X19242111Y23936414D01*
X19412271Y23865932D01*
X19533351Y23841847D01*
X19560001Y23815197D01*
X19560001Y23788454D01*
X19412271Y23759068D01*
X19242111Y23688586D01*
X19139465Y23620000D01*
X18811046Y23620000D01*
X18760537Y23714494D01*
X18681185Y23811185D01*
X18584494Y23890537D01*
X18474180Y23949502D01*
X18354482Y23985812D01*
X18230000Y23998072D01*
X14730000Y23998072D01*
X14605518Y23985812D01*
X14485820Y23949502D01*
X14375506Y23890537D01*
X14278815Y23811185D01*
X14199463Y23714494D01*
X14140498Y23604180D01*
X14104188Y23484482D01*
X14091928Y23360000D01*
X14091928Y22360000D01*
X14104188Y22235518D01*
X14140498Y22115820D01*
X14199463Y22005506D01*
X14278815Y21908815D01*
X14375506Y21829463D01*
X14485820Y21770498D01*
X14605518Y21734188D01*
X14730000Y21721928D01*
X18230000Y21721928D01*
X18354482Y21734188D01*
X18474180Y21770498D01*
X18584494Y21829463D01*
X18681185Y21908815D01*
X18760537Y22005506D01*
X18811046Y22100000D01*
X19139465Y22100000D01*
X19242111Y22031414D01*
X19412271Y21960932D01*
X19560001Y21931546D01*
X19560000Y21248454D01*
X19412271Y21219068D01*
X19242111Y21148586D01*
X19139465Y21080000D01*
X18811046Y21080000D01*
X18760537Y21174494D01*
X18681185Y21271185D01*
X18584494Y21350537D01*
X18474180Y21409502D01*
X18354482Y21445812D01*
X18230000Y21458072D01*
X14730000Y21458072D01*
X14605518Y21445812D01*
X14485820Y21409502D01*
X14375506Y21350537D01*
X14278815Y21271185D01*
X14199463Y21174494D01*
X14140498Y21064180D01*
X14104188Y20944482D01*
X14091928Y20820000D01*
X14091928Y19820000D01*
X14104188Y19695518D01*
X14140498Y19575820D01*
X14199463Y19465506D01*
X14278815Y19368815D01*
X14375506Y19289463D01*
X14485820Y19230498D01*
X14605518Y19194188D01*
X14730000Y19181928D01*
X18230000Y19181928D01*
X18354482Y19194188D01*
X18474180Y19230498D01*
X18584494Y19289463D01*
X18681185Y19368815D01*
X18760537Y19465506D01*
X18811046Y19560000D01*
X19139465Y19560000D01*
X19242111Y19491414D01*
X19412271Y19420932D01*
X19560000Y19391546D01*
X19560000Y18729802D01*
X19370199Y18540000D01*
X18811046Y18540000D01*
X18760537Y18634494D01*
X18681185Y18731185D01*
X18584494Y18810537D01*
X18474180Y18869502D01*
X18354482Y18905812D01*
X18230000Y18918072D01*
X14730000Y18918072D01*
X14605518Y18905812D01*
X14485820Y18869502D01*
X14375506Y18810537D01*
X14278815Y18731185D01*
X14199463Y18634494D01*
X14140498Y18524180D01*
X14104188Y18404482D01*
X14091928Y18280000D01*
X14091928Y17280000D01*
X14104188Y17155518D01*
X14140498Y17035820D01*
X14199463Y16925506D01*
X14278815Y16828815D01*
X14375506Y16749463D01*
X14485820Y16690498D01*
X14605518Y16654188D01*
X14730000Y16641928D01*
X18230000Y16641928D01*
X18354482Y16654188D01*
X18474180Y16690498D01*
X18584494Y16749463D01*
X18681185Y16828815D01*
X18760537Y16925506D01*
X18811046Y17020000D01*
X19647678Y17020000D01*
X19685000Y17016324D01*
X19722322Y17020000D01*
X19722333Y17020000D01*
X19833986Y17030997D01*
X19977247Y17074454D01*
X20109276Y17145026D01*
X20225001Y17239999D01*
X20248803Y17269002D01*
X20831004Y17851202D01*
X20860001Y17874999D01*
X20954974Y17990724D01*
X21025546Y18122753D01*
X21069003Y18266014D01*
X21080000Y18377667D01*
X21080000Y18377668D01*
X21083677Y18415000D01*
X21080000Y18452333D01*
X21080000Y24092667D01*
X21083677Y24130000D01*
X21069003Y24278986D01*
X21025546Y24422247D01*
X20954974Y24554276D01*
X20883799Y24641003D01*
X20860001Y24670001D01*
X20831002Y24693800D01*
X20608153Y24916649D01*
X20584068Y25037729D01*
X20513586Y25207889D01*
X20411262Y25361028D01*
X20281028Y25491262D01*
X20242085Y25517283D01*
X20831003Y26106201D01*
X20860001Y26129999D01*
X20947988Y26237211D01*
X21301847Y25883351D01*
X21325932Y25762271D01*
X21396414Y25592111D01*
X21498738Y25438972D01*
X21628972Y25308738D01*
X21782111Y25206414D01*
X21952271Y25135932D01*
X22132911Y25100000D01*
X22317089Y25100000D01*
X22497729Y25135932D01*
X22667889Y25206414D01*
X22821028Y25308738D01*
X22951262Y25438972D01*
X23053586Y25592111D01*
X23124068Y25762271D01*
X23160000Y25942911D01*
X23160000Y26127089D01*
X23124068Y26307729D01*
X23053586Y26477889D01*
X22951262Y26631028D01*
X22821028Y26761262D01*
X22667889Y26863586D01*
X22497729Y26934068D01*
X22376649Y26958153D01*
X21715000Y27619801D01*
X21715000Y30572089D01*
X30180000Y30572089D01*
X30180000Y30387911D01*
X30215932Y30207271D01*
X30286414Y30037111D01*
X30388738Y29883972D01*
X30427710Y29845000D01*
X30388738Y29806028D01*
X30286414Y29652889D01*
X30215932Y29482729D01*
X30180000Y29302089D01*
X30180000Y29117911D01*
X30215932Y28937271D01*
X30286414Y28767111D01*
X30388738Y28613972D01*
X30518972Y28483738D01*
X30672111Y28381414D01*
X30842271Y28310932D01*
X30963351Y28286847D01*
X31814062Y27436137D01*
X31776604Y27405396D01*
X31744197Y27365908D01*
X31708063Y27329774D01*
X31679672Y27287284D01*
X31647266Y27247797D01*
X31623186Y27202746D01*
X31594795Y27160256D01*
X31575238Y27113042D01*
X31551159Y27067993D01*
X31536331Y27019113D01*
X31516774Y26971898D01*
X31506804Y26921777D01*
X31491976Y26872895D01*
X31486969Y26822057D01*
X31477000Y26771939D01*
X31477000Y26720838D01*
X31471993Y26670000D01*
X31477000Y26619162D01*
X31477000Y26568061D01*
X31486969Y26517943D01*
X31491976Y26467105D01*
X31506804Y26418223D01*
X31516774Y26368102D01*
X31536331Y26320887D01*
X31551159Y26272007D01*
X31575238Y26226958D01*
X31594795Y26179744D01*
X31614451Y26150326D01*
X31601014Y26149003D01*
X31457753Y26105546D01*
X31325724Y26034974D01*
X31209999Y25940001D01*
X31186200Y25911002D01*
X30603998Y25328799D01*
X30575000Y25305001D01*
X30551202Y25276003D01*
X30551201Y25276002D01*
X30480026Y25189276D01*
X30409454Y25057246D01*
X30403534Y25037729D01*
X30365998Y24913986D01*
X30361212Y24865396D01*
X30351324Y24765000D01*
X30355001Y24727668D01*
X30355000Y22770536D01*
X30286414Y22667889D01*
X30215932Y22497729D01*
X30180000Y22317089D01*
X30180000Y22132911D01*
X30215932Y21952271D01*
X30286414Y21782111D01*
X30388738Y21628972D01*
X30427710Y21590000D01*
X30388738Y21551028D01*
X30286414Y21397889D01*
X30215932Y21227729D01*
X30180000Y21047089D01*
X30180000Y20862911D01*
X30215932Y20682271D01*
X30286414Y20512111D01*
X30388738Y20358972D01*
X30427710Y20320000D01*
X30388738Y20281028D01*
X30286414Y20127889D01*
X30215932Y19957729D01*
X30180000Y19777089D01*
X30180000Y19592911D01*
X30215932Y19412271D01*
X30286414Y19242111D01*
X30388738Y19088972D01*
X30427710Y19050000D01*
X30388738Y19011028D01*
X30286414Y18857889D01*
X30215932Y18687729D01*
X30180000Y18507089D01*
X30180000Y18322911D01*
X30215932Y18142271D01*
X30286414Y17972111D01*
X30388738Y17818972D01*
X30427710Y17780000D01*
X30388738Y17741028D01*
X30286414Y17587889D01*
X30215932Y17417729D01*
X30180000Y17237089D01*
X30180000Y17052911D01*
X30215932Y16872271D01*
X30286414Y16702111D01*
X30388738Y16548972D01*
X30427710Y16510000D01*
X30388738Y16471028D01*
X30286414Y16317889D01*
X30215932Y16147729D01*
X30180000Y15967089D01*
X30180000Y15782911D01*
X30215932Y15602271D01*
X30286414Y15432111D01*
X30388738Y15278972D01*
X30518972Y15148738D01*
X30672111Y15046414D01*
X30842271Y14975932D01*
X30963351Y14951847D01*
X30990000Y14925198D01*
X30990001Y13372332D01*
X30986324Y13335000D01*
X30990001Y13297667D01*
X30999621Y13200000D01*
X31000998Y13186015D01*
X31044454Y13042754D01*
X31115026Y12910724D01*
X31182362Y12828676D01*
X31210000Y12794999D01*
X31238998Y12771201D01*
X31821200Y12188998D01*
X31844999Y12159999D01*
X31873997Y12136201D01*
X31943858Y12078867D01*
X31944188Y12075518D01*
X31980498Y11955820D01*
X32039463Y11845506D01*
X32118815Y11748815D01*
X32215506Y11669463D01*
X32325820Y11610498D01*
X32445518Y11574188D01*
X32570000Y11561928D01*
X36070000Y11561928D01*
X36194482Y11574188D01*
X36314180Y11610498D01*
X36424494Y11669463D01*
X36521185Y11748815D01*
X36600537Y11845506D01*
X36659502Y11955820D01*
X36695812Y12075518D01*
X36708072Y12200000D01*
X36708072Y13200000D01*
X36695812Y13324482D01*
X36659502Y13444180D01*
X36600537Y13554494D01*
X36521185Y13651185D01*
X36424494Y13730537D01*
X36314180Y13789502D01*
X36194482Y13825812D01*
X36070000Y13838072D01*
X32570000Y13838072D01*
X32510000Y13832163D01*
X32510000Y14107837D01*
X32570000Y14101928D01*
X36070000Y14101928D01*
X36194482Y14114188D01*
X36314180Y14150498D01*
X36424494Y14209463D01*
X36521185Y14288815D01*
X36600537Y14385506D01*
X36659502Y14495820D01*
X36695812Y14615518D01*
X36708072Y14740000D01*
X36708072Y15740000D01*
X36695812Y15864482D01*
X36659502Y15984180D01*
X36600537Y16094494D01*
X36521185Y16191185D01*
X36424494Y16270537D01*
X36314180Y16329502D01*
X36194482Y16365812D01*
X36070000Y16378072D01*
X32956730Y16378072D01*
X32692874Y16641928D01*
X36070000Y16641928D01*
X36194482Y16654188D01*
X36314180Y16690498D01*
X36424494Y16749463D01*
X36521185Y16828815D01*
X36600537Y16925506D01*
X36659502Y17035820D01*
X36695812Y17155518D01*
X36708072Y17280000D01*
X36708072Y18280000D01*
X36695812Y18404482D01*
X36659502Y18524180D01*
X36600537Y18634494D01*
X36521185Y18731185D01*
X36424494Y18810537D01*
X36314180Y18869502D01*
X36194482Y18905812D01*
X36070000Y18918072D01*
X32570000Y18918072D01*
X32445518Y18905812D01*
X32325820Y18869502D01*
X32215506Y18810537D01*
X32118815Y18731185D01*
X32039463Y18634494D01*
X32028673Y18614307D01*
X32014068Y18687729D01*
X31943586Y18857889D01*
X31898744Y18925000D01*
X32347678Y18925000D01*
X32385000Y18921324D01*
X32422322Y18925000D01*
X32422333Y18925000D01*
X32533986Y18935997D01*
X32677247Y18979454D01*
X32809276Y19050026D01*
X32925001Y19144999D01*
X32948803Y19174002D01*
X32956729Y19181928D01*
X36070000Y19181928D01*
X36194482Y19194188D01*
X36314180Y19230498D01*
X36424494Y19289463D01*
X36521185Y19368815D01*
X36600537Y19465506D01*
X36659502Y19575820D01*
X36695812Y19695518D01*
X36708072Y19820000D01*
X36708072Y20820000D01*
X36695812Y20944482D01*
X36659502Y21064180D01*
X36600537Y21174494D01*
X36521185Y21271185D01*
X36424494Y21350537D01*
X36314180Y21409502D01*
X36194482Y21445812D01*
X36070000Y21458072D01*
X32570000Y21458072D01*
X32500004Y21451178D01*
X32510000Y21552667D01*
X32510000Y21552668D01*
X32513677Y21590000D01*
X32510000Y21627333D01*
X32510000Y21727837D01*
X32570000Y21721928D01*
X36070000Y21721928D01*
X36194482Y21734188D01*
X36314180Y21770498D01*
X36424494Y21829463D01*
X36521185Y21908815D01*
X36600537Y22005506D01*
X36659502Y22115820D01*
X36695812Y22235518D01*
X36708072Y22360000D01*
X36708072Y23095000D01*
X36779172Y23095000D01*
X36830000Y23089994D01*
X36880828Y23095000D01*
X36880838Y23095000D01*
X37032895Y23109976D01*
X37227993Y23169159D01*
X37407797Y23265266D01*
X37565396Y23394604D01*
X37597807Y23434097D01*
X38795908Y24632197D01*
X38835396Y24664604D01*
X38870844Y24707797D01*
X38964734Y24822202D01*
X39046792Y24975724D01*
X39060841Y25002007D01*
X39120024Y25197105D01*
X39135000Y25349162D01*
X39135000Y25349171D01*
X39140006Y25399999D01*
X39135000Y25450827D01*
X39135000Y25635000D01*
X39217939Y25635000D01*
X39268057Y25644969D01*
X39318895Y25649976D01*
X39367777Y25664804D01*
X39417898Y25674774D01*
X39465113Y25694331D01*
X39513993Y25709159D01*
X39559042Y25733238D01*
X39606256Y25752795D01*
X39648746Y25781186D01*
X39693797Y25805266D01*
X39733284Y25837672D01*
X39775774Y25866063D01*
X39811908Y25902197D01*
X39851396Y25934604D01*
X39883803Y25974092D01*
X39919937Y26010226D01*
X39948328Y26052716D01*
X39980734Y26092203D01*
X40004814Y26137254D01*
X40033205Y26179744D01*
X40052762Y26226958D01*
X40076841Y26272007D01*
X40091669Y26320887D01*
X40111226Y26368102D01*
X40121196Y26418223D01*
X40136024Y26467105D01*
X40141031Y26517943D01*
X40151000Y26568061D01*
X40151000Y26619162D01*
X40156007Y26670000D01*
X40151000Y26720838D01*
X40151000Y26771939D01*
X40141031Y26822057D01*
X40136024Y26872895D01*
X40121196Y26921777D01*
X40111226Y26971898D01*
X40091669Y27019113D01*
X40076841Y27067993D01*
X40052762Y27113042D01*
X40033205Y27160256D01*
X40004814Y27202746D01*
X39980734Y27247797D01*
X39948328Y27287284D01*
X39919937Y27329774D01*
X39883803Y27365908D01*
X39851396Y27405396D01*
X39811908Y27437803D01*
X39775774Y27473937D01*
X39733284Y27502328D01*
X39693797Y27534734D01*
X39648746Y27558814D01*
X39606256Y27587205D01*
X39559042Y27606762D01*
X39513993Y27630841D01*
X39465113Y27645669D01*
X39417898Y27665226D01*
X39367777Y27675196D01*
X39318895Y27690024D01*
X39268057Y27695031D01*
X39217939Y27705000D01*
X38150838Y27705000D01*
X38100000Y27710007D01*
X38049162Y27705000D01*
X36708072Y27705000D01*
X36708072Y28440000D01*
X36695812Y28564482D01*
X36659502Y28684180D01*
X36600537Y28794494D01*
X36521185Y28891185D01*
X36424494Y28970537D01*
X36314180Y29029502D01*
X36194482Y29065812D01*
X36070000Y29078072D01*
X32570000Y29078072D01*
X32445518Y29065812D01*
X32359947Y29039854D01*
X32038153Y29361649D01*
X32014068Y29482729D01*
X31943586Y29652889D01*
X31898744Y29720000D01*
X31988954Y29720000D01*
X32039463Y29625506D01*
X32118815Y29528815D01*
X32215506Y29449463D01*
X32325820Y29390498D01*
X32445518Y29354188D01*
X32570000Y29341928D01*
X36070000Y29341928D01*
X36194482Y29354188D01*
X36314180Y29390498D01*
X36424494Y29449463D01*
X36521185Y29528815D01*
X36600537Y29625506D01*
X36659502Y29735820D01*
X36695812Y29855518D01*
X36708072Y29980000D01*
X36708072Y30980000D01*
X36695812Y31104482D01*
X36659502Y31224180D01*
X36600537Y31334494D01*
X36521185Y31431185D01*
X36424494Y31510537D01*
X36314180Y31569502D01*
X36194482Y31605812D01*
X36070000Y31618072D01*
X32570000Y31618072D01*
X32445518Y31605812D01*
X32325820Y31569502D01*
X32215506Y31510537D01*
X32118815Y31431185D01*
X32039463Y31334494D01*
X31988954Y31240000D01*
X31660535Y31240000D01*
X31557889Y31308586D01*
X31387729Y31379068D01*
X31207089Y31415000D01*
X31022911Y31415000D01*
X30842271Y31379068D01*
X30672111Y31308586D01*
X30518972Y31206262D01*
X30388738Y31076028D01*
X30286414Y30922889D01*
X30215932Y30752729D01*
X30180000Y30572089D01*
X21715000Y30572089D01*
X21715000Y32520000D01*
X31931928Y32520000D01*
X31944188Y32395518D01*
X31980498Y32275820D01*
X32039463Y32165506D01*
X32118815Y32068815D01*
X32215506Y31989463D01*
X32325820Y31930498D01*
X32445518Y31894188D01*
X32570000Y31881928D01*
X34034250Y31885000D01*
X34193000Y32043750D01*
X34193000Y32893000D01*
X34447000Y32893000D01*
X34447000Y32043750D01*
X34605750Y31885000D01*
X36070000Y31881928D01*
X36194482Y31894188D01*
X36314180Y31930498D01*
X36424494Y31989463D01*
X36521185Y32068815D01*
X36600537Y32165506D01*
X36659502Y32275820D01*
X36695812Y32395518D01*
X36708072Y32520000D01*
X36705000Y32734250D01*
X36546250Y32893000D01*
X34447000Y32893000D01*
X34193000Y32893000D01*
X32093750Y32893000D01*
X31935000Y32734250D01*
X31931928Y32520000D01*
X21715000Y32520000D01*
X21715000Y33520000D01*
X31931928Y33520000D01*
X31935000Y33305750D01*
X32093750Y33147000D01*
X34193000Y33147000D01*
X34193000Y33996250D01*
X34447000Y33996250D01*
X34447000Y33147000D01*
X36546250Y33147000D01*
X36705000Y33305750D01*
X36708072Y33520000D01*
X36695812Y33644482D01*
X36659502Y33764180D01*
X36600537Y33874494D01*
X36521185Y33971185D01*
X36424494Y34050537D01*
X36314180Y34109502D01*
X36194482Y34145812D01*
X36070000Y34158072D01*
X34605750Y34155000D01*
X34447000Y33996250D01*
X34193000Y33996250D01*
X34034250Y34155000D01*
X32570000Y34158072D01*
X32445518Y34145812D01*
X32325820Y34109502D01*
X32215506Y34050537D01*
X32118815Y33971185D01*
X32039463Y33874494D01*
X31980498Y33764180D01*
X31944188Y33644482D01*
X31931928Y33520000D01*
X21715000Y33520000D01*
X21715000Y42507678D01*
X21718676Y42545001D01*
X21715000Y42582324D01*
X21715000Y42582333D01*
X21704003Y42693986D01*
X21660546Y42837247D01*
X21589974Y42969276D01*
X21495001Y43085001D01*
X21466003Y43108799D01*
X20445000Y44129801D01*
X20445000Y46447089D01*
X29545000Y46447089D01*
X29545000Y46262911D01*
X29580932Y46082271D01*
X29651414Y45912111D01*
X29753738Y45758972D01*
X29792710Y45720000D01*
X29753738Y45681028D01*
X29651414Y45527889D01*
X29580932Y45357729D01*
X29545000Y45177089D01*
X29545000Y44992911D01*
X29580932Y44812271D01*
X29651414Y44642111D01*
X29720000Y44539464D01*
X29720001Y42582333D01*
X29716324Y42545000D01*
X29720001Y42507667D01*
X29727553Y42430997D01*
X29730998Y42396015D01*
X29774454Y42252754D01*
X29845026Y42120724D01*
X29909693Y42041928D01*
X29940000Y42004999D01*
X29968998Y41981201D01*
X31821200Y40128998D01*
X31844999Y40099999D01*
X31943858Y40018867D01*
X31944188Y40015518D01*
X31980498Y39895820D01*
X32039463Y39785506D01*
X32118815Y39688815D01*
X32215506Y39609463D01*
X32325820Y39550498D01*
X32445518Y39514188D01*
X32570000Y39501928D01*
X36070001Y39501928D01*
X36070001Y39238072D01*
X32570000Y39238072D01*
X32445518Y39225812D01*
X32325820Y39189502D01*
X32215506Y39130537D01*
X32118815Y39051185D01*
X32039463Y38954494D01*
X31980498Y38844180D01*
X31944188Y38724482D01*
X31931928Y38600000D01*
X31931928Y37600000D01*
X31944188Y37475518D01*
X31980498Y37355820D01*
X32039463Y37245506D01*
X32118815Y37148815D01*
X32215506Y37069463D01*
X32325820Y37010498D01*
X32445518Y36974188D01*
X32570000Y36961928D01*
X36070000Y36961928D01*
X36194482Y36974188D01*
X36314180Y37010498D01*
X36424494Y37069463D01*
X36521185Y37148815D01*
X36600537Y37245506D01*
X36659502Y37355820D01*
X36695812Y37475518D01*
X36701418Y37532438D01*
X36705001Y37535379D01*
X36705001Y37144803D01*
X36234018Y36673819D01*
X36194482Y36685812D01*
X36070000Y36698072D01*
X32570000Y36698072D01*
X32445518Y36685812D01*
X32325820Y36649502D01*
X32215506Y36590537D01*
X32118815Y36511185D01*
X32039463Y36414494D01*
X31980498Y36304180D01*
X31944188Y36184482D01*
X31931928Y36060000D01*
X31931928Y35060000D01*
X31944188Y34935518D01*
X31980498Y34815820D01*
X32039463Y34705506D01*
X32118815Y34608815D01*
X32215506Y34529463D01*
X32325820Y34470498D01*
X32445518Y34434188D01*
X32570000Y34421928D01*
X36070000Y34421928D01*
X36194482Y34434188D01*
X36314180Y34470498D01*
X36424494Y34529463D01*
X36521185Y34608815D01*
X36600537Y34705506D01*
X36659502Y34815820D01*
X36695812Y34935518D01*
X36701418Y34992438D01*
X36735001Y35019999D01*
X36758804Y35049003D01*
X37839801Y36130000D01*
X39036928Y36130000D01*
X39049188Y36005518D01*
X39085498Y35885820D01*
X39144463Y35775506D01*
X39223815Y35678815D01*
X39320506Y35599463D01*
X39430820Y35540498D01*
X39550518Y35504188D01*
X39675000Y35491928D01*
X39964250Y35495000D01*
X40123000Y35653750D01*
X40123000Y36703000D01*
X39198750Y36703000D01*
X39040000Y36544250D01*
X39036928Y36130000D01*
X37839801Y36130000D01*
X37976003Y36266201D01*
X38005001Y36289999D01*
X38099974Y36405724D01*
X38170546Y36537753D01*
X38214003Y36681014D01*
X38225000Y36792667D01*
X38225000Y36792676D01*
X38228676Y36829999D01*
X38225000Y36867322D01*
X38225000Y38670000D01*
X39036928Y38670000D01*
X39049188Y38545518D01*
X39085498Y38425820D01*
X39144463Y38315506D01*
X39223815Y38218815D01*
X39320506Y38139463D01*
X39394335Y38100000D01*
X39320506Y38060537D01*
X39223815Y37981185D01*
X39144463Y37884494D01*
X39085498Y37774180D01*
X39049188Y37654482D01*
X39036928Y37530000D01*
X39040000Y37115750D01*
X39198750Y36957000D01*
X40123000Y36957000D01*
X40123000Y38006250D01*
X40029250Y38100000D01*
X40123000Y38193750D01*
X40123000Y39243000D01*
X39198750Y39243000D01*
X39040000Y39084250D01*
X39036928Y38670000D01*
X38225000Y38670000D01*
X38225000Y41210000D01*
X39036928Y41210000D01*
X39049188Y41085518D01*
X39085498Y40965820D01*
X39144463Y40855506D01*
X39223815Y40758815D01*
X39320506Y40679463D01*
X39394335Y40640000D01*
X39320506Y40600537D01*
X39223815Y40521185D01*
X39144463Y40424494D01*
X39085498Y40314180D01*
X39049188Y40194482D01*
X39036928Y40070000D01*
X39040000Y39655750D01*
X39198750Y39497000D01*
X40123000Y39497000D01*
X40123000Y40546250D01*
X40029250Y40640000D01*
X40123000Y40733750D01*
X40123000Y41783000D01*
X39198750Y41783000D01*
X39040000Y41624250D01*
X39036928Y41210000D01*
X38225000Y41210000D01*
X38225000Y43750000D01*
X39036928Y43750000D01*
X39049188Y43625518D01*
X39085498Y43505820D01*
X39144463Y43395506D01*
X39223815Y43298815D01*
X39320506Y43219463D01*
X39394335Y43180000D01*
X39320506Y43140537D01*
X39223815Y43061185D01*
X39144463Y42964494D01*
X39085498Y42854180D01*
X39049188Y42734482D01*
X39036928Y42610000D01*
X39040000Y42195750D01*
X39198750Y42037000D01*
X40123000Y42037000D01*
X40123000Y43086250D01*
X40029250Y43180000D01*
X40123000Y43273750D01*
X40123000Y44323000D01*
X39198750Y44323000D01*
X39040000Y44164250D01*
X39036928Y43750000D01*
X38225000Y43750000D01*
X38225000Y45150000D01*
X39036928Y45150000D01*
X39040000Y44735750D01*
X39198750Y44577000D01*
X40123000Y44577000D01*
X40123000Y45626250D01*
X39964250Y45785000D01*
X39675000Y45788072D01*
X39550518Y45775812D01*
X39430820Y45739502D01*
X39320506Y45680537D01*
X39223815Y45601185D01*
X39144463Y45504494D01*
X39085498Y45394180D01*
X39049188Y45274482D01*
X39036928Y45150000D01*
X38225000Y45150000D01*
X38225000Y56477667D01*
X38228677Y56515000D01*
X38214003Y56663986D01*
X38170546Y56807247D01*
X38099974Y56939276D01*
X38028799Y57026003D01*
X38005001Y57055001D01*
X37976004Y57078798D01*
X37393803Y57660998D01*
X37370001Y57690001D01*
X37254276Y57784974D01*
X37122247Y57855546D01*
X36978986Y57899003D01*
X36867333Y57910000D01*
X36867322Y57910000D01*
X36830000Y57913676D01*
X36792678Y57910000D01*
X36707087Y57910000D01*
X36708072Y57920000D01*
X36708072Y58920000D01*
X36695812Y59044482D01*
X36659502Y59164180D01*
X36600537Y59274494D01*
X36521185Y59371185D01*
X36424494Y59450537D01*
X36314180Y59509502D01*
X36194482Y59545812D01*
X36070000Y59558072D01*
X32692873Y59558072D01*
X32956730Y59821928D01*
X36070000Y59821928D01*
X36194482Y59834188D01*
X36314180Y59870498D01*
X36424494Y59929463D01*
X36521185Y60008815D01*
X36600537Y60105506D01*
X36659502Y60215820D01*
X36695812Y60335518D01*
X36708072Y60460000D01*
X36708072Y61460000D01*
X36695812Y61584482D01*
X36659502Y61704180D01*
X36600537Y61814494D01*
X36521185Y61911185D01*
X36424494Y61990537D01*
X36314180Y62049502D01*
X36194482Y62085812D01*
X36070000Y62098072D01*
X32570000Y62098072D01*
X32445518Y62085812D01*
X32325820Y62049502D01*
X32215506Y61990537D01*
X32118815Y61911185D01*
X32039463Y61814494D01*
X31980498Y61704180D01*
X31944188Y61584482D01*
X31931928Y61460000D01*
X31931928Y60946730D01*
X31519631Y60534433D01*
X31387729Y60589068D01*
X31207089Y60625000D01*
X31022911Y60625000D01*
X30842271Y60589068D01*
X30672111Y60518586D01*
X30518972Y60416262D01*
X30388738Y60286028D01*
X30286414Y60132889D01*
X30215932Y59962729D01*
X30180000Y59782089D01*
X30180000Y59597911D01*
X30215932Y59417271D01*
X30286414Y59247111D01*
X30388738Y59093972D01*
X30427710Y59055000D01*
X30388738Y59016028D01*
X30286414Y58862889D01*
X30215932Y58692729D01*
X30180000Y58512089D01*
X30180000Y58327911D01*
X30215932Y58147271D01*
X30286414Y57977111D01*
X30388738Y57823972D01*
X30427710Y57785000D01*
X30388738Y57746028D01*
X30286414Y57592889D01*
X30215932Y57422729D01*
X30180000Y57242089D01*
X30180000Y57057911D01*
X30215932Y56877271D01*
X30286414Y56707111D01*
X30388738Y56553972D01*
X30427710Y56515000D01*
X30388738Y56476028D01*
X30286414Y56322889D01*
X30215932Y56152729D01*
X30180000Y55972089D01*
X30180000Y55787911D01*
X30215932Y55607271D01*
X30286414Y55437111D01*
X30388738Y55283972D01*
X30427710Y55245000D01*
X30388738Y55206028D01*
X30286414Y55052889D01*
X30215932Y54882729D01*
X30180000Y54702089D01*
X30180000Y54517911D01*
X30215932Y54337271D01*
X30286414Y54167111D01*
X30388738Y54013972D01*
X30427710Y53975000D01*
X30388738Y53936028D01*
X30286414Y53782889D01*
X30215932Y53612729D01*
X30180000Y53432089D01*
X30180000Y53247911D01*
X30215932Y53067271D01*
X30286414Y52897111D01*
X30388738Y52743972D01*
X30518972Y52613738D01*
X30672111Y52511414D01*
X30842271Y52440932D01*
X31022911Y52405000D01*
X31207089Y52405000D01*
X31387729Y52440932D01*
X31557889Y52511414D01*
X31660535Y52580000D01*
X31988954Y52580000D01*
X32039463Y52485506D01*
X32118815Y52388815D01*
X32215506Y52309463D01*
X32325820Y52250498D01*
X32445518Y52214188D01*
X32570000Y52201928D01*
X36070000Y52201928D01*
X36070000Y51938072D01*
X32570000Y51938072D01*
X32445518Y51925812D01*
X32325820Y51889502D01*
X32215506Y51830537D01*
X32118815Y51751185D01*
X32039463Y51654494D01*
X31988954Y51560000D01*
X31660535Y51560000D01*
X31557889Y51628586D01*
X31387729Y51699068D01*
X31207089Y51735000D01*
X31022911Y51735000D01*
X30842271Y51699068D01*
X30672111Y51628586D01*
X30518972Y51526262D01*
X30388738Y51396028D01*
X30286414Y51242889D01*
X30215932Y51072729D01*
X30180000Y50892089D01*
X30180000Y50707911D01*
X30215932Y50527271D01*
X30286414Y50357111D01*
X30388738Y50203972D01*
X30518972Y50073738D01*
X30672111Y49971414D01*
X30842271Y49900932D01*
X31022911Y49865000D01*
X31207089Y49865000D01*
X31387729Y49900932D01*
X31557889Y49971414D01*
X31660535Y50040000D01*
X31988954Y50040000D01*
X32039463Y49945506D01*
X32118815Y49848815D01*
X32215506Y49769463D01*
X32325820Y49710498D01*
X32445518Y49674188D01*
X32570000Y49661928D01*
X36070000Y49661928D01*
X36070000Y49398072D01*
X32570000Y49398072D01*
X32445518Y49385812D01*
X32325820Y49349502D01*
X32215506Y49290537D01*
X32118815Y49211185D01*
X32039463Y49114494D01*
X32028673Y49094307D01*
X32014068Y49167729D01*
X31943586Y49337889D01*
X31841262Y49491028D01*
X31711028Y49621262D01*
X31557889Y49723586D01*
X31387729Y49794068D01*
X31207089Y49830000D01*
X31022911Y49830000D01*
X30842271Y49794068D01*
X30672111Y49723586D01*
X30518972Y49621262D01*
X30388738Y49491028D01*
X30286414Y49337889D01*
X30215932Y49167729D01*
X30180000Y48987089D01*
X30180000Y48802911D01*
X30215932Y48622271D01*
X30286414Y48452111D01*
X30388738Y48298972D01*
X30518972Y48168738D01*
X30672111Y48066414D01*
X30842271Y47995932D01*
X30963351Y47971847D01*
X31186200Y47748998D01*
X31209999Y47719999D01*
X31325724Y47625026D01*
X31457753Y47554454D01*
X31601014Y47510997D01*
X31702484Y47501003D01*
X31750000Y47496323D01*
X31787333Y47500000D01*
X31988954Y47500000D01*
X32039463Y47405506D01*
X32118815Y47308815D01*
X32215506Y47229463D01*
X32325820Y47170498D01*
X32445518Y47134188D01*
X32570000Y47121928D01*
X36070000Y47121928D01*
X36070000Y46858072D01*
X32570000Y46858072D01*
X32445518Y46845812D01*
X32359947Y46819854D01*
X32313803Y46865998D01*
X32290001Y46895001D01*
X32174276Y46989974D01*
X32042247Y47060546D01*
X31898986Y47104003D01*
X31787333Y47115000D01*
X31787322Y47115000D01*
X31750000Y47118676D01*
X31712678Y47115000D01*
X31025535Y47115000D01*
X30922889Y47183586D01*
X30752729Y47254068D01*
X30572089Y47290000D01*
X30387911Y47290000D01*
X30207271Y47254068D01*
X30037111Y47183586D01*
X29883972Y47081262D01*
X29753738Y46951028D01*
X29651414Y46797889D01*
X29580932Y46627729D01*
X29545000Y46447089D01*
X20445000Y46447089D01*
X20445000Y46952678D01*
X20448676Y46990001D01*
X20445000Y47027324D01*
X20445000Y47027333D01*
X20434003Y47138986D01*
X20390546Y47282247D01*
X20319974Y47414276D01*
X20225001Y47530001D01*
X20196004Y47553798D01*
X18978804Y48770997D01*
X18955001Y48800001D01*
X18856142Y48881133D01*
X18855812Y48884482D01*
X18819502Y49004180D01*
X18760537Y49114494D01*
X18681185Y49211185D01*
X18584494Y49290537D01*
X18474180Y49349502D01*
X18354482Y49385812D01*
X18230000Y49398072D01*
X14730000Y49398072D01*
X14605518Y49385812D01*
X14485820Y49349502D01*
X14375506Y49290537D01*
X14278815Y49211185D01*
X14199463Y49114494D01*
X14140498Y49004180D01*
X14104188Y48884482D01*
X14091928Y48760000D01*
X14091928Y48025000D01*
X14020835Y48025000D01*
X13970000Y48030007D01*
X13919165Y48025000D01*
X13919162Y48025000D01*
X13767105Y48010024D01*
X13572007Y47950841D01*
X13490370Y47907205D01*
X13392202Y47854734D01*
X13276769Y47760000D01*
X13234604Y47725396D01*
X13202197Y47685908D01*
X12548229Y47031939D01*
X12548226Y47031937D01*
X12404063Y46887774D01*
X12375671Y46845283D01*
X12343266Y46805797D01*
X12319187Y46760748D01*
X12290795Y46718256D01*
X12271236Y46671036D01*
X12247160Y46625993D01*
X12232335Y46577122D01*
X12212774Y46529898D01*
X12202803Y46479768D01*
X12187977Y46430895D01*
X12182971Y46380067D01*
X12173000Y46329939D01*
X12173000Y46278828D01*
X12167994Y46228000D01*
X6477721Y46228000D01*
X6458599Y46291034D01*
X6320706Y46549014D01*
X6135134Y46775134D01*
X5909014Y46960706D01*
X5854209Y46990000D01*
X5909014Y47019294D01*
X6135134Y47204866D01*
X6320706Y47430986D01*
X6458599Y47688966D01*
X6543513Y47968889D01*
X6572185Y48260000D01*
X6543513Y48551111D01*
X6458599Y48831034D01*
X6320706Y49089014D01*
X6135134Y49315134D01*
X5909014Y49500706D01*
X5854209Y49530000D01*
X5909014Y49559294D01*
X6135134Y49744866D01*
X6320706Y49970986D01*
X6458599Y50228966D01*
X6543513Y50508889D01*
X6572185Y50800000D01*
X6543513Y51091111D01*
X6480148Y51300000D01*
X14091928Y51300000D01*
X14091928Y50300000D01*
X14104188Y50175518D01*
X14140498Y50055820D01*
X14199463Y49945506D01*
X14278815Y49848815D01*
X14375506Y49769463D01*
X14485820Y49710498D01*
X14605518Y49674188D01*
X14730000Y49661928D01*
X18230000Y49661928D01*
X18354482Y49674188D01*
X18474180Y49710498D01*
X18584494Y49769463D01*
X18681185Y49848815D01*
X18760537Y49945506D01*
X18771327Y49965693D01*
X18785932Y49892271D01*
X18856414Y49722111D01*
X18958738Y49568972D01*
X19088972Y49438738D01*
X19242111Y49336414D01*
X19412271Y49265932D01*
X19592911Y49230000D01*
X19777089Y49230000D01*
X19957729Y49265932D01*
X20127889Y49336414D01*
X20281028Y49438738D01*
X20411262Y49568972D01*
X20513586Y49722111D01*
X20584068Y49892271D01*
X20620000Y50072911D01*
X20620000Y50257089D01*
X20584068Y50437729D01*
X20513586Y50607889D01*
X20411262Y50761028D01*
X20281028Y50891262D01*
X20127889Y50993586D01*
X19957729Y51064068D01*
X19836649Y51088153D01*
X19613803Y51310998D01*
X19590001Y51340001D01*
X19474276Y51434974D01*
X19342247Y51505546D01*
X19198986Y51549003D01*
X19087333Y51560000D01*
X19087322Y51560000D01*
X19050000Y51563676D01*
X19012678Y51560000D01*
X18811046Y51560000D01*
X18760537Y51654494D01*
X18681185Y51751185D01*
X18584494Y51830537D01*
X18474180Y51889502D01*
X18354482Y51925812D01*
X18230000Y51938072D01*
X14730000Y51938072D01*
X14605518Y51925812D01*
X14485820Y51889502D01*
X14375506Y51830537D01*
X14278815Y51751185D01*
X14199463Y51654494D01*
X14140498Y51544180D01*
X14104188Y51424482D01*
X14091928Y51300000D01*
X6480148Y51300000D01*
X6458599Y51371034D01*
X6320706Y51629014D01*
X6135134Y51855134D01*
X5909014Y52040706D01*
X5854209Y52070000D01*
X5909014Y52099294D01*
X6135134Y52284866D01*
X6320706Y52510986D01*
X6458599Y52768966D01*
X6543513Y53048889D01*
X6572185Y53340000D01*
X6543513Y53631111D01*
X6480148Y53840000D01*
X14091928Y53840000D01*
X14091928Y52840000D01*
X14104188Y52715518D01*
X14140498Y52595820D01*
X14199463Y52485506D01*
X14278815Y52388815D01*
X14375506Y52309463D01*
X14485820Y52250498D01*
X14605518Y52214188D01*
X14730000Y52201928D01*
X18230000Y52201928D01*
X18354482Y52214188D01*
X18474180Y52250498D01*
X18584494Y52309463D01*
X18681185Y52388815D01*
X18760537Y52485506D01*
X18771327Y52505693D01*
X18785932Y52432271D01*
X18856414Y52262111D01*
X18958738Y52108972D01*
X19088972Y51978738D01*
X19242111Y51876414D01*
X19412271Y51805932D01*
X19592911Y51770000D01*
X19777089Y51770000D01*
X19957729Y51805932D01*
X20127889Y51876414D01*
X20281028Y51978738D01*
X20411262Y52108972D01*
X20513586Y52262111D01*
X20584068Y52432271D01*
X20620000Y52612911D01*
X20620000Y52797089D01*
X20584068Y52977729D01*
X20513586Y53147889D01*
X20411262Y53301028D01*
X20281028Y53431262D01*
X20127889Y53533586D01*
X19957729Y53604068D01*
X19836649Y53628153D01*
X19613803Y53850998D01*
X19590001Y53880001D01*
X19474276Y53974974D01*
X19342247Y54045546D01*
X19198986Y54089003D01*
X19087333Y54100000D01*
X19087322Y54100000D01*
X19050000Y54103676D01*
X19012678Y54100000D01*
X18811046Y54100000D01*
X18760537Y54194494D01*
X18681185Y54291185D01*
X18584494Y54370537D01*
X18474180Y54429502D01*
X18354482Y54465812D01*
X18230000Y54478072D01*
X14730000Y54478072D01*
X14605518Y54465812D01*
X14485820Y54429502D01*
X14375506Y54370537D01*
X14278815Y54291185D01*
X14199463Y54194494D01*
X14140498Y54084180D01*
X14104188Y53964482D01*
X14091928Y53840000D01*
X6480148Y53840000D01*
X6458599Y53911034D01*
X6320706Y54169014D01*
X6135134Y54395134D01*
X5909014Y54580706D01*
X5854209Y54610000D01*
X5909014Y54639294D01*
X6135134Y54824866D01*
X6320706Y55050986D01*
X6458599Y55308966D01*
X6543513Y55588889D01*
X6572185Y55880000D01*
X6543513Y56171111D01*
X6480148Y56380000D01*
X14091928Y56380000D01*
X14091928Y55380000D01*
X14104188Y55255518D01*
X14140498Y55135820D01*
X14199463Y55025506D01*
X14278815Y54928815D01*
X14375506Y54849463D01*
X14485820Y54790498D01*
X14605518Y54754188D01*
X14730000Y54741928D01*
X18230000Y54741928D01*
X18354482Y54754188D01*
X18474180Y54790498D01*
X18584494Y54849463D01*
X18681185Y54928815D01*
X18760537Y55025506D01*
X18771327Y55045693D01*
X18785932Y54972271D01*
X18856414Y54802111D01*
X18958738Y54648972D01*
X19088972Y54518738D01*
X19242111Y54416414D01*
X19412271Y54345932D01*
X19592911Y54310000D01*
X19777089Y54310000D01*
X19957729Y54345932D01*
X20127889Y54416414D01*
X20281028Y54518738D01*
X20411262Y54648972D01*
X20513586Y54802111D01*
X20584068Y54972271D01*
X20620000Y55152911D01*
X20620000Y55337089D01*
X20584068Y55517729D01*
X20513586Y55687889D01*
X20411262Y55841028D01*
X20281028Y55971262D01*
X20127889Y56073586D01*
X19957729Y56144068D01*
X19836649Y56168153D01*
X19613803Y56390998D01*
X19590001Y56420001D01*
X19474276Y56514974D01*
X19342247Y56585546D01*
X19198986Y56629003D01*
X19087333Y56640000D01*
X19087322Y56640000D01*
X19050000Y56643676D01*
X19012678Y56640000D01*
X18811046Y56640000D01*
X18760537Y56734494D01*
X18681185Y56831185D01*
X18584494Y56910537D01*
X18474180Y56969502D01*
X18354482Y57005812D01*
X18230000Y57018072D01*
X14730000Y57018072D01*
X14605518Y57005812D01*
X14485820Y56969502D01*
X14375506Y56910537D01*
X14278815Y56831185D01*
X14199463Y56734494D01*
X14140498Y56624180D01*
X14104188Y56504482D01*
X14091928Y56380000D01*
X6480148Y56380000D01*
X6458599Y56451034D01*
X6320706Y56709014D01*
X6135134Y56935134D01*
X5909014Y57120706D01*
X5854209Y57150000D01*
X5909014Y57179294D01*
X6135134Y57364866D01*
X6320706Y57590986D01*
X6458599Y57848966D01*
X6543513Y58128889D01*
X6572185Y58420000D01*
X6543513Y58711111D01*
X6458599Y58991034D01*
X6320706Y59249014D01*
X6135134Y59475134D01*
X6105313Y59499607D01*
X6174180Y59520498D01*
X6284494Y59579463D01*
X6381185Y59658815D01*
X6460537Y59755506D01*
X6519502Y59865820D01*
X6555812Y59985518D01*
X6568072Y60110000D01*
X6568072Y61460000D01*
X14091928Y61460000D01*
X14091928Y60460000D01*
X14104188Y60335518D01*
X14140498Y60215820D01*
X14199463Y60105506D01*
X14278815Y60008815D01*
X14375506Y59929463D01*
X14485820Y59870498D01*
X14605518Y59834188D01*
X14730000Y59821928D01*
X17843271Y59821928D01*
X18107127Y59558072D01*
X14730000Y59558072D01*
X14605518Y59545812D01*
X14485820Y59509502D01*
X14375506Y59450537D01*
X14278815Y59371185D01*
X14199463Y59274494D01*
X14140498Y59164180D01*
X14104188Y59044482D01*
X14091928Y58920000D01*
X14091928Y57920000D01*
X14104188Y57795518D01*
X14140498Y57675820D01*
X14199463Y57565506D01*
X14278815Y57468815D01*
X14375506Y57389463D01*
X14485820Y57330498D01*
X14605518Y57294188D01*
X14730000Y57281928D01*
X18230000Y57281928D01*
X18354482Y57294188D01*
X18474180Y57330498D01*
X18584494Y57389463D01*
X18681185Y57468815D01*
X18760537Y57565506D01*
X18771327Y57585693D01*
X18785932Y57512271D01*
X18856414Y57342111D01*
X18958738Y57188972D01*
X19088972Y57058738D01*
X19242111Y56956414D01*
X19412271Y56885932D01*
X19592911Y56850000D01*
X19777089Y56850000D01*
X19957729Y56885932D01*
X20127889Y56956414D01*
X20281028Y57058738D01*
X20411262Y57188972D01*
X20513586Y57342111D01*
X20584068Y57512271D01*
X20620000Y57692911D01*
X20620000Y57877089D01*
X20584068Y58057729D01*
X20513586Y58227889D01*
X20411262Y58381028D01*
X20372290Y58420000D01*
X20411262Y58458972D01*
X20513586Y58612111D01*
X20584068Y58782271D01*
X20620000Y58962911D01*
X20620000Y59147089D01*
X20584068Y59327729D01*
X20513586Y59497889D01*
X20411262Y59651028D01*
X20281028Y59781262D01*
X20127889Y59883586D01*
X19957729Y59954068D01*
X19836649Y59978153D01*
X18868072Y60946729D01*
X18868072Y61460000D01*
X18855812Y61584482D01*
X18819502Y61704180D01*
X18760537Y61814494D01*
X18681185Y61911185D01*
X18584494Y61990537D01*
X18474180Y62049502D01*
X18354482Y62085812D01*
X18230000Y62098072D01*
X14730000Y62098072D01*
X14605518Y62085812D01*
X14485820Y62049502D01*
X14375506Y61990537D01*
X14278815Y61911185D01*
X14199463Y61814494D01*
X14140498Y61704180D01*
X14104188Y61584482D01*
X14091928Y61460000D01*
X6568072Y61460000D01*
X6568072Y61810000D01*
X6555812Y61934482D01*
X6519502Y62054180D01*
X6460537Y62164494D01*
X6381185Y62261185D01*
X6284494Y62340537D01*
X6174180Y62399502D01*
X6054482Y62435812D01*
X5930000Y62448072D01*
X4230000Y62448072D01*
X4105518Y62435812D01*
X3985820Y62399502D01*
X3875506Y62340537D01*
X3778815Y62261185D01*
X3699463Y62164494D01*
X3640498Y62054180D01*
X3619607Y61985313D01*
X3595134Y62015134D01*
X3369014Y62200706D01*
X3111034Y62338599D01*
X2831111Y62423513D01*
X2612950Y62445000D01*
X2467050Y62445000D01*
X2248889Y62423513D01*
X1968966Y62338599D01*
X1710986Y62200706D01*
X1599000Y62108801D01*
X1599000Y70775561D01*
X1656837Y70689002D01*
X1898502Y70447337D01*
X2182669Y70257463D01*
X2498419Y70126675D01*
X2833617Y70060000D01*
X3175383Y70060000D01*
X3510581Y70126675D01*
X3826331Y70257463D01*
X4110498Y70447337D01*
X4352163Y70689002D01*
X4542037Y70973169D01*
X4672825Y71288919D01*
X4739500Y71624117D01*
X4739500Y71965883D01*
X4672825Y72301081D01*
X4542037Y72616831D01*
X4411534Y72812143D01*
X4687658Y72867068D01*
X4957911Y72979010D01*
X5201132Y73141525D01*
X5326210Y73266603D01*
X7905708Y73266603D01*
X7983343Y73017528D01*
X8247383Y72891629D01*
X8530911Y72819661D01*
X8600073Y72816045D01*
X8466963Y72616831D01*
X8336175Y72301081D01*
X8269500Y71965883D01*
X8269500Y71624117D01*
X8336175Y71288919D01*
X8466963Y70973169D01*
X8656837Y70689002D01*
X8898502Y70447337D01*
X9182669Y70257463D01*
X9498419Y70126675D01*
X9833617Y70060000D01*
X10175383Y70060000D01*
X10510581Y70126675D01*
X10826331Y70257463D01*
X11110498Y70447337D01*
X11352163Y70689002D01*
X11542037Y70973169D01*
X11672825Y71288919D01*
X11739500Y71624117D01*
X11739500Y71965883D01*
X38870000Y71965883D01*
X38870000Y71624117D01*
X38936675Y71288919D01*
X39067463Y70973169D01*
X39257337Y70689002D01*
X39499002Y70447337D01*
X39783169Y70257463D01*
X40098919Y70126675D01*
X40434117Y70060000D01*
X40775883Y70060000D01*
X41111081Y70126675D01*
X41426831Y70257463D01*
X41710998Y70447337D01*
X41952663Y70689002D01*
X42142537Y70973169D01*
X42273325Y71288919D01*
X42340000Y71624117D01*
X42340000Y71965883D01*
X42273325Y72301081D01*
X42142537Y72616831D01*
X42008934Y72816783D01*
X42213019Y72846401D01*
X42488747Y72944081D01*
X42626157Y73017528D01*
X42703792Y73266603D01*
X41855000Y74115395D01*
X41840858Y74101252D01*
X41661253Y74280857D01*
X41675395Y74295000D01*
X42034605Y74295000D01*
X42883397Y73446208D01*
X43132472Y73523843D01*
X43258371Y73787883D01*
X43330339Y74071411D01*
X43345611Y74363531D01*
X43303599Y74653019D01*
X43205919Y74928747D01*
X43132472Y75066157D01*
X42883397Y75143792D01*
X42034605Y74295000D01*
X41675395Y74295000D01*
X40826603Y75143792D01*
X40577528Y75066157D01*
X40451629Y74802117D01*
X40379661Y74518589D01*
X40364389Y74226469D01*
X40406401Y73936981D01*
X40504081Y73661253D01*
X40574237Y73530000D01*
X40434117Y73530000D01*
X40098919Y73463325D01*
X39783169Y73332537D01*
X39499002Y73142663D01*
X39257337Y72900998D01*
X39067463Y72616831D01*
X38936675Y72301081D01*
X38870000Y71965883D01*
X11739500Y71965883D01*
X11672825Y72301081D01*
X11542037Y72616831D01*
X11352163Y72900998D01*
X11110498Y73142663D01*
X10826331Y73332537D01*
X10510581Y73463325D01*
X10175383Y73530000D01*
X10034908Y73530000D01*
X10157871Y73787883D01*
X10229839Y74071411D01*
X10245111Y74363531D01*
X10233116Y74446184D01*
X11800000Y74446184D01*
X11800000Y74143816D01*
X11858989Y73847257D01*
X11974701Y73567905D01*
X12142688Y73316495D01*
X12356495Y73102688D01*
X12607905Y72934701D01*
X12887257Y72818989D01*
X13183816Y72760000D01*
X13486184Y72760000D01*
X13782743Y72818989D01*
X14062095Y72934701D01*
X14313505Y73102688D01*
X14379944Y73169127D01*
X14385498Y73150820D01*
X14444463Y73040506D01*
X14523815Y72943815D01*
X14620506Y72864463D01*
X14730820Y72805498D01*
X14850518Y72769188D01*
X14975000Y72756928D01*
X15589250Y72760000D01*
X15748000Y72918750D01*
X15748000Y74168000D01*
X15728000Y74168000D01*
X15728000Y74422000D01*
X15748000Y74422000D01*
X15748000Y75671250D01*
X16002000Y75671250D01*
X16002000Y74422000D01*
X16022000Y74422000D01*
X16022000Y74168000D01*
X16002000Y74168000D01*
X16002000Y72918750D01*
X16160750Y72760000D01*
X16775000Y72756928D01*
X16899482Y72769188D01*
X17019180Y72805498D01*
X17129494Y72864463D01*
X17226185Y72943815D01*
X17305537Y73040506D01*
X17364502Y73150820D01*
X17370056Y73169127D01*
X17436495Y73102688D01*
X17687905Y72934701D01*
X17967257Y72818989D01*
X18263816Y72760000D01*
X18566184Y72760000D01*
X18862743Y72818989D01*
X19142095Y72934701D01*
X19393505Y73102688D01*
X19459944Y73169127D01*
X19465498Y73150820D01*
X19524463Y73040506D01*
X19603815Y72943815D01*
X19700506Y72864463D01*
X19810820Y72805498D01*
X19930518Y72769188D01*
X20055000Y72756928D01*
X20669250Y72760000D01*
X20828000Y72918750D01*
X20828000Y74168000D01*
X20808000Y74168000D01*
X20808000Y74422000D01*
X20828000Y74422000D01*
X20828000Y75671250D01*
X21082000Y75671250D01*
X21082000Y74422000D01*
X21102000Y74422000D01*
X21102000Y74168000D01*
X21082000Y74168000D01*
X21082000Y72918750D01*
X21240750Y72760000D01*
X21855000Y72756928D01*
X21979482Y72769188D01*
X22099180Y72805498D01*
X22209494Y72864463D01*
X22306185Y72943815D01*
X22385537Y73040506D01*
X22444502Y73150820D01*
X22450056Y73169127D01*
X22516495Y73102688D01*
X22767905Y72934701D01*
X23047257Y72818989D01*
X23343816Y72760000D01*
X23646184Y72760000D01*
X23942743Y72818989D01*
X24222095Y72934701D01*
X24473505Y73102688D01*
X24539944Y73169127D01*
X24545498Y73150820D01*
X24604463Y73040506D01*
X24683815Y72943815D01*
X24780506Y72864463D01*
X24890820Y72805498D01*
X25010518Y72769188D01*
X25135000Y72756928D01*
X25749250Y72760000D01*
X25908000Y72918750D01*
X25908000Y74168000D01*
X26162000Y74168000D01*
X26162000Y72918750D01*
X26320750Y72760000D01*
X26935000Y72756928D01*
X27059482Y72769188D01*
X27179180Y72805498D01*
X27289494Y72864463D01*
X27386185Y72943815D01*
X27465537Y73040506D01*
X27524502Y73150820D01*
X27560812Y73270518D01*
X27573072Y73395000D01*
X27570000Y74009250D01*
X27411250Y74168000D01*
X26162000Y74168000D01*
X25908000Y74168000D01*
X25888000Y74168000D01*
X25888000Y74422000D01*
X25908000Y74422000D01*
X25908000Y75671250D01*
X26162000Y75671250D01*
X26162000Y74422000D01*
X27411250Y74422000D01*
X27570000Y74580750D01*
X27573072Y75195000D01*
X27560812Y75319482D01*
X27559625Y75323397D01*
X41006208Y75323397D01*
X41855000Y74474605D01*
X42703792Y75323397D01*
X42626157Y75572472D01*
X42362117Y75698371D01*
X42078589Y75770339D01*
X41786469Y75785611D01*
X41496981Y75743599D01*
X41221253Y75645919D01*
X41083843Y75572472D01*
X41006208Y75323397D01*
X27559625Y75323397D01*
X27524502Y75439180D01*
X27465537Y75549494D01*
X27386185Y75646185D01*
X27289494Y75725537D01*
X27179180Y75784502D01*
X27059482Y75820812D01*
X26935000Y75833072D01*
X26320750Y75830000D01*
X26162000Y75671250D01*
X25908000Y75671250D01*
X25749250Y75830000D01*
X25135000Y75833072D01*
X25010518Y75820812D01*
X24890820Y75784502D01*
X24780506Y75725537D01*
X24683815Y75646185D01*
X24604463Y75549494D01*
X24545498Y75439180D01*
X24539944Y75420873D01*
X24473505Y75487312D01*
X24222095Y75655299D01*
X23942743Y75771011D01*
X23646184Y75830000D01*
X23343816Y75830000D01*
X23047257Y75771011D01*
X22767905Y75655299D01*
X22516495Y75487312D01*
X22450056Y75420873D01*
X22444502Y75439180D01*
X22385537Y75549494D01*
X22306185Y75646185D01*
X22209494Y75725537D01*
X22099180Y75784502D01*
X21979482Y75820812D01*
X21855000Y75833072D01*
X21240750Y75830000D01*
X21082000Y75671250D01*
X20828000Y75671250D01*
X20669250Y75830000D01*
X20055000Y75833072D01*
X19930518Y75820812D01*
X19810820Y75784502D01*
X19700506Y75725537D01*
X19603815Y75646185D01*
X19524463Y75549494D01*
X19465498Y75439180D01*
X19459944Y75420873D01*
X19393505Y75487312D01*
X19142095Y75655299D01*
X18862743Y75771011D01*
X18566184Y75830000D01*
X18263816Y75830000D01*
X17967257Y75771011D01*
X17687905Y75655299D01*
X17436495Y75487312D01*
X17370056Y75420873D01*
X17364502Y75439180D01*
X17305537Y75549494D01*
X17226185Y75646185D01*
X17129494Y75725537D01*
X17019180Y75784502D01*
X16899482Y75820812D01*
X16775000Y75833072D01*
X16160750Y75830000D01*
X16002000Y75671250D01*
X15748000Y75671250D01*
X15589250Y75830000D01*
X14975000Y75833072D01*
X14850518Y75820812D01*
X14730820Y75784502D01*
X14620506Y75725537D01*
X14523815Y75646185D01*
X14444463Y75549494D01*
X14385498Y75439180D01*
X14379944Y75420873D01*
X14313505Y75487312D01*
X14062095Y75655299D01*
X13782743Y75771011D01*
X13486184Y75830000D01*
X13183816Y75830000D01*
X12887257Y75771011D01*
X12607905Y75655299D01*
X12356495Y75487312D01*
X12142688Y75273505D01*
X11974701Y75022095D01*
X11858989Y74742743D01*
X11800000Y74446184D01*
X10233116Y74446184D01*
X10203099Y74653019D01*
X10105419Y74928747D01*
X10031972Y75066157D01*
X9782897Y75143792D01*
X8934105Y74295000D01*
X8948248Y74280857D01*
X8768643Y74101252D01*
X8754500Y74115395D01*
X7905708Y73266603D01*
X5326210Y73266603D01*
X5407975Y73348368D01*
X5570490Y73591589D01*
X5682432Y73861842D01*
X5739500Y74148740D01*
X5739500Y74226469D01*
X7263889Y74226469D01*
X7305901Y73936981D01*
X7403581Y73661253D01*
X7477028Y73523843D01*
X7726103Y73446208D01*
X8574895Y74295000D01*
X7726103Y75143792D01*
X7477028Y75066157D01*
X7351129Y74802117D01*
X7279161Y74518589D01*
X7263889Y74226469D01*
X5739500Y74226469D01*
X5739500Y74441260D01*
X5682432Y74728158D01*
X5570490Y74998411D01*
X5407975Y75241632D01*
X5326210Y75323397D01*
X7905708Y75323397D01*
X8754500Y74474605D01*
X9603292Y75323397D01*
X9525657Y75572472D01*
X9261617Y75698371D01*
X8978089Y75770339D01*
X8685969Y75785611D01*
X8396481Y75743599D01*
X8120753Y75645919D01*
X7983343Y75572472D01*
X7905708Y75323397D01*
X5326210Y75323397D01*
X5201132Y75448475D01*
X4957911Y75610990D01*
X4687658Y75722932D01*
X4400760Y75780000D01*
X4108240Y75780000D01*
X3821342Y75722932D01*
X3551089Y75610990D01*
X3307868Y75448475D01*
X3101025Y75241632D01*
X2938510Y74998411D01*
X2826568Y74728158D01*
X2769500Y74441260D01*
X2769500Y74148740D01*
X2826568Y73861842D01*
X2938510Y73591589D01*
X2979662Y73530000D01*
X2833617Y73530000D01*
X2498419Y73463325D01*
X2182669Y73332537D01*
X1898502Y73142663D01*
X1656837Y72900998D01*
X1599000Y72814439D01*
X1599000Y76506000D01*
X49201000Y76506000D01*
X49201000Y72475689D01*
G36*
X3839294Y24570986D02*
G01*
X4024866Y24344866D01*
X4250986Y24159294D01*
X4305791Y24130000D01*
X4250986Y24100706D01*
X4024866Y23915134D01*
X3839294Y23689014D01*
X3810000Y23634209D01*
X3780706Y23689014D01*
X3595134Y23915134D01*
X3369014Y24100706D01*
X3304477Y24135201D01*
X3421355Y24204822D01*
X3637588Y24399731D01*
X3808416Y24628756D01*
X3839294Y24570986D01*
X3839294Y24570986D01*
G37*
X3839294Y24570986D02*
X4024866Y24344866D01*
X4250986Y24159294D01*
X4305791Y24130000D01*
X4250986Y24100706D01*
X4024866Y23915134D01*
X3839294Y23689014D01*
X3810000Y23634209D01*
X3780706Y23689014D01*
X3595134Y23915134D01*
X3369014Y24100706D01*
X3304477Y24135201D01*
X3421355Y24204822D01*
X3637588Y24399731D01*
X3808416Y24628756D01*
X3839294Y24570986D01*
G36*
X47162412Y24399731D02*
G01*
X47378645Y24204822D01*
X47495523Y24135201D01*
X47430986Y24100706D01*
X47204866Y23915134D01*
X47019294Y23689014D01*
X46990000Y23634209D01*
X46960706Y23689014D01*
X46775134Y23915134D01*
X46549014Y24100706D01*
X46494209Y24130000D01*
X46549014Y24159294D01*
X46775134Y24344866D01*
X46960706Y24570986D01*
X46991584Y24628756D01*
X47162412Y24399731D01*
X47162412Y24399731D01*
G37*
X47162412Y24399731D02*
X47378645Y24204822D01*
X47495523Y24135201D01*
X47430986Y24100706D01*
X47204866Y23915134D01*
X47019294Y23689014D01*
X46990000Y23634209D01*
X46960706Y23689014D01*
X46775134Y23915134D01*
X46549014Y24100706D01*
X46494209Y24130000D01*
X46549014Y24159294D01*
X46775134Y24344866D01*
X46960706Y24570986D01*
X46991584Y24628756D01*
X47162412Y24399731D01*
G36*
X48387000Y25527000D02*
G01*
X48407000Y25527000D01*
X48407000Y25273000D01*
X48387000Y25273000D01*
X48387000Y25253000D01*
X48133000Y25253000D01*
X48133000Y25273000D01*
X48113000Y25273000D01*
X48113000Y25527000D01*
X48133000Y25527000D01*
X48133000Y25547000D01*
X48387000Y25547000D01*
X48387000Y25527000D01*
X48387000Y25527000D01*
G37*
X48387000Y25527000D02*
X48407000Y25527000D01*
X48407000Y25273000D01*
X48387000Y25273000D01*
X48387000Y25253000D01*
X48133000Y25253000D01*
X48133000Y25273000D01*
X48113000Y25273000D01*
X48113000Y25527000D01*
X48133000Y25527000D01*
X48133000Y25547000D01*
X48387000Y25547000D01*
X48387000Y25527000D01*
G36*
X2667000Y25527000D02*
G01*
X2687000Y25527000D01*
X2687000Y25273000D01*
X2667000Y25273000D01*
X2667000Y25253000D01*
X2413000Y25253000D01*
X2413000Y25273000D01*
X2393000Y25273000D01*
X2393000Y25527000D01*
X2413000Y25527000D01*
X2413000Y25547000D01*
X2667000Y25547000D01*
X2667000Y25527000D01*
X2667000Y25527000D01*
G37*
X2667000Y25527000D02*
X2687000Y25527000D01*
X2687000Y25273000D01*
X2667000Y25273000D01*
X2667000Y25253000D01*
X2413000Y25253000D01*
X2413000Y25273000D01*
X2393000Y25273000D01*
X2393000Y25527000D01*
X2413000Y25527000D01*
X2413000Y25547000D01*
X2667000Y25547000D01*
X2667000Y25527000D01*
G36*
X3839294Y27110986D02*
G01*
X4024866Y26884866D01*
X4250986Y26699294D01*
X4305791Y26670000D01*
X4250986Y26640706D01*
X4024866Y26455134D01*
X3839294Y26229014D01*
X3808416Y26171244D01*
X3637588Y26400269D01*
X3421355Y26595178D01*
X3304477Y26664799D01*
X3369014Y26699294D01*
X3595134Y26884866D01*
X3780706Y27110986D01*
X3810000Y27165791D01*
X3839294Y27110986D01*
X3839294Y27110986D01*
G37*
X3839294Y27110986D02*
X4024866Y26884866D01*
X4250986Y26699294D01*
X4305791Y26670000D01*
X4250986Y26640706D01*
X4024866Y26455134D01*
X3839294Y26229014D01*
X3808416Y26171244D01*
X3637588Y26400269D01*
X3421355Y26595178D01*
X3304477Y26664799D01*
X3369014Y26699294D01*
X3595134Y26884866D01*
X3780706Y27110986D01*
X3810000Y27165791D01*
X3839294Y27110986D01*
G36*
X47019294Y27110986D02*
G01*
X47204866Y26884866D01*
X47430986Y26699294D01*
X47495523Y26664799D01*
X47378645Y26595178D01*
X47162412Y26400269D01*
X46991584Y26171244D01*
X46960706Y26229014D01*
X46775134Y26455134D01*
X46549014Y26640706D01*
X46494209Y26670000D01*
X46549014Y26699294D01*
X46775134Y26884866D01*
X46960706Y27110986D01*
X46990000Y27165791D01*
X47019294Y27110986D01*
X47019294Y27110986D01*
G37*
X47019294Y27110986D02*
X47204866Y26884866D01*
X47430986Y26699294D01*
X47495523Y26664799D01*
X47378645Y26595178D01*
X47162412Y26400269D01*
X46991584Y26171244D01*
X46960706Y26229014D01*
X46775134Y26455134D01*
X46549014Y26640706D01*
X46494209Y26670000D01*
X46549014Y26699294D01*
X46775134Y26884866D01*
X46960706Y27110986D01*
X46990000Y27165791D01*
X47019294Y27110986D01*
G36*
X3839294Y47430986D02*
G01*
X4024866Y47204866D01*
X4250986Y47019294D01*
X4305791Y46990000D01*
X4250986Y46960706D01*
X4024866Y46775134D01*
X3839294Y46549014D01*
X3810000Y46494209D01*
X3780706Y46549014D01*
X3595134Y46775134D01*
X3369014Y46960706D01*
X3304477Y46995201D01*
X3421355Y47064822D01*
X3637588Y47259731D01*
X3808416Y47488756D01*
X3839294Y47430986D01*
X3839294Y47430986D01*
G37*
X3839294Y47430986D02*
X4024866Y47204866D01*
X4250986Y47019294D01*
X4305791Y46990000D01*
X4250986Y46960706D01*
X4024866Y46775134D01*
X3839294Y46549014D01*
X3810000Y46494209D01*
X3780706Y46549014D01*
X3595134Y46775134D01*
X3369014Y46960706D01*
X3304477Y46995201D01*
X3421355Y47064822D01*
X3637588Y47259731D01*
X3808416Y47488756D01*
X3839294Y47430986D01*
G36*
X47162412Y47259731D02*
G01*
X47378645Y47064822D01*
X47495523Y46995201D01*
X47430986Y46960706D01*
X47204866Y46775134D01*
X47019294Y46549014D01*
X46990000Y46494209D01*
X46960706Y46549014D01*
X46775134Y46775134D01*
X46549014Y46960706D01*
X46494209Y46990000D01*
X46549014Y47019294D01*
X46775134Y47204866D01*
X46960706Y47430986D01*
X46991584Y47488756D01*
X47162412Y47259731D01*
X47162412Y47259731D01*
G37*
X47162412Y47259731D02*
X47378645Y47064822D01*
X47495523Y46995201D01*
X47430986Y46960706D01*
X47204866Y46775134D01*
X47019294Y46549014D01*
X46990000Y46494209D01*
X46960706Y46549014D01*
X46775134Y46775134D01*
X46549014Y46960706D01*
X46494209Y46990000D01*
X46549014Y47019294D01*
X46775134Y47204866D01*
X46960706Y47430986D01*
X46991584Y47488756D01*
X47162412Y47259731D01*
G36*
X48387000Y48387000D02*
G01*
X48407000Y48387000D01*
X48407000Y48133000D01*
X48387000Y48133000D01*
X48387000Y48113000D01*
X48133000Y48113000D01*
X48133000Y48133000D01*
X48113000Y48133000D01*
X48113000Y48387000D01*
X48133000Y48387000D01*
X48133000Y48407000D01*
X48387000Y48407000D01*
X48387000Y48387000D01*
X48387000Y48387000D01*
G37*
X48387000Y48387000D02*
X48407000Y48387000D01*
X48407000Y48133000D01*
X48387000Y48133000D01*
X48387000Y48113000D01*
X48133000Y48113000D01*
X48133000Y48133000D01*
X48113000Y48133000D01*
X48113000Y48387000D01*
X48133000Y48387000D01*
X48133000Y48407000D01*
X48387000Y48407000D01*
X48387000Y48387000D01*
G36*
X2667000Y48387000D02*
G01*
X2687000Y48387000D01*
X2687000Y48133000D01*
X2667000Y48133000D01*
X2667000Y48113000D01*
X2413000Y48113000D01*
X2413000Y48133000D01*
X2393000Y48133000D01*
X2393000Y48387000D01*
X2413000Y48387000D01*
X2413000Y48407000D01*
X2667000Y48407000D01*
X2667000Y48387000D01*
X2667000Y48387000D01*
G37*
X2667000Y48387000D02*
X2687000Y48387000D01*
X2687000Y48133000D01*
X2667000Y48133000D01*
X2667000Y48113000D01*
X2413000Y48113000D01*
X2413000Y48133000D01*
X2393000Y48133000D01*
X2393000Y48387000D01*
X2413000Y48387000D01*
X2413000Y48407000D01*
X2667000Y48407000D01*
X2667000Y48387000D01*
G36*
X47019294Y49970986D02*
G01*
X47204866Y49744866D01*
X47430986Y49559294D01*
X47495523Y49524799D01*
X47378645Y49455178D01*
X47162412Y49260269D01*
X46991584Y49031244D01*
X46960706Y49089014D01*
X46775134Y49315134D01*
X46549014Y49500706D01*
X46494209Y49530000D01*
X46549014Y49559294D01*
X46775134Y49744866D01*
X46960706Y49970986D01*
X46990000Y50025791D01*
X47019294Y49970986D01*
X47019294Y49970986D01*
G37*
X47019294Y49970986D02*
X47204866Y49744866D01*
X47430986Y49559294D01*
X47495523Y49524799D01*
X47378645Y49455178D01*
X47162412Y49260269D01*
X46991584Y49031244D01*
X46960706Y49089014D01*
X46775134Y49315134D01*
X46549014Y49500706D01*
X46494209Y49530000D01*
X46549014Y49559294D01*
X46775134Y49744866D01*
X46960706Y49970986D01*
X46990000Y50025791D01*
X47019294Y49970986D01*
G36*
X3839294Y49970986D02*
G01*
X4024866Y49744866D01*
X4250986Y49559294D01*
X4305791Y49530000D01*
X4250986Y49500706D01*
X4024866Y49315134D01*
X3839294Y49089014D01*
X3808416Y49031244D01*
X3637588Y49260269D01*
X3421355Y49455178D01*
X3304477Y49524799D01*
X3369014Y49559294D01*
X3595134Y49744866D01*
X3780706Y49970986D01*
X3810000Y50025791D01*
X3839294Y49970986D01*
X3839294Y49970986D01*
G37*
X3839294Y49970986D02*
X4024866Y49744866D01*
X4250986Y49559294D01*
X4305791Y49530000D01*
X4250986Y49500706D01*
X4024866Y49315134D01*
X3839294Y49089014D01*
X3808416Y49031244D01*
X3637588Y49260269D01*
X3421355Y49455178D01*
X3304477Y49524799D01*
X3369014Y49559294D01*
X3595134Y49744866D01*
X3780706Y49970986D01*
X3810000Y50025791D01*
X3839294Y49970986D01*
M02*
