M48
; DRILL file {KiCad 5.1.4-e60b266~84~ubuntu18.04.1} date Sun 22 Sep 2019 15:50:54 BST
; FORMAT={-:-/ absolute / inch / decimal}
; #@! TF.CreationDate,2019-09-22T15:50:54+01:00
; #@! TF.GenerationSoftware,Kicad,Pcbnew,5.1.4-e60b266~84~ubuntu18.04.1
FMAT,2
INCH
T1C0.0118
T2C0.0157
T3C0.0354
T4C0.0394
T5C0.0512
%
G90
G05
T1
X0.525Y1.05
X0.775Y2.325
X0.775Y2.275
X0.775Y2.175
X0.775Y2.075
X0.775Y1.975
X0.775Y1.5
X0.775Y1.45
X0.775Y1.4
X0.775Y1.35
X0.775Y1.3
X0.775Y1.075
X0.775Y0.975
X0.775Y0.9
X0.775Y0.8
X0.775Y0.575
X0.775Y0.525
X0.7759Y1.5509
X0.8Y1.6
X0.8Y1.25
X0.875Y1.025
X1.02Y0.425
X1.025Y0.475
X1.025Y0.175
X1.125Y0.175
X1.2Y1.825
X1.2Y1.775
X1.225Y2.35
X1.225Y2.3
X1.225Y2.25
X1.225Y2.2
X1.225Y2.15
X1.225Y2.1
X1.225Y2.0
X1.225Y1.925
X1.225Y1.8
X1.225Y1.2
X1.225Y1.15
X1.225Y0.875
X1.225Y0.825
X1.225Y0.775
X1.225Y0.725
X1.225Y0.675
X1.225Y0.625
T2
X0.39Y1.7
X0.4Y2.025
X0.4Y1.05
X0.425Y2.425
X0.425Y0.975
X0.45Y0.35
X0.52Y1.82
X0.52Y1.78
X0.68Y1.85
X0.68Y1.75
X0.7Y1.44
X0.7Y1.36
X0.72Y1.85
X0.72Y1.75
X0.775Y2.425
X0.775Y2.375
X0.825Y0.15
X0.925Y1.7
X0.925Y1.65
X0.925Y0.975
X0.925Y0.925
X0.95Y2.275
X0.95Y1.99
X0.95Y1.3
X0.95Y0.55
X1.05Y2.275
X1.05Y1.55
X1.05Y0.85
X1.075Y1.925
X1.075Y1.875
X1.075Y1.2
X1.075Y1.15
X1.075Y0.475
X1.075Y0.425
X1.075Y0.35
X1.075Y0.175
X1.28Y1.05
X1.28Y0.95
X1.32Y1.05
X1.32Y0.95
X1.5Y1.05
X1.54Y1.05
X1.575Y1.875
X1.575Y1.15
X1.575Y0.425
X1.585Y1.6
X1.6Y1.8
X1.6Y0.825
X1.675Y2.32
T3
X0.725Y2.925
X0.825Y2.925
X0.925Y2.925
X1.025Y2.925
X0.525Y2.925
X0.625Y2.925
T4
X0.1675Y2.925
X0.3447Y2.925
X1.6478Y2.925
X1.825Y2.925
X1.8Y2.4
X1.8Y2.3
X1.8Y2.2
X1.8Y2.1
X1.8Y2.0
X1.8Y1.9
X1.8Y1.8
X1.8Y1.7
X1.8Y1.6
X1.8Y1.5
X1.8Y1.4
X1.8Y1.3
X1.8Y1.2
X1.8Y1.1
X1.8Y1.0
X1.8Y0.9
X1.8Y0.8
X1.8Y0.7
X1.8Y0.6
X1.8Y0.5
X1.9Y2.4
X1.9Y2.3
X1.9Y2.2
X1.9Y2.1
X1.9Y2.0
X1.9Y1.9
X1.9Y1.8
X1.9Y1.7
X1.9Y1.6
X1.9Y1.5
X1.9Y1.4
X1.9Y1.3
X1.9Y1.2
X1.9Y1.1
X1.9Y1.0
X1.9Y0.9
X1.9Y0.8
X1.9Y0.7
X1.9Y0.6
X1.9Y0.5
X0.475Y0.25
X0.475Y0.15
X0.1Y2.4
X0.1Y2.3
X0.1Y2.2
X0.1Y2.1
X0.1Y2.0
X0.1Y1.9
X0.1Y1.8
X0.1Y1.7
X0.1Y1.6
X0.1Y1.5
X0.1Y1.4
X0.1Y1.3
X0.1Y1.2
X0.1Y1.1
X0.1Y1.0
X0.1Y0.9
X0.1Y0.8
X0.1Y0.7
X0.1Y0.6
X0.1Y0.5
X0.2Y2.4
X0.2Y2.3
X0.2Y2.2
X0.2Y2.1
X0.2Y2.0
X0.2Y1.9
X0.2Y1.8
X0.2Y1.7
X0.2Y1.6
X0.2Y1.5
X0.2Y1.4
X0.2Y1.3
X0.2Y1.2
X0.2Y1.1
X0.2Y1.0
X0.2Y0.9
X0.2Y0.8
X0.2Y0.7
X0.2Y0.6
X0.2Y0.5
X1.55Y0.35
X1.55Y0.25
X1.55Y0.15
T5
X0.1183Y2.8266
X0.3939Y2.8266
X1.5986Y2.8266
X1.8742Y2.8266
T0
M30
