G04 #@! TF.GenerationSoftware,KiCad,Pcbnew,5.1.4-e60b266~84~ubuntu18.04.1*
G04 #@! TF.CreationDate,2019-09-22T15:50:52+01:00*
G04 #@! TF.ProjectId,z80_adapter,7a38305f-6164-4617-9074-65722e6b6963,rev?*
G04 #@! TF.SameCoordinates,PX9fdfbc0PY791ddc0*
G04 #@! TF.FileFunction,Soldermask,Top*
G04 #@! TF.FilePolarity,Negative*
%FSLAX46Y46*%
G04 Gerber Fmt 4.6, Leading zero omitted, Abs format (unit mm)*
G04 Created by KiCad (PCBNEW 5.1.4-e60b266~84~ubuntu18.04.1) date 2019-09-22 15:50:52*
%MOMM*%
%LPD*%
G04 APERTURE LIST*
%ADD10C,0.100000*%
G04 APERTURE END LIST*
D10*
X42299500Y74295000D02*
G75*
G03X42299500Y74295000I-444500J0D01*
G01*
X46799500Y74295000D02*
G75*
G03X46799500Y74295000I-444500J0D01*
G01*
X48240000Y71795000D02*
G75*
G03X48240000Y71795000I-635000J0D01*
G01*
X41240000Y71795000D02*
G75*
G03X41240000Y71795000I-635000J0D01*
G01*
X4699000Y74295000D02*
G75*
G03X4699000Y74295000I-444500J0D01*
G01*
X9199000Y74295000D02*
G75*
G03X9199000Y74295000I-444500J0D01*
G01*
X10639500Y71795000D02*
G75*
G03X10639500Y71795000I-635000J0D01*
G01*
X3639500Y71795000D02*
G75*
G03X3639500Y71795000I-635000J0D01*
G01*
G36*
X40420000Y2760000D02*
G01*
X38320000Y2760000D01*
X38320000Y4860000D01*
X40420000Y4860000D01*
X40420000Y2760000D01*
X40420000Y2760000D01*
G37*
G36*
X12193707Y4852404D02*
G01*
X12270836Y4844807D01*
X12468762Y4784767D01*
X12468765Y4784766D01*
X12651170Y4687268D01*
X12811055Y4556055D01*
X12942268Y4396170D01*
X13039766Y4213765D01*
X13039767Y4213762D01*
X13099807Y4015836D01*
X13120080Y3810000D01*
X13099807Y3604164D01*
X13039767Y3406238D01*
X13039766Y3406235D01*
X12942268Y3223830D01*
X12811055Y3063945D01*
X12651170Y2932732D01*
X12468765Y2835234D01*
X12468762Y2835233D01*
X12270836Y2775193D01*
X12193707Y2767596D01*
X12116580Y2760000D01*
X12013420Y2760000D01*
X11936293Y2767596D01*
X11859164Y2775193D01*
X11661238Y2835233D01*
X11661235Y2835234D01*
X11478830Y2932732D01*
X11318945Y3063945D01*
X11187732Y3223830D01*
X11090234Y3406235D01*
X11090233Y3406238D01*
X11030193Y3604164D01*
X11009920Y3810000D01*
X11030193Y4015836D01*
X11090233Y4213762D01*
X11090234Y4213765D01*
X11187732Y4396170D01*
X11318945Y4556055D01*
X11478830Y4687268D01*
X11661235Y4784766D01*
X11661238Y4784767D01*
X11859164Y4844807D01*
X11936293Y4852404D01*
X12013420Y4860000D01*
X12116580Y4860000D01*
X12193707Y4852404D01*
X12193707Y4852404D01*
G37*
G36*
X24835529Y4704290D02*
G01*
X24885378Y4689169D01*
X24931310Y4664618D01*
X24971574Y4631574D01*
X25004618Y4591310D01*
X25029169Y4545378D01*
X25044290Y4495529D01*
X25050000Y4437556D01*
X25050000Y3182444D01*
X25044290Y3124471D01*
X25029169Y3074622D01*
X25004618Y3028690D01*
X24971574Y2988426D01*
X24931310Y2955382D01*
X24885378Y2930831D01*
X24835529Y2915710D01*
X24777556Y2910000D01*
X23772444Y2910000D01*
X23714471Y2915710D01*
X23664622Y2930831D01*
X23618690Y2955382D01*
X23578426Y2988426D01*
X23545382Y3028690D01*
X23520831Y3074622D01*
X23505710Y3124471D01*
X23500000Y3182444D01*
X23500000Y4437556D01*
X23505710Y4495529D01*
X23520831Y4545378D01*
X23545382Y4591310D01*
X23578426Y4631574D01*
X23618690Y4664618D01*
X23664622Y4689169D01*
X23714471Y4704290D01*
X23772444Y4710000D01*
X24777556Y4710000D01*
X24835529Y4704290D01*
X24835529Y4704290D01*
G37*
G36*
X22785529Y4704290D02*
G01*
X22835378Y4689169D01*
X22881310Y4664618D01*
X22921574Y4631574D01*
X22954618Y4591310D01*
X22979169Y4545378D01*
X22994290Y4495529D01*
X23000000Y4437556D01*
X23000000Y3182444D01*
X22994290Y3124471D01*
X22979169Y3074622D01*
X22954618Y3028690D01*
X22921574Y2988426D01*
X22881310Y2955382D01*
X22835378Y2930831D01*
X22785529Y2915710D01*
X22727556Y2910000D01*
X21722444Y2910000D01*
X21664471Y2915710D01*
X21614622Y2930831D01*
X21568690Y2955382D01*
X21528426Y2988426D01*
X21495382Y3028690D01*
X21470831Y3074622D01*
X21455710Y3124471D01*
X21450000Y3182444D01*
X21450000Y4437556D01*
X21455710Y4495529D01*
X21470831Y4545378D01*
X21495382Y4591310D01*
X21528426Y4631574D01*
X21568690Y4664618D01*
X21614622Y4689169D01*
X21664471Y4704290D01*
X21722444Y4710000D01*
X22727556Y4710000D01*
X22785529Y4704290D01*
X22785529Y4704290D01*
G37*
G36*
X13115000Y5300000D02*
G01*
X11015000Y5300000D01*
X11015000Y7400000D01*
X13115000Y7400000D01*
X13115000Y5300000D01*
X13115000Y5300000D01*
G37*
G36*
X39498707Y7392404D02*
G01*
X39575836Y7384807D01*
X39773762Y7324767D01*
X39773765Y7324766D01*
X39956170Y7227268D01*
X40116055Y7096055D01*
X40247268Y6936170D01*
X40344766Y6753765D01*
X40344767Y6753762D01*
X40404807Y6555836D01*
X40425080Y6350000D01*
X40404807Y6144164D01*
X40344767Y5946238D01*
X40344766Y5946235D01*
X40247268Y5763830D01*
X40116055Y5603945D01*
X39956170Y5472732D01*
X39773765Y5375234D01*
X39773762Y5375233D01*
X39575836Y5315193D01*
X39498707Y5307596D01*
X39421580Y5300000D01*
X39318420Y5300000D01*
X39241293Y5307596D01*
X39164164Y5315193D01*
X38966238Y5375233D01*
X38966235Y5375234D01*
X38783830Y5472732D01*
X38623945Y5603945D01*
X38492732Y5763830D01*
X38395234Y5946235D01*
X38395233Y5946238D01*
X38335193Y6144164D01*
X38314920Y6350000D01*
X38335193Y6555836D01*
X38395233Y6753762D01*
X38395234Y6753765D01*
X38492732Y6936170D01*
X38623945Y7096055D01*
X38783830Y7227268D01*
X38966235Y7324766D01*
X38966238Y7324767D01*
X39164164Y7384807D01*
X39241293Y7392404D01*
X39318420Y7400000D01*
X39421580Y7400000D01*
X39498707Y7392404D01*
X39498707Y7392404D01*
G37*
G36*
X44765529Y7244290D02*
G01*
X44815378Y7229169D01*
X44861310Y7204618D01*
X44901574Y7171574D01*
X44934618Y7131310D01*
X44959169Y7085378D01*
X44974290Y7035529D01*
X44980000Y6977556D01*
X44980000Y5722444D01*
X44974290Y5664471D01*
X44959169Y5614622D01*
X44934618Y5568690D01*
X44901574Y5528426D01*
X44861310Y5495382D01*
X44815378Y5470831D01*
X44765529Y5455710D01*
X44707556Y5450000D01*
X43702444Y5450000D01*
X43644471Y5455710D01*
X43594622Y5470831D01*
X43548690Y5495382D01*
X43508426Y5528426D01*
X43475382Y5568690D01*
X43450831Y5614622D01*
X43435710Y5664471D01*
X43430000Y5722444D01*
X43430000Y6977556D01*
X43435710Y7035529D01*
X43450831Y7085378D01*
X43475382Y7131310D01*
X43508426Y7171574D01*
X43548690Y7204618D01*
X43594622Y7229169D01*
X43644471Y7244290D01*
X43702444Y7250000D01*
X44707556Y7250000D01*
X44765529Y7244290D01*
X44765529Y7244290D01*
G37*
G36*
X42715529Y7244290D02*
G01*
X42765378Y7229169D01*
X42811310Y7204618D01*
X42851574Y7171574D01*
X42884618Y7131310D01*
X42909169Y7085378D01*
X42924290Y7035529D01*
X42930000Y6977556D01*
X42930000Y5722444D01*
X42924290Y5664471D01*
X42909169Y5614622D01*
X42884618Y5568690D01*
X42851574Y5528426D01*
X42811310Y5495382D01*
X42765378Y5470831D01*
X42715529Y5455710D01*
X42657556Y5450000D01*
X41652444Y5450000D01*
X41594471Y5455710D01*
X41544622Y5470831D01*
X41498690Y5495382D01*
X41458426Y5528426D01*
X41425382Y5568690D01*
X41400831Y5614622D01*
X41385710Y5664471D01*
X41380000Y5722444D01*
X41380000Y6977556D01*
X41385710Y7035529D01*
X41400831Y7085378D01*
X41425382Y7131310D01*
X41458426Y7171574D01*
X41498690Y7204618D01*
X41544622Y7229169D01*
X41594471Y7244290D01*
X41652444Y7250000D01*
X42657556Y7250000D01*
X42715529Y7244290D01*
X42715529Y7244290D01*
G37*
G36*
X39498707Y9932404D02*
G01*
X39575836Y9924807D01*
X39773762Y9864767D01*
X39773765Y9864766D01*
X39956170Y9767268D01*
X40116055Y9636055D01*
X40247268Y9476170D01*
X40344766Y9293765D01*
X40344767Y9293762D01*
X40404807Y9095836D01*
X40425080Y8890000D01*
X40404807Y8684164D01*
X40351900Y8509753D01*
X40344766Y8486235D01*
X40247268Y8303830D01*
X40116055Y8143945D01*
X39956170Y8012732D01*
X39773765Y7915234D01*
X39773762Y7915233D01*
X39575836Y7855193D01*
X39498707Y7847597D01*
X39421580Y7840000D01*
X39318420Y7840000D01*
X39241293Y7847597D01*
X39164164Y7855193D01*
X38966238Y7915233D01*
X38966235Y7915234D01*
X38783830Y8012732D01*
X38623945Y8143945D01*
X38492732Y8303830D01*
X38395234Y8486235D01*
X38388100Y8509753D01*
X38335193Y8684164D01*
X38314920Y8890000D01*
X38335193Y9095836D01*
X38395233Y9293762D01*
X38395234Y9293765D01*
X38492732Y9476170D01*
X38623945Y9636055D01*
X38783830Y9767268D01*
X38966235Y9864766D01*
X38966238Y9864767D01*
X39164164Y9924807D01*
X39241293Y9932404D01*
X39318420Y9940000D01*
X39421580Y9940000D01*
X39498707Y9932404D01*
X39498707Y9932404D01*
G37*
G36*
X44765529Y9784290D02*
G01*
X44815378Y9769169D01*
X44861310Y9744618D01*
X44901574Y9711574D01*
X44934618Y9671310D01*
X44959169Y9625378D01*
X44974290Y9575529D01*
X44980000Y9517556D01*
X44980000Y8262444D01*
X44974290Y8204471D01*
X44959169Y8154622D01*
X44934618Y8108690D01*
X44901574Y8068426D01*
X44861310Y8035382D01*
X44815378Y8010831D01*
X44765529Y7995710D01*
X44707556Y7990000D01*
X43702444Y7990000D01*
X43644471Y7995710D01*
X43594622Y8010831D01*
X43548690Y8035382D01*
X43508426Y8068426D01*
X43475382Y8108690D01*
X43450831Y8154622D01*
X43435710Y8204471D01*
X43430000Y8262444D01*
X43430000Y9517556D01*
X43435710Y9575529D01*
X43450831Y9625378D01*
X43475382Y9671310D01*
X43508426Y9711574D01*
X43548690Y9744618D01*
X43594622Y9769169D01*
X43644471Y9784290D01*
X43702444Y9790000D01*
X44707556Y9790000D01*
X44765529Y9784290D01*
X44765529Y9784290D01*
G37*
G36*
X42715529Y9784290D02*
G01*
X42765378Y9769169D01*
X42811310Y9744618D01*
X42851574Y9711574D01*
X42884618Y9671310D01*
X42909169Y9625378D01*
X42924290Y9575529D01*
X42930000Y9517556D01*
X42930000Y8262444D01*
X42924290Y8204471D01*
X42909169Y8154622D01*
X42884618Y8108690D01*
X42851574Y8068426D01*
X42811310Y8035382D01*
X42765378Y8010831D01*
X42715529Y7995710D01*
X42657556Y7990000D01*
X41652444Y7990000D01*
X41594471Y7995710D01*
X41544622Y8010831D01*
X41498690Y8035382D01*
X41458426Y8068426D01*
X41425382Y8108690D01*
X41400831Y8154622D01*
X41385710Y8204471D01*
X41380000Y8262444D01*
X41380000Y9517556D01*
X41385710Y9575529D01*
X41400831Y9625378D01*
X41425382Y9671310D01*
X41458426Y9711574D01*
X41498690Y9744618D01*
X41544622Y9769169D01*
X41594471Y9784290D01*
X41652444Y9790000D01*
X42657556Y9790000D01*
X42715529Y9784290D01*
X42715529Y9784290D01*
G37*
G36*
X8686529Y9904290D02*
G01*
X8736378Y9889169D01*
X8782310Y9864618D01*
X8822574Y9831574D01*
X8855618Y9791310D01*
X8880169Y9745378D01*
X8895290Y9695529D01*
X8901000Y9637556D01*
X8901000Y8632444D01*
X8895290Y8574471D01*
X8880169Y8524622D01*
X8855618Y8478690D01*
X8822574Y8438426D01*
X8782310Y8405382D01*
X8736378Y8380831D01*
X8686529Y8365710D01*
X8628556Y8360000D01*
X7373444Y8360000D01*
X7315471Y8365710D01*
X7265622Y8380831D01*
X7219690Y8405382D01*
X7179426Y8438426D01*
X7146382Y8478690D01*
X7121831Y8524622D01*
X7106710Y8574471D01*
X7101000Y8632444D01*
X7101000Y9637556D01*
X7106710Y9695529D01*
X7121831Y9745378D01*
X7146382Y9791310D01*
X7179426Y9831574D01*
X7219690Y9864618D01*
X7265622Y9889169D01*
X7315471Y9904290D01*
X7373444Y9910000D01*
X8628556Y9910000D01*
X8686529Y9904290D01*
X8686529Y9904290D01*
G37*
G36*
X10845529Y9904290D02*
G01*
X10895378Y9889169D01*
X10941310Y9864618D01*
X10981574Y9831574D01*
X11014618Y9791310D01*
X11039169Y9745378D01*
X11054290Y9695529D01*
X11060000Y9637556D01*
X11060000Y8632444D01*
X11054290Y8574471D01*
X11039169Y8524622D01*
X11014618Y8478690D01*
X10981574Y8438426D01*
X10941310Y8405382D01*
X10895378Y8380831D01*
X10845529Y8365710D01*
X10787556Y8360000D01*
X9532444Y8360000D01*
X9474471Y8365710D01*
X9424622Y8380831D01*
X9378690Y8405382D01*
X9338426Y8438426D01*
X9305382Y8478690D01*
X9280831Y8524622D01*
X9265710Y8574471D01*
X9260000Y8632444D01*
X9260000Y9637556D01*
X9265710Y9695529D01*
X9280831Y9745378D01*
X9305382Y9791310D01*
X9338426Y9831574D01*
X9378690Y9864618D01*
X9424622Y9889169D01*
X9474471Y9904290D01*
X9532444Y9910000D01*
X10787556Y9910000D01*
X10845529Y9904290D01*
X10845529Y9904290D01*
G37*
G36*
X24815529Y11564290D02*
G01*
X24865378Y11549169D01*
X24911310Y11524618D01*
X24951574Y11491574D01*
X24984618Y11451310D01*
X25009169Y11405378D01*
X25024290Y11355529D01*
X25030000Y11297556D01*
X25030000Y10292444D01*
X25024290Y10234471D01*
X25009169Y10184622D01*
X24984618Y10138690D01*
X24951574Y10098426D01*
X24911310Y10065382D01*
X24865378Y10040831D01*
X24815529Y10025710D01*
X24757556Y10020000D01*
X23502444Y10020000D01*
X23444471Y10025710D01*
X23394622Y10040831D01*
X23348690Y10065382D01*
X23308426Y10098426D01*
X23275382Y10138690D01*
X23250831Y10184623D01*
X23244260Y10206285D01*
X23234883Y10228924D01*
X23221270Y10249298D01*
X23203943Y10266625D01*
X23183569Y10280239D01*
X23160930Y10289617D01*
X23136897Y10294398D01*
X23124643Y10295000D01*
X20645000Y10295000D01*
X20645000Y11295000D01*
X23124643Y11295000D01*
X23149029Y11297402D01*
X23172478Y11304515D01*
X23194089Y11316066D01*
X23213031Y11331611D01*
X23228576Y11350553D01*
X23240127Y11372164D01*
X23244260Y11383717D01*
X23250327Y11403719D01*
X23255107Y11427752D01*
X23255107Y11428238D01*
X23258387Y11430930D01*
X23267411Y11441925D01*
X23267572Y11441793D01*
X23308426Y11491574D01*
X23348690Y11524618D01*
X23394622Y11549169D01*
X23444471Y11564290D01*
X23502444Y11570000D01*
X24757556Y11570000D01*
X24815529Y11564290D01*
X24815529Y11564290D01*
G37*
G36*
X39555000Y10295000D02*
G01*
X37155000Y10295000D01*
X37155000Y11295000D01*
X39555000Y11295000D01*
X39555000Y10295000D01*
X39555000Y10295000D01*
G37*
G36*
X30155000Y10295000D02*
G01*
X27755000Y10295000D01*
X27755000Y11295000D01*
X30155000Y11295000D01*
X30155000Y10295000D01*
X30155000Y10295000D01*
G37*
G36*
X13645000Y11565000D02*
G01*
X11184999Y11565000D01*
X11160613Y11562598D01*
X11137164Y11555485D01*
X11115553Y11543934D01*
X11096611Y11528389D01*
X11081066Y11509447D01*
X11069515Y11487836D01*
X11062402Y11464387D01*
X11060000Y11440001D01*
X11060000Y11419999D01*
X11062402Y11395613D01*
X11069515Y11372164D01*
X11081066Y11350553D01*
X11096611Y11331611D01*
X11115553Y11316066D01*
X11137164Y11304515D01*
X11160613Y11297402D01*
X11184999Y11295000D01*
X13645000Y11295000D01*
X13645000Y10295000D01*
X11245000Y10295000D01*
X11245000Y10460682D01*
X11242598Y10485068D01*
X11235485Y10508517D01*
X11223934Y10530128D01*
X11208389Y10549070D01*
X11189447Y10564615D01*
X11167836Y10576166D01*
X11144387Y10583279D01*
X11120001Y10585681D01*
X11095615Y10583279D01*
X11072166Y10576166D01*
X11050555Y10564615D01*
X11031613Y10549070D01*
X11022589Y10538075D01*
X11022428Y10538207D01*
X10981574Y10488426D01*
X10941310Y10455382D01*
X10895378Y10430831D01*
X10845529Y10415710D01*
X10787556Y10410000D01*
X9532444Y10410000D01*
X9474471Y10415710D01*
X9424622Y10430831D01*
X9378690Y10455382D01*
X9338426Y10488426D01*
X9305382Y10528690D01*
X9280831Y10574622D01*
X9265710Y10624471D01*
X9260000Y10682444D01*
X9260000Y11687556D01*
X9265710Y11745529D01*
X9280831Y11795378D01*
X9305382Y11841310D01*
X9338426Y11881574D01*
X9378690Y11914618D01*
X9424622Y11939169D01*
X9474471Y11954290D01*
X9532444Y11960000D01*
X10787556Y11960000D01*
X10845529Y11954290D01*
X10895378Y11939169D01*
X10941310Y11914618D01*
X10981574Y11881574D01*
X11021146Y11833355D01*
X11023368Y11830029D01*
X11040693Y11812700D01*
X11061066Y11799084D01*
X11083704Y11789705D01*
X11107737Y11784922D01*
X11132241Y11784920D01*
X11156275Y11789698D01*
X11178914Y11799073D01*
X11199290Y11812685D01*
X11216619Y11830010D01*
X11230235Y11850383D01*
X11239614Y11873021D01*
X11244397Y11897054D01*
X11245000Y11909318D01*
X11245000Y12565000D01*
X13645000Y12565000D01*
X13645000Y11565000D01*
X13645000Y11565000D01*
G37*
G36*
X8686529Y11954290D02*
G01*
X8736378Y11939169D01*
X8782310Y11914618D01*
X8822574Y11881574D01*
X8855618Y11841310D01*
X8880169Y11795378D01*
X8895290Y11745529D01*
X8901000Y11687556D01*
X8901000Y10682444D01*
X8895290Y10624471D01*
X8880169Y10574622D01*
X8855618Y10528690D01*
X8822574Y10488426D01*
X8782310Y10455382D01*
X8736378Y10430831D01*
X8686529Y10415710D01*
X8628556Y10410000D01*
X7373444Y10410000D01*
X7315471Y10415710D01*
X7265622Y10430831D01*
X7219690Y10455382D01*
X7179426Y10488426D01*
X7146382Y10528690D01*
X7121831Y10574622D01*
X7106710Y10624471D01*
X7101000Y10682444D01*
X7101000Y11687556D01*
X7106710Y11745529D01*
X7121831Y11795378D01*
X7146382Y11841310D01*
X7179426Y11881574D01*
X7219690Y11914618D01*
X7265622Y11939169D01*
X7315471Y11954290D01*
X7373444Y11960000D01*
X8628556Y11960000D01*
X8686529Y11954290D01*
X8686529Y11954290D01*
G37*
G36*
X23045000Y13569318D02*
G01*
X23047402Y13544932D01*
X23054515Y13521483D01*
X23066066Y13499872D01*
X23081611Y13480930D01*
X23100553Y13465385D01*
X23122164Y13453834D01*
X23145613Y13446721D01*
X23169999Y13444319D01*
X23194385Y13446721D01*
X23217834Y13453834D01*
X23239445Y13465385D01*
X23258387Y13480930D01*
X23267411Y13491925D01*
X23267572Y13491793D01*
X23308426Y13541574D01*
X23348690Y13574618D01*
X23394622Y13599169D01*
X23444471Y13614290D01*
X23502444Y13620000D01*
X24757556Y13620000D01*
X24815529Y13614290D01*
X24865378Y13599169D01*
X24911310Y13574618D01*
X24951574Y13541574D01*
X24984618Y13501310D01*
X25009169Y13455378D01*
X25024290Y13405529D01*
X25030000Y13347556D01*
X25030000Y12342444D01*
X25024290Y12284471D01*
X25009169Y12234622D01*
X24984618Y12188690D01*
X24951574Y12148426D01*
X24911310Y12115382D01*
X24865378Y12090831D01*
X24815529Y12075710D01*
X24757556Y12070000D01*
X23502444Y12070000D01*
X23444471Y12075710D01*
X23394622Y12090831D01*
X23348690Y12115382D01*
X23308426Y12148426D01*
X23268854Y12196645D01*
X23266632Y12199971D01*
X23249307Y12217300D01*
X23228934Y12230916D01*
X23206296Y12240295D01*
X23182263Y12245078D01*
X23157759Y12245080D01*
X23133725Y12240302D01*
X23111086Y12230927D01*
X23090710Y12217315D01*
X23073381Y12199990D01*
X23059765Y12179617D01*
X23050386Y12156979D01*
X23045603Y12132946D01*
X23045000Y12120682D01*
X23045000Y11565000D01*
X20645000Y11565000D01*
X20645000Y12565000D01*
X23105001Y12565000D01*
X23129387Y12567402D01*
X23152836Y12574515D01*
X23174447Y12586066D01*
X23193389Y12601611D01*
X23208934Y12620553D01*
X23220485Y12642164D01*
X23227598Y12665613D01*
X23230000Y12689999D01*
X23230000Y12710001D01*
X23227598Y12734387D01*
X23220485Y12757836D01*
X23208934Y12779447D01*
X23193389Y12798389D01*
X23174447Y12813934D01*
X23152836Y12825485D01*
X23129387Y12832598D01*
X23105001Y12835000D01*
X20645000Y12835000D01*
X20645000Y13835000D01*
X23045000Y13835000D01*
X23045000Y13569318D01*
X23045000Y13569318D01*
G37*
G36*
X39555000Y11565000D02*
G01*
X37155000Y11565000D01*
X37155000Y12565000D01*
X39555000Y12565000D01*
X39555000Y11565000D01*
X39555000Y11565000D01*
G37*
G36*
X30155000Y11565000D02*
G01*
X27755000Y11565000D01*
X27755000Y12565000D01*
X30155000Y12565000D01*
X30155000Y11565000D01*
X30155000Y11565000D01*
G37*
G36*
X5208707Y13742404D02*
G01*
X5285836Y13734807D01*
X5483762Y13674767D01*
X5483765Y13674766D01*
X5666170Y13577268D01*
X5826055Y13446055D01*
X5957268Y13286170D01*
X6054766Y13103765D01*
X6054767Y13103762D01*
X6114807Y12905836D01*
X6135080Y12700000D01*
X6114807Y12494164D01*
X6068783Y12342444D01*
X6054766Y12296235D01*
X5957268Y12113830D01*
X5826055Y11953945D01*
X5666170Y11822732D01*
X5483765Y11725234D01*
X5483762Y11725233D01*
X5285836Y11665193D01*
X5208707Y11657597D01*
X5131580Y11650000D01*
X5028420Y11650000D01*
X4951293Y11657597D01*
X4874164Y11665193D01*
X4676238Y11725233D01*
X4676235Y11725234D01*
X4493830Y11822732D01*
X4333945Y11953945D01*
X4202732Y12113830D01*
X4105234Y12296235D01*
X4091217Y12342444D01*
X4045193Y12494164D01*
X4024920Y12700000D01*
X4045193Y12905836D01*
X4105233Y13103762D01*
X4105234Y13103765D01*
X4202732Y13286170D01*
X4333945Y13446055D01*
X4493830Y13577268D01*
X4676235Y13674766D01*
X4676238Y13674767D01*
X4874164Y13734807D01*
X4951293Y13742404D01*
X5028420Y13750000D01*
X5131580Y13750000D01*
X5208707Y13742404D01*
X5208707Y13742404D01*
G37*
G36*
X2668707Y13742404D02*
G01*
X2745836Y13734807D01*
X2943762Y13674767D01*
X2943765Y13674766D01*
X3126170Y13577268D01*
X3286055Y13446055D01*
X3417268Y13286170D01*
X3514766Y13103765D01*
X3514767Y13103762D01*
X3574807Y12905836D01*
X3595080Y12700000D01*
X3574807Y12494164D01*
X3528783Y12342444D01*
X3514766Y12296235D01*
X3417268Y12113830D01*
X3286055Y11953945D01*
X3126170Y11822732D01*
X2943765Y11725234D01*
X2943762Y11725233D01*
X2745836Y11665193D01*
X2668707Y11657597D01*
X2591580Y11650000D01*
X2488420Y11650000D01*
X2411293Y11657597D01*
X2334164Y11665193D01*
X2136238Y11725233D01*
X2136235Y11725234D01*
X1953830Y11822732D01*
X1793945Y11953945D01*
X1662732Y12113830D01*
X1565234Y12296235D01*
X1551217Y12342444D01*
X1505193Y12494164D01*
X1484920Y12700000D01*
X1505193Y12905836D01*
X1565233Y13103762D01*
X1565234Y13103765D01*
X1662732Y13286170D01*
X1793945Y13446055D01*
X1953830Y13577268D01*
X2136235Y13674766D01*
X2136238Y13674767D01*
X2334164Y13734807D01*
X2411293Y13742404D01*
X2488420Y13750000D01*
X2591580Y13750000D01*
X2668707Y13742404D01*
X2668707Y13742404D01*
G37*
G36*
X48388707Y13742404D02*
G01*
X48465836Y13734807D01*
X48663762Y13674767D01*
X48663765Y13674766D01*
X48846170Y13577268D01*
X49006055Y13446055D01*
X49137268Y13286170D01*
X49234766Y13103765D01*
X49234767Y13103762D01*
X49294807Y12905836D01*
X49315080Y12700000D01*
X49294807Y12494164D01*
X49248783Y12342444D01*
X49234766Y12296235D01*
X49137268Y12113830D01*
X49006055Y11953945D01*
X48846170Y11822732D01*
X48663765Y11725234D01*
X48663762Y11725233D01*
X48465836Y11665193D01*
X48388707Y11657597D01*
X48311580Y11650000D01*
X48208420Y11650000D01*
X48131293Y11657597D01*
X48054164Y11665193D01*
X47856238Y11725233D01*
X47856235Y11725234D01*
X47673830Y11822732D01*
X47513945Y11953945D01*
X47382732Y12113830D01*
X47285234Y12296235D01*
X47271217Y12342444D01*
X47225193Y12494164D01*
X47204920Y12700000D01*
X47225193Y12905836D01*
X47285233Y13103762D01*
X47285234Y13103765D01*
X47382732Y13286170D01*
X47513945Y13446055D01*
X47673830Y13577268D01*
X47856235Y13674766D01*
X47856238Y13674767D01*
X48054164Y13734807D01*
X48131293Y13742404D01*
X48208420Y13750000D01*
X48311580Y13750000D01*
X48388707Y13742404D01*
X48388707Y13742404D01*
G37*
G36*
X46770000Y11650000D02*
G01*
X44670000Y11650000D01*
X44670000Y13750000D01*
X46770000Y13750000D01*
X46770000Y11650000D01*
X46770000Y11650000D01*
G37*
G36*
X30155000Y12835000D02*
G01*
X27755000Y12835000D01*
X27755000Y13835000D01*
X30155000Y13835000D01*
X30155000Y12835000D01*
X30155000Y12835000D01*
G37*
G36*
X13645000Y12835000D02*
G01*
X11245000Y12835000D01*
X11245000Y13835000D01*
X13645000Y13835000D01*
X13645000Y12835000D01*
X13645000Y12835000D01*
G37*
G36*
X39555000Y12835000D02*
G01*
X37155000Y12835000D01*
X37155000Y13835000D01*
X39555000Y13835000D01*
X39555000Y12835000D01*
X39555000Y12835000D01*
G37*
G36*
X23045000Y14105000D02*
G01*
X20645000Y14105000D01*
X20645000Y15105000D01*
X23045000Y15105000D01*
X23045000Y14105000D01*
X23045000Y14105000D01*
G37*
G36*
X39555000Y14105000D02*
G01*
X37155000Y14105000D01*
X37155000Y15105000D01*
X39555000Y15105000D01*
X39555000Y14105000D01*
X39555000Y14105000D01*
G37*
G36*
X30155000Y14105000D02*
G01*
X27755000Y14105000D01*
X27755000Y15105000D01*
X30155000Y15105000D01*
X30155000Y14105000D01*
X30155000Y14105000D01*
G37*
G36*
X13645000Y14105000D02*
G01*
X11245000Y14105000D01*
X11245000Y15105000D01*
X13645000Y15105000D01*
X13645000Y14105000D01*
X13645000Y14105000D01*
G37*
G36*
X2668707Y16282404D02*
G01*
X2745836Y16274807D01*
X2943762Y16214767D01*
X2943765Y16214766D01*
X3126170Y16117268D01*
X3286055Y15986055D01*
X3417268Y15826170D01*
X3514766Y15643765D01*
X3514767Y15643762D01*
X3574807Y15445836D01*
X3595080Y15240000D01*
X3574807Y15034164D01*
X3514767Y14836238D01*
X3514766Y14836235D01*
X3417268Y14653830D01*
X3286055Y14493945D01*
X3126170Y14362732D01*
X2943765Y14265234D01*
X2943762Y14265233D01*
X2745836Y14205193D01*
X2668707Y14197597D01*
X2591580Y14190000D01*
X2488420Y14190000D01*
X2411293Y14197597D01*
X2334164Y14205193D01*
X2136238Y14265233D01*
X2136235Y14265234D01*
X1953830Y14362732D01*
X1793945Y14493945D01*
X1662732Y14653830D01*
X1565234Y14836235D01*
X1565233Y14836238D01*
X1505193Y15034164D01*
X1484920Y15240000D01*
X1505193Y15445836D01*
X1565233Y15643762D01*
X1565234Y15643765D01*
X1662732Y15826170D01*
X1793945Y15986055D01*
X1953830Y16117268D01*
X2136235Y16214766D01*
X2136238Y16214767D01*
X2334164Y16274807D01*
X2411293Y16282404D01*
X2488420Y16290000D01*
X2591580Y16290000D01*
X2668707Y16282404D01*
X2668707Y16282404D01*
G37*
G36*
X45848707Y16282404D02*
G01*
X45925836Y16274807D01*
X46123762Y16214767D01*
X46123765Y16214766D01*
X46306170Y16117268D01*
X46466055Y15986055D01*
X46597268Y15826170D01*
X46694766Y15643765D01*
X46694767Y15643762D01*
X46754807Y15445836D01*
X46775080Y15240000D01*
X46754807Y15034164D01*
X46694767Y14836238D01*
X46694766Y14836235D01*
X46597268Y14653830D01*
X46466055Y14493945D01*
X46306170Y14362732D01*
X46123765Y14265234D01*
X46123762Y14265233D01*
X45925836Y14205193D01*
X45848707Y14197597D01*
X45771580Y14190000D01*
X45668420Y14190000D01*
X45591293Y14197597D01*
X45514164Y14205193D01*
X45316238Y14265233D01*
X45316235Y14265234D01*
X45133830Y14362732D01*
X44973945Y14493945D01*
X44842732Y14653830D01*
X44745234Y14836235D01*
X44745233Y14836238D01*
X44685193Y15034164D01*
X44664920Y15240000D01*
X44685193Y15445836D01*
X44745233Y15643762D01*
X44745234Y15643765D01*
X44842732Y15826170D01*
X44973945Y15986055D01*
X45133830Y16117268D01*
X45316235Y16214766D01*
X45316238Y16214767D01*
X45514164Y16274807D01*
X45591293Y16282404D01*
X45668420Y16290000D01*
X45771580Y16290000D01*
X45848707Y16282404D01*
X45848707Y16282404D01*
G37*
G36*
X48388707Y16282404D02*
G01*
X48465836Y16274807D01*
X48663762Y16214767D01*
X48663765Y16214766D01*
X48846170Y16117268D01*
X49006055Y15986055D01*
X49137268Y15826170D01*
X49234766Y15643765D01*
X49234767Y15643762D01*
X49294807Y15445836D01*
X49315080Y15240000D01*
X49294807Y15034164D01*
X49234767Y14836238D01*
X49234766Y14836235D01*
X49137268Y14653830D01*
X49006055Y14493945D01*
X48846170Y14362732D01*
X48663765Y14265234D01*
X48663762Y14265233D01*
X48465836Y14205193D01*
X48388707Y14197597D01*
X48311580Y14190000D01*
X48208420Y14190000D01*
X48131293Y14197597D01*
X48054164Y14205193D01*
X47856238Y14265233D01*
X47856235Y14265234D01*
X47673830Y14362732D01*
X47513945Y14493945D01*
X47382732Y14653830D01*
X47285234Y14836235D01*
X47285233Y14836238D01*
X47225193Y15034164D01*
X47204920Y15240000D01*
X47225193Y15445836D01*
X47285233Y15643762D01*
X47285234Y15643765D01*
X47382732Y15826170D01*
X47513945Y15986055D01*
X47673830Y16117268D01*
X47856235Y16214766D01*
X47856238Y16214767D01*
X48054164Y16274807D01*
X48131293Y16282404D01*
X48208420Y16290000D01*
X48311580Y16290000D01*
X48388707Y16282404D01*
X48388707Y16282404D01*
G37*
G36*
X5208707Y16282404D02*
G01*
X5285836Y16274807D01*
X5483762Y16214767D01*
X5483765Y16214766D01*
X5666170Y16117268D01*
X5826055Y15986055D01*
X5957268Y15826170D01*
X6054766Y15643765D01*
X6054767Y15643762D01*
X6114807Y15445836D01*
X6135080Y15240000D01*
X6114807Y15034164D01*
X6054767Y14836238D01*
X6054766Y14836235D01*
X5957268Y14653830D01*
X5826055Y14493945D01*
X5666170Y14362732D01*
X5483765Y14265234D01*
X5483762Y14265233D01*
X5285836Y14205193D01*
X5208707Y14197597D01*
X5131580Y14190000D01*
X5028420Y14190000D01*
X4951293Y14197597D01*
X4874164Y14205193D01*
X4676238Y14265233D01*
X4676235Y14265234D01*
X4493830Y14362732D01*
X4333945Y14493945D01*
X4202732Y14653830D01*
X4105234Y14836235D01*
X4105233Y14836238D01*
X4045193Y15034164D01*
X4024920Y15240000D01*
X4045193Y15445836D01*
X4105233Y15643762D01*
X4105234Y15643765D01*
X4202732Y15826170D01*
X4333945Y15986055D01*
X4493830Y16117268D01*
X4676235Y16214766D01*
X4676238Y16214767D01*
X4874164Y16274807D01*
X4951293Y16282404D01*
X5028420Y16290000D01*
X5131580Y16290000D01*
X5208707Y16282404D01*
X5208707Y16282404D01*
G37*
G36*
X39555000Y15375000D02*
G01*
X37155000Y15375000D01*
X37155000Y16375000D01*
X39555000Y16375000D01*
X39555000Y15375000D01*
X39555000Y15375000D01*
G37*
G36*
X30155000Y15375000D02*
G01*
X27755000Y15375000D01*
X27755000Y16375000D01*
X30155000Y16375000D01*
X30155000Y15375000D01*
X30155000Y15375000D01*
G37*
G36*
X13645000Y15375000D02*
G01*
X11245000Y15375000D01*
X11245000Y16375000D01*
X13645000Y16375000D01*
X13645000Y15375000D01*
X13645000Y15375000D01*
G37*
G36*
X23045000Y15375000D02*
G01*
X20645000Y15375000D01*
X20645000Y16375000D01*
X23045000Y16375000D01*
X23045000Y15375000D01*
X23045000Y15375000D01*
G37*
G36*
X39555000Y16645000D02*
G01*
X37155000Y16645000D01*
X37155000Y17645000D01*
X39555000Y17645000D01*
X39555000Y16645000D01*
X39555000Y16645000D01*
G37*
G36*
X13645000Y16645000D02*
G01*
X11245000Y16645000D01*
X11245000Y17645000D01*
X13645000Y17645000D01*
X13645000Y16645000D01*
X13645000Y16645000D01*
G37*
G36*
X30155000Y16645000D02*
G01*
X27755000Y16645000D01*
X27755000Y17563682D01*
X27752598Y17588068D01*
X27745485Y17611517D01*
X27733934Y17633128D01*
X27724191Y17645000D01*
X30155000Y17645000D01*
X30155000Y16645000D01*
X30155000Y16645000D01*
G37*
G36*
X23045000Y16645000D02*
G01*
X20645000Y16645000D01*
X20645000Y17645000D01*
X23045000Y17645000D01*
X23045000Y16645000D01*
X23045000Y16645000D01*
G37*
G36*
X5208707Y18822403D02*
G01*
X5285836Y18814807D01*
X5483762Y18754767D01*
X5483765Y18754766D01*
X5666170Y18657268D01*
X5826055Y18526055D01*
X5957268Y18366170D01*
X6054766Y18183765D01*
X6054767Y18183762D01*
X6114807Y17985836D01*
X6135080Y17780000D01*
X6114807Y17574164D01*
X6102572Y17533831D01*
X6054766Y17376235D01*
X5957268Y17193830D01*
X5826055Y17033945D01*
X5666170Y16902732D01*
X5483765Y16805234D01*
X5483762Y16805233D01*
X5285836Y16745193D01*
X5208707Y16737596D01*
X5131580Y16730000D01*
X5028420Y16730000D01*
X4951293Y16737596D01*
X4874164Y16745193D01*
X4676238Y16805233D01*
X4676235Y16805234D01*
X4493830Y16902732D01*
X4333945Y17033945D01*
X4202732Y17193830D01*
X4105234Y17376235D01*
X4057428Y17533831D01*
X4045193Y17574164D01*
X4024920Y17780000D01*
X4045193Y17985836D01*
X4105233Y18183762D01*
X4105234Y18183765D01*
X4202732Y18366170D01*
X4333945Y18526055D01*
X4493830Y18657268D01*
X4676235Y18754766D01*
X4676238Y18754767D01*
X4874164Y18814807D01*
X4951293Y18822403D01*
X5028420Y18830000D01*
X5131580Y18830000D01*
X5208707Y18822403D01*
X5208707Y18822403D01*
G37*
G36*
X48388707Y18822403D02*
G01*
X48465836Y18814807D01*
X48663762Y18754767D01*
X48663765Y18754766D01*
X48846170Y18657268D01*
X49006055Y18526055D01*
X49137268Y18366170D01*
X49234766Y18183765D01*
X49234767Y18183762D01*
X49294807Y17985836D01*
X49315080Y17780000D01*
X49294807Y17574164D01*
X49282572Y17533831D01*
X49234766Y17376235D01*
X49137268Y17193830D01*
X49006055Y17033945D01*
X48846170Y16902732D01*
X48663765Y16805234D01*
X48663762Y16805233D01*
X48465836Y16745193D01*
X48388707Y16737596D01*
X48311580Y16730000D01*
X48208420Y16730000D01*
X48131293Y16737596D01*
X48054164Y16745193D01*
X47856238Y16805233D01*
X47856235Y16805234D01*
X47673830Y16902732D01*
X47513945Y17033945D01*
X47382732Y17193830D01*
X47285234Y17376235D01*
X47237428Y17533831D01*
X47225193Y17574164D01*
X47204920Y17780000D01*
X47225193Y17985836D01*
X47285233Y18183762D01*
X47285234Y18183765D01*
X47382732Y18366170D01*
X47513945Y18526055D01*
X47673830Y18657268D01*
X47856235Y18754766D01*
X47856238Y18754767D01*
X48054164Y18814807D01*
X48131293Y18822403D01*
X48208420Y18830000D01*
X48311580Y18830000D01*
X48388707Y18822403D01*
X48388707Y18822403D01*
G37*
G36*
X45848707Y18822403D02*
G01*
X45925836Y18814807D01*
X46123762Y18754767D01*
X46123765Y18754766D01*
X46306170Y18657268D01*
X46466055Y18526055D01*
X46597268Y18366170D01*
X46694766Y18183765D01*
X46694767Y18183762D01*
X46754807Y17985836D01*
X46775080Y17780000D01*
X46754807Y17574164D01*
X46742572Y17533831D01*
X46694766Y17376235D01*
X46597268Y17193830D01*
X46466055Y17033945D01*
X46306170Y16902732D01*
X46123765Y16805234D01*
X46123762Y16805233D01*
X45925836Y16745193D01*
X45848707Y16737596D01*
X45771580Y16730000D01*
X45668420Y16730000D01*
X45591293Y16737596D01*
X45514164Y16745193D01*
X45316238Y16805233D01*
X45316235Y16805234D01*
X45133830Y16902732D01*
X44973945Y17033945D01*
X44842732Y17193830D01*
X44745234Y17376235D01*
X44697428Y17533831D01*
X44685193Y17574164D01*
X44664920Y17780000D01*
X44685193Y17985836D01*
X44745233Y18183762D01*
X44745234Y18183765D01*
X44842732Y18366170D01*
X44973945Y18526055D01*
X45133830Y18657268D01*
X45316235Y18754766D01*
X45316238Y18754767D01*
X45514164Y18814807D01*
X45591293Y18822403D01*
X45668420Y18830000D01*
X45771580Y18830000D01*
X45848707Y18822403D01*
X45848707Y18822403D01*
G37*
G36*
X2668707Y18822403D02*
G01*
X2745836Y18814807D01*
X2943762Y18754767D01*
X2943765Y18754766D01*
X3126170Y18657268D01*
X3286055Y18526055D01*
X3417268Y18366170D01*
X3514766Y18183765D01*
X3514767Y18183762D01*
X3574807Y17985836D01*
X3595080Y17780000D01*
X3574807Y17574164D01*
X3562572Y17533831D01*
X3514766Y17376235D01*
X3417268Y17193830D01*
X3286055Y17033945D01*
X3126170Y16902732D01*
X2943765Y16805234D01*
X2943762Y16805233D01*
X2745836Y16745193D01*
X2668707Y16737596D01*
X2591580Y16730000D01*
X2488420Y16730000D01*
X2411293Y16737596D01*
X2334164Y16745193D01*
X2136238Y16805233D01*
X2136235Y16805234D01*
X1953830Y16902732D01*
X1793945Y17033945D01*
X1662732Y17193830D01*
X1565234Y17376235D01*
X1517428Y17533831D01*
X1505193Y17574164D01*
X1484920Y17780000D01*
X1505193Y17985836D01*
X1565233Y18183762D01*
X1565234Y18183765D01*
X1662732Y18366170D01*
X1793945Y18526055D01*
X1953830Y18657268D01*
X2136235Y18754766D01*
X2136238Y18754767D01*
X2334164Y18814807D01*
X2411293Y18822403D01*
X2488420Y18830000D01*
X2591580Y18830000D01*
X2668707Y18822403D01*
X2668707Y18822403D01*
G37*
G36*
X27355529Y19057290D02*
G01*
X27405378Y19042169D01*
X27451310Y19017618D01*
X27491574Y18984574D01*
X27531146Y18936355D01*
X27533368Y18933029D01*
X27550693Y18915700D01*
X27571066Y18902084D01*
X27593704Y18892705D01*
X27617737Y18887922D01*
X27642241Y18887920D01*
X27666275Y18892698D01*
X27688914Y18902073D01*
X27708265Y18915000D01*
X30155000Y18915000D01*
X30155000Y17915000D01*
X27694999Y17915000D01*
X27670613Y17912598D01*
X27647164Y17905485D01*
X27625553Y17893934D01*
X27606611Y17878389D01*
X27591066Y17859447D01*
X27579515Y17837836D01*
X27572402Y17814387D01*
X27570000Y17790001D01*
X27570000Y17785445D01*
X27569685Y17782245D01*
X27569687Y17757741D01*
X27574468Y17733708D01*
X27583847Y17711069D01*
X27597461Y17690696D01*
X27602748Y17685409D01*
X27582166Y17679166D01*
X27560555Y17667615D01*
X27541613Y17652070D01*
X27532589Y17641075D01*
X27532428Y17641207D01*
X27491574Y17591426D01*
X27451310Y17558382D01*
X27405378Y17533831D01*
X27355529Y17518710D01*
X27297556Y17513000D01*
X26042444Y17513000D01*
X25984471Y17518710D01*
X25934622Y17533831D01*
X25888690Y17558382D01*
X25848426Y17591426D01*
X25815382Y17631690D01*
X25790831Y17677622D01*
X25775710Y17727471D01*
X25770000Y17785444D01*
X25770000Y18790556D01*
X25775710Y18848529D01*
X25790831Y18898378D01*
X25815382Y18944310D01*
X25848426Y18984574D01*
X25888690Y19017618D01*
X25934622Y19042169D01*
X25984471Y19057290D01*
X26042444Y19063000D01*
X27297556Y19063000D01*
X27355529Y19057290D01*
X27355529Y19057290D01*
G37*
G36*
X13645000Y17915000D02*
G01*
X11245000Y17915000D01*
X11245000Y18915000D01*
X13645000Y18915000D01*
X13645000Y17915000D01*
X13645000Y17915000D01*
G37*
G36*
X23073381Y20182990D02*
G01*
X23059765Y20162617D01*
X23050386Y20139979D01*
X23045603Y20115946D01*
X23045000Y20103682D01*
X23045000Y19502318D01*
X23047402Y19477932D01*
X23054515Y19454483D01*
X23066066Y19432872D01*
X23081611Y19413930D01*
X23100553Y19398385D01*
X23122164Y19386834D01*
X23145613Y19379721D01*
X23169999Y19377319D01*
X23194385Y19379721D01*
X23217834Y19386834D01*
X23239445Y19398385D01*
X23258387Y19413930D01*
X23267411Y19424925D01*
X23267572Y19424793D01*
X23308426Y19474574D01*
X23348690Y19507618D01*
X23394622Y19532169D01*
X23444471Y19547290D01*
X23502444Y19553000D01*
X24757556Y19553000D01*
X24815529Y19547290D01*
X24865378Y19532169D01*
X24911310Y19507618D01*
X24951574Y19474574D01*
X24984618Y19434310D01*
X25009169Y19388378D01*
X25024290Y19338529D01*
X25030000Y19280556D01*
X25030000Y18275444D01*
X25024290Y18217471D01*
X25009169Y18167622D01*
X24984618Y18121690D01*
X24951574Y18081426D01*
X24911310Y18048382D01*
X24865378Y18023831D01*
X24815529Y18008710D01*
X24757556Y18003000D01*
X23502444Y18003000D01*
X23444471Y18008710D01*
X23394622Y18023831D01*
X23348690Y18048382D01*
X23308426Y18081426D01*
X23268854Y18129645D01*
X23266632Y18132971D01*
X23249307Y18150300D01*
X23228934Y18163916D01*
X23206296Y18173295D01*
X23182263Y18178078D01*
X23157759Y18178080D01*
X23133725Y18173302D01*
X23111086Y18163927D01*
X23090710Y18150315D01*
X23073381Y18132990D01*
X23059765Y18112617D01*
X23050386Y18089979D01*
X23045603Y18065946D01*
X23045000Y18053682D01*
X23045000Y17915000D01*
X20645000Y17915000D01*
X20645000Y18915000D01*
X23105001Y18915000D01*
X23129387Y18917402D01*
X23152836Y18924515D01*
X23174447Y18936066D01*
X23193389Y18951611D01*
X23208934Y18970553D01*
X23220485Y18992164D01*
X23227598Y19015613D01*
X23230000Y19039999D01*
X23230000Y19060001D01*
X23227598Y19084387D01*
X23220485Y19107836D01*
X23208934Y19129447D01*
X23193389Y19148389D01*
X23174447Y19163934D01*
X23152836Y19175485D01*
X23129387Y19182598D01*
X23105001Y19185000D01*
X20645000Y19185000D01*
X20645000Y20185000D01*
X23075391Y20185000D01*
X23073381Y20182990D01*
X23073381Y20182990D01*
G37*
G36*
X39555000Y17915000D02*
G01*
X37155000Y17915000D01*
X37155000Y18915000D01*
X39555000Y18915000D01*
X39555000Y17915000D01*
X39555000Y17915000D01*
G37*
G36*
X30155000Y20455000D02*
G01*
X27694999Y20455000D01*
X27670613Y20452598D01*
X27647164Y20445485D01*
X27625553Y20433934D01*
X27606611Y20418389D01*
X27591066Y20399447D01*
X27579515Y20377836D01*
X27572402Y20354387D01*
X27570000Y20330001D01*
X27570000Y20309999D01*
X27572402Y20285613D01*
X27579515Y20262164D01*
X27591066Y20240553D01*
X27606611Y20221611D01*
X27625553Y20206066D01*
X27647164Y20194515D01*
X27670613Y20187402D01*
X27694999Y20185000D01*
X30155000Y20185000D01*
X30155000Y19185000D01*
X27755000Y19185000D01*
X27755000Y19613682D01*
X27752598Y19638068D01*
X27745485Y19661517D01*
X27733934Y19683128D01*
X27718389Y19702070D01*
X27699447Y19717615D01*
X27677836Y19729166D01*
X27654387Y19736279D01*
X27630001Y19738681D01*
X27605615Y19736279D01*
X27582166Y19729166D01*
X27560555Y19717615D01*
X27541613Y19702070D01*
X27532589Y19691075D01*
X27532428Y19691207D01*
X27491574Y19641426D01*
X27451310Y19608382D01*
X27405378Y19583831D01*
X27355529Y19568710D01*
X27297556Y19563000D01*
X26042444Y19563000D01*
X25984471Y19568710D01*
X25934622Y19583831D01*
X25888690Y19608382D01*
X25848426Y19641426D01*
X25815382Y19681690D01*
X25790831Y19727622D01*
X25775710Y19777471D01*
X25770000Y19835444D01*
X25770000Y20840556D01*
X25775710Y20898529D01*
X25790831Y20948378D01*
X25815382Y20994310D01*
X25848426Y21034574D01*
X25888690Y21067618D01*
X25934622Y21092169D01*
X25984471Y21107290D01*
X26042444Y21113000D01*
X27297556Y21113000D01*
X27355529Y21107290D01*
X27405378Y21092169D01*
X27451310Y21067618D01*
X27491574Y21034574D01*
X27531146Y20986355D01*
X27533368Y20983029D01*
X27550693Y20965700D01*
X27571066Y20952084D01*
X27593704Y20942705D01*
X27617737Y20937922D01*
X27642241Y20937920D01*
X27666275Y20942698D01*
X27688914Y20952073D01*
X27709290Y20965685D01*
X27726619Y20983010D01*
X27740235Y21003383D01*
X27749614Y21026021D01*
X27754397Y21050054D01*
X27755000Y21062318D01*
X27755000Y21455000D01*
X30155000Y21455000D01*
X30155000Y20455000D01*
X30155000Y20455000D01*
G37*
G36*
X13645000Y19185000D02*
G01*
X11245000Y19185000D01*
X11245000Y20185000D01*
X13645000Y20185000D01*
X13645000Y19185000D01*
X13645000Y19185000D01*
G37*
G36*
X39555000Y19185000D02*
G01*
X37155000Y19185000D01*
X37155000Y20185000D01*
X39555000Y20185000D01*
X39555000Y19185000D01*
X39555000Y19185000D01*
G37*
G36*
X5208707Y21362404D02*
G01*
X5285836Y21354807D01*
X5450028Y21305000D01*
X5483765Y21294766D01*
X5666170Y21197268D01*
X5826055Y21066055D01*
X5957268Y20906170D01*
X6054766Y20723765D01*
X6054767Y20723762D01*
X6114807Y20525836D01*
X6135080Y20320000D01*
X6114807Y20114164D01*
X6102572Y20073831D01*
X6054766Y19916235D01*
X5957268Y19733830D01*
X5826055Y19573945D01*
X5666170Y19442732D01*
X5483765Y19345234D01*
X5483762Y19345233D01*
X5285836Y19285193D01*
X5238755Y19280556D01*
X5131580Y19270000D01*
X5028420Y19270000D01*
X4921245Y19280556D01*
X4874164Y19285193D01*
X4676238Y19345233D01*
X4676235Y19345234D01*
X4493830Y19442732D01*
X4333945Y19573945D01*
X4202732Y19733830D01*
X4105234Y19916235D01*
X4057428Y20073831D01*
X4045193Y20114164D01*
X4024920Y20320000D01*
X4045193Y20525836D01*
X4105233Y20723762D01*
X4105234Y20723765D01*
X4202732Y20906170D01*
X4333945Y21066055D01*
X4493830Y21197268D01*
X4676235Y21294766D01*
X4709972Y21305000D01*
X4874164Y21354807D01*
X4951293Y21362404D01*
X5028420Y21370000D01*
X5131580Y21370000D01*
X5208707Y21362404D01*
X5208707Y21362404D01*
G37*
G36*
X2668707Y21362404D02*
G01*
X2745836Y21354807D01*
X2910028Y21305000D01*
X2943765Y21294766D01*
X3126170Y21197268D01*
X3286055Y21066055D01*
X3417268Y20906170D01*
X3514766Y20723765D01*
X3514767Y20723762D01*
X3574807Y20525836D01*
X3595080Y20320000D01*
X3574807Y20114164D01*
X3562572Y20073831D01*
X3514766Y19916235D01*
X3417268Y19733830D01*
X3286055Y19573945D01*
X3126170Y19442732D01*
X2943765Y19345234D01*
X2943762Y19345233D01*
X2745836Y19285193D01*
X2698755Y19280556D01*
X2591580Y19270000D01*
X2488420Y19270000D01*
X2381245Y19280556D01*
X2334164Y19285193D01*
X2136238Y19345233D01*
X2136235Y19345234D01*
X1953830Y19442732D01*
X1793945Y19573945D01*
X1662732Y19733830D01*
X1565234Y19916235D01*
X1517428Y20073831D01*
X1505193Y20114164D01*
X1484920Y20320000D01*
X1505193Y20525836D01*
X1565233Y20723762D01*
X1565234Y20723765D01*
X1662732Y20906170D01*
X1793945Y21066055D01*
X1953830Y21197268D01*
X2136235Y21294766D01*
X2169972Y21305000D01*
X2334164Y21354807D01*
X2411293Y21362404D01*
X2488420Y21370000D01*
X2591580Y21370000D01*
X2668707Y21362404D01*
X2668707Y21362404D01*
G37*
G36*
X48388707Y21362404D02*
G01*
X48465836Y21354807D01*
X48630028Y21305000D01*
X48663765Y21294766D01*
X48846170Y21197268D01*
X49006055Y21066055D01*
X49137268Y20906170D01*
X49234766Y20723765D01*
X49234767Y20723762D01*
X49294807Y20525836D01*
X49315080Y20320000D01*
X49294807Y20114164D01*
X49282572Y20073831D01*
X49234766Y19916235D01*
X49137268Y19733830D01*
X49006055Y19573945D01*
X48846170Y19442732D01*
X48663765Y19345234D01*
X48663762Y19345233D01*
X48465836Y19285193D01*
X48418755Y19280556D01*
X48311580Y19270000D01*
X48208420Y19270000D01*
X48101245Y19280556D01*
X48054164Y19285193D01*
X47856238Y19345233D01*
X47856235Y19345234D01*
X47673830Y19442732D01*
X47513945Y19573945D01*
X47382732Y19733830D01*
X47285234Y19916235D01*
X47237428Y20073831D01*
X47225193Y20114164D01*
X47204920Y20320000D01*
X47225193Y20525836D01*
X47285233Y20723762D01*
X47285234Y20723765D01*
X47382732Y20906170D01*
X47513945Y21066055D01*
X47673830Y21197268D01*
X47856235Y21294766D01*
X47889972Y21305000D01*
X48054164Y21354807D01*
X48131293Y21362404D01*
X48208420Y21370000D01*
X48311580Y21370000D01*
X48388707Y21362404D01*
X48388707Y21362404D01*
G37*
G36*
X45848707Y21362404D02*
G01*
X45925836Y21354807D01*
X46090028Y21305000D01*
X46123765Y21294766D01*
X46306170Y21197268D01*
X46466055Y21066055D01*
X46597268Y20906170D01*
X46694766Y20723765D01*
X46694767Y20723762D01*
X46754807Y20525836D01*
X46775080Y20320000D01*
X46754807Y20114164D01*
X46742572Y20073831D01*
X46694766Y19916235D01*
X46597268Y19733830D01*
X46466055Y19573945D01*
X46306170Y19442732D01*
X46123765Y19345234D01*
X46123762Y19345233D01*
X45925836Y19285193D01*
X45878755Y19280556D01*
X45771580Y19270000D01*
X45668420Y19270000D01*
X45561245Y19280556D01*
X45514164Y19285193D01*
X45316238Y19345233D01*
X45316235Y19345234D01*
X45133830Y19442732D01*
X44973945Y19573945D01*
X44842732Y19733830D01*
X44745234Y19916235D01*
X44697428Y20073831D01*
X44685193Y20114164D01*
X44664920Y20320000D01*
X44685193Y20525836D01*
X44745233Y20723762D01*
X44745234Y20723765D01*
X44842732Y20906170D01*
X44973945Y21066055D01*
X45133830Y21197268D01*
X45316235Y21294766D01*
X45349972Y21305000D01*
X45514164Y21354807D01*
X45591293Y21362404D01*
X45668420Y21370000D01*
X45771580Y21370000D01*
X45848707Y21362404D01*
X45848707Y21362404D01*
G37*
G36*
X24815529Y21597290D02*
G01*
X24865378Y21582169D01*
X24911310Y21557618D01*
X24951574Y21524574D01*
X24984618Y21484310D01*
X25009169Y21438378D01*
X25024290Y21388529D01*
X25030000Y21330556D01*
X25030000Y20325444D01*
X25024290Y20267471D01*
X25009169Y20217622D01*
X24984618Y20171690D01*
X24951574Y20131426D01*
X24911310Y20098382D01*
X24865378Y20073831D01*
X24815529Y20058710D01*
X24757556Y20053000D01*
X23502444Y20053000D01*
X23444471Y20058710D01*
X23394622Y20073831D01*
X23348690Y20098382D01*
X23308426Y20131426D01*
X23268854Y20179645D01*
X23266632Y20182971D01*
X23249307Y20200300D01*
X23228934Y20213916D01*
X23206296Y20223295D01*
X23197176Y20225110D01*
X23209850Y20240553D01*
X23221401Y20262164D01*
X23228514Y20285613D01*
X23230315Y20322245D01*
X23230000Y20325445D01*
X23230000Y20330001D01*
X23227598Y20354387D01*
X23220485Y20377836D01*
X23208934Y20399447D01*
X23193389Y20418389D01*
X23174447Y20433934D01*
X23152836Y20445485D01*
X23129387Y20452598D01*
X23105001Y20455000D01*
X20645000Y20455000D01*
X20645000Y21455000D01*
X23092492Y21455000D01*
X23100553Y21448385D01*
X23122164Y21436834D01*
X23145613Y21429721D01*
X23169999Y21427319D01*
X23194385Y21429721D01*
X23217834Y21436834D01*
X23239445Y21448385D01*
X23258387Y21463930D01*
X23267411Y21474925D01*
X23267572Y21474793D01*
X23308426Y21524574D01*
X23348690Y21557618D01*
X23394622Y21582169D01*
X23444471Y21597290D01*
X23502444Y21603000D01*
X24757556Y21603000D01*
X24815529Y21597290D01*
X24815529Y21597290D01*
G37*
G36*
X13645000Y20455000D02*
G01*
X11245000Y20455000D01*
X11245000Y21455000D01*
X13645000Y21455000D01*
X13645000Y20455000D01*
X13645000Y20455000D01*
G37*
G36*
X39600710Y21452315D02*
G01*
X39583381Y21434990D01*
X39569765Y21414617D01*
X39560386Y21391979D01*
X39555603Y21367946D01*
X39555000Y21355682D01*
X39555000Y20455000D01*
X37155000Y20455000D01*
X37155000Y21455000D01*
X39604729Y21455000D01*
X39600710Y21452315D01*
X39600710Y21452315D01*
G37*
G36*
X41325529Y22849290D02*
G01*
X41375378Y22834169D01*
X41421310Y22809618D01*
X41461574Y22776574D01*
X41494618Y22736310D01*
X41519169Y22690378D01*
X41534290Y22640529D01*
X41540000Y22582556D01*
X41540000Y21577444D01*
X41534290Y21519471D01*
X41519169Y21469622D01*
X41494618Y21423690D01*
X41461574Y21383426D01*
X41421310Y21350382D01*
X41375378Y21325831D01*
X41325529Y21310710D01*
X41267556Y21305000D01*
X40012444Y21305000D01*
X39954471Y21310710D01*
X39904622Y21325831D01*
X39858690Y21350382D01*
X39818426Y21383426D01*
X39778854Y21431645D01*
X39776632Y21434971D01*
X39759307Y21452300D01*
X39738934Y21465916D01*
X39716296Y21475295D01*
X39692263Y21480078D01*
X39689336Y21480078D01*
X39703389Y21491611D01*
X39718934Y21510553D01*
X39730485Y21532164D01*
X39737598Y21555613D01*
X39740000Y21579999D01*
X39740000Y21600001D01*
X39737598Y21624387D01*
X39730485Y21647836D01*
X39718934Y21669447D01*
X39703389Y21688389D01*
X39684447Y21703934D01*
X39662836Y21715485D01*
X39639387Y21722598D01*
X39615001Y21725000D01*
X37155000Y21725000D01*
X37155000Y22725000D01*
X39584168Y22725000D01*
X39591611Y22715930D01*
X39610553Y22700385D01*
X39632164Y22688834D01*
X39655613Y22681721D01*
X39679999Y22679319D01*
X39704385Y22681721D01*
X39727834Y22688834D01*
X39749445Y22700385D01*
X39768387Y22715930D01*
X39777411Y22726925D01*
X39777572Y22726793D01*
X39818426Y22776574D01*
X39858690Y22809618D01*
X39904622Y22834169D01*
X39954471Y22849290D01*
X40012444Y22855000D01*
X41267556Y22855000D01*
X41325529Y22849290D01*
X41325529Y22849290D01*
G37*
G36*
X13645000Y21725000D02*
G01*
X11245000Y21725000D01*
X11245000Y22725000D01*
X13645000Y22725000D01*
X13645000Y21725000D01*
X13645000Y21725000D01*
G37*
G36*
X23045000Y21725000D02*
G01*
X20645000Y21725000D01*
X20645000Y22725000D01*
X23045000Y22725000D01*
X23045000Y21725000D01*
X23045000Y21725000D01*
G37*
G36*
X30155000Y22995000D02*
G01*
X27694999Y22995000D01*
X27670613Y22992598D01*
X27647164Y22985485D01*
X27625553Y22973934D01*
X27606611Y22958389D01*
X27591066Y22939447D01*
X27579515Y22917836D01*
X27572402Y22894387D01*
X27570000Y22870001D01*
X27570000Y22849999D01*
X27572402Y22825613D01*
X27579515Y22802164D01*
X27591066Y22780553D01*
X27606611Y22761611D01*
X27625553Y22746066D01*
X27647164Y22734515D01*
X27670613Y22727402D01*
X27694999Y22725000D01*
X30155000Y22725000D01*
X30155000Y21725000D01*
X27755000Y21725000D01*
X27755000Y22117682D01*
X27752598Y22142068D01*
X27745485Y22165517D01*
X27733934Y22187128D01*
X27718389Y22206070D01*
X27699447Y22221615D01*
X27677836Y22233166D01*
X27654387Y22240279D01*
X27630001Y22242681D01*
X27605615Y22240279D01*
X27582166Y22233166D01*
X27560555Y22221615D01*
X27541613Y22206070D01*
X27532589Y22195075D01*
X27532428Y22195207D01*
X27491574Y22145426D01*
X27451310Y22112382D01*
X27405378Y22087831D01*
X27355529Y22072710D01*
X27297556Y22067000D01*
X26042444Y22067000D01*
X25984471Y22072710D01*
X25934622Y22087831D01*
X25888690Y22112382D01*
X25848426Y22145426D01*
X25815382Y22185690D01*
X25790831Y22231622D01*
X25775710Y22281471D01*
X25770000Y22339444D01*
X25770000Y23344556D01*
X25775710Y23402529D01*
X25790831Y23452378D01*
X25815382Y23498310D01*
X25848426Y23538574D01*
X25888690Y23571618D01*
X25934622Y23596169D01*
X25984471Y23611290D01*
X26042444Y23617000D01*
X27297556Y23617000D01*
X27355529Y23611290D01*
X27405378Y23596169D01*
X27451310Y23571618D01*
X27491574Y23538574D01*
X27531146Y23490355D01*
X27533368Y23487029D01*
X27550693Y23469700D01*
X27571066Y23456084D01*
X27593704Y23446705D01*
X27617737Y23441922D01*
X27642241Y23441920D01*
X27666275Y23446698D01*
X27688914Y23456073D01*
X27709290Y23469685D01*
X27726619Y23487010D01*
X27740235Y23507383D01*
X27749614Y23530021D01*
X27754397Y23554054D01*
X27755000Y23566318D01*
X27755000Y23995000D01*
X30155000Y23995000D01*
X30155000Y22995000D01*
X30155000Y22995000D01*
G37*
G36*
X2668707Y23902404D02*
G01*
X2745836Y23894807D01*
X2943762Y23834767D01*
X2943765Y23834766D01*
X3126170Y23737268D01*
X3286055Y23606055D01*
X3417268Y23446170D01*
X3514766Y23263765D01*
X3514767Y23263762D01*
X3574807Y23065836D01*
X3595080Y22860000D01*
X3574807Y22654164D01*
X3514767Y22456238D01*
X3514766Y22456235D01*
X3417268Y22273830D01*
X3286055Y22113945D01*
X3126170Y21982732D01*
X2943765Y21885234D01*
X2943762Y21885233D01*
X2745836Y21825193D01*
X2668707Y21817597D01*
X2591580Y21810000D01*
X2488420Y21810000D01*
X2411293Y21817596D01*
X2334164Y21825193D01*
X2136238Y21885233D01*
X2136235Y21885234D01*
X1953830Y21982732D01*
X1793945Y22113945D01*
X1662732Y22273830D01*
X1565234Y22456235D01*
X1565233Y22456238D01*
X1505193Y22654164D01*
X1484920Y22860000D01*
X1505193Y23065836D01*
X1565233Y23263762D01*
X1565234Y23263765D01*
X1662732Y23446170D01*
X1793945Y23606055D01*
X1953830Y23737268D01*
X2136235Y23834766D01*
X2136238Y23834767D01*
X2334164Y23894807D01*
X2411293Y23902404D01*
X2488420Y23910000D01*
X2591580Y23910000D01*
X2668707Y23902404D01*
X2668707Y23902404D01*
G37*
G36*
X45848707Y23902404D02*
G01*
X45925836Y23894807D01*
X46123762Y23834767D01*
X46123765Y23834766D01*
X46306170Y23737268D01*
X46466055Y23606055D01*
X46597268Y23446170D01*
X46694766Y23263765D01*
X46694767Y23263762D01*
X46754807Y23065836D01*
X46775080Y22860000D01*
X46754807Y22654164D01*
X46694767Y22456238D01*
X46694766Y22456235D01*
X46597268Y22273830D01*
X46466055Y22113945D01*
X46306170Y21982732D01*
X46123765Y21885234D01*
X46123762Y21885233D01*
X45925836Y21825193D01*
X45848707Y21817597D01*
X45771580Y21810000D01*
X45668420Y21810000D01*
X45591293Y21817596D01*
X45514164Y21825193D01*
X45316238Y21885233D01*
X45316235Y21885234D01*
X45133830Y21982732D01*
X44973945Y22113945D01*
X44842732Y22273830D01*
X44745234Y22456235D01*
X44745233Y22456238D01*
X44685193Y22654164D01*
X44664920Y22860000D01*
X44685193Y23065836D01*
X44745233Y23263762D01*
X44745234Y23263765D01*
X44842732Y23446170D01*
X44973945Y23606055D01*
X45133830Y23737268D01*
X45316235Y23834766D01*
X45316238Y23834767D01*
X45514164Y23894807D01*
X45591293Y23902404D01*
X45668420Y23910000D01*
X45771580Y23910000D01*
X45848707Y23902404D01*
X45848707Y23902404D01*
G37*
G36*
X48388707Y23902404D02*
G01*
X48465836Y23894807D01*
X48663762Y23834767D01*
X48663765Y23834766D01*
X48846170Y23737268D01*
X49006055Y23606055D01*
X49137268Y23446170D01*
X49234766Y23263765D01*
X49234767Y23263762D01*
X49294807Y23065836D01*
X49315080Y22860000D01*
X49294807Y22654164D01*
X49234767Y22456238D01*
X49234766Y22456235D01*
X49137268Y22273830D01*
X49006055Y22113945D01*
X48846170Y21982732D01*
X48663765Y21885234D01*
X48663762Y21885233D01*
X48465836Y21825193D01*
X48388707Y21817597D01*
X48311580Y21810000D01*
X48208420Y21810000D01*
X48131293Y21817596D01*
X48054164Y21825193D01*
X47856238Y21885233D01*
X47856235Y21885234D01*
X47673830Y21982732D01*
X47513945Y22113945D01*
X47382732Y22273830D01*
X47285234Y22456235D01*
X47285233Y22456238D01*
X47225193Y22654164D01*
X47204920Y22860000D01*
X47225193Y23065836D01*
X47285233Y23263762D01*
X47285234Y23263765D01*
X47382732Y23446170D01*
X47513945Y23606055D01*
X47673830Y23737268D01*
X47856235Y23834766D01*
X47856238Y23834767D01*
X48054164Y23894807D01*
X48131293Y23902404D01*
X48208420Y23910000D01*
X48311580Y23910000D01*
X48388707Y23902404D01*
X48388707Y23902404D01*
G37*
G36*
X5208707Y23902404D02*
G01*
X5285836Y23894807D01*
X5483762Y23834767D01*
X5483765Y23834766D01*
X5666170Y23737268D01*
X5826055Y23606055D01*
X5957268Y23446170D01*
X6054766Y23263765D01*
X6054767Y23263762D01*
X6114807Y23065836D01*
X6135080Y22860000D01*
X6114807Y22654164D01*
X6054767Y22456238D01*
X6054766Y22456235D01*
X5957268Y22273830D01*
X5826055Y22113945D01*
X5666170Y21982732D01*
X5483765Y21885234D01*
X5483762Y21885233D01*
X5285836Y21825193D01*
X5208707Y21817597D01*
X5131580Y21810000D01*
X5028420Y21810000D01*
X4951293Y21817596D01*
X4874164Y21825193D01*
X4676238Y21885233D01*
X4676235Y21885234D01*
X4493830Y21982732D01*
X4333945Y22113945D01*
X4202732Y22273830D01*
X4105234Y22456235D01*
X4105233Y22456238D01*
X4045193Y22654164D01*
X4024920Y22860000D01*
X4045193Y23065836D01*
X4105233Y23263762D01*
X4105234Y23263765D01*
X4202732Y23446170D01*
X4333945Y23606055D01*
X4493830Y23737268D01*
X4676235Y23834766D01*
X4676238Y23834767D01*
X4874164Y23894807D01*
X4951293Y23902404D01*
X5028420Y23910000D01*
X5131580Y23910000D01*
X5208707Y23902404D01*
X5208707Y23902404D01*
G37*
G36*
X13645000Y22995000D02*
G01*
X11245000Y22995000D01*
X11245000Y23995000D01*
X13645000Y23995000D01*
X13645000Y22995000D01*
X13645000Y22995000D01*
G37*
G36*
X39555000Y24854318D02*
G01*
X39557402Y24829932D01*
X39564515Y24806483D01*
X39576066Y24784872D01*
X39591611Y24765930D01*
X39610553Y24750385D01*
X39632164Y24738834D01*
X39655613Y24731721D01*
X39679999Y24729319D01*
X39704385Y24731721D01*
X39727834Y24738834D01*
X39749445Y24750385D01*
X39768387Y24765930D01*
X39777411Y24776925D01*
X39777572Y24776793D01*
X39818426Y24826574D01*
X39858690Y24859618D01*
X39904622Y24884169D01*
X39954471Y24899290D01*
X40012444Y24905000D01*
X41267556Y24905000D01*
X41325529Y24899290D01*
X41375378Y24884169D01*
X41421310Y24859618D01*
X41461574Y24826574D01*
X41494618Y24786310D01*
X41519169Y24740378D01*
X41534290Y24690529D01*
X41540000Y24632556D01*
X41540000Y23627444D01*
X41534290Y23569471D01*
X41519169Y23519622D01*
X41494618Y23473690D01*
X41461574Y23433426D01*
X41421310Y23400382D01*
X41375378Y23375831D01*
X41325529Y23360710D01*
X41267556Y23355000D01*
X40012444Y23355000D01*
X39954471Y23360710D01*
X39904622Y23375831D01*
X39858690Y23400382D01*
X39818426Y23433426D01*
X39778854Y23481645D01*
X39776632Y23484971D01*
X39759307Y23502300D01*
X39738934Y23515916D01*
X39716296Y23525295D01*
X39692263Y23530078D01*
X39667759Y23530080D01*
X39643725Y23525302D01*
X39621086Y23515927D01*
X39600710Y23502315D01*
X39583381Y23484990D01*
X39569765Y23464617D01*
X39560386Y23441979D01*
X39555603Y23417946D01*
X39555000Y23405682D01*
X39555000Y22995000D01*
X37155000Y22995000D01*
X37155000Y23995000D01*
X39615001Y23995000D01*
X39639387Y23997402D01*
X39662836Y24004515D01*
X39684447Y24016066D01*
X39703389Y24031611D01*
X39718934Y24050553D01*
X39730485Y24072164D01*
X39737598Y24095613D01*
X39740000Y24119999D01*
X39740000Y24140001D01*
X39737598Y24164387D01*
X39730485Y24187836D01*
X39718934Y24209447D01*
X39703389Y24228389D01*
X39684447Y24243934D01*
X39662836Y24255485D01*
X39639387Y24262598D01*
X39615001Y24265000D01*
X37155000Y24265000D01*
X37155000Y25265000D01*
X39555000Y25265000D01*
X39555000Y24854318D01*
X39555000Y24854318D01*
G37*
G36*
X23045000Y22995000D02*
G01*
X20645000Y22995000D01*
X20645000Y23995000D01*
X23045000Y23995000D01*
X23045000Y22995000D01*
X23045000Y22995000D01*
G37*
G36*
X27355529Y25661290D02*
G01*
X27405378Y25646169D01*
X27451310Y25621618D01*
X27491574Y25588574D01*
X27524618Y25548310D01*
X27549169Y25502378D01*
X27564290Y25452529D01*
X27570000Y25394556D01*
X27570000Y25389999D01*
X27572402Y25365613D01*
X27579515Y25342164D01*
X27591066Y25320553D01*
X27606611Y25301611D01*
X27625553Y25286066D01*
X27647164Y25274515D01*
X27670613Y25267402D01*
X27694999Y25265000D01*
X30155000Y25265000D01*
X30155000Y24265000D01*
X27707508Y24265000D01*
X27699447Y24271615D01*
X27677836Y24283166D01*
X27654387Y24290279D01*
X27630001Y24292681D01*
X27605615Y24290279D01*
X27582166Y24283166D01*
X27560555Y24271615D01*
X27541613Y24256070D01*
X27532589Y24245075D01*
X27532428Y24245207D01*
X27491574Y24195426D01*
X27451310Y24162382D01*
X27405378Y24137831D01*
X27355529Y24122710D01*
X27297556Y24117000D01*
X26042444Y24117000D01*
X25984471Y24122710D01*
X25934622Y24137831D01*
X25888690Y24162382D01*
X25848426Y24195426D01*
X25815382Y24235690D01*
X25790831Y24281622D01*
X25775710Y24331471D01*
X25770000Y24389444D01*
X25770000Y25394556D01*
X25775710Y25452529D01*
X25790831Y25502378D01*
X25815382Y25548310D01*
X25848426Y25588574D01*
X25888690Y25621618D01*
X25934622Y25646169D01*
X25984471Y25661290D01*
X26042444Y25667000D01*
X27297556Y25667000D01*
X27355529Y25661290D01*
X27355529Y25661290D01*
G37*
G36*
X23045000Y24265000D02*
G01*
X20645000Y24265000D01*
X20645000Y25265000D01*
X23045000Y25265000D01*
X23045000Y24265000D01*
X23045000Y24265000D01*
G37*
G36*
X13645000Y24265000D02*
G01*
X11245000Y24265000D01*
X11245000Y25265000D01*
X13645000Y25265000D01*
X13645000Y24265000D01*
X13645000Y24265000D01*
G37*
G36*
X2668707Y26442403D02*
G01*
X2745836Y26434807D01*
X2943762Y26374767D01*
X2943765Y26374766D01*
X3126170Y26277268D01*
X3286055Y26146055D01*
X3417268Y25986170D01*
X3514766Y25803765D01*
X3514767Y25803762D01*
X3574807Y25605836D01*
X3595080Y25400000D01*
X3574807Y25194164D01*
X3514767Y24996238D01*
X3514766Y24996235D01*
X3417268Y24813830D01*
X3286055Y24653945D01*
X3126170Y24522732D01*
X2943765Y24425234D01*
X2943762Y24425233D01*
X2745836Y24365193D01*
X2668707Y24357596D01*
X2591580Y24350000D01*
X2488420Y24350000D01*
X2411293Y24357596D01*
X2334164Y24365193D01*
X2136238Y24425233D01*
X2136235Y24425234D01*
X1953830Y24522732D01*
X1793945Y24653945D01*
X1662732Y24813830D01*
X1565234Y24996235D01*
X1565233Y24996238D01*
X1505193Y25194164D01*
X1484920Y25400000D01*
X1505193Y25605836D01*
X1565233Y25803762D01*
X1565234Y25803765D01*
X1662732Y25986170D01*
X1793945Y26146055D01*
X1953830Y26277268D01*
X2136235Y26374766D01*
X2136238Y26374767D01*
X2334164Y26434807D01*
X2411293Y26442403D01*
X2488420Y26450000D01*
X2591580Y26450000D01*
X2668707Y26442403D01*
X2668707Y26442403D01*
G37*
G36*
X45848707Y26442403D02*
G01*
X45925836Y26434807D01*
X46123762Y26374767D01*
X46123765Y26374766D01*
X46306170Y26277268D01*
X46466055Y26146055D01*
X46597268Y25986170D01*
X46694766Y25803765D01*
X46694767Y25803762D01*
X46754807Y25605836D01*
X46775080Y25400000D01*
X46754807Y25194164D01*
X46694767Y24996238D01*
X46694766Y24996235D01*
X46597268Y24813830D01*
X46466055Y24653945D01*
X46306170Y24522732D01*
X46123765Y24425234D01*
X46123762Y24425233D01*
X45925836Y24365193D01*
X45848707Y24357596D01*
X45771580Y24350000D01*
X45668420Y24350000D01*
X45591293Y24357596D01*
X45514164Y24365193D01*
X45316238Y24425233D01*
X45316235Y24425234D01*
X45133830Y24522732D01*
X44973945Y24653945D01*
X44842732Y24813830D01*
X44745234Y24996235D01*
X44745233Y24996238D01*
X44685193Y25194164D01*
X44664920Y25400000D01*
X44685193Y25605836D01*
X44745233Y25803762D01*
X44745234Y25803765D01*
X44842732Y25986170D01*
X44973945Y26146055D01*
X45133830Y26277268D01*
X45316235Y26374766D01*
X45316238Y26374767D01*
X45514164Y26434807D01*
X45591293Y26442403D01*
X45668420Y26450000D01*
X45771580Y26450000D01*
X45848707Y26442403D01*
X45848707Y26442403D01*
G37*
G36*
X5208707Y26442403D02*
G01*
X5285836Y26434807D01*
X5483762Y26374767D01*
X5483765Y26374766D01*
X5666170Y26277268D01*
X5826055Y26146055D01*
X5957268Y25986170D01*
X6054766Y25803765D01*
X6054767Y25803762D01*
X6114807Y25605836D01*
X6135080Y25400000D01*
X6114807Y25194164D01*
X6054767Y24996238D01*
X6054766Y24996235D01*
X5957268Y24813830D01*
X5826055Y24653945D01*
X5666170Y24522732D01*
X5483765Y24425234D01*
X5483762Y24425233D01*
X5285836Y24365193D01*
X5208707Y24357596D01*
X5131580Y24350000D01*
X5028420Y24350000D01*
X4951293Y24357596D01*
X4874164Y24365193D01*
X4676238Y24425233D01*
X4676235Y24425234D01*
X4493830Y24522732D01*
X4333945Y24653945D01*
X4202732Y24813830D01*
X4105234Y24996235D01*
X4105233Y24996238D01*
X4045193Y25194164D01*
X4024920Y25400000D01*
X4045193Y25605836D01*
X4105233Y25803762D01*
X4105234Y25803765D01*
X4202732Y25986170D01*
X4333945Y26146055D01*
X4493830Y26277268D01*
X4676235Y26374766D01*
X4676238Y26374767D01*
X4874164Y26434807D01*
X4951293Y26442403D01*
X5028420Y26450000D01*
X5131580Y26450000D01*
X5208707Y26442403D01*
X5208707Y26442403D01*
G37*
G36*
X48388707Y26442403D02*
G01*
X48465836Y26434807D01*
X48663762Y26374767D01*
X48663765Y26374766D01*
X48846170Y26277268D01*
X49006055Y26146055D01*
X49137268Y25986170D01*
X49234766Y25803765D01*
X49234767Y25803762D01*
X49294807Y25605836D01*
X49315080Y25400000D01*
X49294807Y25194164D01*
X49234767Y24996238D01*
X49234766Y24996235D01*
X49137268Y24813830D01*
X49006055Y24653945D01*
X48846170Y24522732D01*
X48663765Y24425234D01*
X48663762Y24425233D01*
X48465836Y24365193D01*
X48388707Y24357596D01*
X48311580Y24350000D01*
X48208420Y24350000D01*
X48131293Y24357596D01*
X48054164Y24365193D01*
X47856238Y24425233D01*
X47856235Y24425234D01*
X47673830Y24522732D01*
X47513945Y24653945D01*
X47382732Y24813830D01*
X47285234Y24996235D01*
X47285233Y24996238D01*
X47225193Y25194164D01*
X47204920Y25400000D01*
X47225193Y25605836D01*
X47285233Y25803762D01*
X47285234Y25803765D01*
X47382732Y25986170D01*
X47513945Y26146055D01*
X47673830Y26277268D01*
X47856235Y26374766D01*
X47856238Y26374767D01*
X48054164Y26434807D01*
X48131293Y26442403D01*
X48208420Y26450000D01*
X48311580Y26450000D01*
X48388707Y26442403D01*
X48388707Y26442403D01*
G37*
G36*
X28990529Y27945290D02*
G01*
X29040378Y27930169D01*
X29086310Y27905618D01*
X29126574Y27872574D01*
X29159618Y27832310D01*
X29184169Y27786378D01*
X29199290Y27736529D01*
X29205000Y27678556D01*
X29205000Y26423444D01*
X29199290Y26365471D01*
X29184169Y26315622D01*
X29159618Y26269690D01*
X29126574Y26229426D01*
X29086310Y26196382D01*
X29040378Y26171831D01*
X28990529Y26156710D01*
X28932556Y26151000D01*
X27927444Y26151000D01*
X27869471Y26156710D01*
X27819622Y26171831D01*
X27773690Y26196382D01*
X27733426Y26229426D01*
X27700382Y26269690D01*
X27675831Y26315622D01*
X27660710Y26365471D01*
X27655000Y26423444D01*
X27655000Y27678556D01*
X27660710Y27736529D01*
X27675831Y27786378D01*
X27700382Y27832310D01*
X27733426Y27872574D01*
X27773690Y27905618D01*
X27819622Y27930169D01*
X27869471Y27945290D01*
X27927444Y27951000D01*
X28932556Y27951000D01*
X28990529Y27945290D01*
X28990529Y27945290D01*
G37*
G36*
X31040529Y27945290D02*
G01*
X31090378Y27930169D01*
X31136310Y27905618D01*
X31176574Y27872574D01*
X31209618Y27832310D01*
X31234169Y27786378D01*
X31249290Y27736529D01*
X31255000Y27678556D01*
X31255000Y26423444D01*
X31249290Y26365471D01*
X31234169Y26315622D01*
X31209618Y26269690D01*
X31176574Y26229426D01*
X31136310Y26196382D01*
X31090378Y26171831D01*
X31040529Y26156710D01*
X30982556Y26151000D01*
X29977444Y26151000D01*
X29919471Y26156710D01*
X29869622Y26171831D01*
X29823690Y26196382D01*
X29783426Y26229426D01*
X29750382Y26269690D01*
X29725831Y26315622D01*
X29710710Y26365471D01*
X29705000Y26423444D01*
X29705000Y27678556D01*
X29710710Y27736529D01*
X29725831Y27786378D01*
X29750382Y27832310D01*
X29783426Y27872574D01*
X29823690Y27905618D01*
X29869622Y27930169D01*
X29919471Y27945290D01*
X29977444Y27951000D01*
X30982556Y27951000D01*
X31040529Y27945290D01*
X31040529Y27945290D01*
G37*
G36*
X5208707Y28982404D02*
G01*
X5285836Y28974807D01*
X5483762Y28914767D01*
X5483765Y28914766D01*
X5666170Y28817268D01*
X5826055Y28686055D01*
X5957268Y28526170D01*
X6054766Y28343765D01*
X6054767Y28343762D01*
X6114807Y28145836D01*
X6135080Y27940000D01*
X6114807Y27734164D01*
X6078369Y27614044D01*
X6054766Y27536235D01*
X5957268Y27353830D01*
X5826055Y27193945D01*
X5666170Y27062732D01*
X5483765Y26965234D01*
X5483762Y26965233D01*
X5285836Y26905193D01*
X5208707Y26897597D01*
X5131580Y26890000D01*
X5028420Y26890000D01*
X4951293Y26897597D01*
X4874164Y26905193D01*
X4676238Y26965233D01*
X4676235Y26965234D01*
X4493830Y27062732D01*
X4333945Y27193945D01*
X4202732Y27353830D01*
X4105234Y27536235D01*
X4081631Y27614044D01*
X4045193Y27734164D01*
X4024920Y27940000D01*
X4045193Y28145836D01*
X4105233Y28343762D01*
X4105234Y28343765D01*
X4202732Y28526170D01*
X4333945Y28686055D01*
X4493830Y28817268D01*
X4676235Y28914766D01*
X4676238Y28914767D01*
X4874164Y28974807D01*
X4951293Y28982404D01*
X5028420Y28990000D01*
X5131580Y28990000D01*
X5208707Y28982404D01*
X5208707Y28982404D01*
G37*
G36*
X45848707Y28982404D02*
G01*
X45925836Y28974807D01*
X46123762Y28914767D01*
X46123765Y28914766D01*
X46306170Y28817268D01*
X46466055Y28686055D01*
X46597268Y28526170D01*
X46694766Y28343765D01*
X46694767Y28343762D01*
X46754807Y28145836D01*
X46775080Y27940000D01*
X46754807Y27734164D01*
X46718369Y27614044D01*
X46694766Y27536235D01*
X46597268Y27353830D01*
X46466055Y27193945D01*
X46306170Y27062732D01*
X46123765Y26965234D01*
X46123762Y26965233D01*
X45925836Y26905193D01*
X45848707Y26897597D01*
X45771580Y26890000D01*
X45668420Y26890000D01*
X45591293Y26897597D01*
X45514164Y26905193D01*
X45316238Y26965233D01*
X45316235Y26965234D01*
X45133830Y27062732D01*
X44973945Y27193945D01*
X44842732Y27353830D01*
X44745234Y27536235D01*
X44721631Y27614044D01*
X44685193Y27734164D01*
X44664920Y27940000D01*
X44685193Y28145836D01*
X44745233Y28343762D01*
X44745234Y28343765D01*
X44842732Y28526170D01*
X44973945Y28686055D01*
X45133830Y28817268D01*
X45316235Y28914766D01*
X45316238Y28914767D01*
X45514164Y28974807D01*
X45591293Y28982404D01*
X45668420Y28990000D01*
X45771580Y28990000D01*
X45848707Y28982404D01*
X45848707Y28982404D01*
G37*
G36*
X2668707Y28982404D02*
G01*
X2745836Y28974807D01*
X2943762Y28914767D01*
X2943765Y28914766D01*
X3126170Y28817268D01*
X3286055Y28686055D01*
X3417268Y28526170D01*
X3514766Y28343765D01*
X3514767Y28343762D01*
X3574807Y28145836D01*
X3595080Y27940000D01*
X3574807Y27734164D01*
X3538369Y27614044D01*
X3514766Y27536235D01*
X3417268Y27353830D01*
X3286055Y27193945D01*
X3126170Y27062732D01*
X2943765Y26965234D01*
X2943762Y26965233D01*
X2745836Y26905193D01*
X2668707Y26897597D01*
X2591580Y26890000D01*
X2488420Y26890000D01*
X2411293Y26897597D01*
X2334164Y26905193D01*
X2136238Y26965233D01*
X2136235Y26965234D01*
X1953830Y27062732D01*
X1793945Y27193945D01*
X1662732Y27353830D01*
X1565234Y27536235D01*
X1541631Y27614044D01*
X1505193Y27734164D01*
X1484920Y27940000D01*
X1505193Y28145836D01*
X1565233Y28343762D01*
X1565234Y28343765D01*
X1662732Y28526170D01*
X1793945Y28686055D01*
X1953830Y28817268D01*
X2136235Y28914766D01*
X2136238Y28914767D01*
X2334164Y28974807D01*
X2411293Y28982404D01*
X2488420Y28990000D01*
X2591580Y28990000D01*
X2668707Y28982404D01*
X2668707Y28982404D01*
G37*
G36*
X48388707Y28982404D02*
G01*
X48465836Y28974807D01*
X48663762Y28914767D01*
X48663765Y28914766D01*
X48846170Y28817268D01*
X49006055Y28686055D01*
X49137268Y28526170D01*
X49234766Y28343765D01*
X49234767Y28343762D01*
X49294807Y28145836D01*
X49315080Y27940000D01*
X49294807Y27734164D01*
X49258369Y27614044D01*
X49234766Y27536235D01*
X49137268Y27353830D01*
X49006055Y27193945D01*
X48846170Y27062732D01*
X48663765Y26965234D01*
X48663762Y26965233D01*
X48465836Y26905193D01*
X48388707Y26897597D01*
X48311580Y26890000D01*
X48208420Y26890000D01*
X48131293Y26897597D01*
X48054164Y26905193D01*
X47856238Y26965233D01*
X47856235Y26965234D01*
X47673830Y27062732D01*
X47513945Y27193945D01*
X47382732Y27353830D01*
X47285234Y27536235D01*
X47261631Y27614044D01*
X47225193Y27734164D01*
X47204920Y27940000D01*
X47225193Y28145836D01*
X47285233Y28343762D01*
X47285234Y28343765D01*
X47382732Y28526170D01*
X47513945Y28686055D01*
X47673830Y28817268D01*
X47856235Y28914766D01*
X47856238Y28914767D01*
X48054164Y28974807D01*
X48131293Y28982404D01*
X48208420Y28990000D01*
X48311580Y28990000D01*
X48388707Y28982404D01*
X48388707Y28982404D01*
G37*
G36*
X10845529Y28564290D02*
G01*
X10895378Y28549169D01*
X10941310Y28524618D01*
X10981574Y28491574D01*
X11014618Y28451310D01*
X11039169Y28405378D01*
X11054290Y28355529D01*
X11060000Y28297556D01*
X11060000Y27292444D01*
X11054290Y27234471D01*
X11039169Y27184622D01*
X11014618Y27138690D01*
X10981574Y27098426D01*
X10941310Y27065382D01*
X10895378Y27040831D01*
X10845529Y27025710D01*
X10787556Y27020000D01*
X9532444Y27020000D01*
X9474471Y27025710D01*
X9424622Y27040831D01*
X9378690Y27065382D01*
X9338426Y27098426D01*
X9305382Y27138690D01*
X9280831Y27184622D01*
X9265710Y27234471D01*
X9260000Y27292444D01*
X9260000Y28297556D01*
X9265710Y28355529D01*
X9280831Y28405378D01*
X9305382Y28451310D01*
X9338426Y28491574D01*
X9378690Y28524618D01*
X9424622Y28549169D01*
X9474471Y28564290D01*
X9532444Y28570000D01*
X10787556Y28570000D01*
X10845529Y28564290D01*
X10845529Y28564290D01*
G37*
G36*
X43495529Y28834290D02*
G01*
X43545378Y28819169D01*
X43591310Y28794618D01*
X43631574Y28761574D01*
X43664618Y28721310D01*
X43689169Y28675378D01*
X43704290Y28625529D01*
X43710000Y28567556D01*
X43710000Y27312444D01*
X43704290Y27254471D01*
X43689169Y27204622D01*
X43664618Y27158690D01*
X43631574Y27118426D01*
X43591310Y27085382D01*
X43545378Y27060831D01*
X43495529Y27045710D01*
X43437556Y27040000D01*
X42432444Y27040000D01*
X42374471Y27045710D01*
X42324622Y27060831D01*
X42278690Y27085382D01*
X42238426Y27118426D01*
X42205382Y27158690D01*
X42180831Y27204622D01*
X42165710Y27254471D01*
X42160000Y27312444D01*
X42160000Y28567556D01*
X42165710Y28625529D01*
X42180831Y28675378D01*
X42205382Y28721310D01*
X42238426Y28761574D01*
X42278690Y28794618D01*
X42324622Y28819169D01*
X42374471Y28834290D01*
X42432444Y28840000D01*
X43437556Y28840000D01*
X43495529Y28834290D01*
X43495529Y28834290D01*
G37*
G36*
X41445529Y28834290D02*
G01*
X41495378Y28819169D01*
X41541310Y28794618D01*
X41581574Y28761574D01*
X41614618Y28721310D01*
X41639169Y28675378D01*
X41654290Y28625529D01*
X41660000Y28567556D01*
X41660000Y27312444D01*
X41654290Y27254471D01*
X41639169Y27204622D01*
X41614618Y27158690D01*
X41581574Y27118426D01*
X41541310Y27085382D01*
X41495378Y27060831D01*
X41445529Y27045710D01*
X41387556Y27040000D01*
X40382444Y27040000D01*
X40324471Y27045710D01*
X40274622Y27060831D01*
X40228690Y27085382D01*
X40188426Y27118426D01*
X40155382Y27158690D01*
X40130831Y27204622D01*
X40115710Y27254471D01*
X40110000Y27312444D01*
X40110000Y28567556D01*
X40115710Y28625529D01*
X40130831Y28675378D01*
X40155382Y28721310D01*
X40188426Y28761574D01*
X40228690Y28794618D01*
X40274622Y28819169D01*
X40324471Y28834290D01*
X40382444Y28840000D01*
X41387556Y28840000D01*
X41445529Y28834290D01*
X41445529Y28834290D01*
G37*
G36*
X24815529Y32274290D02*
G01*
X24865378Y32259169D01*
X24911310Y32234618D01*
X24951574Y32201574D01*
X24984618Y32161310D01*
X25009169Y32115378D01*
X25024290Y32065529D01*
X25030000Y32007556D01*
X25030000Y31002444D01*
X25024290Y30944471D01*
X25009169Y30894622D01*
X24984618Y30848690D01*
X24951574Y30808426D01*
X24911310Y30775382D01*
X24865378Y30750831D01*
X24815529Y30735710D01*
X24757556Y30730000D01*
X23502444Y30730000D01*
X23444471Y30735710D01*
X23394622Y30750831D01*
X23348690Y30775382D01*
X23308426Y30808426D01*
X23268854Y30856645D01*
X23266632Y30859971D01*
X23249307Y30877300D01*
X23228934Y30890916D01*
X23206296Y30900295D01*
X23182263Y30905078D01*
X23157759Y30905080D01*
X23133725Y30900302D01*
X23111086Y30890927D01*
X23090710Y30877315D01*
X23073381Y30859990D01*
X23059765Y30839617D01*
X23050386Y30816979D01*
X23045603Y30792946D01*
X23045000Y30780682D01*
X23045000Y30179318D01*
X23047402Y30154932D01*
X23054515Y30131483D01*
X23066066Y30109872D01*
X23081611Y30090930D01*
X23100553Y30075385D01*
X23122164Y30063834D01*
X23145613Y30056721D01*
X23169999Y30054319D01*
X23194385Y30056721D01*
X23217834Y30063834D01*
X23239445Y30075385D01*
X23258387Y30090930D01*
X23267411Y30101925D01*
X23267572Y30101793D01*
X23308426Y30151574D01*
X23348690Y30184618D01*
X23394622Y30209169D01*
X23444471Y30224290D01*
X23502444Y30230000D01*
X24757556Y30230000D01*
X24815529Y30224290D01*
X24865378Y30209169D01*
X24911310Y30184618D01*
X24951574Y30151574D01*
X24984618Y30111310D01*
X25009169Y30065378D01*
X25024290Y30015529D01*
X25030000Y29957556D01*
X25030000Y28952444D01*
X25024290Y28894471D01*
X25009169Y28844622D01*
X24984618Y28798690D01*
X24951574Y28758426D01*
X24911310Y28725382D01*
X24865378Y28700831D01*
X24815529Y28685710D01*
X24757556Y28680000D01*
X23502444Y28680000D01*
X23444471Y28685710D01*
X23394622Y28700831D01*
X23348690Y28725382D01*
X23308426Y28758426D01*
X23268854Y28806645D01*
X23266632Y28809971D01*
X23249307Y28827300D01*
X23228934Y28840916D01*
X23206296Y28850295D01*
X23182263Y28855078D01*
X23157759Y28855080D01*
X23133725Y28850302D01*
X23111086Y28840927D01*
X23090710Y28827315D01*
X23073381Y28809990D01*
X23059765Y28789617D01*
X23050386Y28766979D01*
X23045603Y28742946D01*
X23045000Y28730682D01*
X23045000Y28710000D01*
X20645000Y28710000D01*
X20645000Y29710000D01*
X23105001Y29710000D01*
X23129387Y29712402D01*
X23152836Y29719515D01*
X23174447Y29731066D01*
X23193389Y29746611D01*
X23208934Y29765553D01*
X23220485Y29787164D01*
X23227598Y29810613D01*
X23230000Y29834999D01*
X23230000Y29855001D01*
X23227598Y29879387D01*
X23220485Y29902836D01*
X23208934Y29924447D01*
X23193389Y29943389D01*
X23174447Y29958934D01*
X23152836Y29970485D01*
X23129387Y29977598D01*
X23105001Y29980000D01*
X20645000Y29980000D01*
X20645000Y30980000D01*
X23105001Y30980000D01*
X23129387Y30982402D01*
X23152836Y30989515D01*
X23174447Y31001066D01*
X23193389Y31016611D01*
X23208934Y31035553D01*
X23220485Y31057164D01*
X23227598Y31080613D01*
X23230000Y31104999D01*
X23230000Y31125001D01*
X23227598Y31149387D01*
X23220485Y31172836D01*
X23208934Y31194447D01*
X23193389Y31213389D01*
X23174447Y31228934D01*
X23152836Y31240485D01*
X23129387Y31247598D01*
X23105001Y31250000D01*
X20645000Y31250000D01*
X20645000Y32250000D01*
X23045000Y32250000D01*
X23045000Y32229318D01*
X23047402Y32204932D01*
X23054515Y32181483D01*
X23066066Y32159872D01*
X23081611Y32140930D01*
X23100553Y32125385D01*
X23122164Y32113834D01*
X23145613Y32106721D01*
X23169999Y32104319D01*
X23194385Y32106721D01*
X23217834Y32113834D01*
X23239445Y32125385D01*
X23258387Y32140930D01*
X23267411Y32151925D01*
X23267572Y32151793D01*
X23308426Y32201574D01*
X23348690Y32234618D01*
X23394622Y32259169D01*
X23444471Y32274290D01*
X23502444Y32280000D01*
X24757556Y32280000D01*
X24815529Y32274290D01*
X24815529Y32274290D01*
G37*
G36*
X30155000Y28710000D02*
G01*
X27755000Y28710000D01*
X27755000Y29710000D01*
X30155000Y29710000D01*
X30155000Y28710000D01*
X30155000Y28710000D01*
G37*
G36*
X39555000Y28710000D02*
G01*
X37155000Y28710000D01*
X37155000Y29710000D01*
X39555000Y29710000D01*
X39555000Y28710000D01*
X39555000Y28710000D01*
G37*
G36*
X13645000Y29980000D02*
G01*
X11184999Y29980000D01*
X11160613Y29977598D01*
X11137164Y29970485D01*
X11115553Y29958934D01*
X11096611Y29943389D01*
X11081066Y29924447D01*
X11069515Y29902836D01*
X11062402Y29879387D01*
X11060000Y29855001D01*
X11060000Y29834999D01*
X11062402Y29810613D01*
X11069515Y29787164D01*
X11081066Y29765553D01*
X11096611Y29746611D01*
X11115553Y29731066D01*
X11137164Y29719515D01*
X11160613Y29712402D01*
X11184999Y29710000D01*
X13645000Y29710000D01*
X13645000Y28710000D01*
X11245000Y28710000D01*
X11245000Y29120682D01*
X11242598Y29145068D01*
X11235485Y29168517D01*
X11223934Y29190128D01*
X11208389Y29209070D01*
X11189447Y29224615D01*
X11167836Y29236166D01*
X11144387Y29243279D01*
X11120001Y29245681D01*
X11095615Y29243279D01*
X11072166Y29236166D01*
X11050555Y29224615D01*
X11031613Y29209070D01*
X11022589Y29198075D01*
X11022428Y29198207D01*
X10981574Y29148426D01*
X10941310Y29115382D01*
X10895378Y29090831D01*
X10845529Y29075710D01*
X10787556Y29070000D01*
X9532444Y29070000D01*
X9474471Y29075710D01*
X9424622Y29090831D01*
X9378690Y29115382D01*
X9338426Y29148426D01*
X9305382Y29188690D01*
X9280831Y29234622D01*
X9265710Y29284471D01*
X9260000Y29342444D01*
X9260000Y30347556D01*
X9265710Y30405529D01*
X9280831Y30455378D01*
X9305382Y30501310D01*
X9338426Y30541574D01*
X9378690Y30574618D01*
X9424622Y30599169D01*
X9474471Y30614290D01*
X9532444Y30620000D01*
X10787556Y30620000D01*
X10845529Y30614290D01*
X10895378Y30599169D01*
X10941310Y30574618D01*
X10981574Y30541574D01*
X11021146Y30493355D01*
X11023368Y30490029D01*
X11040693Y30472700D01*
X11061066Y30459084D01*
X11083704Y30449705D01*
X11107737Y30444922D01*
X11132241Y30444920D01*
X11156275Y30449698D01*
X11178914Y30459073D01*
X11199290Y30472685D01*
X11216619Y30490010D01*
X11230235Y30510383D01*
X11239614Y30533021D01*
X11244397Y30557054D01*
X11245000Y30569318D01*
X11245000Y30980000D01*
X13645000Y30980000D01*
X13645000Y29980000D01*
X13645000Y29980000D01*
G37*
G36*
X48388707Y31522403D02*
G01*
X48465836Y31514807D01*
X48663762Y31454767D01*
X48663765Y31454766D01*
X48846170Y31357268D01*
X49006055Y31226055D01*
X49137268Y31066170D01*
X49234766Y30883765D01*
X49234767Y30883762D01*
X49294807Y30685836D01*
X49315080Y30480000D01*
X49294807Y30274164D01*
X49266036Y30179318D01*
X49234766Y30076235D01*
X49137268Y29893830D01*
X49006055Y29733945D01*
X48846170Y29602732D01*
X48663765Y29505234D01*
X48663762Y29505233D01*
X48465836Y29445193D01*
X48388707Y29437597D01*
X48311580Y29430000D01*
X48208420Y29430000D01*
X48131293Y29437597D01*
X48054164Y29445193D01*
X47856238Y29505233D01*
X47856235Y29505234D01*
X47673830Y29602732D01*
X47513945Y29733945D01*
X47382732Y29893830D01*
X47285234Y30076235D01*
X47253964Y30179318D01*
X47225193Y30274164D01*
X47204920Y30480000D01*
X47225193Y30685836D01*
X47285233Y30883762D01*
X47285234Y30883765D01*
X47382732Y31066170D01*
X47513945Y31226055D01*
X47673830Y31357268D01*
X47856235Y31454766D01*
X47856238Y31454767D01*
X48054164Y31514807D01*
X48131293Y31522403D01*
X48208420Y31530000D01*
X48311580Y31530000D01*
X48388707Y31522403D01*
X48388707Y31522403D01*
G37*
G36*
X45848707Y31522403D02*
G01*
X45925836Y31514807D01*
X46123762Y31454767D01*
X46123765Y31454766D01*
X46306170Y31357268D01*
X46466055Y31226055D01*
X46597268Y31066170D01*
X46694766Y30883765D01*
X46694767Y30883762D01*
X46754807Y30685836D01*
X46775080Y30480000D01*
X46754807Y30274164D01*
X46726036Y30179318D01*
X46694766Y30076235D01*
X46597268Y29893830D01*
X46466055Y29733945D01*
X46306170Y29602732D01*
X46123765Y29505234D01*
X46123762Y29505233D01*
X45925836Y29445193D01*
X45848707Y29437597D01*
X45771580Y29430000D01*
X45668420Y29430000D01*
X45591293Y29437597D01*
X45514164Y29445193D01*
X45316238Y29505233D01*
X45316235Y29505234D01*
X45133830Y29602732D01*
X44973945Y29733945D01*
X44842732Y29893830D01*
X44745234Y30076235D01*
X44713964Y30179318D01*
X44685193Y30274164D01*
X44664920Y30480000D01*
X44685193Y30685836D01*
X44745233Y30883762D01*
X44745234Y30883765D01*
X44842732Y31066170D01*
X44973945Y31226055D01*
X45133830Y31357268D01*
X45316235Y31454766D01*
X45316238Y31454767D01*
X45514164Y31514807D01*
X45591293Y31522403D01*
X45668420Y31530000D01*
X45771580Y31530000D01*
X45848707Y31522403D01*
X45848707Y31522403D01*
G37*
G36*
X5208707Y31522403D02*
G01*
X5285836Y31514807D01*
X5483762Y31454767D01*
X5483765Y31454766D01*
X5666170Y31357268D01*
X5826055Y31226055D01*
X5957268Y31066170D01*
X6054766Y30883765D01*
X6054767Y30883762D01*
X6114807Y30685836D01*
X6135080Y30480000D01*
X6114807Y30274164D01*
X6086036Y30179318D01*
X6054766Y30076235D01*
X5957268Y29893830D01*
X5826055Y29733945D01*
X5666170Y29602732D01*
X5483765Y29505234D01*
X5483762Y29505233D01*
X5285836Y29445193D01*
X5208707Y29437597D01*
X5131580Y29430000D01*
X5028420Y29430000D01*
X4951293Y29437597D01*
X4874164Y29445193D01*
X4676238Y29505233D01*
X4676235Y29505234D01*
X4493830Y29602732D01*
X4333945Y29733945D01*
X4202732Y29893830D01*
X4105234Y30076235D01*
X4073964Y30179318D01*
X4045193Y30274164D01*
X4024920Y30480000D01*
X4045193Y30685836D01*
X4105233Y30883762D01*
X4105234Y30883765D01*
X4202732Y31066170D01*
X4333945Y31226055D01*
X4493830Y31357268D01*
X4676235Y31454766D01*
X4676238Y31454767D01*
X4874164Y31514807D01*
X4951293Y31522403D01*
X5028420Y31530000D01*
X5131580Y31530000D01*
X5208707Y31522403D01*
X5208707Y31522403D01*
G37*
G36*
X2668707Y31522403D02*
G01*
X2745836Y31514807D01*
X2943762Y31454767D01*
X2943765Y31454766D01*
X3126170Y31357268D01*
X3286055Y31226055D01*
X3417268Y31066170D01*
X3514766Y30883765D01*
X3514767Y30883762D01*
X3574807Y30685836D01*
X3595080Y30480000D01*
X3574807Y30274164D01*
X3546036Y30179318D01*
X3514766Y30076235D01*
X3417268Y29893830D01*
X3286055Y29733945D01*
X3126170Y29602732D01*
X2943765Y29505234D01*
X2943762Y29505233D01*
X2745836Y29445193D01*
X2668707Y29437597D01*
X2591580Y29430000D01*
X2488420Y29430000D01*
X2411293Y29437597D01*
X2334164Y29445193D01*
X2136238Y29505233D01*
X2136235Y29505234D01*
X1953830Y29602732D01*
X1793945Y29733945D01*
X1662732Y29893830D01*
X1565234Y30076235D01*
X1533964Y30179318D01*
X1505193Y30274164D01*
X1484920Y30480000D01*
X1505193Y30685836D01*
X1565233Y30883762D01*
X1565234Y30883765D01*
X1662732Y31066170D01*
X1793945Y31226055D01*
X1953830Y31357268D01*
X2136235Y31454766D01*
X2136238Y31454767D01*
X2334164Y31514807D01*
X2411293Y31522403D01*
X2488420Y31530000D01*
X2591580Y31530000D01*
X2668707Y31522403D01*
X2668707Y31522403D01*
G37*
G36*
X39555000Y29980000D02*
G01*
X37155000Y29980000D01*
X37155000Y30980000D01*
X39555000Y30980000D01*
X39555000Y29980000D01*
X39555000Y29980000D01*
G37*
G36*
X30155000Y29980000D02*
G01*
X27755000Y29980000D01*
X27755000Y30980000D01*
X30155000Y30980000D01*
X30155000Y29980000D01*
X30155000Y29980000D01*
G37*
G36*
X39555000Y31250000D02*
G01*
X37155000Y31250000D01*
X37155000Y32250000D01*
X39555000Y32250000D01*
X39555000Y31250000D01*
X39555000Y31250000D01*
G37*
G36*
X30155000Y31250000D02*
G01*
X27755000Y31250000D01*
X27755000Y32250000D01*
X30155000Y32250000D01*
X30155000Y31250000D01*
X30155000Y31250000D01*
G37*
G36*
X13645000Y31250000D02*
G01*
X11245000Y31250000D01*
X11245000Y32250000D01*
X13645000Y32250000D01*
X13645000Y31250000D01*
X13645000Y31250000D01*
G37*
G36*
X5208707Y34062404D02*
G01*
X5285836Y34054807D01*
X5483762Y33994767D01*
X5483765Y33994766D01*
X5666170Y33897268D01*
X5826055Y33766055D01*
X5957268Y33606170D01*
X6054766Y33423765D01*
X6054767Y33423762D01*
X6114807Y33225836D01*
X6135080Y33020000D01*
X6114807Y32814164D01*
X6054767Y32616238D01*
X6054766Y32616235D01*
X5957268Y32433830D01*
X5826055Y32273945D01*
X5666170Y32142732D01*
X5483765Y32045234D01*
X5483762Y32045233D01*
X5285836Y31985193D01*
X5208707Y31977597D01*
X5131580Y31970000D01*
X5028420Y31970000D01*
X4951293Y31977597D01*
X4874164Y31985193D01*
X4676238Y32045233D01*
X4676235Y32045234D01*
X4493830Y32142732D01*
X4333945Y32273945D01*
X4202732Y32433830D01*
X4105234Y32616235D01*
X4105233Y32616238D01*
X4045193Y32814164D01*
X4024920Y33020000D01*
X4045193Y33225836D01*
X4105233Y33423762D01*
X4105234Y33423765D01*
X4202732Y33606170D01*
X4333945Y33766055D01*
X4493830Y33897268D01*
X4676235Y33994766D01*
X4676238Y33994767D01*
X4874164Y34054807D01*
X4951293Y34062404D01*
X5028420Y34070000D01*
X5131580Y34070000D01*
X5208707Y34062404D01*
X5208707Y34062404D01*
G37*
G36*
X45848707Y34062404D02*
G01*
X45925836Y34054807D01*
X46123762Y33994767D01*
X46123765Y33994766D01*
X46306170Y33897268D01*
X46466055Y33766055D01*
X46597268Y33606170D01*
X46694766Y33423765D01*
X46694767Y33423762D01*
X46754807Y33225836D01*
X46775080Y33020000D01*
X46754807Y32814164D01*
X46694767Y32616238D01*
X46694766Y32616235D01*
X46597268Y32433830D01*
X46466055Y32273945D01*
X46306170Y32142732D01*
X46123765Y32045234D01*
X46123762Y32045233D01*
X45925836Y31985193D01*
X45848707Y31977597D01*
X45771580Y31970000D01*
X45668420Y31970000D01*
X45591293Y31977597D01*
X45514164Y31985193D01*
X45316238Y32045233D01*
X45316235Y32045234D01*
X45133830Y32142732D01*
X44973945Y32273945D01*
X44842732Y32433830D01*
X44745234Y32616235D01*
X44745233Y32616238D01*
X44685193Y32814164D01*
X44664920Y33020000D01*
X44685193Y33225836D01*
X44745233Y33423762D01*
X44745234Y33423765D01*
X44842732Y33606170D01*
X44973945Y33766055D01*
X45133830Y33897268D01*
X45316235Y33994766D01*
X45316238Y33994767D01*
X45514164Y34054807D01*
X45591293Y34062404D01*
X45668420Y34070000D01*
X45771580Y34070000D01*
X45848707Y34062404D01*
X45848707Y34062404D01*
G37*
G36*
X48388707Y34062404D02*
G01*
X48465836Y34054807D01*
X48663762Y33994767D01*
X48663765Y33994766D01*
X48846170Y33897268D01*
X49006055Y33766055D01*
X49137268Y33606170D01*
X49234766Y33423765D01*
X49234767Y33423762D01*
X49294807Y33225836D01*
X49315080Y33020000D01*
X49294807Y32814164D01*
X49234767Y32616238D01*
X49234766Y32616235D01*
X49137268Y32433830D01*
X49006055Y32273945D01*
X48846170Y32142732D01*
X48663765Y32045234D01*
X48663762Y32045233D01*
X48465836Y31985193D01*
X48388707Y31977597D01*
X48311580Y31970000D01*
X48208420Y31970000D01*
X48131293Y31977597D01*
X48054164Y31985193D01*
X47856238Y32045233D01*
X47856235Y32045234D01*
X47673830Y32142732D01*
X47513945Y32273945D01*
X47382732Y32433830D01*
X47285234Y32616235D01*
X47285233Y32616238D01*
X47225193Y32814164D01*
X47204920Y33020000D01*
X47225193Y33225836D01*
X47285233Y33423762D01*
X47285234Y33423765D01*
X47382732Y33606170D01*
X47513945Y33766055D01*
X47673830Y33897268D01*
X47856235Y33994766D01*
X47856238Y33994767D01*
X48054164Y34054807D01*
X48131293Y34062404D01*
X48208420Y34070000D01*
X48311580Y34070000D01*
X48388707Y34062404D01*
X48388707Y34062404D01*
G37*
G36*
X2668707Y34062404D02*
G01*
X2745836Y34054807D01*
X2943762Y33994767D01*
X2943765Y33994766D01*
X3126170Y33897268D01*
X3286055Y33766055D01*
X3417268Y33606170D01*
X3514766Y33423765D01*
X3514767Y33423762D01*
X3574807Y33225836D01*
X3595080Y33020000D01*
X3574807Y32814164D01*
X3514767Y32616238D01*
X3514766Y32616235D01*
X3417268Y32433830D01*
X3286055Y32273945D01*
X3126170Y32142732D01*
X2943765Y32045234D01*
X2943762Y32045233D01*
X2745836Y31985193D01*
X2668707Y31977597D01*
X2591580Y31970000D01*
X2488420Y31970000D01*
X2411293Y31977597D01*
X2334164Y31985193D01*
X2136238Y32045233D01*
X2136235Y32045234D01*
X1953830Y32142732D01*
X1793945Y32273945D01*
X1662732Y32433830D01*
X1565234Y32616235D01*
X1565233Y32616238D01*
X1505193Y32814164D01*
X1484920Y33020000D01*
X1505193Y33225836D01*
X1565233Y33423762D01*
X1565234Y33423765D01*
X1662732Y33606170D01*
X1793945Y33766055D01*
X1953830Y33897268D01*
X2136235Y33994766D01*
X2136238Y33994767D01*
X2334164Y34054807D01*
X2411293Y34062404D01*
X2488420Y34070000D01*
X2591580Y34070000D01*
X2668707Y34062404D01*
X2668707Y34062404D01*
G37*
G36*
X23045000Y32520000D02*
G01*
X20645000Y32520000D01*
X20645000Y33520000D01*
X23045000Y33520000D01*
X23045000Y32520000D01*
X23045000Y32520000D01*
G37*
G36*
X39555000Y32520000D02*
G01*
X37155000Y32520000D01*
X37155000Y33520000D01*
X39555000Y33520000D01*
X39555000Y32520000D01*
X39555000Y32520000D01*
G37*
G36*
X30155000Y32520000D02*
G01*
X27755000Y32520000D01*
X27755000Y33520000D01*
X30155000Y33520000D01*
X30155000Y32520000D01*
X30155000Y32520000D01*
G37*
G36*
X13645000Y32520000D02*
G01*
X11245000Y32520000D01*
X11245000Y33520000D01*
X13645000Y33520000D01*
X13645000Y32520000D01*
X13645000Y32520000D01*
G37*
G36*
X30155000Y33790000D02*
G01*
X27755000Y33790000D01*
X27755000Y34790000D01*
X30155000Y34790000D01*
X30155000Y33790000D01*
X30155000Y33790000D01*
G37*
G36*
X23045000Y33790000D02*
G01*
X20645000Y33790000D01*
X20645000Y34790000D01*
X23045000Y34790000D01*
X23045000Y33790000D01*
X23045000Y33790000D01*
G37*
G36*
X39555000Y33790000D02*
G01*
X37155000Y33790000D01*
X37155000Y34790000D01*
X39555000Y34790000D01*
X39555000Y33790000D01*
X39555000Y33790000D01*
G37*
G36*
X13645000Y33790000D02*
G01*
X11245000Y33790000D01*
X11245000Y34790000D01*
X13645000Y34790000D01*
X13645000Y33790000D01*
X13645000Y33790000D01*
G37*
G36*
X5208707Y36602403D02*
G01*
X5285836Y36594807D01*
X5483762Y36534767D01*
X5483765Y36534766D01*
X5666170Y36437268D01*
X5826055Y36306055D01*
X5957268Y36146170D01*
X6054766Y35963765D01*
X6054767Y35963762D01*
X6114807Y35765836D01*
X6135080Y35560000D01*
X6114807Y35354164D01*
X6054767Y35156238D01*
X6054766Y35156235D01*
X5957268Y34973830D01*
X5826055Y34813945D01*
X5666170Y34682732D01*
X5483765Y34585234D01*
X5483762Y34585233D01*
X5285836Y34525193D01*
X5208707Y34517597D01*
X5131580Y34510000D01*
X5028420Y34510000D01*
X4951293Y34517596D01*
X4874164Y34525193D01*
X4676238Y34585233D01*
X4676235Y34585234D01*
X4493830Y34682732D01*
X4333945Y34813945D01*
X4202732Y34973830D01*
X4105234Y35156235D01*
X4105233Y35156238D01*
X4045193Y35354164D01*
X4024920Y35560000D01*
X4045193Y35765836D01*
X4105233Y35963762D01*
X4105234Y35963765D01*
X4202732Y36146170D01*
X4333945Y36306055D01*
X4493830Y36437268D01*
X4676235Y36534766D01*
X4676238Y36534767D01*
X4874164Y36594807D01*
X4951293Y36602403D01*
X5028420Y36610000D01*
X5131580Y36610000D01*
X5208707Y36602403D01*
X5208707Y36602403D01*
G37*
G36*
X48388707Y36602403D02*
G01*
X48465836Y36594807D01*
X48663762Y36534767D01*
X48663765Y36534766D01*
X48846170Y36437268D01*
X49006055Y36306055D01*
X49137268Y36146170D01*
X49234766Y35963765D01*
X49234767Y35963762D01*
X49294807Y35765836D01*
X49315080Y35560000D01*
X49294807Y35354164D01*
X49234767Y35156238D01*
X49234766Y35156235D01*
X49137268Y34973830D01*
X49006055Y34813945D01*
X48846170Y34682732D01*
X48663765Y34585234D01*
X48663762Y34585233D01*
X48465836Y34525193D01*
X48388707Y34517597D01*
X48311580Y34510000D01*
X48208420Y34510000D01*
X48131293Y34517596D01*
X48054164Y34525193D01*
X47856238Y34585233D01*
X47856235Y34585234D01*
X47673830Y34682732D01*
X47513945Y34813945D01*
X47382732Y34973830D01*
X47285234Y35156235D01*
X47285233Y35156238D01*
X47225193Y35354164D01*
X47204920Y35560000D01*
X47225193Y35765836D01*
X47285233Y35963762D01*
X47285234Y35963765D01*
X47382732Y36146170D01*
X47513945Y36306055D01*
X47673830Y36437268D01*
X47856235Y36534766D01*
X47856238Y36534767D01*
X48054164Y36594807D01*
X48131293Y36602403D01*
X48208420Y36610000D01*
X48311580Y36610000D01*
X48388707Y36602403D01*
X48388707Y36602403D01*
G37*
G36*
X45848707Y36602403D02*
G01*
X45925836Y36594807D01*
X46123762Y36534767D01*
X46123765Y36534766D01*
X46306170Y36437268D01*
X46466055Y36306055D01*
X46597268Y36146170D01*
X46694766Y35963765D01*
X46694767Y35963762D01*
X46754807Y35765836D01*
X46775080Y35560000D01*
X46754807Y35354164D01*
X46694767Y35156238D01*
X46694766Y35156235D01*
X46597268Y34973830D01*
X46466055Y34813945D01*
X46306170Y34682732D01*
X46123765Y34585234D01*
X46123762Y34585233D01*
X45925836Y34525193D01*
X45848707Y34517597D01*
X45771580Y34510000D01*
X45668420Y34510000D01*
X45591293Y34517596D01*
X45514164Y34525193D01*
X45316238Y34585233D01*
X45316235Y34585234D01*
X45133830Y34682732D01*
X44973945Y34813945D01*
X44842732Y34973830D01*
X44745234Y35156235D01*
X44745233Y35156238D01*
X44685193Y35354164D01*
X44664920Y35560000D01*
X44685193Y35765836D01*
X44745233Y35963762D01*
X44745234Y35963765D01*
X44842732Y36146170D01*
X44973945Y36306055D01*
X45133830Y36437268D01*
X45316235Y36534766D01*
X45316238Y36534767D01*
X45514164Y36594807D01*
X45591293Y36602403D01*
X45668420Y36610000D01*
X45771580Y36610000D01*
X45848707Y36602403D01*
X45848707Y36602403D01*
G37*
G36*
X2668707Y36602403D02*
G01*
X2745836Y36594807D01*
X2943762Y36534767D01*
X2943765Y36534766D01*
X3126170Y36437268D01*
X3286055Y36306055D01*
X3417268Y36146170D01*
X3514766Y35963765D01*
X3514767Y35963762D01*
X3574807Y35765836D01*
X3595080Y35560000D01*
X3574807Y35354164D01*
X3514767Y35156238D01*
X3514766Y35156235D01*
X3417268Y34973830D01*
X3286055Y34813945D01*
X3126170Y34682732D01*
X2943765Y34585234D01*
X2943762Y34585233D01*
X2745836Y34525193D01*
X2668707Y34517597D01*
X2591580Y34510000D01*
X2488420Y34510000D01*
X2411293Y34517596D01*
X2334164Y34525193D01*
X2136238Y34585233D01*
X2136235Y34585234D01*
X1953830Y34682732D01*
X1793945Y34813945D01*
X1662732Y34973830D01*
X1565234Y35156235D01*
X1565233Y35156238D01*
X1505193Y35354164D01*
X1484920Y35560000D01*
X1505193Y35765836D01*
X1565233Y35963762D01*
X1565234Y35963765D01*
X1662732Y36146170D01*
X1793945Y36306055D01*
X1953830Y36437268D01*
X2136235Y36534766D01*
X2136238Y36534767D01*
X2334164Y36594807D01*
X2411293Y36602403D01*
X2488420Y36610000D01*
X2591580Y36610000D01*
X2668707Y36602403D01*
X2668707Y36602403D01*
G37*
G36*
X30155000Y35060000D02*
G01*
X27755000Y35060000D01*
X27755000Y36060000D01*
X30155000Y36060000D01*
X30155000Y35060000D01*
X30155000Y35060000D01*
G37*
G36*
X39555000Y35060000D02*
G01*
X37155000Y35060000D01*
X37155000Y36060000D01*
X39555000Y36060000D01*
X39555000Y35060000D01*
X39555000Y35060000D01*
G37*
G36*
X13645000Y35060000D02*
G01*
X11245000Y35060000D01*
X11245000Y36060000D01*
X13645000Y36060000D01*
X13645000Y35060000D01*
X13645000Y35060000D01*
G37*
G36*
X23045000Y35060000D02*
G01*
X20645000Y35060000D01*
X20645000Y36060000D01*
X23045000Y36060000D01*
X23045000Y35060000D01*
X23045000Y35060000D01*
G37*
G36*
X30155000Y36330000D02*
G01*
X27755000Y36330000D01*
X27755000Y37330000D01*
X30155000Y37330000D01*
X30155000Y36330000D01*
X30155000Y36330000D01*
G37*
G36*
X13645000Y36330000D02*
G01*
X11245000Y36330000D01*
X11245000Y37330000D01*
X13645000Y37330000D01*
X13645000Y36330000D01*
X13645000Y36330000D01*
G37*
G36*
X39555000Y36330000D02*
G01*
X37155000Y36330000D01*
X37155000Y37330000D01*
X39555000Y37330000D01*
X39555000Y36330000D01*
X39555000Y36330000D01*
G37*
G36*
X23045000Y36330000D02*
G01*
X20645000Y36330000D01*
X20645000Y37330000D01*
X23045000Y37330000D01*
X23045000Y36330000D01*
X23045000Y36330000D01*
G37*
G36*
X48388707Y39142404D02*
G01*
X48465836Y39134807D01*
X48663762Y39074767D01*
X48663765Y39074766D01*
X48846170Y38977268D01*
X49006055Y38846055D01*
X49137268Y38686170D01*
X49234766Y38503765D01*
X49234767Y38503762D01*
X49294807Y38305836D01*
X49315080Y38100000D01*
X49294807Y37894164D01*
X49234767Y37696238D01*
X49234766Y37696235D01*
X49137268Y37513830D01*
X49006055Y37353945D01*
X48846170Y37222732D01*
X48663765Y37125234D01*
X48663762Y37125233D01*
X48465836Y37065193D01*
X48388707Y37057597D01*
X48311580Y37050000D01*
X48208420Y37050000D01*
X48131293Y37057597D01*
X48054164Y37065193D01*
X47856238Y37125233D01*
X47856235Y37125234D01*
X47673830Y37222732D01*
X47513945Y37353945D01*
X47382732Y37513830D01*
X47285234Y37696235D01*
X47285233Y37696238D01*
X47225193Y37894164D01*
X47204920Y38100000D01*
X47225193Y38305836D01*
X47285233Y38503762D01*
X47285234Y38503765D01*
X47382732Y38686170D01*
X47513945Y38846055D01*
X47673830Y38977268D01*
X47856235Y39074766D01*
X47856238Y39074767D01*
X48054164Y39134807D01*
X48131293Y39142403D01*
X48208420Y39150000D01*
X48311580Y39150000D01*
X48388707Y39142404D01*
X48388707Y39142404D01*
G37*
G36*
X45848707Y39142404D02*
G01*
X45925836Y39134807D01*
X46123762Y39074767D01*
X46123765Y39074766D01*
X46306170Y38977268D01*
X46466055Y38846055D01*
X46597268Y38686170D01*
X46694766Y38503765D01*
X46694767Y38503762D01*
X46754807Y38305836D01*
X46775080Y38100000D01*
X46754807Y37894164D01*
X46694767Y37696238D01*
X46694766Y37696235D01*
X46597268Y37513830D01*
X46466055Y37353945D01*
X46306170Y37222732D01*
X46123765Y37125234D01*
X46123762Y37125233D01*
X45925836Y37065193D01*
X45848707Y37057597D01*
X45771580Y37050000D01*
X45668420Y37050000D01*
X45591293Y37057597D01*
X45514164Y37065193D01*
X45316238Y37125233D01*
X45316235Y37125234D01*
X45133830Y37222732D01*
X44973945Y37353945D01*
X44842732Y37513830D01*
X44745234Y37696235D01*
X44745233Y37696238D01*
X44685193Y37894164D01*
X44664920Y38100000D01*
X44685193Y38305836D01*
X44745233Y38503762D01*
X44745234Y38503765D01*
X44842732Y38686170D01*
X44973945Y38846055D01*
X45133830Y38977268D01*
X45316235Y39074766D01*
X45316238Y39074767D01*
X45514164Y39134807D01*
X45591293Y39142403D01*
X45668420Y39150000D01*
X45771580Y39150000D01*
X45848707Y39142404D01*
X45848707Y39142404D01*
G37*
G36*
X5208707Y39142404D02*
G01*
X5285836Y39134807D01*
X5483762Y39074767D01*
X5483765Y39074766D01*
X5666170Y38977268D01*
X5826055Y38846055D01*
X5957268Y38686170D01*
X6054766Y38503765D01*
X6054767Y38503762D01*
X6114807Y38305836D01*
X6135080Y38100000D01*
X6114807Y37894164D01*
X6054767Y37696238D01*
X6054766Y37696235D01*
X5957268Y37513830D01*
X5826055Y37353945D01*
X5666170Y37222732D01*
X5483765Y37125234D01*
X5483762Y37125233D01*
X5285836Y37065193D01*
X5208707Y37057597D01*
X5131580Y37050000D01*
X5028420Y37050000D01*
X4951293Y37057597D01*
X4874164Y37065193D01*
X4676238Y37125233D01*
X4676235Y37125234D01*
X4493830Y37222732D01*
X4333945Y37353945D01*
X4202732Y37513830D01*
X4105234Y37696235D01*
X4105233Y37696238D01*
X4045193Y37894164D01*
X4024920Y38100000D01*
X4045193Y38305836D01*
X4105233Y38503762D01*
X4105234Y38503765D01*
X4202732Y38686170D01*
X4333945Y38846055D01*
X4493830Y38977268D01*
X4676235Y39074766D01*
X4676238Y39074767D01*
X4874164Y39134807D01*
X4951293Y39142404D01*
X5028420Y39150000D01*
X5131580Y39150000D01*
X5208707Y39142404D01*
X5208707Y39142404D01*
G37*
G36*
X2668707Y39142404D02*
G01*
X2745836Y39134807D01*
X2943762Y39074767D01*
X2943765Y39074766D01*
X3126170Y38977268D01*
X3286055Y38846055D01*
X3417268Y38686170D01*
X3514766Y38503765D01*
X3514767Y38503762D01*
X3574807Y38305836D01*
X3595080Y38100000D01*
X3574807Y37894164D01*
X3514767Y37696238D01*
X3514766Y37696235D01*
X3417268Y37513830D01*
X3286055Y37353945D01*
X3126170Y37222732D01*
X2943765Y37125234D01*
X2943762Y37125233D01*
X2745836Y37065193D01*
X2668707Y37057597D01*
X2591580Y37050000D01*
X2488420Y37050000D01*
X2411293Y37057597D01*
X2334164Y37065193D01*
X2136238Y37125233D01*
X2136235Y37125234D01*
X1953830Y37222732D01*
X1793945Y37353945D01*
X1662732Y37513830D01*
X1565234Y37696235D01*
X1565233Y37696238D01*
X1505193Y37894164D01*
X1484920Y38100000D01*
X1505193Y38305836D01*
X1565233Y38503762D01*
X1565234Y38503765D01*
X1662732Y38686170D01*
X1793945Y38846055D01*
X1953830Y38977268D01*
X2136235Y39074766D01*
X2136238Y39074767D01*
X2334164Y39134807D01*
X2411293Y39142404D01*
X2488420Y39150000D01*
X2591580Y39150000D01*
X2668707Y39142404D01*
X2668707Y39142404D01*
G37*
G36*
X13645000Y37600000D02*
G01*
X11245000Y37600000D01*
X11245000Y38600000D01*
X13645000Y38600000D01*
X13645000Y37600000D01*
X13645000Y37600000D01*
G37*
G36*
X30155000Y37600000D02*
G01*
X27755000Y37600000D01*
X27755000Y38600000D01*
X30155000Y38600000D01*
X30155000Y37600000D01*
X30155000Y37600000D01*
G37*
G36*
X39555000Y37600000D02*
G01*
X37155000Y37600000D01*
X37155000Y38600000D01*
X39555000Y38600000D01*
X39555000Y37600000D01*
X39555000Y37600000D01*
G37*
G36*
X23045000Y37600000D02*
G01*
X20645000Y37600000D01*
X20645000Y38600000D01*
X23045000Y38600000D01*
X23045000Y37600000D01*
X23045000Y37600000D01*
G37*
G36*
X39555000Y38870000D02*
G01*
X37155000Y38870000D01*
X37155000Y39870000D01*
X39555000Y39870000D01*
X39555000Y38870000D01*
X39555000Y38870000D01*
G37*
G36*
X30155000Y38870000D02*
G01*
X27755000Y38870000D01*
X27755000Y39870000D01*
X30155000Y39870000D01*
X30155000Y38870000D01*
X30155000Y38870000D01*
G37*
G36*
X13645000Y38870000D02*
G01*
X11245000Y38870000D01*
X11245000Y39870000D01*
X13645000Y39870000D01*
X13645000Y38870000D01*
X13645000Y38870000D01*
G37*
G36*
X23045000Y38870000D02*
G01*
X20645000Y38870000D01*
X20645000Y39870000D01*
X23045000Y39870000D01*
X23045000Y38870000D01*
X23045000Y38870000D01*
G37*
G36*
X5208707Y41682403D02*
G01*
X5285836Y41674807D01*
X5483762Y41614767D01*
X5483765Y41614766D01*
X5666170Y41517268D01*
X5826055Y41386055D01*
X5957268Y41226170D01*
X6054766Y41043765D01*
X6054767Y41043762D01*
X6114807Y40845836D01*
X6135080Y40640000D01*
X6114807Y40434164D01*
X6055364Y40238207D01*
X6054766Y40236235D01*
X5957268Y40053830D01*
X5826055Y39893945D01*
X5666170Y39762732D01*
X5483765Y39665234D01*
X5483762Y39665233D01*
X5285836Y39605193D01*
X5208707Y39597596D01*
X5131580Y39590000D01*
X5028420Y39590000D01*
X4951293Y39597596D01*
X4874164Y39605193D01*
X4676238Y39665233D01*
X4676235Y39665234D01*
X4493830Y39762732D01*
X4333945Y39893945D01*
X4202732Y40053830D01*
X4105234Y40236235D01*
X4104636Y40238207D01*
X4045193Y40434164D01*
X4024920Y40640000D01*
X4045193Y40845836D01*
X4105233Y41043762D01*
X4105234Y41043765D01*
X4202732Y41226170D01*
X4333945Y41386055D01*
X4493830Y41517268D01*
X4676235Y41614766D01*
X4676238Y41614767D01*
X4874164Y41674807D01*
X4951293Y41682403D01*
X5028420Y41690000D01*
X5131580Y41690000D01*
X5208707Y41682403D01*
X5208707Y41682403D01*
G37*
G36*
X45848707Y41682403D02*
G01*
X45925836Y41674807D01*
X46123762Y41614767D01*
X46123765Y41614766D01*
X46306170Y41517268D01*
X46466055Y41386055D01*
X46597268Y41226170D01*
X46694766Y41043765D01*
X46694767Y41043762D01*
X46754807Y40845836D01*
X46775080Y40640000D01*
X46754807Y40434164D01*
X46695364Y40238207D01*
X46694766Y40236235D01*
X46597268Y40053830D01*
X46466055Y39893945D01*
X46306170Y39762732D01*
X46123765Y39665234D01*
X46123762Y39665233D01*
X45925836Y39605193D01*
X45848707Y39597597D01*
X45771580Y39590000D01*
X45668420Y39590000D01*
X45591293Y39597596D01*
X45514164Y39605193D01*
X45316238Y39665233D01*
X45316235Y39665234D01*
X45133830Y39762732D01*
X44973945Y39893945D01*
X44842732Y40053830D01*
X44745234Y40236235D01*
X44744636Y40238207D01*
X44685193Y40434164D01*
X44664920Y40640000D01*
X44685193Y40845836D01*
X44745233Y41043762D01*
X44745234Y41043765D01*
X44842732Y41226170D01*
X44973945Y41386055D01*
X45133830Y41517268D01*
X45316235Y41614766D01*
X45316238Y41614767D01*
X45514164Y41674807D01*
X45591293Y41682404D01*
X45668420Y41690000D01*
X45771580Y41690000D01*
X45848707Y41682403D01*
X45848707Y41682403D01*
G37*
G36*
X48388707Y41682403D02*
G01*
X48465836Y41674807D01*
X48663762Y41614767D01*
X48663765Y41614766D01*
X48846170Y41517268D01*
X49006055Y41386055D01*
X49137268Y41226170D01*
X49234766Y41043765D01*
X49234767Y41043762D01*
X49294807Y40845836D01*
X49315080Y40640000D01*
X49294807Y40434164D01*
X49235364Y40238207D01*
X49234766Y40236235D01*
X49137268Y40053830D01*
X49006055Y39893945D01*
X48846170Y39762732D01*
X48663765Y39665234D01*
X48663762Y39665233D01*
X48465836Y39605193D01*
X48388707Y39597597D01*
X48311580Y39590000D01*
X48208420Y39590000D01*
X48131293Y39597596D01*
X48054164Y39605193D01*
X47856238Y39665233D01*
X47856235Y39665234D01*
X47673830Y39762732D01*
X47513945Y39893945D01*
X47382732Y40053830D01*
X47285234Y40236235D01*
X47284636Y40238207D01*
X47225193Y40434164D01*
X47204920Y40640000D01*
X47225193Y40845836D01*
X47285233Y41043762D01*
X47285234Y41043765D01*
X47382732Y41226170D01*
X47513945Y41386055D01*
X47673830Y41517268D01*
X47856235Y41614766D01*
X47856238Y41614767D01*
X48054164Y41674807D01*
X48131293Y41682404D01*
X48208420Y41690000D01*
X48311580Y41690000D01*
X48388707Y41682403D01*
X48388707Y41682403D01*
G37*
G36*
X2668707Y41682403D02*
G01*
X2745836Y41674807D01*
X2943762Y41614767D01*
X2943765Y41614766D01*
X3126170Y41517268D01*
X3286055Y41386055D01*
X3417268Y41226170D01*
X3514766Y41043765D01*
X3514767Y41043762D01*
X3574807Y40845836D01*
X3595080Y40640000D01*
X3574807Y40434164D01*
X3515364Y40238207D01*
X3514766Y40236235D01*
X3417268Y40053830D01*
X3286055Y39893945D01*
X3126170Y39762732D01*
X2943765Y39665234D01*
X2943762Y39665233D01*
X2745836Y39605193D01*
X2668707Y39597596D01*
X2591580Y39590000D01*
X2488420Y39590000D01*
X2411293Y39597596D01*
X2334164Y39605193D01*
X2136238Y39665233D01*
X2136235Y39665234D01*
X1953830Y39762732D01*
X1793945Y39893945D01*
X1662732Y40053830D01*
X1565234Y40236235D01*
X1564636Y40238207D01*
X1505193Y40434164D01*
X1484920Y40640000D01*
X1505193Y40845836D01*
X1565233Y41043762D01*
X1565234Y41043765D01*
X1662732Y41226170D01*
X1793945Y41386055D01*
X1953830Y41517268D01*
X2136235Y41614766D01*
X2136238Y41614767D01*
X2334164Y41674807D01*
X2411293Y41682403D01*
X2488420Y41690000D01*
X2591580Y41690000D01*
X2668707Y41682403D01*
X2668707Y41682403D01*
G37*
G36*
X27355529Y43704290D02*
G01*
X27405378Y43689169D01*
X27451310Y43664618D01*
X27491574Y43631574D01*
X27531146Y43583355D01*
X27533368Y43580029D01*
X27550693Y43562700D01*
X27571066Y43549084D01*
X27593704Y43539705D01*
X27617737Y43534922D01*
X27642241Y43534920D01*
X27666275Y43539698D01*
X27688914Y43549073D01*
X27709290Y43562685D01*
X27726619Y43580010D01*
X27740235Y43600383D01*
X27749614Y43623021D01*
X27754397Y43647054D01*
X27755000Y43659318D01*
X27755000Y43680000D01*
X30155000Y43680000D01*
X30155000Y42680000D01*
X27694999Y42680000D01*
X27670613Y42677598D01*
X27647164Y42670485D01*
X27625553Y42658934D01*
X27606611Y42643389D01*
X27591066Y42624447D01*
X27579515Y42602836D01*
X27572402Y42579387D01*
X27570000Y42555001D01*
X27570000Y42534999D01*
X27572402Y42510613D01*
X27579515Y42487164D01*
X27591066Y42465553D01*
X27606611Y42446611D01*
X27625553Y42431066D01*
X27647164Y42419515D01*
X27670613Y42412402D01*
X27694999Y42410000D01*
X30155000Y42410000D01*
X30155000Y41410000D01*
X27694999Y41410000D01*
X27670613Y41407598D01*
X27647164Y41400485D01*
X27625553Y41388934D01*
X27606611Y41373389D01*
X27591066Y41354447D01*
X27579515Y41332836D01*
X27572402Y41309387D01*
X27570000Y41285001D01*
X27570000Y41264999D01*
X27572402Y41240613D01*
X27579515Y41217164D01*
X27591066Y41195553D01*
X27606611Y41176611D01*
X27625553Y41161066D01*
X27647164Y41149515D01*
X27670613Y41142402D01*
X27694999Y41140000D01*
X30155000Y41140000D01*
X30155000Y40140000D01*
X27755000Y40140000D01*
X27755000Y40160682D01*
X27752598Y40185068D01*
X27745485Y40208517D01*
X27733934Y40230128D01*
X27718389Y40249070D01*
X27699447Y40264615D01*
X27677836Y40276166D01*
X27654387Y40283279D01*
X27630001Y40285681D01*
X27605615Y40283279D01*
X27582166Y40276166D01*
X27560555Y40264615D01*
X27541613Y40249070D01*
X27532589Y40238075D01*
X27532428Y40238207D01*
X27491574Y40188426D01*
X27451310Y40155382D01*
X27405378Y40130831D01*
X27355529Y40115710D01*
X27297556Y40110000D01*
X26042444Y40110000D01*
X25984471Y40115710D01*
X25934622Y40130831D01*
X25888690Y40155382D01*
X25848426Y40188426D01*
X25815382Y40228690D01*
X25790831Y40274622D01*
X25775710Y40324471D01*
X25770000Y40382444D01*
X25770000Y41387556D01*
X25775710Y41445529D01*
X25790831Y41495378D01*
X25815382Y41541310D01*
X25848426Y41581574D01*
X25888690Y41614618D01*
X25934622Y41639169D01*
X25984471Y41654290D01*
X26042444Y41660000D01*
X27297556Y41660000D01*
X27355529Y41654290D01*
X27405378Y41639169D01*
X27451310Y41614618D01*
X27491574Y41581574D01*
X27531146Y41533355D01*
X27533368Y41530029D01*
X27550693Y41512700D01*
X27571066Y41499084D01*
X27593704Y41489705D01*
X27617737Y41484922D01*
X27642241Y41484920D01*
X27666275Y41489698D01*
X27688914Y41499073D01*
X27709290Y41512685D01*
X27726619Y41530010D01*
X27740235Y41550383D01*
X27749614Y41573021D01*
X27754397Y41597054D01*
X27755000Y41609318D01*
X27755000Y42210682D01*
X27752598Y42235068D01*
X27745485Y42258517D01*
X27733934Y42280128D01*
X27718389Y42299070D01*
X27699447Y42314615D01*
X27677836Y42326166D01*
X27654387Y42333279D01*
X27630001Y42335681D01*
X27605615Y42333279D01*
X27582166Y42326166D01*
X27560555Y42314615D01*
X27541613Y42299070D01*
X27532589Y42288075D01*
X27532428Y42288207D01*
X27491574Y42238426D01*
X27451310Y42205382D01*
X27405378Y42180831D01*
X27355529Y42165710D01*
X27297556Y42160000D01*
X26042444Y42160000D01*
X25984471Y42165710D01*
X25934622Y42180831D01*
X25888690Y42205382D01*
X25848426Y42238426D01*
X25815382Y42278690D01*
X25790831Y42324622D01*
X25775710Y42374471D01*
X25770000Y42432444D01*
X25770000Y43437556D01*
X25775710Y43495529D01*
X25790831Y43545378D01*
X25815382Y43591310D01*
X25848426Y43631574D01*
X25888690Y43664618D01*
X25934622Y43689169D01*
X25984471Y43704290D01*
X26042444Y43710000D01*
X27297556Y43710000D01*
X27355529Y43704290D01*
X27355529Y43704290D01*
G37*
G36*
X13645000Y40140000D02*
G01*
X11245000Y40140000D01*
X11245000Y41140000D01*
X13645000Y41140000D01*
X13645000Y40140000D01*
X13645000Y40140000D01*
G37*
G36*
X39555000Y40140000D02*
G01*
X37155000Y40140000D01*
X37155000Y41140000D01*
X39555000Y41140000D01*
X39555000Y40140000D01*
X39555000Y40140000D01*
G37*
G36*
X23045000Y40140000D02*
G01*
X20645000Y40140000D01*
X20645000Y41140000D01*
X23045000Y41140000D01*
X23045000Y40140000D01*
X23045000Y40140000D01*
G37*
G36*
X13645000Y41410000D02*
G01*
X11245000Y41410000D01*
X11245000Y42410000D01*
X13645000Y42410000D01*
X13645000Y41410000D01*
X13645000Y41410000D01*
G37*
G36*
X39555000Y43269318D02*
G01*
X39557402Y43244932D01*
X39564515Y43221483D01*
X39576066Y43199872D01*
X39591611Y43180930D01*
X39610553Y43165385D01*
X39632164Y43153834D01*
X39655613Y43146721D01*
X39679999Y43144319D01*
X39704385Y43146721D01*
X39727834Y43153834D01*
X39749445Y43165385D01*
X39768387Y43180930D01*
X39777411Y43191925D01*
X39777572Y43191793D01*
X39818426Y43241574D01*
X39858690Y43274618D01*
X39904622Y43299169D01*
X39954471Y43314290D01*
X40012444Y43320000D01*
X41267556Y43320000D01*
X41325529Y43314290D01*
X41375378Y43299169D01*
X41421310Y43274618D01*
X41461574Y43241574D01*
X41494618Y43201310D01*
X41519169Y43155378D01*
X41534290Y43105529D01*
X41540000Y43047556D01*
X41540000Y42042444D01*
X41534290Y41984471D01*
X41519169Y41934622D01*
X41494618Y41888690D01*
X41461574Y41848426D01*
X41421310Y41815382D01*
X41375378Y41790831D01*
X41325529Y41775710D01*
X41267556Y41770000D01*
X40012444Y41770000D01*
X39954471Y41775710D01*
X39904622Y41790831D01*
X39858690Y41815382D01*
X39818426Y41848426D01*
X39778854Y41896645D01*
X39776632Y41899971D01*
X39759307Y41917300D01*
X39738934Y41930916D01*
X39716296Y41940295D01*
X39692263Y41945078D01*
X39667759Y41945080D01*
X39643725Y41940302D01*
X39621086Y41930927D01*
X39600710Y41917315D01*
X39583381Y41899990D01*
X39569765Y41879617D01*
X39560386Y41856979D01*
X39555603Y41832946D01*
X39555000Y41820682D01*
X39555000Y41410000D01*
X37155000Y41410000D01*
X37155000Y42410000D01*
X39615001Y42410000D01*
X39639387Y42412402D01*
X39662836Y42419515D01*
X39684447Y42431066D01*
X39703389Y42446611D01*
X39718934Y42465553D01*
X39730485Y42487164D01*
X39737598Y42510613D01*
X39740000Y42534999D01*
X39740000Y42555001D01*
X39737598Y42579387D01*
X39730485Y42602836D01*
X39718934Y42624447D01*
X39703389Y42643389D01*
X39684447Y42658934D01*
X39662836Y42670485D01*
X39639387Y42677598D01*
X39615001Y42680000D01*
X37155000Y42680000D01*
X37155000Y43680000D01*
X39555000Y43680000D01*
X39555000Y43269318D01*
X39555000Y43269318D01*
G37*
G36*
X23045000Y41410000D02*
G01*
X20645000Y41410000D01*
X20645000Y42410000D01*
X23045000Y42410000D01*
X23045000Y41410000D01*
X23045000Y41410000D01*
G37*
G36*
X2668707Y44222404D02*
G01*
X2745836Y44214807D01*
X2943762Y44154767D01*
X2943765Y44154766D01*
X3126170Y44057268D01*
X3286055Y43926055D01*
X3417268Y43766170D01*
X3514766Y43583765D01*
X3514767Y43583762D01*
X3574807Y43385836D01*
X3595080Y43180000D01*
X3574807Y42974164D01*
X3514767Y42776238D01*
X3514766Y42776235D01*
X3417268Y42593830D01*
X3286055Y42433945D01*
X3126170Y42302732D01*
X2943765Y42205234D01*
X2943762Y42205233D01*
X2745836Y42145193D01*
X2668707Y42137597D01*
X2591580Y42130000D01*
X2488420Y42130000D01*
X2411293Y42137597D01*
X2334164Y42145193D01*
X2136238Y42205233D01*
X2136235Y42205234D01*
X1953830Y42302732D01*
X1793945Y42433945D01*
X1662732Y42593830D01*
X1565234Y42776235D01*
X1565233Y42776238D01*
X1505193Y42974164D01*
X1484920Y43180000D01*
X1505193Y43385836D01*
X1565233Y43583762D01*
X1565234Y43583765D01*
X1662732Y43766170D01*
X1793945Y43926055D01*
X1953830Y44057268D01*
X2136235Y44154766D01*
X2136238Y44154767D01*
X2334164Y44214807D01*
X2411293Y44222404D01*
X2488420Y44230000D01*
X2591580Y44230000D01*
X2668707Y44222404D01*
X2668707Y44222404D01*
G37*
G36*
X5208707Y44222404D02*
G01*
X5285836Y44214807D01*
X5483762Y44154767D01*
X5483765Y44154766D01*
X5666170Y44057268D01*
X5826055Y43926055D01*
X5957268Y43766170D01*
X6054766Y43583765D01*
X6054767Y43583762D01*
X6114807Y43385836D01*
X6135080Y43180000D01*
X6114807Y42974164D01*
X6054767Y42776238D01*
X6054766Y42776235D01*
X5957268Y42593830D01*
X5826055Y42433945D01*
X5666170Y42302732D01*
X5483765Y42205234D01*
X5483762Y42205233D01*
X5285836Y42145193D01*
X5208707Y42137597D01*
X5131580Y42130000D01*
X5028420Y42130000D01*
X4951293Y42137597D01*
X4874164Y42145193D01*
X4676238Y42205233D01*
X4676235Y42205234D01*
X4493830Y42302732D01*
X4333945Y42433945D01*
X4202732Y42593830D01*
X4105234Y42776235D01*
X4105233Y42776238D01*
X4045193Y42974164D01*
X4024920Y43180000D01*
X4045193Y43385836D01*
X4105233Y43583762D01*
X4105234Y43583765D01*
X4202732Y43766170D01*
X4333945Y43926055D01*
X4493830Y44057268D01*
X4676235Y44154766D01*
X4676238Y44154767D01*
X4874164Y44214807D01*
X4951293Y44222404D01*
X5028420Y44230000D01*
X5131580Y44230000D01*
X5208707Y44222404D01*
X5208707Y44222404D01*
G37*
G36*
X48388707Y44222404D02*
G01*
X48465836Y44214807D01*
X48663762Y44154767D01*
X48663765Y44154766D01*
X48846170Y44057268D01*
X49006055Y43926055D01*
X49137268Y43766170D01*
X49234766Y43583765D01*
X49234767Y43583762D01*
X49294807Y43385836D01*
X49315080Y43180000D01*
X49294807Y42974164D01*
X49234767Y42776238D01*
X49234766Y42776235D01*
X49137268Y42593830D01*
X49006055Y42433945D01*
X48846170Y42302732D01*
X48663765Y42205234D01*
X48663762Y42205233D01*
X48465836Y42145193D01*
X48388707Y42137597D01*
X48311580Y42130000D01*
X48208420Y42130000D01*
X48131293Y42137597D01*
X48054164Y42145193D01*
X47856238Y42205233D01*
X47856235Y42205234D01*
X47673830Y42302732D01*
X47513945Y42433945D01*
X47382732Y42593830D01*
X47285234Y42776235D01*
X47285233Y42776238D01*
X47225193Y42974164D01*
X47204920Y43180000D01*
X47225193Y43385836D01*
X47285233Y43583762D01*
X47285234Y43583765D01*
X47382732Y43766170D01*
X47513945Y43926055D01*
X47673830Y44057268D01*
X47856235Y44154766D01*
X47856238Y44154767D01*
X48054164Y44214807D01*
X48131293Y44222404D01*
X48208420Y44230000D01*
X48311580Y44230000D01*
X48388707Y44222404D01*
X48388707Y44222404D01*
G37*
G36*
X45848707Y44222404D02*
G01*
X45925836Y44214807D01*
X46123762Y44154767D01*
X46123765Y44154766D01*
X46306170Y44057268D01*
X46466055Y43926055D01*
X46597268Y43766170D01*
X46694766Y43583765D01*
X46694767Y43583762D01*
X46754807Y43385836D01*
X46775080Y43180000D01*
X46754807Y42974164D01*
X46694767Y42776238D01*
X46694766Y42776235D01*
X46597268Y42593830D01*
X46466055Y42433945D01*
X46306170Y42302732D01*
X46123765Y42205234D01*
X46123762Y42205233D01*
X45925836Y42145193D01*
X45848707Y42137597D01*
X45771580Y42130000D01*
X45668420Y42130000D01*
X45591293Y42137597D01*
X45514164Y42145193D01*
X45316238Y42205233D01*
X45316235Y42205234D01*
X45133830Y42302732D01*
X44973945Y42433945D01*
X44842732Y42593830D01*
X44745234Y42776235D01*
X44745233Y42776238D01*
X44685193Y42974164D01*
X44664920Y43180000D01*
X44685193Y43385836D01*
X44745233Y43583762D01*
X44745234Y43583765D01*
X44842732Y43766170D01*
X44973945Y43926055D01*
X45133830Y44057268D01*
X45316235Y44154766D01*
X45316238Y44154767D01*
X45514164Y44214807D01*
X45591293Y44222404D01*
X45668420Y44230000D01*
X45771580Y44230000D01*
X45848707Y44222404D01*
X45848707Y44222404D01*
G37*
G36*
X23045000Y42680000D02*
G01*
X20645000Y42680000D01*
X20645000Y43680000D01*
X23045000Y43680000D01*
X23045000Y42680000D01*
X23045000Y42680000D01*
G37*
G36*
X13645000Y42680000D02*
G01*
X11245000Y42680000D01*
X11245000Y43680000D01*
X13645000Y43680000D01*
X13645000Y42680000D01*
X13645000Y42680000D01*
G37*
G36*
X41325529Y45364290D02*
G01*
X41375378Y45349169D01*
X41421310Y45324618D01*
X41461574Y45291574D01*
X41494618Y45251310D01*
X41519169Y45205378D01*
X41534290Y45155529D01*
X41540000Y45097556D01*
X41540000Y44092444D01*
X41534290Y44034471D01*
X41519169Y43984622D01*
X41494618Y43938690D01*
X41461574Y43898426D01*
X41421310Y43865382D01*
X41375378Y43840831D01*
X41325529Y43825710D01*
X41267556Y43820000D01*
X40012444Y43820000D01*
X39954471Y43825710D01*
X39904622Y43840831D01*
X39858690Y43865382D01*
X39818426Y43898426D01*
X39785382Y43938690D01*
X39760831Y43984622D01*
X39745710Y44034471D01*
X39740000Y44092444D01*
X39740000Y45097556D01*
X39745710Y45155529D01*
X39760831Y45205378D01*
X39785382Y45251310D01*
X39818426Y45291574D01*
X39858690Y45324618D01*
X39904622Y45349169D01*
X39954471Y45364290D01*
X40012444Y45370000D01*
X41267556Y45370000D01*
X41325529Y45364290D01*
X41325529Y45364290D01*
G37*
G36*
X8425529Y46233290D02*
G01*
X8475378Y46218169D01*
X8521310Y46193618D01*
X8561574Y46160574D01*
X8594618Y46120310D01*
X8619169Y46074378D01*
X8634290Y46024529D01*
X8640000Y45966556D01*
X8640000Y44711444D01*
X8634290Y44653471D01*
X8619169Y44603622D01*
X8594618Y44557690D01*
X8561574Y44517426D01*
X8521310Y44484382D01*
X8475378Y44459831D01*
X8425529Y44444710D01*
X8367556Y44439000D01*
X7362444Y44439000D01*
X7304471Y44444710D01*
X7254622Y44459831D01*
X7208690Y44484382D01*
X7168426Y44517426D01*
X7135382Y44557690D01*
X7110831Y44603622D01*
X7095710Y44653471D01*
X7090000Y44711444D01*
X7090000Y45966556D01*
X7095710Y46024529D01*
X7110831Y46074378D01*
X7135382Y46120310D01*
X7168426Y46160574D01*
X7208690Y46193618D01*
X7254622Y46218169D01*
X7304471Y46233290D01*
X7362444Y46239000D01*
X8367556Y46239000D01*
X8425529Y46233290D01*
X8425529Y46233290D01*
G37*
G36*
X10475529Y46233290D02*
G01*
X10525378Y46218169D01*
X10571310Y46193618D01*
X10611574Y46160574D01*
X10644618Y46120310D01*
X10669169Y46074378D01*
X10684290Y46024529D01*
X10690000Y45966556D01*
X10690000Y44711444D01*
X10684290Y44653471D01*
X10669169Y44603622D01*
X10644618Y44557690D01*
X10611574Y44517426D01*
X10571310Y44484382D01*
X10525378Y44459831D01*
X10475529Y44444710D01*
X10417556Y44439000D01*
X9412444Y44439000D01*
X9354471Y44444710D01*
X9304622Y44459831D01*
X9258690Y44484382D01*
X9218426Y44517426D01*
X9185382Y44557690D01*
X9160831Y44603622D01*
X9145710Y44653471D01*
X9140000Y44711444D01*
X9140000Y45966556D01*
X9145710Y46024529D01*
X9160831Y46074378D01*
X9185382Y46120310D01*
X9218426Y46160574D01*
X9258690Y46193618D01*
X9304622Y46218169D01*
X9354471Y46233290D01*
X9412444Y46239000D01*
X10417556Y46239000D01*
X10475529Y46233290D01*
X10475529Y46233290D01*
G37*
G36*
X45848707Y46762403D02*
G01*
X45925836Y46754807D01*
X46123762Y46694767D01*
X46123765Y46694766D01*
X46306170Y46597268D01*
X46466055Y46466055D01*
X46597268Y46306170D01*
X46694766Y46123765D01*
X46694767Y46123762D01*
X46754807Y45925836D01*
X46775080Y45720000D01*
X46754807Y45514164D01*
X46711075Y45370000D01*
X46694766Y45316235D01*
X46597268Y45133830D01*
X46466055Y44973945D01*
X46306170Y44842732D01*
X46123765Y44745234D01*
X46123762Y44745233D01*
X45925836Y44685193D01*
X45848707Y44677596D01*
X45771580Y44670000D01*
X45668420Y44670000D01*
X45591293Y44677596D01*
X45514164Y44685193D01*
X45316238Y44745233D01*
X45316235Y44745234D01*
X45133830Y44842732D01*
X44973945Y44973945D01*
X44842732Y45133830D01*
X44745234Y45316235D01*
X44728925Y45370000D01*
X44685193Y45514164D01*
X44664920Y45720000D01*
X44685193Y45925836D01*
X44745233Y46123762D01*
X44745234Y46123765D01*
X44842732Y46306170D01*
X44973945Y46466055D01*
X45133830Y46597268D01*
X45316235Y46694766D01*
X45316238Y46694767D01*
X45514164Y46754807D01*
X45591293Y46762403D01*
X45668420Y46770000D01*
X45771580Y46770000D01*
X45848707Y46762403D01*
X45848707Y46762403D01*
G37*
G36*
X2668707Y46762403D02*
G01*
X2745836Y46754807D01*
X2943762Y46694767D01*
X2943765Y46694766D01*
X3126170Y46597268D01*
X3286055Y46466055D01*
X3417268Y46306170D01*
X3514766Y46123765D01*
X3514767Y46123762D01*
X3574807Y45925836D01*
X3595080Y45720000D01*
X3574807Y45514164D01*
X3531075Y45370000D01*
X3514766Y45316235D01*
X3417268Y45133830D01*
X3286055Y44973945D01*
X3126170Y44842732D01*
X2943765Y44745234D01*
X2943762Y44745233D01*
X2745836Y44685193D01*
X2668707Y44677596D01*
X2591580Y44670000D01*
X2488420Y44670000D01*
X2411293Y44677596D01*
X2334164Y44685193D01*
X2136238Y44745233D01*
X2136235Y44745234D01*
X1953830Y44842732D01*
X1793945Y44973945D01*
X1662732Y45133830D01*
X1565234Y45316235D01*
X1548925Y45370000D01*
X1505193Y45514164D01*
X1484920Y45720000D01*
X1505193Y45925836D01*
X1565233Y46123762D01*
X1565234Y46123765D01*
X1662732Y46306170D01*
X1793945Y46466055D01*
X1953830Y46597268D01*
X2136235Y46694766D01*
X2136238Y46694767D01*
X2334164Y46754807D01*
X2411293Y46762403D01*
X2488420Y46770000D01*
X2591580Y46770000D01*
X2668707Y46762403D01*
X2668707Y46762403D01*
G37*
G36*
X5208707Y46762403D02*
G01*
X5285836Y46754807D01*
X5483762Y46694767D01*
X5483765Y46694766D01*
X5666170Y46597268D01*
X5826055Y46466055D01*
X5957268Y46306170D01*
X6054766Y46123765D01*
X6054767Y46123762D01*
X6114807Y45925836D01*
X6135080Y45720000D01*
X6114807Y45514164D01*
X6071075Y45370000D01*
X6054766Y45316235D01*
X5957268Y45133830D01*
X5826055Y44973945D01*
X5666170Y44842732D01*
X5483765Y44745234D01*
X5483762Y44745233D01*
X5285836Y44685193D01*
X5208707Y44677596D01*
X5131580Y44670000D01*
X5028420Y44670000D01*
X4951293Y44677596D01*
X4874164Y44685193D01*
X4676238Y44745233D01*
X4676235Y44745234D01*
X4493830Y44842732D01*
X4333945Y44973945D01*
X4202732Y45133830D01*
X4105234Y45316235D01*
X4088925Y45370000D01*
X4045193Y45514164D01*
X4024920Y45720000D01*
X4045193Y45925836D01*
X4105233Y46123762D01*
X4105234Y46123765D01*
X4202732Y46306170D01*
X4333945Y46466055D01*
X4493830Y46597268D01*
X4676235Y46694766D01*
X4676238Y46694767D01*
X4874164Y46754807D01*
X4951293Y46762403D01*
X5028420Y46770000D01*
X5131580Y46770000D01*
X5208707Y46762403D01*
X5208707Y46762403D01*
G37*
G36*
X48388707Y46762403D02*
G01*
X48465836Y46754807D01*
X48663762Y46694767D01*
X48663765Y46694766D01*
X48846170Y46597268D01*
X49006055Y46466055D01*
X49137268Y46306170D01*
X49234766Y46123765D01*
X49234767Y46123762D01*
X49294807Y45925836D01*
X49315080Y45720000D01*
X49294807Y45514164D01*
X49251075Y45370000D01*
X49234766Y45316235D01*
X49137268Y45133830D01*
X49006055Y44973945D01*
X48846170Y44842732D01*
X48663765Y44745234D01*
X48663762Y44745233D01*
X48465836Y44685193D01*
X48388707Y44677596D01*
X48311580Y44670000D01*
X48208420Y44670000D01*
X48131293Y44677596D01*
X48054164Y44685193D01*
X47856238Y44745233D01*
X47856235Y44745234D01*
X47673830Y44842732D01*
X47513945Y44973945D01*
X47382732Y45133830D01*
X47285234Y45316235D01*
X47268925Y45370000D01*
X47225193Y45514164D01*
X47204920Y45720000D01*
X47225193Y45925836D01*
X47285233Y46123762D01*
X47285234Y46123765D01*
X47382732Y46306170D01*
X47513945Y46466055D01*
X47673830Y46597268D01*
X47856235Y46694766D01*
X47856238Y46694767D01*
X48054164Y46754807D01*
X48131293Y46762403D01*
X48208420Y46770000D01*
X48311580Y46770000D01*
X48388707Y46762403D01*
X48388707Y46762403D01*
G37*
G36*
X23045000Y47959318D02*
G01*
X23047402Y47934932D01*
X23054515Y47911483D01*
X23066066Y47889872D01*
X23081611Y47870930D01*
X23100553Y47855385D01*
X23122164Y47843834D01*
X23145613Y47836721D01*
X23169999Y47834319D01*
X23194385Y47836721D01*
X23217834Y47843834D01*
X23239445Y47855385D01*
X23258387Y47870930D01*
X23267411Y47881925D01*
X23267572Y47881793D01*
X23308426Y47931574D01*
X23348690Y47964618D01*
X23394622Y47989169D01*
X23444471Y48004290D01*
X23502444Y48010000D01*
X24757556Y48010000D01*
X24815529Y48004290D01*
X24865378Y47989169D01*
X24911310Y47964618D01*
X24951574Y47931574D01*
X24984618Y47891310D01*
X25009169Y47845378D01*
X25024290Y47795529D01*
X25030000Y47737556D01*
X25030000Y46732444D01*
X25024290Y46674471D01*
X25009169Y46624622D01*
X24984618Y46578690D01*
X24951574Y46538426D01*
X24911310Y46505382D01*
X24865378Y46480831D01*
X24815529Y46465710D01*
X24757556Y46460000D01*
X23502444Y46460000D01*
X23444471Y46465710D01*
X23394622Y46480831D01*
X23348690Y46505382D01*
X23308426Y46538426D01*
X23275382Y46578690D01*
X23250831Y46624622D01*
X23235710Y46674471D01*
X23230000Y46732444D01*
X23230000Y47000001D01*
X23227598Y47024387D01*
X23220485Y47047836D01*
X23208934Y47069447D01*
X23193389Y47088389D01*
X23174447Y47103934D01*
X23152836Y47115485D01*
X23129387Y47122598D01*
X23105001Y47125000D01*
X20645000Y47125000D01*
X20645000Y48125000D01*
X23045000Y48125000D01*
X23045000Y47959318D01*
X23045000Y47959318D01*
G37*
G36*
X30155000Y47125000D02*
G01*
X27755000Y47125000D01*
X27755000Y48125000D01*
X30155000Y48125000D01*
X30155000Y47125000D01*
X30155000Y47125000D01*
G37*
G36*
X13645000Y47125000D02*
G01*
X11245000Y47125000D01*
X11245000Y48125000D01*
X13645000Y48125000D01*
X13645000Y47125000D01*
X13645000Y47125000D01*
G37*
G36*
X39555000Y47125000D02*
G01*
X37155000Y47125000D01*
X37155000Y48125000D01*
X39555000Y48125000D01*
X39555000Y47125000D01*
X39555000Y47125000D01*
G37*
G36*
X2668707Y49302403D02*
G01*
X2745836Y49294807D01*
X2943762Y49234767D01*
X2943765Y49234766D01*
X3126170Y49137268D01*
X3286055Y49006055D01*
X3417268Y48846170D01*
X3514766Y48663765D01*
X3514767Y48663762D01*
X3574807Y48465836D01*
X3595080Y48260000D01*
X3574807Y48054164D01*
X3546036Y47959318D01*
X3514766Y47856235D01*
X3417268Y47673830D01*
X3286055Y47513945D01*
X3126170Y47382732D01*
X2943765Y47285234D01*
X2943762Y47285233D01*
X2745836Y47225193D01*
X2668707Y47217597D01*
X2591580Y47210000D01*
X2488420Y47210000D01*
X2411293Y47217597D01*
X2334164Y47225193D01*
X2136238Y47285233D01*
X2136235Y47285234D01*
X1953830Y47382732D01*
X1793945Y47513945D01*
X1662732Y47673830D01*
X1565234Y47856235D01*
X1533964Y47959318D01*
X1505193Y48054164D01*
X1484920Y48260000D01*
X1505193Y48465836D01*
X1565233Y48663762D01*
X1565234Y48663765D01*
X1662732Y48846170D01*
X1793945Y49006055D01*
X1953830Y49137268D01*
X2136235Y49234766D01*
X2136238Y49234767D01*
X2334164Y49294807D01*
X2411293Y49302403D01*
X2488420Y49310000D01*
X2591580Y49310000D01*
X2668707Y49302403D01*
X2668707Y49302403D01*
G37*
G36*
X5208707Y49302403D02*
G01*
X5285836Y49294807D01*
X5483762Y49234767D01*
X5483765Y49234766D01*
X5666170Y49137268D01*
X5826055Y49006055D01*
X5957268Y48846170D01*
X6054766Y48663765D01*
X6054767Y48663762D01*
X6114807Y48465836D01*
X6135080Y48260000D01*
X6114807Y48054164D01*
X6086036Y47959318D01*
X6054766Y47856235D01*
X5957268Y47673830D01*
X5826055Y47513945D01*
X5666170Y47382732D01*
X5483765Y47285234D01*
X5483762Y47285233D01*
X5285836Y47225193D01*
X5208707Y47217597D01*
X5131580Y47210000D01*
X5028420Y47210000D01*
X4951293Y47217597D01*
X4874164Y47225193D01*
X4676238Y47285233D01*
X4676235Y47285234D01*
X4493830Y47382732D01*
X4333945Y47513945D01*
X4202732Y47673830D01*
X4105234Y47856235D01*
X4073964Y47959318D01*
X4045193Y48054164D01*
X4024920Y48260000D01*
X4045193Y48465836D01*
X4105233Y48663762D01*
X4105234Y48663765D01*
X4202732Y48846170D01*
X4333945Y49006055D01*
X4493830Y49137268D01*
X4676235Y49234766D01*
X4676238Y49234767D01*
X4874164Y49294807D01*
X4951293Y49302403D01*
X5028420Y49310000D01*
X5131580Y49310000D01*
X5208707Y49302403D01*
X5208707Y49302403D01*
G37*
G36*
X45848707Y49302403D02*
G01*
X45925836Y49294807D01*
X46123762Y49234767D01*
X46123765Y49234766D01*
X46306170Y49137268D01*
X46466055Y49006055D01*
X46597268Y48846170D01*
X46694766Y48663765D01*
X46694767Y48663762D01*
X46754807Y48465836D01*
X46775080Y48260000D01*
X46754807Y48054164D01*
X46726036Y47959318D01*
X46694766Y47856235D01*
X46597268Y47673830D01*
X46466055Y47513945D01*
X46306170Y47382732D01*
X46123765Y47285234D01*
X46123762Y47285233D01*
X45925836Y47225193D01*
X45848707Y47217597D01*
X45771580Y47210000D01*
X45668420Y47210000D01*
X45591293Y47217597D01*
X45514164Y47225193D01*
X45316238Y47285233D01*
X45316235Y47285234D01*
X45133830Y47382732D01*
X44973945Y47513945D01*
X44842732Y47673830D01*
X44745234Y47856235D01*
X44713964Y47959318D01*
X44685193Y48054164D01*
X44664920Y48260000D01*
X44685193Y48465836D01*
X44745233Y48663762D01*
X44745234Y48663765D01*
X44842732Y48846170D01*
X44973945Y49006055D01*
X45133830Y49137268D01*
X45316235Y49234766D01*
X45316238Y49234767D01*
X45514164Y49294807D01*
X45591293Y49302403D01*
X45668420Y49310000D01*
X45771580Y49310000D01*
X45848707Y49302403D01*
X45848707Y49302403D01*
G37*
G36*
X48388707Y49302403D02*
G01*
X48465836Y49294807D01*
X48663762Y49234767D01*
X48663765Y49234766D01*
X48846170Y49137268D01*
X49006055Y49006055D01*
X49137268Y48846170D01*
X49234766Y48663765D01*
X49234767Y48663762D01*
X49294807Y48465836D01*
X49315080Y48260000D01*
X49294807Y48054164D01*
X49266036Y47959318D01*
X49234766Y47856235D01*
X49137268Y47673830D01*
X49006055Y47513945D01*
X48846170Y47382732D01*
X48663765Y47285234D01*
X48663762Y47285233D01*
X48465836Y47225193D01*
X48388707Y47217597D01*
X48311580Y47210000D01*
X48208420Y47210000D01*
X48131293Y47217597D01*
X48054164Y47225193D01*
X47856238Y47285233D01*
X47856235Y47285234D01*
X47673830Y47382732D01*
X47513945Y47513945D01*
X47382732Y47673830D01*
X47285234Y47856235D01*
X47253964Y47959318D01*
X47225193Y48054164D01*
X47204920Y48260000D01*
X47225193Y48465836D01*
X47285233Y48663762D01*
X47285234Y48663765D01*
X47382732Y48846170D01*
X47513945Y49006055D01*
X47673830Y49137268D01*
X47856235Y49234766D01*
X47856238Y49234767D01*
X48054164Y49294807D01*
X48131293Y49302403D01*
X48208420Y49310000D01*
X48311580Y49310000D01*
X48388707Y49302403D01*
X48388707Y49302403D01*
G37*
G36*
X10210529Y49029290D02*
G01*
X10260378Y49014169D01*
X10306310Y48989618D01*
X10346574Y48956574D01*
X10379618Y48916310D01*
X10404169Y48870378D01*
X10419290Y48820529D01*
X10425000Y48762556D01*
X10425000Y47757444D01*
X10419290Y47699471D01*
X10404169Y47649622D01*
X10379618Y47603690D01*
X10346574Y47563426D01*
X10306310Y47530382D01*
X10260378Y47505831D01*
X10210529Y47490710D01*
X10152556Y47485000D01*
X8897444Y47485000D01*
X8839471Y47490710D01*
X8789622Y47505831D01*
X8743690Y47530382D01*
X8703426Y47563426D01*
X8670382Y47603690D01*
X8645831Y47649622D01*
X8630710Y47699471D01*
X8625000Y47757444D01*
X8625000Y48762556D01*
X8630710Y48820529D01*
X8645831Y48870378D01*
X8670382Y48916310D01*
X8703426Y48956574D01*
X8743690Y48989618D01*
X8789622Y49014169D01*
X8839471Y49029290D01*
X8897444Y49035000D01*
X10152556Y49035000D01*
X10210529Y49029290D01*
X10210529Y49029290D01*
G37*
G36*
X30155000Y48395000D02*
G01*
X27755000Y48395000D01*
X27755000Y49395000D01*
X30155000Y49395000D01*
X30155000Y48395000D01*
X30155000Y48395000D01*
G37*
G36*
X23045000Y50009318D02*
G01*
X23047402Y49984932D01*
X23054515Y49961483D01*
X23066066Y49939872D01*
X23081611Y49920930D01*
X23100553Y49905385D01*
X23122164Y49893834D01*
X23145613Y49886721D01*
X23169999Y49884319D01*
X23194385Y49886721D01*
X23217834Y49893834D01*
X23239445Y49905385D01*
X23258387Y49920930D01*
X23267411Y49931925D01*
X23267572Y49931793D01*
X23308426Y49981574D01*
X23348690Y50014618D01*
X23394622Y50039169D01*
X23444471Y50054290D01*
X23502444Y50060000D01*
X24757556Y50060000D01*
X24815529Y50054290D01*
X24865378Y50039169D01*
X24911310Y50014618D01*
X24951574Y49981574D01*
X24984618Y49941310D01*
X25009169Y49895378D01*
X25024290Y49845529D01*
X25030000Y49787556D01*
X25030000Y48782444D01*
X25024290Y48724471D01*
X25009169Y48674622D01*
X24984618Y48628690D01*
X24951574Y48588426D01*
X24911310Y48555382D01*
X24865378Y48530831D01*
X24815529Y48515710D01*
X24757556Y48510000D01*
X23502444Y48510000D01*
X23444471Y48515710D01*
X23394622Y48530831D01*
X23348690Y48555382D01*
X23308426Y48588426D01*
X23268854Y48636645D01*
X23266632Y48639971D01*
X23249307Y48657300D01*
X23228934Y48670916D01*
X23206296Y48680295D01*
X23182263Y48685078D01*
X23157759Y48685080D01*
X23133725Y48680302D01*
X23111086Y48670927D01*
X23090710Y48657315D01*
X23073381Y48639990D01*
X23059765Y48619617D01*
X23050386Y48596979D01*
X23045603Y48572946D01*
X23045000Y48560682D01*
X23045000Y48395000D01*
X20645000Y48395000D01*
X20645000Y49395000D01*
X23105001Y49395000D01*
X23129387Y49397402D01*
X23152836Y49404515D01*
X23174447Y49416066D01*
X23193389Y49431611D01*
X23208934Y49450553D01*
X23220485Y49472164D01*
X23227598Y49495613D01*
X23230000Y49519999D01*
X23230000Y49540001D01*
X23227598Y49564387D01*
X23220485Y49587836D01*
X23208934Y49609447D01*
X23193389Y49628389D01*
X23174447Y49643934D01*
X23152836Y49655485D01*
X23129387Y49662598D01*
X23105001Y49665000D01*
X20645000Y49665000D01*
X20645000Y50665000D01*
X23045000Y50665000D01*
X23045000Y50009318D01*
X23045000Y50009318D01*
G37*
G36*
X13645000Y48395000D02*
G01*
X11245000Y48395000D01*
X11245000Y49395000D01*
X13645000Y49395000D01*
X13645000Y48395000D01*
X13645000Y48395000D01*
G37*
G36*
X39555000Y48395000D02*
G01*
X37155000Y48395000D01*
X37155000Y49395000D01*
X39555000Y49395000D01*
X39555000Y48395000D01*
X39555000Y48395000D01*
G37*
G36*
X10210529Y51079290D02*
G01*
X10260378Y51064169D01*
X10306310Y51039618D01*
X10346574Y51006574D01*
X10379618Y50966310D01*
X10404169Y50920378D01*
X10419290Y50870529D01*
X10425000Y50812556D01*
X10425000Y49807444D01*
X10419290Y49749471D01*
X10404169Y49699622D01*
X10379618Y49653690D01*
X10346574Y49613426D01*
X10306310Y49580382D01*
X10260378Y49555831D01*
X10210529Y49540710D01*
X10152556Y49535000D01*
X8897444Y49535000D01*
X8839471Y49540710D01*
X8789622Y49555831D01*
X8743690Y49580382D01*
X8703426Y49613426D01*
X8670382Y49653690D01*
X8645831Y49699622D01*
X8630710Y49749471D01*
X8625000Y49807444D01*
X8625000Y50812556D01*
X8630710Y50870529D01*
X8645831Y50920378D01*
X8670382Y50966310D01*
X8703426Y51006574D01*
X8743690Y51039618D01*
X8789622Y51064169D01*
X8839471Y51079290D01*
X8897444Y51085000D01*
X10152556Y51085000D01*
X10210529Y51079290D01*
X10210529Y51079290D01*
G37*
G36*
X30155000Y49665000D02*
G01*
X27755000Y49665000D01*
X27755000Y50665000D01*
X30155000Y50665000D01*
X30155000Y49665000D01*
X30155000Y49665000D01*
G37*
G36*
X39555000Y49665000D02*
G01*
X37155000Y49665000D01*
X37155000Y50665000D01*
X39555000Y50665000D01*
X39555000Y49665000D01*
X39555000Y49665000D01*
G37*
G36*
X13645000Y49665000D02*
G01*
X11245000Y49665000D01*
X11245000Y50665000D01*
X13645000Y50665000D01*
X13645000Y49665000D01*
X13645000Y49665000D01*
G37*
G36*
X5208707Y51842403D02*
G01*
X5285836Y51834807D01*
X5483762Y51774767D01*
X5483765Y51774766D01*
X5666170Y51677268D01*
X5826055Y51546055D01*
X5957268Y51386170D01*
X6054766Y51203765D01*
X6054767Y51203762D01*
X6114807Y51005836D01*
X6135080Y50800000D01*
X6114807Y50594164D01*
X6054767Y50396238D01*
X6054766Y50396235D01*
X5957268Y50213830D01*
X5826055Y50053945D01*
X5666170Y49922732D01*
X5483765Y49825234D01*
X5483762Y49825233D01*
X5285836Y49765193D01*
X5208707Y49757596D01*
X5131580Y49750000D01*
X5028420Y49750000D01*
X4951293Y49757596D01*
X4874164Y49765193D01*
X4676238Y49825233D01*
X4676235Y49825234D01*
X4493830Y49922732D01*
X4333945Y50053945D01*
X4202732Y50213830D01*
X4105234Y50396235D01*
X4105233Y50396238D01*
X4045193Y50594164D01*
X4024920Y50800000D01*
X4045193Y51005836D01*
X4105233Y51203762D01*
X4105234Y51203765D01*
X4202732Y51386170D01*
X4333945Y51546055D01*
X4493830Y51677268D01*
X4676235Y51774766D01*
X4676238Y51774767D01*
X4874164Y51834807D01*
X4951293Y51842403D01*
X5028420Y51850000D01*
X5131580Y51850000D01*
X5208707Y51842403D01*
X5208707Y51842403D01*
G37*
G36*
X45848707Y51842403D02*
G01*
X45925836Y51834807D01*
X46123762Y51774767D01*
X46123765Y51774766D01*
X46306170Y51677268D01*
X46466055Y51546055D01*
X46597268Y51386170D01*
X46694766Y51203765D01*
X46694767Y51203762D01*
X46754807Y51005836D01*
X46775080Y50800000D01*
X46754807Y50594164D01*
X46694767Y50396238D01*
X46694766Y50396235D01*
X46597268Y50213830D01*
X46466055Y50053945D01*
X46306170Y49922732D01*
X46123765Y49825234D01*
X46123762Y49825233D01*
X45925836Y49765193D01*
X45848707Y49757596D01*
X45771580Y49750000D01*
X45668420Y49750000D01*
X45591293Y49757596D01*
X45514164Y49765193D01*
X45316238Y49825233D01*
X45316235Y49825234D01*
X45133830Y49922732D01*
X44973945Y50053945D01*
X44842732Y50213830D01*
X44745234Y50396235D01*
X44745233Y50396238D01*
X44685193Y50594164D01*
X44664920Y50800000D01*
X44685193Y51005836D01*
X44745233Y51203762D01*
X44745234Y51203765D01*
X44842732Y51386170D01*
X44973945Y51546055D01*
X45133830Y51677268D01*
X45316235Y51774766D01*
X45316238Y51774767D01*
X45514164Y51834807D01*
X45591293Y51842403D01*
X45668420Y51850000D01*
X45771580Y51850000D01*
X45848707Y51842403D01*
X45848707Y51842403D01*
G37*
G36*
X48388707Y51842403D02*
G01*
X48465836Y51834807D01*
X48663762Y51774767D01*
X48663765Y51774766D01*
X48846170Y51677268D01*
X49006055Y51546055D01*
X49137268Y51386170D01*
X49234766Y51203765D01*
X49234767Y51203762D01*
X49294807Y51005836D01*
X49315080Y50800000D01*
X49294807Y50594164D01*
X49234767Y50396238D01*
X49234766Y50396235D01*
X49137268Y50213830D01*
X49006055Y50053945D01*
X48846170Y49922732D01*
X48663765Y49825234D01*
X48663762Y49825233D01*
X48465836Y49765193D01*
X48388707Y49757596D01*
X48311580Y49750000D01*
X48208420Y49750000D01*
X48131293Y49757596D01*
X48054164Y49765193D01*
X47856238Y49825233D01*
X47856235Y49825234D01*
X47673830Y49922732D01*
X47513945Y50053945D01*
X47382732Y50213830D01*
X47285234Y50396235D01*
X47285233Y50396238D01*
X47225193Y50594164D01*
X47204920Y50800000D01*
X47225193Y51005836D01*
X47285233Y51203762D01*
X47285234Y51203765D01*
X47382732Y51386170D01*
X47513945Y51546055D01*
X47673830Y51677268D01*
X47856235Y51774766D01*
X47856238Y51774767D01*
X48054164Y51834807D01*
X48131293Y51842403D01*
X48208420Y51850000D01*
X48311580Y51850000D01*
X48388707Y51842403D01*
X48388707Y51842403D01*
G37*
G36*
X2668707Y51842403D02*
G01*
X2745836Y51834807D01*
X2943762Y51774767D01*
X2943765Y51774766D01*
X3126170Y51677268D01*
X3286055Y51546055D01*
X3417268Y51386170D01*
X3514766Y51203765D01*
X3514767Y51203762D01*
X3574807Y51005836D01*
X3595080Y50800000D01*
X3574807Y50594164D01*
X3514767Y50396238D01*
X3514766Y50396235D01*
X3417268Y50213830D01*
X3286055Y50053945D01*
X3126170Y49922732D01*
X2943765Y49825234D01*
X2943762Y49825233D01*
X2745836Y49765193D01*
X2668707Y49757596D01*
X2591580Y49750000D01*
X2488420Y49750000D01*
X2411293Y49757596D01*
X2334164Y49765193D01*
X2136238Y49825233D01*
X2136235Y49825234D01*
X1953830Y49922732D01*
X1793945Y50053945D01*
X1662732Y50213830D01*
X1565234Y50396235D01*
X1565233Y50396238D01*
X1505193Y50594164D01*
X1484920Y50800000D01*
X1505193Y51005836D01*
X1565233Y51203762D01*
X1565234Y51203765D01*
X1662732Y51386170D01*
X1793945Y51546055D01*
X1953830Y51677268D01*
X2136235Y51774766D01*
X2136238Y51774767D01*
X2334164Y51834807D01*
X2411293Y51842403D01*
X2488420Y51850000D01*
X2591580Y51850000D01*
X2668707Y51842403D01*
X2668707Y51842403D01*
G37*
G36*
X13645000Y50935000D02*
G01*
X11245000Y50935000D01*
X11245000Y51935000D01*
X13645000Y51935000D01*
X13645000Y50935000D01*
X13645000Y50935000D01*
G37*
G36*
X30155000Y50935000D02*
G01*
X27755000Y50935000D01*
X27755000Y51935000D01*
X30155000Y51935000D01*
X30155000Y50935000D01*
X30155000Y50935000D01*
G37*
G36*
X23045000Y50935000D02*
G01*
X20645000Y50935000D01*
X20645000Y51935000D01*
X23045000Y51935000D01*
X23045000Y50935000D01*
X23045000Y50935000D01*
G37*
G36*
X39555000Y50935000D02*
G01*
X37155000Y50935000D01*
X37155000Y51935000D01*
X39555000Y51935000D01*
X39555000Y50935000D01*
X39555000Y50935000D01*
G37*
G36*
X13645000Y52205000D02*
G01*
X11245000Y52205000D01*
X11245000Y53205000D01*
X13645000Y53205000D01*
X13645000Y52205000D01*
X13645000Y52205000D01*
G37*
G36*
X23045000Y52205000D02*
G01*
X20645000Y52205000D01*
X20645000Y53205000D01*
X23045000Y53205000D01*
X23045000Y52205000D01*
X23045000Y52205000D01*
G37*
G36*
X39555000Y52205000D02*
G01*
X37155000Y52205000D01*
X37155000Y53205000D01*
X39555000Y53205000D01*
X39555000Y52205000D01*
X39555000Y52205000D01*
G37*
G36*
X30155000Y52205000D02*
G01*
X27755000Y52205000D01*
X27755000Y53205000D01*
X30155000Y53205000D01*
X30155000Y52205000D01*
X30155000Y52205000D01*
G37*
G36*
X5208707Y54382403D02*
G01*
X5285836Y54374807D01*
X5483762Y54314767D01*
X5483765Y54314766D01*
X5666170Y54217268D01*
X5826055Y54086055D01*
X5957268Y53926170D01*
X6054766Y53743765D01*
X6054767Y53743762D01*
X6114807Y53545836D01*
X6135080Y53340000D01*
X6114807Y53134164D01*
X6054767Y52936238D01*
X6054766Y52936235D01*
X5957268Y52753830D01*
X5826055Y52593945D01*
X5666170Y52462732D01*
X5483765Y52365234D01*
X5483762Y52365233D01*
X5285836Y52305193D01*
X5208707Y52297597D01*
X5131580Y52290000D01*
X5028420Y52290000D01*
X4951293Y52297597D01*
X4874164Y52305193D01*
X4676238Y52365233D01*
X4676235Y52365234D01*
X4493830Y52462732D01*
X4333945Y52593945D01*
X4202732Y52753830D01*
X4105234Y52936235D01*
X4105233Y52936238D01*
X4045193Y53134164D01*
X4024920Y53340000D01*
X4045193Y53545836D01*
X4105233Y53743762D01*
X4105234Y53743765D01*
X4202732Y53926170D01*
X4333945Y54086055D01*
X4493830Y54217268D01*
X4676235Y54314766D01*
X4676238Y54314767D01*
X4874164Y54374807D01*
X4951293Y54382403D01*
X5028420Y54390000D01*
X5131580Y54390000D01*
X5208707Y54382403D01*
X5208707Y54382403D01*
G37*
G36*
X45848707Y54382403D02*
G01*
X45925836Y54374807D01*
X46123762Y54314767D01*
X46123765Y54314766D01*
X46306170Y54217268D01*
X46466055Y54086055D01*
X46597268Y53926170D01*
X46694766Y53743765D01*
X46694767Y53743762D01*
X46754807Y53545836D01*
X46775080Y53340000D01*
X46754807Y53134164D01*
X46694767Y52936238D01*
X46694766Y52936235D01*
X46597268Y52753830D01*
X46466055Y52593945D01*
X46306170Y52462732D01*
X46123765Y52365234D01*
X46123762Y52365233D01*
X45925836Y52305193D01*
X45848707Y52297597D01*
X45771580Y52290000D01*
X45668420Y52290000D01*
X45591293Y52297597D01*
X45514164Y52305193D01*
X45316238Y52365233D01*
X45316235Y52365234D01*
X45133830Y52462732D01*
X44973945Y52593945D01*
X44842732Y52753830D01*
X44745234Y52936235D01*
X44745233Y52936238D01*
X44685193Y53134164D01*
X44664920Y53340000D01*
X44685193Y53545836D01*
X44745233Y53743762D01*
X44745234Y53743765D01*
X44842732Y53926170D01*
X44973945Y54086055D01*
X45133830Y54217268D01*
X45316235Y54314766D01*
X45316238Y54314767D01*
X45514164Y54374807D01*
X45591293Y54382403D01*
X45668420Y54390000D01*
X45771580Y54390000D01*
X45848707Y54382403D01*
X45848707Y54382403D01*
G37*
G36*
X2668707Y54382403D02*
G01*
X2745836Y54374807D01*
X2943762Y54314767D01*
X2943765Y54314766D01*
X3126170Y54217268D01*
X3286055Y54086055D01*
X3417268Y53926170D01*
X3514766Y53743765D01*
X3514767Y53743762D01*
X3574807Y53545836D01*
X3595080Y53340000D01*
X3574807Y53134164D01*
X3514767Y52936238D01*
X3514766Y52936235D01*
X3417268Y52753830D01*
X3286055Y52593945D01*
X3126170Y52462732D01*
X2943765Y52365234D01*
X2943762Y52365233D01*
X2745836Y52305193D01*
X2668707Y52297597D01*
X2591580Y52290000D01*
X2488420Y52290000D01*
X2411293Y52297597D01*
X2334164Y52305193D01*
X2136238Y52365233D01*
X2136235Y52365234D01*
X1953830Y52462732D01*
X1793945Y52593945D01*
X1662732Y52753830D01*
X1565234Y52936235D01*
X1565233Y52936238D01*
X1505193Y53134164D01*
X1484920Y53340000D01*
X1505193Y53545836D01*
X1565233Y53743762D01*
X1565234Y53743765D01*
X1662732Y53926170D01*
X1793945Y54086055D01*
X1953830Y54217268D01*
X2136235Y54314766D01*
X2136238Y54314767D01*
X2334164Y54374807D01*
X2411293Y54382403D01*
X2488420Y54390000D01*
X2591580Y54390000D01*
X2668707Y54382403D01*
X2668707Y54382403D01*
G37*
G36*
X48388707Y54382403D02*
G01*
X48465836Y54374807D01*
X48663762Y54314767D01*
X48663765Y54314766D01*
X48846170Y54217268D01*
X49006055Y54086055D01*
X49137268Y53926170D01*
X49234766Y53743765D01*
X49234767Y53743762D01*
X49294807Y53545836D01*
X49315080Y53340000D01*
X49294807Y53134164D01*
X49234767Y52936238D01*
X49234766Y52936235D01*
X49137268Y52753830D01*
X49006055Y52593945D01*
X48846170Y52462732D01*
X48663765Y52365234D01*
X48663762Y52365233D01*
X48465836Y52305193D01*
X48388707Y52297597D01*
X48311580Y52290000D01*
X48208420Y52290000D01*
X48131293Y52297597D01*
X48054164Y52305193D01*
X47856238Y52365233D01*
X47856235Y52365234D01*
X47673830Y52462732D01*
X47513945Y52593945D01*
X47382732Y52753830D01*
X47285234Y52936235D01*
X47285233Y52936238D01*
X47225193Y53134164D01*
X47204920Y53340000D01*
X47225193Y53545836D01*
X47285233Y53743762D01*
X47285234Y53743765D01*
X47382732Y53926170D01*
X47513945Y54086055D01*
X47673830Y54217268D01*
X47856235Y54314766D01*
X47856238Y54314767D01*
X48054164Y54374807D01*
X48131293Y54382403D01*
X48208420Y54390000D01*
X48311580Y54390000D01*
X48388707Y54382403D01*
X48388707Y54382403D01*
G37*
G36*
X30155000Y53475000D02*
G01*
X27755000Y53475000D01*
X27755000Y54475000D01*
X30155000Y54475000D01*
X30155000Y53475000D01*
X30155000Y53475000D01*
G37*
G36*
X39555000Y53475000D02*
G01*
X37155000Y53475000D01*
X37155000Y54475000D01*
X39555000Y54475000D01*
X39555000Y53475000D01*
X39555000Y53475000D01*
G37*
G36*
X23045000Y53475000D02*
G01*
X20645000Y53475000D01*
X20645000Y54475000D01*
X23045000Y54475000D01*
X23045000Y53475000D01*
X23045000Y53475000D01*
G37*
G36*
X13645000Y53475000D02*
G01*
X11245000Y53475000D01*
X11245000Y54475000D01*
X13645000Y54475000D01*
X13645000Y53475000D01*
X13645000Y53475000D01*
G37*
G36*
X13645000Y54745000D02*
G01*
X11245000Y54745000D01*
X11245000Y55745000D01*
X13645000Y55745000D01*
X13645000Y54745000D01*
X13645000Y54745000D01*
G37*
G36*
X23045000Y54745000D02*
G01*
X20645000Y54745000D01*
X20645000Y55745000D01*
X23045000Y55745000D01*
X23045000Y54745000D01*
X23045000Y54745000D01*
G37*
G36*
X30155000Y54745000D02*
G01*
X27755000Y54745000D01*
X27755000Y55745000D01*
X30155000Y55745000D01*
X30155000Y54745000D01*
X30155000Y54745000D01*
G37*
G36*
X39555000Y54745000D02*
G01*
X37155000Y54745000D01*
X37155000Y55745000D01*
X39555000Y55745000D01*
X39555000Y54745000D01*
X39555000Y54745000D01*
G37*
G36*
X5208707Y56922404D02*
G01*
X5285836Y56914807D01*
X5483762Y56854767D01*
X5483765Y56854766D01*
X5666170Y56757268D01*
X5826055Y56626055D01*
X5957268Y56466170D01*
X6054766Y56283765D01*
X6054767Y56283762D01*
X6114807Y56085836D01*
X6135080Y55880000D01*
X6114807Y55674164D01*
X6054767Y55476238D01*
X6054766Y55476235D01*
X5957268Y55293830D01*
X5826055Y55133945D01*
X5666170Y55002732D01*
X5483765Y54905234D01*
X5483762Y54905233D01*
X5285836Y54845193D01*
X5208707Y54837596D01*
X5131580Y54830000D01*
X5028420Y54830000D01*
X4951293Y54837596D01*
X4874164Y54845193D01*
X4676238Y54905233D01*
X4676235Y54905234D01*
X4493830Y55002732D01*
X4333945Y55133945D01*
X4202732Y55293830D01*
X4105234Y55476235D01*
X4105233Y55476238D01*
X4045193Y55674164D01*
X4024920Y55880000D01*
X4045193Y56085836D01*
X4105233Y56283762D01*
X4105234Y56283765D01*
X4202732Y56466170D01*
X4333945Y56626055D01*
X4493830Y56757268D01*
X4676235Y56854766D01*
X4676238Y56854767D01*
X4874164Y56914807D01*
X4951293Y56922404D01*
X5028420Y56930000D01*
X5131580Y56930000D01*
X5208707Y56922404D01*
X5208707Y56922404D01*
G37*
G36*
X2668707Y56922404D02*
G01*
X2745836Y56914807D01*
X2943762Y56854767D01*
X2943765Y56854766D01*
X3126170Y56757268D01*
X3286055Y56626055D01*
X3417268Y56466170D01*
X3514766Y56283765D01*
X3514767Y56283762D01*
X3574807Y56085836D01*
X3595080Y55880000D01*
X3574807Y55674164D01*
X3514767Y55476238D01*
X3514766Y55476235D01*
X3417268Y55293830D01*
X3286055Y55133945D01*
X3126170Y55002732D01*
X2943765Y54905234D01*
X2943762Y54905233D01*
X2745836Y54845193D01*
X2668707Y54837596D01*
X2591580Y54830000D01*
X2488420Y54830000D01*
X2411293Y54837596D01*
X2334164Y54845193D01*
X2136238Y54905233D01*
X2136235Y54905234D01*
X1953830Y55002732D01*
X1793945Y55133945D01*
X1662732Y55293830D01*
X1565234Y55476235D01*
X1565233Y55476238D01*
X1505193Y55674164D01*
X1484920Y55880000D01*
X1505193Y56085836D01*
X1565233Y56283762D01*
X1565234Y56283765D01*
X1662732Y56466170D01*
X1793945Y56626055D01*
X1953830Y56757268D01*
X2136235Y56854766D01*
X2136238Y56854767D01*
X2334164Y56914807D01*
X2411293Y56922404D01*
X2488420Y56930000D01*
X2591580Y56930000D01*
X2668707Y56922404D01*
X2668707Y56922404D01*
G37*
G36*
X45848707Y56922404D02*
G01*
X45925836Y56914807D01*
X46123762Y56854767D01*
X46123765Y56854766D01*
X46306170Y56757268D01*
X46466055Y56626055D01*
X46597268Y56466170D01*
X46694766Y56283765D01*
X46694767Y56283762D01*
X46754807Y56085836D01*
X46775080Y55880000D01*
X46754807Y55674164D01*
X46694767Y55476238D01*
X46694766Y55476235D01*
X46597268Y55293830D01*
X46466055Y55133945D01*
X46306170Y55002732D01*
X46123765Y54905234D01*
X46123762Y54905233D01*
X45925836Y54845193D01*
X45848707Y54837596D01*
X45771580Y54830000D01*
X45668420Y54830000D01*
X45591293Y54837596D01*
X45514164Y54845193D01*
X45316238Y54905233D01*
X45316235Y54905234D01*
X45133830Y55002732D01*
X44973945Y55133945D01*
X44842732Y55293830D01*
X44745234Y55476235D01*
X44745233Y55476238D01*
X44685193Y55674164D01*
X44664920Y55880000D01*
X44685193Y56085836D01*
X44745233Y56283762D01*
X44745234Y56283765D01*
X44842732Y56466170D01*
X44973945Y56626055D01*
X45133830Y56757268D01*
X45316235Y56854766D01*
X45316238Y56854767D01*
X45514164Y56914807D01*
X45591293Y56922404D01*
X45668420Y56930000D01*
X45771580Y56930000D01*
X45848707Y56922404D01*
X45848707Y56922404D01*
G37*
G36*
X48388707Y56922404D02*
G01*
X48465836Y56914807D01*
X48663762Y56854767D01*
X48663765Y56854766D01*
X48846170Y56757268D01*
X49006055Y56626055D01*
X49137268Y56466170D01*
X49234766Y56283765D01*
X49234767Y56283762D01*
X49294807Y56085836D01*
X49315080Y55880000D01*
X49294807Y55674164D01*
X49234767Y55476238D01*
X49234766Y55476235D01*
X49137268Y55293830D01*
X49006055Y55133945D01*
X48846170Y55002732D01*
X48663765Y54905234D01*
X48663762Y54905233D01*
X48465836Y54845193D01*
X48388707Y54837596D01*
X48311580Y54830000D01*
X48208420Y54830000D01*
X48131293Y54837596D01*
X48054164Y54845193D01*
X47856238Y54905233D01*
X47856235Y54905234D01*
X47673830Y55002732D01*
X47513945Y55133945D01*
X47382732Y55293830D01*
X47285234Y55476235D01*
X47285233Y55476238D01*
X47225193Y55674164D01*
X47204920Y55880000D01*
X47225193Y56085836D01*
X47285233Y56283762D01*
X47285234Y56283765D01*
X47382732Y56466170D01*
X47513945Y56626055D01*
X47673830Y56757268D01*
X47856235Y56854766D01*
X47856238Y56854767D01*
X48054164Y56914807D01*
X48131293Y56922404D01*
X48208420Y56930000D01*
X48311580Y56930000D01*
X48388707Y56922404D01*
X48388707Y56922404D01*
G37*
G36*
X13645000Y56015000D02*
G01*
X11245000Y56015000D01*
X11245000Y57015000D01*
X13645000Y57015000D01*
X13645000Y56015000D01*
X13645000Y56015000D01*
G37*
G36*
X39555000Y56015000D02*
G01*
X37155000Y56015000D01*
X37155000Y57015000D01*
X39555000Y57015000D01*
X39555000Y56015000D01*
X39555000Y56015000D01*
G37*
G36*
X30155000Y56015000D02*
G01*
X27755000Y56015000D01*
X27755000Y57015000D01*
X30155000Y57015000D01*
X30155000Y56015000D01*
X30155000Y56015000D01*
G37*
G36*
X23045000Y56015000D02*
G01*
X20645000Y56015000D01*
X20645000Y57015000D01*
X23045000Y57015000D01*
X23045000Y56015000D01*
X23045000Y56015000D01*
G37*
G36*
X39555000Y57285000D02*
G01*
X37155000Y57285000D01*
X37155000Y58285000D01*
X39555000Y58285000D01*
X39555000Y57285000D01*
X39555000Y57285000D01*
G37*
G36*
X30155000Y57285000D02*
G01*
X27755000Y57285000D01*
X27755000Y58285000D01*
X30155000Y58285000D01*
X30155000Y57285000D01*
X30155000Y57285000D01*
G37*
G36*
X23045000Y57285000D02*
G01*
X20645000Y57285000D01*
X20645000Y58285000D01*
X23045000Y58285000D01*
X23045000Y57285000D01*
X23045000Y57285000D01*
G37*
G36*
X13645000Y57285000D02*
G01*
X11245000Y57285000D01*
X11245000Y58285000D01*
X13645000Y58285000D01*
X13645000Y57285000D01*
X13645000Y57285000D01*
G37*
G36*
X2668707Y59462404D02*
G01*
X2745836Y59454807D01*
X2885119Y59412556D01*
X2943765Y59394766D01*
X3126170Y59297268D01*
X3286055Y59166055D01*
X3417268Y59006170D01*
X3514766Y58823765D01*
X3514767Y58823762D01*
X3574807Y58625836D01*
X3595080Y58420000D01*
X3574807Y58214164D01*
X3552757Y58141475D01*
X3514766Y58016235D01*
X3417268Y57833830D01*
X3286055Y57673945D01*
X3126170Y57542732D01*
X2943765Y57445234D01*
X2943762Y57445233D01*
X2745836Y57385193D01*
X2668707Y57377596D01*
X2591580Y57370000D01*
X2488420Y57370000D01*
X2411293Y57377596D01*
X2334164Y57385193D01*
X2136238Y57445233D01*
X2136235Y57445234D01*
X1953830Y57542732D01*
X1793945Y57673945D01*
X1662732Y57833830D01*
X1565234Y58016235D01*
X1527243Y58141475D01*
X1505193Y58214164D01*
X1484920Y58420000D01*
X1505193Y58625836D01*
X1565233Y58823762D01*
X1565234Y58823765D01*
X1662732Y59006170D01*
X1793945Y59166055D01*
X1953830Y59297268D01*
X2136235Y59394766D01*
X2194881Y59412556D01*
X2334164Y59454807D01*
X2411293Y59462404D01*
X2488420Y59470000D01*
X2591580Y59470000D01*
X2668707Y59462404D01*
X2668707Y59462404D01*
G37*
G36*
X45848707Y59462404D02*
G01*
X45925836Y59454807D01*
X46065119Y59412556D01*
X46123765Y59394766D01*
X46306170Y59297268D01*
X46466055Y59166055D01*
X46597268Y59006170D01*
X46694766Y58823765D01*
X46694767Y58823762D01*
X46754807Y58625836D01*
X46775080Y58420000D01*
X46754807Y58214164D01*
X46732757Y58141475D01*
X46694766Y58016235D01*
X46597268Y57833830D01*
X46466055Y57673945D01*
X46306170Y57542732D01*
X46123765Y57445234D01*
X46123762Y57445233D01*
X45925836Y57385193D01*
X45848707Y57377596D01*
X45771580Y57370000D01*
X45668420Y57370000D01*
X45591293Y57377596D01*
X45514164Y57385193D01*
X45316238Y57445233D01*
X45316235Y57445234D01*
X45133830Y57542732D01*
X44973945Y57673945D01*
X44842732Y57833830D01*
X44745234Y58016235D01*
X44707243Y58141475D01*
X44685193Y58214164D01*
X44664920Y58420000D01*
X44685193Y58625836D01*
X44745233Y58823762D01*
X44745234Y58823765D01*
X44842732Y59006170D01*
X44973945Y59166055D01*
X45133830Y59297268D01*
X45316235Y59394766D01*
X45374881Y59412556D01*
X45514164Y59454807D01*
X45591293Y59462404D01*
X45668420Y59470000D01*
X45771580Y59470000D01*
X45848707Y59462404D01*
X45848707Y59462404D01*
G37*
G36*
X48388707Y59462404D02*
G01*
X48465836Y59454807D01*
X48605119Y59412556D01*
X48663765Y59394766D01*
X48846170Y59297268D01*
X49006055Y59166055D01*
X49137268Y59006170D01*
X49234766Y58823765D01*
X49234767Y58823762D01*
X49294807Y58625836D01*
X49315080Y58420000D01*
X49294807Y58214164D01*
X49272757Y58141475D01*
X49234766Y58016235D01*
X49137268Y57833830D01*
X49006055Y57673945D01*
X48846170Y57542732D01*
X48663765Y57445234D01*
X48663762Y57445233D01*
X48465836Y57385193D01*
X48388707Y57377596D01*
X48311580Y57370000D01*
X48208420Y57370000D01*
X48131293Y57377596D01*
X48054164Y57385193D01*
X47856238Y57445233D01*
X47856235Y57445234D01*
X47673830Y57542732D01*
X47513945Y57673945D01*
X47382732Y57833830D01*
X47285234Y58016235D01*
X47247243Y58141475D01*
X47225193Y58214164D01*
X47204920Y58420000D01*
X47225193Y58625836D01*
X47285233Y58823762D01*
X47285234Y58823765D01*
X47382732Y59006170D01*
X47513945Y59166055D01*
X47673830Y59297268D01*
X47856235Y59394766D01*
X47914881Y59412556D01*
X48054164Y59454807D01*
X48131293Y59462404D01*
X48208420Y59470000D01*
X48311580Y59470000D01*
X48388707Y59462404D01*
X48388707Y59462404D01*
G37*
G36*
X5208707Y59462404D02*
G01*
X5285836Y59454807D01*
X5425119Y59412556D01*
X5483765Y59394766D01*
X5666170Y59297268D01*
X5826055Y59166055D01*
X5957268Y59006170D01*
X6054766Y58823765D01*
X6054767Y58823762D01*
X6114807Y58625836D01*
X6135080Y58420000D01*
X6114807Y58214164D01*
X6092757Y58141475D01*
X6054766Y58016235D01*
X5957268Y57833830D01*
X5826055Y57673945D01*
X5666170Y57542732D01*
X5483765Y57445234D01*
X5483762Y57445233D01*
X5285836Y57385193D01*
X5208707Y57377596D01*
X5131580Y57370000D01*
X5028420Y57370000D01*
X4951293Y57377596D01*
X4874164Y57385193D01*
X4676238Y57445233D01*
X4676235Y57445234D01*
X4493830Y57542732D01*
X4333945Y57673945D01*
X4202732Y57833830D01*
X4105234Y58016235D01*
X4067243Y58141475D01*
X4045193Y58214164D01*
X4024920Y58420000D01*
X4045193Y58625836D01*
X4105233Y58823762D01*
X4105234Y58823765D01*
X4202732Y59006170D01*
X4333945Y59166055D01*
X4493830Y59297268D01*
X4676235Y59394766D01*
X4734881Y59412556D01*
X4874164Y59454807D01*
X4951293Y59462404D01*
X5028420Y59470000D01*
X5131580Y59470000D01*
X5208707Y59462404D01*
X5208707Y59462404D01*
G37*
G36*
X41960529Y59679290D02*
G01*
X42010378Y59664169D01*
X42056310Y59639618D01*
X42096574Y59606574D01*
X42129618Y59566310D01*
X42154169Y59520378D01*
X42169290Y59470529D01*
X42175000Y59412556D01*
X42175000Y58407444D01*
X42169290Y58349471D01*
X42154169Y58299622D01*
X42129618Y58253690D01*
X42096574Y58213426D01*
X42056310Y58180382D01*
X42010378Y58155831D01*
X41960529Y58140710D01*
X41902556Y58135000D01*
X40647444Y58135000D01*
X40589471Y58140710D01*
X40539622Y58155831D01*
X40493690Y58180382D01*
X40453426Y58213426D01*
X40420382Y58253690D01*
X40395831Y58299622D01*
X40380710Y58349471D01*
X40375000Y58407444D01*
X40375000Y59412556D01*
X40380710Y59470529D01*
X40395831Y59520378D01*
X40420382Y59566310D01*
X40453426Y59606574D01*
X40493690Y59639618D01*
X40539622Y59664169D01*
X40589471Y59679290D01*
X40647444Y59685000D01*
X41902556Y59685000D01*
X41960529Y59679290D01*
X41960529Y59679290D01*
G37*
G36*
X24815529Y62119290D02*
G01*
X24865378Y62104169D01*
X24911310Y62079618D01*
X24951574Y62046574D01*
X24984618Y62006310D01*
X25009169Y61960378D01*
X25024290Y61910529D01*
X25030000Y61852556D01*
X25030000Y60847444D01*
X25024290Y60789471D01*
X25009169Y60739622D01*
X24984618Y60693690D01*
X24951574Y60653426D01*
X24911310Y60620382D01*
X24865378Y60595831D01*
X24815529Y60580710D01*
X24757556Y60575000D01*
X23502444Y60575000D01*
X23444471Y60580710D01*
X23394622Y60595831D01*
X23348690Y60620382D01*
X23308426Y60653426D01*
X23268854Y60701645D01*
X23266632Y60704971D01*
X23249307Y60722300D01*
X23228934Y60735916D01*
X23206296Y60745295D01*
X23182263Y60750078D01*
X23157759Y60750080D01*
X23133725Y60745302D01*
X23111086Y60735927D01*
X23090710Y60722315D01*
X23073381Y60704990D01*
X23059765Y60684617D01*
X23050386Y60661979D01*
X23045603Y60637946D01*
X23045000Y60625682D01*
X23045000Y60024318D01*
X23047402Y59999932D01*
X23054515Y59976483D01*
X23066066Y59954872D01*
X23081611Y59935930D01*
X23100553Y59920385D01*
X23122164Y59908834D01*
X23145613Y59901721D01*
X23169999Y59899319D01*
X23194385Y59901721D01*
X23217834Y59908834D01*
X23239445Y59920385D01*
X23258387Y59935930D01*
X23267411Y59946925D01*
X23267572Y59946793D01*
X23308426Y59996574D01*
X23348690Y60029618D01*
X23394622Y60054169D01*
X23444471Y60069290D01*
X23502444Y60075000D01*
X24757556Y60075000D01*
X24815529Y60069290D01*
X24865378Y60054169D01*
X24911310Y60029618D01*
X24951574Y59996574D01*
X24984618Y59956310D01*
X25009169Y59910378D01*
X25024290Y59860529D01*
X25030000Y59802556D01*
X25030000Y58797444D01*
X25024290Y58739471D01*
X25009169Y58689622D01*
X24984618Y58643690D01*
X24951574Y58603426D01*
X24911310Y58570382D01*
X24865378Y58545831D01*
X24815529Y58530710D01*
X24757556Y58525000D01*
X23502444Y58525000D01*
X23444471Y58530710D01*
X23394622Y58545831D01*
X23348690Y58570382D01*
X23308426Y58603426D01*
X23268854Y58651645D01*
X23266632Y58654971D01*
X23249307Y58672300D01*
X23228934Y58685916D01*
X23206296Y58695295D01*
X23182263Y58700078D01*
X23157759Y58700080D01*
X23133725Y58695302D01*
X23111086Y58685927D01*
X23090710Y58672315D01*
X23073381Y58654990D01*
X23059765Y58634617D01*
X23050386Y58611979D01*
X23045603Y58587946D01*
X23045000Y58575682D01*
X23045000Y58555000D01*
X20645000Y58555000D01*
X20645000Y59555000D01*
X23105001Y59555000D01*
X23129387Y59557402D01*
X23152836Y59564515D01*
X23174447Y59576066D01*
X23193389Y59591611D01*
X23208934Y59610553D01*
X23220485Y59632164D01*
X23227598Y59655613D01*
X23230000Y59679999D01*
X23230000Y59700001D01*
X23227598Y59724387D01*
X23220485Y59747836D01*
X23208934Y59769447D01*
X23193389Y59788389D01*
X23174447Y59803934D01*
X23152836Y59815485D01*
X23129387Y59822598D01*
X23105001Y59825000D01*
X20645000Y59825000D01*
X20645000Y60825000D01*
X23105001Y60825000D01*
X23129387Y60827402D01*
X23152836Y60834515D01*
X23174447Y60846066D01*
X23193389Y60861611D01*
X23208934Y60880553D01*
X23220485Y60902164D01*
X23227598Y60925613D01*
X23230000Y60949999D01*
X23230000Y60970001D01*
X23227598Y60994387D01*
X23220485Y61017836D01*
X23208934Y61039447D01*
X23193389Y61058389D01*
X23174447Y61073934D01*
X23152836Y61085485D01*
X23129387Y61092598D01*
X23105001Y61095000D01*
X20645000Y61095000D01*
X20645000Y62095000D01*
X23045000Y62095000D01*
X23045000Y62074318D01*
X23047402Y62049932D01*
X23054515Y62026483D01*
X23066066Y62004872D01*
X23081611Y61985930D01*
X23100553Y61970385D01*
X23122164Y61958834D01*
X23145613Y61951721D01*
X23169999Y61949319D01*
X23194385Y61951721D01*
X23217834Y61958834D01*
X23239445Y61970385D01*
X23258387Y61985930D01*
X23267411Y61996925D01*
X23267572Y61996793D01*
X23308426Y62046574D01*
X23348690Y62079618D01*
X23394622Y62104169D01*
X23444471Y62119290D01*
X23502444Y62125000D01*
X24757556Y62125000D01*
X24815529Y62119290D01*
X24815529Y62119290D01*
G37*
G36*
X27355529Y62119290D02*
G01*
X27405378Y62104169D01*
X27451310Y62079618D01*
X27491574Y62046574D01*
X27531146Y61998355D01*
X27533368Y61995029D01*
X27550693Y61977700D01*
X27571066Y61964084D01*
X27593704Y61954705D01*
X27617737Y61949922D01*
X27642241Y61949920D01*
X27666275Y61954698D01*
X27688914Y61964073D01*
X27709290Y61977685D01*
X27726619Y61995010D01*
X27740235Y62015383D01*
X27749614Y62038021D01*
X27754397Y62062054D01*
X27755000Y62074318D01*
X27755000Y62095000D01*
X30155000Y62095000D01*
X30155000Y61095000D01*
X27694999Y61095000D01*
X27670613Y61092598D01*
X27647164Y61085485D01*
X27625553Y61073934D01*
X27606611Y61058389D01*
X27591066Y61039447D01*
X27579515Y61017836D01*
X27572402Y60994387D01*
X27570000Y60970001D01*
X27570000Y60949999D01*
X27572402Y60925613D01*
X27579515Y60902164D01*
X27591066Y60880553D01*
X27606611Y60861611D01*
X27625553Y60846066D01*
X27647164Y60834515D01*
X27670613Y60827402D01*
X27694999Y60825000D01*
X30155000Y60825000D01*
X30155000Y59825000D01*
X27694999Y59825000D01*
X27670613Y59822598D01*
X27647164Y59815485D01*
X27625553Y59803934D01*
X27606611Y59788389D01*
X27591066Y59769447D01*
X27579515Y59747836D01*
X27572402Y59724387D01*
X27570000Y59700001D01*
X27570000Y59679999D01*
X27572402Y59655613D01*
X27579515Y59632164D01*
X27591066Y59610553D01*
X27606611Y59591611D01*
X27625553Y59576066D01*
X27647164Y59564515D01*
X27670613Y59557402D01*
X27694999Y59555000D01*
X30155000Y59555000D01*
X30155000Y58555000D01*
X27755000Y58555000D01*
X27755000Y58575682D01*
X27752598Y58600068D01*
X27745485Y58623517D01*
X27733934Y58645128D01*
X27718389Y58664070D01*
X27699447Y58679615D01*
X27677836Y58691166D01*
X27654387Y58698279D01*
X27630001Y58700681D01*
X27605615Y58698279D01*
X27582166Y58691166D01*
X27560555Y58679615D01*
X27541613Y58664070D01*
X27532589Y58653075D01*
X27532428Y58653207D01*
X27491574Y58603426D01*
X27451310Y58570382D01*
X27405378Y58545831D01*
X27355529Y58530710D01*
X27297556Y58525000D01*
X26042444Y58525000D01*
X25984471Y58530710D01*
X25934622Y58545831D01*
X25888690Y58570382D01*
X25848426Y58603426D01*
X25815382Y58643690D01*
X25790831Y58689622D01*
X25775710Y58739471D01*
X25770000Y58797444D01*
X25770000Y59802556D01*
X25775710Y59860529D01*
X25790831Y59910378D01*
X25815382Y59956310D01*
X25848426Y59996574D01*
X25888690Y60029618D01*
X25934622Y60054169D01*
X25984471Y60069290D01*
X26042444Y60075000D01*
X27297556Y60075000D01*
X27355529Y60069290D01*
X27405378Y60054169D01*
X27451310Y60029618D01*
X27491574Y59996574D01*
X27531146Y59948355D01*
X27533368Y59945029D01*
X27550693Y59927700D01*
X27571066Y59914084D01*
X27593704Y59904705D01*
X27617737Y59899922D01*
X27642241Y59899920D01*
X27666275Y59904698D01*
X27688914Y59914073D01*
X27709290Y59927685D01*
X27726619Y59945010D01*
X27740235Y59965383D01*
X27749614Y59988021D01*
X27754397Y60012054D01*
X27755000Y60024318D01*
X27755000Y60625682D01*
X27752598Y60650068D01*
X27745485Y60673517D01*
X27733934Y60695128D01*
X27718389Y60714070D01*
X27699447Y60729615D01*
X27677836Y60741166D01*
X27654387Y60748279D01*
X27630001Y60750681D01*
X27605615Y60748279D01*
X27582166Y60741166D01*
X27560555Y60729615D01*
X27541613Y60714070D01*
X27532589Y60703075D01*
X27532428Y60703207D01*
X27491574Y60653426D01*
X27451310Y60620382D01*
X27405378Y60595831D01*
X27355529Y60580710D01*
X27297556Y60575000D01*
X26042444Y60575000D01*
X25984471Y60580710D01*
X25934622Y60595831D01*
X25888690Y60620382D01*
X25848426Y60653426D01*
X25815382Y60693690D01*
X25790831Y60739622D01*
X25775710Y60789471D01*
X25770000Y60847444D01*
X25770000Y61852556D01*
X25775710Y61910529D01*
X25790831Y61960378D01*
X25815382Y62006310D01*
X25848426Y62046574D01*
X25888690Y62079618D01*
X25934622Y62104169D01*
X25984471Y62119290D01*
X26042444Y62125000D01*
X27297556Y62125000D01*
X27355529Y62119290D01*
X27355529Y62119290D01*
G37*
G36*
X13645000Y58555000D02*
G01*
X11245000Y58555000D01*
X11245000Y59555000D01*
X13645000Y59555000D01*
X13645000Y58555000D01*
X13645000Y58555000D01*
G37*
G36*
X39555000Y58555000D02*
G01*
X37155000Y58555000D01*
X37155000Y59555000D01*
X39555000Y59555000D01*
X39555000Y58555000D01*
X39555000Y58555000D01*
G37*
G36*
X13645000Y59825000D02*
G01*
X11245000Y59825000D01*
X11245000Y60825000D01*
X13645000Y60825000D01*
X13645000Y59825000D01*
X13645000Y59825000D01*
G37*
G36*
X39555000Y59825000D02*
G01*
X37155000Y59825000D01*
X37155000Y60825000D01*
X39555000Y60825000D01*
X39555000Y59825000D01*
X39555000Y59825000D01*
G37*
G36*
X45823644Y62004872D02*
G01*
X45925836Y61994807D01*
X46075790Y61949319D01*
X46123765Y61934766D01*
X46306170Y61837268D01*
X46466055Y61706055D01*
X46597268Y61546170D01*
X46694766Y61363765D01*
X46694767Y61363762D01*
X46754807Y61165836D01*
X46775080Y60960000D01*
X46754807Y60754164D01*
X46702190Y60580710D01*
X46694766Y60556235D01*
X46597268Y60373830D01*
X46466055Y60213945D01*
X46306170Y60082732D01*
X46123765Y59985234D01*
X46123762Y59985233D01*
X45925836Y59925193D01*
X45877019Y59920385D01*
X45771580Y59910000D01*
X45668420Y59910000D01*
X45562981Y59920385D01*
X45514164Y59925193D01*
X45316238Y59985233D01*
X45316235Y59985234D01*
X45133830Y60082732D01*
X44973945Y60213945D01*
X44842732Y60373830D01*
X44745234Y60556235D01*
X44737810Y60580710D01*
X44685193Y60754164D01*
X44664920Y60960000D01*
X44685193Y61165836D01*
X44745233Y61363762D01*
X44745234Y61363765D01*
X44842732Y61546170D01*
X44973945Y61706055D01*
X45133830Y61837268D01*
X45316235Y61934766D01*
X45364210Y61949319D01*
X45514164Y61994807D01*
X45616356Y62004872D01*
X45668420Y62010000D01*
X45771580Y62010000D01*
X45823644Y62004872D01*
X45823644Y62004872D01*
G37*
G36*
X2643644Y62004872D02*
G01*
X2745836Y61994807D01*
X2895790Y61949319D01*
X2943765Y61934766D01*
X3126170Y61837268D01*
X3286055Y61706055D01*
X3417268Y61546170D01*
X3514766Y61363765D01*
X3514767Y61363762D01*
X3574807Y61165836D01*
X3595080Y60960000D01*
X3574807Y60754164D01*
X3522190Y60580710D01*
X3514766Y60556235D01*
X3417268Y60373830D01*
X3286055Y60213945D01*
X3126170Y60082732D01*
X2943765Y59985234D01*
X2943762Y59985233D01*
X2745836Y59925193D01*
X2697019Y59920385D01*
X2591580Y59910000D01*
X2488420Y59910000D01*
X2382981Y59920385D01*
X2334164Y59925193D01*
X2136238Y59985233D01*
X2136235Y59985234D01*
X1953830Y60082732D01*
X1793945Y60213945D01*
X1662732Y60373830D01*
X1565234Y60556235D01*
X1557810Y60580710D01*
X1505193Y60754164D01*
X1484920Y60960000D01*
X1505193Y61165836D01*
X1565233Y61363762D01*
X1565234Y61363765D01*
X1662732Y61546170D01*
X1793945Y61706055D01*
X1953830Y61837268D01*
X2136235Y61934766D01*
X2184210Y61949319D01*
X2334164Y61994807D01*
X2436356Y62004872D01*
X2488420Y62010000D01*
X2591580Y62010000D01*
X2643644Y62004872D01*
X2643644Y62004872D01*
G37*
G36*
X6130000Y59910000D02*
G01*
X4030000Y59910000D01*
X4030000Y62010000D01*
X6130000Y62010000D01*
X6130000Y59910000D01*
X6130000Y59910000D01*
G37*
G36*
X48363644Y62004872D02*
G01*
X48465836Y61994807D01*
X48615790Y61949319D01*
X48663765Y61934766D01*
X48846170Y61837268D01*
X49006055Y61706055D01*
X49137268Y61546170D01*
X49234766Y61363765D01*
X49234767Y61363762D01*
X49294807Y61165836D01*
X49315080Y60960000D01*
X49294807Y60754164D01*
X49242190Y60580710D01*
X49234766Y60556235D01*
X49137268Y60373830D01*
X49006055Y60213945D01*
X48846170Y60082732D01*
X48663765Y59985234D01*
X48663762Y59985233D01*
X48465836Y59925193D01*
X48417019Y59920385D01*
X48311580Y59910000D01*
X48208420Y59910000D01*
X48102981Y59920385D01*
X48054164Y59925193D01*
X47856238Y59985233D01*
X47856235Y59985234D01*
X47673830Y60082732D01*
X47513945Y60213945D01*
X47382732Y60373830D01*
X47285234Y60556235D01*
X47277810Y60580710D01*
X47225193Y60754164D01*
X47204920Y60960000D01*
X47225193Y61165836D01*
X47285233Y61363762D01*
X47285234Y61363765D01*
X47382732Y61546170D01*
X47513945Y61706055D01*
X47673830Y61837268D01*
X47856235Y61934766D01*
X47904210Y61949319D01*
X48054164Y61994807D01*
X48156356Y62004872D01*
X48208420Y62010000D01*
X48311580Y62010000D01*
X48363644Y62004872D01*
X48363644Y62004872D01*
G37*
G36*
X41960529Y61729290D02*
G01*
X42010378Y61714169D01*
X42056310Y61689618D01*
X42096574Y61656574D01*
X42129618Y61616310D01*
X42154169Y61570378D01*
X42169290Y61520529D01*
X42175000Y61462556D01*
X42175000Y60457444D01*
X42169290Y60399471D01*
X42154169Y60349622D01*
X42129618Y60303690D01*
X42096574Y60263426D01*
X42056310Y60230382D01*
X42010378Y60205831D01*
X41960529Y60190710D01*
X41902556Y60185000D01*
X40647444Y60185000D01*
X40589471Y60190710D01*
X40539622Y60205831D01*
X40493690Y60230382D01*
X40453426Y60263426D01*
X40420382Y60303690D01*
X40395831Y60349622D01*
X40380710Y60399471D01*
X40375000Y60457444D01*
X40375000Y61462556D01*
X40380710Y61520529D01*
X40395831Y61570378D01*
X40420382Y61616310D01*
X40453426Y61656574D01*
X40493690Y61689618D01*
X40539622Y61714169D01*
X40589471Y61729290D01*
X40647444Y61735000D01*
X41902556Y61735000D01*
X41960529Y61729290D01*
X41960529Y61729290D01*
G37*
G36*
X39555000Y61095000D02*
G01*
X37155000Y61095000D01*
X37155000Y62095000D01*
X39555000Y62095000D01*
X39555000Y61095000D01*
X39555000Y61095000D01*
G37*
G36*
X13645000Y61095000D02*
G01*
X11245000Y61095000D01*
X11245000Y62095000D01*
X13645000Y62095000D01*
X13645000Y61095000D01*
X13645000Y61095000D01*
G37*
G36*
X5885529Y64902290D02*
G01*
X5935378Y64887169D01*
X5981310Y64862618D01*
X6021574Y64829574D01*
X6054618Y64789310D01*
X6079169Y64743378D01*
X6094290Y64693529D01*
X6100000Y64635556D01*
X6100000Y63380444D01*
X6094290Y63322471D01*
X6079169Y63272622D01*
X6054618Y63226690D01*
X6021574Y63186426D01*
X5981310Y63153382D01*
X5935378Y63128831D01*
X5885529Y63113710D01*
X5827556Y63108000D01*
X4822444Y63108000D01*
X4764471Y63113710D01*
X4714622Y63128831D01*
X4668690Y63153382D01*
X4628426Y63186426D01*
X4595382Y63226690D01*
X4570831Y63272622D01*
X4555710Y63322471D01*
X4550000Y63380444D01*
X4550000Y64635556D01*
X4555710Y64693529D01*
X4570831Y64743378D01*
X4595382Y64789310D01*
X4628426Y64829574D01*
X4668690Y64862618D01*
X4714622Y64887169D01*
X4764471Y64902290D01*
X4822444Y64908000D01*
X5827556Y64908000D01*
X5885529Y64902290D01*
X5885529Y64902290D01*
G37*
G36*
X7935529Y64902290D02*
G01*
X7985378Y64887169D01*
X8031310Y64862618D01*
X8071574Y64829574D01*
X8104618Y64789310D01*
X8129169Y64743378D01*
X8144290Y64693529D01*
X8150000Y64635556D01*
X8150000Y63380444D01*
X8144290Y63322471D01*
X8129169Y63272622D01*
X8104618Y63226690D01*
X8071574Y63186426D01*
X8031310Y63153382D01*
X7985378Y63128831D01*
X7935529Y63113710D01*
X7877556Y63108000D01*
X6872444Y63108000D01*
X6814471Y63113710D01*
X6764622Y63128831D01*
X6718690Y63153382D01*
X6678426Y63186426D01*
X6645382Y63226690D01*
X6620831Y63272622D01*
X6605710Y63322471D01*
X6600000Y63380444D01*
X6600000Y64635556D01*
X6605710Y64693529D01*
X6620831Y64743378D01*
X6645382Y64789310D01*
X6678426Y64829574D01*
X6718690Y64862618D01*
X6764622Y64887169D01*
X6814471Y64902290D01*
X6872444Y64908000D01*
X7877556Y64908000D01*
X7935529Y64902290D01*
X7935529Y64902290D01*
G37*
G36*
X47305529Y66934290D02*
G01*
X47355378Y66919169D01*
X47401310Y66894618D01*
X47441574Y66861574D01*
X47474618Y66821310D01*
X47499169Y66775378D01*
X47514290Y66725529D01*
X47520000Y66667556D01*
X47520000Y65412444D01*
X47514290Y65354471D01*
X47499169Y65304622D01*
X47474618Y65258690D01*
X47441574Y65218426D01*
X47401310Y65185382D01*
X47355378Y65160831D01*
X47305529Y65145710D01*
X47247556Y65140000D01*
X46242444Y65140000D01*
X46184471Y65145710D01*
X46134622Y65160831D01*
X46088690Y65185382D01*
X46048426Y65218426D01*
X46015382Y65258690D01*
X45990831Y65304622D01*
X45975710Y65354471D01*
X45970000Y65412444D01*
X45970000Y66667556D01*
X45975710Y66725529D01*
X45990831Y66775378D01*
X46015382Y66821310D01*
X46048426Y66861574D01*
X46088690Y66894618D01*
X46134622Y66919169D01*
X46184471Y66934290D01*
X46242444Y66940000D01*
X47247556Y66940000D01*
X47305529Y66934290D01*
X47305529Y66934290D01*
G37*
G36*
X45255529Y66934290D02*
G01*
X45305378Y66919169D01*
X45351310Y66894618D01*
X45391574Y66861574D01*
X45424618Y66821310D01*
X45449169Y66775378D01*
X45464290Y66725529D01*
X45470000Y66667556D01*
X45470000Y65412444D01*
X45464290Y65354471D01*
X45449169Y65304622D01*
X45424618Y65258690D01*
X45391574Y65218426D01*
X45351310Y65185382D01*
X45305378Y65160831D01*
X45255529Y65145710D01*
X45197556Y65140000D01*
X44192444Y65140000D01*
X44134471Y65145710D01*
X44084622Y65160831D01*
X44038690Y65185382D01*
X43998426Y65218426D01*
X43965382Y65258690D01*
X43940831Y65304622D01*
X43925710Y65354471D01*
X43920000Y65412444D01*
X43920000Y66667556D01*
X43925710Y66725529D01*
X43940831Y66775378D01*
X43965382Y66821310D01*
X43998426Y66861574D01*
X44038690Y66894618D01*
X44084622Y66919169D01*
X44134471Y66934290D01*
X44192444Y66940000D01*
X45197556Y66940000D01*
X45255529Y66934290D01*
X45255529Y66934290D01*
G37*
G36*
X5885529Y67188290D02*
G01*
X5935378Y67173169D01*
X5981310Y67148618D01*
X6021574Y67115574D01*
X6054618Y67075310D01*
X6079169Y67029378D01*
X6094290Y66979529D01*
X6100000Y66921556D01*
X6100000Y65666444D01*
X6094290Y65608471D01*
X6079169Y65558622D01*
X6054618Y65512690D01*
X6021574Y65472426D01*
X5981310Y65439382D01*
X5935378Y65414831D01*
X5885529Y65399710D01*
X5827556Y65394000D01*
X4822444Y65394000D01*
X4764471Y65399710D01*
X4714622Y65414831D01*
X4668690Y65439382D01*
X4628426Y65472426D01*
X4595382Y65512690D01*
X4570831Y65558622D01*
X4555710Y65608471D01*
X4550000Y65666444D01*
X4550000Y66921556D01*
X4555710Y66979529D01*
X4570831Y67029378D01*
X4595382Y67075310D01*
X4628426Y67115574D01*
X4668690Y67148618D01*
X4714622Y67173169D01*
X4764471Y67188290D01*
X4822444Y67194000D01*
X5827556Y67194000D01*
X5885529Y67188290D01*
X5885529Y67188290D01*
G37*
G36*
X7935529Y67188290D02*
G01*
X7985378Y67173169D01*
X8031310Y67148618D01*
X8071574Y67115574D01*
X8104618Y67075310D01*
X8129169Y67029378D01*
X8144290Y66979529D01*
X8150000Y66921556D01*
X8150000Y65666444D01*
X8144290Y65608471D01*
X8129169Y65558622D01*
X8104618Y65512690D01*
X8071574Y65472426D01*
X8031310Y65439382D01*
X7985378Y65414831D01*
X7935529Y65399710D01*
X7877556Y65394000D01*
X6872444Y65394000D01*
X6814471Y65399710D01*
X6764622Y65414831D01*
X6718690Y65439382D01*
X6678426Y65472426D01*
X6645382Y65512690D01*
X6620831Y65558622D01*
X6605710Y65608471D01*
X6600000Y65666444D01*
X6600000Y66921556D01*
X6605710Y66979529D01*
X6620831Y67029378D01*
X6645382Y67075310D01*
X6678426Y67115574D01*
X6718690Y67148618D01*
X6764622Y67173169D01*
X6814471Y67188290D01*
X6872444Y67194000D01*
X7877556Y67194000D01*
X7935529Y67188290D01*
X7935529Y67188290D01*
G37*
G36*
X5885529Y69474290D02*
G01*
X5935378Y69459169D01*
X5981310Y69434618D01*
X6021574Y69401574D01*
X6054618Y69361310D01*
X6079169Y69315378D01*
X6094290Y69265529D01*
X6100000Y69207556D01*
X6100000Y67952444D01*
X6094290Y67894471D01*
X6079169Y67844622D01*
X6054618Y67798690D01*
X6021574Y67758426D01*
X5981310Y67725382D01*
X5935378Y67700831D01*
X5885529Y67685710D01*
X5827556Y67680000D01*
X4822444Y67680000D01*
X4764471Y67685710D01*
X4714622Y67700831D01*
X4668690Y67725382D01*
X4628426Y67758426D01*
X4595382Y67798690D01*
X4570831Y67844622D01*
X4555710Y67894471D01*
X4550000Y67952444D01*
X4550000Y69207556D01*
X4555710Y69265529D01*
X4570831Y69315378D01*
X4595382Y69361310D01*
X4628426Y69401574D01*
X4668690Y69434618D01*
X4714622Y69459169D01*
X4764471Y69474290D01*
X4822444Y69480000D01*
X5827556Y69480000D01*
X5885529Y69474290D01*
X5885529Y69474290D01*
G37*
G36*
X7935529Y69474290D02*
G01*
X7985378Y69459169D01*
X8031310Y69434618D01*
X8071574Y69401574D01*
X8104618Y69361310D01*
X8129169Y69315378D01*
X8144290Y69265529D01*
X8150000Y69207556D01*
X8150000Y67952444D01*
X8144290Y67894471D01*
X8129169Y67844622D01*
X8104618Y67798690D01*
X8071574Y67758426D01*
X8031310Y67725382D01*
X7985378Y67700831D01*
X7935529Y67685710D01*
X7877556Y67680000D01*
X6872444Y67680000D01*
X6814471Y67685710D01*
X6764622Y67700831D01*
X6718690Y67725382D01*
X6678426Y67758426D01*
X6645382Y67798690D01*
X6620831Y67844622D01*
X6605710Y67894471D01*
X6600000Y67952444D01*
X6600000Y69207556D01*
X6605710Y69265529D01*
X6620831Y69315378D01*
X6645382Y69361310D01*
X6678426Y69401574D01*
X6718690Y69434618D01*
X6764622Y69459169D01*
X6814471Y69474290D01*
X6872444Y69480000D01*
X7877556Y69480000D01*
X7935529Y69474290D01*
X7935529Y69474290D01*
G37*
G36*
X45255529Y69474290D02*
G01*
X45305378Y69459169D01*
X45351310Y69434618D01*
X45391574Y69401574D01*
X45424618Y69361310D01*
X45449169Y69315378D01*
X45464290Y69265529D01*
X45470000Y69207556D01*
X45470000Y67952444D01*
X45464290Y67894471D01*
X45449169Y67844622D01*
X45424618Y67798690D01*
X45391574Y67758426D01*
X45351310Y67725382D01*
X45305378Y67700831D01*
X45255529Y67685710D01*
X45197556Y67680000D01*
X44192444Y67680000D01*
X44134471Y67685710D01*
X44084622Y67700831D01*
X44038690Y67725382D01*
X43998426Y67758426D01*
X43965382Y67798690D01*
X43940831Y67844622D01*
X43925710Y67894471D01*
X43920000Y67952444D01*
X43920000Y69207556D01*
X43925710Y69265529D01*
X43940831Y69315378D01*
X43965382Y69361310D01*
X43998426Y69401574D01*
X44038690Y69434618D01*
X44084622Y69459169D01*
X44134471Y69474290D01*
X44192444Y69480000D01*
X45197556Y69480000D01*
X45255529Y69474290D01*
X45255529Y69474290D01*
G37*
G36*
X47305529Y69474290D02*
G01*
X47355378Y69459169D01*
X47401310Y69434618D01*
X47441574Y69401574D01*
X47474618Y69361310D01*
X47499169Y69315378D01*
X47514290Y69265529D01*
X47520000Y69207556D01*
X47520000Y67952444D01*
X47514290Y67894471D01*
X47499169Y67844622D01*
X47474618Y67798690D01*
X47441574Y67758426D01*
X47401310Y67725382D01*
X47355378Y67700831D01*
X47305529Y67685710D01*
X47247556Y67680000D01*
X46242444Y67680000D01*
X46184471Y67685710D01*
X46134622Y67700831D01*
X46088690Y67725382D01*
X46048426Y67758426D01*
X46015382Y67798690D01*
X45990831Y67844622D01*
X45975710Y67894471D01*
X45970000Y67952444D01*
X45970000Y69207556D01*
X45975710Y69265529D01*
X45990831Y69315378D01*
X46015382Y69361310D01*
X46048426Y69401574D01*
X46088690Y69434618D01*
X46134622Y69459169D01*
X46184471Y69474290D01*
X46242444Y69480000D01*
X47247556Y69480000D01*
X47305529Y69474290D01*
X47305529Y69474290D01*
G37*
G36*
X40984196Y73045042D02*
G01*
X41220781Y72947045D01*
X41433702Y72804776D01*
X41614776Y72623702D01*
X41757045Y72410781D01*
X41855042Y72174196D01*
X41905000Y71923039D01*
X41905000Y71666961D01*
X41855042Y71415804D01*
X41757045Y71179219D01*
X41614776Y70966298D01*
X41433702Y70785224D01*
X41220781Y70642955D01*
X40984196Y70544958D01*
X40858617Y70519979D01*
X40733040Y70495000D01*
X40476960Y70495000D01*
X40351383Y70519979D01*
X40225804Y70544958D01*
X39989219Y70642955D01*
X39776298Y70785224D01*
X39595224Y70966298D01*
X39452955Y71179219D01*
X39354958Y71415804D01*
X39305000Y71666961D01*
X39305000Y71923039D01*
X39354958Y72174196D01*
X39452955Y72410781D01*
X39595224Y72623702D01*
X39776298Y72804776D01*
X39989219Y72947045D01*
X40225804Y73045042D01*
X40476960Y73095000D01*
X40733040Y73095000D01*
X40984196Y73045042D01*
X40984196Y73045042D01*
G37*
G36*
X10383696Y73045042D02*
G01*
X10620281Y72947045D01*
X10833202Y72804776D01*
X11014276Y72623702D01*
X11156545Y72410781D01*
X11254542Y72174196D01*
X11304500Y71923039D01*
X11304500Y71666961D01*
X11254542Y71415804D01*
X11156545Y71179219D01*
X11014276Y70966298D01*
X10833202Y70785224D01*
X10620281Y70642955D01*
X10383696Y70544958D01*
X10258117Y70519979D01*
X10132540Y70495000D01*
X9876460Y70495000D01*
X9750883Y70519979D01*
X9625304Y70544958D01*
X9388719Y70642955D01*
X9175798Y70785224D01*
X8994724Y70966298D01*
X8852455Y71179219D01*
X8754458Y71415804D01*
X8704500Y71666961D01*
X8704500Y71923039D01*
X8754458Y72174196D01*
X8852455Y72410781D01*
X8994724Y72623702D01*
X9175798Y72804776D01*
X9388719Y72947045D01*
X9625304Y73045042D01*
X9876460Y73095000D01*
X10132540Y73095000D01*
X10383696Y73045042D01*
X10383696Y73045042D01*
G37*
G36*
X3383696Y73045042D02*
G01*
X3620281Y72947045D01*
X3833202Y72804776D01*
X4014276Y72623702D01*
X4156545Y72410781D01*
X4254542Y72174196D01*
X4304500Y71923039D01*
X4304500Y71666961D01*
X4254542Y71415804D01*
X4156545Y71179219D01*
X4014276Y70966298D01*
X3833202Y70785224D01*
X3620281Y70642955D01*
X3383696Y70544958D01*
X3258117Y70519979D01*
X3132540Y70495000D01*
X2876460Y70495000D01*
X2750883Y70519979D01*
X2625304Y70544958D01*
X2388719Y70642955D01*
X2175798Y70785224D01*
X1994724Y70966298D01*
X1852455Y71179219D01*
X1754458Y71415804D01*
X1704500Y71666961D01*
X1704500Y71923039D01*
X1754458Y72174196D01*
X1852455Y72410781D01*
X1994724Y72623702D01*
X2175798Y72804776D01*
X2388719Y72947045D01*
X2625304Y73045042D01*
X2876460Y73095000D01*
X3132540Y73095000D01*
X3383696Y73045042D01*
X3383696Y73045042D01*
G37*
G36*
X47984196Y73045042D02*
G01*
X48220781Y72947045D01*
X48433702Y72804776D01*
X48614776Y72623702D01*
X48757045Y72410781D01*
X48855042Y72174196D01*
X48905000Y71923039D01*
X48905000Y71666961D01*
X48855042Y71415804D01*
X48757045Y71179219D01*
X48614776Y70966298D01*
X48433702Y70785224D01*
X48220781Y70642955D01*
X47984196Y70544958D01*
X47858617Y70519979D01*
X47733040Y70495000D01*
X47476960Y70495000D01*
X47351383Y70519979D01*
X47225804Y70544958D01*
X46989219Y70642955D01*
X46776298Y70785224D01*
X46595224Y70966298D01*
X46452955Y71179219D01*
X46354958Y71415804D01*
X46305000Y71666961D01*
X46305000Y71923039D01*
X46354958Y72174196D01*
X46452955Y72410781D01*
X46595224Y72623702D01*
X46776298Y72804776D01*
X46989219Y72947045D01*
X47225804Y73045042D01*
X47476960Y73095000D01*
X47733040Y73095000D01*
X47984196Y73045042D01*
X47984196Y73045042D01*
G37*
G36*
X18735857Y75352728D02*
G01*
X18936043Y75269808D01*
X18936045Y75269807D01*
X19002358Y75225498D01*
X19116208Y75149426D01*
X19269426Y74996208D01*
X19389808Y74816043D01*
X19472728Y74615857D01*
X19515000Y74403342D01*
X19515000Y74186658D01*
X19472728Y73974143D01*
X19399618Y73797640D01*
X19389807Y73773955D01*
X19269425Y73593791D01*
X19116209Y73440575D01*
X18936045Y73320193D01*
X18936044Y73320192D01*
X18936043Y73320192D01*
X18735857Y73237272D01*
X18523342Y73195000D01*
X18306658Y73195000D01*
X18094143Y73237272D01*
X17893957Y73320192D01*
X17893956Y73320192D01*
X17893955Y73320193D01*
X17713791Y73440575D01*
X17560575Y73593791D01*
X17440193Y73773955D01*
X17430382Y73797640D01*
X17357272Y73974143D01*
X17315000Y74186658D01*
X17315000Y74403342D01*
X17357272Y74615857D01*
X17440192Y74816043D01*
X17560574Y74996208D01*
X17713792Y75149426D01*
X17827642Y75225498D01*
X17893955Y75269807D01*
X17893957Y75269808D01*
X18094143Y75352728D01*
X18306658Y75395000D01*
X18523342Y75395000D01*
X18735857Y75352728D01*
X18735857Y75352728D01*
G37*
G36*
X23815857Y75352728D02*
G01*
X24016043Y75269808D01*
X24016045Y75269807D01*
X24082358Y75225498D01*
X24196208Y75149426D01*
X24349426Y74996208D01*
X24469808Y74816043D01*
X24552728Y74615857D01*
X24595000Y74403342D01*
X24595000Y74186658D01*
X24552728Y73974143D01*
X24479618Y73797640D01*
X24469807Y73773955D01*
X24349425Y73593791D01*
X24196209Y73440575D01*
X24016045Y73320193D01*
X24016044Y73320192D01*
X24016043Y73320192D01*
X23815857Y73237272D01*
X23603342Y73195000D01*
X23386658Y73195000D01*
X23174143Y73237272D01*
X22973957Y73320192D01*
X22973956Y73320192D01*
X22973955Y73320193D01*
X22793791Y73440575D01*
X22640575Y73593791D01*
X22520193Y73773955D01*
X22510382Y73797640D01*
X22437272Y73974143D01*
X22395000Y74186658D01*
X22395000Y74403342D01*
X22437272Y74615857D01*
X22520192Y74816043D01*
X22640574Y74996208D01*
X22793792Y75149426D01*
X22907642Y75225498D01*
X22973955Y75269807D01*
X22973957Y75269808D01*
X23174143Y75352728D01*
X23386658Y75395000D01*
X23603342Y75395000D01*
X23815857Y75352728D01*
X23815857Y75352728D01*
G37*
G36*
X13655857Y75352728D02*
G01*
X13856043Y75269808D01*
X13856045Y75269807D01*
X13922358Y75225498D01*
X14036208Y75149426D01*
X14189426Y74996208D01*
X14309808Y74816043D01*
X14392728Y74615857D01*
X14435000Y74403342D01*
X14435000Y74186658D01*
X14392728Y73974143D01*
X14319618Y73797640D01*
X14309807Y73773955D01*
X14189425Y73593791D01*
X14036209Y73440575D01*
X13856045Y73320193D01*
X13856044Y73320192D01*
X13856043Y73320192D01*
X13655857Y73237272D01*
X13443342Y73195000D01*
X13226658Y73195000D01*
X13014143Y73237272D01*
X12813957Y73320192D01*
X12813956Y73320192D01*
X12813955Y73320193D01*
X12633791Y73440575D01*
X12480575Y73593791D01*
X12360193Y73773955D01*
X12350382Y73797640D01*
X12277272Y73974143D01*
X12235000Y74186658D01*
X12235000Y74403342D01*
X12277272Y74615857D01*
X12360192Y74816043D01*
X12480574Y74996208D01*
X12633792Y75149426D01*
X12747642Y75225498D01*
X12813955Y75269807D01*
X12813957Y75269808D01*
X13014143Y75352728D01*
X13226658Y75395000D01*
X13443342Y75395000D01*
X13655857Y75352728D01*
X13655857Y75352728D01*
G37*
G36*
X27135000Y73195000D02*
G01*
X24935000Y73195000D01*
X24935000Y75395000D01*
X27135000Y75395000D01*
X27135000Y73195000D01*
X27135000Y73195000D01*
G37*
G36*
X22055000Y73195000D02*
G01*
X19855000Y73195000D01*
X19855000Y75395000D01*
X22055000Y75395000D01*
X22055000Y73195000D01*
X22055000Y73195000D01*
G37*
G36*
X16975000Y73195000D02*
G01*
X14775000Y73195000D01*
X14775000Y75395000D01*
X16975000Y75395000D01*
X16975000Y73195000D01*
X16975000Y73195000D01*
G37*
G36*
X46483687Y75339973D02*
G01*
X46661274Y75304650D01*
X46852362Y75225498D01*
X47024336Y75110589D01*
X47170589Y74964336D01*
X47285498Y74792362D01*
X47364650Y74601274D01*
X47399973Y74423687D01*
X47405000Y74398417D01*
X47405000Y74191583D01*
X47404020Y74186658D01*
X47364650Y73988726D01*
X47285498Y73797638D01*
X47170589Y73625664D01*
X47024336Y73479411D01*
X46852362Y73364502D01*
X46661274Y73285350D01*
X46483687Y73250027D01*
X46458417Y73245000D01*
X46251583Y73245000D01*
X46226313Y73250027D01*
X46048726Y73285350D01*
X45857638Y73364502D01*
X45685664Y73479411D01*
X45539411Y73625664D01*
X45424502Y73797638D01*
X45345350Y73988726D01*
X45305980Y74186658D01*
X45305000Y74191583D01*
X45305000Y74398417D01*
X45310027Y74423687D01*
X45345350Y74601274D01*
X45424502Y74792362D01*
X45539411Y74964336D01*
X45685664Y75110589D01*
X45857638Y75225498D01*
X46048726Y75304650D01*
X46226313Y75339973D01*
X46251583Y75345000D01*
X46458417Y75345000D01*
X46483687Y75339973D01*
X46483687Y75339973D01*
G37*
G36*
X41983687Y75339973D02*
G01*
X42161274Y75304650D01*
X42352362Y75225498D01*
X42524336Y75110589D01*
X42670589Y74964336D01*
X42785498Y74792362D01*
X42864650Y74601274D01*
X42899973Y74423687D01*
X42905000Y74398417D01*
X42905000Y74191583D01*
X42904020Y74186658D01*
X42864650Y73988726D01*
X42785498Y73797638D01*
X42670589Y73625664D01*
X42524336Y73479411D01*
X42352362Y73364502D01*
X42161274Y73285350D01*
X41983687Y73250027D01*
X41958417Y73245000D01*
X41751583Y73245000D01*
X41726313Y73250027D01*
X41548726Y73285350D01*
X41357638Y73364502D01*
X41185664Y73479411D01*
X41039411Y73625664D01*
X40924502Y73797638D01*
X40845350Y73988726D01*
X40805980Y74186658D01*
X40805000Y74191583D01*
X40805000Y74398417D01*
X40810027Y74423687D01*
X40845350Y74601274D01*
X40924502Y74792362D01*
X41039411Y74964336D01*
X41185664Y75110589D01*
X41357638Y75225498D01*
X41548726Y75304650D01*
X41726313Y75339973D01*
X41751583Y75345000D01*
X41958417Y75345000D01*
X41983687Y75339973D01*
X41983687Y75339973D01*
G37*
G36*
X8883187Y75339973D02*
G01*
X9060774Y75304650D01*
X9251862Y75225498D01*
X9423836Y75110589D01*
X9570089Y74964336D01*
X9684998Y74792362D01*
X9764150Y74601274D01*
X9799473Y74423687D01*
X9804500Y74398417D01*
X9804500Y74191583D01*
X9803520Y74186658D01*
X9764150Y73988726D01*
X9684998Y73797638D01*
X9570089Y73625664D01*
X9423836Y73479411D01*
X9251862Y73364502D01*
X9060774Y73285350D01*
X8883187Y73250027D01*
X8857917Y73245000D01*
X8651083Y73245000D01*
X8625813Y73250027D01*
X8448226Y73285350D01*
X8257138Y73364502D01*
X8085164Y73479411D01*
X7938911Y73625664D01*
X7824002Y73797638D01*
X7744850Y73988726D01*
X7705480Y74186658D01*
X7704500Y74191583D01*
X7704500Y74398417D01*
X7709527Y74423687D01*
X7744850Y74601274D01*
X7824002Y74792362D01*
X7938911Y74964336D01*
X8085164Y75110589D01*
X8257138Y75225498D01*
X8448226Y75304650D01*
X8625813Y75339973D01*
X8651083Y75345000D01*
X8857917Y75345000D01*
X8883187Y75339973D01*
X8883187Y75339973D01*
G37*
G36*
X4383187Y75339973D02*
G01*
X4560774Y75304650D01*
X4751862Y75225498D01*
X4923836Y75110589D01*
X5070089Y74964336D01*
X5184998Y74792362D01*
X5264150Y74601274D01*
X5299473Y74423687D01*
X5304500Y74398417D01*
X5304500Y74191583D01*
X5303520Y74186658D01*
X5264150Y73988726D01*
X5184998Y73797638D01*
X5070089Y73625664D01*
X4923836Y73479411D01*
X4751862Y73364502D01*
X4560774Y73285350D01*
X4383187Y73250027D01*
X4357917Y73245000D01*
X4151083Y73245000D01*
X4125813Y73250027D01*
X3948226Y73285350D01*
X3757138Y73364502D01*
X3585164Y73479411D01*
X3438911Y73625664D01*
X3324002Y73797638D01*
X3244850Y73988726D01*
X3205480Y74186658D01*
X3204500Y74191583D01*
X3204500Y74398417D01*
X3209527Y74423687D01*
X3244850Y74601274D01*
X3324002Y74792362D01*
X3438911Y74964336D01*
X3585164Y75110589D01*
X3757138Y75225498D01*
X3948226Y75304650D01*
X4125813Y75339973D01*
X4151083Y75345000D01*
X4357917Y75345000D01*
X4383187Y75339973D01*
X4383187Y75339973D01*
G37*
M02*
